<svg xmlns="http://www.w3.org/2000/svg" viewBox="0 0 512 512"><defs><style>.cls-1{fill:#fff;}.cls-2{fill:#2a85f5;}</style></defs><g id="Layer_2" data-name="Layer 2"><g id="Capa_1" data-name="Capa 1"><circle class="cls-1" cx="256" cy="251.87" r="237.91"/><path class="cls-2" d="M257,0C117.1,0,0,113,0,255,0,395.74,116,512,257,512c142.13,0,255-117.26,255-257C512,114.06,398,0,257,0Zm0,482.2c-125.17,0-227.2-102-227.2-227.2,0-124.07,102-225.2,227.2-225.2,124.07,0,225.2,101.13,225.2,225.2C482.2,380.17,381.07,482.2,257,482.2Z"/><path class="cls-2" d="M293.5,256,362,187.46a26.52,26.52,0,0,0,0-37.39l-1.83-1.84a26.53,26.53,0,0,0-37.4,0l-68.54,68.54-65.08-65.08a26.53,26.53,0,0,0-37.4,0L150,153.52a26.53,26.53,0,0,0,0,37.4L215,256,150,321.08a26.53,26.53,0,0,0,0,37.4l1.83,1.83a26.53,26.53,0,0,0,37.4,0l65.08-65.08,68.54,68.54a26.53,26.53,0,0,0,37.4,0l1.83-1.84a26.52,26.52,0,0,0,0-37.39Z"/></g></g></svg>