<?xml version="1.0" encoding="utf-8"?>
<!-- Generator: Adobe Illustrator 25.2.1, SVG Export Plug-In . SVG Version: 6.00 Build 0)  -->
<svg version="1.1" id="Layer_1" xmlns="http://www.w3.org/2000/svg" xmlns:xlink="http://www.w3.org/1999/xlink" x="0px" y="0px"
	 viewBox="0 0 60 60" style="enable-background:new 0 0 60 60;" xml:space="preserve">
<style type="text/css">
	.st0{fill:#F3F6F9;}
	.st1{fill:#2A85F5;}
	.st2{clip-path:url(#SVGID_2_);}
	.st3{clip-path:url(#SVGID_4_);}
</style>
<circle class="st0" cx="30" cy="30" r="29.2"/>
<path class="st1" d="M18.8,25.6c2.9-4.4,3.4-7.1,3.4-8.4c0-2.4-2-4.4-4.4-4.4c-2.4,0-4.4,2-4.4,4.4c0,1.2,0.4,3.9,3.4,8.4
	c0.4,0.6,1.1,0.7,1.7,0.3C18.6,25.9,18.7,25.8,18.8,25.6L18.8,25.6z M17.8,25.1c-0.1,0-0.1,0-0.1-0.1c-1-1.5-3.2-5.2-3.2-7.8
	c0-1.8,1.5-3.3,3.3-3.3s3.3,1.5,3.3,3.3c0,0,0,0,0,0c0,2.8-2.2,6.4-3.2,7.8C17.9,25.1,17.8,25.2,17.8,25.1z"/>
<g>
	<defs>
		<rect id="SVGID_1_" x="13.4" y="12.9" width="35.1" height="35.1"/>
	</defs>
	<clipPath id="SVGID_2_">
		<use xlink:href="#SVGID_1_"  style="overflow:visible;"/>
	</clipPath>
	<g class="st2">
		<path class="st1" d="M17.8,15.2c-0.3,0.1-0.5,0.3-0.4,0.6c0,0.2,0.2,0.4,0.4,0.4c0.6,0,1.1,0.5,1.1,1.1s-0.5,1.1-1.1,1.1
			c-0.6,0-1.1-0.5-1.1-1.1v0C16.6,17,16.3,16.9,16,17c-0.2,0-0.3,0.2-0.4,0.4c0,1.2,1,2.2,2.1,2.2s2.2-1,2.2-2.1S19,15.2,17.8,15.2
			C17.8,15.2,17.8,15.2,17.8,15.2L17.8,15.2z"/>
		<path class="st1" d="M44.2,34.7c-2.4,0-4.3,1.9-4.4,4.3c0,1.2,0.4,3.9,3.4,8.4c0.4,0.6,1.1,0.7,1.7,0.3c0.1-0.1,0.2-0.2,0.3-0.3
			c0.4-0.5,0.7-1.1,1-1.7c0.1-0.3,0-0.6-0.3-0.7c-0.2-0.1-0.5,0-0.6,0.2c-0.3,0.5-0.7,1.1-1,1.6c-0.1,0.1-0.2,0.1-0.3,0c0,0,0,0,0,0
			c-1-1.5-3.2-5.2-3.2-7.8c0.1-1.8,1.7-3.3,3.5-3.2c1.7,0.1,3.1,1.5,3.2,3.2c-0.1,1.3-0.4,2.6-1,3.8c-0.1,0.3,0,0.6,0.3,0.7
			c0.3,0.1,0.6,0,0.7-0.3c0.6-1.3,1-2.8,1-4.2c0-2.4-1.9-4.4-4.3-4.4L44.2,34.7z"/>
	</g>
</g>
<path class="st1" d="M42,39.1c0,1.2,0.9,2.2,2.1,2.2c1.2,0,2.2-0.9,2.2-2.1c0-1.2-0.9-2.2-2.1-2.2c0,0,0,0,0,0C43,37,42,38,42,39.1z
	 M45.3,39.1c0,0.6-0.5,1.1-1.1,1.1c-0.6,0-1.1-0.5-1.1-1.1c0-0.6,0.5-1.1,1.1-1.1l0,0C44.8,38,45.3,38.5,45.3,39.1
	C45.3,39.1,45.3,39.1,45.3,39.1L45.3,39.1z"/>
<path class="st1" d="M17.2,43c-0.3-0.1-0.6,0-0.7,0.2c0,0,0,0,0,0c-0.1,0.3,0,0.6,0.2,0.7c0.3,0.1,0.6,0,0.7-0.2
	C17.5,43.4,17.4,43.1,17.2,43C17.2,43,17.2,43,17.2,43z"/>
<path class="st1" d="M40,44c0,0.3-0.2,0.5-0.5,0.5S39,44.3,39,44c0-0.3,0.2-0.5,0.5-0.5C39.8,43.5,40,43.7,40,44C40,44,40,44,40,44z
	"/>
<path class="st1" d="M19,43.5c-0.3,0-0.5,0.2-0.6,0.5c0,0.3,0.2,0.5,0.5,0.6c0.3,0,0.5-0.2,0.6-0.5C19.5,43.8,19.3,43.5,19,43.5z"/>
<path class="st1" d="M15,41.8c-0.2,0.2-0.2,0.5,0,0.7s0.5,0.2,0.7,0c0.2-0.2,0.2-0.5,0-0.7C15.5,41.6,15.2,41.6,15,41.8z"/>
<g>
	<defs>
		<rect id="SVGID_3_" x="13.4" y="12.9" width="35.1" height="35.1"/>
	</defs>
	<clipPath id="SVGID_4_">
		<use xlink:href="#SVGID_3_"  style="overflow:visible;"/>
	</clipPath>
	<g class="st3">
		<path class="st1" d="M14.1,36.9c0.3,0.1,0.6,0,0.7-0.3c0.1-0.3,0-0.6-0.3-0.7c-0.3-0.1-0.6,0-0.7,0.3
			C13.8,36.5,13.9,36.8,14.1,36.9z"/>
		<path class="st1" d="M13.9,38.9c0.3,0,0.5-0.2,0.5-0.5c0-0.3-0.2-0.5-0.5-0.5c-0.3,0-0.5,0.2-0.5,0.5c0,0,0,0,0,0
			C13.4,38.7,13.6,38.9,13.9,38.9C13.9,38.9,13.9,38.9,13.9,38.9z"/>
	</g>
</g>
<path class="st1" d="M15.1,34.4c-0.2,0.2-0.2,0.5,0,0.7c0.2,0.2,0.5,0.2,0.7,0c0.2-0.2,0.2-0.5,0-0.7S15.3,34.2,15.1,34.4L15.1,34.4
	L15.1,34.4z"/>
<path class="st1" d="M14.1,40c-0.3,0.1-0.4,0.4-0.3,0.7c0,0,0,0,0,0c0.1,0.3,0.4,0.4,0.7,0.3c0.3-0.1,0.4-0.4,0.3-0.7c0,0,0,0,0,0
	C14.7,40,14.4,39.9,14.1,40z"/>
<path class="st1" d="M19.1,32.5c-0.3,0.1-0.4,0.4-0.4,0.6c0,0.2,0.2,0.3,0.4,0.4l0,0c0.3,0,0.5-0.3,0.5-0.5c0,0,0,0,0,0
	C19.5,32.7,19.3,32.5,19.1,32.5L19.1,32.5z"/>
<path class="st1" d="M16.9,33.1c-0.3,0.1-0.4,0.4-0.3,0.7c0,0,0,0,0,0c0.1,0.2,0.4,0.4,0.7,0.2c0.3-0.1,0.4-0.4,0.2-0.7
	S17.2,32.9,16.9,33.1z"/>
<path class="st1" d="M21.5,44c0,0.3-0.2,0.5-0.5,0.5c-0.3,0-0.5-0.2-0.5-0.5c0-0.3,0.2-0.5,0.5-0.5C21.3,43.5,21.5,43.7,21.5,44
	C21.5,44,21.5,44,21.5,44z"/>
<path class="st1" d="M33.8,44c0,0.3-0.2,0.5-0.5,0.5c-0.3,0-0.5-0.2-0.5-0.5c0-0.3,0.2-0.5,0.5-0.5c0,0,0,0,0,0
	C33.6,43.5,33.8,43.7,33.8,44C33.8,44,33.8,44,33.8,44z"/>
<path class="st1" d="M29.7,44c0,0.3-0.2,0.5-0.5,0.5s-0.5-0.2-0.5-0.5c0-0.3,0.2-0.5,0.5-0.5C29.5,43.5,29.7,43.7,29.7,44
	C29.7,44,29.7,44,29.7,44z"/>
<path class="st1" d="M37.9,44c0,0.3-0.2,0.5-0.5,0.5c-0.3,0-0.5-0.2-0.5-0.5c0-0.3,0.2-0.5,0.5-0.5c0,0,0,0,0,0
	C37.7,43.5,37.9,43.7,37.9,44C37.9,44,37.9,44,37.9,44z"/>
<path class="st1" d="M35.9,44c0,0.3-0.2,0.5-0.5,0.5c-0.3,0-0.5-0.2-0.5-0.5c0-0.3,0.2-0.5,0.5-0.5C35.6,43.5,35.9,43.7,35.9,44
	C35.9,44,35.9,44,35.9,44z"/>
<path class="st1" d="M31.8,44c0,0.3-0.2,0.5-0.5,0.5c-0.3,0-0.5-0.2-0.5-0.5c0-0.3,0.2-0.5,0.5-0.5C31.5,43.5,31.8,43.7,31.8,44
	C31.8,44,31.8,44,31.8,44z"/>
<path class="st1" d="M27.6,44c0,0.3-0.2,0.5-0.5,0.5c-0.3,0-0.5-0.2-0.5-0.5c0-0.3,0.2-0.5,0.5-0.5c0,0,0,0,0,0
	C27.4,43.5,27.7,43.7,27.6,44C27.7,44,27.7,44,27.6,44z"/>
<path class="st1" d="M25.6,44c0,0.3-0.2,0.5-0.5,0.5s-0.5-0.2-0.5-0.5c0-0.3,0.2-0.5,0.5-0.5C25.4,43.5,25.6,43.7,25.6,44
	C25.6,44,25.6,44,25.6,44z"/>
<path class="st1" d="M21.2,32.5c-0.3,0-0.5,0.2-0.5,0.5c0,0.3,0.2,0.5,0.5,0.5c0.3,0,0.5-0.2,0.5-0.5C21.7,32.7,21.5,32.5,21.2,32.5
	C21.2,32.5,21.2,32.5,21.2,32.5z"/>
<path class="st1" d="M23.5,44c0,0.3-0.2,0.5-0.5,0.5c-0.3,0-0.5-0.2-0.5-0.5c0-0.3,0.2-0.5,0.5-0.5c0,0,0,0,0,0
	C23.3,43.5,23.5,43.7,23.5,44C23.5,44,23.5,44,23.5,44z"/>
<path class="st1" d="M37.1,33.5c3.2-0.1,5.7-2.9,5.6-6.1c-0.1-3-2.6-5.5-5.6-5.6H22.6c-0.3,0.1-0.4,0.4-0.4,0.6
	c0,0.2,0.2,0.3,0.4,0.4h14.4c2.7,0.1,4.7,2.4,4.6,5c-0.1,2.5-2.1,4.5-4.6,4.6h-1.9c-0.3,0.1-0.4,0.4-0.4,0.6c0,0.2,0.2,0.3,0.4,0.4
	L37.1,33.5z"/>
<path class="st1" d="M32.7,36.1H24c-0.3,0-0.5-0.2-0.5-0.5c0,0,0,0,0,0v-5.8c0-0.3,0.2-0.5,0.5-0.5c0,0,0,0,0,0h8.7
	c0.3,0,0.5,0.2,0.5,0.5v5.8C33.1,35.9,32.9,36.1,32.7,36.1L32.7,36.1z M24.5,35.1h7.7v-4.8h-7.7L24.5,35.1z"/>
<path class="st1" d="M28.3,33.7c-0.1,0-0.2,0-0.3-0.1l-4.3-3.4c-0.2-0.2-0.2-0.5-0.1-0.7c0.2-0.2,0.5-0.2,0.7-0.1l0,0l4,3.1l4-3.1
	c0.1-0.1,0.2-0.1,0.4-0.1c0.1,0,0.3,0.1,0.3,0.2c0.1,0.1,0.1,0.2,0.1,0.4c0,0.1-0.1,0.2-0.2,0.3l-4.3,3.4
	C28.5,33.7,28.4,33.7,28.3,33.7L28.3,33.7z"/>
<path class="st1" d="M24,36.1c-0.2,0-0.3-0.1-0.4-0.2c-0.2-0.2-0.1-0.5,0.1-0.7c0,0,0,0,0,0l3.9-2.8c0.2-0.2,0.5-0.1,0.7,0.1
	c0,0,0,0,0,0c0.1,0.2,0.1,0.5-0.1,0.7L24.3,36C24.2,36.1,24.1,36.1,24,36.1z"/>
<path class="st1" d="M32.7,36.1c-0.1,0-0.2,0-0.3-0.1l-3.9-2.8c-0.2-0.2-0.3-0.4-0.1-0.7c0.1-0.1,0.2-0.2,0.3-0.2
	c0.1,0,0.3,0,0.4,0.1l3.9,2.8c0.2,0.1,0.3,0.4,0.1,0.7c0,0,0,0,0,0C33,36.1,32.9,36.1,32.7,36.1L32.7,36.1z"/>
</svg>
