<svg xmlns="http://www.w3.org/2000/svg" xmlns:xlink="http://www.w3.org/1999/xlink" viewBox="0 0 130 130"><defs><style>.cls-1{fill:none;}.cls-2{fill:#256cfd;}.cls-3{fill:#2d4050;}.cls-4{clip-path:url(#clip-path);}.cls-5{fill:#1cade3;}.cls-6{fill:#27c1e6;}.cls-7{fill:#31b1e7;}.cls-8{fill:#f5fafa;}.cls-9{fill:#e1ebf0;}</style><clipPath id="clip-path"><rect class="cls-1" x="31" y="32" width="68" height="68"/></clipPath></defs><g id="Layer_2" data-name="Layer 2"><g id="Layer_1-2" data-name="Layer 1"><circle class="cls-2" cx="65" cy="65" r="65"/><circle class="cls-3" cx="65" cy="65" r="56"/><g class="cls-4"><path class="cls-5" d="M62.66,80.41,50.59,68.34a2,2,0,0,0-2.82,0L31.58,84.53a2,2,0,0,0,.78,3.3l8.11,2.7,2.7,8.11a2,2,0,0,0,3.3.78L62.66,83.23a2,2,0,0,0,0-2.82Z"/><path class="cls-5" d="M62.66,80.41l-6-6L40.47,90.53l2.7,8.11a2,2,0,0,0,3.3.78L62.66,83.23a2,2,0,0,0,0-2.82Z"/><path class="cls-6" d="M79.41,68.34,67.34,80.41a2,2,0,0,0,0,2.82L83.53,99.42a2,2,0,0,0,3.3-.78l2.7-8.11,8.11-2.7A2,2,0,0,0,99,86.4a2,2,0,0,0-.53-1.87L82.23,68.34a2,2,0,0,0-2.82,0Z"/><path class="cls-6" d="M79.41,68.34l-6,6L89.53,90.53l8.11-2.7a2,2,0,0,0,.78-3.3L82.23,68.34a2,2,0,0,0-2.82,0Z"/><path class="cls-6" d="M92.12,60.9a2,2,0,0,0,0-2.6l-2.27-2.64,1.34-3.21a2,2,0,0,0-.8-2.47l-3-1.81.28-3.46a2,2,0,0,0-1.52-2.1l-3.39-.8L82,38.42a2,2,0,0,0-2.1-1.52l-3.47.28-1.81-3a2,2,0,0,0-2.46-.8l-3.21,1.33L66.3,32.48a2,2,0,0,0-2.6,0l-2.64,2.26-3.21-1.33a2,2,0,0,0-2.46.8l-1.81,3-3.47-.28A2,2,0,0,0,48,38.42l-.8,3.39-3.39.8a2,2,0,0,0-1.52,2.1l.28,3.46-3,1.81a2,2,0,0,0-.8,2.47l1.34,3.21L37.88,58.3a2,2,0,0,0,0,2.6l2.27,2.63-1.34,3.21a2,2,0,0,0,.8,2.47l3,1.81-.28,3.47a2,2,0,0,0,1.52,2.1l3.39.8.8,3.38a2,2,0,0,0,2.1,1.53L53.58,82l1.81,3a2,2,0,0,0,2.47.8l3.2-1.34,2.64,2.27a2,2,0,0,0,2.6,0l2.64-2.27,3.21,1.34a2,2,0,0,0,2.46-.8l1.81-3,3.47.28A2,2,0,0,0,82,80.77l.8-3.38,3.39-.8a2,2,0,0,0,1.52-2.1L87.42,71l3-1.81a2,2,0,0,0,.8-2.47l-1.34-3.21Z"/></g><path class="cls-7" d="M66.3,86.72l2.64-2.27,3.21,1.34a2,2,0,0,0,2.46-.8l1.81-3,3.47.28A2,2,0,0,0,82,80.77l.8-3.38,3.39-.8a2,2,0,0,0,1.52-2.1L87.42,71l3-1.81a2,2,0,0,0,.8-2.47l-1.34-3.2,2.27-2.64a2,2,0,0,0,0-2.6l-2.27-2.64,1.34-3.21a2,2,0,0,0-.8-2.47l-3-1.81.28-3.46a2,2,0,0,0-1.52-2.1l-3.39-.8L82,38.42a2,2,0,0,0-2.1-1.52l-3.47.28-1.81-3a2,2,0,0,0-2.46-.8l-3.21,1.34L66.3,32.48A2,2,0,0,0,65,32V87.2a2,2,0,0,0,1.3-.48Z"/><path class="cls-8" d="M61.46,73.81,49.72,62.07a2,2,0,0,1,0-2.81l6-6a2,2,0,0,1,2.81,0l4.3,4.29,9.62-9.62a2,2,0,0,1,2.82,0l6,6a2,2,0,0,1,0,2.82L64.28,73.81a2,2,0,0,1-2.82,0Z"/><path class="cls-9" d="M81.35,53.92l-6-6a2,2,0,0,0-2.82,0L65,55.38v17.7L81.35,56.74a2,2,0,0,0,0-2.82Z"/></g></g></svg>