<?xml version="1.0" encoding="utf-8"?>
<!-- Generator: Adobe Illustrator 25.2.1, SVG Export Plug-In . SVG Version: 6.00 Build 0)  -->
<svg version="1.1" id="Layer_1" xmlns="http://www.w3.org/2000/svg" xmlns:xlink="http://www.w3.org/1999/xlink" x="0px" y="0px"
	 viewBox="0 0 60 60" style="enable-background:new 0 0 60 60;" xml:space="preserve">
<style type="text/css">
	.st0{fill:#F3F6F9;}
	.st1{fill:#2A85F5;}
</style>
<circle class="st0" cx="30" cy="30" r="29.2"/>
<path class="st1" d="M29.6,45.7c0.4,0,0.8-0.2,1-0.5c1.1-1.3,10.9-13.2,10.9-19.3c0.2-6.5-5-12-11.5-12.2s-12,5-12.2,11.5
	c0,0.2,0,0.5,0,0.7c0,6.1,9.7,17.9,10.8,19.3C28.9,45.5,29.2,45.7,29.6,45.7z M29.6,16.7c5.1,0,9.2,4.1,9.2,9.2
	c0,3.9-5.9,12.2-9.2,16.3c-3.3-4.1-9.2-12.4-9.2-16.3C20.4,20.8,24.5,16.7,29.6,16.7L29.6,16.7z"/>
<path class="st1" d="M34.3,30.5c0.5-0.5,0.4-1.4-0.1-1.9c-0.5-0.5-1.3-0.4-1.8,0c-0.7,0.8-1.8,1.2-2.8,1.2c-2.2,0-3.9-1.8-3.9-4
	c0-2.2,1.8-3.9,4-3.9c2.2,0,3.9,1.8,3.9,4c0,0,0,0,0,0c0,0.7,0.6,1.3,1.3,1.3c0.7,0,1.3-0.6,1.3-1.3c0-3.6-2.9-6.6-6.6-6.6
	c-3.6,0-6.6,2.9-6.6,6.6c0,3.6,2.9,6.6,6.6,6.6C31.4,32.5,33.1,31.8,34.3,30.5z"/>
</svg>
