<svg xmlns="http://www.w3.org/2000/svg" xmlns:xlink="http://www.w3.org/1999/xlink" viewBox="0 0 165 165"><defs><style>.cls-1{fill:#f3f6f9;}.cls-2{fill:url(#linear-gradient);}</style><linearGradient id="linear-gradient" x1="95.91" y1="105.74" x2="107.83" y2="105.74" gradientUnits="userSpaceOnUse"><stop offset="0" stop-color="#31b1e7"/><stop offset="1" stop-color="#2a85f5"/></linearGradient></defs><g id="Layer_2" data-name="Layer 2"><g id="Layer_1-2" data-name="Layer 1"><circle class="cls-1" cx="82.5" cy="82.5" r="82.5"/><path d="M76.54,50.32A1.49,1.49,0,1,0,78,51.81a1.49,1.49,0,0,0-1.49-1.49Z"/><path d="M58.66,70a1.49,1.49,0,1,0,1.49,1.49A1.49,1.49,0,0,0,58.66,70Z"/><path d="M58.66,78.92a1.49,1.49,0,1,0,1.49,1.49,1.49,1.49,0,0,0-1.49-1.49Z"/><path d="M58.66,87.86a1.49,1.49,0,1,0,1.49,1.49,1.49,1.49,0,0,0-1.49-1.49Z"/><path d="M58.66,96.8a1.49,1.49,0,1,0,1.49,1.49,1.49,1.49,0,0,0-1.49-1.49Z"/><path d="M58.66,105.74a1.49,1.49,0,1,0,1.49,1.49,1.49,1.49,0,0,0-1.49-1.49Z"/><path d="M94.42,70H64.62a1.49,1.49,0,0,0,0,3h29.8a1.49,1.49,0,0,0,0-3Z"/><path d="M94.42,78.92H64.62a1.49,1.49,0,1,0,0,3h29.8a1.49,1.49,0,0,0,0-3Z"/><path d="M94.42,87.86H64.62a1.49,1.49,0,1,0,0,3h29.8a1.49,1.49,0,0,0,0-3Z"/><path class="cls-2" d="M107.39,101.71a1.48,1.48,0,0,0-2.1,0l-4.91,4.91-1.93-1.93a1.49,1.49,0,0,0-2.1,2.11l3,3a1.5,1.5,0,0,0,2.1,0l6-6a1.5,1.5,0,0,0,0-2.11Z"/><path d="M104.85,91.14V57.77a4.47,4.47,0,0,0-4.47-4.47H89.69a4.46,4.46,0,0,0-4.21-3H83.84a7.45,7.45,0,0,0-14.6,0H67.6a4.46,4.46,0,0,0-4.21,3H52.7a4.47,4.47,0,0,0-4.47,4.47v58.4a4.47,4.47,0,0,0,4.47,4.47h49.17a14.9,14.9,0,0,0,3-29.5ZM66.11,54.79A1.49,1.49,0,0,1,67.6,53.3h3a1.49,1.49,0,0,0,1.49-1.49,4.47,4.47,0,0,1,8.94,0A1.49,1.49,0,0,0,82.5,53.3h3A1.49,1.49,0,0,1,87,54.79v1.49H66.11ZM52.7,117.66a1.49,1.49,0,0,1-1.49-1.49V57.77a1.49,1.49,0,0,1,1.49-1.49H63.13v1.49a1.49,1.49,0,0,0,1.49,1.49H88.46A1.49,1.49,0,0,0,90,57.77V56.28h10.43a1.49,1.49,0,0,1,1.49,1.49V90.84A14.9,14.9,0,0,0,90,96.8H64.62a1.49,1.49,0,0,0-1.49,1.49,1.48,1.48,0,0,0,1.49,1.48H88.21a15,15,0,0,0-1.24,6H64.62a1.49,1.49,0,0,0,0,3H87.27a14.79,14.79,0,0,0,5.65,8.94Zm49.17,0A11.92,11.92,0,0,1,92,99.13h0a11.92,11.92,0,1,1,9.91,18.54Z"/></g></g></svg>