<svg xmlns="http://www.w3.org/2000/svg" viewBox="0 0 130 130"><defs><style>.cls-1{fill:#256cfd;}.cls-2{fill:#2d4050;}.cls-3{fill:#27c1e6;}.cls-4{fill:#31b1e7;}.cls-5{fill:#08101f;}.cls-6{fill:#f5fafa;}.cls-7{fill:#ccd1d9;}.cls-8{fill:#434a54;}</style></defs><g id="Layer_2" data-name="Layer 2"><g id="Layer_1-2" data-name="Layer 1"><circle class="cls-1" cx="65" cy="65" r="65"/><circle class="cls-2" cx="65" cy="65" r="56"/><path class="cls-3" d="M58.47,50.19a7.39,7.39,0,0,0-4.19,1L40.91,60.12A4.8,4.8,0,0,0,39,63.68v27.5a2.3,2.3,0,0,0,2.29,2.3H91.71A2.3,2.3,0,0,0,94,91.18V63.68a4.8,4.8,0,0,0-1.91-3.56L82.87,54a11.27,11.27,0,0,0-4.19-1.53Z"/><path class="cls-4" d="M78.68,52.44,68.57,51.31l-10.1-1.12a7.39,7.39,0,0,0-4.19,1l-6.69,4.46-6.68,4.46a4.62,4.62,0,0,0-1.55,2l27.1,17.82L93.62,62.07a4.58,4.58,0,0,0-1.53-2l-4.61-3.07L82.86,54A11.22,11.22,0,0,0,78.68,52.44Z"/><path class="cls-5" d="M49.31,84.31H44.73a1.15,1.15,0,1,1,0-2.29h4.58a1.15,1.15,0,1,1,0,2.29Z"/><path class="cls-5" d="M58.48,88.89H44.73a1.15,1.15,0,1,1,0-2.29H58.48a1.15,1.15,0,1,1,0,2.29Z"/><polygon class="cls-6" points="87.12 66.34 66.45 79.94 45.87 66.41 45.87 38.54 77.96 38.54 87.12 47.71 87.12 66.34"/><polygon class="cls-7" points="77.96 47.71 87.12 47.71 77.96 38.54 77.96 47.71"/><path class="cls-4" d="M69,78.8a3.42,3.42,0,0,0-5.12,0L63,79.94v1.15a3.44,3.44,0,0,0,6.88,0V79.94Z"/><path class="cls-4" d="M69.89,79.94a3.44,3.44,0,1,1-3.44-3.44A3.44,3.44,0,0,1,69.89,79.94Z"/><path class="cls-8" d="M79.16,60.2H54a1.15,1.15,0,1,0,0,2.29H79.16a1.15,1.15,0,0,0,0-2.29Z"/><path class="cls-8" d="M59.84,45.89l3.46,5.77,2-1.17-3.45-5.78h0a1.14,1.14,0,0,0-2.12.59,1.18,1.18,0,0,0,.16.59Z"/><path class="cls-8" d="M73.27,45.89h0a1.1,1.1,0,0,0,.17-.59,1.15,1.15,0,0,0-2.13-.59h0l-3.46,5.78,2,1.17Z"/><path class="cls-8" d="M54,53.49a6.37,6.37,0,0,0,4,4.77l.81-2.14a4.09,4.09,0,0,1-2.55-3h0a1.14,1.14,0,0,0-1.13-1,1.16,1.16,0,0,0-1.15,1.15,1,1,0,0,0,0,.17Z"/><path class="cls-8" d="M79.14,53.49h0a1,1,0,0,0,0-.17A1.16,1.16,0,0,0,78,52.17a1.14,1.14,0,0,0-1.13,1h0a4.07,4.07,0,0,1-2.55,3l.81,2.14A6.37,6.37,0,0,0,79.14,53.49Z"/><path class="cls-8" d="M78,70.34a6.35,6.35,0,0,0-4-4.77l-.8,2.14a4.07,4.07,0,0,1,2.54,3h0A1.15,1.15,0,0,0,78,70.51c0-.06,0-.12,0-.17Z"/><path class="cls-8" d="M55.1,70.34h0a.88.88,0,0,0,0,.17,1.15,1.15,0,0,0,2.28.16h0a4.06,4.06,0,0,1,2.55-3l-.81-2.14A6.4,6.4,0,0,0,55.1,70.34Z"/><path class="cls-3" d="M75.71,59.05c0,7-2.62,12.6-9.16,12.6S57.39,66,57.39,59.05s3.41-10.31,9.16-10.31S75.71,52.09,75.71,59.05Z"/><path class="cls-4" d="M75.08,54.47H58a12.65,12.65,0,0,0-.5,2.29h7.88V71.59a10.33,10.33,0,0,0,1.14.06,10.65,10.65,0,0,0,1.15-.06V56.76h7.87A12.48,12.48,0,0,0,75.08,54.47Z"/></g></g></svg>