<svg xmlns="http://www.w3.org/2000/svg" viewBox="0 0 130 130"><defs><style>.cls-1{fill:#256cfd;}.cls-2{fill:#2d4050;}.cls-3{fill:#31b1e7;}.cls-4{fill:#f5fafa;}.cls-5{fill:#a6d7e8;}</style></defs><g id="Layer_2" data-name="Layer 2"><g id="Layer_1-2" data-name="Layer 1"><circle class="cls-1" cx="65" cy="65" r="65"/><circle class="cls-2" cx="65.25" cy="65" r="56"/><path class="cls-3" d="M43.93,56.89h-15a2.68,2.68,0,0,1,0-5.36H43.93a2.68,2.68,0,0,1,0,5.36Z"/><path class="cls-3" d="M34.23,68h-15a2.68,2.68,0,1,1,0-5.36h15a2.68,2.68,0,0,1,0,5.36Z"/><path class="cls-3" d="M43.93,79.19h-15a2.68,2.68,0,1,1,0-5.36H43.93a2.68,2.68,0,1,1,0,5.36Z"/><path class="cls-4" d="M103.32,86H43.93a2.67,2.67,0,0,1-2.67-2.68V47.4a2.67,2.67,0,0,1,2.67-2.68h59.39A2.68,2.68,0,0,1,106,47.4V83.32A2.68,2.68,0,0,1,103.32,86Z"/><path class="cls-5" d="M73.63,71.57a2.67,2.67,0,0,1-1.57-.51L42.36,49.57a2.68,2.68,0,0,1,1.57-4.85h59.39a2.68,2.68,0,0,1,1.57,4.85L75.2,71.06A2.67,2.67,0,0,1,73.63,71.57Z"/><path class="cls-5" d="M103.32,44.72H73.63V86h29.69A2.68,2.68,0,0,0,106,83.32V47.4A2.68,2.68,0,0,0,103.32,44.72Z"/><path class="cls-3" d="M103.32,44.72H73.63V71.57a2.67,2.67,0,0,0,1.57-.51l29.69-21.49a2.68,2.68,0,0,0-1.57-4.85Z"/></g></g></svg>