<svg xmlns="http://www.w3.org/2000/svg" xmlns:xlink="http://www.w3.org/1999/xlink" viewBox="0 0 130 130"><defs><style>.cls-1{fill:none;}.cls-2{fill:#256cfd;}.cls-3{fill:#2d4050;}.cls-4{clip-path:url(#clip-path);}.cls-5{fill:#f5fafa;}.cls-5,.cls-6,.cls-7,.cls-8{fill-rule:evenodd;}.cls-6{fill:#65c7ea;}.cls-7{fill:#a6d7e8;}.cls-8{fill:#31b1e7;}</style><clipPath id="clip-path"><rect class="cls-1" x="32" y="36" width="66.73" height="63.6"/></clipPath></defs><g id="Layer_2" data-name="Layer 2"><g id="Layer_1-2" data-name="Layer 1"><circle class="cls-2" cx="65" cy="65" r="65"/><circle class="cls-3" cx="65.25" cy="65" r="56"/><g class="cls-4"><path class="cls-5" d="M65.36,49.15c-3.38-3.33-8.62-5.79-16.15-6.66v-4a2.27,2.27,0,0,0-3.57-2.06L33.29,45.52a2.13,2.13,0,0,0,0,3.91L45.64,58.5a2.27,2.27,0,0,0,3.57-2.06v-4c6.13.75,11.09,5,11.09,12.13l4.21-1.22c2.78-3,3.09-7.32.85-14.22Z"/><path class="cls-6" d="M65.36,49.15A17.17,17.17,0,0,0,60.3,61.72V99.56H70.42v-35c0-7.15,5-11.38,11.1-12.13v4a2.27,2.27,0,0,0,3.57,2.06l12.35-9.07a2.13,2.13,0,0,0,0-3.91L85.09,36.45a2.27,2.27,0,0,0-3.57,2.07v4c-7.54.87-12.77,3.33-16.16,6.66Z"/><path class="cls-7" d="M47.46,45.58c5.42.88,8.19,1.85,10.75,3.93,1.41,1.14,1.38,1.16.68,2.36-.85,1.46-2,4.1-1.44,4.67a11.87,11.87,0,0,1,2.85,8.05V61.72a17.17,17.17,0,0,1,5.06-12.57c-3.38-3.33-8.62-5.79-16.15-6.66v-4a2.27,2.27,0,0,0-3.57-2.06l-3.22,2.36A2.45,2.45,0,0,1,43.51,41v2.66c0,1.83,2,1.63,4,1.95Z"/><path class="cls-8" d="M83.56,47.35c-14,1.1-18.2,10.28-18.2,17.24v35h5.06v-35c0-7.15,5-11.38,11.1-12.13v4a2.27,2.27,0,0,0,3.57,2.06l12.35-9.07a2.13,2.13,0,0,0,0-3.91l-1.15-.85L87.12,51.4a2.26,2.26,0,0,1-3.56-2.06Z"/></g></g></g></svg>