<svg xmlns="http://www.w3.org/2000/svg" viewBox="0 0 130 130"><defs><style>.cls-1{fill:#256cfd;}.cls-2{fill:#2d4050;}.cls-3{fill:#31b1e7;}.cls-4{fill:#27c1e6;}.cls-5{fill:#fff;}.cls-6{fill:#2e4050;}.cls-7{fill:#08101f;}</style></defs><g id="Layer_2" data-name="Layer 2"><g id="Layer_1-2" data-name="Layer 1"><circle class="cls-1" cx="65" cy="65" r="65"/><circle class="cls-2" cx="65" cy="65" r="56"/><path class="cls-3" d="M87.55,83.21h-49a2.36,2.36,0,0,1-2.36-2.35V50.32A2.36,2.36,0,0,1,38.55,48h49a2.36,2.36,0,0,1,2.35,2.36V80.86a2.35,2.35,0,0,1-2.35,2.35Z"/><path class="cls-4" d="M87.55,48H84a2.36,2.36,0,0,1,2.36,2.36V80.86A2.36,2.36,0,0,1,84,83.21h3.53a2.35,2.35,0,0,0,2.35-2.35V50.32A2.36,2.36,0,0,0,87.55,48Z"/><path class="cls-4" d="M89.9,56.2,63.05,63.11,36.19,56.2V50.32A2.36,2.36,0,0,1,38.55,48h49a2.36,2.36,0,0,1,2.35,2.36Z"/><path class="cls-3" d="M87.55,48H84a2.36,2.36,0,0,1,2.36,2.36v6.79l3.52-.91V50.32A2.36,2.36,0,0,0,87.55,48Z"/><path class="cls-4" d="M94,84.1a7.9,7.9,0,1,1-7.9-7.9A7.89,7.89,0,0,1,94,84.1Z"/><path class="cls-3" d="M86.1,76.2a7.94,7.94,0,0,0-1.77.21,7.9,7.9,0,0,1,0,15.39A7.9,7.9,0,1,0,86.1,76.2Z"/><path class="cls-5" d="M88,81.69l-2.73,2.72L84.2,83.33a1,1,0,0,0-1.41,1.41l1.79,1.78a1,1,0,0,0,1.41,0l3.42-3.42a1,1,0,0,0,0-1.41,1,1,0,0,0-1.4,0Z"/><path class="cls-6" d="M31,72.05a1,1,0,0,0-1-1H28a1,1,0,1,0,0,2h2a1,1,0,0,0,1-1Z"/><path class="cls-6" d="M50.25,51.54h-4.2a1,1,0,1,0,0,2h4.2a1,1,0,1,0,0-2Z"/><path class="cls-6" d="M28,58.84h3.24a1,1,0,1,0,0-2H28a1,1,0,1,0,0,2Z"/><path class="cls-7" d="M90.9,76.62V50.32A3.36,3.36,0,0,0,87.55,47h-49a3.35,3.35,0,0,0-3.35,3.35v1.22H28a1,1,0,1,0,0,2h7.2v9.24H28a1,1,0,1,0,0,2h7.2v6.3H33.88a1,1,0,1,0,0,2H35.2v4.59h-4a1,1,0,0,0,0,2h4v1.23a3.36,3.36,0,0,0,3.35,3.35H56.22a1,1,0,0,0,0-2H42.48c14.74-20.88,13.87-19.62,14-19.79l6.37,1.64a1.06,1.06,0,0,0,.5,0l6.37-1.64c.08.17-.57-.78,10.57,15a8.91,8.91,0,0,0-2.83,4.8H60.2a1,1,0,1,0,0,2h17a8.9,8.9,0,0,0,14,7.2A1,1,0,0,0,90,89.78a6.92,6.92,0,1,1,2.27-2.65A1,1,0,0,0,94.1,88a8.75,8.75,0,0,0,.9-3.9,8.89,8.89,0,0,0-4.1-7.48ZM63.05,62.08,45.12,57.47a1,1,0,0,0-.5,1.93l9.76,2.51L40,82.22H38.55a1.36,1.36,0,0,1-1.36-1.36V79.63h2.17a1,1,0,0,0,0-2H37.19V73.05h5.42a1,1,0,0,0,0-2H37.19v-6.3h3.36a1,1,0,1,0,0-2H37.19V57.49l3.57.92a1.07,1.07,0,0,0,.25,0,1,1,0,0,0,.25-2l-4.07-1v-1.9h5.42a1,1,0,0,0,0-2H37.19V50.32A1.36,1.36,0,0,1,38.55,49h49a1.36,1.36,0,0,1,1.36,1.36v5.11Zm18.82,14.2L71.72,61.91l17.19-4.42V75.66a9,9,0,0,0-2.81-.45,8.88,8.88,0,0,0-4.23,1.07Z"/></g></g></svg>