<?xml version="1.0" encoding="utf-8"?>
<!-- Generator: Adobe Illustrator 25.2.1, SVG Export Plug-In . SVG Version: 6.00 Build 0)  -->
<svg version="1.1" id="Layer_1" xmlns="http://www.w3.org/2000/svg" xmlns:xlink="http://www.w3.org/1999/xlink" x="0px" y="0px"
	 viewBox="0 0 60 60" style="enable-background:new 0 0 60 60;" xml:space="preserve">
<style type="text/css">
	.st0{fill:#F3F6F9;}
	.st1{clip-path:url(#SVGID_2_);}
	.st2{fill:#2A85F5;}
</style>
<circle class="st0" cx="30" cy="30" r="29.2"/>
<g>
	<defs>
		<rect id="SVGID_1_" x="16.9" y="14.1" width="26.1" height="31.9"/>
	</defs>
	<clipPath id="SVGID_2_">
		<use xlink:href="#SVGID_1_"  style="overflow:visible;"/>
	</clipPath>
	<g class="st1">
		<path class="st2" d="M32.9,45.9H19.5c-1.4,0-2.5-1.1-2.5-2.5c0,0,0,0,0,0V16.6c0-1.4,1.1-2.5,2.5-2.5c0,0,0,0,0,0h13.4
			c1.4,0,2.5,1.1,2.5,2.5c0,0,0,0,0,0v5c0,0.5-0.4,0.8-0.8,0.8s-0.8-0.4-0.8-0.8v-5c0-0.5-0.4-0.8-0.8-0.8c0,0,0,0,0,0H19.5
			c-0.5,0-0.8,0.4-0.8,0.8v26.8c0,0.5,0.4,0.8,0.8,0.8h13.4c0.5,0,0.8-0.4,0.8-0.8c0,0,0,0,0,0v-5c0-0.5,0.4-0.8,0.8-0.8
			s0.8,0.4,0.8,0.8l0,0v5C35.4,44.8,34.3,45.9,32.9,45.9C32.9,45.9,32.9,45.9,32.9,45.9z"/>
	</g>
</g>
<path class="st2" d="M34.5,20.8H17.8c-0.5,0-0.8-0.4-0.8-0.8s0.4-0.8,0.8-0.8h16.8c0.5,0,0.8,0.4,0.8,0.8S35,20.8,34.5,20.8z"/>
<path class="st2" d="M27.8,18.3h-3.4c-0.5,0-0.8-0.4-0.8-0.8s0.4-0.8,0.8-0.8l0,0h3.4c0.5,0,0.8,0.4,0.8,0.8S28.3,18.3,27.8,18.3z"
	/>
<path class="st2" d="M34.5,40.9H17.8c-0.5,0-0.8-0.4-0.8-0.8s0.4-0.8,0.8-0.8h16.8c0.5,0,0.8,0.4,0.8,0.8S35,40.9,34.5,40.9z"/>
<path class="st2" d="M27,42.6c0,0.5-0.4,0.8-0.8,0.8s-0.8-0.4-0.8-0.8s0.4-0.8,0.8-0.8C26.6,41.7,27,42.1,27,42.6z"/>
<path class="st2" d="M42.1,35.9H27c-0.5,0-0.8-0.4-0.8-0.8l0,0V25c0-0.5,0.4-0.8,0.8-0.8l0,0h15.1c0.5,0,0.8,0.4,0.8,0.8v10
	C42.9,35.5,42.6,35.8,42.1,35.9L42.1,35.9z M27.8,34.2h13.4v-8.4H27.8V34.2z"/>
<path class="st2" d="M34.5,31.7c-0.2,0-0.4-0.1-0.5-0.2l-7.5-5.9c-0.3-0.3-0.3-0.9,0-1.2c0.3-0.2,0.6-0.3,1-0.1l7,5.5l7-5.5
	c0.2-0.2,0.4-0.2,0.6-0.2c0.2,0,0.4,0.1,0.6,0.3c0.1,0.2,0.2,0.4,0.2,0.6c0,0.2-0.2,0.4-0.4,0.6L35,31.5
	C34.9,31.6,34.7,31.7,34.5,31.7z"/>
<path class="st2" d="M27,35.9c-0.3,0-0.5-0.1-0.7-0.3c-0.3-0.4-0.2-0.9,0.2-1.2l6.7-4.8c0.2-0.1,0.4-0.2,0.6-0.1
	c0.2,0,0.4,0.2,0.5,0.4c0.3,0.4,0.2,0.9-0.2,1.2c0,0,0,0,0,0l-6.7,4.8C27.3,35.8,27.2,35.9,27,35.9z"/>
<path class="st2" d="M42.1,35.9c-0.2,0-0.3-0.1-0.5-0.2l-6.7-4.8c-0.4-0.3-0.5-0.8-0.2-1.2c0,0,0,0,0,0c0.1-0.2,0.3-0.3,0.5-0.4
	c0.2,0,0.4,0,0.6,0.1l6.7,4.8c0.4,0.3,0.5,0.8,0.2,1.2C42.6,35.7,42.4,35.9,42.1,35.9z"/>
</svg>
