<svg xmlns="http://www.w3.org/2000/svg" xmlns:xlink="http://www.w3.org/1999/xlink" viewBox="0 0 165 165"><defs><style>.cls-1{fill:#f3f6f9;}.cls-2{fill:url(#linear-gradient);}</style><linearGradient id="linear-gradient" x1="60.12" y1="84.42" x2="104.88" y2="84.42" gradientUnits="userSpaceOnUse"><stop offset="0" stop-color="#31b1e7"/><stop offset="1" stop-color="#2a85f5"/></linearGradient></defs><g id="Layer_2" data-name="Layer 2"><g id="Layer_1-2" data-name="Layer 1"><circle class="cls-1" cx="82.5" cy="82.5" r="82.5"/><path d="M82.64,49.71a35.21,35.21,0,1,0,35.07,35.07A35.29,35.29,0,0,0,82.64,49.71Zm0,66.32a31.11,31.11,0,1,1,31-31.25A31.3,31.3,0,0,1,82.64,116Z"/><path class="cls-2" d="M103.06,69.84a6.18,6.18,0,0,0-8.74,0L78,85.9l-7.31-7.31a6.19,6.19,0,0,0-8.75,8.75L73.61,99a6.56,6.56,0,0,0,9,0l20.42-20.43A6.18,6.18,0,0,0,103.06,69.84Zm-2.92,5.83L79.72,96.1a2.42,2.42,0,0,1-3.19,0L64.86,84.43a2.06,2.06,0,1,1,2.91-2.92l8.76,8.75a2.05,2.05,0,0,0,2.9,0l17.78-17.5h0a2,2,0,0,1,2.91,0h0A2,2,0,0,1,100.14,75.67Z"/></g></g></svg>