<svg xmlns="http://www.w3.org/2000/svg" xmlns:xlink="http://www.w3.org/1999/xlink" viewBox="0 0 165 165"><defs><style>.cls-1{fill:#f3f6f9;}.cls-2{fill:url(#linear-gradient);}</style><linearGradient id="linear-gradient" x1="43.57" y1="68.52" x2="126.54" y2="68.52" gradientUnits="userSpaceOnUse"><stop offset="0" stop-color="#31b1e7"/><stop offset="1" stop-color="#2a85f5"/></linearGradient></defs><g id="Layer_2" data-name="Layer 2"><g id="Layer_1-2" data-name="Layer 1"><circle class="cls-1" cx="82.5" cy="82.5" r="82.5"/><path d="M117.59,108.83l0-.06c-1.58-3.7-5.3-5.07-9.69-3.57l-12,3.32a7.91,7.91,0,0,0-4.87-4.8h0L77.81,99.24a13.58,13.58,0,0,0-11-5c-4.5,0-8.47,3.09-10.75,6.45H40.18a1.72,1.72,0,0,0-1.72,1.72v21.69a1.72,1.72,0,0,0,1.72,1.72H50.41a1.72,1.72,0,0,0,1.72-1.72v-1.49h4.8a1.72,1.72,0,0,0,1.72-1.72v-.5c2.79.25,3.71.78,6.28,2.26a104.67,104.67,0,0,0,10.34,5.28l.07,0a15.59,15.59,0,0,0,5.54,1,13.69,13.69,0,0,0,5.69-1.22l26.49-9.48.14-.06C115.74,117,119.51,113.74,117.59,108.83Zm-68.9,13.5H41.9V104.08h6.79Zm6.52-3.21H52.13v-15h3.08ZM111.83,115l-26.48,9.48a.19.19,0,0,1-.08,0l-.07,0a11.13,11.13,0,0,1-8.56.15,99.82,99.82,0,0,1-10-5.1c-2.82-1.62-4.17-2.41-8-2.72V103c1.63-2.67,4.79-5.41,8.2-5.41,5.85,0,8.32,3.81,8.42,4a1.73,1.73,0,0,0,.91.73L89.85,107c2.19.82,3.34,2.69,2.81,4.55a3.3,3.3,0,0,1-1.59,2,3.34,3.34,0,0,1-2.53.31l-15.41-4.89a1.72,1.72,0,1,0-1,3.28l15.44,4.89,0,0a7,7,0,0,0,1.87.26A6.8,6.8,0,0,0,96,112.45c0-.14.08-.28.11-.41L109,108.46c1.87-.64,4.32-.87,5.41,1.64C115.52,113.05,112.59,114.67,111.83,115Z"/><path class="cls-2" d="M124.82,46.71H114.59a1.72,1.72,0,0,0-1.72,1.72v1.49h-4.8a1.72,1.72,0,0,0-1.72,1.72v.49c-2.79-.24-3.71-.77-6.28-2.25A104.67,104.67,0,0,0,89.73,44.6l-.07,0a14.61,14.61,0,0,0-11.23.17L71.5,47.22l-5.83-5.83a1.72,1.72,0,0,0-2.43,0L44.08,60.54a1.71,1.71,0,0,0,0,2.44L76.81,95.71a1.88,1.88,0,0,0,2.44,0L96.74,78.22q.67.06,1.41.06c4.5,0,8.47-3.08,10.74-6.44h15.93a1.72,1.72,0,0,0,1.72-1.72V48.43A1.72,1.72,0,0,0,124.82,46.71Zm-56,15.95A7.6,7.6,0,0,0,74,68.75l0,0,3.44,1.16a6.37,6.37,0,1,1-10.72-5.88A6.44,6.44,0,0,1,68.82,62.66ZM72.26,56a6.7,6.7,0,0,0-2.81,3A9.8,9.8,0,1,0,80.73,71l5.8,2a11,11,0,0,0,1.83,8.71l-3.93,3.93a11,11,0,0,0-12.8,0l-17.5-17.5a10.93,10.93,0,0,0,0-12.8l3.92-3.92a11,11,0,0,0,12.8,0l3.72,3.72A6.74,6.74,0,0,0,72.26,56ZM90.84,79.26a7.5,7.5,0,0,1-1.1-3.58,13.41,13.41,0,0,0,3,1.64ZM64.45,45,68.37,49a7.53,7.53,0,0,1-7.84,0Zm-12.8,12.8a7.48,7.48,0,0,1,0,7.84l-3.92-3.92ZM78,92.06l-3.92-3.92a7.48,7.48,0,0,1,7.84,0ZM98.15,74.84a12.6,12.6,0,0,1-1.79-.12h0A9.86,9.86,0,0,1,90,71.23L89.77,71a1.7,1.7,0,0,0-1-.79L75.15,65.52C73,64.7,71.81,62.83,72.34,61h0a3.35,3.35,0,0,1,4.12-2.31l15.41,4.88a1.72,1.72,0,1,0,1-3.28L80.65,56.37l-.11-.11h0l-6.35-6.35L79.65,48l.06,0h0l.07,0a11.18,11.18,0,0,1,8.56-.15,99.25,99.25,0,0,1,10,5.11c2.82,1.62,4.17,2.4,8,2.72V69.43C104.72,72.11,101.56,74.84,98.15,74.84Zm11.64-21.48h3.08v15h-3.08Zm13.31,15h-6.79V50.15h6.79Z"/></g></g></svg>