<?xml version="1.0" encoding="utf-8"?>
<!-- Generator: Adobe Illustrator 25.2.1, SVG Export Plug-In . SVG Version: 6.00 Build 0)  -->
<svg version="1.1" id="Layer_1" xmlns="http://www.w3.org/2000/svg" xmlns:xlink="http://www.w3.org/1999/xlink" x="0px" y="0px"
	 viewBox="0 0 60 60" style="enable-background:new 0 0 60 60;" xml:space="preserve">
<style type="text/css">
	.st0{fill:#F3F6F9;}
	.st1{clip-path:url(#SVGID_2_);}
	.st2{fill:#2A85F5;}
</style>
<circle class="st0" cx="30" cy="30" r="29.2"/>
<g>
	<defs>
		<rect id="SVGID_1_" x="9.5" y="11.5" width="41" height="39"/>
	</defs>
	<clipPath id="SVGID_2_">
		<use xlink:href="#SVGID_1_"  style="overflow:visible;"/>
	</clipPath>
	<g class="st1">
		<path class="st2" d="M20.7,44.5c-0.3,0-0.5-0.1-0.6-0.4c-2.5-5.5-0.1-12,5.4-14.5c1.4-0.7,3-1,4.6-1c1.2,0,2.4,0.2,3.5,0.6
			c0.2,0.1,0.3,0.2,0.4,0.4c0.2,0.3,0,0.8-0.3,0.9c-0.2,0.1-0.3,0.1-0.5,0c-5-1.7-10.4,1-12.1,6c-0.8,2.3-0.7,4.8,0.3,7
			c0.1,0.3,0,0.7-0.3,0.9C20.9,44.4,20.8,44.4,20.7,44.5L20.7,44.5z"/>
		<path class="st2" d="M30,50.5c-2.9,0-5.7-1.1-7.7-3.2c-0.1-0.1-0.2-0.3-0.2-0.5c0-0.4,0.3-0.7,0.7-0.7c0.2,0,0.3,0.1,0.5,0.2
			c3.7,3.7,9.8,3.8,13.5,0c1.8-1.8,2.8-4.2,2.8-6.8c0-0.4,0.3-0.7,0.7-0.7l0,0c0.4,0,0.7,0.3,0.7,0.7C40.9,45.6,36,50.5,30,50.5z"/>
	</g>
</g>
<path class="st2" d="M30,50.5c-0.4,0-0.7-0.3-0.7-0.7l0,0V29.3c0-0.4,0.3-0.7,0.7-0.7s0.7,0.3,0.7,0.7l0,0v20.5
	C30.7,50.2,30.4,50.5,30,50.5L30,50.5z"/>
<path class="st2" d="M30,50.5c-3.5,0-6.1-4.8-6.1-10.9s2.7-10.9,6.1-10.9s6.2,4.8,6.2,10.9S33.5,50.5,30,50.5z M30,30
	c-2.6,0-4.8,4.4-4.8,9.6s2.2,9.6,4.8,9.6s4.8-4.4,4.8-9.6S32.6,30,30,30z"/>
<path class="st2" d="M37.5,40.2H19.8c-0.4,0-0.7-0.2-0.8-0.6c0-0.4,0.2-0.7,0.6-0.8c0.1,0,0.1,0,0.2,0h17.8c0.4,0,0.6,0.4,0.6,0.8
	C38.1,39.9,37.8,40.2,37.5,40.2z"/>
<path class="st2" d="M27.3,26.1v-3.7c-1.1,0-2-0.8-2-1.9c0,0,0-0.1,0-0.1v-6.8c0-1.1,0.8-2,1.9-2.1c0,0,0.1,0,0.1,0h10.9
	c1.1,0,2,0.9,2,2.1v6.8c0,1.1-0.9,2-2,2H31L27.3,26.1z M27.3,12.9c-0.4,0-0.7,0.3-0.7,0.7c0,0,0,0,0,0v6.8c0,0.4,0.3,0.7,0.7,0.7
	h1.3v1.8l1.8-1.8h7.8c0.4,0,0.7-0.3,0.7-0.7v-6.8c0-0.4-0.3-0.7-0.7-0.7c0,0,0,0,0,0H27.3z"/>
<path class="st2" d="M36.2,16.3h-6.8c-0.4,0-0.7-0.3-0.7-0.7l0,0c0-0.4,0.3-0.7,0.7-0.7c0,0,0,0,0,0h6.8c0.4,0,0.7,0.3,0.7,0.7
	c0,0,0,0,0,0C36.8,16,36.5,16.3,36.2,16.3C36.2,16.3,36.2,16.3,36.2,16.3z"/>
<path class="st2" d="M36.2,19h-6.8c-0.4,0-0.7-0.2-0.8-0.6c0-0.4,0.2-0.7,0.6-0.8c0.1,0,0.1,0,0.2,0h6.8c0.4,0,0.6,0.4,0.6,0.8
	C36.7,18.7,36.5,19,36.2,19z"/>
<path class="st2" d="M19.8,23.1h-6.1c-0.4,0-0.7-0.2-0.8-0.6c0-0.4,0.2-0.7,0.6-0.8c0.1,0,0.1,0,0.2,0h6.1c0.4,0,0.6,0.4,0.6,0.8
	C20.3,22.9,20.1,23.1,19.8,23.1z"/>
<path class="st2" d="M19.8,25.9h-6.1c-0.4,0-0.7-0.3-0.7-0.7s0.3-0.7,0.7-0.7l0,0h6.1c0.4,0,0.7,0.3,0.7,0.7S20.1,25.9,19.8,25.9z"
	/>
<path class="st2" d="M19.8,33L16,29.3h-1.8c-2.6,0-4.8-2.1-4.8-4.8c0,0,0,0,0,0v-1.4c0-2.6,2.1-4.8,4.8-4.8l0,0h4.8
	c2.6,0,4.8,2.1,4.8,4.8c0,0,0,0,0,0v1.4c0,2.4-1.7,4.4-4.1,4.7L19.8,33z M14.3,19.7c-1.9,0-3.4,1.5-3.4,3.4v1.4
	c0,1.9,1.5,3.4,3.4,3.4h2.3l1.8,1.8v-1.8h0.7c1.9,0,3.4-1.5,3.4-3.4v-1.4c0-1.9-1.5-3.4-3.4-3.4H14.3z"/>
<path class="st2" d="M38.9,38.6v-3.8c-1.9,0-3.4-1.5-3.4-3.4v-4.1c0-1.9,1.5-3.4,3.4-3.4h8.2c1.9,0,3.4,1.5,3.4,3.4v4.1
	c0,1.9-1.5,3.4-3.4,3.4h-4.5L38.9,38.6z M38.9,25.2c-1.1,0-2,0.9-2.1,2v4.1c0,1.1,0.9,2.1,2,2.1c0,0,0,0,0,0h1.4v1.8l1.8-1.8h5.1
	c1.1,0,2-0.9,2-2v-4.1c0-1.1-0.9-2-2-2L38.9,25.2z"/>
<path class="st2" d="M45.7,28.6h-5.5c-0.4,0-0.6-0.4-0.6-0.8c0-0.3,0.3-0.6,0.6-0.6h5.5c0.4,0,0.6,0.4,0.6,0.8
	C46.3,28.3,46,28.6,45.7,28.6z"/>
<path class="st2" d="M45.7,31.3h-5.5c-0.4,0-0.7-0.3-0.7-0.7c0,0,0,0,0,0c0-0.4,0.3-0.7,0.7-0.7c0,0,0,0,0,0h5.5
	c0.4,0,0.7,0.3,0.7,0.7c0,0,0,0,0,0C46.4,31,46.1,31.3,45.7,31.3C45.7,31.3,45.7,31.3,45.7,31.3z"/>
</svg>
