<?xml version="1.0" encoding="utf-8"?>
<!-- Generator: Adobe Illustrator 25.2.1, SVG Export Plug-In . SVG Version: 6.00 Build 0)  -->
<svg version="1.1" id="Layer_1" xmlns="http://www.w3.org/2000/svg" xmlns:xlink="http://www.w3.org/1999/xlink" x="0px" y="0px"
	 viewBox="0 0 60 60" style="enable-background:new 0 0 60 60;" xml:space="preserve">
<style type="text/css">
	.st0{fill:#F3F6F9;}
	.st1{fill:#2A85F5;}
</style>
<circle class="st0" cx="30" cy="30" r="29.2"/>
<path class="st1" d="M44,33.5H16c-0.3,0-0.6,0.2-0.6,0.6c0,0,0,0,0,0v8.3c0,0.3,0.3,0.6,0.6,0.6c0,0,0,0,0,0h28
	c0.3,0,0.6-0.3,0.6-0.6c0,0,0,0,0,0v-8.3C44.6,33.8,44.3,33.6,44,33.5C44,33.5,44,33.5,44,33.5z M43.4,41.9H16.6v-7.1h26.8
	L43.4,41.9z"/>
<path class="st1" d="M17.9,39.5c0.1,0.2,0.3,0.3,0.5,0.3c0.1,0,0.2,0,0.3-0.1l0.6-0.4v0.8c0,0.3,0.3,0.6,0.6,0.6l0,0
	c0.3,0,0.6-0.3,0.6-0.6v-0.8l0.6,0.4c0.1,0.1,0.2,0.1,0.3,0.1c0.2,0,0.4-0.1,0.5-0.3c0.2-0.3,0.1-0.6-0.2-0.8c0,0,0,0,0,0l-0.6-0.4
	l0.6-0.4c0.3-0.2,0.4-0.5,0.2-0.8c0,0,0,0,0,0c-0.2-0.3-0.5-0.4-0.8-0.2c0,0,0,0,0,0l-0.6,0.4v-0.8c0-0.3-0.3-0.6-0.6-0.6
	c-0.3,0-0.6,0.3-0.6,0.6c0,0,0,0,0,0v0.8l-0.6-0.4c-0.3-0.2-0.7-0.1-0.8,0.2c-0.2,0.3-0.1,0.7,0.2,0.8l0.6,0.4l-0.6,0.4
	C17.8,38.8,17.7,39.2,17.9,39.5z"/>
<path class="st1" d="M23.4,39.5c0.2,0.3,0.5,0.4,0.8,0.2c0,0,0,0,0,0l0.6-0.4v0.8c0,0.3,0.3,0.6,0.6,0.6c0.3,0,0.6-0.3,0.6-0.6l0,0
	v-0.8l0.7,0.4c0.3,0.2,0.6,0.1,0.8-0.2c0,0,0,0,0,0c0.2-0.3,0.1-0.6-0.2-0.8c0,0,0,0,0,0l-0.6-0.4l0.6-0.4c0.3-0.2,0.4-0.5,0.2-0.8
	c0,0,0,0,0,0c-0.2-0.3-0.5-0.4-0.8-0.2c0,0,0,0,0,0L26,37.3v-0.8c0-0.3-0.3-0.6-0.6-0.6c0,0,0,0,0,0c-0.3,0-0.6,0.3-0.6,0.6v0.8
	l-0.6-0.4c-0.3-0.2-0.6-0.1-0.8,0.2c0,0,0,0,0,0c-0.2,0.3-0.1,0.7,0.2,0.8c0,0,0,0,0,0l0.6,0.4l-0.6,0.4
	C23.3,38.8,23.2,39.2,23.4,39.5C23.4,39.5,23.4,39.5,23.4,39.5z"/>
<path class="st1" d="M28.8,39.5c0.1,0.2,0.3,0.3,0.5,0.3c0.1,0,0.2,0,0.3-0.1l0.6-0.4v0.8c0,0.3,0.3,0.6,0.7,0.5
	c0.3,0,0.5-0.2,0.5-0.5v-0.8l0.7,0.4c0.1,0,0.2,0.1,0.3,0.1c0.3,0,0.6-0.2,0.6-0.6c0-0.2-0.1-0.4-0.3-0.5l-0.7-0.4l0.7-0.4
	c0.3-0.2,0.4-0.5,0.2-0.8c-0.2-0.3-0.5-0.4-0.8-0.2l-0.6,0.4v-0.8c0-0.3-0.2-0.6-0.5-0.7c-0.3,0-0.6,0.2-0.7,0.5c0,0.1,0,0.1,0,0.2
	v0.8l-0.6-0.4c-0.3-0.2-0.6-0.1-0.8,0.2c0,0,0,0,0,0c-0.2,0.3-0.1,0.7,0.2,0.8l0.7,0.4L29,38.7C28.8,38.8,28.7,39.2,28.8,39.5
	C28.8,39.5,28.8,39.5,28.8,39.5z"/>
<path class="st1" d="M34.3,39.5c0.1,0.2,0.3,0.3,0.5,0.3c0.1,0,0.2,0,0.3-0.1l0.7-0.4v0.8c0,0.3,0.3,0.6,0.6,0.6l0,0
	c0.3,0,0.6-0.3,0.6-0.6v-0.8l0.7,0.4c0.1,0.1,0.2,0.1,0.3,0.1c0.2,0,0.4-0.1,0.5-0.3c0.2-0.3,0.1-0.6-0.2-0.8c0,0,0,0,0,0l-0.7-0.4
	l0.7-0.4c0.3-0.2,0.4-0.5,0.2-0.8c0,0,0,0,0,0c-0.2-0.3-0.5-0.4-0.8-0.2c0,0,0,0,0,0l-0.7,0.4v-0.8c0-0.3-0.3-0.6-0.6-0.6
	c-0.3,0-0.6,0.3-0.6,0.6c0,0,0,0,0,0v0.8l-0.7-0.4c-0.3-0.2-0.7-0.1-0.8,0.2c-0.2,0.3-0.1,0.7,0.2,0.8l0.7,0.4l-0.7,0.4
	C34.2,38.8,34.1,39.2,34.3,39.5z"/>
<path class="st1" d="M39.9,40.7h1.6c0.3,0,0.6-0.2,0.7-0.5s-0.2-0.6-0.5-0.7c-0.1,0-0.1,0-0.2,0h-1.6c-0.3,0-0.6,0.2-0.7,0.5
	s0.2,0.6,0.5,0.7C39.8,40.7,39.9,40.7,39.9,40.7z"/>
<path class="st1" d="M25.5,32.7h9c0.8,0,1.4-0.6,1.4-1.4c0,0,0,0,0,0v-6.9c0-0.8-0.6-1.4-1.4-1.4l0,0v-1.5c0-2.5-2-4.5-4.5-4.5
	s-4.5,2-4.5,4.5v1.5l0,0c-0.8,0-1.4,0.6-1.4,1.4c0,0,0,0,0,0v6.9C24.1,32,24.7,32.7,25.5,32.7z M26.7,21.4c0-1.8,1.5-3.3,3.3-3.3
	s3.3,1.5,3.3,3.3v1.5h-1.2v-1.5c0-1.1-0.9-2.1-2.1-2.1c-1.1,0-2.1,0.9-2.1,2.1v1.5h-1.2V21.4z M29.1,22.9v-1.5
	c0-0.5,0.4-0.9,0.9-0.9c0.5,0,0.9,0.4,0.9,0.9v1.5H29.1z M25.2,24.3c0-0.1,0.1-0.3,0.3-0.2h9c0.1,0,0.3,0.1,0.3,0.2v6.9
	c0,0.1-0.1,0.3-0.3,0.3h-9c-0.1,0-0.3-0.1-0.3-0.3l0,0L25.2,24.3z"/>
<path class="st1" d="M32.4,28.4L32.4,28.4c0.3,0,0.6-0.3,0.6-0.6c0,0,0,0,0,0c0-0.3-0.2-0.6-0.6-0.6c0,0,0,0,0,0l0,0
	c-0.3,0-0.6,0.3-0.6,0.6c0,0,0,0,0,0C31.8,28.1,32.1,28.4,32.4,28.4L32.4,28.4z"/>
<path class="st1" d="M27.6,28.4h2.7c0.3,0,0.6-0.3,0.6-0.6c0,0,0,0,0,0c0-0.3-0.2-0.6-0.6-0.6c0,0,0,0,0,0h-2.7
	c-0.3,0-0.6,0.2-0.6,0.6c0,0,0,0,0,0C27,28.1,27.2,28.4,27.6,28.4C27.6,28.4,27.6,28.4,27.6,28.4z"/>
</svg>
