<svg xmlns="http://www.w3.org/2000/svg" viewBox="0 0 360 360"><defs><style>.cls-1{fill:#266dfe;}.cls-2{fill:#2e4050;}.cls-3{fill:#fdfdfd;}</style></defs><g id="Layer_2" data-name="Layer 2"><g id="Layer_1-2" data-name="Layer 1"><path class="cls-1" d="M360,180A180,180,0,1,1,180,0,180,180,0,0,1,360,180"/><path class="cls-2" d="M333.75,180A153.75,153.75,0,1,1,180,26.25,153.75,153.75,0,0,1,333.75,180"/><path class="cls-3" d="M116.24,153.52c4.8,0,9.6-.12,14.39,0,16.19.47,24.43,10.81,21.37,26.72-2.95,15.37-14.65,25.5-30.34,26.11-5,.2-10,.26-15,.08-2.67-.1-3.67.82-4,3.39-.67,4.54-1.8,9-2.52,13.55-.31,1.93-1.19,2.47-3,2.42-3.4-.09-6.8-.14-10.19,0-2.38.1-3.09-.47-2.58-3,3-15,5.84-30,8.72-45,1.38-7.15,2.82-14.3,4.1-21.48.38-2.12,1.18-3,3.49-2.93,5.19.18,10.39.06,15.59.06Zm4.42,11.36c-3,0-5.15.05-7.34,0a1.89,1.89,0,0,0-2.21,1.82Q108.6,179.74,106,192.8c-.35,1.74.34,2.32,2,2.27,3.69-.1,7.39.12,11.06-.17,5.9-.47,11.19-2.32,14.08-8.09a26.76,26.76,0,0,0,2.92-13c-.15-4.66-2.15-7.06-6.72-8.26C126.28,164.73,123.08,165,120.66,164.88Z"/><path class="cls-3" d="M240.58,153.46c5.47.29,12.08-.57,18.63.69,11,2.14,17.14,9.92,16.57,21.13-.91,17.83-13.85,30.59-31.67,31.13-5,.15-10,.14-15,.07-2,0-2.83.57-3.16,2.6-.79,4.83-1.93,9.6-2.75,14.42-.3,1.76-1.06,2.35-2.76,2.31-3.4-.08-6.81-.17-10.19,0-2.75.16-3.19-1-2.71-3.37,2-10.08,3.95-20.19,5.9-30.29,2.32-12,4.7-23.92,6.89-35.9.42-2.29,1.35-2.91,3.53-2.86C229.07,153.55,234.27,153.46,240.58,153.46Zm3.09,11.41c-2.69,0-4.79.07-6.88,0-1.58-.08-2.29.52-2.59,2.11-1.62,8.62-3.32,17.23-5,25.84-.36,1.77.3,2.32,2,2.27,3.1-.08,6.19,0,9.29-.06,10.74-.27,15.89-4.47,18.24-14.93a29.49,29.49,0,0,0,.66-5c.28-5.5-2-8.32-7.33-9.61C249.06,164.73,246.06,165,243.67,164.87Z"/><path class="cls-3" d="M181.11,165.23c-7.77-.13-7.81-.14-9.34,7.59-2,10.28-4.06,20.57-6,30.88-.4,2.19-1.24,3.05-3.5,2.93-3.29-.18-6.6-.15-9.89,0-2.43.1-2.8-.83-2.36-3.05,3.82-19.39,7.54-38.81,11.29-58.22.57-2.94,1.21-5.87,1.7-8.82.28-1.65,1-2.42,2.76-2.37,3.69.09,7.39.07,11.09,0,1.71,0,2.28.45,1.89,2.27-1,4.59-1.57,9.27-2.73,13.8-.77,3,.4,3.26,2.89,3.27,6.68,0,13.4-.55,20,.71,7.14,1.35,11.15,4.81,11.95,10.43a21.79,21.79,0,0,1-.14,7.16c-2.05,10.69-4.21,21.36-6.16,32.07-.39,2.14-1.23,2.83-3.33,2.74-3.39-.14-6.79-.13-10.19,0-2.18.08-3-.35-2.44-2.84,2.05-9.87,3.91-19.78,5.74-29.7,1.16-6.25-.39-8.25-6.73-8.81C185.52,165.06,183.3,165.23,181.11,165.23Z"/></g></g></svg>