<svg xmlns="http://www.w3.org/2000/svg" xmlns:xlink="http://www.w3.org/1999/xlink" viewBox="0 0 165 165"><defs><style>.cls-1{fill:#f3f6f9;}.cls-2{fill:url(#linear-gradient);}.cls-3{fill:url(#linear-gradient-2);}.cls-4{fill:url(#linear-gradient-3);}.cls-5{fill:url(#linear-gradient-4);}.cls-6{fill:url(#linear-gradient-5);}.cls-7{fill:url(#linear-gradient-6);}.cls-8{fill:url(#linear-gradient-7);}.cls-9{fill:url(#linear-gradient-8);}.cls-10{fill:url(#linear-gradient-9);}.cls-11{fill:url(#linear-gradient-10);}</style><linearGradient id="linear-gradient" x1="40.81" y1="71.95" x2="126.19" y2="71.95" gradientUnits="userSpaceOnUse"><stop offset="0" stop-color="#31b1e7"/><stop offset="1" stop-color="#2a85f5"/></linearGradient><linearGradient id="linear-gradient-2" x1="40.81" y1="103.26" x2="126.19" y2="103.26" xlink:href="#linear-gradient"/><linearGradient id="linear-gradient-3" x1="77.81" y1="103.26" x2="89.19" y2="103.26" xlink:href="#linear-gradient"/><linearGradient id="linear-gradient-4" x1="46.5" y1="74.8" x2="120.5" y2="74.8" xlink:href="#linear-gradient"/><linearGradient id="linear-gradient-5" x1="60.73" y1="123.18" x2="106.27" y2="123.18" xlink:href="#linear-gradient"/><linearGradient id="linear-gradient-6" x1="66.42" y1="114.64" x2="100.58" y2="114.64" xlink:href="#linear-gradient"/><linearGradient id="linear-gradient-7" x1="90.62" y1="84.05" x2="109.22" y2="84.05" xlink:href="#linear-gradient"/><linearGradient id="linear-gradient-8" x1="59.31" y1="61.28" x2="102" y2="61.28" xlink:href="#linear-gradient"/><linearGradient id="linear-gradient-9" x1="65" y1="76.22" x2="79.23" y2="76.22" xlink:href="#linear-gradient"/><linearGradient id="linear-gradient-10" x1="59.31" y1="71.24" x2="102" y2="71.24" xlink:href="#linear-gradient"/></defs><g id="Layer_2" data-name="Layer 2"><g id="Layer_1-2" data-name="Layer 1"><circle class="cls-1" cx="82.5" cy="82.5" r="82.5"/><path class="cls-2" d="M124.77,99H42.23a1.43,1.43,0,0,1-1.42-1.42v-47a5.69,5.69,0,0,1,5.69-5.69h74a5.69,5.69,0,0,1,5.69,5.69v47A1.43,1.43,0,0,1,124.77,99ZM43.66,96.14h79.68V50.61a2.85,2.85,0,0,0-2.84-2.85h-74a2.85,2.85,0,0,0-2.84,2.85Z"/><path class="cls-3" d="M120.5,110.37h-74a5.69,5.69,0,0,1-5.69-5.69V97.57a1.43,1.43,0,0,1,1.42-1.43h82.54a1.43,1.43,0,0,1,1.42,1.43v7.11A5.69,5.69,0,0,1,120.5,110.37ZM43.66,99v5.69a2.85,2.85,0,0,0,2.84,2.85h74a2.85,2.85,0,0,0,2.84-2.85V99Z"/><path class="cls-4" d="M87.77,104.68H79.23a1.42,1.42,0,0,1,0-2.84h8.54a1.42,1.42,0,0,1,0,2.84Z"/><path class="cls-5" d="M119.07,99H47.93a1.43,1.43,0,0,1-1.43-1.42V52a1.43,1.43,0,0,1,1.43-1.42h71.14A1.43,1.43,0,0,1,120.5,52V97.57A1.43,1.43,0,0,1,119.07,99ZM49.35,96.14h68.3V53.45H49.35Z"/><path class="cls-6" d="M102,127.45H65a4.27,4.27,0,1,1,0-8.54h37a4.27,4.27,0,0,1,0,8.54Zm-37-5.69a1.42,1.42,0,0,0,0,2.84h37a1.42,1.42,0,0,0,0-2.84Z"/><path class="cls-7" d="M99.15,121.76H67.85a1.43,1.43,0,1,1,0-2.85c4.72,0,7.11-3.35,7.11-10a1.42,1.42,0,0,1,1.43-1.42H90.61A1.42,1.42,0,0,1,92,109c0,6.61,2.39,10,7.11,10a1.43,1.43,0,1,1,0,2.85Zm-24.37-2.85H92.22c-1.75-1.94-2.78-4.83-3-8.54H77.77C77.56,114.08,76.53,117,74.78,118.91Z"/><path class="cls-8" d="M103.78,93.3a1.42,1.42,0,0,1-1-.42l-3.44-3.44-2,2a1.43,1.43,0,0,1-2.37-.6L90.68,76.63a1.43,1.43,0,0,1,1.78-1.77l14.23,4.27a1.42,1.42,0,0,1,.59,2.37l-1.91,1.91,3.44,3.43a1.43,1.43,0,0,1,0,2l-4,4A1.4,1.4,0,0,1,103.78,93.3Zm-4.45-7.11a1.86,1.86,0,0,1,1.32.54l3.13,3.13,2-2-3.3-3.3a1.58,1.58,0,0,1-.48-1.14,1.61,1.61,0,0,1,.47-1.14l1.11-1.1-9.42-2.83L97,87.76l1-1A1.86,1.86,0,0,1,99.33,86.19Z"/><path class="cls-9" d="M100.58,66.26H60.73a1.43,1.43,0,0,1-1.42-1.42V57.72a1.43,1.43,0,0,1,1.42-1.42h39.85A1.43,1.43,0,0,1,102,57.72v7.12A1.43,1.43,0,0,1,100.58,66.26ZM62.16,63.41h37V59.15h-37Z"/><path class="cls-10" d="M77.81,80.49H66.42A1.43,1.43,0,0,1,65,79.07V73.38A1.43,1.43,0,0,1,66.42,72H77.81a1.43,1.43,0,0,1,1.42,1.43v5.69A1.43,1.43,0,0,1,77.81,80.49Zm-10-2.85h8.54V74.8H67.85Z"/><path class="cls-11" d="M94.61,86.18H60.73a1.43,1.43,0,0,1-1.42-1.42v-27a1.43,1.43,0,0,1,1.42-1.42h39.85A1.43,1.43,0,0,1,102,57.72V78.78a1.42,1.42,0,0,1-1.83,1.36l-6-1.8,1.8,6a1.42,1.42,0,0,1-1.36,1.83ZM62.16,83.34H92.7l-2-6.71a1.43,1.43,0,0,1,1.77-1.77l6.7,2V59.15h-37Z"/></g></g></svg>