<svg xmlns="http://www.w3.org/2000/svg" viewBox="0 0 130 130"><defs><style>.cls-1{fill:#256cfd;}.cls-2{fill:#2d4050;}.cls-3{fill:#f5fafa;}.cls-4{fill:#a6d7e8;}.cls-5{fill:#31b1e7;}</style></defs><g id="Layer_2" data-name="Layer 2"><g id="Layer_1-2" data-name="Layer 1"><circle class="cls-1" cx="65" cy="65" r="65"/><circle class="cls-2" cx="65.25" cy="65" r="56"/><path class="cls-3" d="M94.32,92H34.93a2.67,2.67,0,0,1-2.67-2.68V53.4a2.67,2.67,0,0,1,2.67-2.68H94.32A2.68,2.68,0,0,1,97,53.4V89.32A2.68,2.68,0,0,1,94.32,92Z"/><path class="cls-4" d="M64.63,77.57a2.67,2.67,0,0,1-1.57-.51L33.36,55.57a2.68,2.68,0,0,1,1.57-4.85H94.32a2.68,2.68,0,0,1,1.57,4.85L66.2,77.06A2.67,2.67,0,0,1,64.63,77.57Z"/><path class="cls-4" d="M94.32,50.72H64.63V92H94.32A2.68,2.68,0,0,0,97,89.32V53.4A2.68,2.68,0,0,0,94.32,50.72Z"/><path class="cls-5" d="M94.32,50.72H64.63V77.57a2.67,2.67,0,0,0,1.57-.51L95.89,55.57a2.68,2.68,0,0,0-1.57-4.85Z"/><path class="cls-3" d="M92.33,41a11.59,11.59,0,1,0,11.58,11.59A11.6,11.6,0,0,0,92.33,41Z"/><path class="cls-5" d="M97.31,57.41h-10a.72.72,0,0,1-.71-.6l-1-6.11a.7.7,0,0,1,.28-.7.72.72,0,0,1,.75-.08l2.79,1.37,2.29-4.12a.75.75,0,0,1,1.27,0l2.29,4.12L98,49.92a.73.73,0,0,1,1,.78l-1,6.11a.73.73,0,0,1-.72.6Z"/><path class="cls-4" d="M92.33,41a11.59,11.59,0,1,0,0,23.17V57.41h-5a.72.72,0,0,1-.71-.6l-1-6.11a.7.7,0,0,1,.28-.7.68.68,0,0,1,.43-.15.88.88,0,0,1,.32.07l2.79,1.37,2.29-4.12a.72.72,0,0,1,.64-.35Z"/><path class="cls-5" d="M92.33,46.82a.72.72,0,0,0-.64.35L89.4,51.29l-2.79-1.37a.88.88,0,0,0-.32-.07.68.68,0,0,0-.43.15.7.7,0,0,0-.28.7l1,6.11a.72.72,0,0,0,.71.6h5Z"/></g></g></svg>