<?xml version="1.0" encoding="utf-8"?>
<!-- Generator: Adobe Illustrator 25.2.1, SVG Export Plug-In . SVG Version: 6.00 Build 0)  -->
<svg version="1.1" id="Layer_1" xmlns="http://www.w3.org/2000/svg" xmlns:xlink="http://www.w3.org/1999/xlink" x="0px" y="0px"
	 viewBox="0 0 60 60" style="enable-background:new 0 0 60 60;" xml:space="preserve">
<style type="text/css">
	.st0{fill:#F3F6F9;}
	.st1{fill:#2A85F5;}
</style>
<circle class="st0" cx="30" cy="30" r="29.2"/>
<path class="st1" d="M44.4,30c0-1.2-0.2-2.5-0.5-3.7l1.8-1.3l-3.5-6.1l-2.1,0.9c-1.8-1.8-4-3-6.3-3.7l-0.2-2.2h-7.1l-0.2,2.2
	c-2.4,0.6-4.6,1.9-6.4,3.7l-2.1-0.9L14.3,25l1.8,1.3c-0.6,2.4-0.6,4.9,0,7.3L14.3,35l3.5,6.1l2.1-0.9c1.8,1.8,4,3,6.4,3.7l0.2,2.2
	h7.1l0.2-2.2c2.4-0.6,4.6-1.9,6.3-3.7l2.1,0.9l3.5-6.1l-1.8-1.3C44.2,32.5,44.4,31.2,44.4,30z M32.7,42.2L32,42.4l-0.2,1.9h-3.7
	L28,42.3l-0.7-0.2c-2.5-0.5-4.8-1.9-6.5-3.8l-0.5-0.5l-1.7,0.8l-1.8-3.2l1.5-1.1l-0.2-0.7c-0.8-2.4-0.8-5.1,0-7.5l0.2-0.6l-1.5-1.1
	l1.8-3.2l1.7,0.8l0.5-0.5c1.7-1.9,4-3.2,6.5-3.8l0.7-0.1l0.2-1.9h3.7l0.2,1.9l0.7,0.1c2.5,0.5,4.8,1.9,6.5,3.8l0.5,0.5l1.7-0.8
	l1.8,3.2l-1.6,1.1l0.2,0.6c0.8,2.4,0.8,5.1,0,7.5l-0.2,0.7l1.5,1.1l-1.8,3.2L39.7,38l-0.5,0.5C37.5,40.4,35.2,41.7,32.7,42.2
	L32.7,42.2z"/>
<path class="st1" d="M26.2,27.8l-1.4-1.3L21.4,30l3.6,3.5l1.3-1.3L24.1,30L26.2,27.8z"/>
<path class="st1" d="M33.8,27.8l2.1,2.2l-2.2,2.1l1.3,1.4l3.6-3.5l-3.5-3.5L33.8,27.8z"/>
<path class="st1" d="M27.7,36.2l2.7-12.8l1.8,0.4l-2.7,12.8L27.7,36.2z"/>
</svg>
