<?xml version="1.0" encoding="utf-8"?>
<!-- Generator: Adobe Illustrator 24.3.0, SVG Export Plug-In . SVG Version: 6.00 Build 0)  -->
<svg version="1.1" id="Layer_1" xmlns="http://www.w3.org/2000/svg" xmlns:xlink="http://www.w3.org/1999/xlink" x="0px" y="0px"
	 viewBox="0 0 360 360" style="enable-background:new 0 0 360 360;" xml:space="preserve">
<style type="text/css">
	.st0{fill:#266DFE;}
	.st1{fill:#2E4050;}
	.st2{fill:#FFFFFF;}
	.st3{filter:url(#Adobe_OpacityMaskFilter);}
	.st4{mask:url(#mask-3_4_);}
	.st5{filter:url(#Adobe_OpacityMaskFilter_1_);}
	.st6{mask:url(#mask-3_3_);}
	.st7{fill:#EFEFEF;}
	.st8{fill:#F7F5F5;}
	.st9{fill-rule:evenodd;clip-rule:evenodd;fill:#FFFFFF;}
	.st10{fill-rule:evenodd;clip-rule:evenodd;fill:#F4F4F4;}
</style>
<g id="Layer_2_1_">
	<g id="Layer_1-2">
		<path class="st0" d="M360,180c0,99.4-80.6,180-180,180S0,279.4,0,180S80.6,0,180,0S360,80.6,360,180"/>
		<path class="st1" d="M333.8,180c0,84.9-68.8,153.8-153.8,153.8S26.2,264.9,26.2,180S95.1,26.2,180,26.2S333.8,95.1,333.8,180"/>
	</g>
</g>
<g>
	<path class="st2" d="M178.8,250.2c-0.8,0-1.5-0.2-2.2-0.6l-6.9-4.1c-1-0.6-0.5-0.8-0.2-0.9c1.4-0.5,1.7-0.6,3.1-1.4
		c0.2-0.1,0.4-0.1,0.5,0.1l5.3,3.2c0.2,0.1,0.5,0.1,0.6,0l20.7-12c0.2-0.1,0.3-0.3,0.3-0.6V210c0-0.3-0.1-0.5-0.3-0.6L179,197.6
		c-0.2-0.1-0.5-0.1-0.6,0l-20.7,11.9c-0.2,0.1-0.3,0.4-0.3,0.6V234c0,0.2,0.1,0.5,0.3,0.6l5.7,3.3c3.1,1.6,5-0.3,5-2.1v-23.6
		c0-0.3,0.3-0.6,0.6-0.6h2.6c0.3,0,0.6,0.3,0.6,0.6v23.6c0,4.1-2.2,6.5-6.1,6.5c-1.2,0-2.1,0-4.8-1.3l-5.4-3.1
		c-1.3-0.8-2.2-2.2-2.2-3.8v-23.9c0-1.6,0.8-3,2.2-3.8l20.7-12c1.3-0.7,3.1-0.7,4.4,0l20.7,12c1.3,0.8,2.2,2.2,2.2,3.8V234
		c0,1.6-0.8,3-2.2,3.8l-20.7,12C180.3,250.1,179.5,250.2,178.8,250.2z M185.1,233.8c-9.1,0-10.9-4.1-10.9-7.7c0-0.3,0.3-0.6,0.6-0.6
		h2.7c0.3,0,0.6,0.2,0.6,0.5c0.4,2.7,1.6,4.1,7.1,4.1c4.4,0,6.2-1,6.2-3.3c0-1.3-0.5-2.3-7.3-3c-5.7-0.6-9.2-1.8-9.2-6.3
		c0-4.2,3.5-6.7,9.4-6.7c6.6,0,9.9,2.3,10.3,7.3c0,0.2-0.1,0.3-0.2,0.5c-0.1,0.1-0.3,0.2-0.4,0.2h-2.7c-0.3,0-0.5-0.2-0.6-0.5
		c-0.6-2.9-2.2-3.8-6.5-3.8c-4.8,0-5.3,1.7-5.3,2.9c0,1.5,0.7,2,7.1,2.8c6.4,0.8,9.4,2,9.4,6.5C195.5,231.2,191.7,233.8,185.1,233.8
		z"/>
	<path class="st2" d="M114.6,156.7c0-0.9-0.5-1.8-1.3-2.3l-22-12.7c-0.4-0.2-0.8-0.3-1.2-0.4h-0.2c-0.4,0-0.8,0.2-1.2,0.4l-22,12.7
		c-0.8,0.5-1.3,1.3-1.3,2.3l0.1,34c0,0.5,0.3,0.9,0.7,1.1c0.4,0.3,0.9,0.3,1.3,0l13.1-7.5c0.8-0.5,1.3-1.3,1.3-2.3v-15.9
		c0-0.9,0.5-1.8,1.3-2.3l5.5-3.2c0.4-0.3,0.9-0.4,1.3-0.4s0.9,0.1,1.3,0.4l5.5,3.2c0.8,0.5,1.3,1.3,1.3,2.3v15.9
		c0,0.9,0.5,1.8,1.3,2.3l13.1,7.5c0.4,0.3,0.9,0.3,1.3,0c0.4-0.2,0.7-0.7,0.7-1.1L114.6,156.7L114.6,156.7z"/>
	<path class="st2" d="M220.2,109.9c-0.4-0.2-0.9-0.2-1.3,0c-0.4,0.3-0.7,0.7-0.7,1.1v33.7c0,0.3-0.2,0.6-0.5,0.8
		c-0.3,0.2-0.6,0.2-0.9,0l-5.5-3.2c-0.8-0.5-1.8-0.5-2.6,0l-22,12.7c-0.8,0.5-1.3,1.3-1.3,2.3v25.4c0,0.9,0.5,1.8,1.3,2.3l22,12.7
		c0.8,0.5,1.8,0.5,2.6,0l22-12.7c0.8-0.5,1.3-1.3,1.3-2.3v-63.2c0-1-0.5-1.9-1.3-2.3L220.2,109.9L220.2,109.9z M218.2,174.4
		c0,0.3-0.1,0.5-0.3,0.6l-7.5,4.4c-0.2,0.1-0.5,0.1-0.7,0l-7.5-4.4c-0.2-0.1-0.3-0.4-0.3-0.6v-8.7c0-0.3,0.1-0.5,0.3-0.6l7.5-4.4
		c0.2-0.1,0.5-0.1,0.7,0l7.5,4.4c0.2,0.1,0.3,0.4,0.3,0.6V174.4L218.2,174.4z"/>
	<g transform="translate(401.047404, 70.501129)">
		<path class="st2" d="M-107.6,95c0.8-0.5,1.3-1.3,1.3-2.3v-6.2c0-0.9-0.5-1.8-1.3-2.3l-21.8-12.7c-0.8-0.5-1.8-0.5-2.6,0l-22,12.7
			c-0.8,0.5-1.3,1.3-1.3,2.3V112c0,0.9,0.5,1.8,1.3,2.3l21.8,12.4c0.8,0.5,1.8,0.5,2.6,0l13.2-7.4c0.4-0.2,0.7-0.7,0.7-1.1
			c0-0.5-0.3-0.9-0.7-1.1l-22.1-12.7c-0.4-0.3-0.7-0.7-0.7-1.1v-7.9c0-0.5,0.3-0.9,0.7-1.1l6.9-3.9c0.4-0.3,0.9-0.3,1.3,0l6.9,3.9
			c0.4,0.3,0.7,0.7,0.7,1.1v6.2c0,0.5,0.3,0.9,0.7,1.1c0.4,0.3,0.9,0.3,1.3,0L-107.6,95L-107.6,95z"/>
		<path class="st2" d="M-131.1,93.8c0.2-0.1,0.4-0.1,0.5,0l4.2,2.4c0.2,0.1,0.3,0.3,0.3,0.5v4.9c0,0.2-0.1,0.4-0.3,0.5l-4.2,2.4
			c-0.2,0.1-0.4,0.1-0.5,0l-4.2-2.4c-0.2-0.1-0.3-0.3-0.3-0.5v-4.9c0-0.2,0.1-0.4,0.3-0.5L-131.1,93.8L-131.1,93.8z"/>
	</g>
	<g transform="translate(134.067720, 70.501129)">
		<g>
			<path id="path-2_1_" class="st2" d="M17.3,71.7c-0.8-0.5-1.8-0.5-2.6,0L-7.2,84.3c-0.8,0.5-1.3,1.3-1.3,2.3v25.3
				c0,0.9,0.5,1.8,1.3,2.3l21.8,12.6c0.8,0.5,1.8,0.5,2.6,0l21.8-12.6c0.8-0.5,1.3-1.3,1.3-2.3V86.6c0-0.9-0.5-1.8-1.3-2.3
				L17.3,71.7L17.3,71.7z"/>
		</g>
		<defs>
			<filter id="Adobe_OpacityMaskFilter" filterUnits="userSpaceOnUse" x="-8.7" y="71.4" width="49.3" height="55.8">
				<feColorMatrix  type="matrix" values="1 0 0 0 0  0 1 0 0 0  0 0 1 0 0  0 0 0 1 0"/>
			</filter>
		</defs>
		<mask maskUnits="userSpaceOnUse" x="-8.7" y="71.4" width="49.3" height="55.8" id="mask-3_4_">
			<g class="st3">
				<path id="path-2_5_" class="st2" d="M17.3,71.7c-0.8-0.5-1.8-0.5-2.6,0L-7.2,84.3c-0.8,0.5-1.3,1.3-1.3,2.3v25.3
					c0,0.9,0.5,1.8,1.3,2.3l21.8,12.6c0.8,0.5,1.8,0.5,2.6,0l21.8-12.6c0.8-0.5,1.3-1.3,1.3-2.3V86.6c0-0.9-0.5-1.8-1.3-2.3
					L17.3,71.7L17.3,71.7z"/>
			</g>
		</mask>
		<g class="st4">
			<path class="st2" d="M14.6,71.7L-7.3,84.3c-0.8,0.5-1.4,1.3-1.4,2.3v25.3c0,0.6,0.3,1.2,0.7,1.7l24.6-42.1
				C15.9,71.3,15.2,71.4,14.6,71.7L14.6,71.7z"/>
			<path class="st2" d="M16.7,127c0.2-0.1,0.4-0.2,0.6-0.3l21.9-12.6c0.8-0.5,1.3-1.3,1.3-2.3V86.6c0-0.7-0.3-1.3-0.8-1.8L16.7,127
				L16.7,127z"/>
			<path class="st2" d="M39.1,84.3L17.2,71.7c-0.2-0.1-0.5-0.2-0.7-0.3L-8,113.6c0.2,0.3,0.5,0.5,0.7,0.6l21.9,12.6
				c0.6,0.4,1.3,0.5,2,0.3l23.1-42.2C39.6,84.6,39.3,84.5,39.1,84.3L39.1,84.3z"/>
		</g>
		<defs>
			<filter id="Adobe_OpacityMaskFilter_1_" filterUnits="userSpaceOnUse" x="-8.7" y="67.1" width="49.9" height="60.7">
				<feColorMatrix  type="matrix" values="1 0 0 0 0  0 1 0 0 0  0 0 1 0 0  0 0 0 1 0"/>
			</filter>
		</defs>
		<mask maskUnits="userSpaceOnUse" x="-8.7" y="67.1" width="49.9" height="60.7" id="mask-3_3_">
			<g class="st5">
				<path id="path-2_4_" class="st2" d="M17.3,71.7c-0.8-0.5-1.8-0.5-2.6,0L-7.2,84.3c-0.8,0.5-1.3,1.3-1.3,2.3v25.3
					c0,0.9,0.5,1.8,1.3,2.3l21.8,12.6c0.8,0.5,1.8,0.5,2.6,0l21.8-12.6c0.8-0.5,1.3-1.3,1.3-2.3V86.6c0-0.9-0.5-1.8-1.3-2.3
					L17.3,71.7L17.3,71.7z"/>
			</g>
		</mask>
		<g class="st6">
			<g transform="translate(0.000000, -9.246050)">
				<path class="st7" d="M40.5,121.1V95.9c0-0.9-0.6-1.8-1.4-2.3L17.2,81c-0.3-0.2-0.5-0.3-0.8-0.3l24,41
					C40.5,121.5,40.5,121.3,40.5,121.1L40.5,121.1z"/>
				<path class="st8" d="M-7.3,93.6c-0.8,0.5-1.4,1.3-1.4,2.3v25.3c0,0.9,0.6,1.8,1.4,2.3L14.6,136c0.5,0.3,1.1,0.4,1.7,0.3
					L-7.2,93.5L-7.3,93.6L-7.3,93.6z"/>
				<path class="st9" d="M13.9,76.4l-0.3,0.2H14L13.9,76.4z"/>
				<path class="st10" d="M39.2,123.4c0.6-0.4,1.1-1,1.3-1.7L16.4,80.7c-0.6-0.1-1.3-0.1-1.9,0.3L-7.2,93.5l23.5,42.8
					c0.3-0.1,0.7-0.2,1-0.3L39.2,123.4L39.2,123.4z"/>
				<path class="st9" d="M41.2,123l-0.2-0.3v0.4L41.2,123z"/>
				<path class="st9" d="M39.2,123.4L17.3,136c-0.3,0.2-0.6,0.3-1,0.3l0.4,0.8L41,123v-0.3l-0.6-1C40.3,122.4,39.8,123,39.2,123.4
					L39.2,123.4z"/>
				<path class="st9" d="M39.2,123.4L17.3,136c-0.3,0.2-0.6,0.3-1,0.3l0.4,0.8L41,123v-0.3l-0.6-1C40.3,122.4,39.8,123,39.2,123.4
					L39.2,123.4z"/>
			</g>
		</g>
	</g>
</g>
</svg>
