<svg xmlns="http://www.w3.org/2000/svg" xmlns:xlink="http://www.w3.org/1999/xlink" viewBox="0 0 130 130"><defs><style>.cls-1{fill:none;}.cls-2{fill:#256cfd;}.cls-3{fill:#2d4050;}.cls-4{clip-path:url(#clip-path);}.cls-5{fill:#f5fafa;}.cls-6{fill:#a6d7e8;}.cls-7{fill:#31b1e7;}.cls-8{fill:#fff;}</style><clipPath id="clip-path"><rect class="cls-1" x="19" y="34" width="92" height="68"/></clipPath></defs><g id="Layer_2" data-name="Layer 2"><g id="Layer_1-2" data-name="Layer 1"><circle class="cls-2" cx="65" cy="65" r="65"/><circle class="cls-3" cx="65.25" cy="65" r="56"/><g class="cls-4"><path class="cls-5" d="M30.18,79H8.42l.24-28.28H30.18A1.84,1.84,0,0,1,32,52.56v24.6A1.84,1.84,0,0,1,30.18,79Z"/><path class="cls-6" d="M9.84,69.11c-.37,0-.59-18.39-.59-18.39H30.18A1.84,1.84,0,0,1,31.93,52a1.81,1.81,0,0,1-.67,2L10.92,68.76A1.79,1.79,0,0,1,9.84,69.11Z"/><path class="cls-6" d="M30.18,50.72H9.84V79H30.18A1.84,1.84,0,0,0,32,77.16V52.56A1.84,1.84,0,0,0,30.18,50.72Z"/><path class="cls-7" d="M30.18,50.72H9.84V69.11a1.79,1.79,0,0,0,1.08-.35L31.26,54a1.81,1.81,0,0,0,.67-2A1.84,1.84,0,0,0,30.18,50.72Z"/><path class="cls-5" d="M120.22,80H99.16a1.9,1.9,0,0,1-1.9-1.9V52.62a1.9,1.9,0,0,1,1.9-1.9h23.47Z"/><path class="cls-6" d="M121.33,69.4a1.89,1.89,0,0,1-1.11.36,1.91,1.91,0,0,1-1.12-.36L98,54.16a1.9,1.9,0,0,1,1.12-3.44h22.09"/><path class="cls-5" d="M89.8,85H40.48a2.22,2.22,0,0,1-2.22-2.22V53a2.22,2.22,0,0,1,2.22-2.23H89.8A2.23,2.23,0,0,1,92,53V82.78A2.23,2.23,0,0,1,89.8,85Z"/><path class="cls-6" d="M65.14,73a2.25,2.25,0,0,1-1.31-.43L39.18,54.75a2.22,2.22,0,0,1,1.3-4H89.8a2.23,2.23,0,0,1,1.3,4L66.44,72.59A2.23,2.23,0,0,1,65.14,73Z"/><path class="cls-6" d="M89.8,50.72H65.14V85H89.8A2.23,2.23,0,0,0,92,82.78V53A2.23,2.23,0,0,0,89.8,50.72Z"/><path class="cls-7" d="M89.8,50.72H65.14V73a2.23,2.23,0,0,0,1.3-.43L91.1,54.75a2.23,2.23,0,0,0-1.3-4Z"/></g><path class="cls-3" d="M97,75.05a2.09,2.09,0,0,1-1.57-.7,2.09,2.09,0,0,1,.16-3l1.28-1.15H88.45a2.11,2.11,0,0,1,0-4.22H96.9l-1.28-1.15a2.1,2.1,0,0,1-.7-1.46,2.17,2.17,0,0,1,.54-1.52,2.13,2.13,0,0,1,1.57-.7,2.16,2.16,0,0,1,1.41.54l5.36,4.83a2.11,2.11,0,0,1,0,3.14l-5.36,4.82A2.11,2.11,0,0,1,97,75.05Z"/><path class="cls-8" d="M97,61.68a1.62,1.62,0,0,1,1.08.42l5.36,4.82a1.61,1.61,0,0,1,.53,1.2,1.59,1.59,0,0,1-.53,1.19l-5.36,4.83a1.61,1.61,0,0,1-1.08.41A1.61,1.61,0,0,1,96,71.75l2.25-2H88.45a1.61,1.61,0,0,1,0-3.22H98.2l-2.25-2A1.61,1.61,0,0,1,97,61.68m0-1a2.61,2.61,0,0,0-2.6,2.75,2.53,2.53,0,0,0,.86,1.8l.3.28H88.45a2.61,2.61,0,0,0,0,5.22h7.14l-.31.27a2.61,2.61,0,0,0,3.5,3.88l5.36-4.82a2.65,2.65,0,0,0,.86-1.94,2.6,2.6,0,0,0-.86-1.94l-5.36-4.83A2.64,2.64,0,0,0,97,60.68Z"/><path class="cls-3" d="M37,75.05a2.09,2.09,0,0,1-1.57-.7,2.09,2.09,0,0,1,.16-3l1.28-1.15H28.45a2.11,2.11,0,0,1,0-4.22H36.9l-1.28-1.15a2.1,2.1,0,0,1-.7-1.46,2.17,2.17,0,0,1,.54-1.52,2.13,2.13,0,0,1,1.57-.7,2.16,2.16,0,0,1,1.41.54l5.36,4.83a2.11,2.11,0,0,1,0,3.14l-5.36,4.82A2.11,2.11,0,0,1,37,75.05Z"/><path class="cls-8" d="M37,61.68a1.62,1.62,0,0,1,1.08.42l5.36,4.82a1.61,1.61,0,0,1,.53,1.2,1.59,1.59,0,0,1-.53,1.19l-5.36,4.83a1.61,1.61,0,0,1-1.08.41A1.61,1.61,0,0,1,36,71.75l2.25-2H28.45a1.61,1.61,0,0,1,0-3.22H38.2l-2.25-2A1.61,1.61,0,0,1,37,61.68m0-1a2.61,2.61,0,0,0-2.6,2.75,2.53,2.53,0,0,0,.86,1.8l.3.28H28.45a2.61,2.61,0,0,0,0,5.22h7.14l-.31.27a2.61,2.61,0,0,0,3.5,3.88l5.36-4.82A2.65,2.65,0,0,0,45,68.12a2.6,2.6,0,0,0-.86-1.94l-5.36-4.83A2.64,2.64,0,0,0,37,60.68Z"/></g></g></svg>