<svg xmlns="http://www.w3.org/2000/svg" xmlns:xlink="http://www.w3.org/1999/xlink" viewBox="0 0 165 165"><defs><style>.cls-1{fill:#f3f6f9;}.cls-2{fill:url(#linear-gradient);}</style><linearGradient id="linear-gradient" x1="102.89" y1="50.36" x2="112.99" y2="50.36" gradientUnits="userSpaceOnUse"><stop offset="0" stop-color="#31b1e7"/><stop offset="1" stop-color="#2a85f5"/></linearGradient></defs><g id="Layer_2" data-name="Layer 2"><g id="Layer_1-2" data-name="Layer 1"><circle class="cls-1" cx="82.5" cy="82.5" r="82.5"/><path d="M82.94,88h.85a1.14,1.14,0,0,0,0-2.27H83.4l.37-2.49a1.13,1.13,0,0,0-2.24-.33l-.43,2.95a1.84,1.84,0,0,0,.43,1.49,1.86,1.86,0,0,0,1.41.65Z"/><path d="M79.16,89.19A1.14,1.14,0,0,0,79,90.78a5.26,5.26,0,0,0,7.54,0,1.13,1.13,0,1,0-1.74-1.44,3.06,3.06,0,0,1-4,0,1.13,1.13,0,0,0-1.59-.15Z"/><path d="M87.6,84.16A2.18,2.18,0,1,0,85.42,82a2.17,2.17,0,0,0,2.18,2.18Z"/><path d="M80.24,82a2.19,2.19,0,1,0-2.19,2.18A2.19,2.19,0,0,0,80.24,82Z"/><path d="M100.05,102.06a19.83,19.83,0,0,0-3.75-.54c-1.3-.12-2.62-.19-3.91-.35s-2.14-.6-2.33-1.74l-.39-3.08a10.6,10.6,0,0,0,3-4.14,20.94,20.94,0,0,0,1-3.75,2.58,2.58,0,0,0,.29,0,4.09,4.09,0,0,0,.84-8.09V73.74a9.31,9.31,0,0,0-9.32-9.31H80.16a9.33,9.33,0,0,0-9.32,9.31v6.65a4.08,4.08,0,0,0,.73,8.1l.41,0a20.32,20.32,0,0,0,1,3.75,10.75,10.75,0,0,0,3,4.14l-.38,3a2.23,2.23,0,0,1-2.29,1.81c-.93.08-1.87.16-2.8.22a24.59,24.59,0,0,0-4.9.67,10.89,10.89,0,0,0-8,10.47v6.69a1.13,1.13,0,0,0,1.13,1.13h48.16a1.13,1.13,0,0,0,1.13-1.13v-6.69a10.89,10.89,0,0,0-8-10.47Zm-7.94,1.36L89.6,109l-2.4-.88L85,105.77l-.43-.46,4.7-2.92a6.42,6.42,0,0,0,2.81,1ZM80.45,109.3l2.38-2.56,2.38,2.56L84,112H81.69ZM95.8,84.4a1.81,1.81,0,0,1-1.64,1.81l.41-1.89a10.17,10.17,0,0,0,.21-1.54,1.81,1.81,0,0,1,1,1.62ZM73.1,73.75a7.07,7.07,0,0,1,7.06-7.06h5.33a7.06,7.06,0,0,1,7.06,7v3.64a3.61,3.61,0,0,1-3.13-2.74l-.32-1.32a1.13,1.13,0,0,0-2.16-.13l-.69,1.86a3.6,3.6,0,0,1-3.38,2.36H73.11ZM69.75,84.4a1.83,1.83,0,0,1,1.13-1.68,12.06,12.06,0,0,0,.2,1.6l.42,1.9a1.81,1.81,0,0,1-1.75-1.82Zm5.32,7A18.67,18.67,0,0,1,74.19,88L74,86.82l-.65-3a8.32,8.32,0,0,1-.2-1.79V79.67h9.77a5.87,5.87,0,0,0,5-2.84,6,6,0,0,0,4.66,2.83v2.39a8.82,8.82,0,0,1-.19,1.78l-.65,3c-.09.39-.17.79-.25,1.19a18.65,18.65,0,0,1-.87,3.36,8.47,8.47,0,0,1-2.68,3.5,1,1,0,0,0-.2.15A8.41,8.41,0,0,1,78,95a.8.8,0,0,0-.21-.15,8.37,8.37,0,0,1-2.67-3.5Zm7.76,7.47a10.57,10.57,0,0,0,4.74-1.1l.25,2a4.43,4.43,0,0,0,.19.8l-5.18,3.23-5.22-3.25a5.53,5.53,0,0,0,.2-.66l0-.12.25-2a10.51,10.51,0,0,0,4.74,1.1Zm-6.5,3.53,4.73,2.94-2.6,2.8-2.4.88-2.51-5.56a4.45,4.45,0,0,0,2.78-1.06ZM59.88,112.53a8.61,8.61,0,0,1,6.33-8.28,22.26,22.26,0,0,1,4.45-.6l.5,0,3.27,7.27a1.16,1.16,0,0,0,1.42.6l2.66-1,1.22,2.66-2.21,4.93H67.85v-4.26a1.13,1.13,0,0,0-2.26,0v4.26H59.88ZM80,118.09l1.7-3.8H84l1.7,3.8Zm25.77,0h-5.7v-4.25a1.13,1.13,0,1,0-2.26,0v4.25H88.14l-2.21-4.93,1.22-2.66,2.66,1a1.16,1.16,0,0,0,1.42-.6l3.26-7.24.92.07.71.06a18.7,18.7,0,0,1,3.33.48,8.58,8.58,0,0,1,6.32,8.28Z"/><path d="M119.2,37.59H96.68a5,5,0,0,0-5,5V58.12a5,5,0,0,0,5,5h4v6.71a1.14,1.14,0,0,0,1.74,1l12-7.67h4.79a5,5,0,0,0,5-5V42.6a5,5,0,0,0-5-5ZM122,58.12a2.75,2.75,0,0,1-2.75,2.75h-5.12a1.14,1.14,0,0,0-.61.18l-10.54,6.73V62a1.14,1.14,0,0,0-1.13-1.13H96.68a2.75,2.75,0,0,1-2.75-2.75V42.6a2.76,2.76,0,0,1,2.75-2.75H119.2A2.75,2.75,0,0,1,122,42.6Z"/><path class="cls-2" d="M105.81,47.32h6a1.13,1.13,0,1,0,0-2.26h-1V43.89a1.14,1.14,0,0,0-2.27,0v1.17h-1.38V43.89a1.13,1.13,0,1,0-2.26,0v1.3a2.92,2.92,0,0,0-2.1,2.79,3.51,3.51,0,0,0,3.51,3.51h3.08a1.25,1.25,0,0,1,1.25,1.25.66.66,0,0,1-.66.66h-6a1.13,1.13,0,1,0,0,2.26h1v1.17a1.13,1.13,0,1,0,2.26,0V55.66h1.38v1.17a1.13,1.13,0,1,0,2.26,0V55.54a2.92,2.92,0,0,0,2.1-2.79,3.52,3.52,0,0,0-3.51-3.52H106.4A1.26,1.26,0,0,1,105.15,48a.67.67,0,0,1,.66-.66Z"/><path d="M63.86,71A1.14,1.14,0,0,0,65,69.84V63.13h4a5,5,0,0,0,5-5V42.6a5,5,0,0,0-5-5H46.46a5,5,0,0,0-5,5V58.12a5,5,0,0,0,5,5h4.78l12,7.67a1.17,1.17,0,0,0,.61.17Zm-1.13-9v5.78L52.18,61.05a1.09,1.09,0,0,0-.61-.18H46.46a2.75,2.75,0,0,1-2.75-2.75V42.6a2.75,2.75,0,0,1,2.75-2.75H69a2.75,2.75,0,0,1,2.75,2.75V58.12A2.75,2.75,0,0,1,69,60.87H63.86A1.13,1.13,0,0,0,62.73,62Z"/><path d="M66.26,57.07a1.13,1.13,0,1,0,0-2.26H65.07v-10a1.14,1.14,0,0,0-1.13-1.13H59.86a1.12,1.12,0,0,0-1.13,1.13v10h-2V48.46a1.14,1.14,0,0,0-1.14-1.13H51.49a1.14,1.14,0,0,0-1.13,1.13v6.35H49.17a1.13,1.13,0,1,0,0,2.26ZM52.62,54.81V49.59h1.82v5.22Zm8.37,0v-8.9h1.82v8.9Z"/></g></g></svg>