<svg xmlns="http://www.w3.org/2000/svg" xmlns:xlink="http://www.w3.org/1999/xlink" viewBox="0 0 165 165"><defs><style>.cls-1{fill:#f3f6f9;}.cls-2{fill:url(#linear-gradient);}</style><linearGradient id="linear-gradient" x1="69.53" y1="98.82" x2="93.51" y2="98.82" gradientUnits="userSpaceOnUse"><stop offset="0" stop-color="#31b1e7"/><stop offset="1" stop-color="#2a85f5"/></linearGradient></defs><g id="Layer_2" data-name="Layer 2"><g id="Layer_1-2" data-name="Layer 1"><circle class="cls-1" cx="82.5" cy="82.5" r="82.5"/><path d="M114.79,99.85A14.64,14.64,0,0,0,105,88.35L93.51,84.53v-1.7H90.84v2.5l-2,8-5.38-6.45H79.56l-5.38,6.45-2-8v-2.5H69.53v1.7L58.06,88.35a14.64,14.64,0,0,0-9.82,11.5l-2.93,17.62h72.41Zm-34-10.36h1.41l3.16,3.79-2.59,3.89,2.52,17.63H77.72l2.52-17.63-2.59-3.89Zm-29.94,10.8a12,12,0,0,1,8-9.41l11-3.67,3,11.81,3-3.61,1.59,2.39L75,114.8H60.34l1.19-11.86-2.65-.26L57.66,114.8H48.45Zm54.5,14.51-1.21-12.12-2.66.26,1.19,11.86H88l-2.43-17,1.59-2.39,3,3.61,3-11.81,11,3.67a12,12,0,0,1,8,9.4l2.42,14.52Z"/><path d="M64.79,70.77A14.6,14.6,0,0,0,68.49,77l5.2,5.19a6.57,6.57,0,0,0,4.7,2h6.25a6.61,6.61,0,0,0,4.71-2L94.54,77a14.6,14.6,0,0,0,3.71-6.26,6.62,6.62,0,0,0,3.21-11.91h0v-8a6.68,6.68,0,0,0-5.67-6.59,14.25,14.25,0,0,0-13.36-9.4h-1a20,20,0,0,0-20,20v4h0a6.62,6.62,0,0,0,3.22,11.92Zm27.87,4.36-5.2,5.2a4,4,0,0,1-2.82,1.17H78.39a4,4,0,0,1-2.82-1.17l-5.2-5.2a11.91,11.91,0,0,1-3.51-8.48V60.18h5.23a23.91,23.91,0,0,0,15.79-5.89l.41.68a10.8,10.8,0,0,0,7.88,5.12v6.56A11.91,11.91,0,0,1,92.66,75.13ZM98.77,68c0-.43.06-.86.06-1.3V60.43A4,4,0,0,1,98.77,68ZM64.2,54.85A17.33,17.33,0,0,1,81.52,37.54h1a11.58,11.58,0,0,1,11.09,8.35l.27,1h1a4,4,0,0,1,4,4v6.79a6.45,6.45,0,0,0-1.33-.13,8.12,8.12,0,0,1-6.93-3.93L88.44,50l-1.21,1.21A21.27,21.27,0,0,1,72.1,57.52H65.53a6.45,6.45,0,0,0-1.33.13Zm0,5.58v6.22c0,.44,0,.87.06,1.3a4,4,0,0,1-.06-7.52Z"/><polygon class="cls-2" points="93.5 82.83 93.5 84.53 93.12 87.21 90.16 99.02 87.16 95.41 85.57 97.8 88 114.8 85.31 114.8 82.79 97.17 85.38 93.28 82.22 89.49 80.81 89.49 77.65 93.28 80.24 97.17 77.72 114.8 75.03 114.8 77.46 97.8 75.87 95.41 72.87 99.02 69.92 87.21 69.53 84.53 69.53 82.83 72.19 82.83 72.19 85.33 74.18 93.28 79.56 86.83 83.47 86.83 88.85 93.28 90.84 85.33 90.84 82.83 93.5 82.83"/></g></g></svg>