<svg xmlns="http://www.w3.org/2000/svg" xmlns:xlink="http://www.w3.org/1999/xlink" viewBox="0 0 165 165"><defs><style>.cls-1{fill:#f3f6f9;}.cls-2{fill:url(#linear-gradient);}</style><linearGradient id="linear-gradient" x1="91.47" y1="102.99" x2="99.64" y2="102.99" gradientUnits="userSpaceOnUse"><stop offset="0" stop-color="#31b1e7"/><stop offset="1" stop-color="#2a85f5"/></linearGradient></defs><g id="Layer_2" data-name="Layer 2"><g id="Layer_1-2" data-name="Layer 1"><circle class="cls-1" cx="82.5" cy="82.5" r="82.5"/><path class="cls-2" d="M91.47,103a4.09,4.09,0,1,0,4.08-4.09A4.08,4.08,0,0,0,91.47,103Zm5.7,0a1.62,1.62,0,1,1-1.62-1.62A1.61,1.61,0,0,1,97.17,103Z"/><path d="M116.81,115H116c.17-.71,0-.19.09-12.76a1.24,1.24,0,1,0-2.47,0v12a.75.75,0,0,1-.74.74H78.2a.75.75,0,0,1-.74-.74V91.75A.75.75,0,0,1,78.2,91h34.71a.75.75,0,0,1,.74.74v4.69a1.24,1.24,0,0,0,2.47,0V91.75a3.21,3.21,0,0,0-3.21-3.21H86.75L84,87.61a.52.52,0,0,1-.34-.49v-3a16.26,16.26,0,0,0,7.88-12.25c3.77.18,6.36-3.43,4.8-6.55V55.24c0-7.28-4-9.81-5.17-10.41-7-8.32-21.34-9.53-30.17-1.17a1.24,1.24,0,0,0,.85,2.13c.91,0,.77-.63,3.58-2.46L66,43c7.28-4.37,18-3,23.42,3.64a1.16,1.16,0,0,0,.51.37c.16.07,3.92,1.65,3.92,8.26V63a5.39,5.39,0,0,0-2.24-.42v-4a2,2,0,0,0-1.79-2A4.9,4.9,0,0,1,86,54a2.47,2.47,0,0,0-3.78-.69A20,20,0,0,1,66,57.59a6.06,6.06,0,0,0-6.86,5,5.4,5.4,0,0,0-2.32.42c.08-3.85-.57-8,2.47-13.31a1.23,1.23,0,1,0-2.14-1.23,21.14,21.14,0,0,0-2.78,9.63c0,.8,0,.51,0,7.18-1.56,3.13,1,6.73,4.8,6.55a16.28,16.28,0,0,0,8.34,12.51v2.76a.52.52,0,0,1-.34.49c-4.89,1.71.87-.37-12,4.18a9.18,9.18,0,0,0-1.32.42,8.18,8.18,0,0,0-5,6.08c-3.85,19.33-3.71,18.24-3.68,19.29h0c.12,3,2.07,4.59,5.07,4.59H79.62a1.23,1.23,0,1,0,0-2.46h-4c-1.72,0-2.3-2.28-1.29-2.28h42.53c1,0,.43,2.28-1.29,2.28H85.38a1.23,1.23,0,1,0,0,2.46h30.15a4.25,4.25,0,0,0,4.25-4.25A3,3,0,0,0,116.81,115ZM70,85.46a16.18,16.18,0,0,0,9.6.36h0a15,15,0,0,0,1.59-.52v3.25h-3A3.21,3.21,0,0,0,75,91.75v1.3a11.8,11.8,0,0,1-3.25-.58A2.58,2.58,0,0,1,70,90C70,87,70,88.86,70,85.46ZM94.32,67.23a2.41,2.41,0,0,1-2.7,2.16V65.08A2.4,2.4,0,0,1,94.32,67.23Zm-4.73-8.17ZM56.38,67.23a2.4,2.4,0,0,1,2.7-2.15v4.31A2.41,2.41,0,0,1,56.38,67.23Zm5.18,3.57c0-.57,0-.36,0-6.72a3.79,3.79,0,0,1,1.23-3.21A3.66,3.66,0,0,1,65.67,60a22.38,22.38,0,0,0,18.14-4.88h0A7.34,7.34,0,0,0,89.16,59c0,11.15.14,12.24-.41,14.44a14.09,14.09,0,0,1-1.65,3.9C79.86,88.8,62.24,84.3,61.56,70.8ZM50.3,119.71c-2.11,0-2.49-1-2.58-1.87s.1-1.32,1-5.73h7.84v7.6Zm24-4.75c-2,0-3.58,1.94-2.72,4.37a2.7,2.7,0,0,0,.15.38H59V108.08a1.24,1.24,0,1,0-2.47,0v1.57H49.16c2.33-11.69,2.19-11.2,2.45-11.87A5.55,5.55,0,0,1,54,95a6.11,6.11,0,0,1,2-.8l7.11-2.52h0l4.47-1.53A5,5,0,0,0,71,94.81a14.33,14.33,0,0,0,4,.71c.08,18.77-.11,18.6.09,19.44Z"/></g></g></svg>