<svg id="Layer_1" data-name="Layer 1" xmlns="http://www.w3.org/2000/svg" viewBox="0 0 360 360"><defs><style>.cls-1{fill:#266dfe;}.cls-2{fill:#2e4050;}.cls-3{fill:#fff;}</style></defs><g id="Layer_2" data-name="Layer 2"><g id="Layer_1-2" data-name="Layer 1-2"><path class="cls-1" d="M360,180A180,180,0,1,1,180,0,180,180,0,0,1,360,180Z"/><path class="cls-2" d="M333.75,180A153.75,153.75,0,1,1,180,26.25,153.75,153.75,0,0,1,333.75,180Z"/></g></g><path class="cls-3" d="M128.49,213.9A32.35,32.35,0,0,1,115.1,201a42.4,42.4,0,0,1,0-39,32.77,32.77,0,0,1,13.39-12.93,41.61,41.61,0,0,1,19.77-4.56,52.11,52.11,0,0,1,13.59,1.62,33.14,33.14,0,0,1,10.85,5.17v12.27A27.69,27.69,0,0,0,162.46,158a45.78,45.78,0,0,0-13.08-1.73,28.13,28.13,0,0,0-13.24,3.1,23.36,23.36,0,0,0-9.38,8.82,25.33,25.33,0,0,0-3.44,13.33,26.85,26.85,0,0,0,3.24,13.44,22.16,22.16,0,0,0,9,8.82,27.49,27.49,0,0,0,13.18,3.09q7.8,0,12.88-2.63V188.3h-12V178.05h24.84v33.06q-9.42,7.3-26.26,7.3A41.94,41.94,0,0,1,128.49,213.9Z"/><path class="cls-3" d="M201,213.8a34.08,34.08,0,0,1-13.49-13,40.25,40.25,0,0,1,0-38.53A34.41,34.41,0,0,1,201,149.16a41.66,41.66,0,0,1,38.33,0,34.41,34.41,0,0,1,13.49,13.08,40.08,40.08,0,0,1,0,38.48,34.56,34.56,0,0,1-13.49,13,39.29,39.29,0,0,1-19.11,4.66A39.83,39.83,0,0,1,201,213.8Zm31.59-10.14a23,23,0,0,0,8.87-8.82,28.66,28.66,0,0,0,.05-26.57,22.86,22.86,0,0,0-8.82-8.87,24.93,24.93,0,0,0-12.47-3.15,25.21,25.21,0,0,0-12.53,3.15,22.78,22.78,0,0,0-8.87,8.87,28.66,28.66,0,0,0,0,26.57,22.84,22.84,0,0,0,8.92,8.82,25.43,25.43,0,0,0,12.43,3.09A25.12,25.12,0,0,0,232.63,203.66Z"/></svg>