<svg id="Layer_1" data-name="Layer 1" xmlns="http://www.w3.org/2000/svg" viewBox="0 0 360 360"><defs><style>.cls-1{fill:#266dfe;}.cls-2{fill:#2e4050;}.cls-3{fill:#fff;}</style></defs><g id="Layer_2" data-name="Layer 2"><g id="Layer_1-2" data-name="Layer 1-2"><path class="cls-1" d="M360,180A180,180,0,1,1,180,0,180,180,0,0,1,360,180Z"/><path class="cls-2" d="M333.75,180A153.75,153.75,0,1,1,180,26.25,153.75,153.75,0,0,1,333.75,180Z"/></g></g><path class="cls-3" d="M142.05,217.85a20.37,20.37,0,0,1-5-1.36V205.74a21.17,21.17,0,0,0,8.22,1.42q9.93,0,9.94-9.43V146h12.87v52.43q0,9.33-5.17,14.65t-14.5,5.32A37.19,37.19,0,0,1,142.05,217.85Z"/><path class="cls-3" d="M188.29,217.25a40.52,40.52,0,0,1-10.09-3.1V203.1a48.37,48.37,0,0,0,10.65,3.65,51.39,51.39,0,0,0,11,1.22q6.8,0,10.34-2.54a8.11,8.11,0,0,0,3.55-7,8.26,8.26,0,0,0-1.62-5.23,13.72,13.72,0,0,0-4.77-3.65q-3.13-1.56-9.63-4.1-9.94-4.07-14.4-9a17.83,17.83,0,0,1-4.46-12.37A17.37,17.37,0,0,1,182,153.82a20.34,20.34,0,0,1,8.83-6.9,33,33,0,0,1,13.08-2.43,54.59,54.59,0,0,1,10.8,1,44.93,44.93,0,0,1,9.27,3v10.74a40.65,40.65,0,0,0-17.84-4.25q-6.5,0-10,2.38a7.65,7.65,0,0,0-3.55,6.74,7.81,7.81,0,0,0,1.62,5.12,13.2,13.2,0,0,0,4.31,3.35q2.69,1.36,9.69,4.31a61.71,61.71,0,0,1,11.2,5.78,19.44,19.44,0,0,1,6.19,6.64,19.17,19.17,0,0,1,2.07,9.28q0,9.44-6.79,14.65t-20.08,5.22A67,67,0,0,1,188.29,217.25Z"/></svg>