<svg xmlns="http://www.w3.org/2000/svg" viewBox="0 0 360 360"><defs><style>.cls-1{fill:#266dfe;}.cls-2{fill:#2e4050;}.cls-3{fill:#fff;}</style></defs><g id="Layer_2" data-name="Layer 2"><g id="Layer_1-2" data-name="Layer 1"><path class="cls-1" d="M360,180A180,180,0,1,1,180,0,180,180,0,0,1,360,180Z"/><path class="cls-2" d="M333.75,180A153.75,153.75,0,1,1,180,26.25,153.75,153.75,0,0,1,333.75,180Z"/><path class="cls-3" d="M117.1,147.67h12.3l27.9,69.9H144.4l-6.4-16.1H108.4l-6.3,16.1h-13ZM134.5,191l-11.3-29.7L111.9,191Z"/><path class="cls-3" d="M170.75,217.92a40.1,40.1,0,0,1-9.95-3V204a47.53,47.53,0,0,0,10.5,3.6,50.55,50.55,0,0,0,10.8,1.2c4.46,0,7.87-.83,10.2-2.5a8.76,8.76,0,0,0,1.9-12.05,13.49,13.49,0,0,0-4.7-3.6q-3.1-1.55-9.5-4.05-9.8-4-14.2-8.9a17.55,17.55,0,0,1-4.4-12.2,17.07,17.07,0,0,1,3.1-10.1,19.94,19.94,0,0,1,8.7-6.8,32.48,32.48,0,0,1,12.9-2.4,53.81,53.81,0,0,1,10.65,1,44.33,44.33,0,0,1,9.15,2.95v10.6a40.13,40.13,0,0,0-17.6-4.2q-6.41,0-9.9,2.35a7.54,7.54,0,0,0-3.5,6.65,7.68,7.68,0,0,0,1.6,5.05,13,13,0,0,0,4.25,3.3q2.66,1.35,9.55,4.25a60.1,60.1,0,0,1,11,5.7,19.28,19.28,0,0,1,6.1,6.55,18.92,18.92,0,0,1,2.05,9.15q0,9.3-6.7,14.45T183,219.07A65.1,65.1,0,0,1,170.75,217.92Z"/><path class="cls-3" d="M219.5,147.67h28q11.49,0,18.45,6.1t6.95,16.7q0,11-6.9,16.75T247.4,193H232.2v24.6H219.5Zm26.4,34.8q14.29,0,14.3-12,0-12.3-14.3-12.3H232.2v24.3Z"/></g></g></svg>