<svg xmlns="http://www.w3.org/2000/svg" viewBox="0 0 360 360"><defs><style>.cls-1{fill:#266dfe;}.cls-2{fill:#2e4050;}.cls-3,.cls-4{fill:#fff;stroke-miterlimit:10;stroke-width:0.05px;}.cls-3{stroke:#e92d2f;}.cls-4{stroke:#0774ba;}</style></defs><g id="Layer_2" data-name="Layer 2"><g id="Layer_1-2" data-name="Layer 1"><path class="cls-1" d="M360,180A180,180,0,1,1,180,0,180,180,0,0,1,360,180Z"/><path class="cls-2" d="M333.75,180A153.75,153.75,0,1,1,180,26.25,153.75,153.75,0,0,1,333.75,180Z"/><path class="cls-3" d="M194.52,52.33c5.22,5.94,6.94,14.43,5.44,22.09-1.61,8.6-6.38,16.2-12,22.75a110.78,110.78,0,0,1-15,14.26c-6.27,5-12.43,10.49-16.37,17.59a23,23,0,0,0-1.84,19.14c3.72,10.77,12.38,18.76,17.1,28.92-5.22-4.61-10.33-9.38-15.1-14.43-5-5.33-9.71-11-12.82-17.65-2.1-4.66-3-10.1-1.44-15s5.22-9.1,8.82-12.87c10.05-10,22.42-17.42,32.24-27.63,5.44-5.61,9.94-12.32,11.49-20,1.28-5.66.67-11.48-.5-17.09Z"/><path class="cls-3" d="M186.31,115.54c10.76-7.94,23.36-13,36.12-16.65-10.1,6.44-20.64,12.32-29.35,20.59-3.16,3-6.16,6.54-7.55,10.82a13.79,13.79,0,0,0,.67,9.65c2.33,5.33,6.27,9.66,9.26,14.54a15.37,15.37,0,0,1,1.06,14c-2.94,6.61-8.71,11.44-14.71,15.26-.77.45-1.44,1.28-2.38,1.39,4-3.61,7.1-8.71,7-14.2-.11-4.11-2.39-7.72-5-10.66-5.49-6.55-10.1-14.87-9.16-23.69s7.27-15.93,14.1-21Z"/><path class="cls-4" d="M224.49,179.68c2.33-2.83,6-3.55,9.43-4a20.65,20.65,0,0,1,16.59,4.77,15.07,15.07,0,0,1,4.94,13.32c-.83,5.71-4.66,10.49-9,14.09-7.82,6.27-17.48,9.94-27.13,12.38a8.56,8.56,0,0,1,1.88-1.61c7.33-3.94,14.6-8.55,20-15,3.27-4,5.83-9.22,4.77-14.49-1.11-6.1-7.05-10.54-13.09-10.87-2.89-.28-5.61.83-8.38,1.38Z"/><path class="cls-4" d="M113,184.73c10.21-4.38,21.31-7.21,32.46-7-6.49,1.88-13.15,3.49-19.25,6.38-1.45.77-3.11,1.5-3.94,3-.45,1.17.77,1.95,1.66,2.33,3.78,1.56,7.94,1.78,12,2.17,14.2.94,28.46.39,42.61-.5,14-.89,27.86-2.78,41.68-5a78.42,78.42,0,0,0-9,4.72,13.89,13.89,0,0,1-4.83,1.67c-17,3.77-34.4,4.93-51.72,5.21-6.71.06-13.37,0-20-.5-7.43-.5-14.93-1-22.19-3a14.87,14.87,0,0,1-6-2.78,1.94,1.94,0,0,1-.11-2.77c1.83-1.89,4.39-2.78,6.66-3.89Z"/><path class="cls-4" d="M126.05,208.43c2.88-2.28,6.32-3.55,9.76-4.77-1.11,1.33-2.66,2.6-2.77,4.43a3.1,3.1,0,0,0,1.83,2.61,17.93,17.93,0,0,0,5.94,1.56,188.89,188.89,0,0,0,32.18,1,238,238,0,0,0,29.3-3.83,32.73,32.73,0,0,0,9.16,5.71,175.19,175.19,0,0,1-35.85,6.38,151.85,151.85,0,0,1-34.41-1.11c-4.49-.83-9.1-1.77-13.2-3.88-1.67-.89-3.55-2.05-4-4-.34-1.66.89-3.16,2.11-4.1Z"/><path class="cls-4" d="M132.48,232.62a24.45,24.45,0,0,1,8.83-4c-1,.94-2.78,2.1-2,3.71,1.5,1.95,4.27,2.17,6.49,2.67,9.38,1.16,18.87,1.94,28.25,1.22a191.68,191.68,0,0,0,21-2.94,101.48,101.48,0,0,0,12.43,6.1,92.14,92.14,0,0,1-20.65,6.16,109.18,109.18,0,0,1-36.07.5c-5.27-.94-10.65-2.16-15.42-4.77-1.83-1.06-3.77-2.28-4.55-4.33-.61-1.61.39-3.33,1.66-4.33Z"/><path class="cls-4" d="M101.69,248.33a55.08,55.08,0,0,1,15.76-3.28,11.62,11.62,0,0,1,6.27,1.17,47.38,47.38,0,0,0-18.65,4.94c-1.28.72-2.72,1.55-3.22,3.05,0,1.72,1.94,2.27,3.22,2.83,8.05,3,16.65,3.94,25.08,4.83a435.61,435.61,0,0,0,75.58-.73c9.49-1.05,19-2.11,28.25-4.71,2.94-1,6.26-2,8.21-4.61,1.16-1.55.39-3.49-.78-4.83,1.89,1.06,4.55,2.39,4.16,4.94-.72,2.67-3.44,4-5.66,5.33-7.1,3.61-14.93,5.44-22.69,7.05-22.59,4.44-45.73,5.43-68.7,4.77a385.32,385.32,0,0,1-51.72-5.22c-3-.72-6.49-1.33-8.71-3.72-1.44-1.66-.17-4,1.22-5.21,3.5-3.22,8-5,12.38-6.6Z"/><path class="cls-4" d="M240,267.3c5.6-1.94,11.6-4,15.76-8.43-.72,4.83-4.89,8.16-9,10.32-7.88,4.11-16.7,6-25.47,7.55-18.54,2.94-37.35,3.66-56.16,3.33-12.82-.39-25.75-.89-38.34-3.56-3-.83-6.22-1.38-8.83-3.16a266.05,266.05,0,0,0,34,3.11,364.62,364.62,0,0,0,56-2.5c10.77-1.5,21.59-3.33,32-6.66Z"/></g></g></svg>