<svg xmlns="http://www.w3.org/2000/svg" viewBox="0 0 360 360"><defs><style>.cls-1{fill:#266dfe;}.cls-2{fill:#2e4050;}.cls-3{fill:#fff;}</style></defs><g id="Layer_2" data-name="Layer 2"><g id="Layer_1-2" data-name="Layer 1"><path class="cls-1" d="M360,180A180,180,0,1,1,180,0,180,180,0,0,1,360,180Z"/><path class="cls-2" d="M333.75,180A153.75,153.75,0,1,1,180,26.25,153.75,153.75,0,0,1,333.75,180Z"/><path class="cls-3" d="M60.81,172.21H66l11.72,29.36H72.27l-2.69-6.76H57.15l-2.64,6.76H49.05Zm7.3,18.19-4.74-12.48L58.62,190.4Z"/><path class="cls-3" d="M84.77,200.94a9.5,9.5,0,0,1-4.14-3.65,12,12,0,0,1,0-11.53,9.78,9.78,0,0,1,4.16-3.7,14.33,14.33,0,0,1,6.24-1.28,13.51,13.51,0,0,1,7.51,1.85v4.24a11.76,11.76,0,0,0-7-1.93,7.73,7.73,0,0,0-5.14,1.61,6.15,6.15,0,0,0-1.91,5,6,6,0,0,0,1.91,4.92A7.65,7.65,0,0,0,91.51,198a13,13,0,0,0,7.31-2v4.2a11.19,11.19,0,0,1-3.43,1.49,18.26,18.26,0,0,1-4.43.48A14.31,14.31,0,0,1,84.77,200.94Z"/><path class="cls-3" d="M106.08,200.35a7.34,7.34,0,0,1-1.72-5.21v-9.7h-3v-4h3v-6h5.29v6h4.83v4h-4.83v9a4.2,4.2,0,0,0,.71,2.75A3.36,3.36,0,0,0,113,198a5.87,5.87,0,0,0,2.56-.59v4a12.13,12.13,0,0,1-4.41.71A6.57,6.57,0,0,1,106.08,200.35Z"/><path class="cls-3" d="M120.17,177a2.83,2.83,0,0,1-.86-2.1,2.94,2.94,0,0,1,3-3,3,3,0,0,1,2.14.86,2.84,2.84,0,0,1,.89,2.12,2.78,2.78,0,0,1-.89,2.1,3,3,0,0,1-2.14.84A2.91,2.91,0,0,1,120.17,177Zm-.56,4.37H125v20.16h-5.37Z"/><path class="cls-3" d="M135.12,200.92a9.59,9.59,0,0,1-4.13-3.7,11.85,11.85,0,0,1,0-11.38,9.71,9.71,0,0,1,4.14-3.74,14,14,0,0,1,6.22-1.32,13.79,13.79,0,0,1,6.19,1.32,9.83,9.83,0,0,1,4.14,3.74,10.64,10.64,0,0,1,1.47,5.65,10.81,10.81,0,0,1-1.47,5.73,9.61,9.61,0,0,1-4.14,3.7,15.63,15.63,0,0,1-12.39,0Zm10.82-4.71a7.49,7.49,0,0,0,0-9.53,7.06,7.06,0,0,0-9.28,0,7.49,7.49,0,0,0,0,9.53,6.75,6.75,0,0,0,9.24,0Z"/><path class="cls-3" d="M157.32,181.41h5.12v2.73a8.69,8.69,0,0,1,3.41-2.54,10.63,10.63,0,0,1,4.15-.82q4.08,0,6.09,2.2a8.33,8.33,0,0,1,2,5.86v12.73h-5.29V189.35c0-2.94-1.38-4.41-4.12-4.41a7,7,0,0,0-3.4.86,7.27,7.27,0,0,0-2.69,2.58v13.19h-5.29Z"/><path class="cls-3" d="M201.4,201.72a17.16,17.16,0,0,1-4.18-1.28v-4.58a20.32,20.32,0,0,0,4.41,1.51,21,21,0,0,0,4.53.5,7.34,7.34,0,0,0,4.29-1.05,3.36,3.36,0,0,0,1.47-2.89,3.49,3.49,0,0,0-.67-2.17,5.68,5.68,0,0,0-2-1.51c-.87-.43-2.2-1-4-1.7a16.22,16.22,0,0,1-6-3.74,7.39,7.39,0,0,1-1.85-5.12,7.15,7.15,0,0,1,1.3-4.24,8.33,8.33,0,0,1,3.66-2.86,13.63,13.63,0,0,1,5.41-1,22.19,22.19,0,0,1,4.48.4,18.88,18.88,0,0,1,3.84,1.24v4.45a16.94,16.94,0,0,0-7.39-1.76,7.5,7.5,0,0,0-4.16,1,3.18,3.18,0,0,0-1.47,2.8,3.22,3.22,0,0,0,.67,2.12,5.51,5.51,0,0,0,1.79,1.38c.74.38,2.08,1,4,1.79a25.46,25.46,0,0,1,4.64,2.39,8.05,8.05,0,0,1,2.56,2.76,7.81,7.81,0,0,1,.86,3.84,7.24,7.24,0,0,1-2.81,6.07q-2.82,2.16-8.32,2.16A27.62,27.62,0,0,1,201.4,201.72Z"/><path class="cls-3" d="M226,200.94a9.5,9.5,0,0,1-4.14-3.65,12,12,0,0,1,0-11.53,9.78,9.78,0,0,1,4.16-3.7,14.33,14.33,0,0,1,6.24-1.28,13.57,13.57,0,0,1,7.52,1.85v4.24a11.79,11.79,0,0,0-7-1.93,7.73,7.73,0,0,0-5.14,1.61,6.15,6.15,0,0,0-1.91,5,6,6,0,0,0,1.91,4.92,7.65,7.65,0,0,0,5.06,1.59,13,13,0,0,0,7.31-2v4.2a11.24,11.24,0,0,1-3.42,1.49,18.41,18.41,0,0,1-4.44.48A14.34,14.34,0,0,1,226,200.94Z"/><path class="cls-3" d="M244.26,181.41h5.12v3.23a7.15,7.15,0,0,1,3.47-2.43,15.32,15.32,0,0,1,5.14-.8v4a13.65,13.65,0,0,0-5.31.95,5.6,5.6,0,0,0-3.13,3v12.22h-5.29Z"/><path class="cls-3" d="M262.21,177a2.83,2.83,0,0,1-.86-2.1,2.94,2.94,0,0,1,3-3,3,3,0,0,1,2.15.86,2.87,2.87,0,0,1,.88,2.12,2.81,2.81,0,0,1-.88,2.1,3,3,0,0,1-2.15.84A2.93,2.93,0,0,1,262.21,177Zm-.56,4.37H267v20.16h-5.37Z"/><path class="cls-3" d="M272.4,181.41h5.12v2.44a10.82,10.82,0,0,1,3.57-2.31,11.92,11.92,0,0,1,4.41-.76A11.25,11.25,0,0,1,291,182.1a9.51,9.51,0,0,1,3.78,3.74,12.11,12.11,0,0,1,0,11.19,9.73,9.73,0,0,1-3.78,3.8,11,11,0,0,1-5.48,1.37,14.35,14.35,0,0,1-4.35-.65,9.31,9.31,0,0,1-3.46-2v11.17H272.4Zm16.5,14.78a6.42,6.42,0,0,0,1.85-4.74,6.32,6.32,0,0,0-1.85-4.71,6.46,6.46,0,0,0-4.7-1.8,6.85,6.85,0,0,0-4,1.22,6.38,6.38,0,0,0-2.48,3.27v4.08a6.22,6.22,0,0,0,2.46,3.29A6.91,6.91,0,0,0,284.2,198,6.34,6.34,0,0,0,288.9,196.19Z"/><path class="cls-3" d="M301.92,200.35a7.39,7.39,0,0,1-1.72-5.21v-9.7h-3v-4h3v-6h5.29v6h4.83v4h-4.83v9a4.14,4.14,0,0,0,.72,2.75,3.32,3.32,0,0,0,2.6.82,5.87,5.87,0,0,0,2.56-.59v4a12.13,12.13,0,0,1-4.41.71A6.57,6.57,0,0,1,301.92,200.35Z"/></g></g></svg>