<svg xmlns="http://www.w3.org/2000/svg" viewBox="0 0 360 360"><defs><style>.cls-1{fill:#266dfe;}.cls-2{fill:#2e4050;}.cls-3{fill:#fff;}</style></defs><g id="Layer_2" data-name="Layer 2"><g id="Layer_1-2" data-name="Layer 1"><path class="cls-1" d="M360,180A180,180,0,1,1,180,0,180,180,0,0,1,360,180Z"/><path class="cls-2" d="M333.75,180A153.75,153.75,0,1,1,180,26.25,153.75,153.75,0,0,1,333.75,180Z"/><path class="cls-3" d="M57.53,206.86a18.8,18.8,0,0,1-7.45-7.19,22.24,22.24,0,0,1,0-21.28,19,19,0,0,1,7.45-7.23,23.08,23.08,0,0,1,21.17,0,19.1,19.1,0,0,1,7.45,7.23,22.18,22.18,0,0,1,0,21.25,19.07,19.07,0,0,1-7.45,7.19,21.72,21.72,0,0,1-10.56,2.58A22,22,0,0,1,57.53,206.86ZM75,201.26a12.6,12.6,0,0,0,4.9-4.87,15.81,15.81,0,0,0,0-14.67,12.67,12.67,0,0,0-4.87-4.9,14.55,14.55,0,0,0-13.8,0,12.55,12.55,0,0,0-4.9,4.9,15.77,15.77,0,0,0,0,14.67,12.67,12.67,0,0,0,4.93,4.87A14,14,0,0,0,68.14,203,13.82,13.82,0,0,0,75,201.26Z"/><path class="cls-3" d="M94.46,169.43h18.59q5.39,0,8.38,2.68t3,7.84a9.57,9.57,0,0,1-1.31,5,9.11,9.11,0,0,1-3.5,3.39q6.09,2,6.1,9a11.21,11.21,0,0,1-1.57,6,10.33,10.33,0,0,1-4.23,3.9,13,13,0,0,1-5.9,1.34H94.46Zm17.47,16.29a5.58,5.58,0,0,0,3.87-1.31,5.15,5.15,0,0,0,1.45-4c0-2.05-.47-3.46-1.43-4.23A6.66,6.66,0,0,0,111.6,175H101.52v10.69Zm.45,17.25a7.32,7.32,0,0,0,4.56-1.23c1.07-.82,1.6-2.28,1.6-4.37s-.56-3.6-1.68-4.54a7.44,7.44,0,0,0-4.87-1.4H101.52V203Z"/><path class="cls-3" d="M131.84,209.1a11.33,11.33,0,0,1-2.77-.75v-5.94a11.66,11.66,0,0,0,4.54.78q5.47,0,5.48-5.2V169.43h7.11v28.95q0,5.15-2.85,8.09c-1.91,2-4.57,2.94-8,2.94A20.48,20.48,0,0,1,131.84,209.1Z"/><path class="cls-3" d="M152.92,169.43h26.49v5.88H160v10.75h14.39v5.88H160v10.75h19.37v5.88H152.92Z"/><path class="cls-3" d="M192.52,206.92a17.86,17.86,0,0,1-7.4-7.11,23.41,23.41,0,0,1,0-21.56,18.05,18.05,0,0,1,7.4-7.14,23,23,0,0,1,10.92-2.52q8.12,0,13.55,3.86v6.78q-4.87-4.15-12.94-4.15a16,16,0,0,0-7.56,1.71,12.31,12.31,0,0,0-5,4.84,14.72,14.72,0,0,0-1.79,7.4,14.51,14.51,0,0,0,1.82,7.39,12.38,12.38,0,0,0,5.07,4.84,15.83,15.83,0,0,0,7.5,1.71,24.29,24.29,0,0,0,7.39-1,17.62,17.62,0,0,0,6-3.33v6.78q-5.16,4-14,4A23.19,23.19,0,0,1,192.52,206.92Z"/><path class="cls-3" d="M232.33,175.31H220.52v-5.88h30.74v5.88H239.44v33.26h-7.11Z"/><path class="cls-3" d="M254.62,189h18.59v5.66H254.62Z"/><path class="cls-3" d="M287.71,206.92a17.89,17.89,0,0,1-7.39-7.11,23.41,23.41,0,0,1,0-21.56,18.09,18.09,0,0,1,7.39-7.14,23,23,0,0,1,10.92-2.52q8.13,0,13.56,3.86v6.78q-4.87-4.15-12.94-4.15a16,16,0,0,0-7.56,1.71,12.31,12.31,0,0,0-5,4.84,14.72,14.72,0,0,0-1.79,7.4,14.51,14.51,0,0,0,1.82,7.39,12.38,12.38,0,0,0,5.07,4.84,15.83,15.83,0,0,0,7.5,1.71,24.29,24.29,0,0,0,7.39-1,17.48,17.48,0,0,0,6-3.33v6.78q-5.14,4-14,4A23.25,23.25,0,0,1,287.71,206.92Z"/></g></g></svg>