<svg xmlns="http://www.w3.org/2000/svg" viewBox="0 0 360 360"><defs><style>.cls-1{fill:#266dfe;}.cls-2{fill:#2e4050;}.cls-3{fill:#fff;}</style></defs><g id="Layer_2" data-name="Layer 2"><g id="Layer_1-2" data-name="Layer 1"><path class="cls-1" d="M360,180A180,180,0,1,1,180,0,180,180,0,0,1,360,180Z"/><path class="cls-2" d="M333.75,180A153.75,153.75,0,1,1,180,26.25,153.75,153.75,0,0,1,333.75,180Z"/><path class="cls-3" d="M89.15,147.67h28q11.5,0,18.45,6.1t7,16.7q0,11-6.9,16.75T117.05,193h-15.2v24.6H89.15Zm26.4,34.8q14.3,0,14.3-12,0-12.3-14.3-12.3h-13.7v24.3Z"/><path class="cls-3" d="M150.55,147.67h12.7v29h33.6v-29h12.6v69.9h-12.6v-30.4h-33.6v30.4h-12.7Z"/><path class="cls-3" d="M221.45,147.67h28q11.51,0,18.45,6.1t7,16.7q0,11-6.9,16.75T249.35,193h-15.2v24.6h-12.7Zm26.4,34.8q14.29,0,14.3-12,0-12.3-14.3-12.3h-13.7v24.3Z"/></g></g></svg>