<svg xmlns="http://www.w3.org/2000/svg" viewBox="0 0 360 360"><defs><style>.cls-1{fill:#266dfe;}.cls-2{fill:#2e4050;}.cls-3{fill:#fff;}</style></defs><g id="Layer_2" data-name="Layer 2"><g id="Layer_1-2" data-name="Layer 1"><path class="cls-1" d="M360,180A180,180,0,1,1,180,0,180,180,0,0,1,360,180Z"/><path class="cls-2" d="M333.75,180A153.75,153.75,0,1,1,180,26.25,153.75,153.75,0,0,1,333.75,180Z"/><path class="cls-3" d="M128.15,214.62a31.88,31.88,0,0,1-13.2-12.7,41.77,41.77,0,0,1,0-38.5,32.18,32.18,0,0,1,13.2-12.75,41,41,0,0,1,19.5-4.5q14.49,0,24.2,6.9v12.1q-8.7-7.39-23.1-7.4a28.6,28.6,0,0,0-13.5,3,21.82,21.82,0,0,0-9,8.65,26.07,26.07,0,0,0-3.2,13.2,25.79,25.79,0,0,0,3.25,13.2,22.19,22.19,0,0,0,9,8.65,28.41,28.41,0,0,0,13.4,3,43.53,43.53,0,0,0,13.2-1.85,31.57,31.57,0,0,0,10.7-5.95v12.1q-9.19,7.2-25,7.2A41.47,41.47,0,0,1,128.15,214.62Z"/><path class="cls-3" d="M190.05,201.47h-9.4v-9.3h12l4.9-17.2h-12.7v-9.3h15.3l5.1-18h11l-5.1,18h19.1l5.1-18h11.1l-5.1,18h8.4V175h-11l-4.9,17.2h11.7v9.3h-14.3l-4.5,16.1h-11.1l4.5-16.1h-19.1l-4.5,16.1h-11Zm32.7-9.3,4.9-17.2h-19.1l-4.9,17.2Z"/></g></g></svg>