<svg xmlns="http://www.w3.org/2000/svg" viewBox="0 0 360 360"><defs><style>.cls-1{fill:#266dfe;}.cls-2{fill:#2e4050;}.cls-3{fill:#fff;}</style></defs><g id="Layer_2" data-name="Layer 2"><g id="Layer_1-2" data-name="Layer 1"><path class="cls-1" d="M360,180A180,180,0,1,1,180,0,180,180,0,0,1,360,180Z"/><path class="cls-2" d="M333.75,180A153.75,153.75,0,1,1,180,26.25,153.75,153.75,0,0,1,333.75,180Z"/><path class="cls-3" d="M51.2,208.1a11.33,11.33,0,0,1-2.77-.75v-5.94a11.66,11.66,0,0,0,4.54.78q5.47,0,5.48-5.2V168.43h7.12v28.95a11.14,11.14,0,0,1-2.86,8.09q-2.85,2.94-8,2.94A20.48,20.48,0,0,1,51.2,208.1Z"/><path class="cls-3" d="M74.24,205.86A8.45,8.45,0,0,1,71.16,199a8.75,8.75,0,0,1,2.92-7q2.91-2.52,8.17-2.52A17.69,17.69,0,0,1,91,191.55v-.72a4.78,4.78,0,0,0-1.76-4.15q-1.77-1.29-5.68-1.29a24.92,24.92,0,0,0-4.88.48,19.5,19.5,0,0,0-4.25,1.32v-5.55A18.9,18.9,0,0,1,79,180.35a31.59,31.59,0,0,1,5.46-.5q7,0,10.36,3a10.55,10.55,0,0,1,3.36,8.31v16.41H91.49v-2.63a12.08,12.08,0,0,1-3.95,2.57,14.32,14.32,0,0,1-5.4.9A12,12,0,0,1,74.24,205.86Zm13.89-3.53A6.78,6.78,0,0,0,91,199.79v-3A11.85,11.85,0,0,0,84,194.63q-5.65,0-5.66,4.37a3.73,3.73,0,0,0,1.43,3.19,6.79,6.79,0,0,0,4.12,1.07A9.57,9.57,0,0,0,88.13,202.33Z"/><path class="cls-3" d="M101,180.69h7.11l7.28,18.59,7.28-18.59h7.11l-11.09,26.88H112Z"/><path class="cls-3" d="M134.78,205.86A8.45,8.45,0,0,1,131.7,199a8.78,8.78,0,0,1,2.91-7q2.91-2.52,8.18-2.52a17.69,17.69,0,0,1,8.79,2.07v-.72a4.8,4.8,0,0,0-1.76-4.15c-1.18-.86-3.07-1.29-5.69-1.29a24.82,24.82,0,0,0-4.87.48,19.59,19.59,0,0,0-4.26,1.32v-5.55a19,19,0,0,1,4.51-1.29,31.77,31.77,0,0,1,5.46-.5q7,0,10.36,3a10.55,10.55,0,0,1,3.36,8.31v16.41H152v-2.63a12.08,12.08,0,0,1-3.95,2.57,14.35,14.35,0,0,1-5.4.9A12,12,0,0,1,134.78,205.86Zm13.89-3.53a6.78,6.78,0,0,0,2.91-2.54v-3a11.86,11.86,0,0,0-7.06-2.19q-5.66,0-5.65,4.37a3.7,3.7,0,0,0,1.43,3.19,6.78,6.78,0,0,0,4.11,1.07A9.58,9.58,0,0,0,148.67,202.33Z"/><path class="cls-3" d="M168.55,207.74a15.57,15.57,0,0,1-5.15-1.85v-6a19.69,19.69,0,0,0,5.2,2.15,22.18,22.18,0,0,0,5.72.82,11.7,11.7,0,0,0,3.92-.48,1.76,1.76,0,0,0,1.23-1.76,2.25,2.25,0,0,0-.65-1.66,5.75,5.75,0,0,0-2.07-1.17c-.95-.36-2.42-.8-4.39-1.32a28.68,28.68,0,0,1-5.3-2,7.46,7.46,0,0,1-2.91-2.55,7.36,7.36,0,0,1-1-4,6.77,6.77,0,0,1,3.19-6.08,15.9,15.9,0,0,1,8.63-2,29.85,29.85,0,0,1,5.57.53,13.24,13.24,0,0,1,4.34,1.49v5.76a15.3,15.3,0,0,0-4.09-1.62,19.82,19.82,0,0,0-4.93-.62,12.08,12.08,0,0,0-4.14.54,2,2,0,0,0-1.4,2,1.92,1.92,0,0,0,.76,1.6,6.77,6.77,0,0,0,2,1c.82.28,2.32.7,4.48,1.26a24.16,24.16,0,0,1,5.44,2.08,7,7,0,0,1,2.8,2.68,8.27,8.27,0,0,1,.84,3.92,6.68,6.68,0,0,1-3.06,5.74q-3,2.16-8.82,2.16A31,31,0,0,1,168.55,207.74Z"/><path class="cls-3" d="M197.19,206.73a12.57,12.57,0,0,1-5.51-4.87,16,16,0,0,1,0-15.37,13,13,0,0,1,5.55-4.93,19,19,0,0,1,8.31-1.71q6.27,0,10,2.46V188a15.72,15.72,0,0,0-9.3-2.58,10.27,10.27,0,0,0-6.86,2.16q-2.55,2.16-2.55,6.64c0,2.94.85,5.13,2.55,6.55a10.19,10.19,0,0,0,6.75,2.13,17.33,17.33,0,0,0,9.74-2.69v5.6a14.69,14.69,0,0,1-4.56,2,24.76,24.76,0,0,1-5.91.64A19.16,19.16,0,0,1,197.19,206.73Z"/><path class="cls-3" d="M221.52,180.69h6.84V185a9.57,9.57,0,0,1,4.62-3.25,20.38,20.38,0,0,1,6.86-1.06v5.38a18.22,18.22,0,0,0-7.09,1.26,7.46,7.46,0,0,0-4.17,3.94v16.3h-7.06Z"/><path class="cls-3" d="M245.46,174.87a3.77,3.77,0,0,1-1.14-2.8,3.91,3.91,0,0,1,4-4,3.94,3.94,0,0,1,2.86,1.15,3.8,3.8,0,0,1,1.17,2.83,3.72,3.72,0,0,1-1.17,2.8,4,4,0,0,1-2.86,1.12A3.93,3.93,0,0,1,245.46,174.87Zm-.75,5.82h7.16v26.88h-7.16Z"/><path class="cls-3" d="M259,180.69h6.83v3.25a14.77,14.77,0,0,1,4.76-3.08,16.11,16.11,0,0,1,5.88-1,15,15,0,0,1,7.31,1.76,12.67,12.67,0,0,1,5,5,16.2,16.2,0,0,1,0,14.92,12.93,12.93,0,0,1-5,5.07,14.6,14.6,0,0,1-7.31,1.82,18.86,18.86,0,0,1-5.79-.87,12.43,12.43,0,0,1-4.62-2.6v14.89H259Zm22,19.71a8.57,8.57,0,0,0,2.46-6.33,8.4,8.4,0,0,0-2.46-6.27,8.61,8.61,0,0,0-6.27-2.41A9.27,9.27,0,0,0,269.4,187a8.54,8.54,0,0,0-3.3,4.37v5.43a8.35,8.35,0,0,0,3.27,4.39,9.21,9.21,0,0,0,5.41,1.66A8.5,8.5,0,0,0,281.05,200.4Z"/><path class="cls-3" d="M298.41,206a9.83,9.83,0,0,1-2.3-6.95V186.07h-4v-5.38h4v-8.06h7.06v8.06h6.44v5.38h-6.44v12a5.58,5.58,0,0,0,.95,3.66c.64.73,1.79,1.1,3.47,1.1a8.06,8.06,0,0,0,3.42-.79v5.38a16.17,16.17,0,0,1-5.88.95Q300.71,208.41,298.41,206Z"/></g></g></svg>