<svg xmlns="http://www.w3.org/2000/svg" viewBox="0 0 360 360"><defs><style>.cls-1{fill:#266dfe;}.cls-2{fill:#2e4050;}.cls-3{fill:#fff;}</style></defs><g id="Layer_2" data-name="Layer 2"><g id="Layer_1-2" data-name="Layer 1"><path class="cls-1" d="M360,180A180,180,0,1,1,180,0,180,180,0,0,1,360,180Z"/><path class="cls-2" d="M333.75,180A153.75,153.75,0,1,1,180,26.25,153.75,153.75,0,0,1,333.75,180Z"/><path class="cls-3" d="M66.71,168H83q6.67,0,10.7,3.54t4,9.68c0,4.26-1.33,7.49-4,9.72s-6.26,3.33-10.79,3.33H74.08v14.27H66.71ZM82,188.21q8.3,0,8.3-7,0-7.12-8.3-7.13H74.08v14.09Z"/><path class="cls-3" d="M112.7,193.14,98,168h7.83l10.44,18L127,168h7.78l-15,25.11v15.43h-7Z"/><path class="cls-3" d="M149,174.12H136.77V168h31.85v6.09H156.38v34.45H149Z"/><path class="cls-3" d="M173.26,168h7.36v16.82h19.49V168h7.31v40.54h-7.31V190.94H180.62v17.63h-7.36Z"/><path class="cls-3" d="M223.75,206.8a19.48,19.48,0,0,1-7.72-7.45,23,23,0,0,1,0-22,19.62,19.62,0,0,1,7.72-7.48,23.83,23.83,0,0,1,21.92,0,19.53,19.53,0,0,1,7.71,7.48,22.88,22.88,0,0,1,0,22,19.66,19.66,0,0,1-7.71,7.45,22.48,22.48,0,0,1-10.93,2.67A22.78,22.78,0,0,1,223.75,206.8Zm18.06-5.8a13.11,13.11,0,0,0,5.08-5.05,16.4,16.4,0,0,0,0-15.19,13.12,13.12,0,0,0-5-5.08,14.38,14.38,0,0,0-7.13-1.79,14.56,14.56,0,0,0-7.17,1.79,13.1,13.1,0,0,0-5.07,5.08,16.32,16.32,0,0,0,0,15.19,13,13,0,0,0,5.1,5.05,14.53,14.53,0,0,0,7.11,1.77A14.32,14.32,0,0,0,241.81,201Z"/><path class="cls-3" d="M262,168h7l19,28.24V168h7.37v40.54h-7l-19-28.3v28.3H262Z"/></g></g></svg>