<svg xmlns="http://www.w3.org/2000/svg" viewBox="0 0 360 360"><defs><style>.cls-1{fill:#266dfe;}.cls-2{fill:#2e4050;}.cls-3{fill:#fff;}</style></defs><g id="Layer_2" data-name="Layer 2"><g id="Layer_1-2" data-name="Layer 1"><path class="cls-1" d="M360,180A180,180,0,1,1,180,0,180,180,0,0,1,360,180Z"/><path class="cls-2" d="M333.75,180A153.75,153.75,0,1,1,180,26.25,153.75,153.75,0,0,1,333.75,180Z"/><path class="cls-3" d="M62.82,161.64h9.45l14.42,37,14.49-37h9.38L91,210.57H82.42Z"/><path class="cls-3" d="M116.16,161.64H139.4q6.72,0,10.47,3.36t3.74,9.8A11.91,11.91,0,0,1,152,181a11.21,11.21,0,0,1-4.38,4.24q7.64,2.52,7.63,11.27a14,14,0,0,1-2,7.52,13,13,0,0,1-5.28,4.87,16.16,16.16,0,0,1-7.39,1.68H116.16ZM138,182a6.9,6.9,0,0,0,4.83-1.65,6.4,6.4,0,0,0,1.82-5q0-3.86-1.78-5.29a8.36,8.36,0,0,0-5.29-1.43H125V182Zm.56,21.56a9.18,9.18,0,0,0,5.71-1.54q2-1.54,2-5.46t-2.1-5.67a9.27,9.27,0,0,0-6.09-1.75H125v14.42Z"/><path class="cls-3" d="M161.87,209.55a3.3,3.3,0,0,1-1.05-2.48,3.51,3.51,0,0,1,1.05-2.59,3.55,3.55,0,0,1,5,0,3.51,3.51,0,0,1,1.05,2.59,3.3,3.3,0,0,1-1.05,2.48,3.62,3.62,0,0,1-5,0Z"/><path class="cls-3" d="M175,161.64h8.4l22.89,34.09V161.64h8.89v48.93h-8.4l-22.89-34.16v34.16H175Z"/><path class="cls-3" d="M223.54,161.64h33.11V169H232.43v13.44h18v7.35h-18v13.44h24.22v7.35H223.54Z"/><path class="cls-3" d="M274.92,169H260.15v-7.35h38.43V169H283.81v41.58h-8.89Z"/></g></g></svg>