<svg xmlns="http://www.w3.org/2000/svg" viewBox="0 0 978.47 606.63"><defs><style>.cls-1{fill:#e0e0e0;}.cls-2{fill:#f5f5f5;}.cls-3,.cls-6{fill:#d9e1e8;}.cls-4{fill:#fff;}.cls-5{opacity:0.8;}.cls-15,.cls-16,.cls-17,.cls-6{fill-rule:evenodd;}.cls-7{fill:#263238;}.cls-16,.cls-23,.cls-8{fill:#31b1e7;}.cls-23,.cls-9{opacity:0.3;}.cls-10,.cls-15{fill:#e8505b;}.cls-11,.cls-17{fill:#2a85f5;}.cls-12{fill:#08101f;}.cls-13{fill:#fafafa;}.cls-14{fill:#2e4050;}.cls-18,.cls-25{opacity:0.4;}.cls-19{fill:#ffbe9d;}.cls-20{fill:#eb996e;}.cls-21{fill:#455a64;}.cls-22{fill:#20a1ce;}.cls-24{opacity:0.2;}.cls-26{fill:#ebebeb;}.cls-27{opacity:0.6;}</style></defs><g id="Background_Complete" data-name="Background Complete"><path class="cls-1" d="M445.76,222.92a4.8,4.8,0,0,1,1.5.47,6.29,6.29,0,0,1,3,3,6.44,6.44,0,0,1-.39,6.19,6.53,6.53,0,0,1-2.87,2.47,6.49,6.49,0,0,1-7.51-1.69,5.91,5.91,0,0,1-1.05-1.65,5.81,5.81,0,0,1-.49-1.8,6.46,6.46,0,0,1,.49-3.39,6.35,6.35,0,0,1,5.78-3.83,4.7,4.7,0,0,1,1.56.21c0,.05-.56-.11-1.55-.07a6.23,6.23,0,0,0-3.83,1.51,6.13,6.13,0,0,0-1.69,2.3,6.29,6.29,0,0,0-.43,3.23,5.85,5.85,0,0,0,.48,1.7,6,6,0,0,0,1,1.56,6.16,6.16,0,0,0,7.11,1.59,5.8,5.8,0,0,0,1.56-1,5.65,5.65,0,0,0,1.16-1.34,6.19,6.19,0,0,0,1-3.1,6.27,6.27,0,0,0-3.36-5.8C446.31,223.06,445.75,223,445.76,222.92Z"/><path class="cls-1" d="M450.84,216.14a.72.72,0,0,1,0-.22c0-.17,0-.39,0-.68,0-.62,0-1.51,0-2.67l.05.06-5.77-1.26.1-.05-1.52,3.23,0,.06h-.07a14.41,14.41,0,0,0-3.76.67l-.07,0,0-.05-2.54-2.51h.16l-5,3.18.06-.17,1.2,3.36,0,.08-.06.07a14.32,14.32,0,0,0-2.19,3.12l0,.08h-.1l-3.56,0,.15-.13c-.4,1.81-.84,3.76-1.28,5.76l-.1-.19,3.23,1.53.09,0v.1a14.14,14.14,0,0,0,.65,3.75l0,.1-.08.08-2.52,2.53,0-.22,3.16,5-.21-.07,3.36-1.2.1,0,.08.07a14.44,14.44,0,0,0,3.11,2.19h0c.05.07-.09-.16.1.16h0v1.78c0,.6,0,1.19,0,1.78l-.14-.18,5.76,1.3-.2.1c.51-1.09,1-2.16,1.53-3.23l.05-.09h.1a14.24,14.24,0,0,0,3.75-.65l.1,0,.08.07c.85.86,1.7,1.7,2.53,2.53l-.22,0,5-3.15-.06.19-1.2-3.36,0-.1.07-.07a14.4,14.4,0,0,0,2.2-3.11l0-.08h3.66l-.14.11c.46-2,.89-3.93,1.3-5.76l.08.16-3.22-1.54-.07,0v-.08a14.21,14.21,0,0,0-.64-3.76l0-.07.05-.05c.92-.92,1.74-1.75,2.53-2.53l0,.14-3.14-5,.1,0L454,218.41h0l0,0a15.94,15.94,0,0,0-2.29-1.77c-.27-.15-.47-.28-.62-.37l-.2-.12.22.1.63.34a14.27,14.27,0,0,1,2.34,1.73H454l3.35-1.22.06,0,0,.06,3.18,5,0,.07-.06.07-2.51,2.53,0-.12a14.32,14.32,0,0,1,.67,3.83l-.07-.11,3.23,1.52.1.05,0,.1c-.4,1.83-.83,3.74-1.28,5.77l0,.12H457l.13-.08a14.27,14.27,0,0,1-2.23,3.18l0-.16,1.2,3.36.05.13-.12.07-5,3.16-.12.08-.1-.1-2.53-2.52.18,0a14.52,14.52,0,0,1-3.84.67l.15-.1-1.53,3.22-.06.13-.14,0-5.76-1.29-.14,0V242h0c.19.32.05.09.09.16h0a14.84,14.84,0,0,1-3.18-2.24l.18,0-3.36,1.2-.14.05-.08-.12-3.15-5-.08-.12.1-.1,2.52-2.53,0,.17a14.69,14.69,0,0,1-.67-3.83l.1.14-3.22-1.53-.12-.06,0-.13,1.3-5.76,0-.13h3.69l-.14.08a14.61,14.61,0,0,1,2.25-3.17l0,.15-1.19-3.37,0-.11.1-.06,5-3.15.09-.05.07.07,2.53,2.53-.12,0a14.43,14.43,0,0,1,3.82-.65l-.09.06c.56-1.16,1.08-2.25,1.54-3.22l0-.07.07,0,5.75,1.32.05,0v0c0,1.15,0,2,0,2.65,0,.29,0,.51,0,.68A2.17,2.17,0,0,1,450.84,216.14Z"/><path class="cls-1" d="M485.78,504.2s0-.38,0-1.09,0-1.78,0-3.16c0-2.77,0-6.84,0-12.06,0-10.44-.05-25.48-.08-43.94l.16.16-104.13.05h0l.22-.21c0,21.32,0,41.69,0,60.25l-.2-.2,74.9.09,21.51.06,5.74,0h1.48l.51,0h-1.95l-5.69,0-21.47.06-75,.09h-.19v-.19c0-18.56,0-38.93,0-60.25v-.22h.22l104.13,0h.16V444c0,18.51-.06,33.58-.08,44,0,5.21,0,9.26,0,12,0,1.37,0,2.42,0,3.13S485.78,504.2,485.78,504.2Z"/><path class="cls-1" d="M485.82,451.24c0,.12-23.29.21-52,.21s-52-.09-52-.21,23.28-.21,52-.21S485.82,451.12,485.82,451.24Z"/><rect class="cls-2" x="390.66" y="461.18" width="32.17" height="32.17"/><path class="cls-1" d="M478.23,466.48a1.57,1.57,0,0,1-.47,0l-1.36,0-5,.07-16.46.06-16.46-.06-5-.07-1.36,0a1.57,1.57,0,0,1-.47,0,2.15,2.15,0,0,1,.47,0l1.36,0,5-.07,16.46-.06,16.46.06,5,.07,1.36,0A2.15,2.15,0,0,1,478.23,466.48Z"/><path class="cls-1" d="M479.26,473.67a2.2,2.2,0,0,1-.48,0l-1.39,0-5.1.07-16.82.06-16.83-.06-5.1-.07-1.39,0a2.2,2.2,0,0,1-.48,0,1.78,1.78,0,0,1,.48-.05l1.39,0,5.1-.06,16.83-.07,16.82.07,5.1.06,1.39,0A1.78,1.78,0,0,1,479.26,473.67Z"/><path class="cls-1" d="M479.26,480.85a1.61,1.61,0,0,1-.48,0l-1.39,0-5.1.07-16.82.06L438.64,481l-5.1-.07-1.39,0a1.61,1.61,0,0,1-.48,0,2.2,2.2,0,0,1,.48,0l1.39,0,5.1-.07,16.83-.06,16.82.06,5.1.07,1.39,0A2.2,2.2,0,0,1,479.26,480.85Z"/><path class="cls-1" d="M479.26,488a2.2,2.2,0,0,1-.48,0l-1.39,0-5.1.07-16.82.06-16.83-.06-5.1-.07-1.39,0a2.2,2.2,0,0,1-.48,0,1.78,1.78,0,0,1,.48-.05l1.39,0,5.1-.06,16.83-.07,16.82.07,5.1.06,1.39,0A1.78,1.78,0,0,1,479.26,488Z"/><circle class="cls-3" cx="184.66" cy="175.21" r="43.28" transform="translate(-69.81 181.89) rotate(-45)"/><path class="cls-4" d="M204.31,176.55a9.32,9.32,0,0,1-1.53.1l-4.21.08c-3.57.05-8.54.09-14.15.09h-.28v-3.08c0-6.27,0-12,.08-16.05,0-2,.06-3.62.09-4.87a10.08,10.08,0,0,1,.11-1.78,11.49,11.49,0,0,1,.11,1.78c0,1.25.05,2.89.08,4.87.06,4.1.09,9.78.09,16.05,0,1,0,1.91,0,2.81l-.27-.28c5.61,0,10.58,0,14.15.09l4.21.08A8.49,8.49,0,0,1,204.31,176.55Z"/><path class="cls-4" d="M184.55,139a12.26,12.26,0,0,1,.28,3.64,12.26,12.26,0,0,1-.28,3.64,11.87,11.87,0,0,1-.28-3.64A11.87,11.87,0,0,1,184.55,139Z"/><path class="cls-4" d="M204.27,144.88a11.7,11.7,0,0,1-2.34,2.74A11.87,11.87,0,0,1,199.2,150a23.44,23.44,0,0,1,5.07-5.07Z"/><path class="cls-4" d="M215.8,157.48a14.94,14.94,0,0,1-3,2,15.23,15.23,0,0,1-3.14,1.73,9.66,9.66,0,0,1,2.85-2.21A9.36,9.36,0,0,1,215.8,157.48Z"/><path class="cls-4" d="M222.56,176.17a22.54,22.54,0,0,1-5,.28,22.54,22.54,0,0,1-5-.28,22.54,22.54,0,0,1,5-.28A22.54,22.54,0,0,1,222.56,176.17Z"/><path class="cls-4" d="M153.81,175.51a20.06,20.06,0,0,1-4.68.28,20.13,20.13,0,0,1-4.68-.28,19.5,19.5,0,0,1,4.68-.28A19.43,19.43,0,0,1,153.81,175.51Z"/><path class="cls-4" d="M158.68,189.42a20.43,20.43,0,0,1-3.54,3.21,20.94,20.94,0,0,1-3.89,2.78,20.43,20.43,0,0,1,3.54-3.21A20.61,20.61,0,0,1,158.68,189.42Z"/><path class="cls-4" d="M170.67,200.19a32.34,32.34,0,0,1-2.41,4.17,33.2,33.2,0,0,1-2.55,4.09,24.4,24.4,0,0,1,5-8.26Z"/><path class="cls-4" d="M184.55,214.07a21.83,21.83,0,0,1-.28-5,21.83,21.83,0,0,1,.28-5,22.54,22.54,0,0,1,.28,5A22.54,22.54,0,0,1,184.55,214.07Z"/><path class="cls-4" d="M205.92,207.46a14.36,14.36,0,0,1-4.09-2.8A14.52,14.52,0,0,1,198.5,201a48.93,48.93,0,0,1,3.7,3.25A48.06,48.06,0,0,1,205.92,207.46Z"/><path class="cls-4" d="M216,196.66a33.79,33.79,0,0,1-6.17-6.17,16.92,16.92,0,0,1,3.28,2.89A17.35,17.35,0,0,1,216,196.66Z"/><path class="cls-4" d="M158.22,162.18a25.92,25.92,0,0,1-5.4-5.4,25.92,25.92,0,0,1,5.4,5.4Z"/><path class="cls-4" d="M170.6,149.14a12.5,12.5,0,0,1-2.85-2.44,12.63,12.63,0,0,1-2.45-2.83,25.79,25.79,0,0,1,5.3,5.27Z"/><g class="cls-5"><path class="cls-6" d="M420.06,153a28.94,28.94,0,0,1,6.22,4.39l6.66-2.37,6.25,9.87-5,5a28.63,28.63,0,0,1,1.3,7.51l6.38,3-2.56,11.4h-7.06a28.62,28.62,0,0,1-4.38,6.23l2.37,6.65L420.39,211l-5-5a28.49,28.49,0,0,1-7.5,1.31l-3,6.37-11.4-2.55V204.1a28.66,28.66,0,0,1-6.23-4.39l-6.65,2.37-6.26-9.87,5-5A28.64,28.64,0,0,1,378,179.7l-6.38-3,2.56-11.4h7.06a28.32,28.32,0,0,1,4.39-6.23l-2.37-6.65,9.87-6.25,5,5a28.57,28.57,0,0,1,7.51-1.31l3-6.37L420,146l0,7.06ZM410,166.46a12.53,12.53,0,1,0,9.48,15A12.52,12.52,0,0,0,410,166.46Z"/></g><path class="cls-3" d="M85,253.33h74s-6.54-11.9-25.58-10.17c-18.18,1.66-19.11-5.86-28.36-6.78S88.1,242.54,85,253.33Z"/><path class="cls-3" d="M245.12,387.82H305s-5.29-9.63-20.7-8.23c-14.72,1.34-15.47-4.74-23-5.49S247.61,379.09,245.12,387.82Z"/></g><g id="Floor"><path class="cls-7" d="M501.46,535.57c0,.14-103,.26-230.13.26s-230.16-.12-230.16-.26,103-.26,230.16-.26S501.46,535.43,501.46,535.57Z"/></g><g id="Screens"><rect class="cls-4" x="331.23" y="235.87" width="145.28" height="97.28"/><path class="cls-8" d="M476.51,333.15s0-.61,0-1.77l0-5.13c0-4.5,0-11.11-.06-19.57,0-16.9-.06-41.19-.11-70.81l.21.21-145.27,0h0l.26-.26c0,34.66,0,67.61,0,97.28l-.24-.24L435.9,333l29.9.06,7.95,0,2.06,0h0l-2,0-7.91,0-29.85.06-104.82.12H331v-.24c0-29.67,0-62.62,0-97.28v-.26h.27l145.27.06h.21v.2c-.05,29.67-.08,54-.11,70.94,0,8.44,0,15-.05,19.52,0,2.23,0,3.93,0,5.09S476.51,333.15,476.51,333.15Z"/><path class="cls-8" d="M331.23,244.56c0-.15,32.5-.27,72.58-.27s72.58.12,72.58.27-32.49.26-72.58.26S331.23,244.7,331.23,244.56Z"/><g class="cls-9"><path class="cls-8" d="M337,240.18A1.17,1.17,0,1,1,335.8,239,1.16,1.16,0,0,1,337,240.18Z"/></g><g class="cls-9"><path class="cls-8" d="M341,240.18a1.17,1.17,0,1,1-1.16-1.17A1.16,1.16,0,0,1,341,240.18Z"/></g><g class="cls-9"><path class="cls-8" d="M344.88,240.18a1.17,1.17,0,1,1-1.16-1.17A1.16,1.16,0,0,1,344.88,240.18Z"/></g><g class="cls-9"><rect class="cls-8" x="343.72" y="254.7" width="38.75" height="38.75"/></g><path class="cls-8" d="M456.59,265.65c0,.15-15.12.26-33.76.26s-33.76-.11-33.76-.26,15.12-.26,33.76-.26S456.59,265.51,456.59,265.65Z"/><path class="cls-8" d="M456.59,272.85c0,.15-15.12.27-33.76.27s-33.76-.12-33.76-.27,15.12-.26,33.76-.26S456.59,272.71,456.59,272.85Z"/><path class="cls-8" d="M456.59,280.06c0,.14-15.12.26-33.76.26s-33.76-.12-33.76-.26,15.12-.26,33.76-.26S456.59,279.91,456.59,280.06Z"/><path class="cls-8" d="M429,287.26a9.9,9.9,0,0,1-1.57.1l-4.28.08c-3.61.05-8.6.08-14.1.08s-10.5,0-14.11-.08l-4.28-.08a9.9,9.9,0,0,1-1.57-.1,8.58,8.58,0,0,1,1.57-.1l4.28-.09c3.61,0,8.6-.07,14.11-.07s10.49,0,14.1.07l4.28.09A8.58,8.58,0,0,1,429,287.26Z"/><g class="cls-9"><rect class="cls-10" x="346.14" y="306.52" width="18.21" height="18.21"/></g><g class="cls-9"><rect class="cls-8" x="379.17" y="306.52" width="18.21" height="18.21"/></g><g class="cls-9"><rect class="cls-8" x="412.2" y="306.52" width="18.21" height="18.21"/></g><g class="cls-9"><rect class="cls-8" x="445.23" y="306.52" width="18.21" height="18.21"/></g><rect class="cls-4" x="65.53" y="270.92" width="129.42" height="52.57"/><path class="cls-8" d="M195,323.49s0-.33,0-.94,0-1.54,0-2.73c0-2.4,0-5.92,0-10.46,0-9.07,0-22.2-.08-38.44l.14.14-129.41.06h0l.2-.2v52.57l-.2-.2,92.79.09,26.92.06,7.21,0,1.86,0h-1.82l-7.16,0-26.87,0-92.93.09h-.2v-.19c0-16.39,0-34.16,0-52.57v-.21h.22l129.41.06h.15v.15c0,16.28-.06,29.43-.08,38.53,0,4.52,0,8,0,10.43,0,1.18,0,2.08,0,2.7S195,323.49,195,323.49Z"/><path class="cls-8" d="M65.66,278c0-.12,28.93-.21,64.6-.21s64.62.09,64.62.21-28.93.2-64.62.2S65.66,278.12,65.66,278Z"/><g class="cls-9"><path class="cls-8" d="M71.08,274.84a.94.94,0,1,1-.94-.94A.94.94,0,0,1,71.08,274.84Z"/></g><g class="cls-9"><path class="cls-8" d="M74.3,274.84a.94.94,0,1,1-.94-.94A.94.94,0,0,1,74.3,274.84Z"/></g><g class="cls-9"><path class="cls-8" d="M77.47,274.84a.94.94,0,1,1-.94-.94A.94.94,0,0,1,77.47,274.84Z"/></g><g class="cls-9"><rect class="cls-8" x="76.53" y="286.55" width="31.26" height="31.26"/></g><path class="cls-8" d="M186,294.93c0,.11-16.09.2-35.93.2s-35.93-.09-35.93-.2,16.09-.21,35.93-.21S186,294.82,186,294.93Z"/><path class="cls-8" d="M186,301.3c0,.11-16.09.2-35.93.2s-35.93-.09-35.93-.2,16.09-.21,35.93-.21S186,301.18,186,301.3Z"/><path class="cls-8" d="M160.4,307.67l-.47,0-1.35,0-5,.06-16.35.06-16.35-.06-5-.06-1.35,0-.47,0a1.83,1.83,0,0,1,.47-.05l1.35,0,5-.07,16.35-.06,16.35.06,5,.07,1.35,0A1.74,1.74,0,0,1,160.4,307.67Z"/></g><g id="Rocket"><path class="cls-3" d="M290.05,204.86c-2.17-1.45-5.15-.57-7.32.87s-4,3.43-6.45,4.38c-4.56,1.77-10.55-.33-14.09,3-2.26,2.14-2.49,5.66-4.21,8.25-2.89,4.36-9.85,6-10.44,11.19-.35,3,2.05,6,5,6.8a10.69,10.69,0,0,0,8.7-1.74c3-2,5.31-5,8.69-6.14s7.73-.19,10.46-2.6,2.32-6.86,4.28-9.94a19.74,19.74,0,0,1,4.15-4.06c1.47-1.27,2.87-2.84,3.12-4.77s-.54-5.22-1.87-5.29"/><path class="cls-7" d="M233.7,417.31c.13-.08.53.33.91.9s.59,1.11.47,1.19-.52-.32-.91-.9S233.58,417.38,233.7,417.31Z"/><path class="cls-7" d="M229.42,408.29a12.09,12.09,0,0,1,1.9,4.63,12.26,12.26,0,0,1-1.9-4.63Z"/><path class="cls-7" d="M227.1,398.57a12.17,12.17,0,0,1,.91,4.92,6.2,6.2,0,0,1-.71-2.42A6.27,6.27,0,0,1,227.1,398.57Z"/><path class="cls-7" d="M226.75,388.58a12.39,12.39,0,0,1-.07,5,5.94,5.94,0,0,1-.23-2.5A6,6,0,0,1,226.75,388.58Z"/><path class="cls-7" d="M228.36,378.71a6.28,6.28,0,0,1-.27,2.51,6.41,6.41,0,0,1-.78,2.39,6.25,6.25,0,0,1,.27-2.5A6.67,6.67,0,0,1,228.36,378.71Z"/><path class="cls-7" d="M232,369.4a11.95,11.95,0,0,1-2.05,4.56,6.31,6.31,0,0,1,.79-2.39C231.27,370.3,231.83,369.33,232,369.4Z"/><path class="cls-7" d="M237.47,361.06a6.26,6.26,0,0,1-1.28,2.16,7.16,7.16,0,0,1-1.69,1.87c-.14-.09.44-1.06,1.27-2.17S237.36,361,237.47,361.06Z"/><path class="cls-7" d="M244.19,353.65c.11.11-.58,1-1.53,2s-1.81,1.73-1.92,1.64.58-1,1.54-2S244.09,353.55,244.19,353.65Z"/><path class="cls-7" d="M251.23,346.54c.11.1-.6,1-1.57,2s-1.84,1.7-1.94,1.6.6-1,1.57-2S251.13,346.44,251.23,346.54Z"/><path class="cls-7" d="M257.81,339a6.28,6.28,0,0,1-1.39,2.1c-.88,1.07-1.68,1.87-1.79,1.77a6.68,6.68,0,0,1,1.39-2.1C256.89,339.71,257.69,338.92,257.81,339Z"/><path class="cls-7" d="M262.91,330.42a5.44,5.44,0,0,1-.84,2.38c-.64,1.24-1.33,2.14-1.45,2.06a7.23,7.23,0,0,1,1-2.3A7.42,7.42,0,0,1,262.91,330.42Z"/><path class="cls-7" d="M265.34,320.76a5.08,5.08,0,0,1,0,2.52,5.28,5.28,0,0,1-.77,2.41,20.39,20.39,0,0,1,.82-4.93Z"/><path class="cls-7" d="M264.6,310.82a5.13,5.13,0,0,1,.74,2.41,5.27,5.27,0,0,1,0,2.53,7.58,7.58,0,0,1-.54-2.45A7.74,7.74,0,0,1,264.6,310.82Z"/><path class="cls-7" d="M260.67,301.67c.12-.08.85.79,1.51,2a5.25,5.25,0,0,1,.86,2.38,7.89,7.89,0,0,1-1.32-2.13A8.16,8.16,0,0,1,260.67,301.67Z"/><path class="cls-7" d="M253.7,294.57a5.29,5.29,0,0,1,2.16,1.31c1.07.9,1.77,1.8,1.67,1.9s-1-.62-2-1.5S253.61,294.69,253.7,294.57Z"/><path class="cls-7" d="M244.61,290.51a5.07,5.07,0,0,1,2.48.46,5.14,5.14,0,0,1,2.25,1.16,8,8,0,0,1-2.42-.67A7.68,7.68,0,0,1,244.61,290.51Z"/><path class="cls-7" d="M234.67,290.06a5,5,0,0,1,2.47-.52,5.13,5.13,0,0,1,2.52.26,8.35,8.35,0,0,1-2.49.26A8,8,0,0,1,234.67,290.06Z"/><path class="cls-7" d="M225.44,293.74c-.08-.12.78-.87,2-1.54a4.84,4.84,0,0,1,2.39-.82,9.14,9.14,0,0,1-2.15,1.28A8.19,8.19,0,0,1,225.44,293.74Z"/><path class="cls-7" d="M218.58,300.93a4.92,4.92,0,0,1,1.23-2.21c.85-1.11,1.73-1.84,1.83-1.74s-.59,1-1.42,2.06S218.7,301,218.58,300.93Z"/><path class="cls-7" d="M215.21,310.27a4.92,4.92,0,0,1,.19-2.52,5,5,0,0,1,1-2.34,26.35,26.35,0,0,1-1.17,4.86Z"/><path class="cls-7" d="M216.4,320.12a5,5,0,0,1-1-2.34,4.87,4.87,0,0,1-.2-2.52,8.83,8.83,0,0,1,.7,2.4A8.5,8.5,0,0,1,216.4,320.12Z"/><path class="cls-7" d="M221.47,328.68c-.11.1-.94-.68-1.75-1.82a5.27,5.27,0,0,1-1.17-2.24c.13-.07.79.83,1.59,1.94A7.7,7.7,0,0,1,221.47,328.68Z"/><path class="cls-7" d="M228.83,335.43a5.61,5.61,0,0,1-2.15-1.32c-1.09-.87-1.84-1.72-1.74-1.83s1,.57,2.06,1.43S228.92,335.31,228.83,335.43Z"/><path class="cls-7" d="M237.5,340.4a12.41,12.41,0,0,1-4.46-2.27,6.27,6.27,0,0,1,2.35.9C236.61,339.65,237.56,340.26,237.5,340.4Z"/><path class="cls-7" d="M247,343.42a5.39,5.39,0,0,1-2.51-.29,5.49,5.49,0,0,1-2.34-.95,7.32,7.32,0,0,1,2.47.45A7.52,7.52,0,0,1,247,343.42Z"/><path class="cls-7" d="M257,343.94a9.11,9.11,0,0,1-5,.1,7.35,7.35,0,0,1,2.49-.22A7.61,7.61,0,0,1,257,343.94Z"/><path class="cls-7" d="M266.6,341.37a5.33,5.33,0,0,1-2.23,1.18,5.07,5.07,0,0,1-2.47.5,7.9,7.9,0,0,1,2.3-1A7.34,7.34,0,0,1,266.6,341.37Z"/><path class="cls-7" d="M274.94,335.9c.1.11-.66,1-1.77,1.8A5.41,5.41,0,0,1,271,339c-.08-.13.79-.82,1.88-1.66S274.84,335.79,274.94,335.9Z"/><path class="cls-7" d="M281.45,328.34a5.42,5.42,0,0,1-1.23,2.2c-.83,1.12-1.67,1.89-1.77,1.8s.54-1,1.36-2.11S281.33,328.26,281.45,328.34Z"/><path class="cls-7" d="M285.78,319.34a9.11,9.11,0,0,1-1.87,4.64,7.44,7.44,0,0,1,.77-2.38A7.69,7.69,0,0,1,285.78,319.34Z"/><path class="cls-7" d="M287.72,309.55a9.54,9.54,0,0,1-.68,4.95,7.36,7.36,0,0,1,.15-2.5A7.07,7.07,0,0,1,287.72,309.55Z"/><path class="cls-7" d="M287.46,299.56a6.1,6.1,0,0,1,.45,2.47,6.31,6.31,0,0,1-.06,2.52,6.14,6.14,0,0,1-.45-2.48A6.32,6.32,0,0,1,287.46,299.56Z"/><path class="cls-7" d="M285.29,289.8a6.1,6.1,0,0,1,.91,2.34,6.27,6.27,0,0,1,.4,2.49,6.29,6.29,0,0,1-.91-2.35A6.18,6.18,0,0,1,285.29,289.8Z"/><path class="cls-7" d="M281.46,280.56c.13-.07.73.88,1.33,2.14a6.18,6.18,0,0,1,.78,2.39,6.29,6.29,0,0,1-1.25-2.17A6.53,6.53,0,0,1,281.46,280.56Z"/><path class="cls-7" d="M276.54,271.84c.13-.07.79.84,1.49,2a6.09,6.09,0,0,1,1,2.29,6.43,6.43,0,0,1-1.49-2A6.22,6.22,0,0,1,276.54,271.84Z"/><path class="cls-7" d="M271.58,263.16c.13-.07.77.85,1.44,2.06a6.5,6.5,0,0,1,1,2.31c-.12.08-.77-.85-1.44-2.06A6.15,6.15,0,0,1,271.58,263.16Z"/><path class="cls-7" d="M267.67,254a12.09,12.09,0,0,1,1.75,4.68c-.14.06-.64-.94-1.12-2.25A6,6,0,0,1,267.67,254Z"/><path class="cls-7" d="M266,244.13a7,7,0,0,1,.44,2.46,7.35,7.35,0,0,1,.09,2.51,5.36,5.36,0,0,1-.6-2.45A5.45,5.45,0,0,1,266,244.13Z"/><path class="cls-7" d="M266.8,234.18a7.56,7.56,0,0,1-.18,2.5,7.07,7.07,0,0,1-.55,2.45,5.58,5.58,0,0,1,0-2.53A5.36,5.36,0,0,1,266.8,234.18Z"/><path class="cls-7" d="M270.06,224.74a7.3,7.3,0,0,1-.8,2.38,7.2,7.2,0,0,1-1.13,2.23,9.38,9.38,0,0,1,1.93-4.61Z"/><path class="cls-7" d="M275.63,216.46c.11.1-.55,1-1.39,2.09s-1.55,1.95-1.67,1.87a5.3,5.3,0,0,1,1.26-2.19C274.68,217.13,275.53,216.37,275.63,216.46Z"/><path class="cls-7" d="M283.14,209.88c.08.12-.79.83-1.87,1.67a7.73,7.73,0,0,1-2.09,1.39c-.1-.11.67-.95,1.77-1.8A5.44,5.44,0,0,1,283.14,209.88Z"/><path class="cls-7" d="M292,205.35a7.14,7.14,0,0,1-2.23,1.16,7.22,7.22,0,0,1-2.36.83c-.07-.13.88-.75,2.16-1.3A5.5,5.5,0,0,1,292,205.35Z"/><path class="cls-7" d="M299.29,203.52c0,.14-.51.36-1.18.48s-1.25.11-1.28,0,.5-.35,1.18-.48S299.27,203.38,299.29,203.52Z"/><path class="cls-11" d="M319.7,174.08s11.74-8.38,28-3c0,0,1.33,13.45-11.7,24.16"/><path class="cls-8" d="M282.67,198.94c.5.75,13.25,21.24,13.25,21.24l38.27-23.58a13.4,13.4,0,0,0,3.74-19.38h0a13.39,13.39,0,0,0-18.23-3.14Z"/><path class="cls-12" d="M295.92,220.18l-.86,14.42s24.8-12,18.61-25.36Z"/><path class="cls-12" d="M300.4,187s-16.82-7.42-30.67,3.47l12.94,8.44Z"/><path class="cls-12" d="M300.28,199l-23.93,15s.82,2.58,1.46,2.36,18.53-10.8,24.36-14.25a1.8,1.8,0,0,0,.47-2.69h0A1.81,1.81,0,0,0,300.28,199Z"/><circle class="cls-13" cx="322.33" cy="187.6" r="7.66" transform="translate(65.9 458.4) rotate(-76.76)"/><path class="cls-7" d="M330,187.6c-.06,0,0-.68-.34-1.84a7.55,7.55,0,0,0-2.8-4.1,7.46,7.46,0,0,0-10.49,1.56,7.38,7.38,0,0,0,0,8.76,7.35,7.35,0,0,0,3.44,2.59,7.43,7.43,0,0,0,7.05-1,7.62,7.62,0,0,0,2.8-4.1c.31-1.16.28-1.85.34-1.85a1.56,1.56,0,0,1,0,.49,6.81,6.81,0,0,1-.17,1.41,7.73,7.73,0,0,1-6.07,5.84,7.82,7.82,0,0,1-7.83-3.06,7.84,7.84,0,0,1,0-9.36,7.79,7.79,0,0,1,3.68-2.74,7.94,7.94,0,0,1,4.15-.32,7.84,7.84,0,0,1,3.3,1.5,7.67,7.67,0,0,1,2.77,4.35,6.81,6.81,0,0,1,.17,1.4A1.56,1.56,0,0,1,330,187.6Z"/><path class="cls-7" d="M339.32,192.71c-.1,0-.21-1.49-.8-3.82a31.49,31.49,0,0,0-1.33-4,29.27,29.27,0,0,0-5.56-8.61,30.63,30.63,0,0,0-3.09-2.86c-1.89-1.49-3.2-2.21-3.15-2.3a4.43,4.43,0,0,1,.95.45,11.59,11.59,0,0,1,1.07.63c.4.27.87.55,1.35.93A25.47,25.47,0,0,1,332,176a29.23,29.23,0,0,1,3.26,4.1,29.56,29.56,0,0,1,2.4,4.66,27,27,0,0,1,1.25,4.09c.15.59.21,1.14.29,1.61a11.26,11.26,0,0,1,.13,1.23A3.75,3.75,0,0,1,339.32,192.71Z"/><path class="cls-7" d="M337.26,193.81c-.1,0-.22-1.51-.82-3.88a30.49,30.49,0,0,0-1.35-4.06,33,33,0,0,0-2.43-4.64,32.41,32.41,0,0,0-3.2-4.14,30.94,30.94,0,0,0-3.13-2.93c-1.91-1.53-3.24-2.27-3.19-2.36a4.5,4.5,0,0,1,1,.47,10.25,10.25,0,0,1,1.07.65,15.74,15.74,0,0,1,1.37,1,26.58,26.58,0,0,1,3.26,2.89A29.79,29.79,0,0,1,333.1,181a30.47,30.47,0,0,1,2.43,4.74,26.79,26.79,0,0,1,1.27,4.16c.15.6.21,1.15.29,1.64a9.52,9.52,0,0,1,.14,1.25A4.84,4.84,0,0,1,337.26,193.81Z"/></g><g id="Plant"><path class="cls-12" d="M103.16,511.72c-.86-3.4,1.39-6.8,3.9-9.25s5.5-4.64,6.82-7.89c2.13-5.26-.66-12.11,3-16.49,2.12-2.58,5.92-3.42,7.8-6.18a14.11,14.11,0,0,0,1.72-4.94A50.28,50.28,0,0,1,139,443.67a43.46,43.46,0,0,1-5,22.5c-1.47,2.76-3.27,5.45-3.76,8.54-.82,5,1.95,10.19.69,15.11-1.44,5.62-7.78,9.36-8.12,15.15-.28,4.9,4,9.23,3.62,14.13a13.26,13.26,0,0,1-2.21,5.8c-3.83,6.28-9.42,10.59-17.86,10.4L96,535.6Z"/><g class="cls-9"><path class="cls-14" d="M103.16,511.72c-.86-3.4,1.39-6.8,3.9-9.25s5.5-4.64,6.82-7.89c2.13-5.26-.66-12.11,3-16.49,2.12-2.58,5.92-3.42,7.8-6.18a14.11,14.11,0,0,0,1.72-4.94A50.28,50.28,0,0,1,139,443.67a43.46,43.46,0,0,1-5,22.5c-1.47,2.76-3.27,5.45-3.76,8.54-.82,5,1.95,10.19.69,15.11-1.44,5.62-7.78,9.36-8.12,15.15-.28,4.9,4,9.23,3.62,14.13a13.26,13.26,0,0,1-2.21,5.8c-3.83,6.28-9.42,10.59-17.86,10.4L96,535.6Z"/></g><path class="cls-7" d="M93.88,535.86a8.37,8.37,0,0,1-2.85-.08,17.4,17.4,0,0,1-3.35-.86,14.32,14.32,0,0,1-4.14-2.3,5.71,5.71,0,0,1-1.69-2.28,10.74,10.74,0,0,1-.47-3.09,32.46,32.46,0,0,0-.22-3.35,9.16,9.16,0,0,0-1.25-3.33c-1.2-2.15-3.22-4.19-3.85-7.1s-.17-6,.33-9.06,1-6.47-.19-9.71-3.34-6.17-4.45-9.82-.56-7.64-.78-11.55a15.2,15.2,0,0,0-1.31-5.75c-.83-1.83-2-3.56-2.87-5.49-1.81-3.91-2.11-8.33-2.59-12.65-.23-2.18-.47-4.39-.71-6.61a31.48,31.48,0,0,0-1.11-6.62A57.54,57.54,0,0,0,60,429.8a21.39,21.39,0,0,1-1.18-3.35,33.37,33.37,0,0,1-.32-3.56,41.81,41.81,0,0,1,.32-7.15c.29-2.38.74-4.75,1-7.14,0-.14,0-.28,0-.41l.05-.47.42.21a15.85,15.85,0,0,1,5.54,4.73A25.39,25.39,0,0,1,69.23,419c1.7,4.45,2.29,9.11,3.14,13.55s1.92,8.82,4.17,12.53c1.13,1.85,2.49,3.54,3.68,5.34a14.77,14.77,0,0,1,2.53,5.9c.58,4.38-1.85,8.21-1.37,12.08a13.49,13.49,0,0,0,1.86,5.38c.93,1.65,2,3.19,3.06,4.74a30.45,30.45,0,0,1,2.75,4.78,15.21,15.21,0,0,1,1.24,5.19c.23,3.49-.28,6.79-.05,9.92a22.93,22.93,0,0,0,2.51,8.51c1.23,2.55,2.61,4.86,3.76,7.09a36,36,0,0,1,1.55,3.3,16,16,0,0,1,.89,3.28,20.51,20.51,0,0,1,0,5.9A14.85,14.85,0,0,1,96,534a6.8,6.8,0,0,1-.84.9,3.94,3.94,0,0,1-.68.57l-.59.41a13.15,13.15,0,0,0,2-2,15,15,0,0,0,2.85-7.46,20.39,20.39,0,0,0-.1-5.81,15.7,15.7,0,0,0-.9-3.2c-.43-1.07-1-2.15-1.55-3.26-1.17-2.21-2.56-4.51-3.82-7.08a23,23,0,0,1-2.59-8.66c-.26-3.19.24-6.5,0-9.91a14.66,14.66,0,0,0-1.22-5,30.06,30.06,0,0,0-2.72-4.68c-1-1.54-2.14-3.08-3.1-4.78a14.11,14.11,0,0,1-1.94-5.59c-.47-4.13,1.94-8,1.34-12.05a14,14,0,0,0-2.44-5.65c-1.17-1.77-2.54-3.46-3.7-5.35-2.33-3.81-3.44-8.27-4.27-12.74s-1.45-9.08-3.12-13.44a24.49,24.49,0,0,0-3.3-6.15,15.27,15.27,0,0,0-5.3-4.54l.48-.26-.05.42c-.28,2.42-.72,4.79-1,7.14a40.7,40.7,0,0,0-.32,7.05c.06,1.15.13,2.36.3,3.45a22.63,22.63,0,0,0,1.14,3.23A58.28,58.28,0,0,1,63,436a32.76,32.76,0,0,1,1.12,6.72q.36,3.35.7,6.62c.47,4.35.77,8.69,2.51,12.46.87,1.88,2,3.61,2.86,5.51a16,16,0,0,1,1.36,6c.2,4-.34,7.88.72,11.42s3.29,6.47,4.41,9.82.67,6.86.16,9.95-1,6.13-.38,8.89,2.53,4.8,3.76,7a9.49,9.49,0,0,1,1.27,3.46,31,31,0,0,1,.19,3.39,10.6,10.6,0,0,0,.43,3,5.54,5.54,0,0,0,1.59,2.19,14.23,14.23,0,0,0,4,2.3,17.36,17.36,0,0,0,3.3.92,14.15,14.15,0,0,0,2.1.22C93.63,535.85,93.88,535.86,93.88,535.86Z"/><path class="cls-7" d="M61.91,413.9a1.12,1.12,0,0,1,.09.31c.06.25.14.55.23.93.2.82.43,2.05.81,3.58s1.33,3.28,2.12,5.42,1.65,4.58,2.41,7.34,1.46,5.83,2.17,9.11A38.41,38.41,0,0,0,73,450.71c.84,1.68,1.78,3.38,2.53,5.25A24.59,24.59,0,0,1,77,461.9a120.67,120.67,0,0,0,2.15,12.52c2,8.48,4,16.56,5.71,23.92s3.42,13.94,4.79,19.5L92.8,531l.83,3.59c.08.38.15.69.2.94a1.55,1.55,0,0,1,0,.32,1.19,1.19,0,0,1-.11-.31l-.27-.92c-.23-.86-.55-2-1-3.56L89.17,518c-1.4-5.56-3.07-12.16-4.92-19.48S80.53,483,78.48,474.56A119.38,119.38,0,0,1,76.33,462a23.43,23.43,0,0,0-1.4-5.8c-.72-1.81-1.65-3.51-2.49-5.21a38.79,38.79,0,0,1-3.24-10.27c-.69-3.29-1.34-6.35-2.08-9.11s-1.52-5.21-2.31-7.33-1.65-3.89-2-5.48-.54-2.79-.69-3.62c-.07-.39-.12-.7-.16-.95A1.29,1.29,0,0,1,61.91,413.9Z"/><path class="cls-11" d="M92.05,535.88c-6.73-4-8.6-16.24-5.74-23.56s7.83-14,8.63-21.8c.62-6-1.31-12.19.12-18,1.94-7.92,9.71-14,9.67-22.16,0-4.57-2.6-8.89-2.37-13.46.28-5.6,4.61-10,7.3-14.94,4.12-7.53,4.44-16.46,5.88-24.92s4.72-17.52,12.25-21.64c1.07,7.2,2.94,12.14,2.29,21.87-.24,3.5-4.34,10.18-4.94,17.84-.35,4.58-.61,9.17-.91,13.75s-.62,9-2.24,13.18c-1.24,3.19-3.23,6.08-4.16,9.38-1.75,6.21.47,12.95-1,19.24-1.21,5.33-4.92,9.9-5.71,15.3-1.1,7.6,3.77,15.52,1.21,22.76-1.27,3.59-4.24,6.46-5.1,10.17-.67,2.88,0,5.93-.58,8.82-1,4.66-9.9,8.23-14.65,7.92"/><path class="cls-7" d="M125.89,382.48a2.11,2.11,0,0,1,0,.41c0,.3-.09.69-.16,1.18-.16,1-.34,2.56-.7,4.53s-1.43,4.21-2.26,6.89-1.75,5.77-2.53,9.24-1.45,7.29-2.15,11.41-1.47,8.61-3.54,12.9c-1,2.15-2,4.3-2.84,6.6a30,30,0,0,0-1.47,7.29,149.12,149.12,0,0,1-2.07,15.72c-2.13,10.64-4.15,20.78-6,30S98.45,506.12,97,513.1s-2.7,12.53-3.54,16.46c-.43,1.91-.76,3.4-1,4.47l-.27,1.16a2.21,2.21,0,0,1-.12.39,2.53,2.53,0,0,1,0-.41c.06-.3.13-.68.21-1.17.21-1.07.5-2.57.88-4.49.79-3.94,1.93-9.57,3.33-16.51s3.13-15.27,5-24.47l5.95-30a149.83,149.83,0,0,0,2.07-15.67,30.28,30.28,0,0,1,1.52-7.43c.83-2.34,1.92-4.51,2.88-6.64,2.06-4.22,2.8-8.64,3.55-12.75s1.42-8,2.24-11.42a94.3,94.3,0,0,1,2.64-9.24c.87-2.7,1.94-4.91,2.35-6.84s.63-3.47.83-4.49c.09-.49.17-.88.22-1.17A2.51,2.51,0,0,1,125.89,382.48Z"/></g><g id="Chart"><rect class="cls-11" x="423.79" y="378.51" width="6.97" height="22.52"/><rect class="cls-11" x="436.62" y="369.24" width="6.97" height="31.78"/><rect class="cls-11" x="450.27" y="364.91" width="6.97" height="36.11"/><rect class="cls-11" x="463.93" y="360.35" width="6.97" height="40.68"/></g><g id="Gears"><path class="cls-7" d="M188.84,407.72a4.8,4.8,0,0,1,1.5.47,6.4,6.4,0,0,1,3.59,5.94,6.4,6.4,0,0,1-1,3.27,6.53,6.53,0,0,1-2.87,2.47,6.49,6.49,0,0,1-7.51-1.69,5.91,5.91,0,0,1-1.05-1.65,5.81,5.81,0,0,1-.49-1.8,6.45,6.45,0,0,1,.49-3.39,6.37,6.37,0,0,1,1.79-2.38,6.26,6.26,0,0,1,4-1.45,4.7,4.7,0,0,1,1.56.21s-.56-.11-1.55-.07a6.25,6.25,0,0,0-3.83,1.51,6.13,6.13,0,0,0-1.69,2.3,6.29,6.29,0,0,0-.43,3.23,5.85,5.85,0,0,0,.48,1.7,5.76,5.76,0,0,0,1,1.56,6.09,6.09,0,0,0,3.29,2,6.18,6.18,0,0,0,3.81-.37,5.8,5.8,0,0,0,1.56-1,5.65,5.65,0,0,0,1.16-1.34,6.19,6.19,0,0,0,1-3.1,6.27,6.27,0,0,0-3.36-5.8A14.46,14.46,0,0,0,188.84,407.72Z"/><path class="cls-7" d="M193.92,400.94a1.76,1.76,0,0,1,0-.22c0-.17,0-.39,0-.68,0-.62,0-1.51,0-2.67l.05.06-5.77-1.26.1-.05-1.52,3.23,0,.06h-.07a14.41,14.41,0,0,0-3.76.67l-.07,0,0-.05-2.54-2.52.16,0-5,3.17.06-.16,1.2,3.36,0,.08-.06.07a14.67,14.67,0,0,0-2.19,3.12l0,.08h-.1l-3.56,0,.15-.13c-.4,1.81-.84,3.76-1.28,5.76l-.09-.19,3.22,1.53.09.05v.1a14.56,14.56,0,0,0,.65,3.75l0,.1-.08.08-2.52,2.53,0-.22,3.16,5-.21-.07,3.36-1.2.1,0,.09.07a14.13,14.13,0,0,0,3.1,2.19h0c.05.07-.09-.16.1.16h0v3.56l-.14-.18,5.76,1.3-.2.1c.51-1.09,1-2.16,1.53-3.23l.05-.1h.11a14.24,14.24,0,0,0,3.74-.65l.1,0,.08.07,2.53,2.52-.22,0,5-3.15-.07.19-1.2-3.36,0-.1.07-.07a14.4,14.4,0,0,0,2.2-3.11l0-.08h3.66l-.14.11q.69-3,1.3-5.76l.08.16-3.22-1.54-.07,0v-.08a14.21,14.21,0,0,0-.64-3.76l0-.07.05-.06,2.53-2.52,0,.14-3.14-5,.1,0-3.37,1.17h0l0,0a15.94,15.94,0,0,0-2.29-1.77l-.62-.37-.2-.12.22.1.63.34a14.27,14.27,0,0,1,2.34,1.73h-.06l3.35-1.22.06,0,0,.06,3.18,5,0,.07-.06.07-2.51,2.53,0-.12a14.32,14.32,0,0,1,.67,3.83l-.07-.11,3.23,1.52.1.05,0,.1c-.4,1.83-.83,3.74-1.28,5.77l0,.12H200.1l.14-.08a14.66,14.66,0,0,1-2.24,3.18l0-.16c.39,1.1.8,2.22,1.2,3.36l.05.13-.12.07-5,3.16-.12.08-.1-.1-2.53-2.52.18,0a14.52,14.52,0,0,1-3.84.67l.15-.1-1.53,3.22-.06.13-.14,0-5.76-1.29-.14,0v-3.71h0c.19.32.05.09.1.16h0a14.84,14.84,0,0,1-3.18-2.24l.18,0L174,425.9l-.14.05-.07-.12-3.16-5-.08-.12.1-.1,2.52-2.53,0,.17a14.77,14.77,0,0,1-.67-3.84l.1.15L169.35,413l-.12-.06,0-.13,1.3-5.76,0-.13h3.69l-.14.08a14.61,14.61,0,0,1,2.25-3.17l0,.15-1.19-3.37,0-.11.1-.06,5-3.15.09-.05.07.07,2.53,2.53-.12,0a14.88,14.88,0,0,1,3.82-.66l-.09.07c.56-1.16,1.08-2.25,1.54-3.22l0-.07.07,0,5.75,1.32H194v.05c0,1.15,0,2,0,2.65,0,.29,0,.51,0,.68A2.17,2.17,0,0,1,193.92,400.94Z"/><path class="cls-15" d="M183,356.08a16.16,16.16,0,0,1,3.48,2.45l3.72-1.32,3.49,5.51-2.78,2.8a16.29,16.29,0,0,1,.73,4.19l3.56,1.7-1.43,6.37h-3.94a16.2,16.2,0,0,1-2.46,3.48l1.33,3.72-5.52,3.49-2.8-2.78a16.29,16.29,0,0,1-4.19.73L174.54,390l-6.37-1.43v-3.94a16,16,0,0,1-3.48-2.46L161,383.49l-3.5-5.52,2.79-2.8a16.29,16.29,0,0,1-.73-4.19L156,369.29l1.42-6.37h4a15.92,15.92,0,0,1,2.45-3.48l-1.32-3.72,5.51-3.5,2.8,2.79a15.87,15.87,0,0,1,4.19-.73l1.7-3.56,6.37,1.42v3.95Zm-5.62,7.5a7,7,0,1,0,5.3,8.37A7,7,0,0,0,177.42,363.58Z"/><g class="cls-5"><path class="cls-16" d="M183,356.08a16.16,16.16,0,0,1,3.48,2.45l3.72-1.32,3.49,5.51-2.78,2.8a16.29,16.29,0,0,1,.73,4.19l3.56,1.7-1.43,6.37h-3.94a16.2,16.2,0,0,1-2.46,3.48l1.33,3.72-5.52,3.49-2.8-2.78a16.29,16.29,0,0,1-4.19.73L174.54,390l-6.37-1.43v-3.94a16,16,0,0,1-3.48-2.46L161,383.49l-3.5-5.52,2.79-2.8a16.29,16.29,0,0,1-.73-4.19L156,369.29l1.42-6.37h4a15.92,15.92,0,0,1,2.45-3.48l-1.32-3.72,5.51-3.5,2.8,2.79a15.87,15.87,0,0,1,4.19-.73l1.7-3.56,6.37,1.42v3.95Zm-5.62,7.5a7,7,0,1,0,5.3,8.37A7,7,0,0,0,177.42,363.58Z"/></g><path class="cls-17" d="M160,393.61a9.34,9.34,0,0,1,2,1.43l2.17-.77,2,3.21-1.62,1.63a9.46,9.46,0,0,1,.43,2.44l2.07,1-.83,3.71H164a9.16,9.16,0,0,1-1.43,2l.78,2.16-3.22,2-1.62-1.63a9.2,9.2,0,0,1-2.45.43l-1,2.07-3.71-.83v-2.29a9.16,9.16,0,0,1-2-1.43l-2.17.77-2-3.21,1.62-1.63a9,9,0,0,1-.42-2.44l-2.08-1,.83-3.71h2.3a9.16,9.16,0,0,1,1.43-2L148,393.4l3.21-2,1.63,1.63a9.05,9.05,0,0,1,2.44-.43l1-2.07,3.71.83v2.29ZM156.73,398a4.08,4.08,0,1,0,3.08,4.87A4.08,4.08,0,0,0,156.73,398Z"/><g class="cls-18"><path class="cls-17" d="M160,393.61a9.34,9.34,0,0,1,2,1.43l2.17-.77,2,3.21-1.62,1.63a9.46,9.46,0,0,1,.43,2.44l2.07,1-.83,3.71H164a9.16,9.16,0,0,1-1.43,2l.78,2.16-3.22,2-1.62-1.63a9.2,9.2,0,0,1-2.45.43l-1,2.07-3.71-.83v-2.29a9.16,9.16,0,0,1-2-1.43l-2.17.77-2-3.21,1.62-1.63a9,9,0,0,1-.42-2.44l-2.08-1,.83-3.71h2.3a9.16,9.16,0,0,1,1.43-2L148,393.4l3.21-2,1.63,1.63a9.05,9.05,0,0,1,2.44-.43l1-2.07,3.71.83v2.29ZM156.73,398a4.08,4.08,0,1,0,3.08,4.87A4.08,4.08,0,0,0,156.73,398Z"/></g></g><g id="Character"><path class="cls-7" d="M380.85,356.81a9.76,9.76,0,0,0,7.07-9.74c-.13-2-.85-3.86-.77-5.82.13-3,2.15-5.61,3.67-8.25s2.53-6.12.76-8.59c-1.14-1.61-3.17-2.33-4.56-3.73s-2-3.27-2.74-5.06-1.67-3.64-3.35-4.6-4.25-.53-4.94,1.28"/><path class="cls-12" d="M362.69,307.48c3-1.9,3.72-6.31,2.09-9.46s-5.07-5.07-8.57-5.64A16.34,16.34,0,0,0,342.14,297c-1.93,2-3.5,4.59-6.12,5.5-2.3.81-4.85.08-7.27.39a11,11,0,0,0-7.69,5.55,23.65,23.65,0,0,0-2.73,9.34c-.35,3-.59,6.26-2.66,8.43s-5.2,2.57-7.71,4.08a10.57,10.57,0,0,0-3.13,14.42c1,1.44,2.42,2.77,2.53,4.52s-.93,3-1.41,4.56a7.12,7.12,0,0,0,6.09,8.84c2.09.12,4.31-.69,6.18.24s2.54,3.16,3.72,4.85a8.91,8.91,0,0,0,10.86,2.81c1.53-.75,3-2,4.68-1.88s3,1.57,4.7,1.89c2.19.42,4.26-1.19,5.56-3s2.21-3.94,3.87-5.42c2.18-1.94,5.24-2.42,8-3.37a22.54,22.54,0,0,0,12.73-31.58"/><path class="cls-19" d="M369.27,311.42a4.79,4.79,0,0,1,4.27,4.87h0L370.68,381c-.12,7.64-11.28,11.93-19.46,11.74h0c-8.26-.2-8.52-4.25-8.63-11.51-.17-12.14-.15-16.7-.16-16.63S332,362.8,329.87,349.18c-1.06-6.77-.7-17.87-.11-26.94.54-8.17,6-18.18,14.11-17.3Z"/><path class="cls-20" d="M342.43,364.56a34.68,34.68,0,0,0,18.25-4.82s-4.63,9.6-18.25,8.29Z"/><path class="cls-12" d="M360.33,307a13.23,13.23,0,0,1,10.79-2c3.63,1,6.64,4.32,6.77,8,.08,2.4-1,5,.1,7.13s3.52,2.9,5.3,4.4a8.11,8.11,0,0,1,1.88,9.82c-1.49,2.73-4.61,4.73-4.87,7.81-.25,2.9,2.19,5.35,2.79,8.2.65,3.14-1.09,6.39-3.58,8.48s-5.65,3.23-8.73,4.34c-2.4.87-5,1.75-7.47,1.18a7.65,7.65,0,0,1-5.6-6.38,10.41,10.41,0,0,1,2.83-8.22c1.75-1.93,4.2-3.57,4.62-6.11.66-4-4.06-7.21-3.77-11.21.15-2.06,1.61-3.77,2.82-5.47s2.27-3.83,1.52-5.76c-1-2.52-4.27-3.18-6.27-5a6.12,6.12,0,0,1-1.67-6.2,6.29,6.29,0,0,1,4.94-4.2"/><path class="cls-7" d="M361.79,303.92a9.31,9.31,0,0,1-11,9.2c-2.08-.38-4.36-1.43-6.16-.32s-2,4-3.65,5.47c-2.4,2.09-6.21.13-9.26,1-2.35.69-3.82,2.94-5.39,4.84s-3.9,3.69-6.26,3a27.63,27.63,0,0,1,.94-6.28,9.32,9.32,0,0,1,3.56-5.12,31.93,31.93,0,0,0,3-1.75c2-1.57,2.41-4.32,3.61-6.52a10.22,10.22,0,0,1,7.78-5.16c2.68-.27,5.44.53,8-.13,1.93-.48,3.62-1.74,5.57-2.11,3.81-.72,7.35,2,10.11,4.73"/><path class="cls-21" d="M386.66,336.47a2.81,2.81,0,0,0,.3-1.57,3.92,3.92,0,0,0-2.74-3.13,19.22,19.22,0,0,0-3-.81,8.71,8.71,0,0,1-3.39-1.4,4.74,4.74,0,0,1-1.76-3.64,36.46,36.46,0,0,1,.21-4.29,9.64,9.64,0,0,0-.11-2.09,4.62,4.62,0,0,0-.8-1.79,6.91,6.91,0,0,0-3.28-1.88,14.21,14.21,0,0,1-3.34-1.44,11.72,11.72,0,0,1-4.86-5.89,7,7,0,0,1-.35-1.19c-.06-.28-.08-.42-.06-.43s.18.57.59,1.55a12.09,12.09,0,0,0,2.49,3.7,12.23,12.23,0,0,0,5.68,3.25,7.21,7.21,0,0,1,3.52,2,4.92,4.92,0,0,1,.92,2,10.31,10.31,0,0,1,.12,2.22,39.21,39.21,0,0,0-.22,4.23,4.24,4.24,0,0,0,1.55,3.29,8.29,8.29,0,0,0,3.19,1.36,19.71,19.71,0,0,1,3,.89,4.7,4.7,0,0,1,2.11,1.58,3.62,3.62,0,0,1,.7,1.87,2.38,2.38,0,0,1-.25,1.23A.94.94,0,0,1,386.66,336.47Z"/><path class="cls-21" d="M306.47,345s-.08,0-.23-.1a1.56,1.56,0,0,1-.51-.52,2.73,2.73,0,0,1,.28-2.68,3.53,3.53,0,0,1,1.46-1.4,18.74,18.74,0,0,1,2.19-.92A6.83,6.83,0,0,0,312,338a4.89,4.89,0,0,0,1.3-2.58c.23-1,.3-2.14.49-3.3a7.19,7.19,0,0,1,1.35-3.44c1.58-2.09,4.18-3.2,6.12-5.15a9.56,9.56,0,0,0,2.13-3.61,25.16,25.16,0,0,0,1-4.36c.42-3,.85-6.34,2.86-9.08a6.6,6.6,0,0,1,4.11-2.65A14.17,14.17,0,0,1,336,304a17.18,17.18,0,0,0,4.43.26,5.76,5.76,0,0,0,3.62-1.87c1.86-2,2.92-4.7,5.21-6.08a8.7,8.7,0,0,1,6.88-1,7.57,7.57,0,0,1,4.52,3.52,8.54,8.54,0,0,1,1.18,4.2,7.45,7.45,0,0,1-.43,2.72,4.43,4.43,0,0,1-.41.88s.12-.31.31-.91a8,8,0,0,0,.33-2.68,8.42,8.42,0,0,0-1.23-4.06,7.3,7.3,0,0,0-4.37-3.31,8.36,8.36,0,0,0-6.55.95,9.77,9.77,0,0,0-2.63,2.72,31.26,31.26,0,0,1-2.46,3.33,6.89,6.89,0,0,1-1.74,1.37,6.6,6.6,0,0,1-2.17.67,17.9,17.9,0,0,1-4.56-.25,14,14,0,0,0-4.57-.12,6.12,6.12,0,0,0-3.79,2.46,12.63,12.63,0,0,0-1.95,4.27,42.3,42.3,0,0,0-.83,4.58,25.28,25.28,0,0,1-1,4.44,9.94,9.94,0,0,1-2.26,3.78c-2.05,2-4.62,3.12-6.12,5.09a6.89,6.89,0,0,0-1.3,3.23c-.19,1.14-.27,2.26-.52,3.32a5.17,5.17,0,0,1-1.44,2.74,7,7,0,0,1-2.41,1.33,19,19,0,0,0-2.18.87,3.43,3.43,0,0,0-1.4,1.28,2.69,2.69,0,0,0-.36,2.53A2,2,0,0,0,306.47,345Z"/><path class="cls-22" d="M273.05,438.7l24.16-2.21s14.86-39.15,33.18-48.64l11.87,20.73-25.41,47.73h-49.6Z"/><path class="cls-23" d="M273.05,438.7l24.16-2.21s14.86-39.15,33.18-48.64l11.87,20.73-25.41,47.73h-49.6Z"/><path class="cls-13" d="M282.6,449.76a18.56,18.56,0,0,1,2-3.92,18.34,18.34,0,0,1,2.49-3.64,38.08,38.08,0,0,1-4.52,7.56Z"/><path class="cls-13" d="M299.71,449.28a19.13,19.13,0,0,1-2.95-3.25,18.83,18.83,0,0,1-2.55-3.59,18.52,18.52,0,0,1,3,3.26A19,19,0,0,1,299.71,449.28Z"/><path class="cls-13" d="M302.68,440.3a19.39,19.39,0,0,1,0-6.33,19.39,19.39,0,0,1,0,6.33Z"/><path class="cls-13" d="M294.18,454.3a6.62,6.62,0,0,1-2.31-1.19c-1.2-.79-2.1-1.52-2-1.64a6.85,6.85,0,0,1,2.31,1.2C293.35,453.45,294.26,454.18,294.18,454.3Z"/><path class="cls-13" d="M308.05,418.32a21.42,21.42,0,0,1-1.67,4.36,20.22,20.22,0,0,1-2.15,4.15,41.65,41.65,0,0,1,3.82-8.51Z"/><path class="cls-13" d="M317.84,402.46c.08.11-.78.91-1.93,1.78a6.78,6.78,0,0,1-2.25,1.38c-.08-.12.78-.92,1.93-1.79A6.65,6.65,0,0,1,317.84,402.46Z"/><path class="cls-22" d="M354,453.22l12.46-50.31a17.1,17.1,0,0,1,19.64-12.73h0a17.13,17.13,0,0,1,13.88,19.47l-7.63,49.16a24.6,24.6,0,0,1-20.41,19.91l-9.9,1.54Z"/><path class="cls-7" d="M393.22,386.93a11.34,11.34,0,0,0-4.45-2.23,11.69,11.69,0,0,0-5.36,0,14.61,14.61,0,0,0-5.83,3c-3.65,3.06-5.63,7-7,9.83-.67,1.41-1.18,2.57-1.54,3.37a7.58,7.58,0,0,1-.61,1.23,7.11,7.11,0,0,1,.42-1.3c.31-.83.76-2,1.39-3.46a38.55,38.55,0,0,1,2.56-4.91,22.15,22.15,0,0,1,4.43-5.16,14.7,14.7,0,0,1,6.05-3.1,11.87,11.87,0,0,1,5.56.07,9.49,9.49,0,0,1,3.37,1.63,5.68,5.68,0,0,1,.76.69C393.15,386.82,393.23,386.92,393.22,386.93Z"/><path class="cls-7" d="M322.65,398.25a3.2,3.2,0,0,1-.35.47c-.28.33-.63.76-1.07,1.27-.92,1.11-2.23,2.74-3.73,4.83A51.56,51.56,0,0,0,309,422.87c-1.73,7.68-1.82,14.86-2.11,20-.13,2.58-.25,4.67-.36,6.11-.06.68-.11,1.23-.15,1.66a3.93,3.93,0,0,1-.08.58,2,2,0,0,1,0-.59c0-.43,0-1,.05-1.66,0-1.51.11-3.58.19-6.11.2-5.15.22-12.36,2-20.1a49.73,49.73,0,0,1,8.71-18.16c1.55-2.07,2.91-3.67,3.88-4.74.48-.54.88-.94,1.14-1.21A3.15,3.15,0,0,1,322.65,398.25Z"/><path class="cls-8" d="M402.47,398.14c-1.37-9-6.34-11.15-11.48-13.95-1.68-.92-9.79-3-16.22-4.57-.62-3.9-1.72-10.87-2-12.34-.34-2.07-32.76,3.1-33.17,3.88-.27.51-1,8.59-1.49,14l-7.76,2.72-10.13,12.88L315,408.21a40.16,40.16,0,0,0-6.53,14.38A78.21,78.21,0,0,0,307,440l-1.57,33,67.83,19.18,5.25-33.45L396,434.94C397.51,425.3,404.15,409.2,402.47,398.14Z"/><path class="cls-7" d="M344.58,386.17a10.21,10.21,0,0,1-.45-2.29c-.21-1.42-.47-3.39-.72-5.57-.12-1.08-.23-2.11-.34-3.08a25,25,0,0,1-.18-2.54,3,3,0,0,1,.49-1.69c.26-.34.48-.43.5-.41s-.15.18-.33.52a3.27,3.27,0,0,0-.29,1.58c0,.7.18,1.54.29,2.49s.24,2,.38,3.07c.25,2.18.45,4.16.57,5.59A10.18,10.18,0,0,1,344.58,386.17Z"/><path class="cls-7" d="M353.23,384.13a7.94,7.94,0,0,1-.72-2.1,33.14,33.14,0,0,1-1-10.62,8.05,8.05,0,0,1,.32-2.19c.16,0-.13,3.37.26,7.49S353.39,384.09,353.23,384.13Z"/><path class="cls-7" d="M369.33,381.79a34.73,34.73,0,0,0-.19-7.46,33.15,33.15,0,0,0-2.34-7.09,6.51,6.51,0,0,1,1.19,1.89,19,19,0,0,1,1.82,10.49A7.2,7.2,0,0,1,369.33,381.79Z"/><path class="cls-13" d="M323.27,411.21a18.66,18.66,0,0,1,2.65-4.21,18.35,18.35,0,0,1,3.3-3.72,101.6,101.6,0,0,1-6,7.93Z"/><path class="cls-13" d="M338.55,398.78a32,32,0,0,1-5-6.52,16.72,16.72,0,0,1,2.69,3.1A16.46,16.46,0,0,1,338.55,398.78Z"/><path class="cls-13" d="M354.51,391a28.69,28.69,0,0,1-3.19,3.23,28.38,28.38,0,0,1-3.31,3.1,15.21,15.21,0,0,1,2.95-3.47A15,15,0,0,1,354.51,391Z"/><path class="cls-13" d="M350,381.45a9.34,9.34,0,0,1-2.49-1.9,9.54,9.54,0,0,1-2.15-2.3,19.33,19.33,0,0,1,4.64,4.2Z"/><path class="cls-13" d="M364,374a23.68,23.68,0,0,1-6.84,1.47,11.68,11.68,0,0,1,3.36-1A12.27,12.27,0,0,1,364,374Z"/><path class="cls-13" d="M366.82,396.14a11.75,11.75,0,0,1-.44-3.49,12.14,12.14,0,0,1,.08-3.51,11.75,11.75,0,0,1,.44,3.49A12.14,12.14,0,0,1,366.82,396.14Z"/><path class="cls-13" d="M361.72,406.79a18.7,18.7,0,0,1-1.76-4,19.3,19.3,0,0,1-1.26-4.23,18.36,18.36,0,0,1,1.75,4.05A19.53,19.53,0,0,1,361.72,406.79Z"/><path class="cls-13" d="M347.86,414.3a20.74,20.74,0,0,1-1.92-4.23,20.32,20.32,0,0,1-1.44-4.43,21.67,21.67,0,0,1,1.92,4.24A21.21,21.21,0,0,1,347.86,414.3Z"/><path class="cls-13" d="M334.82,422.81a17.57,17.57,0,0,1-1.13-4.19,18.15,18.15,0,0,1-.61-4.3,18.64,18.64,0,0,1,1.12,4.2A18.45,18.45,0,0,1,334.82,422.81Z"/><path class="cls-13" d="M319.32,423.15a35.53,35.53,0,0,1-3.72-7.64,35.53,35.53,0,0,1,3.72,7.64Z"/><path class="cls-13" d="M319,433.08a21.3,21.3,0,0,1-4.06,2.3,20.85,20.85,0,0,1-4.3,1.83,21.3,21.3,0,0,1,4.06-2.3A21.53,21.53,0,0,1,319,433.08Z"/><path class="cls-13" d="M319.18,448.8a18,18,0,0,1-2-7.5,81.81,81.81,0,0,1,2,7.5Z"/><path class="cls-13" d="M316,459.85a18.08,18.08,0,0,1-3.26-2.64,16.46,16.46,0,0,1-2.91-3,18.08,18.08,0,0,1,3.26,2.64A16.46,16.46,0,0,1,316,459.85Z"/><path class="cls-13" d="M336.39,452.31c0,.15-2.26.81-4.94,2s-4.72,2.41-4.81,2.28a21.08,21.08,0,0,1,9.75-4.27Z"/><path class="cls-13" d="M330.42,446.84a13.71,13.71,0,0,1-1.47-3.43,14.19,14.19,0,0,1-1-3.59,12.93,12.93,0,0,1,1.47,3.42A13.17,13.17,0,0,1,330.42,446.84Z"/><path class="cls-13" d="M342.53,433.32a29.18,29.18,0,0,1-2.73,4.83,30.1,30.1,0,0,1-3.18,4.55,60,60,0,0,1,5.91-9.38Z"/><path class="cls-13" d="M355.54,434.61a30.81,30.81,0,0,1-5.76-9.61c.14-.06,1.3,2.16,2.89,4.8A55.45,55.45,0,0,1,355.54,434.61Z"/><path class="cls-13" d="M363.34,421.77a15.24,15.24,0,0,1-7.66.38,25.65,25.65,0,0,1,3.83-.22A25.06,25.06,0,0,1,363.34,421.77Z"/><path class="cls-13" d="M381.85,407.14a29.6,29.6,0,0,1-4.9,2.63,30.59,30.59,0,0,1-5.13,2.15,29.6,29.6,0,0,1,4.9-2.63A30.59,30.59,0,0,1,381.85,407.14Z"/><path class="cls-13" d="M383.08,397.84a38.07,38.07,0,0,1,4-8A19,19,0,0,1,385.3,394,19.74,19.74,0,0,1,383.08,397.84Z"/><path class="cls-13" d="M394.84,405.14a33.37,33.37,0,0,1-1.52-4.55A32.55,32.55,0,0,1,392,396a17,17,0,0,1,1.84,4.45A16.68,16.68,0,0,1,394.84,405.14Z"/><path class="cls-13" d="M396.68,414.82a15.28,15.28,0,0,1-4.38,1.6,15.47,15.47,0,0,1-4.62.71,33.85,33.85,0,0,1,4.49-1.21A34.7,34.7,0,0,1,396.68,414.82Z"/><path class="cls-13" d="M376.53,426.64c-.15,0,.28-2.46.4-5.49s-.08-5.49.07-5.51a22.44,22.44,0,0,1-.47,11Z"/><path class="cls-13" d="M372.51,438.8a16.57,16.57,0,0,1-3.66-3.57A17.08,17.08,0,0,1,366,431c.13-.08,1.45,1.77,3.25,3.92S372.62,438.7,372.51,438.8Z"/><path class="cls-13" d="M392.72,436.24a20.26,20.26,0,0,1-4.17,2,21.13,21.13,0,0,1-4.37,1.54,42.06,42.06,0,0,1,8.54-3.57Z"/><path class="cls-13" d="M385.48,459.14a59.43,59.43,0,0,1,.11-11,57.22,57.22,0,0,1-.11,11Z"/><path class="cls-13" d="M370,457.82a32,32,0,0,1,2.77-11.05c.14.05-.62,2.48-1.38,5.53S370.12,457.85,370,457.82Z"/><path class="cls-13" d="M370.68,463.83c0,.15-2.48.39-5.52.9s-5.48,1.07-5.52.92a29.38,29.38,0,0,1,11-1.82Z"/><path class="cls-13" d="M353.52,460a20.09,20.09,0,0,1,3-3.45,19.69,19.69,0,0,1,3.34-3.08,20.66,20.66,0,0,1-3,3.45A20.13,20.13,0,0,1,353.52,460Z"/><path class="cls-13" d="M342.41,470.79a33.76,33.76,0,0,1-1.35-3.91,35.37,35.37,0,0,1-1.4-3.9,16,16,0,0,1,2.75,7.81Z"/><path class="cls-13" d="M360.35,477a55.31,55.31,0,0,1-9.83-4.36,28.19,28.19,0,0,1,5,1.94A29.21,29.21,0,0,1,360.35,477Z"/><path class="cls-13" d="M329.08,475.16a27.48,27.48,0,0,1,2.37-7.15,13.48,13.48,0,0,1-.94,3.65A14.56,14.56,0,0,1,329.08,475.16Z"/><path class="cls-13" d="M349.68,478.65c0,.15-2.87-.31-6.41-.49s-6.41,0-6.42-.2a22.77,22.77,0,0,1,6.45-.32A22.49,22.49,0,0,1,349.68,478.65Z"/><path class="cls-7" d="M354,449.16s0-.14,0-.4a4,4,0,0,1,.16-1.13,2.54,2.54,0,0,1,1.09-1.49,3.49,3.49,0,0,1,2.44-.4l-.2.12c1.09-3.84,2.84-9.44,4.59-15.72,1.64-5.88,2.75-11.29,3.52-15.22.38-1.9.68-3.46.92-4.65a12.39,12.39,0,0,1,.39-1.69,10,10,0,0,1-.19,1.73c-.16,1.11-.42,2.71-.76,4.68a154.45,154.45,0,0,1-3.38,15.29c-1.75,6.29-3.56,11.87-4.76,15.68l-.05.15-.15,0a3.27,3.27,0,0,0-2.23.29,2.4,2.4,0,0,0-1.05,1.32C354,448.6,354,449.16,354,449.16Z"/><path class="cls-7" d="M376.38,463.07c-.08,0-.7-1.32-2-3.34a34.51,34.51,0,0,0-13.6-12.36c-2.13-1.07-3.54-1.56-3.51-1.65a4.88,4.88,0,0,1,1,.27A22.37,22.37,0,0,1,361,447a31.22,31.22,0,0,1,13.76,12.5,22.61,22.61,0,0,1,1.29,2.54A3.34,3.34,0,0,1,376.38,463.07Z"/><g class="cls-24"><path d="M357.86,445a34.87,34.87,0,0,1,10.55,1.91c3.59,1.34,6.91,3.92,8.23,7.52a2.45,2.45,0,0,1-.19,2.59,1.84,1.84,0,0,1-1.89.31,5.08,5.08,0,0,1-1.66-1.14c-2.2-2-4.49-3.84-6.76-5.8s-5.59-4-8.56-4.47"/></g><path class="cls-7" d="M350.66,438.61a4.55,4.55,0,0,1-1.05.6,17.48,17.48,0,0,1-3.07,1.16,20.57,20.57,0,0,1-20.14-5.23,18.31,18.31,0,0,1-2.12-2.51,4.74,4.74,0,0,1-.62-1c.08-.06,1,1.4,3,3.28A21.21,21.21,0,0,0,346.44,440C349.1,439.35,350.61,438.51,350.66,438.61Z"/><g class="cls-24"><path d="M324.2,432.37c1.69,3.66,3.66,7.35,6.86,9.8a11,11,0,0,0,6.31,2.65c3.34.06,6.21-2.22,8.75-4.38-8.25,1.29-17.55-2.45-21.92-8.07"/></g><path class="cls-7" d="M361.17,383.37c-.15,0,0-3.44-.37-7.63s-1.23-7.52-1.08-7.56a8.05,8.05,0,0,1,.69,2.15,36.74,36.74,0,0,1,.9,5.36,37.46,37.46,0,0,1,.14,5.44A8.3,8.3,0,0,1,361.17,383.37Z"/><path class="cls-11" d="M242.56,517.19s-10.87,2.35-20.58.89c-9.09-1.36-29.46,0-29.45,12,0,13.37,27.17,10.07,37.76,8s21.15-4,21.15-4Z"/><path class="cls-7" d="M218.16,534.32a23.14,23.14,0,0,1-1.31-4.65,22.9,22.9,0,0,1-.8-4.77,23.14,23.14,0,0,1,1.31,4.65A22.8,22.8,0,0,1,218.16,534.32Z"/><path class="cls-7" d="M221.87,534.5a45.17,45.17,0,0,1-1.32-9.62,44.94,44.94,0,0,1,1.32,9.62Z"/><path class="cls-7" d="M225.45,533.1a35,35,0,0,1-1-8.4,35,35,0,0,1,1,8.4Z"/><path class="cls-7" d="M231.07,531.7a9.89,9.89,0,0,1-1.4-3.58,9.7,9.7,0,0,1-.39-3.83,30.5,30.5,0,0,1,.9,3.7A26.53,26.53,0,0,1,231.07,531.7Z"/><path class="cls-7" d="M232.28,526.81a4.51,4.51,0,0,1,1.42-.1,12.2,12.2,0,0,1,3.81.75,4.51,4.51,0,0,1,1.18.63,1.79,1.79,0,0,1,.73,1.33,2,2,0,0,1-2.46,1.79,5.08,5.08,0,0,1-2.83-2,8.62,8.62,0,0,1-1.61-3.35,8.51,8.51,0,0,1,1.2-6.92,1.35,1.35,0,0,1,.8-.49,1.13,1.13,0,0,1,.91.29,2.44,2.44,0,0,1,.68,1.45,7.35,7.35,0,0,1-.14,2.72,7.55,7.55,0,0,1-1.84,3.43,5.36,5.36,0,0,1-.79.71,1.12,1.12,0,0,1-.32.19s.38-.34,1-1a7.93,7.93,0,0,0,1.63-3.38,7.06,7.06,0,0,0,.07-2.57,2.06,2.06,0,0,0-.55-1.18.7.7,0,0,0-1,.18,8.47,8.47,0,0,0,.45,9.63,4.61,4.61,0,0,0,2.52,1.86,1.56,1.56,0,0,0,1.94-1.3,1.36,1.36,0,0,0-.56-1,3.91,3.91,0,0,0-1.05-.6,12.9,12.9,0,0,0-3.69-.88C232.78,526.83,232.28,526.85,232.28,526.81Z"/><path class="cls-7" d="M250.37,532.26a1.09,1.09,0,0,1-.28.09l-.81.2-3.15.72c-2.74.6-6.72,1.45-11.66,2.4s-10.84,2-17.46,2.93a46.84,46.84,0,0,1-10.49.53,22.57,22.57,0,0,1-5.49-1.06,14.75,14.75,0,0,1-2.64-1.17,8.34,8.34,0,0,1-2.32-1.86l0,0a5.54,5.54,0,0,1-.94-1.13,7,7,0,0,1-.55-5.85,9.36,9.36,0,0,1,3.48-4.56,17.72,17.72,0,0,1,5-2.45c.87-.25,1.71-.55,2.57-.74s1.71-.4,2.56-.52c6.81-1.08,13-.53,18.16-.53,2.58.05,4.91,0,6.95-.14a48.26,48.26,0,0,0,5.2-.66l1.88-.4,1.35-.38.83-.23a1.09,1.09,0,0,1,.29-.06,1.3,1.3,0,0,1-.27.11l-.82.28-1.34.43-1.88.45a46.05,46.05,0,0,1-5.22.75c-2.05.15-4.39.25-7,.22-5.16,0-11.35-.46-18.07.63-.84.12-1.67.35-2.52.52s-1.67.49-2.53.74A17.44,17.44,0,0,0,198.4,524a8.89,8.89,0,0,0-3.29,4.3,6.55,6.55,0,0,0,.5,5.42,4.75,4.75,0,0,0,.85,1l0,0,0,0a7.88,7.88,0,0,0,2.15,1.71,14.05,14.05,0,0,0,2.54,1.13,22.37,22.37,0,0,0,5.37,1,47.37,47.37,0,0,0,10.39-.49c6.6-.87,12.51-1.92,17.45-2.82s8.93-1.7,11.69-2.24l3.17-.62.82-.15A.92.92,0,0,1,250.37,532.26Z"/><path class="cls-7" d="M210.63,538.7a17.81,17.81,0,0,1-.27-2.78c-.12-1.71-.32-4.08-.67-6.67s-.78-4.93-1.11-6.62a16.67,16.67,0,0,1-.47-2.75,13,13,0,0,1,.83,2.67,60.79,60.79,0,0,1,1.27,6.63,62.39,62.39,0,0,1,.52,6.72A13.61,13.61,0,0,1,210.63,538.7Z"/><polygon class="cls-25" points="239.21 517.77 246.1 535.02 251.44 534.03 241.21 517.19 239.21 517.77"/><path class="cls-12" d="M329,470.48c-1.11.37-72.28-19.57-101.06-27.66a27.35,27.35,0,0,0-22.26,3.36l-.35.23a27.32,27.32,0,0,0-11.77,29.15h0a27.36,27.36,0,0,0,12.34,17.12c19,11.62,59.15,36.09,60.38,35.61,1.61-.62,51.77-1.92,51.77-1.92L257.67,483l28.71,18.56,42.59-31Z"/><path class="cls-19" d="M269.55,448.83,284.68,441l14.84,9.3,55.54,1.82,8,27-80.4-18.64s-14.63,1.29-15.73-2S269.55,448.83,269.55,448.83Z"/><path class="cls-7" d="M315.06,492.16l-7.48,24.56.93,7.49h0a38.43,38.43,0,0,0,50.68,3.41h0a37.65,37.65,0,0,0,14.72-30l-.11-25.66Z"/><path class="cls-21" d="M270.52,492.32c-.08.12-8.76-6.21-19.38-14.13S232,463.75,232.06,463.64s8.76,6.21,19.39,14.13S270.61,492.21,270.52,492.32Z"/><path class="cls-20" d="M283.66,445.9a59.9,59.9,0,0,1-7.4,2.65,62,62,0,0,1-7.56,2.15,57.31,57.31,0,0,1,7.4-2.65A61.41,61.41,0,0,1,283.66,445.9Z"/><path class="cls-20" d="M284.79,450.51a14.68,14.68,0,0,1-2.58.49c-1.59.26-3.78.65-6.18,1.2s-4.54,1.16-6.09,1.62a16.27,16.27,0,0,1-2.53.69,11.35,11.35,0,0,1,2.41-1,53.86,53.86,0,0,1,6.09-1.78,55.46,55.46,0,0,1,6.25-1.06A11.68,11.68,0,0,1,284.79,450.51Z"/><path class="cls-20" d="M283.52,454.74a70.52,70.52,0,0,1-8.33,1.92,70.83,70.83,0,0,1-8.44,1.41,70.41,70.41,0,0,1,8.34-1.92A70.51,70.51,0,0,1,283.52,454.74Z"/><path class="cls-21" d="M263.89,412.55l14,45.92a1.34,1.34,0,0,0,1.17.94l38,2.85a1.32,1.32,0,0,1,1.23,1.33V466a1.32,1.32,0,0,1-1.35,1.33l-104-2a1.33,1.33,0,0,1-1.22-.86l-18.28-47.9a1.33,1.33,0,0,1,1.18-1.8l67.91-3.18A1.32,1.32,0,0,1,263.89,412.55Z"/><path class="cls-1" d="M234.6,432.33a3.3,3.3,0,0,0-2.06,2.34,3.16,3.16,0,0,0,1.35,2.86,3.42,3.42,0,0,0,3.8.14,3.17,3.17,0,0,0,1-3.84c-.46-1.26-2.78-2.15-4.12-1.5"/><path class="cls-12" d="M251.44,534l-11-18.08,80.8-63.33a32.46,32.46,0,0,1,17.65-7.23h0a32.47,32.47,0,0,1,35.3,35l-1.29,15.45-53.64,17.23Z"/><path class="cls-21" d="M355.06,491.11s-.06.07-.21.2l-.66.54-2.57,2-1.87,1.48c-.68.54-1.49,1-2.32,1.63l-2.68,1.84c-.48.32-1,.67-1.47,1l-1.61,1c-2.19,1.31-4.56,2.81-7.25,4.17-1.33.7-2.69,1.46-4.13,2.17l-4.46,2.11a218.41,218.41,0,0,1-20.43,8.14c-14.76,5.09-28.4,8.75-38.17,11.71-2.45.72-4.66,1.39-6.6,2s-3.6,1.11-5,1.57l-3.12,1-.82.25a1.43,1.43,0,0,1-.29.07l.27-.12.8-.3,3.1-1.11c1.34-.49,3-1,4.93-1.66s4.13-1.34,6.58-2.08c9.75-3.06,23.38-6.78,38.11-11.85,7.38-2.51,14.25-5.31,20.4-8.08l4.46-2.09c1.44-.7,2.8-1.45,4.13-2.14,2.69-1.34,5.06-2.82,7.26-4.1l1.61-.95c.51-.32,1-.66,1.48-1l2.7-1.8c.83-.57,1.64-1.06,2.33-1.59l1.89-1.44,2.63-2,.7-.5A.83.83,0,0,1,355.06,491.11Z"/><path class="cls-21" d="M357,499.56a3.15,3.15,0,0,1-.81.43c-.54.24-1.33.57-2.32.93a57.26,57.26,0,0,1-7.92,2.29,58.34,58.34,0,0,1-8.17,1.17c-1.05.07-1.91.1-2.5.1a3.54,3.54,0,0,1-.92-.05,31.27,31.27,0,0,1,3.39-.42c2.08-.23,5-.63,8.09-1.3s5.91-1.49,7.91-2.14A32.59,32.59,0,0,1,357,499.56Z"/><path class="cls-21" d="M318,455.66c.09.12-17.2,13.7-38.62,30.35s-38.86,30-38.94,29.94,17.2-13.7,38.62-30.35S317.94,455.55,318,455.66Z"/><path class="cls-11" d="M313.35,522.86c-3.87-2.06-8.22-.84-11.93.41-2.47.83-5,2.15-7.54,1.44-1.82-.51-3.16-2-4.55-3.26A28.54,28.54,0,0,0,268.45,514a8.53,8.53,0,0,0-5.74,2.59c-3.81,4.13-.94,9.49,2.47,13a37.57,37.57,0,0,0,22.71,11c7.09.74,16.84-.24,24-3.32,4.43-1.9,6.7-7.13,4.38-11.35A7.29,7.29,0,0,0,313.35,522.86Z"/><g class="cls-18"><path d="M313.35,526.16c-3.88-2.06-8.23-.84-11.94.41-2.47.83-5,2.15-7.54,1.44-1.81-.51-3.16-2-4.55-3.26a28.54,28.54,0,0,0-20.88-7.48,8.53,8.53,0,0,0-5.74,2.59,6.75,6.75,0,0,0-1.6,2.89,15.09,15.09,0,0,0,4.07,6.77,37.57,37.57,0,0,0,22.71,11c7.09.74,16.84-.24,24-3.32a8.77,8.77,0,0,0,5.11-6.09,7.4,7.4,0,0,0-3.67-4.91Z"/></g><path class="cls-7" d="M317,531.07a6.6,6.6,0,0,0-.95-2.3,7.56,7.56,0,0,0-2.07-2,8.36,8.36,0,0,0-3.57-1.36c-2.87-.34-6.21.87-9.91,1.87-1.83.49-3.83,1.23-6,1a7.86,7.86,0,0,1-3.1-1.07,19.07,19.07,0,0,1-2.66-2,27.79,27.79,0,0,0-10.6-6.3,27.11,27.11,0,0,0-5.27-1.22,16.48,16.48,0,0,0-4.7,0,10.16,10.16,0,0,0-3.62,1.26,9.29,9.29,0,0,0-2.23,1.89,24.13,24.13,0,0,0-1.43,2.06,8.18,8.18,0,0,1,1.28-2.19,9,9,0,0,1,2.22-2,10.49,10.49,0,0,1,3.72-1.39,16.77,16.77,0,0,1,4.81,0,27.87,27.87,0,0,1,5.37,1.19,31.08,31.08,0,0,1,5.56,2.46,22.77,22.77,0,0,1,2.71,1.76c.87.68,1.68,1.42,2.52,2.14a18.88,18.88,0,0,0,2.58,2,7.67,7.67,0,0,0,2.9,1c2,.27,4-.43,5.83-.91,3.69-1,7.08-2.17,10.09-1.78a8.33,8.33,0,0,1,5.76,3.65,5.41,5.41,0,0,1,.72,1.75A2.71,2.71,0,0,1,317,531.07Z"/><path class="cls-11" d="M317,531.07a6.6,6.6,0,0,0-.95-2.3,7.56,7.56,0,0,0-2.07-2,8.36,8.36,0,0,0-3.57-1.36c-2.87-.34-6.21.87-9.91,1.87-1.83.49-3.83,1.23-6,1a7.86,7.86,0,0,1-3.1-1.07,19.07,19.07,0,0,1-2.66-2,27.79,27.79,0,0,0-10.6-6.3,27.11,27.11,0,0,0-5.27-1.22,16.48,16.48,0,0,0-4.7,0,10.16,10.16,0,0,0-3.62,1.26,9.29,9.29,0,0,0-2.23,1.89,24.13,24.13,0,0,0-1.43,2.06,8.18,8.18,0,0,1,1.28-2.19,9,9,0,0,1,2.22-2,10.49,10.49,0,0,1,3.72-1.39,16.77,16.77,0,0,1,4.81,0,27.87,27.87,0,0,1,5.37,1.19,31.08,31.08,0,0,1,5.56,2.46,22.77,22.77,0,0,1,2.71,1.76c.87.68,1.68,1.42,2.52,2.14a18.88,18.88,0,0,0,2.58,2,7.67,7.67,0,0,0,2.9,1c2,.27,4-.43,5.83-.91,3.69-1,7.08-2.17,10.09-1.78a8.33,8.33,0,0,1,5.76,3.65,5.41,5.41,0,0,1,.72,1.75A2.71,2.71,0,0,1,317,531.07Z"/><path class="cls-7" d="M269,530.13a9.75,9.75,0,0,1,2-1.37,52.33,52.33,0,0,1,5.13-2.74,56.72,56.72,0,0,1,5.39-2.21,9.88,9.88,0,0,1,2.32-.65,12.54,12.54,0,0,1-2.19,1c-1.37.57-3.25,1.38-5.3,2.34s-3.86,1.9-5.17,2.59A12.08,12.08,0,0,1,269,530.13Z"/><path class="cls-7" d="M270.28,534a70.32,70.32,0,0,1,7.57-4,71.11,71.11,0,0,1,7.8-3.48,70.32,70.32,0,0,1-7.57,3.95A70.16,70.16,0,0,1,270.28,534Z"/><path class="cls-7" d="M286.34,535.69c-.08.12-4.21-2.34-9.22-5.5s-9-5.83-8.95-6,4.2,2.34,9.22,5.51S286.42,535.57,286.34,535.69Z"/><path class="cls-7" d="M288.66,531.67a13.19,13.19,0,0,1-2-1.35c-1.21-.88-2.89-2.09-4.77-3.39s-3.59-2.45-4.84-3.28a12.24,12.24,0,0,1-2-1.42,10.66,10.66,0,0,1,2.17,1.11c1.3.75,3.07,1.85,4.95,3.16s3.53,2.57,4.7,3.52A9.86,9.86,0,0,1,288.66,531.67Z"/><path class="cls-6" d="M733.74,315.09a28.4,28.4,0,0,1-7.53.19l-3.89,5.8-10.77-4.16,1-6.91a28.16,28.16,0,0,1-5.45-5.19l-6.85,1.35-4.69-10.56,5.6-4.17a28.4,28.4,0,0,1-.18-7.53l-5.8-3.89,4.15-10.77,6.91,1a28.45,28.45,0,0,1,5.19-5.45L710.08,258l10.56-4.69,4.17,5.6a28.4,28.4,0,0,1,7.53-.18l3.89-5.8L747,257l-1,6.91a28.21,28.21,0,0,1,5.46,5.19l6.84-1.35L763,278.34l-5.6,4.17a28.4,28.4,0,0,1,.19,7.53l5.8,3.89-4.16,10.78-6.91-1a28.21,28.21,0,0,1-5.19,5.46l1.35,6.84-10.56,4.69-4.17-5.6Zm.08-16.57a12.39,12.39,0,1,0-16.35-6.31A12.39,12.39,0,0,0,733.82,298.52Z"/><path class="cls-6" d="M891.12,303.43a39.78,39.78,0,0,1-10.5.26l-5.42,8.08-15-5.79,1.41-9.63a39.54,39.54,0,0,1-7.62-7.24L844.42,291l-6.53-14.72,7.8-5.82a39.36,39.36,0,0,1-.26-10.5l-8.08-5.42,5.79-15,9.63,1.41A39.48,39.48,0,0,1,860,233.3l-1.89-9.55,14.73-6.53,5.82,7.8a39.29,39.29,0,0,1,10.49-.25l5.43-8.09,15,5.79-1.41,9.64a39.72,39.72,0,0,1,7.61,7.23l9.55-1.88,6.53,14.72L924.09,258a39,39,0,0,1,.26,10.5l8.09,5.42-5.79,15L917,287.54a39.18,39.18,0,0,1-7.24,7.61l1.89,9.55-14.73,6.53-5.81-7.8Zm.11-23.11a17.28,17.28,0,1,0-22.8-8.79A17.29,17.29,0,0,0,891.23,280.32Z"/><path class="cls-26" d="M842.48,455.72a16.61,16.61,0,0,0-9.46,9,29.3,29.3,0,0,0-2.3,13.11c.22,8.65,4.33,17.73,9,25,7.77-5.67,10.39-16.51,11.38-22.09,1.55-8.83-1-25.72-8.59-25"/><path class="cls-26" d="M830.06,516.26a14.22,14.22,0,0,0-3.4-13.87,18.88,18.88,0,0,0-13.49-5.55c-2.31,0-4.85.43-6.33,2.2a6.07,6.07,0,0,0-.64,6.13,12.25,12.25,0,0,0,4.16,4.88c5.9,4.47,12.44,7.71,19.7,6.21"/><path class="cls-1" d="M836.86,536.83a28.19,28.19,0,0,0-.48-5.7,26.78,26.78,0,0,0-1.66-6,59.07,59.07,0,0,0-3.14-7,28.45,28.45,0,0,0-9.3-10.24A20.94,20.94,0,0,0,818.5,506a4.52,4.52,0,0,0-1.5-.37c-.06.16,2,.83,4.9,2.82a30.42,30.42,0,0,1,8.83,10.14,68.89,68.89,0,0,1,3.16,6.82,29.25,29.25,0,0,1,1.81,5.82C836.36,534.69,836.71,536.86,836.86,536.83Z"/><path class="cls-1" d="M843.28,468.75a15.94,15.94,0,0,0-.54,2.85c-.28,1.84-.66,4.51-1.09,7.81-.87,6.6-2,15.73-2.94,25.84s-1.57,19.3-1.88,26c-.15,3.32-.24,6-.27,7.88a15.47,15.47,0,0,0,.06,2.89,18.31,18.31,0,0,0,.32-2.87c.15-2,.34-4.68.58-7.86.48-6.63,1.2-15.79,2.16-25.9s2-19.07,2.65-25.85c.32-3.18.58-5.82.78-7.84A17.87,17.87,0,0,0,843.28,468.75Z"/><path class="cls-26" d="M840.66,520.51a33.26,33.26,0,0,1,23.15-19.69c2.62-.59,5.87-.62,7.41,1.58s.38,5.25-1.13,7.48a28.42,28.42,0,0,1-29.42,11.36"/><path class="cls-1" d="M860.43,507.91a5,5,0,0,0-1.48.38c-.93.29-2.25.8-3.86,1.47a37.4,37.4,0,0,0-11.51,7.41,23.75,23.75,0,0,0-4.46,6.16,22.83,22.83,0,0,0-1.91,5.9,22.35,22.35,0,0,0-.36,4.14,5,5,0,0,0,.11,1.52c.2,0,.19-2.16.92-5.52a25,25,0,0,1,2-5.64,24.67,24.67,0,0,1,4.34-5.88,42.08,42.08,0,0,1,11.11-7.46C858.49,508.88,860.49,508.06,860.43,507.91Z"/><path class="cls-17" d="M728,431.57a45.31,45.31,0,0,1-9.7-6.83l-10.36,3.68-9.74-15.37,7.76-7.79a44.42,44.42,0,0,1-2-11.69L694,388.85l4-17.75,11,0a44.69,44.69,0,0,1,6.84-9.69L712.09,351l15.37-9.74,7.79,7.76a44.84,44.84,0,0,1,11.69-2l4.72-9.93,17.76,4,0,11a44.61,44.61,0,0,1,9.7,6.83l10.36-3.69,9.74,15.37-7.76,7.8a44.76,44.76,0,0,1,2,11.68l9.93,4.72-4,17.76-11,0a44.76,44.76,0,0,1-6.84,9.7l3.69,10.36L770,442.34l-7.79-7.76a44.42,44.42,0,0,1-11.69,2l-4.72,9.93-17.75-4,0-11Zm15.66-20.9a19.52,19.52,0,1,0-14.78-23.32A19.52,19.52,0,0,0,743.63,410.67Z"/><path class="cls-14" d="M853.56,379.64a8.52,8.52,0,0,1-2.68-.84,11.3,11.3,0,0,1-5.34-5.4,11.45,11.45,0,0,1-1.08-5.22,11.59,11.59,0,0,1,1.79-5.85,10.65,10.65,0,0,1,2.18-2.53,10.9,10.9,0,0,1,2.94-1.87,11.57,11.57,0,0,1,13.43,3,11.61,11.61,0,0,1,2.76,6.17,11.51,11.51,0,0,1-4.09,10.31,11.32,11.32,0,0,1-7.13,2.6,8.51,8.51,0,0,1-2.78-.38c0-.08,1,.19,2.77.13a11.33,11.33,0,0,0,6.84-2.7,11,11,0,0,0,3.79-9.88,10.25,10.25,0,0,0-.86-3.05,10.43,10.43,0,0,0-1.78-2.78,11,11,0,0,0-12.69-2.85,10.36,10.36,0,0,0-2.8,1.76,10.62,10.62,0,0,0-2.08,2.38A11.18,11.18,0,0,0,851,378.57C852.58,379.39,853.58,379.56,853.56,379.64Z"/><path class="cls-14" d="M844.48,391.76s0,.13,0,.4,0,.69,0,1.2c0,1.11,0,2.71.06,4.78l-.08-.1,10.32,2.25-.19.09c.82-1.75,1.74-3.7,2.71-5.78l0-.1h.12a25.87,25.87,0,0,0,6.72-1.19l.13,0,.09.09,4.53,4.49-.28,0,8.9-5.67-.1.3c-.67-1.86-1.4-3.9-2.16-6l-.05-.16.11-.12a25.24,25.24,0,0,0,3.91-5.57l.08-.15h.17l6.38,0-.28.22c.72-3.23,1.5-6.72,2.29-10.3l.17.34L882.37,368l-.17-.08v-.19A25.8,25.8,0,0,0,881,361l-.06-.18.14-.13c1.41-1.42,2.94-3,4.5-4.53l-.05.4-5.65-8.92.38.13-6,2.14-.19.07-.14-.13a25.32,25.32,0,0,0-5.55-3.91h0c-.07-.13.18.29-.17-.29h0v-6.36l.25.31-10.3-2.31.36-.18-2.74,5.76-.08.18h-.2a25,25,0,0,0-6.69,1.16l-.19.05-.13-.13L844,339.59l.38.05-8.92,5.64.12-.36q1.1,3.06,2.14,6l.06.17-.12.12a25.55,25.55,0,0,0-3.93,5.56l-.08.15h-6.55l.26-.21c-.82,3.62-1.59,7-2.33,10.29l-.14-.28,5.76,2.75.13.06v.15a26.07,26.07,0,0,0,1.15,6.72l0,.12-.09.1-4.52,4.5,0-.24,5.61,8.95-.17-.06,6-2.1.07,0,0,0a27.24,27.24,0,0,0,4.1,3.15l1.09.66a2.56,2.56,0,0,1,.37.23l-.39-.18c-.25-.13-.63-.32-1.13-.61a25.81,25.81,0,0,1-4.18-3.1l.1,0-6,2.18-.11,0-.06-.1L827,381.12l-.09-.13.11-.11,4.49-4.54,0,.22a25.58,25.58,0,0,1-1.21-6.84l.13.2-5.77-2.72-.18-.08,0-.2q1.1-4.87,2.3-10.3l0-.21h.22l6.38,0-.25.15a25.72,25.72,0,0,1,4-5.69l-.06.29c-.71-2-1.42-4-2.15-6l-.08-.22.2-.13,8.91-5.66.21-.13.18.18,4.52,4.49-.31-.07a25.77,25.77,0,0,1,6.86-1.2l-.28.18q1.37-2.85,2.74-5.76l.11-.24.25.06,10.3,2.31.25.06v.25c0,1.06,0,2.12,0,3.18v3.2h0c-.35-.57-.1-.16-.18-.28h0a26,26,0,0,1,5.69,4l-.33-.07,6-2.14.25-.08.13.21c1.95,3.07,3.86,6.1,5.65,8.93l.14.21-.18.18-4.51,4.52.08-.32a26.24,26.24,0,0,1,1.19,6.87l-.18-.27,5.76,2.74.22.1-.05.24c-.81,3.58-1.6,7.06-2.33,10.3l-.05.23h-6.61l.25-.15a26.1,26.1,0,0,1-4,5.68l.06-.27c.74,2.1,1.47,4.15,2.13,6l.07.2-.18.1L869,398.2l-.15.1-.13-.13-4.51-4.51.21,0a26.25,26.25,0,0,1-6.84,1.17l.17-.11-2.76,5.75-.06.12-.12,0-10.29-2.37-.08,0v-.08c0-2.06,0-3.64,0-4.73,0-.53,0-.93,0-1.23A2.37,2.37,0,0,1,844.48,391.76Z"/><path class="cls-16" d="M793.38,331a21.84,21.84,0,0,1-4.81-3.39l-5.14,1.83-4.83-7.62,3.85-3.87a21.64,21.64,0,0,1-1-5.8l-4.93-2.34,2-8.81h5.45a22.17,22.17,0,0,1,3.39-4.81L785.5,291l7.62-4.83L797,290a22.12,22.12,0,0,1,5.8-1l2.34-4.93,8.81,2v5.45a22.17,22.17,0,0,1,4.81,3.39l5.14-1.83,4.83,7.63-3.85,3.87a22,22,0,0,1,1,5.79l4.93,2.34-2,8.81h-5.45a22.24,22.24,0,0,1-3.39,4.82l1.83,5.14-7.63,4.83-3.86-3.85a22.53,22.53,0,0,1-5.8,1l-2.34,4.92-8.81-2V331Zm7.76-10.36a9.68,9.68,0,1,0-7.33-11.57A9.68,9.68,0,0,0,801.14,320.62Z"/><g class="cls-18"><path class="cls-16" d="M793.38,331a21.84,21.84,0,0,1-4.81-3.39l-5.14,1.83-4.83-7.62,3.85-3.87a21.64,21.64,0,0,1-1-5.8l-4.93-2.34,2-8.81h5.45a22.17,22.17,0,0,1,3.39-4.81L785.5,291l7.62-4.83L797,290a22.12,22.12,0,0,1,5.8-1l2.34-4.93,8.81,2v5.45a22.17,22.17,0,0,1,4.81,3.39l5.14-1.83,4.83,7.63-3.85,3.87a22,22,0,0,1,1,5.79l4.93,2.34-2,8.81h-5.45a22.24,22.24,0,0,1-3.39,4.82l1.83,5.14-7.63,4.83-3.86-3.85a22.53,22.53,0,0,1-5.8,1l-2.34,4.92-8.81-2V331Zm7.76-10.36a9.68,9.68,0,1,0-7.33-11.57A9.68,9.68,0,0,0,801.14,320.62Z"/></g><path class="cls-12" d="M686.58,542.28l-164.14-.09a35.75,35.75,0,0,1-35.73-35.76l.08-411.51a35.75,35.75,0,0,1,35.77-35.75l164.15.1A35.75,35.75,0,0,1,722.44,95l-.08,411.51A35.74,35.74,0,0,1,686.58,542.28Z"/><path class="cls-4" d="M686.53,73.82l-31.82,0A7.91,7.91,0,0,0,647,81.88v5.77a7.9,7.9,0,0,1-7.73,8.07l-62,0a7.91,7.91,0,0,1-7.73-8.09V81.83a7.91,7.91,0,0,0-7.73-8.08h-39a25,25,0,0,0-25.06,25l-.08,401.66a25,25,0,0,0,25,25.05l163.81.09a25,25,0,0,0,25.06-25l.08-401.66A25,25,0,0,0,686.53,73.82Z"/><path class="cls-7" d="M691.37,114.38c0,.11-4.13.23-9.24.27s-9.24,0-9.25-.12,4.14-.23,9.25-.27S691.37,114.27,691.37,114.38Z"/><path class="cls-7" d="M691.41,119.11c0,.11-4.14.23-9.24.27s-9.25,0-9.25-.12,4.14-.23,9.25-.27S691.41,119,691.41,119.11Z"/><path class="cls-7" d="M691.45,123.84c0,.11-4.14.23-9.24.27s-9.25,0-9.25-.12,4.14-.23,9.25-.27S691.45,123.73,691.45,123.84Z"/><path class="cls-7" d="M523.21,129.24l.39,0,1.07,0,4-.09-.11.11c0-.88,0-1.83,0-2.87,0-.53,0-1,0-1.64a1.5,1.5,0,0,1,1.32-1.22c.64,0,1.2,0,1.89,0A1.53,1.53,0,0,1,533,125c0,1.34,0,2.73,0,4.18l-.18-.18,5,0-.19.19c0-2,0-4.08-.06-6.2,0-.53,0-1.06,0-1.58a1.6,1.6,0,0,0-.7-1.18L534.68,118l-2.1-2.07-1-1c-.35-.34-.62-.69-1-.77a1.32,1.32,0,0,0-1.14.21c-.3.26-.62.62-.93.92l-1.78,1.8c-1.13,1.17-2.3,2.23-3.15,3.24a3.57,3.57,0,0,0-.25,1.86V124c0,1.08,0,2,0,2.83s0,1.32,0,1.81a5.81,5.81,0,0,1,0,.65s0-.2,0-.6,0-1.07,0-1.78,0-1.76-.06-2.85c0-.56,0-1.16,0-1.79,0-.32,0-.64,0-1a2.18,2.18,0,0,1,.27-1c.92-1.13,2-2.13,3.16-3.33l1.77-1.81c.32-.32.58-.63,1-1a1.72,1.72,0,0,1,1.44-.28,2.73,2.73,0,0,1,1.2.85l1,1,2.11,2.06,2.18,2.14a4.08,4.08,0,0,1,.56.6,1.69,1.69,0,0,1,.26.84c0,.53,0,1.06,0,1.59,0,2.13,0,4.2,0,6.21v.19h-.19l-5,0h-.18v-.18c0-1.44,0-2.84,0-4.17a1.18,1.18,0,0,0-1-1.21c-.57,0-1.25,0-1.81,0a1.23,1.23,0,0,0-1.07,1c0,.5,0,1.08,0,1.59v3h-.11l-4,0-1,0Z"/><rect class="cls-2" x="515.78" y="154.24" width="174.62" height="31.76" rx="13.39"/><path class="cls-7" d="M677,186l1-.08a14.48,14.48,0,0,0,2.88-.56,13.6,13.6,0,0,0,4.2-2.21,13.17,13.17,0,0,0,4-5.05,12.94,12.94,0,0,0,1-3.7,33.15,33.15,0,0,0,.12-4.28,29.38,29.38,0,0,0-.21-4.65,13.09,13.09,0,0,0-1.73-4.66,13.24,13.24,0,0,0-8.81-6.12,36.63,36.63,0,0,0-6.07-.23H667l-137.78.1a13.08,13.08,0,0,0-13,12c-.11,1.58,0,3.25,0,4.87a15.14,15.14,0,0,0,.49,4.72,13.17,13.17,0,0,0,5.41,7.4,12.55,12.55,0,0,0,4.23,1.8,19,19,0,0,0,4.6.35h9.24l17.91,0,62,.06,41.76.11,11.35.06,3,0,1,0s-.34,0-1,0l-3,0-11.35.06-41.76.1-62,.07H530.84a20.07,20.07,0,0,1-4.74-.36,13.22,13.22,0,0,1-4.44-1.89,13.83,13.83,0,0,1-5.68-7.76,15.89,15.89,0,0,1-.52-4.89c0-1.64-.06-3.24.06-4.92a13.72,13.72,0,0,1,13.67-12.58L667,154h6.46a37.85,37.85,0,0,1,6.14.26,13.62,13.62,0,0,1,10.81,11.13,30.37,30.37,0,0,1,.18,4.71,33.86,33.86,0,0,1-.15,4.32,13.55,13.55,0,0,1-1.1,3.77,13.3,13.3,0,0,1-4.1,5.09A12.87,12.87,0,0,1,678,186C677.35,186,677,186,677,186Z"/><path class="cls-7" d="M679.71,169.37c-.07,0-.06-.52-.31-1.38a5.74,5.74,0,0,0-2.11-3,5.48,5.48,0,1,0,0,8.79,5.74,5.74,0,0,0,2.11-3c.25-.86.24-1.38.31-1.37s0,.12,0,.37a4.16,4.16,0,0,1-.1,1.06,5.73,5.73,0,0,1-2.08,3.32,6,6,0,0,1-5.68.93,6,6,0,0,1,0-11.37,6,6,0,0,1,5.68.93,5.73,5.73,0,0,1,2.08,3.32,4.16,4.16,0,0,1,.1,1.06C679.74,169.24,679.73,169.37,679.71,169.37Z"/><path class="cls-7" d="M682.87,179.29c-.13.12-1.39-1-2.81-2.57s-2.47-2.89-2.34-3,1.39,1,2.81,2.57S683,179.16,682.87,179.29Z"/><path class="cls-1" d="M539.36,167h-3.12v-.81h7.17V167H540.3V175h-.94Z"/><path class="cls-1" d="M549.82,172h-5.57a2.47,2.47,0,0,0,2.62,2.32,2.65,2.65,0,0,0,2-.88l.5.58a3.52,3.52,0,0,1-6.06-2.3,3.2,3.2,0,0,1,3.25-3.38,3.17,3.17,0,0,1,3.23,3.38C549.83,171.74,549.82,171.85,549.82,172Zm-5.57-.67H549a2.36,2.36,0,0,0-4.72,0Z"/><path class="cls-1" d="M555.72,175l-2.12-2.79L551.48,175h-1l2.64-3.42-2.51-3.24h1l2,2.61,2-2.61h1l-2.51,3.24,2.66,3.42Z"/><path class="cls-1" d="M561.75,174.59a2.14,2.14,0,0,1-1.41.47,1.77,1.77,0,0,1-2-1.94v-4H557.2v-.76h1.19v-1.46h.9v1.46h2v.76h-2v4a1.07,1.07,0,0,0,1.15,1.22,1.47,1.47,0,0,0,1-.34Z"/><rect class="cls-8" x="523.15" y="212.14" width="38.22" height="38.22"/><path class="cls-8" d="M634.9,216.25c0,.18-12.78.33-28.54.33s-28.55-.15-28.55-.33,12.78-.32,28.55-.32S634.9,216.07,634.9,216.25Z"/><path class="cls-7" d="M680.42,228c0,.18-23,.32-51.3.32s-51.31-.14-51.31-.32,23-.33,51.31-.33S680.42,227.79,680.42,228Z"/><path class="cls-7" d="M679.21,236.34c0,.18-22.7.32-50.7.32s-50.7-.14-50.7-.32,22.7-.33,50.7-.33S679.21,236.16,679.21,236.34Z"/><path class="cls-7" d="M637.68,244.32c0,.18-13.4.32-29.93.32s-29.94-.14-29.94-.32,13.4-.33,29.94-.33S637.68,244.14,637.68,244.32Z"/><rect class="cls-8" x="523.15" y="275.82" width="38.22" height="38.22"/><path class="cls-8" d="M634.9,279.93c0,.18-12.78.33-28.54.33s-28.55-.15-28.55-.33,12.78-.32,28.55-.32S634.9,279.75,634.9,279.93Z"/><path class="cls-7" d="M680.42,291.65c0,.18-23,.32-51.3.32s-51.31-.14-51.31-.32,23-.33,51.31-.33S680.42,291.47,680.42,291.65Z"/><path class="cls-7" d="M679.21,300c0,.17-22.7.32-50.7.32s-50.7-.15-50.7-.32,22.7-.33,50.7-.33S679.21,299.84,679.21,300Z"/><path class="cls-7" d="M637.68,308c0,.18-13.4.32-29.93.32s-29.94-.14-29.94-.32,13.4-.33,29.94-.33S637.68,307.82,637.68,308Z"/><rect class="cls-8" x="523.15" y="339.5" width="38.22" height="38.22"/><path class="cls-8" d="M634.9,343.61c0,.18-12.78.33-28.54.33s-28.55-.15-28.55-.33,12.78-.32,28.55-.32S634.9,343.43,634.9,343.61Z"/><path class="cls-7" d="M680.42,355.33c0,.18-23,.32-51.3.32s-51.31-.14-51.31-.32,23-.33,51.31-.33S680.42,355.15,680.42,355.33Z"/><path class="cls-7" d="M679.21,363.69c0,.18-22.7.33-50.7.33s-50.7-.15-50.7-.33,22.7-.32,50.7-.32S679.21,363.51,679.21,363.69Z"/><path class="cls-7" d="M637.68,371.68c0,.18-13.4.32-29.93.32s-29.94-.14-29.94-.32,13.4-.33,29.94-.33S637.68,371.5,637.68,371.68Z"/><rect class="cls-8" x="523.15" y="403.18" width="38.22" height="38.22"/><path class="cls-21" d="M634.9,407.29c0,.18-12.78.32-28.54.32s-28.55-.14-28.55-.32,12.78-.33,28.55-.33S634.9,407.11,634.9,407.29Z"/><path class="cls-7" d="M680.42,419c0,.17-23,.32-51.3.32s-51.31-.15-51.31-.32,23-.33,51.31-.33S680.42,418.83,680.42,419Z"/><path class="cls-7" d="M679.21,427.37c0,.18-22.7.33-50.7.33s-50.7-.15-50.7-.33,22.7-.32,50.7-.32S679.21,427.19,679.21,427.37Z"/><path class="cls-7" d="M637.68,435.35c0,.18-13.4.33-29.93.33s-29.94-.15-29.94-.33,13.4-.32,29.94-.32S637.68,435.18,637.68,435.35Z"/><rect class="cls-1" x="523.15" y="466.86" width="38.22" height="38.22"/><path class="cls-1" d="M634.9,471c0,.18-12.78.32-28.54.32s-28.55-.14-28.55-.32,12.78-.33,28.55-.33S634.9,470.79,634.9,471Z"/><path class="cls-26" d="M680.42,482.68c0,.18-23,.33-51.3.33s-51.31-.15-51.31-.33,23-.32,51.31-.32S680.42,482.51,680.42,482.68Z"/><path class="cls-26" d="M679.21,491.05c0,.18-22.7.33-50.7.33s-50.7-.15-50.7-.33,22.7-.32,50.7-.32S679.21,490.87,679.21,491.05Z"/><path class="cls-26" d="M637.68,499c0,.18-13.4.33-29.93.33s-29.94-.15-29.94-.33,13.4-.32,29.94-.32S637.68,498.85,637.68,499Z"/><g class="cls-9"><rect class="cls-12" x="523.15" y="403.18" width="38.22" height="38.22"/></g><g class="cls-9"><rect class="cls-12" x="523.15" y="275.82" width="38.22" height="38.22"/></g><polygon class="cls-8" points="735.4 513.36 742.57 539.86 719.27 541.99 714.38 516.76 735.4 513.36"/><path class="cls-7" d="M718.6,539.83a15.91,15.91,0,0,0,3.41-.11c2.1-.17,5-.49,8.17-.9l8.14-1.1a19.07,19.07,0,0,0,3.36-.58,17,17,0,0,0-3.41.13c-2.1.17-5,.5-8.17.9L722,539.26A20.06,20.06,0,0,0,718.6,539.83Z"/><g class="cls-27"><polyline class="cls-4" points="742.57 539.86 719.27 541.99 718.9 540.05 741.89 537.12 742.54 539.6"/></g><path class="cls-7" d="M731,538.68a102.4,102.4,0,0,0-2.22-10.15,96.83,96.83,0,0,0-2.75-10,102.4,102.4,0,0,0,2.22,10.15A96.83,96.83,0,0,0,731,538.68Z"/><path class="cls-7" d="M719.88,539.66a11.38,11.38,0,0,1,0-4.93,9.86,9.86,0,0,1,2.55-4.61,9.52,9.52,0,0,1,5.8-2.66,9.92,9.92,0,0,1,6.24,1.42,10.65,10.65,0,0,1,3.62,3.85,14,14,0,0,1,1.48,4.73,1.11,1.11,0,0,0,0-.36,6.83,6.83,0,0,0-.06-1,10.46,10.46,0,0,0-1.1-3.55,10.86,10.86,0,0,0-3.7-4.1,10.3,10.3,0,0,0-6.57-1.54,9.63,9.63,0,0,0-8.67,7.74,9.14,9.14,0,0,0,0,3.72,6.45,6.45,0,0,0,.28,1C719.81,539.56,719.87,539.67,719.88,539.66Z"/><path class="cls-8" d="M639.21,506.25l1.56,23.55S617.34,537.57,617.2,542l45.79.33-.92-36.78Z"/><g class="cls-27"><path class="cls-4" d="M654.86,527.38a1.87,1.87,0,0,1,1.36,2.1,1.8,1.8,0,0,1-2.06,1.36,2,2,0,0,1-1.43-2.22,1.86,1.86,0,0,1,2.31-1.18"/></g><g class="cls-27"><path class="cls-4" d="M663,542.28l-.09-3.7-44.23,1.22a3.14,3.14,0,0,0-1.7,2.48Z"/></g><path class="cls-7" d="M640,529.59c0,.22,1.14.29,2.26,1s1.74,1.61,1.94,1.51-.17-1.37-1.54-2.18S640,529.38,640,529.59Z"/><path class="cls-7" d="M635.28,531.72c0,.21.94.56,1.73,1.49s1,1.91,1.26,1.9.32-1.29-.68-2.42S635.28,531.5,635.28,531.72Z"/><path class="cls-7" d="M632.73,537.54c.21,0,.48-1.08-.13-2.29s-1.67-1.66-1.76-1.47.58.82,1.07,1.82S632.51,537.53,632.73,537.54Z"/><path class="cls-7" d="M640.26,524.18c.1.2,1.12-.14,2.39-.09s2.26.42,2.37.22-.86-1-2.35-1S640.15,524,640.26,524.18Z"/><path class="cls-7" d="M640,519.42a4.13,4.13,0,0,0,2.29-.08,9.65,9.65,0,0,0,2.37-.81,10.63,10.63,0,0,0,1.3-.73,3.23,3.23,0,0,0,.68-.56,1,1,0,0,0,.06-1.2,1.23,1.23,0,0,0-1-.48,3,3,0,0,0-.86.15,8.4,8.4,0,0,0-1.41.53,8,8,0,0,0-2.07,1.45c-1,1-1.37,1.86-1.29,1.9s.6-.64,1.65-1.49a9.21,9.21,0,0,1,2-1.21,8.4,8.4,0,0,1,1.31-.45c.48-.14.89-.15,1,.06s0,.11,0,.26a2.88,2.88,0,0,1-.5.41c-.4.27-.8.51-1.19.72a12.63,12.63,0,0,1-2.19.92A16.93,16.93,0,0,0,640,519.42Z"/><path class="cls-7" d="M640.34,519.74a3.71,3.71,0,0,0,.54-2.24,7.76,7.76,0,0,0-.39-2.5,7.6,7.6,0,0,0-.63-1.37,1.9,1.9,0,0,0-1.5-1.11,1.06,1.06,0,0,0-.93.66,2.77,2.77,0,0,0-.21.85,5,5,0,0,0,0,1.55,5.35,5.35,0,0,0,1,2.33c.93,1.16,1.87,1.4,1.89,1.33s-.72-.53-1.44-1.65a5.26,5.26,0,0,1-.79-2.13,4.86,4.86,0,0,1,0-1.32c.06-.49.23-.89.41-.85s.63.35.83.73a8.2,8.2,0,0,1,.6,1.23,8.52,8.52,0,0,1,.52,2.27C640.43,518.86,640.22,519.71,640.34,519.74Z"/><polygon class="cls-14" points="639.21 301.69 708.98 301.17 742.69 522.59 713.74 526.27 676.63 344.2 665.52 526.91 665.5 527.46 634.18 526.91 639.21 301.69"/><path class="cls-21" d="M671,319.63a12.88,12.88,0,0,1-1.57.05h-4.27l-14.89-.12.33-.32c0,4.38,0,9.27,0,14.46l-.12-.26,2.63,2.41,7.72,7.11h-.47l10.41-9.11-.1.22c.06-4.32.12-7.87.15-10.45,0-1.2.05-2.16.07-2.92a7,7,0,0,1,.07-1.07,5.39,5.39,0,0,1,.06,1c0,.74,0,1.69.07,2.85,0,2.63.09,6.24.15,10.63v.12l-.1.09-10.31,9.2-.24.21-.23-.21-7.74-7.09L650,334l-.12-.11v-.16c0-5.19,0-10.08,0-14.46v-.33h.33l15.09.45,4.19.16A13.57,13.57,0,0,1,671,319.63Z"/><path class="cls-21" d="M703.78,318.67a11.44,11.44,0,0,1-1.39.22l-3.81.47-13.35,1.51.28-.36c.54,4.28,1.15,9.16,1.8,14.35l-.13-.24,3,2.4L697.6,343l-.5.05,8.21-10.18-.06.22c-.46-4.28-.84-7.81-1.12-10.38-.12-1.19-.21-2.16-.28-2.91a8.22,8.22,0,0,1-.07-1.08,5.19,5.19,0,0,1,.18.95l.42,2.83c.36,2.61.85,6.19,1.44,10.52v.11l-.07.1-8.11,10.26-.22.28-.27-.22-7.42-5.91-3-2.4-.12-.09V335l-1.71-14.36,0-.32.32,0L698.75,319l3.75-.3A10.38,10.38,0,0,1,703.78,318.67Z"/><path class="cls-21" d="M661.1,352.28a16.2,16.2,0,0,1,2.92-2c1.87-1.11,4.5-2.57,7.46-4.05s5.72-2.7,7.73-3.52a15.79,15.79,0,0,1,3.32-1.16,18.45,18.45,0,0,1-3.11,1.63c-2,.94-4.66,2.23-7.61,3.7s-5.61,2.86-7.54,3.85A18,18,0,0,1,661.1,352.28Z"/><path class="cls-21" d="M662,357.66c-.1-.21,3.54-1.65,6.88-5s4.88-6.91,5.09-6.8-1.07,3.9-4.58,7.32S662,357.83,662,357.66Z"/><path class="cls-21" d="M642.3,421.64c.12-.05.64,1.59,2.17,3.82a18.18,18.18,0,0,0,18.31,7.73c2.67-.46,4.2-1.24,4.25-1.11a3.44,3.44,0,0,1-1,.6,15.94,15.94,0,0,1-3.11,1A17.67,17.67,0,0,1,644,425.75a15.34,15.34,0,0,1-1.44-2.94A3.34,3.34,0,0,1,642.3,421.64Z"/><path class="cls-21" d="M646.89,419.76a20,20,0,0,1,2.79.71,33.7,33.7,0,0,0,6.84.92c5.41.21,9.78-.62,9.82-.38a10.33,10.33,0,0,1-2.83.69,36.57,36.57,0,0,1-7,.42,25.93,25.93,0,0,1-7-1.16A8,8,0,0,1,646.89,419.76Z"/><path class="cls-21" d="M698.76,421.07c.14-.2,3.87,3.23,9.61,5.33s10.79,2,10.77,2.26a9.89,9.89,0,0,1-3.28.11,27.83,27.83,0,0,1-14.69-5.47A10.08,10.08,0,0,1,698.76,421.07Z"/><path class="cls-21" d="M704.87,420.8c0-.21,2.87.14,6.35-.15s6.22-1.06,6.28-.85-2.64,1.3-6.23,1.57S704.83,421,704.87,420.8Z"/><path class="cls-21" d="M677.05,345.73c.08-.22,4.93,1.84,11.29,2.83s11.61.6,11.62.84a12.78,12.78,0,0,1-3.43.4,42.4,42.4,0,0,1-8.31-.52,43.36,43.36,0,0,1-8.05-2.1A12.58,12.58,0,0,1,677.05,345.73Z"/><path class="cls-21" d="M679,338.24c.2,0,.36.63.35,1.4s-.18,1.4-.38,1.39-.36-.63-.35-1.4S678.75,338.24,679,338.24Z"/><path class="cls-21" d="M678.93,332.65c.2,0,.37.62.38,1.39s-.15,1.4-.35,1.4-.37-.62-.38-1.39S678.73,332.65,678.93,332.65Z"/><path class="cls-21" d="M678.78,327.06c.21,0,.39.61.41,1.39s-.12,1.4-.32,1.41-.38-.62-.4-1.39S678.58,327.07,678.78,327.06Z"/><path class="cls-21" d="M678.52,321.48c.2,0,.39.6.43,1.37s-.08,1.41-.28,1.42-.4-.61-.44-1.38S678.32,321.49,678.52,321.48Z"/><path class="cls-21" d="M678.12,315.9c.2,0,.41.6.47,1.37s-.05,1.41-.25,1.42-.41-.6-.47-1.37S677.92,315.92,678.12,315.9Z"/><path class="cls-21" d="M677.61,310.34c.2,0,.42.59.5,1.35s0,1.41-.23,1.43-.42-.59-.5-1.35S677.41,310.36,677.61,310.34Z"/><path class="cls-21" d="M717,521.07c.19,0,.48.55.63,1.3s.11,1.41-.09,1.44-.47-.54-.63-1.29S716.76,521.11,717,521.07Z"/><path class="cls-21" d="M715.86,515.59c.2,0,.48.55.63,1.3s.12,1.41-.08,1.44-.48-.54-.63-1.29S715.66,515.63,715.86,515.59Z"/><path class="cls-21" d="M714.76,510.11c.2,0,.48.55.64,1.3s.11,1.4-.09,1.44-.48-.54-.63-1.29S714.57,510.15,714.76,510.11Z"/><path class="cls-21" d="M713.67,504.63c.19,0,.48.55.63,1.3s.11,1.4-.08,1.44-.48-.54-.63-1.29S713.47,504.67,713.67,504.63Z"/><path class="cls-21" d="M712.57,499.15c.2,0,.48.55.63,1.3s.12,1.4-.08,1.44-.48-.54-.63-1.29S712.37,499.19,712.57,499.15Z"/><path class="cls-21" d="M711.48,493.67c.19,0,.47.55.63,1.3s.11,1.4-.09,1.44-.48-.54-.63-1.29S711.28,493.71,711.48,493.67Z"/><path class="cls-21" d="M710.38,488.19c.2,0,.48.55.63,1.3s.11,1.4-.08,1.44-.48-.54-.63-1.29S710.18,488.23,710.38,488.19Z"/><path class="cls-21" d="M709.28,482.71c.2,0,.48.55.63,1.3s.12,1.4-.08,1.44-.48-.54-.63-1.29S709.09,482.75,709.28,482.71Z"/><path class="cls-21" d="M708.19,477.23c.19,0,.48.55.63,1.3s.11,1.4-.09,1.44-.47-.54-.63-1.29S708,477.27,708.19,477.23Z"/><path class="cls-21" d="M707.09,471.75c.2,0,.48.55.63,1.3s.12,1.4-.08,1.44-.48-.54-.63-1.29S706.89,471.79,707.09,471.75Z"/><path class="cls-21" d="M706,466.27c.2,0,.48.55.63,1.3s.12,1.4-.08,1.44-.48-.54-.63-1.29S705.8,466.31,706,466.27Z"/><path class="cls-21" d="M704.9,460.79c.19,0,.48.55.63,1.3s.11,1.4-.08,1.44-.48-.54-.63-1.29S704.7,460.83,704.9,460.79Z"/><path class="cls-21" d="M703.8,455.31c.2,0,.48.55.63,1.3s.12,1.4-.08,1.44-.48-.54-.63-1.29S703.6,455.35,703.8,455.31Z"/><path class="cls-21" d="M702.71,449.83c.19,0,.47.55.63,1.3s.11,1.4-.09,1.44-.48-.54-.63-1.29S702.51,449.87,702.71,449.83Z"/><path class="cls-21" d="M701.61,444.35c.2,0,.48.55.63,1.3s.11,1.4-.08,1.44-.48-.54-.63-1.29S701.41,444.39,701.61,444.35Z"/><path class="cls-21" d="M700.51,438.87c.2,0,.48.55.63,1.3s.12,1.4-.08,1.44-.48-.54-.63-1.29S700.32,438.91,700.51,438.87Z"/><path class="cls-21" d="M699.42,433.39c.19,0,.48.55.63,1.3s.11,1.4-.09,1.44-.47-.54-.63-1.29S699.22,433.43,699.42,433.39Z"/><path class="cls-21" d="M698.32,427.91c.2,0,.48.55.63,1.3s.12,1.4-.08,1.44-.48-.54-.63-1.29S698.12,428,698.32,427.91Z"/><path class="cls-21" d="M697.22,422.43c.2,0,.48.55.63,1.3s.12,1.4-.08,1.44-.48-.54-.63-1.29S697,422.47,697.22,422.43Z"/><path class="cls-21" d="M696.13,417c.19,0,.48.55.63,1.3s.11,1.4-.08,1.44-.48-.54-.64-1.3S695.93,417,696.13,417Z"/><path class="cls-21" d="M695,411.47c.2,0,.48.55.63,1.3s.12,1.4-.08,1.44-.48-.54-.63-1.3S694.83,411.51,695,411.47Z"/><path class="cls-21" d="M693.94,406c.19,0,.47.55.63,1.3s.11,1.4-.09,1.44-.48-.54-.63-1.3S693.74,406,693.94,406Z"/><path class="cls-21" d="M692.84,400.51c.2,0,.48.55.63,1.3s.11,1.4-.08,1.44-.48-.54-.63-1.3S692.64,400.55,692.84,400.51Z"/><path class="cls-21" d="M691.74,395c.2,0,.48.55.63,1.3s.12,1.4-.08,1.44-.48-.54-.63-1.3S691.55,395.07,691.74,395Z"/><path class="cls-21" d="M690.65,389.55c.19,0,.48.55.63,1.3s.11,1.4-.09,1.44-.47-.54-.63-1.3S690.45,389.59,690.65,389.55Z"/><path class="cls-21" d="M689.55,384.07c.2,0,.48.55.63,1.3s.12,1.4-.08,1.44-.48-.54-.63-1.3S689.35,384.11,689.55,384.07Z"/><path class="cls-21" d="M688.45,378.59c.2,0,.48.55.63,1.3s.12,1.4-.08,1.44-.48-.54-.63-1.3S688.26,378.63,688.45,378.59Z"/><path class="cls-21" d="M687.36,373.11c.19,0,.48.55.63,1.3s.11,1.4-.08,1.44-.48-.54-.64-1.3S687.16,373.15,687.36,373.11Z"/><path class="cls-21" d="M686.26,367.63c.2,0,.48.55.63,1.3s.12,1.4-.08,1.44-.48-.54-.63-1.3S686.06,367.67,686.26,367.63Z"/><path class="cls-21" d="M685.17,362.15c.19,0,.47.55.63,1.3s.11,1.4-.09,1.44-.48-.54-.63-1.3S685,362.19,685.17,362.15Z"/><path class="cls-21" d="M684.07,356.67c.2,0,.48.55.63,1.3s.11,1.4-.08,1.44-.48-.54-.63-1.3S683.87,356.71,684.07,356.67Z"/><path class="cls-21" d="M683,351.19c.2,0,.48.55.63,1.3s.12,1.4-.08,1.44-.48-.54-.63-1.3S682.78,351.23,683,351.19Z"/><path class="cls-21" d="M682,346.43c.2,0,.45.38.56.94s0,1-.16,1.08-.44-.38-.55-.94S681.82,346.47,682,346.43Z"/><path class="cls-19" d="M586.22,200s-8.17-12.24-8.38-12.35h0s-7.37-12.41-9.82-12.41-1.57,2.51,1,7a17.62,17.62,0,0,1,2.44,6.33l-6,3.65s-4-1.56-4.21,2.21a25.82,25.82,0,0,0,.7,5.11c.24,1.35.85,2.78,2.12,2.27a1.59,1.59,0,0,0,1.08-1.51c.08-2.23-.34-3.05,0-3.05s4.35,11.69,4.35,11.69Z"/><path class="cls-19" d="M569.73,190.34a11.57,11.57,0,0,0-1.94-1.16,3.9,3.9,0,0,0-2.2-.34,1.77,1.77,0,0,0-1.46,2.51,5.9,5.9,0,0,0,1,1.67"/><path class="cls-19" d="M572.49,187.87a11,11,0,0,0-1.84-1.09,3.75,3.75,0,0,0-2.08-.33,1.68,1.68,0,0,0-1.39,2.37,16.56,16.56,0,0,0,1.88,2.42"/><path class="cls-19" d="M583.37,193l11.8,25.23-13,13.29-6.77-18.81s-3.64.73-5.12-1.68c-1.65-2.69-3.82-10.46-3.82-10.46Z"/><path class="cls-20" d="M574.94,192.34c-.22.09-.82-1.49-1.94-3.08s-2.65-2.35-2.53-2.57,1.81.36,3.11,2.14S575.09,192.29,574.94,192.34Z"/><path class="cls-20" d="M561.86,192.45c-.06-.07.27-.46,1-.73a3.79,3.79,0,0,1,3,.27,5,5,0,0,1,2,2.24c.33.68.46,1.13.37,1.17s-.38-.31-.81-.9a6.46,6.46,0,0,0-1.91-1.88,4,4,0,0,0-2.54-.4C562.33,192.33,561.92,192.54,561.86,192.45Z"/><path class="cls-20" d="M566.25,188.89c0-.19,1.71-.23,3.22,1.11s1.86,2.92,1.7,3-.87-1.25-2.18-2.41S566.21,189.1,566.25,188.89Z"/><path class="cls-20" d="M563.35,194.34c.2,0,.24.79.72,1.53s1.12,1.11,1.06,1.31-1,.07-1.67-.93S563.16,194.27,563.35,194.34Z"/><path class="cls-19" d="M586.19,199.45s.41-7.52-1.41-9.23-7,.07-7,.07"/><path class="cls-20" d="M577,186.7c.16-.13,1.61,1.62,3.25,3.89s2.83,4.21,2.66,4.32-1.62-1.64-3.25-3.9S576.85,186.82,577,186.7Z"/><path class="cls-19" d="M704.11,193.56c-.18-1-.43-2.19-.78-3.56a10.58,10.58,0,0,0-1.49-3.3,16,16,0,0,0-2.89-3.48,1.4,1.4,0,0,1,.62-2.58c1.26,0,4.4,2.22,6.55,6.14s3.43-3,3.94-5.52,2.44-10.24,3.34-10.7c1.31-.67,2.27.61,1.71,3.12s-1.73,10.13-.39,10.33,3.73-12.65,3.73-12.65.07-2.84,1.63-2.65c2.82.33-.75,13.81-1.12,15.09-.26.88,1.19,1.15,1.42.19s2.1-12.88,5-12.57c2.2.23-2.83,11.11-1.85,13.79s3-8.63,5.07-8.32c.78.12,1.35.31-.74,6.65-1,3.07-4.93,17.47-4.93,17.47l2.25,11.8-17.92,4.54Z"/><path class="cls-19" d="M681.44,129.62l.18,58.75-25.2,1.2-.73-14.29s-9,1.78-11.26-6.53c-1.48-5.32-1.11-46.36-1.11-46.36Z"/><path class="cls-7" d="M640,126.53c4,1.13,4.84,7.62,4.84,7.62l6.22,13.75c3.17-2.48,7.43-2.34,8.24,3.24.58,4-4.43,4.84-4.43,4.84,2.92,5,4.9,9,9.14,13.69,4.6,5.11,7.17,5.63,12.15,5.71h5.5s2.69-8.73,7.67-30.56c5.52-24.23-23.12-21.11-28.43-27.29C652.25,107.46,627.49,122.94,640,126.53Z"/><path class="cls-7" d="M688.81,147.1c4.64-3.12,5.06-11.84,2.35-17.08a16.81,16.81,0,0,0-14.3-8.89,7,7,0,0,1-2.34-.26,6.57,6.57,0,0,1-2.51-2.38c-4.15-5.4-8.22-10.7-16-10.7a8.78,8.78,0,0,0-4.86,1.21,7.68,7.68,0,0,0-2.92,3.86,16.74,16.74,0,0,0-4.52-1.62,5.58,5.58,0,0,0-4.54,1.1,3.43,3.43,0,0,0-.72,4.35,5.5,5.5,0,0,0-5.48,4.57c-.41,2.58,3.28,4.4,3.67,4.6,0,0-2,4.24,2.81,6.79,1.94,1,4.48-.21,4.76-.36"/><path class="cls-21" d="M670.4,152.75c.22,0,.28,2,.81,4.31s1.31,4.15,1.12,4.24-1.28-1.63-1.83-4.08S670.22,152.73,670.4,152.75Z"/><path class="cls-21" d="M667.35,149.87c.21,0,.48,1.87.91,4.17s.86,4.15.66,4.21-.94-1.73-1.37-4.08S667.16,149.88,667.35,149.87Z"/><path class="cls-21" d="M658.62,140.17a4.5,4.5,0,0,1,1.92,1.34,13.51,13.51,0,0,1,3,4.77,25,25,0,0,1,1.34,5.44A6.82,6.82,0,0,1,665,154a7.81,7.81,0,0,1-.65-2.22,42.91,42.91,0,0,0-1.52-5.27,16.17,16.17,0,0,0-2.7-4.68C659.26,140.79,658.56,140.26,658.62,140.17Z"/><path class="cls-21" d="M655.1,133.57c.21,0-.37,2.51.39,5.43s2.39,4.84,2.22,5-2.16-1.65-2.93-4.8S654.93,133.48,655.1,133.57Z"/><path class="cls-21" d="M685.18,148.24c-.1-.17.52-.71,1.39-1.19s1.65-.74,1.74-.56-.52.71-1.39,1.19S685.28,148.42,685.18,148.24Z"/><path class="cls-21" d="M673,142c.2-.05.59,1,1.3,2.2s1.48,2,1.35,2.18-1.19-.5-2-1.8S672.81,142,673,142Z"/><path class="cls-21" d="M669.25,140c.21-.06.74,1.25,1.7,2.68s1.94,2.43,1.8,2.59-1.4-.65-2.41-2.19S669.07,140,669.25,140Z"/><path class="cls-21" d="M650.64,115.35s.08-.13.28-.32a6.31,6.31,0,0,1,1-.78,8.91,8.91,0,0,1,4.34-1.35,11.59,11.59,0,0,1,6.54,1.61,15.55,15.55,0,0,1,5.55,6.1,25.8,25.8,0,0,1,2.18,5.66l-.5-.22a12.78,12.78,0,0,1,5.92-1.42,13,13,0,0,1,4.72.86,11.82,11.82,0,0,1,2.77,1.5,3.68,3.68,0,0,1,.83.76,21.54,21.54,0,0,0-3.74-1.84,13.12,13.12,0,0,0-10.18.76l-.38.2-.12-.42a26.32,26.32,0,0,0-2.14-5.5,15.3,15.3,0,0,0-5.26-5.86,11.25,11.25,0,0,0-6.17-1.67,9.38,9.38,0,0,0-4.22,1.07C651.12,115,650.69,115.41,650.64,115.35Z"/><path class="cls-21" d="M637.39,118.55a2.32,2.32,0,0,0-1.24.82,2.27,2.27,0,0,0-.41,1.63,2.5,2.5,0,0,0,1.33,1.72,3.65,3.65,0,0,0,2.69.29,8.44,8.44,0,0,0,2.92-1.49,29.72,29.72,0,0,1,3.14-2.19,13.07,13.07,0,0,1,3.92-1.4,16,16,0,0,1,7.92.59,20.15,20.15,0,0,1,5.7,3.07,23.37,23.37,0,0,1,3.22,2.93,5.6,5.6,0,0,1,1,1.25c-.1.1-1.56-1.66-4.5-3.77a20.83,20.83,0,0,0-5.61-2.84,15.79,15.79,0,0,0-7.58-.51,12.66,12.66,0,0,0-3.71,1.3,32.3,32.3,0,0,0-3.09,2.11,8.8,8.8,0,0,1-3.17,1.54,4.25,4.25,0,0,1-3.09-.43,2.88,2.88,0,0,1-1.47-2.12,2.49,2.49,0,0,1,.59-1.85C636.68,118.35,637.44,118.53,637.39,118.55Z"/><path class="cls-11" d="M707.06,191.24l30.8,55.07A15.62,15.62,0,0,1,735.49,261l.63-.92a13.13,13.13,0,0,1-10.22,4.89h-.59a13.15,13.15,0,0,1-12-7.91L706,246Z"/><path class="cls-11" d="M640.35,187.3c6-3.09,12-3.78,18.52-4,7.58-.22,18.27-1.29,26.44-.42,0,0,24.89-.76,25,18.53L707,275.5l5.33,31.75-74.59,2.25.53-37.45c-.92-19.48,1.05-47.07,1.05-47.07-1.15-10.48-6.88-15.19-7.69-22C630.93,197,635,190.06,640.35,187.3Z"/><path class="cls-7" d="M661.38,276.58c.08-.11,1.69,1.34,4.73,2.95a28.17,28.17,0,0,0,25.75.45c3.09-1.5,4.75-2.89,4.83-2.77a5.46,5.46,0,0,1-1.13,1,23.63,23.63,0,0,1-3.47,2.22,27.07,27.07,0,0,1-26.23-.46,24.7,24.7,0,0,1-3.4-2.35A4.87,4.87,0,0,1,661.38,276.58Z"/><path class="cls-7" d="M710.31,201.44a2.42,2.42,0,0,1,.06.74v2.09c0,1.93-.09,4.54-.14,7.72-.16,6.51-.45,15.5-.87,25.42s-.9,18.92-1.35,25.42c-.23,3.24-.43,5.87-.61,7.68-.09.84-.16,1.53-.22,2.09a2.91,2.91,0,0,1-.12.73,2.7,2.7,0,0,1,0-.74c0-.56.05-1.25.08-2.1.09-1.92.22-4.52.38-7.69.29-6.61.69-15.54,1.13-25.42s.8-18.81,1.08-25.41c.15-3.17.28-5.78.37-7.7.06-.85.1-1.54.14-2.1A3.54,3.54,0,0,1,710.31,201.44Z"/><path class="cls-11" d="M726,207.84s2.83,8.28,3.33,9.41c0,0,7,20.13,9.23,33.73l-22.27-40.22C716.05,210.79,725.66,207.92,726,207.84Z"/><path class="cls-7" d="M715,205.41a15.31,15.31,0,0,1,1.34,2.06c.88,1.45,2.06,3.38,3.49,5.71,2.93,4.82,7.25,11.33,11.57,18.81,2.16,3.75,4,7.44,5.54,10.85a20,20,0,0,1,2.07,9.75,14.5,14.5,0,0,1-2,6.42,9.45,9.45,0,0,1-1.07,1.49c-.28.31-.43.47-.45.45s.54-.69,1.28-2.08a15.39,15.39,0,0,0,1.71-6.32,19.78,19.78,0,0,0-2.18-9.43c-1.58-3.37-3.4-7.05-5.55-10.77-4.3-7.45-8.56-14-11.38-18.91-1.43-2.43-2.55-4.43-3.3-5.83A17.06,17.06,0,0,1,715,205.41Z"/><path class="cls-11" d="M577.78,226,595,214.69l10.89,18.87s15.11-21,22-33.29c6.31-11.32,14.48-14.37,18.42-15.19a1.74,1.74,0,0,1,2.09,1.91l-5.95,40.82c-.75,2.12-13.21,20.18-20.17,29.27-11.62,15.17-28.74,5.46-33.44-5.15C585.12,243.5,579.31,230.7,577.78,226Z"/><path class="cls-7" d="M601,250.59a9.69,9.69,0,0,1-.15-2.72,33,33,0,0,1,.65-6.54,17.77,17.77,0,0,1,2.46-6.14,5.89,5.89,0,0,1,1.83-2c.09.08-.59.86-1.4,2.3a21.69,21.69,0,0,0-2.18,6,52.94,52.94,0,0,0-.85,6.42A10.71,10.71,0,0,1,601,250.59Z"/><path class="cls-7" d="M595.92,242.16a4.48,4.48,0,0,1,.15-2.34,10.88,10.88,0,0,1,2.73-5,7.11,7.11,0,0,1,5.08-2.52c1.54.06,2.26.83,2.19.87a7.43,7.43,0,0,0-2.19-.35,7.23,7.23,0,0,0-4.56,2.51,12.35,12.35,0,0,0-2.76,4.61A21.81,21.81,0,0,1,595.92,242.16Z"/><path class="cls-7" d="M647.45,190.12a2,2,0,0,1,.5.38,9.67,9.67,0,0,1,1.31,1.27,16.14,16.14,0,0,1,3.24,5.83,22.65,22.65,0,0,1,.82,9.86,21.46,21.46,0,0,1-1.49,5.7,57.59,57.59,0,0,1-2.81,5.61,217.52,217.52,0,0,1-11.92,18.42c-1.64,2.28-3,4.1-4,5.33-.48.62-.87,1.09-1.14,1.4s-.42.47-.44.45a18.63,18.63,0,0,1,1.36-2l3.77-5.46c3.14-4.63,7.49-11.06,11.71-18.47a58.66,58.66,0,0,0,2.79-5.54,21,21,0,0,0,1.48-5.51,22.57,22.57,0,0,0-.64-9.62,17,17,0,0,0-3-5.8,13.8,13.8,0,0,0-1.19-1.35C647.57,190.31,647.43,190.14,647.45,190.12Z"/><g class="cls-9"><path d="M666.71,279.91c-5.51-2.51-9.85-8.27-10-14.09a5.78,5.78,0,0,1,1.35-4.37c1.63-1.6,4.38-1.3,6.4-.24,3.34,1.75,5.52,5,7.86,8s5.32,5.85,9.07,6.21a23.79,23.79,0,0,0,4.82-.37,8.15,8.15,0,0,1,4.74.58,3.58,3.58,0,0,1,1.95,4s-6.59,4.1-13.47,3.62A38.86,38.86,0,0,1,666.71,279.91Z"/></g><path class="cls-7" d="M647.4,298.57a14.33,14.33,0,0,1,2.16.51c1.36.39,3.36.89,5.84,1.42s5.45,1.05,8.78,1.46a93.44,93.44,0,0,0,21.75.07c3.33-.4,6.31-.89,8.79-1.42s4.48-1,5.85-1.38a12.12,12.12,0,0,1,2.16-.5,13.06,13.06,0,0,1-2.08.77c-1.35.47-3.34,1-5.82,1.61a83.1,83.1,0,0,1-8.82,1.58,95,95,0,0,1-11,.67,96.52,96.52,0,0,1-10.95-.73,82.11,82.11,0,0,1-8.82-1.63c-2.47-.6-4.46-1.17-5.8-1.64A12.33,12.33,0,0,1,647.4,298.57Z"/></g></svg>