<?xml version="1.0" encoding="utf-8"?>
<!-- Generator: Adobe Illustrator 25.2.1, SVG Export Plug-In . SVG Version: 6.00 Build 0)  -->
<svg version="1.1" id="Layer_1" xmlns="http://www.w3.org/2000/svg" xmlns:xlink="http://www.w3.org/1999/xlink" x="0px" y="0px"
	 viewBox="0 0 750 500" style="enable-background:new 0 0 750 500;" xml:space="preserve">
<style type="text/css">
	.st0{fill:#E1E1E1;}
	.st1{fill:#ECECEC;}
	.st2{fill:#FAFAFA;}
	.st3{fill:#F5F5F5;}
	.st4{fill:#08101F;}
	.st5{fill:#1A2E35;}
	.st6{fill:#31B1E7;}
	.st7{fill:#FFBF9D;}
	.st8{fill:#FF9A6C;}
	.st9{fill:#2E4050;}
	.st10{fill:#375A64;}
	.st11{fill:#FFFFFF;}
	.st12{fill:#2A85F5;}
	.st13{opacity:0.3;}
	.st14{opacity:0.6;}
	.st15{fill:#E0E0E0;}
	.st16{fill:#1A2E35;stroke:#1A2E35;stroke-width:0.5;stroke-miterlimit:10;}
	.st17{fill:#FF735D;}
	.st18{fill:#1A2E35;stroke:#1A2E35;stroke-miterlimit:10;}
</style>
<g>
	<g>
		<g>
			<g>
				<rect x="108.7" y="45.7" class="st0" width="88.5" height="146.5"/>
			</g>
		</g>
	</g>
	<g>
		<g>
			<g>
				<rect x="105.8" y="45.7" class="st1" width="88.5" height="146.5"/>
			</g>
		</g>
	</g>
	<g>
		<g>
			<g>
				<rect x="109.6" y="48.7" class="st2" width="81" height="140.6"/>
			</g>
		</g>
	</g>
	<g>
		<g>
			<g>
				<g>
					<rect x="125" y="66.9" class="st1" width="49.8" height="104"/>
				</g>
			</g>
		</g>
		<g>
			<g>
				<g>
					<path class="st0" d="M125,134.1c-0.1-9.7,8.6-19.2,18.2-20.6c4.6-0.6,9.5,0.3,13.8-1.5c7.7-3.1,10.1-13.3,17.8-16.3l0.4,75.2
						H125V134.1z"/>
				</g>
			</g>
		</g>
	</g>
</g>
<g>
	<g>
		<g>
			<g>
				<g>
					<g>
						<g>
							<g>
								<g>
									<g>
										<rect x="541.2" y="51.2" class="st0" width="84.9" height="88.5"/>
									</g>
								</g>
							</g>
						</g>
					</g>
				</g>
			</g>
		</g>
	</g>
	<g>
		<g>
			<g>
				<g>
					<g>
						<g>
							<g>
								<g>
									<g>
										<rect x="535.4" y="51.2" class="st2" width="84.9" height="88.5"/>
									</g>
								</g>
							</g>
						</g>
					</g>
				</g>
			</g>
		</g>
		<g>
			<g>
				<g>
					<g>
						<g>
							<g>
								<g>
									<g>
										<path class="st0" d="M620.4,139.7h-84.9V51.1h84.9V139.7z M535.5,139.6h84.8V51.2h-84.8V139.6z"/>
									</g>
								</g>
							</g>
						</g>
					</g>
				</g>
			</g>
		</g>
	</g>
	<g>
		<g>
			<g>
				<g>
					<g>
						<g>
							<g>
								<g>
									<g>
										<rect x="546.9" y="63.1" class="st2" width="62.1" height="64.7"/>
									</g>
								</g>
							</g>
						</g>
					</g>
				</g>
			</g>
		</g>
	</g>
	<g>
		<g>
			<g>
				<g>
					<g>
						<g>
							<g>
								<g>
									<g>
										<g>
											<path class="st0" d="M546.9,128.2c0,0.1-0.5,0.7-1.5,1.8c-1,1-2.4,2.5-3.9,4c-1.6,1.5-3,2.9-4.1,3.9
												c-1.1,1-1.7,1.5-1.8,1.5c-0.1-0.1,0.5-0.7,1.5-1.8c1-1,2.4-2.5,4-4c1.6-1.5,3-2.9,4.1-3.9
												C546.1,128.7,546.8,128.1,546.9,128.2z"/>
										</g>
									</g>
								</g>
							</g>
						</g>
					</g>
				</g>
			</g>
		</g>
	</g>
	<g>
		<g>
			<g>
				<g>
					<g>
						<g>
							<g>
								<g>
									<g>
										<g>
											<path class="st0" d="M608.9,128c0.1,0,0.7,0.5,1.8,1.5c1,1,2.5,2.4,4,3.9c1.5,1.6,2.9,3,3.9,4.1c1,1.1,1.5,1.7,1.5,1.8
												c-0.1,0.1-0.7-0.5-1.8-1.5c-1-1-2.5-2.4-4-4c-1.5-1.6-2.9-3-3.9-4.1C609.4,128.8,608.9,128.1,608.9,128z"/>
										</g>
									</g>
								</g>
							</g>
						</g>
					</g>
				</g>
			</g>
		</g>
	</g>
	<g>
		<g>
			<g>
				<g>
					<g>
						<g>
							<g>
								<g>
									<g>
										<g>
											<path class="st0" d="M608.7,63.2c0-0.1,0.5-0.7,1.5-1.8c1-1,2.4-2.5,3.9-4c1.6-1.5,3-2.9,4.1-3.9c1.1-1,1.7-1.5,1.8-1.5
												c0.1,0.1-0.5,0.7-1.5,1.8c-1,1-2.4,2.5-4,4c-1.6,1.5-3,2.9-4.1,3.9C609.5,62.7,608.8,63.3,608.7,63.2z"/>
										</g>
									</g>
								</g>
							</g>
						</g>
					</g>
				</g>
			</g>
		</g>
	</g>
	<g>
		<g>
			<g>
				<g>
					<g>
						<g>
							<g>
								<g>
									<g>
										<g>
											<path class="st0" d="M546.7,63.4c-0.1,0-0.7-0.5-1.8-1.5c-1-1-2.5-2.4-4-3.9c-1.5-1.6-2.9-3-3.9-4.1
												c-1-1.1-1.5-1.7-1.5-1.8c0.1-0.1,0.7,0.5,1.8,1.5c1,1,2.5,2.4,4,4c1.5,1.6,2.9,3,3.9,4.1
												C546.2,62.7,546.7,63.4,546.7,63.4z"/>
										</g>
									</g>
								</g>
							</g>
						</g>
					</g>
				</g>
			</g>
		</g>
	</g>
	<g>
		<g>
			<g>
				<g>
					<g>
						<g>
							<g>
								<g>
									<g>
										<g>
											<path class="st0" d="M608.7,127.8c0,0,0-0.1,0-0.3c0-0.2,0-0.5,0-0.9c0-0.8,0-2,0-3.5c0-3.1,0-7.5-0.1-13.2
												c0-11.3-0.1-27.5-0.1-46.8l0.2,0.2c-18.1,0-39.3,0-61.9,0h0l0.3-0.3c0,23.7,0,46,0,64.7l-0.2-0.2c18.5,0,34,0.1,44.8,0.1
												c5.4,0,9.7,0,12.6,0.1c1.4,0,2.6,0,3.3,0c0.4,0,0.6,0,0.9,0C608.6,127.8,608.7,127.8,608.7,127.8c0,0-0.1,0-0.3,0
												c-0.2,0-0.5,0-0.8,0c-0.8,0-1.9,0-3.3,0c-2.9,0-7.1,0-12.5,0.1c-10.9,0-26.4,0.1-45,0.1l-0.2,0l0-0.2c0-18.7,0-41,0-64.7
												l0-0.3h0.3h0c22.6,0,43.8,0,61.9,0h0.2l0,0.2c-0.1,19.4-0.1,35.6-0.1,47c0,5.6,0,10.1-0.1,13.1c0,1.5,0,2.6,0,3.4
												c0,0.4,0,0.7,0,0.9C608.8,127.7,608.8,127.8,608.7,127.8z"/>
										</g>
									</g>
								</g>
							</g>
						</g>
					</g>
				</g>
			</g>
		</g>
	</g>
	<g>
		<g>
			<g>
				<g>
					<g>
						<g>
							<g>
								<g>
									<g>
										<rect x="567.5" y="85.1" class="st1" width="20.7" height="20.7"/>
									</g>
								</g>
							</g>
						</g>
					</g>
				</g>
			</g>
		</g>
	</g>
</g>
<g>
	<g>
		<g>
			<g>
				<g>
					<g>
						<g>
							<g>
								<g>
									<g>
										<rect x="626" y="156.2" class="st0" width="57.7" height="60.1"/>
									</g>
								</g>
							</g>
						</g>
					</g>
				</g>
			</g>
		</g>
	</g>
	<g>
		<g>
			<g>
				<g>
					<g>
						<g>
							<g>
								<g>
									<g>
										<rect x="622.1" y="156.2" class="st2" width="57.7" height="60.1"/>
									</g>
								</g>
							</g>
						</g>
					</g>
				</g>
			</g>
		</g>
		<g>
			<g>
				<g>
					<g>
						<g>
							<g>
								<g>
									<g>
										<path class="st0" d="M679.8,216.4h-57.7v-60.1h57.7V216.4z M622.1,216.3h57.6v-60.1h-57.6V216.3z"/>
									</g>
								</g>
							</g>
						</g>
					</g>
				</g>
			</g>
		</g>
	</g>
	<g>
		<g>
			<g>
				<g>
					<g>
						<g>
							<g>
								<g>
									<g>
										<rect x="629.8" y="164.3" class="st2" width="42.2" height="43.9"/>
									</g>
								</g>
							</g>
						</g>
					</g>
				</g>
			</g>
		</g>
	</g>
	<g>
		<g>
			<g>
				<g>
					<g>
						<g>
							<g>
								<g>
									<g>
										<g>
											<path class="st0" d="M629.8,208.5c0,0-0.4,0.5-1,1.2c-0.7,0.7-1.6,1.7-2.7,2.7c-1.1,1-2,2-2.8,2.6
												c-0.7,0.7-1.2,1.1-1.2,1c0,0,0.4-0.5,1-1.2c0.7-0.7,1.6-1.7,2.7-2.7c1.1-1,2-2,2.8-2.6
												C629.3,208.9,629.8,208.5,629.8,208.5z"/>
										</g>
									</g>
								</g>
							</g>
						</g>
					</g>
				</g>
			</g>
		</g>
	</g>
	<g>
		<g>
			<g>
				<g>
					<g>
						<g>
							<g>
								<g>
									<g>
										<g>
											<path class="st0" d="M672,208.4c0,0,0.5,0.4,1.2,1c0.7,0.7,1.7,1.6,2.7,2.7c1,1.1,2,2,2.6,2.8c0.7,0.7,1.1,1.2,1,1.2
												c0,0-0.5-0.4-1.2-1c-0.7-0.7-1.7-1.6-2.7-2.7c-1-1.1-2-2-2.6-2.8C672.3,208.9,672,208.5,672,208.4z"/>
										</g>
									</g>
								</g>
							</g>
						</g>
					</g>
				</g>
			</g>
		</g>
	</g>
	<g>
		<g>
			<g>
				<g>
					<g>
						<g>
							<g>
								<g>
									<g>
										<g>
											<path class="st0" d="M671.9,164.4c0,0,0.4-0.5,1-1.2c0.7-0.7,1.6-1.7,2.7-2.7c1.1-1,2-2,2.8-2.6c0.7-0.7,1.2-1.1,1.2-1
												c0,0-0.4,0.5-1,1.2c-0.7,0.7-1.6,1.7-2.7,2.7c-1.1,1-2,2-2.8,2.6C672.4,164.1,671.9,164.5,671.9,164.4z"/>
										</g>
									</g>
								</g>
							</g>
						</g>
					</g>
				</g>
			</g>
		</g>
	</g>
	<g>
		<g>
			<g>
				<g>
					<g>
						<g>
							<g>
								<g>
									<g>
										<g>
											<path class="st0" d="M629.7,164.5c0,0-0.5-0.4-1.2-1c-0.7-0.7-1.7-1.6-2.7-2.7c-1-1.1-2-2-2.6-2.8
												c-0.7-0.7-1.1-1.2-1-1.2c0,0,0.5,0.4,1.2,1c0.7,0.7,1.7,1.6,2.7,2.7c1,1.1,2,2,2.6,2.8
												C629.4,164,629.8,164.5,629.7,164.5z"/>
										</g>
									</g>
								</g>
							</g>
						</g>
					</g>
				</g>
			</g>
		</g>
	</g>
	<g>
		<g>
			<g>
				<g>
					<g>
						<g>
							<g>
								<g>
									<g>
										<g>
											<path class="st0" d="M671.9,208.3c0,0,0-0.1,0-0.2c0-0.1,0-0.4,0-0.6c0-0.6,0-1.3,0-2.4c0-2.1,0-5.1,0-9
												c0-7.7,0-18.7-0.1-31.8l0.2,0.2c-12.3,0-26.7,0-42,0h0l0.2-0.2c0,16.1,0,31.2,0,43.9l-0.2-0.2c12.6,0,23.1,0.1,30.4,0.1
												c3.7,0,6.6,0,8.5,0c1,0,1.7,0,2.3,0c0.2,0,0.4,0,0.6,0C671.8,208.2,671.9,208.3,671.9,208.3c0,0-0.1,0-0.2,0
												c-0.1,0-0.3,0-0.6,0c-0.5,0-1.3,0-2.2,0c-2,0-4.9,0-8.5,0c-7.4,0-17.9,0-30.5,0.1l-0.2,0l0-0.2c0-12.7,0-27.8,0-43.9
												l0-0.2h0.2h0c15.4,0,29.8,0,42,0h0.2l0,0.2c0,13.2-0.1,24.2-0.1,31.9c0,3.8,0,6.8,0,8.9c0,1,0,1.8,0,2.3
												c0,0.3,0,0.5,0,0.6C671.9,208.2,671.9,208.3,671.9,208.3z"/>
										</g>
									</g>
								</g>
							</g>
						</g>
					</g>
				</g>
			</g>
		</g>
	</g>
	<g>
		<g>
			<g>
				<g>
					<g>
						<g>
							<g>
								<g>
									<g>
										<rect x="643.9" y="179.3" class="st1" width="14.1" height="14.1"/>
									</g>
								</g>
							</g>
						</g>
					</g>
				</g>
			</g>
		</g>
	</g>
</g>
<g>
	<g>
		<g>
			<g>
				<g>
					<g>
						<path class="st3" d="M545.7,465.9c-1.8-1.5-5.7-6.3-2.7-11.9c1.1-2,3.5-3.1,5.6-4c2.1-0.9,4.4-1.7,6.2-3.2
							c3.3-2.8,4.3-7.6,6.5-11.3c2.5-4.3,7.3-7.6,12.3-7.4c5.7,0.3,10.5,5,12.7,10.3c2.2,5.3,2.2,11.3,2.3,17.1c0,3.2-0.1,6.8-2.5,9
							c-2.2,2-5.4,2-8.3,1.9c-10.5-0.3-20.9-0.6-31.4-1"/>
					</g>
				</g>
			</g>
		</g>
	</g>
	<g>
		<g>
			<g>
				<g>
					<g>
						<g>
							<path class="st0" d="M605.7,379.5h-82.6l14.9,88.7c0.7,3.9,3.5,6.9,7,7.9c0.1,0,0.2,0.1,0.3,0.1c0.2,0.1,0.5,0.1,0.7,0.2
								c0.5,0.1,1.1,0.2,1.7,0.2c0,0,0,0.1,0,0.1l0.4-0.1c0,0,0,0,0,0H585c0.7,0,1.4-0.1,2-0.2c4.3-0.7,7.8-4.2,8.4-8.7l7.2-61.1
								l0.3-2.4h0l2.8-24.2L605.7,379.5z M590.2,436.1h-8.5l0.9-25.7h9.8L590.2,436.1z M593.2,410.4h8.1l-3,25.7H591L593.2,410.4z
								 M569,464.6l-0.5-22.4h12.2l-0.7,22.4H569z M555.8,442.3h11.9l0.5,22.4h-10.6L555.8,442.3z M556.7,464.6h-9.9
								c-0.9-6-2.2-13.9-3.5-22.4H555L556.7,464.6z M555.3,436.1l-2-25.7h13.6l0.6,25.7H555.3z M568.3,436.1l-0.6-25.7h14l-0.9,25.7
								H568.3z M567.6,404.2l-0.5-23.8h15.7l-0.8,23.8H567.6z M566.8,404.2h-13.9l-1.9-23.8h15.2L566.8,404.2z M552,404.2h-14.7
								c-0.5-3.3-1-6.4-1.5-9.2c-1.5-9.6-2.1-13.3-2.4-14.6h16.8L552,404.2z M552.5,410.4l2,25.7h-12.2c-0.4-2.6-0.8-5.3-1.2-7.9
								c-1-6.1-1.9-12.1-2.8-17.8H552.5z M541.5,436.1h-8l-4.3-25.7h8.2C538.7,418.3,540.1,427.2,541.5,436.1z M542.4,442.3
								c1.2,7.7,2.4,15.4,3.5,22.4h-7.7l-3.8-22.4H542.4z M580.7,464.6l0.7-22.4h8.2l-1.9,22.4H580.7z M582.8,404.2l0.8-23.8h11.4
								l-2,23.8H582.8z M532.6,380.3c0.3,1.7,1.8,11.1,3.9,23.8h-8.3l-4-23.8H532.6z M594.9,464.6h-6.4l1.9-22.4h7.1L594.9,464.6z
								 M602,404.2h-8.3l2-23.8h9.1L602,404.2z"/>
						</g>
					</g>
				</g>
			</g>
		</g>
	</g>
</g>
<g>
	<g>
		<g>
			<g>
				<g>
					<g>
						<g>
							<g>
								<g>
									<g>
										<path class="st4" d="M437.3,369.2l-113.5-0.1c-13.7,0-24.7-11.1-24.7-24.7l0.1-284.6c0-13.7,11.1-24.7,24.7-24.7
											l113.5,0.1c13.7,0,24.7,11.1,24.7,24.7L462,344.5C462,358.1,450.9,369.2,437.3,369.2z"/>
									</g>
								</g>
							</g>
						</g>
						<g>
							<g>
								<g>
									<g>
										<path class="st2" d="M437.3,45.2l-22,0c-3,0-5.3,2.5-5.3,5.6l0,4c0,3.1-2.4,5.6-5.3,5.6l-42.9,0c-3,0-5.3-2.5-5.3-5.6l0-4
											c0-3.1-2.4-5.6-5.3-5.6l-7.7,0l-19.3,0c-9.6,0-17.3,7.7-17.3,17.3l-0.1,277.7c0,9.6,7.7,17.3,17.3,17.3l113.3,0.1
											c9.6,0,17.3-7.7,17.3-17.3l0.1-277.7C454.6,53,446.8,45.2,437.3,45.2z"/>
									</g>
								</g>
							</g>
						</g>
					</g>
				</g>
			</g>
		</g>
		<g>
			<g>
				<g>
					<g>
						<g>
							<rect x="416.3" y="54.2" class="st5" width="1.3" height="1.8"/>
						</g>
					</g>
				</g>
				<g>
					<g>
						<g>
							<rect x="418.4" y="53.5" class="st5" width="1.3" height="2.5"/>
						</g>
					</g>
				</g>
				<g>
					<g>
						<g>
							<rect x="420.4" y="52.9" class="st5" width="1.3" height="3.1"/>
						</g>
					</g>
				</g>
				<g>
					<g>
						<g>
							<rect x="422.5" y="51.7" class="st5" width="1.3" height="4.3"/>
						</g>
					</g>
				</g>
			</g>
			<g>
				<g>
					<g>
						<g>
							<path class="st5" d="M442.3,56.1H436c-0.2,0-0.5-0.2-0.5-0.5v-3.1c0-0.2,0.2-0.5,0.4-0.5l6.3,0c0,0,0.1,0,0.1,0
								c0,0,0,0.1,0,0.1v1h0.7c0.1,0,0.1,0.1,0.1,0.1v1.5c0,0.1-0.1,0.1-0.1,0.1h-0.7v1C442.4,56,442.3,56.1,442.3,56.1z
								 M442.2,52.3l-6.2,0c-0.1,0-0.2,0.1-0.2,0.2v3.1c0,0.1,0.1,0.2,0.2,0.2h6.2v-1c0-0.1,0.1-0.1,0.1-0.1h0.7v-1.3h-0.7
								c-0.1,0-0.1-0.1-0.1-0.1V52.3z"/>
						</g>
					</g>
				</g>
				<g>
					<g>
						<g>
							<polygon class="st5" points="436.3,55.4 436.3,52.8 441.7,52.8 441.7,54 441.7,54.2 441.7,55.4 							"/>
						</g>
					</g>
				</g>
			</g>
			<g>
				<g>
					<g>
						<g>
							<path class="st5" d="M429.7,55.9c0-0.3-0.2-0.5-0.5-0.5s-0.5,0.2-0.5,0.5c0,0.3,0.2,0.5,0.5,0.5S429.7,56.1,429.7,55.9z"/>
						</g>
					</g>
				</g>
				<g>
					<g>
						<g>
							<g>
								<path class="st5" d="M427.7,54.7l0.6,0.6c0.3-0.3,0.6-0.4,1-0.4c0.4,0,0.7,0.2,1,0.4l0.6-0.6c-0.4-0.4-1-0.7-1.6-0.7
									C428.7,54.1,428.1,54.3,427.7,54.7z"/>
							</g>
						</g>
					</g>
					<g>
						<g>
							<g>
								<path class="st5" d="M429.3,52.8c-1,0-1.9,0.4-2.5,1l0.6,0.6c0.5-0.5,1.2-0.8,1.9-0.8s1.4,0.3,1.9,0.8l0.6-0.6
									C431.1,53.2,430.2,52.8,429.3,52.8z"/>
							</g>
						</g>
					</g>
					<g>
						<g>
							<g>
								<path class="st5" d="M425.8,52.9l0.6,0.6c0.7-0.7,1.8-1.2,2.9-1.2c1.1,0,2.1,0.5,2.9,1.2l0.6-0.6c-0.9-0.9-2.1-1.4-3.5-1.4
									C427.9,51.4,426.7,52,425.8,52.9z"/>
							</g>
						</g>
					</g>
				</g>
			</g>
		</g>
		<g>
			<g>
				<path class="st5" d="M388.2,86.9h-7.6c-0.5,0-0.9-0.4-0.9-0.9v-5.2c0-0.5,0.4-0.9,0.9-0.9h7.6c0.5,0,0.9,0.4,0.9,0.9v5.2
					C389.1,86.4,388.7,86.9,388.2,86.9z"/>
			</g>
			<g>
				<path class="st5" d="M381.7,80.3h-1v-1.2c0-2.1,1.6-3.7,3.7-3.7c2.1,0,3.7,1.6,3.7,3.7v0.8h-1v-0.8c0-1.6-1.1-2.7-2.7-2.7
					c-1.5,0-2.7,1.1-2.7,2.7V80.3z"/>
			</g>
		</g>
		<g>
			<path class="st1" d="M307.8,255c0-17.9,10.4-35.5,26.2-44c11-6,23.8-7.6,36.1-10.4c12.2-2.8,24.9-7.4,32.5-17.5
				c10.2-13.5,8.3-32.8,15.6-48c6.7-13.8,21.3-23.4,36.7-23.9v232.5c0,7.8-6.3,14.1-14.1,14.1H321.9c-7.8,0-14.1-6.3-14.1-14.1
				L307.8,255z"/>
		</g>
		<g>
			<path class="st5" d="M332.8,133.9c0-8.6,4.5-13.8,10.8-13.8c6.3,0,10.8,5.1,10.8,13.8c0,8.6-4.6,13.8-10.8,13.8
				C337.3,147.7,332.8,142.5,332.8,133.9z M351.5,133.9c0-7.2-3.2-11.2-8-11.2c-4.7,0-8,4-8,11.2s3.2,11.2,8,11.2
				C348.3,145.1,351.5,141.1,351.5,133.9z"/>
			<path class="st5" d="M377.9,133.7c0,9.2-5,14-12.4,14c-2.4,0-4.7-0.4-6.4-1.5l1.1-2.2c1.4,0.9,3.2,1.3,5.3,1.3
				c5.8,0,9.6-3.8,9.6-11.1c0-0.6,0-1.4-0.1-2.2c-1.4,3-4.5,4.6-8.3,4.6c-5.4,0-9.1-3.2-9.1-8.1c0-5.1,4-8.3,9.2-8.3
				C374,120.1,377.9,125.1,377.9,133.7z M374.1,128.3c0-3-2.5-5.8-7.2-5.8c-3.9,0-6.6,2.3-6.6,5.9c0,3.6,2.6,5.8,6.8,5.8
				C371.3,134.2,374.1,131.6,374.1,128.3z"/>
			<path class="st5" d="M382,129c0-1.2,0.9-2.1,2-2.1s2.1,0.9,2.1,2.1c0,1.2-1,2.1-2.1,2.1S382,130.2,382,129z M382,145.5
				c0-1.2,0.9-2.1,2-2.1s2.1,0.9,2.1,2.1c0,1.2-1,2.1-2.1,2.1S382,146.7,382,145.5z"/>
			<path class="st5" d="M408.6,144.9v2.5h-19v-2l11.3-11c3.1-3,3.6-4.8,3.6-6.7c0-3.1-2.2-5.1-6.3-5.1c-3.2,0-5.6,1-7.4,3l-2-1.7
				c2.1-2.5,5.5-3.9,9.6-3.9c5.5,0,9,2.8,9,7.3c0,2.6-0.8,4.9-4.4,8.5l-9.2,9H408.6z"/>
			<path class="st5" d="M411.9,133.9c0-8.6,4.5-13.8,10.8-13.8c6.3,0,10.8,5.1,10.8,13.8c0,8.6-4.6,13.8-10.8,13.8
				C416.5,147.7,411.9,142.5,411.9,133.9z M430.7,133.9c0-7.2-3.2-11.2-8-11.2c-4.7,0-8,4-8,11.2s3.2,11.2,8,11.2
				C427.4,145.1,430.7,141.1,430.7,133.9z"/>
		</g>
		<g>
			
				<ellipse transform="matrix(0.2102 -0.9777 0.9777 0.2102 170.8257 402.296)" class="st0" cx="334.4" cy="95.4" rx="19.5" ry="19.5"/>
		</g>
	</g>
</g>
<g>
	<g>
		<g>
			<path class="st6" d="M158.4,250.9c-1.4-1-3.2-1.4-4.7-2.2c-1.6-0.7-3.1-2-3.2-3.8c-0.2-2.6,2.6-4.5,2.8-7
				c0.2-3.6-4.6-5.6-5.4-9.1c-0.6-2.9,1.9-5.7,1.8-8.7c-0.1-3-2.7-5.2-3.9-8c-2.8-6.4,2.3-14.6-1.5-20.4c-1-1.6-2.6-2.7-3.9-4
				c-1.3-1.3-2.5-3-2.3-4.9l-7.2-3.3c-2.4-3.7-7.9-3.8-12-2.3c-4.1,1.6-7.7,4.4-12,5.5c-2.1,0.5-1.8-2.6-3.9-2.1
				c-2.8,0.6-6.2,3.8-6.9,6.5c-0.8,2.9-1.4,6.1-2.5,8.9c-1.1,3.1-4.5,5.3-4.8,8.6c-0.4,3.8,3.6,7,3.6,10.8c0,4.2-4.6,7.9-3.1,11.8
				c0.8,2.2,3.4,3.4,4.3,5.6c1.2,3-1.2,6.4-1,9.6c0.2,3.2,2.9,5.7,5.5,7.6c9.8,7.5,20.7,13.8,32.4,17.8c5.1,1.7,10.4,3.1,15.7,2.6
				s10.7-3,13.5-7.6C162,259,162,253.4,158.4,250.9z"/>
		</g>
		<g>
			<g>
				<path class="st6" d="M137.8,181c-1.3-5.2-5.6-9.6-10.8-11c-5.2-1.4-11.1,0.2-14.9,4c-1.5,1.6-2.8,3.5-4.6,4.7
					c-2.1,1.4-2.4,1-4.7,1.9c-2.3,0.9-6.5,7.3-6.5,9.8l-1.2,10.9c0.1,2.5,3.4,4,5.8,3.1c2.4-0.8,4-3.1,5.3-5.3
					c1.3-2.2,2.5-4.6,4.5-6c3.5-2.4,8.1-1.6,12.3-0.7c4.1,0.8,8.9,1.5,12.1-1.3C138.1,188.7,138.7,184.5,137.8,181z"/>
			</g>
			<g>
				<g>
					<g>
						<path class="st7" d="M140.1,196.5c-0.5-7.1-5.2-15.7-12.2-15l-22,5.6c-2.1,0.2-3.7,2.1-3.7,4.2l2.5,53c-0.1,0-0.1,0-0.2,0
							c0,0,8.9,19,23.5,14.4c2.9-0.9,0.3-8.1,0.8-11.3l0.1,0c0-0.4,0-0.7,0-1.1c0.5-3.7,0.1-7.3,0.1-7.3l0,0c0-4.3,0-6,0-6
							c0,0,9-1.5,10.9-13.3C140.9,213.9,140.6,204.3,140.1,196.5z"/>
					</g>
				</g>
				<g>
					<g>
						<g>
							<g>
								<g>
									<g>
										<g>
											<g>
												<g>
													<g>
														<g>
															<g>
																<g>
																	<g>
																		<g>
																			<g>
																				<g>
																					<g>
																						<path class="st5" d="M138.2,205.6c0,0.8-0.6,1.5-1.5,1.5c-0.8,0-1.5-0.6-1.6-1.4c0-0.8,0.6-1.5,1.5-1.5
																							C137.5,204.2,138.2,204.8,138.2,205.6z"/>
																					</g>
																				</g>
																			</g>
																		</g>
																	</g>
																</g>
															</g>
														</g>
													</g>
													<g>
														<g>
															<g>
																<g>
																	<g>
																		<g>
																			<g>
																				<g>
																					<g>
																						<g>
																							<path class="st5" d="M138,201.5c-0.2,0.2-1.3-0.6-3-0.6c-1.6,0-2.8,0.8-3,0.6c-0.1-0.1,0.1-0.4,0.6-0.8
																								c0.5-0.4,1.4-0.7,2.4-0.7c1,0,1.9,0.4,2.4,0.8C137.9,201,138.1,201.4,138,201.5z"/>
																						</g>
																					</g>
																				</g>
																			</g>
																		</g>
																	</g>
																</g>
															</g>
														</g>
													</g>
												</g>
												<g>
													<g>
														<g>
															<g>
																<g>
																	<g>
																		<g>
																			<g>
																				<g>
																					<g>
																						<path class="st5" d="M122.9,206.1c0,0.8-0.6,1.5-1.5,1.5c-0.8,0-1.5-0.6-1.6-1.4c0-0.8,0.6-1.5,1.5-1.5
																							C122.1,204.7,122.8,205.3,122.9,206.1z"/>
																					</g>
																				</g>
																			</g>
																		</g>
																	</g>
																</g>
															</g>
														</g>
													</g>
													<g>
														<g>
															<g>
																<g>
																	<g>
																		<g>
																			<g>
																				<g>
																					<g>
																						<g>
																							<path class="st5" d="M122,201.8c-0.2,0.2-1.3-0.6-3-0.6c-1.6,0-2.8,0.8-3,0.6c-0.1-0.1,0.1-0.4,0.6-0.8
																								c0.5-0.4,1.4-0.7,2.4-0.7c1,0,1.9,0.4,2.4,0.8C121.9,201.4,122.1,201.7,122,201.8z"/>
																						</g>
																					</g>
																				</g>
																			</g>
																		</g>
																	</g>
																</g>
															</g>
														</g>
													</g>
												</g>
												<g>
													<g>
														<g>
															<g>
																<g>
																	<g>
																		<g>
																			<g>
																				<g>
																					<g>
																						<path class="st5" d="M127.9,213.9c0-0.1,1-0.3,2.6-0.5c0.4,0,0.8-0.1,0.9-0.4c0.1-0.3-0.1-0.7-0.3-1.2
																							c-0.4-1-0.8-2.1-1.2-3.2c-1.7-4.5-3-8.2-2.8-8.3c0.2-0.1,1.7,3.5,3.4,8c0.4,1.1,0.8,2.2,1.2,3.2
																							c0.2,0.5,0.4,1,0.2,1.6c-0.1,0.3-0.4,0.5-0.7,0.6c-0.3,0.1-0.5,0.1-0.7,0.1C129,214,127.9,214,127.9,213.9z"
																							/>
																					</g>
																				</g>
																			</g>
																		</g>
																	</g>
																</g>
															</g>
														</g>
													</g>
												</g>
												<g>
													<g>
														<g>
															<g>
																<g>
																	<g>
																		<g>
																			<g>
																				<g>
																					<path class="st8" d="M129.1,233.1c0,0-7.9,0.5-15.8-4.2c0,0,3.8,8.1,15.6,7L129.1,233.1z"/>
																				</g>
																			</g>
																		</g>
																	</g>
																</g>
															</g>
														</g>
													</g>
												</g>
												<g>
													<g>
														<g>
															<g>
																<g>
																	<g>
																		<g>
																			<g>
																				<g>
																					<path class="st8" d="M127.2,217.8c-0.6-0.8-1.6-1.2-2.6-1.1c-0.7,0.1-1.4,0.4-1.8,1c-0.4,0.6-0.5,1.4-0.1,1.9
																						c0.4,0.6,1.4,0.8,2.1,0.5c0.8-0.2,1.4-0.7,2.1-1.2c0.2-0.1,0.4-0.3,0.5-0.5C127.4,218.3,127.5,218,127.2,217.8
																						"/>
																				</g>
																			</g>
																		</g>
																	</g>
																</g>
															</g>
														</g>
													</g>
												</g>
												<g>
													<g>
														<g>
															<g>
																<g>
																	<g>
																		<g>
																			<g>
																				<g>
																					<g>
																						<path class="st5" d="M123.1,215c0.3,0,0.3,1.7,1.8,3c1.5,1.3,3.4,1.1,3.4,1.3c0,0.1-0.4,0.3-1.2,0.4
																							c-0.8,0-1.9-0.2-2.8-1c-0.9-0.8-1.3-1.8-1.4-2.5C122.8,215.4,123,215,123.1,215z"/>
																					</g>
																				</g>
																			</g>
																		</g>
																	</g>
																</g>
															</g>
														</g>
													</g>
												</g>
											</g>
										</g>
									</g>
									<g>
										<g>
											<g>
												<g>
													<g>
														<g>
															<g>
																<g>
																	<g>
																		<path class="st5" d="M122.7,199c-0.2,0.4-1.8,0.2-3.7,0.5c-1.9,0.2-3.4,0.8-3.7,0.4c-0.1-0.2,0.2-0.6,0.8-1
																			c0.6-0.4,1.6-0.8,2.7-1c1.1-0.1,2.2,0.1,2.9,0.3C122.4,198.4,122.8,198.8,122.7,199z"/>
																	</g>
																</g>
															</g>
														</g>
													</g>
												</g>
											</g>
										</g>
									</g>
									<g>
										<g>
											<g>
												<g>
													<g>
														<g>
															<g>
																<g>
																	<g>
																		<path class="st5" d="M137.4,196.8c-0.3,0.4-1.4,0-2.8,0c-1.3-0.1-2.5,0.3-2.8-0.1c-0.1-0.2,0.1-0.6,0.6-0.9
																			c0.5-0.3,1.3-0.6,2.2-0.6c0.9,0,1.7,0.4,2.2,0.7C137.3,196.2,137.5,196.6,137.4,196.8z"/>
																	</g>
																</g>
															</g>
														</g>
													</g>
												</g>
											</g>
										</g>
									</g>
								</g>
							</g>
						</g>
					</g>
				</g>
			</g>
			<g>
				<path class="st6" d="M127.5,178.5l-1-1.3c-6.8,0.8-13.5,2.5-19.8,5.1c-2.5,1-5.1,2.3-6.8,4.4c-2.4,2.9-2.8,6.9-3,10.7
					c-1,14.3-1.9,29,2.6,42.6c1.1-1.7,3.2-2.5,5.2-2.9c2-0.4,4.1-0.5,5.9-1.5c2-1,3.5-3,4-5.2c0.6-2.2,0.2-4.5-0.7-6.6
					c-1.1-2.3-3-4.5-2.6-6.9c0.5-2.6,3.5-4.1,4.2-6.6c1.2-4.4-5-8.3-3.7-12.7c0.5-1.6,1.9-2.8,3.4-3.5c1.5-0.7,3.2-1.2,4.7-1.9
					C124.9,189.9,128.1,184.1,127.5,178.5z"/>
			</g>
		</g>
	</g>
	<g>
		<g>
			<g>
				<path class="st7" d="M186.9,268.3l-13.8,21.4c0,0,1.5,2.5,4.8,2.4c3.3-0.1,7.9-8.4,8.4-10.1c0.5-1.7-0.2-3.3,0.3-4.4
					c0.5-1.1,0.3-4.2,0.3-4.2C186.9,273.7,190,269.6,186.9,268.3z"/>
			</g>
			<g>
				<path class="st5" d="M169.3,289.8l7.2-28.4c0.2-0.9,0.8-1.6,1.5-2l10.4-5.9c0.6-0.4,1.4-0.2,1.9,0.4v0c0.2,0.3,0.3,0.8,0.2,1.2
					l-7.6,29.9L169.3,289.8z"/>
			</g>
			<g>
				<polygon class="st9" points="165.7,311.8 182.4,281 176.1,272.8 152.7,290.6 158.8,307.6 				"/>
			</g>
			<g>
				<g>
					<path class="st8" d="M182.6,287.6c0,0,0.2-0.4,0.3-1.3c0.1-0.8,0-2.1-0.3-3.6l0-0.1l0-0.1c0.3-0.5,0.4-1,0.2-1.6
						c-0.2-0.6-0.6-1.1-1.2-1.4l-0.2-0.1l0.1-0.2c0.6-0.9,1.2-1.8,1.9-2.8c0.2-0.2,0.4-0.5,0.4-0.7c0.1-0.2,0.1-0.5-0.1-0.7
						c-0.2-0.5-0.7-1-1.2-1.3l-0.2-0.2l0.2-0.2c0.5-0.6,1.1-1.2,1.7-1.8c1-1.1,1.9-2.1,2.7-3.2c0.4-0.5,0.8-1.1,1-1.6
						c0.1-0.3,0.2-0.6,0.3-0.8c0-0.3-0.1-0.4-0.3-0.4l-0.1,0l0,0c-0.2-0.1-0.6,0-0.9,0.1c-0.3,0.1-0.6,0.3-1,0.4
						c-0.6,0.3-1.2,0.7-1.7,1c-1.1,0.7-1.9,1.3-2.7,1.8c-0.7,0.5-1.2,0.9-1.7,1.2c-0.4,0.3-0.6,0.4-0.6,0.4c0,0,0.2-0.2,0.5-0.5
						c0.4-0.3,0.9-0.8,1.6-1.4c0.7-0.6,1.6-1.2,2.6-1.9c0.5-0.4,1.1-0.7,1.7-1.1c0.3-0.2,0.6-0.3,1-0.5c0.4-0.1,0.7-0.3,1.3-0.2
						l-0.1,0c0.5,0,0.8,0.6,0.7,0.9c0,0.4-0.1,0.7-0.3,1c-0.3,0.6-0.7,1.2-1.1,1.7c-0.8,1.1-1.8,2.2-2.8,3.2
						c-0.6,0.6-1.1,1.2-1.7,1.7l0-0.4c0.6,0.4,1.1,0.9,1.3,1.6c0.1,0.3,0.2,0.7,0.1,1.1c-0.1,0.4-0.3,0.6-0.5,0.8
						c-0.7,1-1.3,1.9-1.9,2.8l-0.1-0.3c0.6,0.5,1.1,1,1.3,1.7c0.2,0.7,0,1.4-0.3,1.9l0-0.1c0.4,1.5,0.4,2.8,0.2,3.7
						c-0.1,0.4-0.2,0.7-0.3,1C182.7,287.6,182.6,287.7,182.6,287.6z"/>
				</g>
			</g>
			<g>
				<g>
					<path class="st10" d="M190.4,253.8c0,0-0.3,0.2-0.9,0.6c-0.6,0.4-1.4,0.9-2.4,1.5c-1.1,0.6-2.3,1.4-3.7,2.1
						c-0.7,0.4-1.4,0.8-2.2,1.2c-0.8,0.4-1.6,0.8-2.2,1.4c-0.6,0.6-0.9,1.4-1.1,2.3c-0.2,0.8-0.4,1.6-0.6,2.4
						c-0.4,1.5-0.8,2.9-1.1,4.1c-0.3,1.2-0.6,2.1-0.8,2.7c-0.2,0.6-0.3,1-0.4,1c0,0,0-0.4,0.2-1c0.1-0.7,0.3-1.6,0.6-2.8
						c0.3-1.2,0.6-2.6,1-4.1c0.2-0.8,0.4-1.6,0.6-2.4c0.2-0.8,0.5-1.8,1.2-2.5c0.7-0.7,1.5-1.1,2.3-1.5c0.8-0.4,1.5-0.8,2.2-1.2
						c1.4-0.8,2.6-1.4,3.7-2c1.1-0.6,1.9-1,2.5-1.3C190,253.9,190.3,253.8,190.4,253.8z"/>
				</g>
			</g>
			<g>
				<path class="st11" d="M183.4,263.5c-0.3,0.6-0.3,1.2-0.1,1.3c0.2,0.1,0.6-0.3,0.9-0.9c0.3-0.6,0.3-1.2,0.1-1.3
					C184.1,262.5,183.7,262.9,183.4,263.5z"/>
			</g>
		</g>
		<g>
			<g>
				<path class="st12" d="M131.5,246.3L131.5,246.3c7.2,2.6,13.1,8,16.4,15l22.4,47.6l19.3,7.8l-17,4.9l-15.1-11.1L131.5,246.3z"/>
			</g>
			<g>
				<path class="st2" d="M172.6,321.6l-8.1,6.3L124,286.2l-23.2-41.8l2.7-7.8l17.9,7.5l6.4,9.5l1.4-12l1.1,1.6l1.9,5.1
					c0,0,17.6,14.6,21.4,26.2c3.2,9.7,2.2,29.7,4.1,35.1L172.6,321.6z"/>
			</g>
			<g>
				<path class="st12" d="M96.5,243.8c-0.3,0.8-17.3,7.7-18.1,13.6c-0.8,6,12.3,52.1,12.3,52.1l20.7,18.3h53.2l-16.9-31.6
					c-3.6-6.8-8.2-13.1-13.7-18.6c-5-5.1-11-11.3-14.1-15.1c-3.4-4-17.7-23-17.7-23L96.5,243.8z"/>
			</g>
			<g>
				<g>
					<path class="st5" d="M107.2,245.7c0-0.1,1.2,0.5,3,1.4c1.8,0.9,4.3,2.2,7.1,3.6c1.1,0.6,2.2,1.1,3.1,1.6l-0.4,0.2
						c-0.1-2.3,0.1-4.2,0.3-5.6c0.3-1.4,0.5-2.1,0.6-2.1c0.1,0-0.1,0.8-0.3,2.2c-0.2,1.3-0.3,3.3-0.1,5.5l0,0.4l-0.4-0.2
						c-1-0.5-2-1-3.1-1.6c-2.8-1.4-5.2-2.7-7-3.7C108.2,246.4,107.1,245.7,107.2,245.7z"/>
				</g>
			</g>
			<g>
				<g>
					<path class="st5" d="M148.2,287.8c0,0-0.3-0.5-0.9-1.4c-0.6-1-1.3-2.2-2.2-3.8c-1.8-3.2-4.4-7.6-7.2-12.4
						c-2.9-4.8-5.5-9.1-7.5-12.2c-0.9-1.5-1.7-2.7-2.3-3.7c-0.5-0.9-0.8-1.4-0.8-1.4c0,0,0.4,0.4,1,1.3c0.6,0.8,1.4,2.1,2.4,3.6
						c2,3.1,4.7,7.4,7.6,12.2c2.9,4.8,5.4,9.2,7.1,12.5c0.9,1.6,1.6,2.9,2,3.8C147.9,287.2,148.2,287.8,148.2,287.8z"/>
				</g>
			</g>
			<g class="st13">
				<g>
					<path d="M140,320c3.1,0.5,6.3,1,9.3,0.5c3.1-0.6,6.1-2.5,7.1-5.5c0.3-0.9,0.4-2,1.2-2.7c1.2-1.1,3.1-0.4,4.7-0.6
						c1.8-0.2,3.3-1.5,4.3-3c0.9-1.5,1.4-3.3,1.8-5.1c0.2-0.9,0.4-1.8,0.3-2.6c-0.1-0.9-0.6-1.8-1.4-2.2c-1.2-0.5-2.6,0.2-3.7,1
						c-8.8,6.3-16.8,13.6-24.7,20.9"/>
				</g>
			</g>
		</g>
		<g>
			<path class="st7" d="M159.8,284.7c0,0,3-7,4.7-8c1.6-1,9.7-5.7,9.7-5.7l-1,3.8l7.9-5.5c1-0.7,6.6-5.8,7.6-3.8
				c0.7,1.4-3.9,5.2-4.5,6.1c-1.5,2.1-1,1.9-1,1.9s1.7,1,0.8,2.5c-0.8,1.5-2.3,3.3-2.3,3.3s2.2,0.8,0.9,3.6c0,0,0.6,1.5,0.2,3.7
				c-0.4,2.1-4.2,6.2-4.2,6.2l-19.2,9.2l-7.8-13.2L159.8,284.7z"/>
		</g>
		<g>
			<path class="st9" d="M115,271.6l12.3,26.3l27.4-11.9c0,0,11.4,6.6,9.8,13.9l-24.6,20.2c-4.7,3.8-10.7,5.6-16.7,4.9h0
				c-6.4-0.8-12.2-4.4-15.8-9.8L89.6,288l-10-16.3c-3.2-5.2-3.2-11.9,0.4-16.9c1-1.3,2.2-2.5,3.5-3.3
				C88,248.8,101.2,247.7,115,271.6z"/>
		</g>
		<g>
			<g>
				<path class="st8" d="M175.7,273.1c0.1,0.1-1.7,1.4-4,2.8c-2.3,1.4-4.2,2.5-4.3,2.4c-0.1-0.1,1.7-1.4,4-2.8
					C173.7,274,175.6,273,175.7,273.1z"/>
			</g>
		</g>
		<g>
			<g>
				<path class="st8" d="M183.4,272.8c0.1,0.1-1.5,1.8-3.6,3.9c-2.1,2-3.8,3.6-3.9,3.5c-0.1-0.1,1.5-1.8,3.6-3.9
					C181.6,274.3,183.3,272.7,183.4,272.8z"/>
			</g>
		</g>
		<g>
			<g>
				<path class="st8" d="M182.4,278.8c0.1,0.1-0.7,1.1-1.7,2.4c-1,1.2-2,2.1-2.1,2c-0.1-0.1,0.7-1.1,1.7-2.4
					C181.4,279.6,182.3,278.7,182.4,278.8z"/>
			</g>
		</g>
		<g>
			<g>
				<path class="st8" d="M182.7,282.8c0.1,0.1-0.3,0.7-0.9,1.5c-0.5,0.8-1,1.4-1.1,1.3c-0.1-0.1,0.2-0.8,0.7-1.6
					C182,283.2,182.6,282.7,182.7,282.8z"/>
			</g>
		</g>
		<g>
			<g>
				<path class="st5" d="M135.7,322.7c0,0,0,0,0.1-0.1c0.1-0.1,0.2-0.2,0.4-0.3c0.4-0.3,0.9-0.7,1.6-1.3c1.4-1.1,3.4-2.7,5.9-4.7
					c5.1-4,12.4-9.7,21.1-16.5l-0.1,0.2c0-1.3-0.2-2.7-0.8-4c-0.6-1.3-1.3-2.5-2.3-3.7c-1.9-2.3-4.3-4.3-7-6l0.2,0
					c-4.5,2-9.3,4-14.2,6.2c-4.5,2-8.9,3.9-13.2,5.7l-0.2,0.1l-0.1-0.2c-3.6-7.1-7-13.9-10.4-19.7c-1.7-2.9-3.4-5.6-4.9-8.2
					c-1.6-2.5-3-4.9-4.5-6.9c-2.9-4.1-6.1-6.6-8.5-7.9c-0.6-0.4-1.1-0.6-1.6-0.8c-0.5-0.2-0.9-0.4-1.2-0.6c-0.3-0.1-0.6-0.2-0.7-0.3
					c-0.2-0.1-0.3-0.1-0.2-0.1c0,0,1.5,0.4,3.9,1.7c1.2,0.6,2.7,1.6,4.2,2.9c1.5,1.3,3,3,4.5,5c1.5,2,3,4.4,4.6,6.9
					c1.6,2.5,3.3,5.2,5,8.2c3.4,5.8,6.8,12.6,10.5,19.7l-0.3-0.1c4.3-1.9,8.7-3.8,13.2-5.7c4.9-2.1,9.6-4.2,14.2-6.1l0.1-0.1
					l0.1,0.1c2.8,1.7,5.2,3.8,7.1,6.1c0.9,1.2,1.7,2.5,2.3,3.8c0.6,1.4,0.8,2.8,0.8,4.2l0,0.1l-0.1,0.1c-8.7,6.7-16,12.4-21.2,16.4
					c-2.6,2-4.6,3.5-6,4.6c-0.7,0.5-1.2,0.9-1.6,1.2c-0.2,0.1-0.3,0.2-0.4,0.3C135.7,322.7,135.7,322.7,135.7,322.7z"/>
			</g>
		</g>
		<g>
			<g>
				<path class="st5" d="M125.7,306.2c-0.1-0.1,0.6-1.9,1-4.4c0.4-2.4,0.4-4.5,0.6-4.5c0.1,0,0.4,2.1,0,4.6
					C126.8,304.4,125.8,306.2,125.7,306.2z"/>
			</g>
		</g>
	</g>
	<g>
		<g>
			<g>
				<g>
					<g>
						<g>
							<g>
								<path class="st6" d="M276.2,383.6l14.3,17.9c0,0,23.1-8.5,26-5.5l-33.8,29L259.3,398L276.2,383.6z"/>
							</g>
						</g>
					</g>
				</g>
				<g class="st14">
					<g>
						<g>
							<g>
								<g>
									<path class="st11" d="M278.9,409c-0.5,0.7-0.3,1.9,0.4,2.4c0.7,0.5,1.9,0.4,2.4-0.4c0.5-0.7,0.3-2.1-0.4-2.5
										c-0.8-0.4-2.1-0.2-2.4,0.7"/>
								</g>
							</g>
						</g>
					</g>
				</g>
				<g class="st14">
					<g>
						<g>
							<g>
								<path class="st11" d="M282.8,425.1l-2.3-2.8l33.3-26.8c0,0,2.1-0.6,2.8,0.6L282.8,425.1z"/>
							</g>
						</g>
					</g>
				</g>
				<g>
					<g>
						<g>
							<g>
								<g>
									<path class="st5" d="M291,400.9c0.1,0.2-0.6,1-1,2.2c-0.4,1.2-0.2,2.3-0.4,2.4c-0.2,0.1-0.8-1.1-0.3-2.6
										C289.7,401.3,290.9,400.7,291,400.9z"/>
								</g>
							</g>
						</g>
					</g>
				</g>
				<g>
					<g>
						<g>
							<g>
								<g>
									<path class="st5" d="M295.8,399.3c0.2,0.1-0.3,1-0.3,2.2c0,1.2,0.5,2.1,0.3,2.2c-0.1,0.2-1.1-0.7-1.1-2.2
										C294.7,400,295.6,399.1,295.8,399.3z"/>
								</g>
							</g>
						</g>
					</g>
				</g>
				<g>
					<g>
						<g>
							<g>
								<g>
									<path class="st5" d="M301.4,401.8c-0.1,0.2-1.1-0.5-1.4-1.7c-0.4-1.3,0.1-2.3,0.3-2.2c0.2,0.1,0.1,1,0.4,2
										C301,400.9,301.6,401.6,301.4,401.8z"/>
								</g>
							</g>
						</g>
					</g>
				</g>
				<g>
					<g>
						<g>
							<g>
								<g>
									<path class="st5" d="M287.2,397.1c0.1,0.2-0.9,0.6-1.8,1.5c-0.9,0.8-1.4,1.8-1.6,1.7c-0.2,0,0-1.3,1-2.3
										C286,397.1,287.2,396.9,287.2,397.1z"/>
								</g>
							</g>
						</g>
					</g>
				</g>
			</g>
			<g class="st13">
				<g>
					<g>
						<g>
							<polygon points="279.1,387.1 281.6,390.3 264.9,404.4 262.5,401.6 							"/>
						</g>
					</g>
				</g>
			</g>
			<g>
				<g>
					<g>
						<g>
							<g>
								<path class="st5" d="M284.3,393.6c0.1,0.1-0.5,0.7-1.7,1.4c-0.6,0.4-1.4,0.7-2.2,1c-0.4,0.1-0.9,0.2-1.4,0.3
									c-0.2,0-0.5,0.1-0.9,0c-0.3,0-0.8-0.4-0.8-0.8c0-0.4,0.2-0.8,0.4-1c0.2-0.2,0.5-0.3,0.7-0.5c0.5-0.2,0.9-0.4,1.4-0.5
									c0.9-0.3,1.7-0.3,2.4-0.3c1.4,0.1,2.2,0.4,2.2,0.5c0,0.1-0.9-0.1-2.2,0c-0.7,0-1.4,0.2-2.2,0.4c-0.4,0.1-0.8,0.3-1.2,0.5
									c-0.4,0.2-0.7,0.5-0.7,0.7c0,0.1,0,0.1,0.2,0.2c0.2,0,0.4,0,0.6,0c0.5-0.1,0.9-0.2,1.3-0.3c0.8-0.2,1.6-0.5,2.2-0.8
									C283.5,394,284.2,393.5,284.3,393.6z"/>
							</g>
						</g>
					</g>
				</g>
			</g>
			<g>
				<g>
					<g>
						<g>
							<g>
								<path class="st5" d="M284.3,394c0,0.1-0.9-0.2-1.9-1.3c-0.5-0.5-1-1.2-1.4-2.1c-0.2-0.4-0.3-0.9-0.5-1.4
									c-0.1-0.5-0.2-1.2,0.3-1.8c0.3-0.3,0.8-0.3,1.1-0.1c0.3,0.1,0.5,0.3,0.7,0.5c0.4,0.3,0.7,0.7,1,1.1c0.5,0.8,0.7,1.7,0.8,2.4
									c0.1,1.4-0.4,2.2-0.5,2.2c-0.1,0,0.2-0.8,0-2.1c-0.1-0.6-0.4-1.4-0.8-2.1c-0.2-0.3-0.5-0.7-0.9-1c-0.4-0.3-0.7-0.5-0.8-0.3
									c-0.2,0.1-0.2,0.7-0.1,1.1c0.1,0.5,0.2,0.9,0.4,1.3c0.3,0.8,0.7,1.5,1.1,2C283.6,393.4,284.3,393.9,284.3,394z"/>
							</g>
						</g>
					</g>
				</g>
			</g>
		</g>
		<g>
			<g>
				<g>
					<g>
						<g>
							<g>
								<path class="st6" d="M260.7,438.9l-0.9,23.5c0,0,23.6,8.8,23.8,13.1l-45.6-0.1l-0.1-36.6L260.7,438.9z"/>
							</g>
						</g>
					</g>
				</g>
				<g class="st14">
					<g>
						<g>
							<g>
								<g>
									<path class="st11" d="M245.7,460.4c-0.9,0.2-1.5,1.2-1.3,2.1c0.2,0.9,1.2,1.5,2.1,1.3c0.9-0.2,1.7-1.4,1.4-2.3
										c-0.3-0.9-1.5-1.5-2.3-1.1"/>
								</g>
							</g>
						</g>
					</g>
				</g>
				<g class="st14">
					<g>
						<g>
							<g>
								<path class="st11" d="M238,475.4l0.1-3.7l43.7,1.5c0,0,2,0.9,1.8,2.3L238,475.4z"/>
							</g>
						</g>
					</g>
				</g>
				<g>
					<g>
						<g>
							<g>
								<g>
									<path class="st5" d="M260.5,462.1c0,0.2-1.1,0.3-2.2,1c-1.1,0.7-1.7,1.6-1.9,1.6c-0.2,0,0.1-1.4,1.5-2.2
										C259.2,461.7,260.6,461.9,260.5,462.1z"/>
								</g>
							</g>
						</g>
					</g>
				</g>
				<g>
					<g>
						<g>
							<g>
								<g>
									<path class="st5" d="M265.3,464.1c0.1,0.2-0.9,0.6-1.7,1.5c-0.8,0.9-1,1.9-1.2,1.9c-0.2,0-0.4-1.3,0.6-2.4
										C264,464,265.3,463.9,265.3,464.1z"/>
								</g>
							</g>
						</g>
					</g>
				</g>
				<g>
					<g>
						<g>
							<g>
								<g>
									<path class="st5" d="M268,469.9c-0.2,0-0.5-1.1,0.1-2.3c0.6-1.2,1.6-1.7,1.7-1.5c0.1,0.2-0.6,0.8-1,1.8
										C268.3,468.9,268.2,469.8,268,469.9z"/>
								</g>
							</g>
						</g>
					</g>
				</g>
				<g>
					<g>
						<g>
							<g>
								<g>
									<path class="st5" d="M260.1,456.8c-0.1,0.2-1.1-0.1-2.4,0c-1.3,0.1-2.2,0.5-2.4,0.3c-0.1-0.2,0.8-1,2.3-1.1
										C259.2,455.9,260.2,456.6,260.1,456.8z"/>
								</g>
							</g>
						</g>
					</g>
				</g>
			</g>
			<g class="st13">
				<g>
					<g>
						<g>
							<polygon points="260.5,443.5 260.3,447.7 237.9,447.5 237.9,443.7 							"/>
						</g>
					</g>
				</g>
			</g>
			<g>
				<g>
					<g>
						<g>
							<g>
								<path class="st5" d="M260.2,452c0,0.1-0.9,0.2-2.3,0c-0.7-0.1-1.5-0.4-2.4-0.7c-0.4-0.2-0.9-0.4-1.3-0.7
									c-0.2-0.1-0.5-0.3-0.7-0.5c-0.2-0.2-0.4-0.8-0.1-1.2c0.2-0.3,0.6-0.5,1-0.5c0.3,0,0.6,0.1,0.9,0.1c0.5,0.1,1,0.3,1.4,0.5
									c0.9,0.4,1.6,0.9,2.1,1.4c1.1,1,1.4,1.8,1.3,1.9c-0.1,0.1-0.6-0.6-1.7-1.4c-0.5-0.4-1.2-0.8-2-1.2c-0.4-0.2-0.8-0.3-1.3-0.4
									c-0.5-0.1-0.9-0.1-1,0.1c0,0.1-0.1,0.1,0,0.3c0.1,0.1,0.3,0.3,0.5,0.4c0.4,0.3,0.8,0.5,1.2,0.7c0.8,0.4,1.6,0.7,2.2,0.9
									C259.4,451.8,260.2,451.9,260.2,452z"/>
							</g>
						</g>
					</g>
				</g>
			</g>
			<g>
				<g>
					<g>
						<g>
							<g>
								<path class="st5" d="M259.9,452.3c-0.1,0-0.5-0.8-0.6-2.2c0-0.7,0-1.6,0.3-2.5c0.1-0.5,0.3-0.9,0.6-1.4
									c0.3-0.5,0.6-1.1,1.5-1.2c0.5,0,0.8,0.3,1,0.6c0.2,0.3,0.2,0.6,0.2,0.8c0.1,0.5,0.1,1.1,0,1.5c-0.1,1-0.5,1.8-1,2.4
									c-0.9,1.2-1.8,1.4-1.8,1.4c-0.1-0.1,0.7-0.5,1.4-1.7c0.3-0.6,0.6-1.3,0.7-2.1c0-0.4,0-0.9,0-1.3c-0.1-0.5-0.3-0.9-0.4-0.8
									c-0.2,0-0.6,0.4-0.8,0.7c-0.2,0.4-0.4,0.8-0.6,1.2c-0.3,0.8-0.4,1.6-0.4,2.3C259.8,451.5,260,452.3,259.9,452.3z"/>
							</g>
						</g>
					</g>
				</g>
			</g>
		</g>
		<g>
			<g>
				<polygon class="st5" points="237.5,327.8 282.7,387.8 261.6,405.9 239.8,377.5 				"/>
			</g>
			<g>
				<path class="st5" d="M142,330.7c0,0,72.6-22.1,79.2-21.8c6.6,0.3,19.3,24.3,19.3,24.3l-20.4-0.7c-5.2,12.8-14.9,26-25.8,39.3
					l-41.7-1.9L142,330.7z"/>
			</g>
			<g>
				<g>
					<path class="st5" d="M201.3,313.2c0,0.1-7.4,2.5-16.7,5.2c-9.2,2.7-16.8,4.9-16.8,4.7c0-0.1,7.4-2.5,16.7-5.2
						C193.8,315.2,201.3,313.1,201.3,313.2z"/>
				</g>
			</g>
			<g>
				<path class="st5" d="M218.2,332h20.4l0,0c10.2,0,19.2,6.4,22.6,16l0,0c1.6,4.5,2.3,9.3,2.1,14.1l-1.6,82.9h-27.4l-0.5-26.5
					l-3.5-50.4l-23.8,1l-13.5-0.8L218.2,332z"/>
			</g>
			<g>
				<g>
					<path class="st10" d="M218.8,331.6c0,0-0.1,0.6-0.4,1.8c-0.3,1.1-0.8,2.7-1.4,4.7c-0.7,1.9-1.7,4.2-3,6.6c-1.3,2.4-3,4.9-5,7.4
						c-4,4.9-8.1,8.8-11.1,11.7c-1.4,1.4-2.6,2.5-3.5,3.4c-0.8,0.8-1.3,1.2-1.3,1.2c0,0,0.4-0.5,1.2-1.3c0.8-0.8,2-2,3.4-3.5
						c2.9-2.9,7-6.9,10.9-11.8c3.9-4.9,6.6-10,8.1-13.8c0.7-1.9,1.3-3.5,1.6-4.6C218.6,332.2,218.8,331.6,218.8,331.6z"/>
				</g>
			</g>
			<g>
				<g>
					<path class="st10" d="M243.8,332.6c0,0.1-1.4-0.1-3.7-0.2c-2.3-0.1-5.4-0.2-8.9-0.2c-3.5,0.1-6.6,0.3-8.9,0.4
						c-2.3,0.2-3.7,0.3-3.7,0.2c0,0,0.3-0.1,1-0.2c0.6-0.1,1.6-0.2,2.7-0.3c2.3-0.2,5.4-0.5,8.9-0.6c3.5-0.1,6.7,0.1,9,0.3
						c1.1,0.1,2.1,0.2,2.7,0.3C243.4,332.5,243.8,332.6,243.8,332.6z"/>
				</g>
			</g>
			<g>
				<g>
					<path class="st5" d="M234.1,429.9c0,0,0-0.2-0.1-0.7c0-0.5-0.1-1.2-0.1-2c-0.1-1.8-0.2-4.3-0.3-7.3c-0.3-6.2-0.6-14.7-1.2-24.1
						c-0.6-9.4-1.3-17.9-1.8-24c-0.2-3-0.4-5.5-0.6-7.3c-0.1-0.8-0.1-1.5-0.1-2c0-0.5,0-0.7,0-0.7s0.1,0.2,0.1,0.7
						c0.1,0.5,0.1,1.2,0.2,2c0.2,1.8,0.4,4.2,0.8,7.3c0.6,6.1,1.4,14.6,1.9,24c0.6,9.4,0.9,17.9,1.1,24.1c0.1,3,0.1,5.5,0.2,7.3
						c0,0.8,0,1.5,0,2C234.2,429.7,234.1,429.9,234.1,429.9z"/>
				</g>
			</g>
			<g>
				<g>
					<path class="st10" d="M263.3,358.9c0.1,0,0,19-0.2,42.4c-0.3,23.4-0.6,42.4-0.7,42.4c-0.1,0,0-19,0.2-42.4
						C262.8,377.9,263.2,358.9,263.3,358.9z"/>
				</g>
			</g>
			<g>
				<g>
					<path class="st5" d="M240.9,355.8c0,0.2-2.8,0.9-5.9,2.8c-3.1,1.9-5,4.1-5.1,4c0,0,0.4-0.7,1.2-1.5c0.8-0.9,2.1-1.9,3.6-2.9
						c1.6-1,3.1-1.6,4.2-1.9C240.2,355.9,240.9,355.8,240.9,355.8z"/>
				</g>
			</g>
			<g class="st13">
				<g>
					<path d="M193.1,368.3c5.5,1,11.6-0.7,16.4-3.6c4.7-3,8.2-7.7,9.6-13c0.6-2.4,0.8-4.9,1.4-7.3c0.6-2.4,1.7-4.8,3.7-6.3
						c2.3-1.7,8-2.8,9.7-5.1c0-0.3-6.8,0.4-9,0.6c-2.5,0.1-6.6,0.8-6.5,0.5c0,0-1.7,5.8-2.4,7.1
						C210.9,349.6,200.1,362.1,193.1,368.3"/>
				</g>
			</g>
		</g>
		<g>
			<g>
				<polygon class="st5" points="79.9,427 87.7,477.5 95.3,477.5 91.5,427.2 				"/>
			</g>
			<g>
				<polygon class="st5" points="215.7,427.2 215.7,477.5 223.8,477.5 226.8,427 				"/>
			</g>
			<g>
				<g>
					<path class="st15" d="M78.6,271.1c0,0-10.8,0.4-14.1,5c-5.8,8-2.6,14.9-2.9,17.3C61.2,295.7,79.9,427,79.9,427h7.7l139.2,1.3
						l6.7-16.2l-3.2-43.9l-37.2,0.2c0,0-15.2-43.7-28.6-46.7c-9-2-30.2-1.3-43-0.6c-6.4,0.3-12.4-2.8-15.9-8.1L78.6,271.1z"/>
				</g>
				<g>
					<g>
						<path class="st9" d="M201.9,421.9c0,0-0.8,0.1-2.2,0.2c-1.5,0-3.7,0.1-6.5,0.1c-5.6,0.1-13.8,0.1-24,0.1
							c-20.4,0-48.9-0.2-81-0.5l-0.2,0l0-0.2c-0.6-2.8-1.2-5.6-1.8-8.5c-0.6-2.9-1.2-5.8-1.8-8.8c-7-35.6-11.1-68.3-13.3-91.9
							c-1.1-11.8-1.8-21.4-2.2-28.1c-0.2-3.3-0.3-5.9-0.4-7.6c0-0.9-0.1-1.5-0.1-2c0-0.4,0-0.7,0-0.7s0,0.2,0.1,0.7
							c0,0.5,0.1,1.1,0.1,2c0.1,1.8,0.3,4.3,0.5,7.6c0.5,6.6,1.2,16.2,2.4,28c2.3,23.7,6.4,56.3,13.4,91.9c0.6,2.9,1.2,5.9,1.8,8.8
							c0.6,2.9,1.2,5.7,1.8,8.5l-0.2-0.2c32.2,0.2,60.6,0.5,81,0.6c10.2,0,18.4,0,24,0.1c2.8,0,5,0,6.5,0c0.7,0,1.3-0.1,1.7-0.1
							C201.7,421.9,201.9,421.9,201.9,421.9z"/>
					</g>
				</g>
				<g>
					<g>
						<path class="st9" d="M200.5,428.1c0,0,0-0.2,0.1-0.6c0.1-0.5,0.2-1,0.3-1.8c0.1-0.8,0.3-1.7,0.4-2.8c0.1-1.1,0.3-2.3,0.4-3.7
							c0.1-1.4,0.3-2.9,0.3-4.5c0.1-1.6,0.1-3.4,0.1-5.2c0-3.7-0.2-7.7-0.7-11.9c-0.5-4.2-1.2-8.2-2.1-11.8
							c-0.8-3.6-1.7-6.8-2.6-9.4c-0.4-1.3-0.8-2.5-1.2-3.6c-0.4-1-0.7-1.9-1-2.7c-0.3-0.7-0.5-1.2-0.6-1.7c-0.1-0.4-0.2-0.6-0.2-0.6
							c0,0,0.1,0.2,0.3,0.6c0.2,0.4,0.4,1,0.7,1.6c0.3,0.7,0.7,1.6,1.1,2.6c0.4,1,0.9,2.2,1.3,3.5c0.9,2.6,1.9,5.8,2.7,9.4
							c0.8,3.6,1.6,7.6,2.1,11.8c0.5,4.2,0.7,8.3,0.7,12c0,1.8-0.1,3.6-0.2,5.2c-0.1,1.6-0.2,3.2-0.4,4.5c-0.1,1.4-0.3,2.6-0.5,3.7
							c-0.1,1.1-0.3,2-0.5,2.8c-0.1,0.7-0.3,1.3-0.4,1.8C200.5,427.9,200.5,428.1,200.5,428.1z"/>
					</g>
				</g>
				<g>
					<g>
						<path class="st9" d="M98.5,334c0,0,0.2-0.2,0.6-0.5c0.4-0.3,1-0.8,1.7-1.3c0.4-0.3,0.8-0.6,1.2-0.9c0.5-0.3,1-0.6,1.6-0.9
							c1.1-0.7,2.4-1.5,3.9-2.2c0.7-0.4,1.5-0.7,2.3-1.1c0.8-0.4,1.7-0.7,2.6-1.1c0.9-0.3,1.8-0.8,2.8-1.1c1-0.3,2-0.6,3-1
							c4.2-1.2,8.8-2.3,13.8-2.9c5-0.6,9.7-0.9,14.1-0.9c2.2,0,4.2,0.1,6.2,0.2c1.9,0.2,3.7,0.3,5.3,0.5c3.3,0.4,5.9,1,7.6,1.4
							c0.8,0.2,1.5,0.4,2,0.6c0.5,0.1,0.7,0.2,0.7,0.2c0,0-0.3,0-0.7-0.1c-0.5-0.1-1.2-0.3-2.1-0.5c-1.8-0.4-4.4-0.9-7.6-1.2
							c-1.6-0.2-3.4-0.3-5.3-0.5c-1.9-0.1-4-0.2-6.1-0.2c-4.3,0-9.1,0.3-14,0.9c-5,0.6-9.6,1.6-13.7,2.8c-1,0.3-2,0.6-3,0.9
							c-1,0.3-1.9,0.7-2.8,1c-0.9,0.4-1.8,0.6-2.6,1c-0.8,0.4-1.6,0.7-2.3,1.1c-1.5,0.6-2.7,1.4-3.9,2.1c-0.6,0.3-1.1,0.6-1.6,0.9
							c-0.5,0.3-0.9,0.6-1.2,0.9c-0.7,0.5-1.3,0.9-1.7,1.2C98.7,333.8,98.5,334,98.5,334z"/>
					</g>
				</g>
			</g>
			<g>
				<g>
					<path class="st11" d="M181.2,341.1c0,0,0,0.1-0.1,0.3c-0.1,0.2-0.2,0.5-0.3,0.9c-0.4,0.8-1,2-2.1,3.3c-1.1,1.3-2.7,2.6-4.8,3.8
						c-1.1,0.5-2.2,1.1-3.5,1.5c-1.3,0.4-2.7,0.7-4.2,0.9c-3,0.3-6.3,0.1-9.8-0.6c-3.5-0.6-7.1-1.6-11-2.6
						c-3.8-0.9-7.9-1.7-12.2-1.6c-2.1,0-4.3,0.3-6.4,1c-2.1,0.6-4.1,1.7-5.9,3c-3.7,2.7-6.4,6.3-8.7,9.9c-2.3,3.6-4.1,7.4-6,10.9
						c-1.9,3.5-3.9,6.7-6.3,9.4c-2.3,2.7-4.9,4.8-7.7,6.1c-2.7,1.3-5.5,1.8-7.9,1.9c-2.4,0-4.5-0.4-6-1.1c-0.8-0.3-1.4-0.7-2-1.1
						c-0.5-0.4-1-0.7-1.3-1c-0.3-0.3-0.5-0.5-0.7-0.7c-0.2-0.2-0.2-0.3-0.2-0.3c0,0,0.1,0.1,0.3,0.2c0.2,0.2,0.4,0.4,0.7,0.7
						c0.3,0.3,0.8,0.6,1.3,1c0.6,0.3,1.2,0.7,2,1c1.5,0.6,3.6,1.1,5.9,1c2.4-0.1,5-0.6,7.7-1.9c2.7-1.3,5.3-3.4,7.5-6
						c2.3-2.7,4.3-5.9,6.2-9.3c1.9-3.5,3.7-7.2,6-10.9c2.3-3.6,5.1-7.3,8.8-10c1.9-1.4,3.9-2.4,6.1-3.1c2.2-0.7,4.4-1,6.5-1
						c4.4-0.1,8.5,0.7,12.3,1.7c3.9,0.9,7.5,2,10.9,2.6c3.4,0.6,6.7,0.9,9.7,0.6c1.5-0.1,2.9-0.4,4.2-0.8c1.3-0.4,2.4-0.9,3.5-1.4
						c2.1-1.1,3.7-2.4,4.8-3.7C180.7,343,181.1,341,181.2,341.1z"/>
				</g>
			</g>
			<g>
				<g>
					<path class="st11" d="M232,405c0,0-0.1,0-0.4,0.1c-0.3,0.1-0.7,0.1-1.3,0.3c-0.6,0.1-1.2,0.4-2,0.6c-0.4,0.1-0.8,0.4-1.2,0.5
						c-0.4,0.2-0.9,0.4-1.4,0.7c-1.9,1.1-4.1,2.7-6.4,4.8c-2.3,2.1-4.8,4.7-7.8,7.2c-1.5,1.2-3.2,2.5-5.1,3.5c-0.9,0.5-2,0.9-3,1.3
						c-0.5,0.1-1.1,0.3-1.7,0.4c-0.6,0.2-1.1,0.2-1.7,0.3c-2.3,0.3-4.8,0.2-7.2-0.4c-2.4-0.5-4.8-1.5-7.2-2.7
						c-4.7-2.4-9.1-5.8-13.3-9.6c-4.2-3.8-8.5-7.8-13.5-11.1c-2.5-1.6-5.1-3-7.9-3.9c-2.8-0.9-5.6-1.3-8.4-1.2
						c-2.8,0.2-5.5,0.9-8,1.9c-2.5,1-4.8,2.3-7,3.7c-4.4,2.7-8.4,5.7-12.5,7.9c-4.1,2.2-8.2,3.7-12,4.6c-7.7,1.9-14.2,1.7-18.6,1.1
						c-4.4-0.6-6.7-1.4-6.7-1.4s0.2,0,0.4,0.1c0.3,0.1,0.7,0.2,1.3,0.3c1.1,0.2,2.8,0.5,5,0.8c4.4,0.5,10.8,0.7,18.5-1.3
						c3.8-0.9,7.9-2.5,11.9-4.7c4-2.2,8.1-5.2,12.5-7.9c2.2-1.4,4.6-2.7,7.1-3.7c2.5-1,5.3-1.8,8.2-2c2.9-0.2,5.8,0.3,8.6,1.2
						c2.8,0.9,5.5,2.3,8,4c5.1,3.3,9.4,7.4,13.5,11.2c4.2,3.8,8.5,7.2,13.1,9.5c2.3,1.2,4.7,2.1,7.1,2.6c2.4,0.5,4.8,0.7,7.1,0.4
						c0.6-0.1,1.1-0.1,1.7-0.3c0.5-0.1,1.1-0.3,1.6-0.4c1-0.4,2.1-0.7,3-1.3c1.9-1,3.6-2.2,5.1-3.4c3-2.5,5.5-5,7.9-7.1
						c2.3-2.1,4.5-3.7,6.5-4.8c0.5-0.3,1-0.5,1.4-0.7c0.5-0.2,0.9-0.4,1.3-0.5c0.8-0.2,1.5-0.5,2.1-0.6c0.6-0.1,1-0.2,1.3-0.2
						C231.9,405.1,232,405,232,405z"/>
				</g>
			</g>
			<g>
				<g>
					<path class="st11" d="M92.9,295.8c0,0,0,0.5-0.3,1.3c-0.2,0.8-0.6,1.9-1.3,3.3c-1.4,2.6-4.1,6-8.2,8.2c-4.1,2.1-8.4,2.4-11.4,2
						c-1.5-0.2-2.7-0.5-3.4-0.8c-0.8-0.3-1.2-0.5-1.2-0.5c0-0.1,1.7,0.6,4.7,0.9c2.9,0.3,7.1-0.1,11.1-2.1c4-2.1,6.7-5.3,8.1-7.9
						C92.4,297.6,92.8,295.8,92.9,295.8z"/>
				</g>
			</g>
		</g>
	</g>
</g>
<g>
	<g>
		<g>
			<path class="st11" d="M475.8,229.5H286.8c-3.8,0-6.9-3.1-6.9-6.9v-51.2c0-3.8,3.1-6.9,6.9-6.9h189.1c3.8,0,6.9,3.1,6.9,6.9v51.2
				C482.8,226.4,479.7,229.5,475.8,229.5z"/>
		</g>
		<g>
			<g>
				<path class="st16" d="M475.8,229.5c0,0,0.5,0,1.3-0.2c0.9-0.2,2.2-0.6,3.4-1.8c0.6-0.6,1.2-1.4,1.6-2.4c0.4-1,0.5-2.2,0.5-3.4
					c0-2.6,0-5.5,0-8.8c0-6.6,0-14.7,0-24.2c0-4.7,0-9.7,0-15.1c0-1.3,0.1-2.7-0.2-4c-0.3-1.3-1.1-2.5-2.1-3.4
					c-1-0.9-2.4-1.5-3.8-1.6c-1.4-0.1-2.9,0-4.4,0c-47.4,0-112.9,0-185.3,0.1c-1.1,0-2.2,0.3-3.1,0.8c-1,0.5-1.8,1.3-2.4,2.1
					c-0.6,0.9-1,1.9-1.1,3c-0.1,1.1,0,2.2,0,3.3c0,4.5,0,8.9,0,13.3c0,8.8,0,17.5,0,26c0,2.1,0,4.3,0,6.4c0,1.1,0,2.1,0,3.2
					c0,1,0.3,2,0.8,2.9c1,1.8,2.7,3.1,4.7,3.4c1,0.2,2,0.1,3,0.1c1,0,2.1,0,3.1,0c8.2,0,16.2,0,24.1,0c31.3,0,59.6,0,83.3,0.1
					c23.7,0,42.9,0.1,56.2,0.1c6.6,0,11.8,0,15.3,0c1.7,0,3.1,0,4,0C475.4,229.5,475.8,229.5,475.8,229.5s-0.5,0-1.4,0
					c-0.9,0-2.2,0-4,0c-3.5,0-8.6,0-15.3,0c-13.3,0-32.4,0-56.2,0.1c-23.7,0-51.9,0-83.3,0.1c-7.8,0-15.9,0-24.1,0c-1,0-2.1,0-3.1,0
					c-1,0-2.1,0.1-3.1-0.1c-2.1-0.4-4-1.8-5.1-3.7c-0.5-1-0.8-2-0.8-3.1c0-1.1,0-2.1,0-3.2c0-2.1,0-4.2,0-6.4c0-8.5,0-17.2,0-26
					c0-4.4,0-8.8,0-13.3c0-1.1,0-2.2,0-3.4c0.1-1.2,0.5-2.3,1.2-3.2c0.7-1,1.6-1.8,2.6-2.3c1-0.5,2.2-0.8,3.4-0.8
					c72.3,0,137.8,0.1,185.3,0.1c1.5,0,2.9,0,4.4,0c1.5,0.1,2.9,0.7,4,1.7c1.1,0.9,1.9,2.2,2.2,3.6c0.2,0.7,0.2,1.4,0.2,2.1
					c0,0.7,0,1.3,0,2c0,5.3,0,10.4,0,15.1c0,9.4,0,17.5,0,24.2c0,3.3,0,6.3,0,8.8c0,1.3-0.1,2.5-0.5,3.5c-0.4,1-1,1.8-1.6,2.4
					c-1.3,1.2-2.6,1.6-3.5,1.8c-0.4,0.1-0.8,0.1-1,0.1C475.9,229.5,475.8,229.5,475.8,229.5z"/>
			</g>
		</g>
	</g>
	<g>
		<g>
			<path class="st5" d="M468.2,177.8c-0.1,0-0.1,0-0.2-0.1c-0.1-0.1-0.1-0.3,0-0.4l5-4.8c0.1-0.1,0.3-0.1,0.4,0
				c0.1,0.1,0.1,0.3,0,0.4l-5,4.8C468.3,177.7,468.2,177.8,468.2,177.8z"/>
		</g>
		<g>
			<path class="st5" d="M473.1,177.8c-0.1,0-0.1,0-0.2-0.1l-5-4.8c-0.1-0.1-0.1-0.3,0-0.4c0.1-0.1,0.3-0.1,0.4,0l5,4.8
				c0.1,0.1,0.1,0.3,0,0.4C473.3,177.8,473.2,177.8,473.1,177.8z"/>
		</g>
	</g>
	<g>
		<g>
			<path class="st6" d="M323.6,209.6l-2-2.9c-1.2-1.7-1.9-3.8-1.9-6l0-6.5c0-5.3-3.9-9.7-9-10.5l0-3.1c0-0.8-0.6-1.4-1.4-1.4l0,0
				c-0.8,0-1.4,0.6-1.4,1.4l0,3.1c-5.3,0.6-9.4,5.1-9.4,10.5l0,6.7c0,2.3-0.8,4.6-2.2,6.4l-1.8,2.2L323.6,209.6z"/>
		</g>
		<g>
			<path class="st6" d="M307.5,214.3c1.6,0.7,3.5,0.3,4.8-0.8c0.5-0.5,1-1.1,1.2-1.8l-8.5-0.1C305.4,212.8,306.3,213.8,307.5,214.3z
				"/>
		</g>
	</g>
	<g>
		<g>
			<path class="st5" d="M437.7,186.4c0,0.1-22.7,0.3-50.8,0.3c-28,0-50.8-0.1-50.8-0.3s22.7-0.3,50.8-0.3
				C415,186.1,437.7,186.3,437.7,186.4z"/>
		</g>
	</g>
	<g>
		<g>
			<path class="st0" d="M461.7,198.7c0,0.1-28.1,0.3-62.7,0.3c-34.7,0-62.7-0.1-62.7-0.3c0-0.1,28.1-0.3,62.7-0.3
				C433.6,198.4,461.7,198.5,461.7,198.7z"/>
		</g>
	</g>
	<g>
		<g>
			<path class="st0" d="M461.7,206c0,0.1-28.1,0.3-62.7,0.3c-34.7,0-62.7-0.1-62.7-0.3c0-0.1,28.1-0.3,62.7-0.3
				C433.6,205.8,461.7,205.9,461.7,206z"/>
		</g>
	</g>
</g>
<g>
	<g>
		<g>
			<path class="st2" d="M443.4,284.3H317.8c-3.8,0-6.9-3.1-6.9-6.9v-30.8c0-3.8,3.1-6.9,6.9-6.9h125.5c3.8,0,6.9,3.1,6.9,6.9v30.8
				C450.3,281.2,447.2,284.3,443.4,284.3z"/>
		</g>
		<g>
			<g>
				<path class="st16" d="M443.4,284.3c0,0,0.3,0,0.9-0.1c0.6-0.1,1.5-0.3,2.5-0.9c1-0.6,2.2-1.6,2.8-3.2c0.3-0.8,0.6-1.7,0.6-2.7
					c0-1,0-2.1,0-3.2c0-4.5,0-10,0-16.4c0-3.2,0-6.6,0-10.3c0-0.9,0-1.8-0.2-2.7c-0.2-0.9-0.6-1.7-1.2-2.5c-1.1-1.5-3-2.5-4.9-2.6
					c-32.2,0-76.8,0-126,0.1c-1.5,0-3,0.5-4.1,1.4c-1.2,0.9-2,2.2-2.4,3.6c-0.2,0.7-0.2,1.4-0.2,2.2l0,2.3c0,1.5,0,3,0,4.5
					c0,6,0,11.9,0,17.7c0,1.5,0,2.9,0,4.3c0,0.7,0,1.4,0,2.1c0.1,0.7,0.2,1.4,0.5,2c0.5,1.3,1.5,2.3,2.6,3.1c1.2,0.7,2.5,1.1,3.9,1
					c5.6,0,11,0,16.4,0c21.3,0,40.5,0,56.6,0.1c16.1,0,29.2,0.1,38.2,0.1c4.5,0,8,0,10.4,0c1.2,0,2.1,0,2.7,0
					C443,284.3,443.4,284.3,443.4,284.3s-0.3,0-0.9,0c-0.6,0-1.5,0-2.7,0c-2.4,0-5.9,0-10.4,0c-9,0-22.1,0-38.2,0.1
					c-16.1,0-35.3,0-56.6,0.1c-5.3,0-10.8,0-16.4,0c-1.4,0-2.9-0.3-4.1-1.1c-1.2-0.8-2.2-1.9-2.8-3.3c-0.3-0.7-0.5-1.4-0.5-2.1
					c-0.1-0.8,0-1.5,0-2.2c0-1.4,0-2.9,0-4.3c0-5.8,0-11.7,0-17.7c0-1.5,0-3,0-4.5l0-2.3c0-0.7,0-1.6,0.2-2.3
					c0.4-1.5,1.3-2.9,2.5-3.9c1.2-1,2.8-1.5,4.4-1.5c49.2,0,93.7,0.1,126,0.1c2.1,0.1,4,1.2,5.2,2.8c0.6,0.8,1,1.7,1.3,2.6
					c0.2,0.9,0.2,1.9,0.2,2.8c0,3.6,0,7.1,0,10.3c0,6.4,0,11.9,0,16.4c0,1.1,0,2.2,0,3.2c0,1-0.3,1.9-0.6,2.7
					c-0.7,1.6-1.9,2.6-2.9,3.2c-1,0.6-2,0.8-2.6,0.8C443.7,284.4,443.4,284.3,443.4,284.3z"/>
			</g>
		</g>
	</g>
	<g>
		<g>
			<path class="st5" d="M440.3,248.9c-0.1,0-0.1,0-0.2-0.1c-0.1-0.1-0.1-0.3,0-0.4l3.4-3.3c0.1-0.1,0.3-0.1,0.4,0
				c0.1,0.1,0.1,0.3,0,0.4l-3.4,3.3C440.4,248.9,440.3,248.9,440.3,248.9z"/>
		</g>
		<g>
			<path class="st5" d="M443.7,248.9c-0.1,0-0.1,0-0.2-0.1l-3.4-3.3c-0.1-0.1-0.1-0.3,0-0.4c0.1-0.1,0.3-0.1,0.4,0l3.4,3.3
				c0.1,0.1,0.1,0.3,0,0.4C443.8,248.9,443.7,248.9,443.7,248.9z"/>
		</g>
	</g>
	<g>
		<g>
			<path class="st10" d="M340.9,270.7l-1.4-2c-0.8-1.2-1.3-2.6-1.3-4.1l0-4.5c0-3.6-2.7-6.7-6.2-7.2l0-2.1c0-0.5-0.4-1-1-1l0,0
				c-0.5,0-1,0.4-1,1l0,2.1c-3.6,0.4-6.4,3.5-6.4,7.2l0,4.6c0,1.6-0.5,3.1-1.5,4.4l-1.2,1.5L340.9,270.7z"/>
		</g>
		<g>
			<path class="st10" d="M329.9,273.9c1.1,0.5,2.4,0.2,3.3-0.6c0.4-0.3,0.7-0.8,0.8-1.3l-5.8,0C328.4,272.9,329.1,273.6,329.9,273.9
				z"/>
		</g>
	</g>
	<g>
		<g>
			<path class="st5" d="M419.4,254.7c0,0.1-15.6,0.3-34.9,0.3c-19.3,0-34.9-0.1-34.9-0.3s15.6-0.3,34.9-0.3
				C403.7,254.5,419.4,254.6,419.4,254.7z"/>
		</g>
	</g>
	<g>
		<g>
			<path class="st0" d="M435.8,263.2c0,0.1-19.3,0.3-43.1,0.3c-23.8,0-43.1-0.1-43.1-0.3c0-0.1,19.3-0.3,43.1-0.3
				C416.5,262.9,435.8,263,435.8,263.2z"/>
		</g>
	</g>
	<g>
		<g>
			<path class="st0" d="M435.8,268.2c0,0.1-19.3,0.3-43.1,0.3c-23.8,0-43.1-0.1-43.1-0.3s19.3-0.3,43.1-0.3
				C416.5,268,435.8,268.1,435.8,268.2z"/>
		</g>
	</g>
</g>
<g>
	<g>
		<g>
			<path class="st2" d="M442.8,335.7H318.3c-3.8,0-6.9-3.1-6.9-6.9v-30.5c0-3.8,3.1-6.9,6.9-6.9h124.5c3.8,0,6.9,3.1,6.9,6.9v30.5
				C449.8,332.5,446.7,335.7,442.8,335.7z"/>
		</g>
		<g>
			<g>
				<path class="st16" d="M442.8,335.7c0,0,0.3,0,0.9-0.1c0.6-0.1,1.5-0.3,2.5-0.9c1-0.6,2.1-1.6,2.8-3.2c0.3-0.8,0.6-1.7,0.6-2.7
					c0-1,0-2,0-3.2c0-4.5,0-9.9,0-16.3c0-3.2,0-6.6,0-10.2c0-0.9,0-1.8-0.2-2.7c-0.2-0.9-0.6-1.7-1.2-2.4c-1.1-1.5-2.9-2.5-4.9-2.6
					c-32,0-76.2,0-125,0.1c-3,0-5.8,2.1-6.5,5c-0.2,0.7-0.2,1.4-0.2,2.2l0,2.2c0,1.5,0,3,0,4.5c0,5.9,0,11.8,0,17.6
					c0,1.4,0,2.9,0,4.3c0,0.7,0,1.4,0,2.1c0.1,0.7,0.2,1.3,0.5,2c0.5,1.2,1.5,2.3,2.6,3c1.1,0.7,2.5,1.1,3.8,1c5.5,0,11,0,16.2,0
					c21.1,0,40.2,0,56.2,0.1c16,0,28.9,0.1,37.9,0.1c4.5,0,7.9,0,10.3,0c1.2,0,2.1,0,2.7,0C442.5,335.6,442.8,335.7,442.8,335.7
					s-0.3,0-0.9,0c-0.6,0-1.5,0-2.7,0c-2.4,0-5.8,0-10.3,0c-9,0-21.9,0-37.9,0.1c-16,0-35,0-56.2,0.1c-5.3,0-10.7,0-16.2,0
					c-1.4,0-2.9-0.3-4.1-1.1c-1.2-0.8-2.2-1.9-2.8-3.3c-0.3-0.7-0.5-1.4-0.5-2.1c-0.1-0.7,0-1.4,0-2.2c0-1.4,0-2.9,0-4.3
					c0-5.8,0-11.6,0-17.6c0-1.5,0-3,0-4.5l0-2.2c0-0.7,0-1.6,0.3-2.3c0.8-3.1,3.8-5.4,7-5.3c48.8,0,93,0.1,125,0.1
					c2.1,0.1,4,1.2,5.1,2.8c0.6,0.8,1,1.7,1.2,2.6c0.2,0.9,0.2,1.9,0.2,2.8c0,3.6,0,7,0,10.2c0,6.4,0,11.8,0,16.3c0,1.1,0,2.2,0,3.2
					c0,1-0.3,1.9-0.6,2.7c-0.7,1.6-1.9,2.6-2.9,3.2c-1,0.6-1.9,0.8-2.5,0.8C443.1,335.7,442.8,335.7,442.8,335.7z"/>
			</g>
		</g>
	</g>
	<g>
		<g>
			<path class="st5" d="M439.8,300.5c-0.1,0-0.1,0-0.2-0.1c-0.1-0.1-0.1-0.3,0-0.4l3.4-3.3c0.1-0.1,0.3-0.1,0.4,0
				c0.1,0.1,0.1,0.3,0,0.4l-3.4,3.3C439.9,300.5,439.9,300.5,439.8,300.5z"/>
		</g>
		<g>
			<path class="st5" d="M443.2,300.5c-0.1,0-0.1,0-0.2-0.1l-3.4-3.3c-0.1-0.1-0.1-0.3,0-0.4c0.1-0.1,0.3-0.1,0.4,0l3.4,3.3
				c0.1,0.1,0.1,0.3,0,0.4C443.3,300.5,443.3,300.5,443.2,300.5z"/>
		</g>
	</g>
	<g>
		<g>
			<path class="st0" d="M341.2,322.1l-1.4-2c-0.8-1.2-1.3-2.6-1.3-4.1l0-4.4c0-3.6-2.7-6.6-6.1-7.1l0-2.1c0-0.5-0.4-1-1-1l0,0
				c-0.5,0-1,0.4-1,1l0,2.1c-3.6,0.4-6.4,3.5-6.4,7.2l0,4.6c0,1.6-0.5,3.1-1.5,4.3l-1.2,1.5L341.2,322.1z"/>
		</g>
		<g>
			<path class="st0" d="M330.2,325.3c1.1,0.4,2.4,0.2,3.2-0.6c0.4-0.3,0.7-0.8,0.8-1.3l-5.8,0C328.8,324.3,329.4,325,330.2,325.3z"
				/>
		</g>
	</g>
	<g>
		<g>
			<path class="st5" d="M419.1,306.3c0,0.1-15.5,0.3-34.6,0.3c-19.1,0-34.6-0.1-34.6-0.3s15.5-0.3,34.6-0.3
				C403.6,306,419.1,306.1,419.1,306.3z"/>
		</g>
	</g>
	<g>
		<g>
			<path class="st0" d="M435.4,314.7c0,0.1-19.2,0.3-42.8,0.3c-23.6,0-42.8-0.1-42.8-0.3c0-0.1,19.2-0.3,42.8-0.3
				C416.2,314.4,435.4,314.5,435.4,314.7z"/>
		</g>
	</g>
	<g>
		<g>
			<path class="st0" d="M435.4,319.7c0,0.1-19.2,0.3-42.8,0.3c-23.6,0-42.8-0.1-42.8-0.3c0-0.1,19.2-0.3,42.8-0.3
				C416.2,319.4,435.4,319.5,435.4,319.7z"/>
		</g>
	</g>
</g>
<g>
	<g>
		<path class="st10" d="M671.4,278.8c-10.4,5.4-18.3,14.6-24,24.8c-5.7,10.2-9.4,21.3-13,32.4l-3.2,57.1
			c12-20.5,21.7-44.6,24.3-68.2c-2.7-0.2-5.3-0.5-8-0.7c5.4-0.8,9.9-4.7,12.8-9.3c2.9-4.6,4.3-9.9,5.8-15.2c-3.3,0.5-6.5,1-9.8,1.5
			C664,296,669.5,287.8,671.4,278.8z"/>
	</g>
	<g>
		<g>
			<path class="st17" d="M671.4,278.8c-10.4,5.4-18.3,14.6-24,24.8c-5.7,10.2-9.4,21.3-13,32.4l-3.2,57.1
				c12-20.5,21.7-44.6,24.3-68.2c-2.7-0.2-5.3-0.5-8-0.7c5.4-0.8,9.9-4.7,12.8-9.3c2.9-4.6,4.3-9.9,5.8-15.2c-3.3,0.5-6.5,1-9.8,1.5
				C664,296,669.5,287.8,671.4,278.8z"/>
		</g>
	</g>
	<g>
		<g>
			<path class="st12" d="M671.4,278.8c-10.4,5.4-18.3,14.6-24,24.8c-5.7,10.2-9.4,21.3-13,32.4l-3.2,57.1
				c12-20.5,21.7-44.6,24.3-68.2c-2.7-0.2-5.3-0.5-8-0.7c5.4-0.8,9.9-4.7,12.8-9.3c2.9-4.6,4.3-9.9,5.8-15.2c-3.3,0.5-6.5,1-9.8,1.5
				C664,296,669.5,287.8,671.4,278.8z"/>
		</g>
	</g>
	<g>
		<path class="st6" d="M629.4,406.5c0,0-26.1-31.3-25.8-61.2h10.6c0,0-11.5-7.5-10.6-11.8c0.9-4.2,1.2-20.2,1.2-20.2l9.7,2.4
			c0,0-7.2-3.6-8.1-9.4c-0.9-5.7,2.1-32.3,2.1-32.3s11.8,12.4,15.4,25c3.6,12.7,13.1,27.5,10.3,66.1
			C631.4,403.9,629.4,406.5,629.4,406.5z"/>
	</g>
	<g>
		<path class="st6" d="M642.7,409.4c0,0,28.3-18.9,34.6-43l-8.5-2.3c0,0,10.9-3.6,11.1-7.2c0.2-3.6,3.5-16.5,3.5-16.5l-8.3-0.2
			c0,0,6.6-1.3,8.6-5.7c2-4.4,5.4-26.4,5.4-26.4s-12.2,7.4-17.9,16.8c-5.7,9.4-16.6,19.2-22.8,50.9
			C642.2,407.5,642.7,409.4,642.7,409.4z"/>
	</g>
	<g>
		<g>
			<path class="st5" d="M615.6,301.4c0,0,0,0.1,0.1,0.3c0.1,0.2,0.1,0.6,0.2,1c0.2,0.9,0.5,2.1,0.8,3.7c0.4,1.6,0.8,3.6,1.2,5.9
				c0.5,2.3,1,4.9,1.5,7.8c1.1,5.8,2.3,12.7,3.5,20.5c1.2,7.7,2.4,16.2,3.4,25.2c1,9,1.8,17.5,2.4,25.3c0.6,7.8,1,14.8,1.2,20.7
				c0.1,3,0.2,5.6,0.3,8c0.1,2.3,0.1,4.4,0.1,6c0,1.6,0,2.9,0,3.8c0,0.4,0,0.7,0,1c0,0.2,0,0.3,0,0.3c0,0,0-0.1,0-0.3
				c0-0.3,0-0.6-0.1-1c0-0.9-0.1-2.2-0.1-3.8c0-1.7-0.1-3.7-0.2-6c-0.1-2.3-0.2-5-0.4-8c-0.3-5.9-0.8-12.9-1.4-20.7
				c-0.6-7.8-1.5-16.3-2.5-25.3c-1-8.9-2.2-17.5-3.4-25.2c-1.2-7.7-2.3-14.7-3.4-20.5c-0.5-2.9-1-5.5-1.5-7.8
				c-0.4-2.3-0.8-4.3-1.2-5.9c-0.3-1.6-0.6-2.8-0.7-3.7c-0.1-0.4-0.1-0.7-0.2-1C615.6,301.5,615.6,301.4,615.6,301.4z"/>
		</g>
	</g>
	<g>
		<path class="st6" d="M625.8,425.7c0,0-23.9-27.1-31.4-43.6l5.6-2.4c-4.1,0.7-8.2-1.1-11.4-3.7c-3.2-2.7-5.5-6.1-7.7-9.6l7.4-1.2
			c-6.7-1.9-12.6-6.5-16.1-12.5c8.7,1.4,16.6,6.2,23.1,12.2c5.3,4.8,9.7,10.5,14,16.2c2.1,2.8,3.9,5.8,5.4,8.9
			C618.8,398.3,625.8,415.7,625.8,425.7z"/>
	</g>
	<g>
		<g>
			<path class="st5" d="M677.7,324c0,0,0,0.1-0.1,0.3c-0.1,0.2-0.2,0.5-0.4,0.8c-0.3,0.7-0.8,1.7-1.5,3c-1.3,2.6-3.1,6.4-5.3,11.1
				c-4.4,9.4-10.2,22.5-15.9,37.3c-5.7,14.8-10.3,28.4-13.3,38.3c-1.5,5-2.8,9-3.6,11.8c-0.4,1.4-0.7,2.4-1,3.2
				c-0.1,0.3-0.2,0.6-0.3,0.8c-0.1,0.2-0.1,0.3-0.1,0.3c0,0,0-0.1,0.1-0.3c0.1-0.2,0.1-0.5,0.2-0.8c0.2-0.8,0.5-1.9,0.9-3.2
				c0.7-2.8,1.9-6.9,3.4-11.8c3-10,7.5-23.6,13.2-38.4c5.7-14.8,11.6-27.9,16.1-37.3c2.2-4.7,4.1-8.5,5.5-11c0.7-1.3,1.2-2.3,1.5-3
				c0.2-0.3,0.3-0.6,0.4-0.8C677.6,324.1,677.7,324,677.7,324z"/>
		</g>
	</g>
	<g>
		<g>
			<path class="st5" d="M627.8,437.3c0,0-0.1-0.2-0.1-0.5c-0.1-0.4-0.1-0.9-0.2-1.4c-0.2-1.3-0.5-3.1-0.9-5.3
				c-0.4-2.2-1.1-4.8-1.8-7.7c-0.8-2.9-1.8-6-3-9.2c-1.2-3.2-2.6-6.2-3.8-8.9c-1.3-2.7-2.6-5.1-3.7-7c-1.1-2-2.1-3.5-2.8-4.6
				c-0.3-0.5-0.6-0.9-0.8-1.2c-0.2-0.3-0.3-0.4-0.2-0.5c0,0,0.1,0.1,0.3,0.4c0.2,0.3,0.5,0.7,0.9,1.2c0.7,1,1.8,2.6,2.9,4.5
				c1.2,1.9,2.5,4.3,3.9,7c1.3,2.7,2.7,5.7,3.9,9c1.2,3.2,2.2,6.4,3,9.3c0.8,2.9,1.3,5.6,1.7,7.8c0.4,2.2,0.6,4.1,0.8,5.3
				c0.1,0.6,0.1,1.1,0.1,1.5C627.9,437.1,627.9,437.3,627.8,437.3z"/>
		</g>
	</g>
	<g>
		<rect x="607.1" y="430.9" class="st9" width="52.4" height="10.7"/>
	</g>
	<g>
		<polygon class="st9" points="612,441.6 617.7,477.5 649.4,477.5 654.6,441.6 		"/>
	</g>
	<g>
		<g>
			<path class="st5" d="M656.2,441.6c0,0.2-9.9,0.3-22.1,0.3c-12.2,0-22.1-0.1-22.1-0.3c0-0.2,9.9-0.3,22.1-0.3
				C646.3,441.3,656.2,441.4,656.2,441.6z"/>
		</g>
	</g>
</g>
<g>
	<g>
		<g>
			<g>
				<g>
					<g>
						<g>
							<g>
								<g>
									<g>
										<g>
											<g>
												<path class="st11" d="M182.4,186.2l1.1-12.9c-4.5-3-8.2-7.2-10.7-12.5c-7-15.1-0.4-33,14.8-40c15.1-7,33-0.4,40,14.8
													c7,15.1,0.4,33-14.8,40c-6.3,2.9-13.1,3.4-19.4,2l0,0L182.4,186.2z"/>
											</g>
										</g>
									</g>
								</g>
							</g>
						</g>
						<g>
							<g>
								<g>
									<g>
										<g>
											<g>
												<g>
													<path class="st18" d="M182.4,186.2c0.5-0.4,4-3.1,11.1-8.6l0.1-0.1l-0.1-0.1l0,0l-0.1,0.2c2.1,0.5,4.5,0.8,7.2,0.8
														c2.7,0,5.5-0.4,8.5-1.3c1.5-0.5,3-1,4.4-1.8c0.7-0.4,1.5-0.8,2.2-1.2c0.7-0.5,1.4-0.9,2.2-1.4c2.8-2,5.4-4.7,7.6-7.9
														c2.1-3.2,3.7-6.9,4.5-11c0.8-4.1,0.8-8.4-0.3-12.7c-1-4.3-3-8.4-5.9-12c-2.9-3.6-6.7-6.6-11.1-8.6l-1.7-0.7
														c-0.6-0.2-1.2-0.4-1.7-0.6c-0.6-0.2-1.1-0.4-1.7-0.5l-1.8-0.4c-0.6-0.1-1.2-0.2-1.8-0.3c-0.6-0.1-1.2-0.1-1.8-0.2
														c-0.6,0-1.2,0-1.8,0c-0.6,0-1.2,0-1.8,0c-4.7,0.3-9.2,1.6-13.2,3.8c-3.9,2.2-7.3,5.1-9.7,8.5c-2.5,3.4-4.2,7.2-5.1,11
														c-0.9,3.8-1,7.6-0.6,11c0.5,3.5,1.6,6.7,2.9,9.5c1.4,2.8,3.1,5.1,4.9,7.1c1.8,1.9,3.7,3.4,5.5,4.6l0-0.1
														C182.8,181.5,182.4,185.6,182.4,186.2c0.1-0.6,0.4-4.7,1.2-12.9l0-0.1l0,0c-1.8-1.2-3.6-2.7-5.4-4.6
														c-1.8-1.9-3.5-4.3-4.8-7c-1.3-2.8-2.4-5.9-2.9-9.4c-0.4-3.5-0.3-7.2,0.6-10.9c0.9-3.7,2.6-7.5,5-10.8
														c2.4-3.4,5.8-6.3,9.6-8.4c3.9-2.1,8.3-3.5,13-3.7c0.6-0.1,1.2,0,1.7,0c0.6,0,1.2,0,1.8,0c0.6,0.1,1.2,0.1,1.8,0.2
														c0.6,0.1,1.2,0.1,1.8,0.3l1.7,0.4c0.6,0.1,1.1,0.3,1.7,0.5c0.6,0.2,1.2,0.3,1.7,0.6l1.7,0.7c4.3,1.9,8.1,4.9,10.9,8.5
														c2.9,3.5,4.9,7.7,5.9,11.9c1,4.2,1,8.6,0.3,12.6c-0.8,4-2.3,7.7-4.4,10.9c-2.1,3.2-4.7,5.8-7.5,7.8
														c-0.7,0.5-1.4,0.9-2.1,1.4c-0.7,0.4-1.5,0.8-2.2,1.2c-1.4,0.8-2.9,1.3-4.4,1.8c-2.9,0.9-5.8,1.3-8.4,1.3
														c-2.6,0-5-0.3-7.2-0.8l-0.1,0.2l0,0l0,0l0-0.2C186.4,183,182.9,185.8,182.4,186.2z"/>
												</g>
											</g>
										</g>
									</g>
								</g>
							</g>
						</g>
					</g>
				</g>
			</g>
		</g>
	</g>
	<g>
		<g>
			<path class="st6" d="M195.9,132.8l0.9,17.6c0.1,1.4,1.2,2.6,2.6,2.7l0,0c1.5,0.1,2.8-1,3-2.5l2.1-17.6c0.2-1.3-0.9-2.5-2.2-2.5
				l-4.3,0C196.9,130.4,195.9,131.5,195.9,132.8z"/>
		</g>
		<g>
			<path class="st6" d="M204.1,161.9c-0.7,2.2-3.2,3.5-5.4,2.7c-2.2-0.7-3.5-3.2-2.7-5.4c0.7-2.2,3.2-3.5,5.4-2.7
				C203.6,157.2,204.9,159.6,204.1,161.9z"/>
		</g>
	</g>
</g>
</svg>
