<svg xmlns="http://www.w3.org/2000/svg" viewBox="0 0 631.19 412.19"><defs><style>.cls-1{fill:#e0e0e0;}.cls-2,.cls-5{fill:#dae3ea;}.cls-3{fill:#fff;}.cls-4{opacity:0.8;}.cls-13,.cls-14,.cls-15,.cls-5{fill-rule:evenodd;}.cls-14,.cls-6{fill:#31b1e7;}.cls-20,.cls-7{opacity:0.3;}.cls-13,.cls-8{fill:#e8505b;}.cls-9{fill:#263238;}.cls-10,.cls-15,.cls-20{fill:#2a85f5;}.cls-11{fill:#08101f;}.cls-12{fill:#fafafa;}.cls-16,.cls-22{opacity:0.4;}.cls-17{fill:#ffbe9d;}.cls-18{fill:#eb996e;}.cls-19{fill:#455a64;}.cls-21{opacity:0.2;}</style></defs><g id="Layer_2" data-name="Layer 2"><g id="Character"><path class="cls-1" d="M614.91,94.4a4.73,4.73,0,0,1,1.5.47,6.3,6.3,0,0,1,3,3,6.46,6.46,0,0,1,.61,2.92,6.54,6.54,0,0,1-1,3.27,6.05,6.05,0,0,1-1.22,1.42,6.3,6.3,0,0,1-1.64,1,6.5,6.5,0,0,1-7.52-1.69,6.57,6.57,0,0,1-1.54-3.45,6.43,6.43,0,0,1,2.29-5.77,6.25,6.25,0,0,1,4-1.45,4.6,4.6,0,0,1,1.55.21s-.55-.11-1.55-.07a6.23,6.23,0,0,0-3.82,1.51,6,6,0,0,0-1.69,2.3,6.3,6.3,0,0,0-.44,3.23,5.88,5.88,0,0,0,.49,1.7,5.72,5.72,0,0,0,1,1.56,6.14,6.14,0,0,0,7.1,1.59,6,6,0,0,0,1.57-1,6.11,6.11,0,0,0,1.16-1.34,6.29,6.29,0,0,0,1-3.1,6.12,6.12,0,0,0-.55-2.8,6.25,6.25,0,0,0-2.81-3A15.1,15.1,0,0,0,614.91,94.4Z"/><path class="cls-1" d="M620,87.62a.89.89,0,0,1,0-.22c0-.17,0-.39,0-.68,0-.62,0-1.51,0-2.67l0,.06-5.77-1.26.11,0L612.79,86l0,0h-.06a14.34,14.34,0,0,0-3.76.67l-.07,0,0,0-2.54-2.52.16,0-5,3.17.06-.16,1.2,3.36,0,.08-.06.07a14,14,0,0,0-2.19,3.12l0,.08h-3.67l.16-.12c-.4,1.81-.84,3.76-1.29,5.76l-.09-.19,3.23,1.53.09,0v.1a14.58,14.58,0,0,0,.66,3.75l0,.1-.07.08L597,107.55l0-.22,3.17,5-.22-.07,3.37-1.2.1,0,.08.07a14.44,14.44,0,0,0,3.11,2.19h0l.1.16h0v1.78c0,.6,0,1.19,0,1.78l-.15-.18,5.77,1.3-.21.09,1.54-3.22,0-.1h.11a14.24,14.24,0,0,0,3.75-.65l.1,0,.08.07,2.52,2.52-.21,0,5-3.16-.07.2c-.4-1.14-.8-2.26-1.19-3.36l0-.1.06-.07a13.74,13.74,0,0,0,2.2-3.11l.05-.08h3.66l-.15.11q.69-3,1.31-5.76l.07.16-3.22-1.54-.07,0V100a14.78,14.78,0,0,0-.64-3.77l0-.06,0-.06,2.53-2.52v.14c-1.22-1.94-2.26-3.59-3.14-5l.09,0-3.37,1.17h0l0,0a14.9,14.9,0,0,0-2.29-1.77l-.61-.37-.2-.12.21.1c.14.07.36.18.63.34a14.27,14.27,0,0,1,2.34,1.73h-.06l3.36-1.22.06,0,0,.06,3.18,5,0,.07-.06.06c-.77.79-1.59,1.62-2.51,2.54l0-.12a14.73,14.73,0,0,1,.68,3.83l-.07-.12,3.22,1.53.1,0,0,.1c-.41,1.83-.83,3.74-1.28,5.77l0,.12h-3.69l.14-.08a14,14,0,0,1-2.24,3.18l0-.16,1.2,3.36,0,.13-.11.07-5,3.16-.12.08-.1-.1-2.53-2.52.17,0a14.86,14.86,0,0,1-3.83.67l.15-.11c-.51,1.07-1,2.14-1.53,3.23l-.06.13-.14,0-5.77-1.29-.14,0v-3.71h0l.1.16h0a14.91,14.91,0,0,1-3.19-2.24l.19,0-3.37,1.2-.13,0-.08-.12-3.16-5-.07-.12.1-.1,2.52-2.53,0,.17a14.81,14.81,0,0,1-.66-3.84l.1.15-3.22-1.53-.13-.06,0-.13c.45-2,.9-4,1.3-5.76l0-.13h3.7l-.14.08a14.59,14.59,0,0,1,2.25-3.18l0,.16c-.42-1.18-.83-2.33-1.19-3.37l0-.11.09-.06,5-3.15.09-.05.07.07L609,86.56l-.12,0a15,15,0,0,1,3.83-.66l-.09.07c.55-1.16,1.07-2.25,1.54-3.22l0-.07.07,0L620,84h0v0c0,1.15,0,2,0,2.65,0,.29,0,.51,0,.68S620,87.62,620,87.62Z"/><path class="cls-1" d="M519,375.67s0-.37,0-1.08,0-1.78,0-3.16c0-2.77,0-6.84,0-12.06,0-10.44,0-25.48-.09-43.94l.16.16-104.12.05h0l.21-.21c0,21.32,0,41.69,0,60.24l-.2-.19,74.9.09,21.51.06,5.73,0h2l-.48,0h-1.46l-5.7,0-21.46.06-75,.09h-.2v-.2c0-18.55,0-38.92,0-60.24v-.22h.23l104.12.05h.17v.17c0,18.5-.07,33.58-.09,44,0,5.21,0,9.26,0,12,0,1.37,0,2.41,0,3.13S519,375.67,519,375.67Z"/><path class="cls-1" d="M519,322.72c0,.12-23.29.21-52,.21s-52-.09-52-.21,23.29-.21,52-.21S519,322.6,519,322.72Z"/><rect class="cls-2" x="423.88" y="332.65" width="32.17" height="32.17"/><path class="cls-1" d="M511.44,338a1.57,1.57,0,0,1-.47,0l-1.36,0-5,.07-16.46.06-16.46-.06-5-.07-1.36,0a1.57,1.57,0,0,1-.47,0,2.15,2.15,0,0,1,.47,0l1.36,0,5-.07,16.46-.06,16.46.06,5,.07,1.36,0A2.15,2.15,0,0,1,511.44,338Z"/><path class="cls-1" d="M512.48,345.15a3.83,3.83,0,0,1-.49,0l-1.38,0-5.1.07-16.83.06-16.83-.06-5.1-.07-1.39,0a3.77,3.77,0,0,1-.48,0,1.87,1.87,0,0,1,.48,0l1.39,0,5.1-.07,16.83-.06,16.83.06,5.1.07,1.38,0A1.91,1.91,0,0,1,512.48,345.15Z"/><path class="cls-1" d="M512.48,352.33a1.72,1.72,0,0,1-.49,0l-1.38,0-5.1.07-16.83.06-16.83-.06-5.1-.07-1.39,0a1.68,1.68,0,0,1-.48,0,2.32,2.32,0,0,1,.48,0l1.39,0,5.1-.07,16.83-.06,16.83.06,5.1.07,1.38,0A2.37,2.37,0,0,1,512.48,352.33Z"/><path class="cls-1" d="M512.48,359.52l-.49,0-1.38,0-5.1.07-16.83.06-16.83-.06-5.1-.07-1.39,0-.48,0a1.87,1.87,0,0,1,.48,0l1.39,0,5.1-.06,16.83-.07,16.83.07,5.1.06,1.38,0A1.91,1.91,0,0,1,512.48,359.52Z"/><circle class="cls-2" cx="156.72" cy="43.28" r="43.28" transform="translate(15.3 123.49) rotate(-45)"/><path class="cls-3" d="M176.37,44.61a8.08,8.08,0,0,1-1.53.1l-4.21.09c-3.57.05-8.54.08-14.15.09h-.28V41.8c0-6.26,0-11.94.08-16,0-2,.07-3.62.09-4.86a10.27,10.27,0,0,1,.11-1.79,11.72,11.72,0,0,1,.11,1.79c0,1.24,0,2.88.09,4.86,0,4.11.08,9.79.08,16v2.81l-.28-.28c5.61,0,10.58.05,14.15.1l4.21.08A9.32,9.32,0,0,1,176.37,44.61Z"/><path class="cls-3" d="M156.61,7.11a12.26,12.26,0,0,1,.28,3.64,12.21,12.21,0,0,1-.28,3.63,12.21,12.21,0,0,1-.28-3.63A12.26,12.26,0,0,1,156.61,7.11Z"/><path class="cls-3" d="M176.33,13A11.77,11.77,0,0,1,174,15.68,11.77,11.77,0,0,1,171.26,18a11.7,11.7,0,0,1,2.34-2.74A11.87,11.87,0,0,1,176.33,13Z"/><path class="cls-3" d="M187.86,25.54a14.73,14.73,0,0,1-3,2,15.83,15.83,0,0,1-3.14,1.73,9.3,9.3,0,0,1,2.85-2.21A9.74,9.74,0,0,1,187.86,25.54Z"/><path class="cls-3" d="M194.62,44.24a22.54,22.54,0,0,1-5,.28,22.54,22.54,0,0,1-5-.28,21.83,21.83,0,0,1,5-.28A21.83,21.83,0,0,1,194.62,44.24Z"/><path class="cls-3" d="M125.87,43.57a19.43,19.43,0,0,1-4.68.28,19.5,19.5,0,0,1-4.68-.28,20.13,20.13,0,0,1,4.68-.28A20.06,20.06,0,0,1,125.87,43.57Z"/><path class="cls-3" d="M130.74,57.49a20.9,20.9,0,0,1-3.54,3.21,20,20,0,0,1-3.89,2.77,20.9,20.9,0,0,1,3.54-3.21A20.27,20.27,0,0,1,130.74,57.49Z"/><path class="cls-3" d="M142.73,68.25a32,32,0,0,1-2.41,4.18,32.58,32.58,0,0,1-2.55,4.08,15.53,15.53,0,0,1,2.07-4.37A15.79,15.79,0,0,1,142.73,68.25Z"/><path class="cls-3" d="M156.61,82.13a22.54,22.54,0,0,1-.28-5,22.48,22.48,0,0,1,.28-5,22.48,22.48,0,0,1,.28,5A22.54,22.54,0,0,1,156.61,82.13Z"/><path class="cls-3" d="M178,75.53a14.62,14.62,0,0,1-4.09-2.8,14.9,14.9,0,0,1-3.33-3.67,44.94,44.94,0,0,1,3.7,3.24A44.75,44.75,0,0,1,178,75.53Z"/><path class="cls-3" d="M188,64.73a17.57,17.57,0,0,1-3.29-2.89,17.06,17.06,0,0,1-2.88-3.28,17.06,17.06,0,0,1,3.28,2.88A17.57,17.57,0,0,1,188,64.73Z"/><path class="cls-3" d="M130.28,30.24a13.17,13.17,0,0,1-2.9-2.5,13.26,13.26,0,0,1-2.5-2.89,13.17,13.17,0,0,1,2.9,2.5A13.52,13.52,0,0,1,130.28,30.24Z"/><path class="cls-3" d="M142.66,17.21a12.82,12.82,0,0,1-2.85-2.44,12.8,12.8,0,0,1-2.45-2.84,12.74,12.74,0,0,1,2.85,2.44A12.8,12.8,0,0,1,142.66,17.21Z"/><g class="cls-4"><path class="cls-5" d="M589.22,24.52a28.84,28.84,0,0,1,6.22,4.39l6.65-2.37,6.26,9.87-5,5a28.64,28.64,0,0,1,1.31,7.51l6.38,3-2.56,11.4h-7.06A28.32,28.32,0,0,1,597,69.59l2.37,6.65-9.87,6.25-5-5a28.57,28.57,0,0,1-7.5,1.31l-3,6.37-11.4-2.55,0-7.06a28.6,28.6,0,0,1-6.22-4.39l-6.66,2.37-6.25-9.87,5-5a28.63,28.63,0,0,1-1.3-7.51l-6.38-3,2.56-11.4h7.06a28.62,28.62,0,0,1,4.38-6.23l-2.37-6.65,9.87-6.25,5,5a28.49,28.49,0,0,1,7.5-1.31l3-6.37,11.4,2.55,0,7.06ZM579.16,37.94a12.53,12.53,0,1,0,9.49,15A12.53,12.53,0,0,0,579.16,37.94Z"/></g><path class="cls-2" d="M19.7,124.81h74s-6.54-11.9-25.58-10.17c-18.19,1.65-19.11-5.86-28.36-6.78S22.78,114,19.7,124.81Z"/><path class="cls-2" d="M257.39,259.3h59.87s-5.29-9.63-20.71-8.23c-14.72,1.34-15.46-4.74-22.95-5.49S259.88,250.57,257.39,259.3Z"/><rect class="cls-3" x="440.69" y="107.35" width="145.28" height="97.28"/><path class="cls-6" d="M586,204.63s0-.61,0-1.77l0-5.13c0-4.51,0-11.11,0-19.57,0-16.9-.07-41.19-.11-70.81l.21.21-145.27,0h0l.27-.26c0,34.66,0,67.61,0,97.28l-.24-.24,104.67.12,29.9.06,8,0h2l.71,0h-.68l-2,0-7.9,0-29.85.06-104.83.12h-.23v-.24c0-29.67,0-62.62,0-97.28v-.26h.28l145.27.06h.21v.2c-.05,29.67-.09,54-.11,70.94,0,8.44,0,15-.06,19.52,0,2.23,0,3.93,0,5.09S586,204.63,586,204.63Z"/><path class="cls-6" d="M440.69,116c0-.14,32.5-.26,72.58-.26s72.59.12,72.59.26-32.49.26-72.59.26S440.69,116.18,440.69,116Z"/><g class="cls-7"><path class="cls-6" d="M446.43,111.65a1.17,1.17,0,1,1-1.17-1.16A1.17,1.17,0,0,1,446.43,111.65Z"/></g><g class="cls-7"><path class="cls-6" d="M450.42,111.65a1.17,1.17,0,1,1-1.17-1.16A1.17,1.17,0,0,1,450.42,111.65Z"/></g><g class="cls-7"><path class="cls-6" d="M454.35,111.65a1.17,1.17,0,1,1-1.17-1.16A1.17,1.17,0,0,1,454.35,111.65Z"/></g><g class="cls-7"><rect class="cls-6" x="453.18" y="126.18" width="38.75" height="38.75"/></g><path class="cls-6" d="M566.05,137.13c0,.15-15.11.26-33.75.26s-33.76-.11-33.76-.26,15.11-.26,33.76-.26S566.05,137,566.05,137.13Z"/><path class="cls-6" d="M566.05,144.33c0,.15-15.11.26-33.75.26s-33.76-.11-33.76-.26,15.11-.26,33.76-.26S566.05,144.19,566.05,144.33Z"/><path class="cls-6" d="M566.05,151.54c0,.14-15.11.26-33.75.26s-33.76-.12-33.76-.26,15.11-.26,33.76-.26S566.05,151.39,566.05,151.54Z"/><path class="cls-6" d="M538.44,158.74a9.9,9.9,0,0,1-1.57.1l-4.27.08c-3.61.05-8.6.08-14.11.08s-10.5,0-14.11-.08l-4.27-.08a9.9,9.9,0,0,1-1.57-.1,8.58,8.58,0,0,1,1.57-.1l4.27-.09c3.61,0,8.6-.07,14.11-.07s10.5,0,14.11.07l4.27.09A8.58,8.58,0,0,1,538.44,158.74Z"/><g class="cls-7"><rect class="cls-8" x="455.61" y="178" width="18.21" height="18.21"/></g><g class="cls-7"><rect class="cls-6" x="488.64" y="178" width="18.21" height="18.21"/></g><g class="cls-7"><rect class="cls-6" x="521.67" y="178" width="18.21" height="18.21"/></g><g class="cls-7"><rect class="cls-6" x="554.7" y="178" width="18.21" height="18.21"/></g><rect class="cls-3" x="0.2" y="142.4" width="129.42" height="52.57"/><path class="cls-6" d="M129.63,195s0-.33,0-.94,0-1.54,0-2.73c0-2.4,0-5.92,0-10.46,0-9.07,0-22.2-.08-38.44l.15.14L.21,142.6h0l.21-.2c0,18.41,0,36.18,0,52.57l-.2-.2,92.8.09,26.92.06,7.2,0H129l.64,0h-2.46L120,195l-26.87,0L.2,195.16H0V195c0-16.39,0-34.16,0-52.57v-.21H.21l129.42.06h.14v.15c0,16.28-.06,29.43-.08,38.53,0,4.52,0,8,0,10.43,0,1.18,0,2.08,0,2.7S129.63,195,129.63,195Z"/><path class="cls-6" d="M.33,149.49c0-.12,28.93-.21,64.61-.21s64.61.09,64.61.21-28.92.2-64.61.2S.33,149.6.33,149.49Z"/><g class="cls-7"><path class="cls-6" d="M5.75,146.32a.94.94,0,1,1-.94-.94A.95.95,0,0,1,5.75,146.32Z"/></g><g class="cls-7"><path class="cls-6" d="M9,146.32a.94.94,0,1,1-.94-.94A.95.95,0,0,1,9,146.32Z"/></g><g class="cls-7"><path class="cls-6" d="M12.14,146.32a.94.94,0,1,1-.94-.94A.95.95,0,0,1,12.14,146.32Z"/></g><g class="cls-7"><rect class="cls-6" x="11.2" y="158.03" width="31.26" height="31.26"/></g><path class="cls-6" d="M120.67,166.41c0,.11-16.08.2-35.92.2s-35.93-.09-35.93-.2,16.08-.21,35.93-.21S120.67,166.3,120.67,166.41Z"/><path class="cls-6" d="M120.67,172.78c0,.11-16.08.2-35.92.2s-35.93-.09-35.93-.2,16.08-.21,35.93-.21S120.67,172.66,120.67,172.78Z"/><path class="cls-6" d="M95.07,179.15l-.47,0-1.34,0-5,.07L72,179.35l-16.36-.06-5-.07-1.35,0-.47,0a1.74,1.74,0,0,1,.47-.05l1.35,0,5-.07L72,178.94,88.3,179l5,.07,1.34,0A1.74,1.74,0,0,1,95.07,179.15Z"/><path class="cls-2" d="M302.32,76.34c-2.17-1.45-5.15-.57-7.32.87s-4,3.43-6.45,4.38c-4.57,1.77-10.55-.33-14.1,3-2.25,2.14-2.48,5.66-4.2,8.24-2.89,4.36-9.85,6-10.44,11.2-.35,3,2.05,6,5,6.8a10.7,10.7,0,0,0,8.7-1.74c3-2,5.31-5,8.69-6.14s7.73-.19,10.46-2.6,2.32-6.86,4.28-9.94a19.74,19.74,0,0,1,4.15-4.06c1.47-1.27,2.87-2.84,3.12-4.77s-.54-5.22-1.87-5.29"/><path class="cls-9" d="M246,288.79c.12-.08.53.33.91.9s.59,1.11.47,1.19-.52-.32-.91-.9S245.85,288.86,246,288.79Z"/><path class="cls-9" d="M241.69,279.77a6.3,6.3,0,0,1,1.19,2.21,6.54,6.54,0,0,1,.71,2.42,11.84,11.84,0,0,1-1.9-4.63Z"/><path class="cls-9" d="M239.37,270.05a12.17,12.17,0,0,1,.91,4.92,6.2,6.2,0,0,1-.71-2.42A5.86,5.86,0,0,1,239.37,270.05Z"/><path class="cls-9" d="M239,260.06a6.4,6.4,0,0,1,.22,2.5,6.46,6.46,0,0,1-.29,2.5,5.94,5.94,0,0,1-.23-2.5A6,6,0,0,1,239,260.06Z"/><path class="cls-9" d="M240.63,250.19a6.23,6.23,0,0,1-.27,2.5,6.42,6.42,0,0,1-.78,2.4,12.12,12.12,0,0,1,1-4.9Z"/><path class="cls-9" d="M244.23,240.87a6.31,6.31,0,0,1-.79,2.39,6.15,6.15,0,0,1-1.26,2.18,12.31,12.31,0,0,1,2-4.57Z"/><path class="cls-9" d="M249.74,232.54a6.26,6.26,0,0,1-1.28,2.16,6.82,6.82,0,0,1-1.69,1.86c-.14-.09.44-1.05,1.27-2.16S249.63,232.45,249.74,232.54Z"/><path class="cls-9" d="M256.46,225.13c.1.1-.58,1-1.53,2s-1.81,1.73-1.92,1.64.58-1,1.54-2S256.36,225,256.46,225.13Z"/><path class="cls-9" d="M263.5,218c.11.1-.6,1-1.57,2s-1.84,1.7-1.94,1.6.6-1,1.57-2S263.4,217.92,263.5,218Z"/><path class="cls-9" d="M270.08,210.48a6.28,6.28,0,0,1-1.39,2.1c-.88,1.07-1.68,1.87-1.79,1.77s.51-1,1.39-2.1S270,210.4,270.08,210.48Z"/><path class="cls-9" d="M275.18,201.9a5.44,5.44,0,0,1-.84,2.38c-.64,1.24-1.33,2.14-1.45,2.06a7.23,7.23,0,0,1,1-2.3C274.51,202.82,275,201.84,275.18,201.9Z"/><path class="cls-9" d="M277.61,192.23a8.77,8.77,0,0,1-.82,4.94,7.68,7.68,0,0,1,.26-2.5A7.8,7.8,0,0,1,277.61,192.23Z"/><path class="cls-9" d="M276.87,182.3a5.13,5.13,0,0,1,.74,2.41,5.27,5.27,0,0,1,0,2.53,20.08,20.08,0,0,1-.77-4.94Z"/><path class="cls-9" d="M272.94,173.15c.12-.08.85.79,1.51,2a5.17,5.17,0,0,1,.85,2.38,8.31,8.31,0,0,1-1.31-2.13A8.16,8.16,0,0,1,272.94,173.15Z"/><path class="cls-9" d="M266,166.05a5,5,0,0,1,2.16,1.31c1.08.9,1.78,1.8,1.68,1.9s-1-.62-2-1.5S265.88,166.17,266,166.05Z"/><path class="cls-9" d="M256.87,162a8.59,8.59,0,0,1,4.73,1.62,8.1,8.1,0,0,1-2.41-.67A8.3,8.3,0,0,1,256.87,162Z"/><path class="cls-9" d="M246.94,161.54a5,5,0,0,1,2.47-.52,5.13,5.13,0,0,1,2.52.26,24.06,24.06,0,0,1-5,.26Z"/><path class="cls-9" d="M237.71,165.22c-.08-.12.78-.87,2-1.54a5,5,0,0,1,2.39-.83,8.61,8.61,0,0,1-2.15,1.29A8.19,8.19,0,0,1,237.71,165.22Z"/><path class="cls-9" d="M230.85,172.41a5,5,0,0,1,1.22-2.22c.86-1.1,1.74-1.83,1.84-1.73s-.59,1-1.42,2S231,172.48,230.85,172.41Z"/><path class="cls-9" d="M227.48,181.75a4.92,4.92,0,0,1,.19-2.52,5,5,0,0,1,1-2.34,8.29,8.29,0,0,1-.47,2.46A9.27,9.27,0,0,1,227.48,181.75Z"/><path class="cls-9" d="M228.67,191.59a4.82,4.82,0,0,1-1-2.33,4.87,4.87,0,0,1-.2-2.52,8.69,8.69,0,0,1,.7,2.4A8.89,8.89,0,0,1,228.67,191.59Z"/><path class="cls-9" d="M233.74,200.16c-.11.1-.94-.68-1.75-1.82a5.27,5.27,0,0,1-1.17-2.24c.13-.07.79.83,1.59,1.94A7.7,7.7,0,0,1,233.74,200.16Z"/><path class="cls-9" d="M241.1,206.91a5.61,5.61,0,0,1-2.15-1.32c-1.09-.87-1.84-1.73-1.74-1.83s1,.56,2.06,1.43S241.18,206.79,241.1,206.91Z"/><path class="cls-9" d="M249.77,211.88a12.41,12.41,0,0,1-4.46-2.27,6.27,6.27,0,0,1,2.35.9C248.88,211.13,249.83,211.74,249.77,211.88Z"/><path class="cls-9" d="M259.28,214.9a5.35,5.35,0,0,1-2.5-.29,5.42,5.42,0,0,1-2.34-1,7.16,7.16,0,0,1,2.47.44A7.44,7.44,0,0,1,259.28,214.9Z"/><path class="cls-9" d="M269.24,215.42a5.22,5.22,0,0,1-2.49.4,5.34,5.34,0,0,1-2.5-.3,7.35,7.35,0,0,1,2.49-.22A7.49,7.49,0,0,1,269.24,215.42Z"/><path class="cls-9" d="M278.87,212.84a5.16,5.16,0,0,1-2.23,1.19,5.07,5.07,0,0,1-2.47.5,20,20,0,0,1,4.7-1.69Z"/><path class="cls-9" d="M287.21,207.38c.1.11-.66,1-1.77,1.8a5.25,5.25,0,0,1-2.2,1.24c-.07-.12.8-.82,1.88-1.65S287.11,207.27,287.21,207.38Z"/><path class="cls-9" d="M293.72,199.82a5.42,5.42,0,0,1-1.23,2.2c-.83,1.12-1.67,1.89-1.77,1.8s.53-1,1.36-2.11S293.6,199.74,293.72,199.82Z"/><path class="cls-9" d="M298.05,190.82a5.26,5.26,0,0,1-.62,2.45,5.44,5.44,0,0,1-1.25,2.19,7.44,7.44,0,0,1,.77-2.38A7.53,7.53,0,0,1,298.05,190.82Z"/><path class="cls-9" d="M300,181a9.54,9.54,0,0,1-.68,4.95,7.36,7.36,0,0,1,.15-2.5A7.07,7.07,0,0,1,300,181Z"/><path class="cls-9" d="M299.73,171a6,6,0,0,1,.45,2.47,6.23,6.23,0,0,1-.06,2.51,6.11,6.11,0,0,1-.46-2.47A6.43,6.43,0,0,1,299.73,171Z"/><path class="cls-9" d="M297.56,161.28a6,6,0,0,1,.9,2.34,6.18,6.18,0,0,1,.41,2.49,6.29,6.29,0,0,1-.91-2.35A6.18,6.18,0,0,1,297.56,161.28Z"/><path class="cls-9" d="M293.73,152c.13-.07.73.88,1.33,2.13a6.46,6.46,0,0,1,.78,2.4c-.14.06-.69-.92-1.25-2.18A6.23,6.23,0,0,1,293.73,152Z"/><path class="cls-9" d="M288.81,143.32a6.43,6.43,0,0,1,1.49,2,6.09,6.09,0,0,1,1,2.29,6.43,6.43,0,0,1-1.49-2A6.22,6.22,0,0,1,288.81,143.32Z"/><path class="cls-9" d="M283.85,134.64a6.29,6.29,0,0,1,1.44,2.06,6.5,6.5,0,0,1,1,2.31c-.13.08-.77-.85-1.44-2.06A6.15,6.15,0,0,1,283.85,134.64Z"/><path class="cls-9" d="M279.94,125.44a6.32,6.32,0,0,1,1.12,2.25,6,6,0,0,1,.62,2.43,6.13,6.13,0,0,1-1.11-2.25A6,6,0,0,1,279.94,125.44Z"/><path class="cls-9" d="M278.24,115.61a7.28,7.28,0,0,1,.44,2.46,7.35,7.35,0,0,1,.09,2.51,9.18,9.18,0,0,1-.53-5Z"/><path class="cls-9" d="M279.06,105.66a7,7,0,0,1-.18,2.5,7.2,7.2,0,0,1-.54,2.45,9.52,9.52,0,0,1,.72-5Z"/><path class="cls-9" d="M282.32,96.22a7.42,7.42,0,0,1-.79,2.38,7.46,7.46,0,0,1-1.13,2.23,5.3,5.3,0,0,1,.65-2.43A5.52,5.52,0,0,1,282.32,96.22Z"/><path class="cls-9" d="M287.9,87.94c.11.1-.55,1-1.39,2.09S285,92,284.84,91.89a5.36,5.36,0,0,1,1.26-2.18C287,88.61,287.79,87.85,287.9,87.94Z"/><path class="cls-9" d="M295.4,81.36c.09.12-.78.83-1.86,1.67s-2,1.49-2.1,1.38.67-.94,1.78-1.79A5.5,5.5,0,0,1,295.4,81.36Z"/><path class="cls-9" d="M304.31,76.83a17.74,17.74,0,0,1-4.59,2c-.07-.13.88-.75,2.16-1.31A5.53,5.53,0,0,1,304.31,76.83Z"/><path class="cls-9" d="M311.56,75c0,.14-.51.36-1.18.48s-1.25.11-1.28,0,.5-.35,1.18-.48S311.54,74.86,311.56,75Z"/><path class="cls-10" d="M332,45.56s11.74-8.38,28-3c0,0,1.33,13.45-11.7,24.15"/><path class="cls-10" d="M294.94,70.42c.5.75,13.24,21.24,13.24,21.24l38.28-23.58A13.4,13.4,0,0,0,350.2,48.7h0A13.39,13.39,0,0,0,332,45.56Z"/><path class="cls-11" d="M308.18,91.66l-.85,14.42s24.8-12,18.61-25.36Z"/><path class="cls-11" d="M312.67,58.51S295.85,51.09,282,62l12.94,8.44Z"/><path class="cls-11" d="M312.55,70.43l-23.94,15s.83,2.58,1.47,2.36S308.6,77,314.44,73.51a1.8,1.8,0,0,0,.47-2.69h0A1.81,1.81,0,0,0,312.55,70.43Z"/><circle class="cls-12" cx="334.6" cy="59.08" r="7.66" transform="translate(200.46 371.26) rotate(-76.76)"/><path class="cls-9" d="M342.26,59.08c-.06,0,0-.68-.34-1.84a7.6,7.6,0,0,0-2.8-4.1,7.47,7.47,0,0,0-7.05-1,7.3,7.3,0,0,0-3.44,2.59,7.38,7.38,0,0,0,0,8.76,7.3,7.3,0,0,0,3.44,2.59,7.43,7.43,0,0,0,3.9.35A7.54,7.54,0,0,0,339.12,65a7.67,7.67,0,0,0,2.8-4.1c.31-1.17.28-1.85.34-1.85a1.56,1.56,0,0,1,0,.49,6.81,6.81,0,0,1-.17,1.41,7.76,7.76,0,0,1-6.07,5.84,7.87,7.87,0,0,1-7.83-3.06,7.84,7.84,0,0,1,0-9.36,7.79,7.79,0,0,1,3.68-2.74,7.94,7.94,0,0,1,4.15-.32,7.74,7.74,0,0,1,3.29,1.5,7.65,7.65,0,0,1,2.78,4.35,6.81,6.81,0,0,1,.17,1.4A1.56,1.56,0,0,1,342.26,59.08Z"/><path class="cls-9" d="M351.59,64.19c-.1,0-.22-1.49-.8-3.82a31.49,31.49,0,0,0-1.33-4,32.41,32.41,0,0,0-2.4-4.55,31.28,31.28,0,0,0-3.17-4.06,28.62,28.62,0,0,0-3.09-2.86c-1.88-1.49-3.19-2.21-3.14-2.3a4.43,4.43,0,0,1,.95.45,11.58,11.58,0,0,1,1.06.63c.41.27.88.55,1.36.93a25.47,25.47,0,0,1,3.21,2.82,29.23,29.23,0,0,1,3.26,4.1,29.56,29.56,0,0,1,2.4,4.66,26.67,26.67,0,0,1,1.25,4.09c.15.59.21,1.14.29,1.61a11.26,11.26,0,0,1,.13,1.23A3.75,3.75,0,0,1,351.59,64.19Z"/><path class="cls-9" d="M349.52,65.29c-.09,0-.21-1.51-.81-3.88a30.49,30.49,0,0,0-1.35-4.06,32.47,32.47,0,0,0-2.43-4.64,31.57,31.57,0,0,0-3.21-4.14,29.9,29.9,0,0,0-3.12-2.93c-1.91-1.53-3.24-2.27-3.19-2.36a4.33,4.33,0,0,1,1,.47,9.34,9.34,0,0,1,1.08.65,15.74,15.74,0,0,1,1.37,1,25.84,25.84,0,0,1,3.25,2.89,29.11,29.11,0,0,1,3.3,4.19,30.47,30.47,0,0,1,2.43,4.74,26.47,26.47,0,0,1,1.27,4.16c.15.6.21,1.15.29,1.64a9.52,9.52,0,0,1,.14,1.25A3.81,3.81,0,0,1,349.52,65.29Z"/><path class="cls-6" d="M88.06,383.19c-.85-3.4,1.39-6.79,3.9-9.24s5.51-4.64,6.82-7.89c2.14-5.26-.65-12.11,3-16.49,2.13-2.58,5.92-3.43,7.81-6.18a14.09,14.09,0,0,0,1.71-4.94,50.25,50.25,0,0,1,12.63-23.3,43.68,43.68,0,0,1-5,22.5c-1.47,2.76-3.27,5.45-3.77,8.53-.81,5,2,10.2.7,15.12-1.44,5.62-7.79,9.36-8.12,15.15-.28,4.9,4,9.23,3.62,14.13a13.28,13.28,0,0,1-2.22,5.8c-3.82,6.28-9.42,10.59-17.85,10.4l-10.34.3Z"/><g class="cls-7"><path class="cls-6" d="M88.06,383.19c-.85-3.4,1.39-6.79,3.9-9.24s5.51-4.64,6.82-7.89c2.14-5.26-.65-12.11,3-16.49,2.13-2.58,5.92-3.43,7.81-6.18a14.09,14.09,0,0,0,1.71-4.94,50.25,50.25,0,0,1,12.63-23.3,43.68,43.68,0,0,1-5,22.5c-1.47,2.76-3.27,5.45-3.77,8.53-.81,5,2,10.2.7,15.12-1.44,5.62-7.79,9.36-8.12,15.15-.28,4.9,4,9.23,3.62,14.13a13.28,13.28,0,0,1-2.22,5.8c-3.82,6.28-9.42,10.59-17.85,10.4l-10.34.3Z"/></g><path class="cls-9" d="M78.78,407.34a8.3,8.3,0,0,1-2.84-.08,17.29,17.29,0,0,1-3.36-.86,14.28,14.28,0,0,1-4.13-2.3,5.82,5.82,0,0,1-1.7-2.28,10.74,10.74,0,0,1-.47-3.09,29.88,29.88,0,0,0-.22-3.35,9.32,9.32,0,0,0-1.24-3.33c-1.21-2.15-3.22-4.19-3.86-7.1s-.17-5.95.33-9.06,1-6.47-.18-9.71-3.34-6.17-4.46-9.82-.56-7.64-.77-11.55a15.36,15.36,0,0,0-1.32-5.75c-.82-1.83-2-3.56-2.87-5.5-1.81-3.9-2.11-8.32-2.59-12.64-.23-2.18-.46-4.39-.7-6.61a32.14,32.14,0,0,0-1.11-6.62,59.67,59.67,0,0,0-2.44-6.41,21.39,21.39,0,0,1-1.18-3.35,33.34,33.34,0,0,1-.31-3.56,42.84,42.84,0,0,1,.31-7.15c.3-2.39.74-4.75,1-7.14,0-.14,0-.28,0-.41l.06-.47.42.21a15.94,15.94,0,0,1,5.54,4.73,25.35,25.35,0,0,1,3.38,6.32c1.7,4.45,2.3,9.11,3.14,13.55s1.92,8.82,4.18,12.53c1.12,1.85,2.48,3.53,3.67,5.34a14.49,14.49,0,0,1,2.53,5.9c.59,4.38-1.84,8.21-1.36,12.08a13.48,13.48,0,0,0,1.85,5.38c.93,1.65,2,3.19,3.07,4.74A30.39,30.39,0,0,1,74,354.76,15,15,0,0,1,75.19,360c.24,3.49-.28,6.79,0,9.92a22.79,22.79,0,0,0,2.5,8.51c1.24,2.55,2.62,4.85,3.77,7.09.58,1.12,1.11,2.21,1.55,3.3a16.53,16.53,0,0,1,.89,3.28,20.87,20.87,0,0,1,0,5.9,14.94,14.94,0,0,1-3,7.51,8.4,8.4,0,0,1-.84.9,4.87,4.87,0,0,1-.68.57c-.39.28-.6.41-.6.41a12.11,12.11,0,0,0,2-2,14.87,14.87,0,0,0,2.85-7.46,20.39,20.39,0,0,0-.1-5.81,15.65,15.65,0,0,0-.89-3.2c-.44-1.07-1-2.15-1.56-3.26-1.16-2.21-2.55-4.51-3.82-7.08a23.36,23.36,0,0,1-2.59-8.66c-.25-3.19.25-6.51,0-9.91a14.88,14.88,0,0,0-1.21-5,30.15,30.15,0,0,0-2.72-4.69c-1-1.53-2.15-3.07-3.1-4.77a13.81,13.81,0,0,1-1.94-5.59c-.48-4.13,1.94-8,1.34-12.05a14.11,14.11,0,0,0-2.45-5.65c-1.17-1.77-2.54-3.46-3.69-5.35-2.33-3.81-3.44-8.27-4.28-12.74s-1.45-9.08-3.12-13.44a24.46,24.46,0,0,0-3.29-6.15A15.31,15.31,0,0,0,44.91,280l.48-.26,0,.42c-.27,2.42-.72,4.78-1,7.14a41.63,41.63,0,0,0-.31,7,32,32,0,0,0,.3,3.46A20,20,0,0,0,45.46,301a59.13,59.13,0,0,1,2.45,6.49A32.67,32.67,0,0,1,49,314.23q.35,3.34.69,6.62c.47,4.34.77,8.69,2.52,12.46.86,1.87,2,3.61,2.86,5.51a15.81,15.81,0,0,1,1.35,6c.2,4-.34,7.88.72,11.42s3.29,6.47,4.41,9.82.68,6.86.17,10-1,6.13-.39,8.89,2.54,4.8,3.77,7a9.58,9.58,0,0,1,1.26,3.47,28.68,28.68,0,0,1,.2,3.38,10.63,10.63,0,0,0,.42,3,5.62,5.62,0,0,0,1.59,2.19,14.36,14.36,0,0,0,4,2.3,17.44,17.44,0,0,0,3.31.92,12.46,12.46,0,0,0,2.1.21Z"/><path class="cls-9" d="M46.81,285.37a1.19,1.19,0,0,1,.1.32l.22.93c.2.81.44,2.05.82,3.58s1.32,3.27,2.11,5.41,1.66,4.59,2.42,7.35,1.45,5.83,2.16,9.11a38.45,38.45,0,0,0,3.26,10.12c.83,1.68,1.78,3.38,2.53,5.25a24.58,24.58,0,0,1,1.45,5.94A118.14,118.14,0,0,0,64,345.9c2,8.48,3.95,16.56,5.71,23.92s3.42,13.93,4.78,19.5,2.41,10,3.18,13.17c.35,1.52.62,2.72.83,3.59.08.38.14.69.2.93a1.19,1.19,0,0,1,0,.33,1.19,1.19,0,0,1-.11-.31c-.07-.24-.16-.55-.26-.92-.23-.86-.55-2.05-1-3.56-.82-3.15-2-7.61-3.38-13.11S71,377.28,69.15,370L63.39,346a117.27,117.27,0,0,1-2.15-12.57,24.35,24.35,0,0,0-1.4-5.8c-.72-1.81-1.65-3.51-2.49-5.21a38.43,38.43,0,0,1-3.24-10.27c-.69-3.29-1.34-6.35-2.08-9.11s-1.53-5.21-2.31-7.33-1.65-3.9-2-5.48-.54-2.79-.7-3.62c-.06-.39-.11-.7-.16-.95A1.34,1.34,0,0,1,46.81,285.37Z"/><path class="cls-10" d="M77,407.36c-6.73-4.05-8.6-16.24-5.74-23.56s7.82-14,8.63-21.8c.62-6-1.32-12.19.12-18.05,1.93-7.92,9.7-14,9.66-22.16,0-4.58-2.6-8.89-2.37-13.46.29-5.6,4.62-10,7.31-14.94,4.12-7.53,4.43-16.46,5.88-24.92s4.72-17.52,12.25-21.64c1.07,7.2,2.93,12.14,2.28,21.87-.23,3.5-4.33,10.18-4.93,17.84-.36,4.58-.61,9.17-.92,13.75s-.61,9-2.23,13.17c-1.25,3.2-3.23,6.09-4.16,9.39-1.75,6.21.46,12.95-1,19.24-1.2,5.33-4.92,9.9-5.7,15.3-1.11,7.6,3.77,15.52,1.21,22.75-1.27,3.6-4.25,6.47-5.11,10.18-.67,2.88,0,5.93-.58,8.82-1,4.66-9.89,8.23-14.64,7.92"/><path class="cls-9" d="M110.8,254a2.11,2.11,0,0,1,0,.41c0,.3-.1.69-.16,1.18-.16,1-.35,2.56-.71,4.53s-1.42,4.21-2.25,6.89-1.76,5.77-2.53,9.23-1.46,7.29-2.16,11.42-1.46,8.61-3.53,12.9c-1,2.15-2,4.3-2.85,6.6a29.47,29.47,0,0,0-1.46,7.29,149.12,149.12,0,0,1-2.07,15.72c-2.13,10.64-4.16,20.78-6,30s-3.7,17.47-5.17,24.44S79.19,397.11,78.34,401q-.63,2.86-1,4.47c-.12.48-.21.86-.28,1.16a1.86,1.86,0,0,1-.11.39,1.6,1.6,0,0,1,.05-.41c0-.3.12-.68.21-1.17.21-1.07.5-2.58.87-4.49.8-3.95,1.93-9.57,3.33-16.51s3.14-15.27,5-24.47,3.83-19.36,5.94-30a147.28,147.28,0,0,0,2.08-15.67A30.26,30.26,0,0,1,96,306.91c.84-2.35,1.93-4.51,2.89-6.64,2.06-4.22,2.8-8.64,3.55-12.75s1.42-7.95,2.24-11.42,1.72-6.57,2.63-9.24,1.94-4.91,2.36-6.84.62-3.47.82-4.5c.1-.48.17-.87.23-1.17A1.6,1.6,0,0,1,110.8,254Z"/><rect class="cls-6" x="450.27" y="249.99" width="6.97" height="22.52"/><rect class="cls-6" x="463.1" y="240.72" width="6.97" height="31.78"/><rect class="cls-6" x="476.75" y="236.39" width="6.97" height="36.11"/><rect class="cls-6" x="490.41" y="231.83" width="6.97" height="40.68"/><path class="cls-9" d="M197.11,228.69a4.8,4.8,0,0,1,1.5.47,6.25,6.25,0,0,1,3,3,6.33,6.33,0,0,1,.61,2.92,6.46,6.46,0,0,1-1,3.27,6.42,6.42,0,0,1-2.87,2.46,6.46,6.46,0,0,1-7.51-1.68,6.11,6.11,0,0,1-1-1.65,6.27,6.27,0,0,1-.5-1.81,6.43,6.43,0,0,1,.49-3.38,6.41,6.41,0,0,1,5.79-3.84,4.73,4.73,0,0,1,1.55.22,15.11,15.11,0,0,0-1.55-.08,6.38,6.38,0,0,0-3.83,1.51,6.23,6.23,0,0,0-1.68,2.31,6.15,6.15,0,0,0-.44,3.22,6.07,6.07,0,0,0,1.48,3.26,6.12,6.12,0,0,0,7.1,1.6,6.4,6.4,0,0,0,2.73-2.32,6.23,6.23,0,0,0,.44-5.91,6.35,6.35,0,0,0-2.81-3A13.14,13.14,0,0,0,197.11,228.69Z"/><path class="cls-9" d="M202.19,221.91a2.07,2.07,0,0,1,0-.23c0-.16,0-.39,0-.67q0-.93,0-2.67l0,0-5.77-1.26.1,0L195,220.31l0,.06h-.07a14.91,14.91,0,0,0-3.76.67l-.07,0L191,221l-2.54-2.51.17,0-5,3.17.06-.17c.37,1,.79,2.19,1.21,3.36l0,.09-.07.07a14.47,14.47,0,0,0-2.18,3.11l0,.09H179l.16-.13c-.41,1.82-.84,3.77-1.29,5.77l-.09-.19,3.22,1.53.1,0v.11a14.44,14.44,0,0,0,.66,3.74l0,.11-.08.07-2.51,2.53,0-.22c1,1.58,2.08,3.27,3.16,5l-.21-.07,3.36-1.2.11,0,.08.08a14.1,14.1,0,0,0,3.1,2.18h0l.09.16h0v3.55l-.14-.18,5.76,1.29-.2.1c.52-1.08,1-2.16,1.53-3.22l0-.1H196a14.74,14.74,0,0,0,3.75-.65l.1,0,.07.08,2.53,2.52-.21,0,5-3.16-.07.2L206,244.74l0-.09.07-.07a14.55,14.55,0,0,0,2.2-3.11l0-.09h3.67l-.15.12,1.3-5.76.08.16L210,234.36l-.07,0v-.08a14.27,14.27,0,0,0-.65-3.76l0-.07,0,0,2.53-2.52,0,.13c-1.21-1.94-2.25-3.59-3.14-5l.1,0-3.37,1.18h0l0,0A14.73,14.73,0,0,0,203,222.4l-.62-.37-.2-.12s.08,0,.22.09l.63.35a13.69,13.69,0,0,1,2.34,1.73h-.06l3.36-1.22.06,0,0,0,3.19,5,0,.07-.06.06-2.51,2.54,0-.12a14.65,14.65,0,0,1,.68,3.82l-.08-.11,3.23,1.52.1.05,0,.11c-.41,1.82-.83,3.74-1.29,5.77l0,.11h-.12l-3.57,0,.14-.09a15,15,0,0,1-2.24,3.19l0-.17c.4,1.1.8,2.23,1.21,3.37l0,.12-.11.07-5,3.17-.12.07-.09-.09-2.54-2.52.18,0a14.52,14.52,0,0,1-3.84.67l.16-.1c-.51,1.07-1,2.14-1.53,3.23l-.06.13-.15,0-5.76-1.29-.14,0v-3.69h0c.2.32,0,.09.1.16h0a14.6,14.6,0,0,1-3.19-2.25l.19,0-3.37,1.2-.13,0-.08-.13c-1.09-1.71-2.16-3.41-3.16-5l-.08-.12.1-.1,2.52-2.53,0,.18a14.4,14.4,0,0,1-.66-3.84l.09.15L177.62,234l-.12-.06,0-.13c.45-2,.89-4,1.3-5.77l0-.12h3.7l-.14.09a14.9,14.9,0,0,1,2.24-3.18l0,.15c-.41-1.17-.82-2.32-1.19-3.36l0-.11.1-.06,5-3.15.08-.06.08.08c.88.88,1.73,1.74,2.52,2.52l-.12,0a14.44,14.44,0,0,1,3.83-.65l-.1.06,1.55-3.22,0-.06h.07l5.76,1.33h0v.05c0,1.14,0,2,0,2.64,0,.3,0,.52,0,.69A1.35,1.35,0,0,1,202.19,221.91Z"/><path class="cls-13" d="M191.31,177.05a15.58,15.58,0,0,1,3.48,2.45l3.72-1.33,3.49,5.52-2.78,2.8a16.29,16.29,0,0,1,.73,4.19l3.56,1.69-1.43,6.37h-3.94a16.26,16.26,0,0,1-2.45,3.48L197,206l-5.52,3.5-2.79-2.79a16,16,0,0,1-4.2.73L182.81,211l-6.37-1.43v-3.95a15.92,15.92,0,0,1-3.48-2.45l-3.72,1.32-3.49-5.51,2.78-2.8a16.29,16.29,0,0,1-.73-4.19l-3.56-1.7,1.43-6.37h3.94a16.51,16.51,0,0,1,2.45-3.48l-1.32-3.72,5.52-3.49L179,176a16.44,16.44,0,0,1,4.2-.73l1.69-3.56,6.37,1.43v4Zm-5.62,7.49a7,7,0,1,0,5.3,8.37A7,7,0,0,0,185.69,184.54Z"/><g class="cls-4"><path class="cls-14" d="M191.31,177.05a15.58,15.58,0,0,1,3.48,2.45l3.72-1.33,3.49,5.52-2.78,2.8a16.29,16.29,0,0,1,.73,4.19l3.56,1.69-1.43,6.37h-3.94a16.26,16.26,0,0,1-2.45,3.48L197,206l-5.52,3.5-2.79-2.79a16,16,0,0,1-4.2.73L182.81,211l-6.37-1.43v-3.95a15.92,15.92,0,0,1-3.48-2.45l-3.72,1.32-3.49-5.51,2.78-2.8a16.29,16.29,0,0,1-.73-4.19l-3.56-1.7,1.43-6.37h3.94a16.51,16.51,0,0,1,2.45-3.48l-1.32-3.72,5.52-3.49L179,176a16.44,16.44,0,0,1,4.2-.73l1.69-3.56,6.37,1.43v4Zm-5.62,7.49a7,7,0,1,0,5.3,8.37A7,7,0,0,0,185.69,184.54Z"/></g><path class="cls-15" d="M168.27,214.58a9.65,9.65,0,0,1,2,1.43l2.16-.77,2,3.21-1.62,1.63a9.05,9.05,0,0,1,.43,2.44l2.07,1-.83,3.71h-2.3a9.3,9.3,0,0,1-1.42,2l.77,2.17-3.21,2-1.63-1.62a9.46,9.46,0,0,1-2.44.43l-1,2.07-3.71-.83v-2.3a9.16,9.16,0,0,1-2-1.43l-2.16.77-2-3.21L155,225.7a9.6,9.6,0,0,1-.42-2.45l-2.08-1,.84-3.71h2.29a9.34,9.34,0,0,1,1.43-2l-.77-2.17,3.21-2,1.63,1.62a9,9,0,0,1,2.44-.42l1-2.08,3.7.83v2.3ZM165,218.94a4.08,4.08,0,1,0,3.09,4.88A4.08,4.08,0,0,0,165,218.94Z"/><g class="cls-16"><path class="cls-15" d="M168.27,214.58a9.65,9.65,0,0,1,2,1.43l2.16-.77,2,3.21-1.62,1.63a9.05,9.05,0,0,1,.43,2.44l2.07,1-.83,3.71h-2.3a9.3,9.3,0,0,1-1.42,2l.77,2.17-3.21,2-1.63-1.62a9.46,9.46,0,0,1-2.44.43l-1,2.07-3.71-.83v-2.3a9.16,9.16,0,0,1-2-1.43l-2.16.77-2-3.21L155,225.7a9.6,9.6,0,0,1-.42-2.45l-2.08-1,.84-3.71h2.29a9.34,9.34,0,0,1,1.43-2l-.77-2.17,3.21-2,1.63,1.62a9,9,0,0,1,2.44-.42l1-2.08,3.7.83v2.3ZM165,218.94a4.08,4.08,0,1,0,3.09,4.88A4.08,4.08,0,0,0,165,218.94Z"/></g><path class="cls-9" d="M393.12,228.29a9.76,9.76,0,0,0,7.07-9.74c-.13-2-.85-3.86-.77-5.82.13-3,2.15-5.61,3.67-8.25s2.53-6.12.76-8.59c-1.15-1.61-3.17-2.33-4.56-3.73s-2-3.28-2.74-5.07-1.67-3.63-3.35-4.59-4.26-.53-4.94,1.28"/><path class="cls-9" d="M375,179c3-1.9,3.72-6.31,2.1-9.46s-5.07-5.07-8.57-5.64a16.34,16.34,0,0,0-14.07,4.66c-1.93,2-3.5,4.59-6.12,5.5-2.31.8-4.85.08-7.27.39a11,11,0,0,0-7.69,5.55,23.65,23.65,0,0,0-2.73,9.34c-.36,3-.59,6.26-2.66,8.43s-5.2,2.57-7.71,4.08a10.56,10.56,0,0,0-3.13,14.41c1,1.45,2.42,2.78,2.53,4.53.11,1.6-.93,3-1.41,4.56a7.12,7.12,0,0,0,6.09,8.84c2.08.12,4.31-.69,6.18.24s2.54,3.16,3.72,4.85a8.91,8.91,0,0,0,10.86,2.81c1.53-.75,3-2,4.68-1.88s3,1.57,4.7,1.89c2.19.42,4.26-1.19,5.56-3s2.21-3.94,3.87-5.42c2.18-1.94,5.24-2.42,8-3.37a22.54,22.54,0,0,0,12.74-31.58"/><path class="cls-17" d="M381.54,182.9a4.78,4.78,0,0,1,4.27,4.86h0L383,252.44c-.12,7.63-11.28,11.93-19.46,11.74h0c-8.26-.2-8.52-4.25-8.63-11.51-.17-12.14-.16-16.7-.16-16.63s-10.43-1.76-12.56-15.38c-1.06-6.77-.7-17.87-.11-26.94.54-8.17,6-18.18,14.11-17.3Z"/><path class="cls-9" d="M345,202.53a1.75,1.75,0,0,0,1.68,1.77,1.67,1.67,0,0,0,1.8-1.57,1.74,1.74,0,0,0-1.68-1.77A1.67,1.67,0,0,0,345,202.53Z"/><path class="cls-9" d="M344.43,199.5c.21.22,1.54-.75,3.42-.74s3.25,1,3.46.72-.12-.51-.72-.95a4.79,4.79,0,0,0-2.77-.86,4.55,4.55,0,0,0-2.72.87C344.52,199,344.32,199.39,344.43,199.5Z"/><path class="cls-9" d="M363.76,202.53a1.75,1.75,0,0,0,1.68,1.77,1.67,1.67,0,0,0,1.8-1.57,1.74,1.74,0,0,0-1.68-1.77A1.67,1.67,0,0,0,363.76,202.53Z"/><path class="cls-9" d="M362.9,199.89c.21.23,1.54-.75,3.42-.74s3.25.95,3.46.72-.12-.51-.72-1a4.79,4.79,0,0,0-2.77-.86,4.55,4.55,0,0,0-2.72.87C363,199.37,362.79,199.79,362.9,199.89Z"/><path class="cls-9" d="M356.05,213.81a12.39,12.39,0,0,0-3.05-.56c-.48-.05-.94-.15-1-.47a2.45,2.45,0,0,1,.33-1.43l1.42-3.65c2-5.19,3.42-9.47,3.21-9.55s-2,4.08-4,9.27c-.47,1.28-.93,2.51-1.37,3.68a2.8,2.8,0,0,0-.25,1.88,1.19,1.19,0,0,0,.79.7,3.31,3.31,0,0,0,.81.12A13.09,13.09,0,0,0,356.05,213.81Z"/><path class="cls-18" d="M354.7,236a34.64,34.64,0,0,0,18.24-4.82s-4.62,9.59-18.24,8.29Z"/><path class="cls-8" d="M356.83,218.34a3.39,3.39,0,0,1,3-1.25,3.07,3.07,0,0,1,2.13,1.15,2,2,0,0,1,.15,2.24,2.28,2.28,0,0,1-2.47.61,7,7,0,0,1-2.4-1.44,2,2,0,0,1-.53-.55.62.62,0,0,1,0-.7"/><path class="cls-9" d="M361.57,215.12c-.3,0-.31,2-2.06,3.46s-3.92,1.22-3.93,1.5c0,.13.48.4,1.4.43a5.11,5.11,0,0,0,3.28-1.14,4.4,4.4,0,0,0,1.6-2.9C361.94,215.61,361.71,215.11,361.57,215.12Z"/><path class="cls-9" d="M362.06,196.6c.18.51,2.06.27,4.26.54s4,.88,4.28.42c.13-.22-.18-.7-.89-1.2a7.44,7.44,0,0,0-6.51-.73C362.39,196,362,196.35,362.06,196.6Z"/><path class="cls-9" d="M345.13,194.06c.33.43,1.63,0,3.18,0s2.88.29,3.18-.15c.13-.22-.07-.65-.65-1a4.33,4.33,0,0,0-2.58-.71,4.42,4.42,0,0,0-2.54.85C345.17,193.41,345,193.85,345.13,194.06Z"/><path class="cls-9" d="M372.6,178.47a13.23,13.23,0,0,1,10.79-2c3.63,1,6.64,4.32,6.76,8,.08,2.4-.95,5,.11,7.13s3.52,2.9,5.3,4.4a8.12,8.12,0,0,1,1.88,9.82c-1.49,2.73-4.61,4.73-4.88,7.81-.24,2.9,2.2,5.35,2.8,8.2.65,3.14-1.09,6.39-3.58,8.48s-5.65,3.23-8.73,4.34c-2.4.87-5,1.75-7.47,1.18a7.65,7.65,0,0,1-5.6-6.39,10.4,10.4,0,0,1,2.83-8.21c1.75-1.93,4.2-3.57,4.62-6.11.66-4-4.06-7.21-3.77-11.21.15-2.07,1.61-3.77,2.82-5.47s2.26-3.83,1.52-5.77c-1-2.51-4.27-3.17-6.27-5a6.1,6.1,0,0,1-1.67-6.19,6.28,6.28,0,0,1,4.93-4.2"/><path class="cls-9" d="M374.06,175.4a9.31,9.31,0,0,1-11,9.2c-2.08-.38-4.36-1.43-6.16-.33s-2,4-3.65,5.48c-2.4,2.09-6.22.13-9.26,1-2.36.69-3.83,2.94-5.39,4.83s-3.9,3.7-6.26,3a27.55,27.55,0,0,1,.94-6.28,9.32,9.32,0,0,1,3.56-5.12,31.93,31.93,0,0,0,3-1.75c1.95-1.57,2.41-4.32,3.61-6.52a10.22,10.22,0,0,1,7.78-5.16c2.68-.27,5.44.53,8.05-.13,1.93-.48,3.61-1.74,5.57-2.11,3.81-.72,7.35,2,10.11,4.73"/><path class="cls-19" d="M398.93,208a2.92,2.92,0,0,0,.3-1.57,3.92,3.92,0,0,0-2.74-3.13,19.22,19.22,0,0,0-3-.81,8.71,8.71,0,0,1-3.39-1.4,4.78,4.78,0,0,1-1.77-3.64,38.77,38.77,0,0,1,.22-4.29,10.28,10.28,0,0,0-.11-2.09,4.62,4.62,0,0,0-.8-1.79,6.91,6.91,0,0,0-3.28-1.88,14.21,14.21,0,0,1-3.34-1.44,11.73,11.73,0,0,1-2.46-2,11.59,11.59,0,0,1-2.41-3.88,10,10,0,0,1-.35-1.19,2.3,2.3,0,0,1-.06-.43c.05,0,.19.57.6,1.55a12.21,12.21,0,0,0,2.48,3.7,12.41,12.41,0,0,0,5.69,3.25,7.21,7.21,0,0,1,3.52,2,5.06,5.06,0,0,1,.92,2,10.31,10.31,0,0,1,.12,2.22,42.07,42.07,0,0,0-.23,4.23,4.32,4.32,0,0,0,1.55,3.29,8.4,8.4,0,0,0,3.2,1.36,19.73,19.73,0,0,1,3,.88,4.79,4.79,0,0,1,2.11,1.59,3.71,3.71,0,0,1,.7,1.87,2.49,2.49,0,0,1-.25,1.23A1.09,1.09,0,0,1,398.93,208Z"/><path class="cls-19" d="M318.73,216.44s-.07,0-.22-.1a1.56,1.56,0,0,1-.51-.52,2.75,2.75,0,0,1,.28-2.69,3.58,3.58,0,0,1,1.46-1.39,19.32,19.32,0,0,1,2.18-.92,6.88,6.88,0,0,0,2.3-1.3,4.89,4.89,0,0,0,1.3-2.58c.23-1,.3-2.14.49-3.3a7.19,7.19,0,0,1,1.35-3.44c1.58-2.09,4.18-3.2,6.12-5.16a9.52,9.52,0,0,0,2.13-3.6,25.16,25.16,0,0,0,1-4.36c.42-3,.84-6.34,2.86-9.08a6.62,6.62,0,0,1,4.11-2.66,14.44,14.44,0,0,1,4.74.12,17.16,17.16,0,0,0,4.43.26,5.78,5.78,0,0,0,3.62-1.87c1.86-2,2.92-4.7,5.21-6.08a8.7,8.7,0,0,1,6.88-1,7.57,7.57,0,0,1,4.52,3.52,8.54,8.54,0,0,1,1.18,4.2,7.42,7.42,0,0,1-.44,2.72,4.16,4.16,0,0,1-.4.88s.12-.31.3-.91a7.66,7.66,0,0,0,.34-2.68,8.42,8.42,0,0,0-1.23-4.06,7.3,7.3,0,0,0-4.37-3.31,8.36,8.36,0,0,0-6.55.95,9.86,9.86,0,0,0-2.63,2.71,30.37,30.37,0,0,1-2.46,3.34,7.07,7.07,0,0,1-1.74,1.37,6.35,6.35,0,0,1-2.17.66,17.45,17.45,0,0,1-4.56-.24,14,14,0,0,0-4.57-.12,6.13,6.13,0,0,0-3.8,2.46,12.8,12.8,0,0,0-1.94,4.27,42.57,42.57,0,0,0-.83,4.57,25.19,25.19,0,0,1-1,4.45,9.94,9.94,0,0,1-2.26,3.78c-2.05,2-4.62,3.12-6.12,5.08a7,7,0,0,0-1.3,3.24c-.19,1.14-.27,2.26-.52,3.32a5.24,5.24,0,0,1-1.44,2.74,7,7,0,0,1-2.41,1.33,19,19,0,0,0-2.18.87,3.37,3.37,0,0,0-1.4,1.28,2.66,2.66,0,0,0-.36,2.53A2.08,2.08,0,0,0,318.73,216.44Z"/><path class="cls-10" d="M285.32,310.18,309.48,308s14.86-39.15,33.18-48.64l11.87,20.73-25.41,47.73h-49.6Z"/><path class="cls-20" d="M285.32,310.18,309.48,308s14.86-39.15,33.18-48.64l11.87,20.73-25.41,47.73h-49.6Z"/><path class="cls-12" d="M294.87,321.23a18.32,18.32,0,0,1,2-3.91,19.08,19.08,0,0,1,2.48-3.64,18.32,18.32,0,0,1-2,3.91A18.69,18.69,0,0,1,294.87,321.23Z"/><path class="cls-12" d="M312,320.76a18.08,18.08,0,0,1-3-3.26,18.6,18.6,0,0,1-2.55-3.58,37.72,37.72,0,0,1,5.5,6.84Z"/><path class="cls-12" d="M315,311.78a19.39,19.39,0,0,1,0-6.33,19.39,19.39,0,0,1,0,6.33Z"/><path class="cls-12" d="M306.45,325.78a6.55,6.55,0,0,1-2.31-1.2,6.81,6.81,0,0,1-2-1.63,6.66,6.66,0,0,1,2.31,1.2C305.62,324.93,306.53,325.66,306.45,325.78Z"/><path class="cls-12" d="M320.32,289.8a41.65,41.65,0,0,1-3.82,8.51,21.42,21.42,0,0,1,1.67-4.36A20.22,20.22,0,0,1,320.32,289.8Z"/><path class="cls-12" d="M330.1,273.94c.09.11-.77.91-1.92,1.78a6.89,6.89,0,0,1-2.25,1.38c-.08-.12.78-.92,1.93-1.79A6.76,6.76,0,0,1,330.1,273.94Z"/><path class="cls-10" d="M366.23,324.7l12.45-50.31a17.12,17.12,0,0,1,19.65-12.73h0a17.13,17.13,0,0,1,13.88,19.47l-7.63,49.16a24.6,24.6,0,0,1-20.41,19.91l-9.9,1.54Z"/><path class="cls-9" d="M405.48,258.41a11.14,11.14,0,0,0-4.44-2.23,11.69,11.69,0,0,0-5.36,0,14.54,14.54,0,0,0-5.83,3c-3.65,3.06-5.64,7-7,9.83-.66,1.41-1.17,2.57-1.53,3.37a6.65,6.65,0,0,1-.61,1.22,7.71,7.71,0,0,1,.42-1.3c.3-.82.76-2,1.39-3.45a36.13,36.13,0,0,1,2.56-4.91,21.91,21.91,0,0,1,4.43-5.16,14.64,14.64,0,0,1,6.05-3.1,11.74,11.74,0,0,1,5.56.07,9.49,9.49,0,0,1,3.37,1.63,6.58,6.58,0,0,1,.76.68C405.42,258.3,405.5,258.4,405.48,258.41Z"/><path class="cls-9" d="M334.92,269.73a3.2,3.2,0,0,1-.35.47c-.28.33-.63.76-1.07,1.27-.92,1.11-2.23,2.74-3.73,4.83a51.47,51.47,0,0,0-8.51,18.05c-1.74,7.67-1.82,14.86-2.12,20-.12,2.58-.24,4.67-.35,6.11-.06.68-.11,1.22-.15,1.66a2.3,2.3,0,0,1-.09.58,3.45,3.45,0,0,1,0-.59c0-.43,0-1,0-1.66,0-1.51.11-3.58.19-6.11.2-5.15.22-12.36,2-20.1a49.57,49.57,0,0,1,8.71-18.16c1.54-2.08,2.91-3.67,3.88-4.74.48-.54.88-.94,1.14-1.21A2.57,2.57,0,0,1,334.92,269.73Z"/><path class="cls-10" d="M414.74,269.62c-1.37-9-6.34-11.15-11.48-14-1.68-.92-9.8-3-16.22-4.57-.62-3.9-1.72-10.87-2-12.34-.34-2.07-32.76,3.1-33.17,3.88-.27.51-1,8.59-1.49,14l-7.76,2.72-10.13,12.88-5.27,7.48a40.16,40.16,0,0,0-6.53,14.38,78.21,78.21,0,0,0-1.45,17.42l-1.57,33,67.82,19.18,5.26-33.45,17.49-23.82C409.78,296.78,416.42,280.68,414.74,269.62Z"/><path class="cls-9" d="M356.85,257.65a10.39,10.39,0,0,1-.45-2.29c-.21-1.42-.47-3.39-.72-5.57-.12-1.08-.23-2.11-.34-3.08a22.39,22.39,0,0,1-.18-2.54,3,3,0,0,1,.49-1.69c.26-.34.48-.43.5-.41s-.15.18-.33.52a3.24,3.24,0,0,0-.29,1.58c0,.69.17,1.54.29,2.49s.24,2,.37,3.07c.26,2.18.46,4.15.58,5.59A11,11,0,0,1,356.85,257.65Z"/><path class="cls-9" d="M365.5,255.61a7.94,7.94,0,0,1-.72-2.1,34,34,0,0,1-.92-5.27,32.41,32.41,0,0,1-.06-5.35,8.05,8.05,0,0,1,.32-2.19c.16,0-.13,3.37.26,7.49S365.66,255.57,365.5,255.61Z"/><path class="cls-9" d="M381.59,253.27a33.57,33.57,0,0,0-.18-7.46,33.15,33.15,0,0,0-2.34-7.09,6.78,6.78,0,0,1,1.19,1.89,18.66,18.66,0,0,1,1.66,5.11,18.89,18.89,0,0,1,.16,5.38A6.65,6.65,0,0,1,381.59,253.27Z"/><path class="cls-12" d="M335.54,282.68a19,19,0,0,1,2.65-4.2,19.49,19.49,0,0,1,3.29-3.73,29.62,29.62,0,0,1-2.87,4A31,31,0,0,1,335.54,282.68Z"/><path class="cls-12" d="M350.81,270.26a33,33,0,0,1-5-6.52,16.14,16.14,0,0,1,2.7,3.1A15.7,15.7,0,0,1,350.81,270.26Z"/><path class="cls-12" d="M366.78,262.45a29.7,29.7,0,0,1-3.19,3.23,29.34,29.34,0,0,1-3.31,3.1,15.37,15.37,0,0,1,3-3.48A14.89,14.89,0,0,1,366.78,262.45Z"/><path class="cls-12" d="M362.3,252.93a18.33,18.33,0,0,1-4.64-4.2,9.8,9.8,0,0,1,2.49,1.91A10.1,10.1,0,0,1,362.3,252.93Z"/><path class="cls-12" d="M376.29,245.47a23.68,23.68,0,0,1-6.84,1.47,11.68,11.68,0,0,1,3.36-1A11.86,11.86,0,0,1,376.29,245.47Z"/><path class="cls-12" d="M379.08,267.62a12.46,12.46,0,0,1-.43-3.49,12.14,12.14,0,0,1,.08-3.51,12.16,12.16,0,0,1,.44,3.49A11.52,11.52,0,0,1,379.08,267.62Z"/><path class="cls-12" d="M374,278.27a19,19,0,0,1-1.75-4A18.66,18.66,0,0,1,371,270a18.93,18.93,0,0,1,1.75,4.05A18.51,18.51,0,0,1,374,278.27Z"/><path class="cls-12" d="M360.13,285.78a40.74,40.74,0,0,1-3.36-8.66,21.67,21.67,0,0,1,1.92,4.24A21.21,21.21,0,0,1,360.13,285.78Z"/><path class="cls-12" d="M347.08,294.29A18.45,18.45,0,0,1,346,290.1a18.15,18.15,0,0,1-.61-4.3,18.65,18.65,0,0,1,1.12,4.19A17.6,17.6,0,0,1,347.08,294.29Z"/><path class="cls-12" d="M331.59,294.63a34.33,34.33,0,0,1-3.72-7.64A18,18,0,0,1,330,290.7,17.38,17.38,0,0,1,331.59,294.63Z"/><path class="cls-12" d="M331.26,304.56a21.2,21.2,0,0,1-4.07,2.3,20.65,20.65,0,0,1-4.29,1.83,21.3,21.3,0,0,1,4.06-2.3A20.85,20.85,0,0,1,331.26,304.56Z"/><path class="cls-12" d="M331.45,320.28a18,18,0,0,1-2-7.5,22.16,22.16,0,0,1,1.09,3.73A21,21,0,0,1,331.45,320.28Z"/><path class="cls-12" d="M328.24,331.33a17.69,17.69,0,0,1-3.26-2.64,17.19,17.19,0,0,1-2.92-3,17.07,17.07,0,0,1,3.27,2.64A16.46,16.46,0,0,1,328.24,331.33Z"/><path class="cls-12" d="M348.66,323.79c0,.15-2.26.81-4.94,2s-4.72,2.41-4.81,2.28a21.08,21.08,0,0,1,9.75-4.27Z"/><path class="cls-12" d="M342.69,318.32a13.71,13.71,0,0,1-1.47-3.43,14.19,14.19,0,0,1-1-3.59,12.93,12.93,0,0,1,1.47,3.42A13.62,13.62,0,0,1,342.69,318.32Z"/><path class="cls-12" d="M354.8,304.8a60,60,0,0,1-5.91,9.38,29.18,29.18,0,0,1,2.73-4.83A30.1,30.1,0,0,1,354.8,304.8Z"/><path class="cls-12" d="M367.81,306.09a30.81,30.81,0,0,1-5.76-9.61c.13-.06,1.3,2.16,2.89,4.8S367.93,306,367.81,306.09Z"/><path class="cls-12" d="M375.61,293.25a10.13,10.13,0,0,1-3.81.68,10,10,0,0,1-3.85-.3,25.51,25.51,0,0,1,3.83-.22A25.06,25.06,0,0,1,375.61,293.25Z"/><path class="cls-12" d="M394.12,278.62a29.67,29.67,0,0,1-4.9,2.62,30.18,30.18,0,0,1-5.13,2.16,29.6,29.6,0,0,1,4.9-2.63A30.59,30.59,0,0,1,394.12,278.62Z"/><path class="cls-12" d="M395.35,269.32a19,19,0,0,1,1.75-4.13,19.74,19.74,0,0,1,2.22-3.89,19,19,0,0,1-1.75,4.13A19.74,19.74,0,0,1,395.35,269.32Z"/><path class="cls-12" d="M407.11,276.62a33.37,33.37,0,0,1-1.52-4.55,32.55,32.55,0,0,1-1.34-4.61,17,17,0,0,1,1.84,4.45A16.68,16.68,0,0,1,407.11,276.62Z"/><path class="cls-12" d="M409,286.3a15.28,15.28,0,0,1-4.38,1.6,15.47,15.47,0,0,1-4.62.71,33.31,33.31,0,0,1,4.49-1.21A34.29,34.29,0,0,1,409,286.3Z"/><path class="cls-12" d="M388.8,298.12c-.15,0,.28-2.46.4-5.49s-.08-5.49.07-5.51a22.44,22.44,0,0,1-.47,11Z"/><path class="cls-12" d="M384.78,310.28a16.86,16.86,0,0,1-3.66-3.57,17.08,17.08,0,0,1-2.84-4.26c.13-.08,1.45,1.77,3.24,3.92A49,49,0,0,1,384.78,310.28Z"/><path class="cls-12" d="M405,307.72a20.26,20.26,0,0,1-4.17,2,21.13,21.13,0,0,1-4.37,1.54,42.06,42.06,0,0,1,8.54-3.57Z"/><path class="cls-12" d="M397.75,330.62a30.17,30.17,0,0,1-.2-5.51,29.8,29.8,0,0,1,.31-5.49,28.39,28.39,0,0,1,.21,5.5A29.4,29.4,0,0,1,397.75,330.62Z"/><path class="cls-12" d="M382.24,329.3A31.44,31.44,0,0,1,385,318.25c.14.05-.62,2.48-1.38,5.53S382.38,329.32,382.24,329.3Z"/><path class="cls-12" d="M383,335.31c0,.15-2.49.39-5.52.89s-5.48,1.08-5.52.93a29.38,29.38,0,0,1,11-1.82Z"/><path class="cls-12" d="M365.79,331.46a20.29,20.29,0,0,1,3-3.45,20.59,20.59,0,0,1,3.34-3.08,19.49,19.49,0,0,1-3,3.44A20,20,0,0,1,365.79,331.46Z"/><path class="cls-12" d="M354.68,342.27a34.87,34.87,0,0,1-1.36-3.91,34,34,0,0,1-1.39-3.9,10.92,10.92,0,0,1,1.89,3.73A11.16,11.16,0,0,1,354.68,342.27Z"/><path class="cls-12" d="M372.61,348.45a55.65,55.65,0,0,1-9.82-4.36,54.79,54.79,0,0,1,9.82,4.36Z"/><path class="cls-12" d="M341.34,346.64a14.36,14.36,0,0,1,.94-3.66,13.89,13.89,0,0,1,1.44-3.5,13.42,13.42,0,0,1-.94,3.66A13.89,13.89,0,0,1,341.34,346.64Z"/><path class="cls-12" d="M362,350.12c0,.16-2.88-.3-6.41-.49s-6.41,0-6.43-.19a31.13,31.13,0,0,1,12.84.68Z"/><path class="cls-9" d="M366.23,320.64s0-.14,0-.4a4,4,0,0,1,.16-1.13,2.54,2.54,0,0,1,1.09-1.49,3.49,3.49,0,0,1,2.44-.4l-.2.12c1.09-3.84,2.84-9.44,4.59-15.72,1.64-5.88,2.74-11.29,3.52-15.22.37-1.9.68-3.46.92-4.65a12.39,12.39,0,0,1,.39-1.69,10,10,0,0,1-.19,1.73c-.16,1.11-.42,2.71-.76,4.68a154.45,154.45,0,0,1-3.38,15.29c-1.75,6.29-3.56,11.87-4.76,15.68l0,.15-.15,0a3.27,3.27,0,0,0-2.23.29,2.37,2.37,0,0,0-1,1.32A12.48,12.48,0,0,0,366.23,320.64Z"/><path class="cls-9" d="M388.65,334.54c-.08,0-.7-1.31-2-3.33a34.8,34.8,0,0,0-6-7.11,35.32,35.32,0,0,0-7.64-5.25c-2.13-1.08-3.54-1.56-3.51-1.65a4.07,4.07,0,0,1,1,.27,21.73,21.73,0,0,1,2.66,1A31.22,31.22,0,0,1,387,331a21.78,21.78,0,0,1,1.29,2.54A3.46,3.46,0,0,1,388.65,334.54Z"/><g class="cls-21"><path d="M370.13,316.47a35.17,35.17,0,0,1,10.55,1.9c3.59,1.35,6.91,3.93,8.23,7.53a2.49,2.49,0,0,1-.19,2.59,1.84,1.84,0,0,1-1.89.31,5,5,0,0,1-1.66-1.14c-2.21-2-4.49-3.84-6.77-5.8s-5.58-4-8.55-4.47"/></g><path class="cls-9" d="M362.92,310.09a4.45,4.45,0,0,1-1,.6,17.81,17.81,0,0,1-3.07,1.16,20.57,20.57,0,0,1-20.14-5.23,17.61,17.61,0,0,1-2.12-2.51,4.74,4.74,0,0,1-.62-1c.08-.07,1,1.4,3,3.28a21.23,21.23,0,0,0,19.79,5.14C361.37,310.83,362.88,310,362.92,310.09Z"/><g class="cls-21"><path d="M336.47,303.85c1.68,3.66,3.66,7.34,6.86,9.8a11,11,0,0,0,6.31,2.65c3.34.06,6.21-2.22,8.75-4.38-8.25,1.29-17.55-2.45-21.92-8.07"/></g><path class="cls-9" d="M373.44,254.84c-.16,0,0-3.43-.38-7.62s-1.22-7.52-1.07-7.56a8.33,8.33,0,0,1,.69,2.15,36.74,36.74,0,0,1,.9,5.36,39,39,0,0,1,.14,5.44A8.08,8.08,0,0,1,373.44,254.84Z"/><path class="cls-6" d="M254.82,388.67s-10.86,2.35-20.57.89c-9.09-1.36-29.46.05-29.46,12,0,13.37,27.17,10.07,37.77,7.95s21.15-4,21.15-4Z"/><path class="cls-9" d="M230.43,405.8a45.46,45.46,0,0,1-2.12-9.42,43.81,43.81,0,0,1,2.12,9.42Z"/><path class="cls-9" d="M234.14,406a45.17,45.17,0,0,1-1.32-9.62,44.94,44.94,0,0,1,1.32,9.62Z"/><path class="cls-9" d="M237.72,404.58a17.55,17.55,0,0,1-.77-4.17,16.71,16.71,0,0,1-.24-4.23,35,35,0,0,1,1,8.4Z"/><path class="cls-9" d="M243.34,403.17a9.69,9.69,0,0,1-1.4-3.58,10,10,0,0,1-.4-3.82,27.46,27.46,0,0,1,.91,3.7A27,27,0,0,1,243.34,403.17Z"/><path class="cls-9" d="M244.55,398.29a4.51,4.51,0,0,1,1.42-.1,12.2,12.2,0,0,1,3.81.75,4.37,4.37,0,0,1,1.18.63,1.77,1.77,0,0,1,.73,1.33,2,2,0,0,1-2.46,1.79,5.08,5.08,0,0,1-2.83-2,8.62,8.62,0,0,1-1.61-3.35,8.47,8.47,0,0,1,1.2-6.92,1.35,1.35,0,0,1,.8-.49,1.13,1.13,0,0,1,.91.28,2.49,2.49,0,0,1,.68,1.46,7.57,7.57,0,0,1-.15,2.72,7.46,7.46,0,0,1-1.83,3.43,5.93,5.93,0,0,1-.79.71,1.12,1.12,0,0,1-.32.19s.38-.34,1-1a7.81,7.81,0,0,0,1.62-3.38,7.06,7.06,0,0,0,.08-2.57,2.06,2.06,0,0,0-.55-1.18.71.71,0,0,0-1.05.17,8.49,8.49,0,0,0,.45,9.64,4.61,4.61,0,0,0,2.52,1.86,1.56,1.56,0,0,0,1.94-1.3,1.36,1.36,0,0,0-.56-1,4.07,4.07,0,0,0-1-.6,13.31,13.31,0,0,0-3.7-.89C245.05,398.31,244.55,398.33,244.55,398.29Z"/><path class="cls-9" d="M262.64,403.74a1.09,1.09,0,0,1-.28.09l-.81.2-3.15.72c-2.74.6-6.72,1.45-11.66,2.4s-10.84,2-17.46,2.93a46.85,46.85,0,0,1-10.49.52,22,22,0,0,1-5.49-1.05,14.75,14.75,0,0,1-2.64-1.17,8.34,8.34,0,0,1-2.32-1.86l0,0a5.82,5.82,0,0,1-.94-1.13,7.09,7.09,0,0,1-.56-5.85,9.38,9.38,0,0,1,3.49-4.56,17.59,17.59,0,0,1,4.95-2.45c.87-.25,1.71-.55,2.57-.74s1.71-.4,2.56-.52c6.81-1.08,13-.53,18.15-.53,2.59.05,4.92,0,7-.15a46.1,46.1,0,0,0,5.2-.65l1.88-.4,1.35-.38.83-.23a1.09,1.09,0,0,1,.29-.06l-.27.11-.82.28-1.34.43-1.88.45a46.05,46.05,0,0,1-5.22.75c-2.05.15-4.39.24-7,.22-5.16,0-11.35-.46-18.07.63-.84.12-1.67.35-2.52.52s-1.68.49-2.53.74a17,17,0,0,0-4.81,2.39,8.89,8.89,0,0,0-3.29,4.3,6.55,6.55,0,0,0,.5,5.42,4.75,4.75,0,0,0,.85,1l0,0,0,0a7.73,7.73,0,0,0,2.15,1.71,14.05,14.05,0,0,0,2.54,1.13,22.37,22.37,0,0,0,5.37,1,47.37,47.37,0,0,0,10.39-.49c6.6-.87,12.51-1.92,17.45-2.82s8.93-1.7,11.69-2.24l3.17-.62.82-.16A1.06,1.06,0,0,1,262.64,403.74Z"/><path class="cls-9" d="M222.89,410.18a20.65,20.65,0,0,1-.26-2.78c-.12-1.71-.33-4.08-.67-6.67s-.78-4.94-1.11-6.62a19.18,19.18,0,0,1-.48-2.75,11.69,11.69,0,0,1,.84,2.67,58.74,58.74,0,0,1,1.26,6.63,60.24,60.24,0,0,1,.53,6.72A12.32,12.32,0,0,1,222.89,410.18Z"/><polygon class="cls-22" points="251.48 389.25 258.37 406.5 263.71 405.51 253.48 388.67 251.48 389.25"/><path class="cls-11" d="M341.24,342c-1.11.37-72.28-19.57-101.07-27.66a27.33,27.33,0,0,0-22.25,3.36l-.35.23A27.34,27.34,0,0,0,205.79,347h0a27.33,27.33,0,0,0,12.35,17.11c19,11.63,59.15,36.1,60.38,35.62,1.61-.62,51.77-1.92,51.77-1.92l-60.35-43.41L298.65,373l42.59-31Z"/><path class="cls-17" d="M281.82,320.31,297,312.48l14.83,9.3,55.55,1.81,8,27.05L295,332s-14.63,1.29-15.73-2S281.82,320.31,281.82,320.31Z"/><path class="cls-11" d="M327.33,363.64l-7.48,24.56.93,7.48h0a38.42,38.42,0,0,0,50.68,3.42h0a37.65,37.65,0,0,0,14.72-30l-.11-25.66Z"/><path class="cls-19" d="M282.79,363.8c-.08.12-8.76-6.21-19.38-14.13s-19.17-14.44-19.08-14.56,8.76,6.22,19.39,14.14S282.88,363.69,282.79,363.8Z"/><path class="cls-18" d="M295.93,317.38a59.9,59.9,0,0,1-7.4,2.65,59.23,59.23,0,0,1-7.56,2.14,60.17,60.17,0,0,1,7.4-2.64A59.35,59.35,0,0,1,295.93,317.38Z"/><path class="cls-18" d="M297.06,322a15,15,0,0,1-2.58.49c-1.59.26-3.79.65-6.18,1.2s-4.55,1.16-6.09,1.62a16.27,16.27,0,0,1-2.53.69,10.75,10.75,0,0,1,2.41-1,53.24,53.24,0,0,1,6.09-1.78,55.46,55.46,0,0,1,6.25-1.06A11.68,11.68,0,0,1,297.06,322Z"/><path class="cls-18" d="M295.79,326.22a70.52,70.52,0,0,1-8.33,1.92,70.83,70.83,0,0,1-8.44,1.41,70.52,70.52,0,0,1,8.33-1.92A70.83,70.83,0,0,1,295.79,326.22Z"/><path class="cls-19" d="M276.16,284l14,45.92a1.33,1.33,0,0,0,1.17.94l38,2.85a1.32,1.32,0,0,1,1.23,1.33v2.37a1.32,1.32,0,0,1-1.35,1.33l-104-1.95A1.32,1.32,0,0,1,224,336l-18.28-47.9a1.32,1.32,0,0,1,1.18-1.8l67.91-3.18A1.32,1.32,0,0,1,276.16,284Z"/><path class="cls-1" d="M246.87,303.81a3.3,3.3,0,0,0-2.06,2.34,3.17,3.17,0,0,0,1.35,2.86,3.42,3.42,0,0,0,3.8.14,3.17,3.17,0,0,0,1-3.84c-.46-1.27-2.78-2.15-4.12-1.5"/><path class="cls-11" d="M263.71,405.51l-11-18.08,80.81-63.33a32.46,32.46,0,0,1,17.64-7.23h0a32.48,32.48,0,0,1,35.31,35l-1.3,15.45-53.63,17.23Z"/><path class="cls-19" d="M367.33,362.59a1.25,1.25,0,0,1-.21.2l-.66.54-2.57,2.05L362,366.86c-.69.54-1.49,1-2.32,1.63L357,370.33c-.48.32-1,.66-1.47,1l-1.61,1c-2.19,1.31-4.56,2.81-7.25,4.17-1.33.7-2.69,1.46-4.13,2.17l-4.46,2.11a218.41,218.41,0,0,1-20.43,8.14c-14.76,5.08-28.4,8.75-38.18,11.71q-3.67,1.08-6.59,2c-1.94.59-3.61,1.11-5,1.57l-3.13,1-.81.25a1.43,1.43,0,0,1-.29.07l.27-.12.8-.3,3.1-1.11c1.34-.49,3-1,4.93-1.66s4.13-1.34,6.58-2.08c9.75-3.06,23.38-6.78,38.11-11.85,7.37-2.51,14.25-5.31,20.4-8.08l4.46-2.09c1.44-.71,2.79-1.46,4.13-2.14,2.69-1.34,5.06-2.82,7.26-4.1l1.61-1,1.48-1,2.7-1.8c.83-.58,1.64-1.06,2.33-1.59l1.89-1.44,2.63-2,.69-.5A.93.93,0,0,1,367.33,362.59Z"/><path class="cls-19" d="M369.29,371a3.15,3.15,0,0,1-.81.43c-.54.24-1.33.56-2.32.93a59.3,59.3,0,0,1-16.09,3.46c-1.06.07-1.91.1-2.5.1a2.82,2.82,0,0,1-.92-.06,33.31,33.31,0,0,1,3.38-.41,79.86,79.86,0,0,0,16-3.44A29.55,29.55,0,0,1,369.29,371Z"/><path class="cls-19" d="M330.29,327.14c.09.11-17.2,13.7-38.62,30.35s-38.86,30.05-39,29.94,17.21-13.7,38.63-30.35S330.2,327,330.29,327.14Z"/><path class="cls-6" d="M325.62,394.34c-3.87-2.07-8.22-.84-11.93.41-2.47.83-5,2.15-7.54,1.44-1.82-.51-3.16-2-4.55-3.26a28.54,28.54,0,0,0-20.89-7.48A8.49,8.49,0,0,0,275,388c-3.81,4.13-.94,9.49,2.46,13a37.62,37.62,0,0,0,22.72,11c7.09.74,16.83-.24,24-3.32,4.44-1.9,6.71-7.13,4.38-11.35A7.2,7.2,0,0,0,325.62,394.34Z"/><g class="cls-16"><path d="M325.61,397.64c-3.87-2.07-8.22-.84-11.93.41-2.47.83-5,2.15-7.54,1.44-1.82-.51-3.16-2-4.55-3.26a28.54,28.54,0,0,0-20.88-7.48,8.49,8.49,0,0,0-5.74,2.59,6.75,6.75,0,0,0-1.6,2.89,15,15,0,0,0,4.07,6.77,37.57,37.57,0,0,0,22.71,11c7.09.74,16.84-.24,24-3.32a8.79,8.79,0,0,0,5.11-6.1,7.4,7.4,0,0,0-3.68-4.9Z"/></g><path class="cls-9" d="M329.29,402.54a6.69,6.69,0,0,0-1-2.29,7.56,7.56,0,0,0-2.07-2,8.36,8.36,0,0,0-3.57-1.36c-2.88-.34-6.21.87-9.91,1.87-1.84.49-3.84,1.23-6,.95a8,8,0,0,1-3.1-1.07,19.07,19.07,0,0,1-2.66-2,29,29,0,0,0-15.88-7.53,16.39,16.39,0,0,0-4.69,0,10.29,10.29,0,0,0-3.63,1.26,9.42,9.42,0,0,0-2.22,1.89,24.13,24.13,0,0,0-1.43,2.06,7.84,7.84,0,0,1,1.28-2.19,9.27,9.27,0,0,1,2.22-2,10.49,10.49,0,0,1,3.72-1.38,16.77,16.77,0,0,1,4.81,0,28,28,0,0,1,5.37,1.19,30.68,30.68,0,0,1,5.56,2.46,23.61,23.61,0,0,1,2.71,1.76c.86.68,1.68,1.42,2.52,2.14a18.88,18.88,0,0,0,2.58,2,7.67,7.67,0,0,0,2.9,1c2,.26,4-.43,5.83-.91,3.69-1,7.08-2.17,10.09-1.78a8.36,8.36,0,0,1,5.76,3.65,5.41,5.41,0,0,1,.72,1.75A2.67,2.67,0,0,1,329.29,402.54Z"/><path class="cls-9" d="M329.29,402.54a6.69,6.69,0,0,0-1-2.29,7.56,7.56,0,0,0-2.07-2,8.36,8.36,0,0,0-3.57-1.36c-2.88-.34-6.21.87-9.91,1.87-1.84.49-3.84,1.23-6,.95a8,8,0,0,1-3.1-1.07,19.07,19.07,0,0,1-2.66-2,29,29,0,0,0-15.88-7.53,16.39,16.39,0,0,0-4.69,0,10.29,10.29,0,0,0-3.63,1.26,9.42,9.42,0,0,0-2.22,1.89,24.13,24.13,0,0,0-1.43,2.06,7.84,7.84,0,0,1,1.28-2.19,9.27,9.27,0,0,1,2.22-2,10.49,10.49,0,0,1,3.72-1.38,16.77,16.77,0,0,1,4.81,0,28,28,0,0,1,5.37,1.19,30.68,30.68,0,0,1,5.56,2.46,23.61,23.61,0,0,1,2.71,1.76c.86.68,1.68,1.42,2.52,2.14a18.88,18.88,0,0,0,2.58,2,7.67,7.67,0,0,0,2.9,1c2,.26,4-.43,5.83-.91,3.69-1,7.08-2.17,10.09-1.78a8.36,8.36,0,0,1,5.76,3.65,5.41,5.41,0,0,1,.72,1.75A2.67,2.67,0,0,1,329.29,402.54Z"/><path class="cls-9" d="M281.22,401.61a9.46,9.46,0,0,1,2-1.37,57.9,57.9,0,0,1,10.53-4.95,9.3,9.3,0,0,1,2.32-.65,12.54,12.54,0,0,1-2.19,1c-1.37.57-3.25,1.38-5.3,2.34s-3.86,1.9-5.17,2.59A12.08,12.08,0,0,1,281.22,401.61Z"/><path class="cls-9" d="M282.55,405.49a70.32,70.32,0,0,1,7.57-3.95,70.16,70.16,0,0,1,7.8-3.48,70.32,70.32,0,0,1-7.57,3.95A71.11,71.11,0,0,1,282.55,405.49Z"/><path class="cls-9" d="M298.61,407.17c-.08.12-4.21-2.34-9.23-5.5s-9-5.83-8.94-5.95,4.2,2.34,9.22,5.5S298.68,407.05,298.61,407.17Z"/><path class="cls-9" d="M300.93,403.15a13.19,13.19,0,0,1-2-1.35c-1.21-.88-2.89-2.09-4.77-3.39s-3.6-2.45-4.84-3.28a12.24,12.24,0,0,1-2-1.42,10.66,10.66,0,0,1,2.17,1.11c1.3.75,3.06,1.85,4.95,3.16s3.53,2.57,4.69,3.52A9.75,9.75,0,0,1,300.93,403.15Z"/></g></g></svg>