<svg id="_Layer_" data-name="&lt;Layer&gt;" xmlns="http://www.w3.org/2000/svg" xmlns:xlink="http://www.w3.org/1999/xlink" viewBox="0 0 1200 800"><defs><style>.cls-1{fill:none;}.cls-2{fill:#d9e1e8;}.cls-3{fill:#08101f;}.cls-19,.cls-4{fill:#6d89cf;}.cls-5{fill:#2e4050;}.cls-6{fill:#2a85f5;}.cls-7{fill:#31b1e7;}.cls-8{fill:#ea8888;}.cls-9{fill:#859199;}.cls-10{fill:#fdb3b1;}.cls-11{fill:#adbac4;}.cls-12{fill:#232065;}.cls-13{fill:#120e59;}.cls-14{fill:#1a2833;}.cls-15{clip-path:url(#clip-path);}.cls-16{fill:#fb867e;}.cls-17{fill:#dde8fd;}.cls-18{fill:#3662c1;}.cls-19{opacity:0.5;}.cls-20{fill:#f18a88;}.cls-21{fill:#ed6966;}</style><clipPath id="clip-path"><path class="cls-1" d="M719.26,493.54c-62.66,57.64-140.63,57.52-219.93,25.57h0c-46.41-18.69-95.51-51.13-122.19-92.93-36.09-55.78-23.5-103.75,4.33-163.75,36.94-79.7,96.73-126.94,184.73-117.19,112.92,12.5,184.2,94.62,203.71,203.7C779.73,403.89,759,457,719.26,493.54Z"/></clipPath></defs><path class="cls-2" d="M719.26,493.54c-62.66,57.64-140.63,57.52-219.93,25.57h0c-46.41-18.69-95.51-51.13-122.19-92.93-36.09-55.78-23.5-103.75,4.33-163.75,36.94-79.7,96.73-126.94,184.73-117.19,112.92,12.5,184.2,94.62,203.71,203.7C779.73,403.89,759,457,719.26,493.54Z"/><path class="cls-2" d="M58.39,659.48s-69-233,57.65-303.62,203,42,247.58,100.81,237,175.16,353.62,65.71c122.92-115.3,183.9-148,271.6-150.81s51.5,91.41,125.28,127.83,38,153.21-30.43,161.64Z"/><path class="cls-3" d="M381,581.55s-12.45-14.53-.77-23.75c0,0,8.54-5.17,15.49-4.75,0,0-9.86,16.54-6.67,18.18S398.69,552,398.69,552s19.42-1.88,25.67,1.12c0,0-16.6,13.59-13.11,14.4S432.68,555,432.68,555s18.08,3.08,17.12,14.1-7.2,14.44-9.93,14.14-18.75-6.4-19.1-4.16,9.29,9.57,16,9.92c0,0-12.75,14-21.22,10s-9.19-10.48-14.47-12.89-9.78-2.41-7.6,0,11.73,4.85,14.75,10.19,5.73,8.94-3,7.62-23-7.73-23.64-15.07Z"/><path class="cls-4" d="M440.91,569.4s-49.09-1.89-59.93,12.15a35.53,35.53,0,0,1-9.78,13.72l-1.15,3.14s8.51-9,11.55-9.52C381.6,588.89,376.84,571.5,440.91,569.4Z"/><path class="cls-4" d="M371.2,595.27s-10.54,7.79-11.27,21.72l1.92.17s3.36-14.4,9.44-20S371.2,595.27,371.2,595.27Z"/><path class="cls-5" d="M337.44,563.28s19.81-11.09,10.57-26.14c0,0-7.4-9.25-15.32-11.62,0,0,4.23,22.44,0,23s-2.9-25.35-2.9-25.35-20.87-10-29.05-9.24c0,0,12.94,21.92,8.71,21.39s-18.75-22.71-18.75-22.71-21.39-4-24.82,8.71,2.11,19,5.28,19.81,23.5.53,23,3.17-14.26,6.86-21.92,4.49c0,0,8.45,20.86,19.55,19.8s14.52-7.92,21.39-8.45,11.88,1.32,8.45,3.17-15.05.61-20.6,5.32-10,7.62.26,9.74,28.79.79,32.49-7.14Z"/><path class="cls-4" d="M275.65,525.25s55.46,18,61.79,38a42.15,42.15,0,0,0,5.29,19.28v4s-5.81-13.47-9-15.32C333.75,571.2,346.16,553.77,275.65,525.25Z"/><path class="cls-4" d="M342.73,582.56s8.55,13,3.67,28.8l-2.2-.59s2.14-17.42-2.34-26.17S342.73,582.56,342.73,582.56Z"/><path class="cls-5" d="M369,548S342.85,533.36,355,513.52c0,0,9.75-12.18,20.19-15.32,0,0-5.57,29.59,0,30.29s3.83-33.42,3.83-33.42,27.5-13.23,38.29-12.18c0,0-17,28.89-11.48,28.19s24.71-29.93,24.71-29.93,28.2-5.23,32.73,11.48-2.79,25.07-7,26.11-31,.7-30.28,4.18,18.8,9.05,28.89,5.92c0,0-11.14,27.5-25.76,26.11S410,544.5,401,543.81s-15.66,1.74-11.14,4.18,19.85.79,27.16,7,13.23,10-.35,12.83-37.95,1-42.82-9.4Z"/><path class="cls-4" d="M450.42,497.86S377.31,521.53,369,548c0,0,.34,11.83-7,25.41v5.22s7.66-17.75,11.84-20.19C373.83,558.43,357.47,535.45,450.42,497.86Z"/><path class="cls-4" d="M362,573.4s-11.27,17.12-4.84,38l2.9-.78s-2.82-23,3.08-34.5S362,573.4,362,573.4Z"/><path class="cls-6" d="M368.08,656.55a51.14,51.14,0,0,0,51.14-51.14H316.93A51.15,51.15,0,0,0,368.08,656.55Z"/><path class="cls-7" d="M380.66,656.16a51.18,51.18,0,0,1-57.49-50.75h12.7A51.15,51.15,0,0,0,380.66,656.16Z"/><path class="cls-7" d="M419.93,659.15H316.23a6.31,6.31,0,0,1,6.31-6.31h91.08a6.32,6.32,0,0,1,6.31,6.31Z"/><rect class="cls-7" x="315.25" y="605.41" width="105.13" height="1.57"/><path class="cls-6" d="M871.84,634.74s-1.48,24-6.13,24.35c-.61,0-23.55,0-23.55,0L812.89,659s.19-7.05,8.75-8.54,22.88-7.51,28.06-18.82C855.15,619.71,871.84,634.74,871.84,634.74Z"/><path class="cls-8" d="M887.47,350.92s-13.82,7.85-17.69,7.85-19.06-2.93-23.29-.77-11.89,10.87-13.33,13.71c-2.59,5.11,10.4,2.85,16.55-1.5a3.84,3.84,0,0,1,3.06-.63c3.18.69,9.79,1.89,13,.71,4.29-1.59,26.89-3.35,26.89-3.35Z"/><path class="cls-9" d="M992.61,243.88s-14.32,101.83-38,111c-11.71,4.5-63.44,14.7-78.74,15.72,0,0-3.75-3-2.84-15.41,0,0,54.2-19.9,61.9-30.72,11.46-16.11-7.11-65.8,7.27-80.92S980.75,221.87,992.61,243.88Z"/><path class="cls-3" d="M987.79,458.41a178.77,178.77,0,0,1-14,20c-15.4,19.44-32.16,35.47-35.08,50.62a68.83,68.83,0,0,1-2.7,9.69c-1.22,3.47-2.73,7.12-4.47,10.9-6.53,14.19-16.31,30.09-26.06,44.55-16.87,25-30.67,41.76-30.67,41.76s-4.42,3.45-17.07,3.44c-3.52,0-15.37-1.93-15.37-1.93,1.16-2.91,15.15-36.09,32.12-78.26l21.29-52.88,2.81-7c2.16-5.37,4.29-10.66,6.37-15.81l28.62-71.13s63.69-24.12,70.3-8.49C1009.33,416.78,1004.89,429.41,987.79,458.41Z"/><path class="cls-6" d="M939.19,566.18s20.23,13,18.27,17.22C957.2,584,946,604,946,604L931.6,629.46s-6.07-3.6-3.2-11.8S933,594,925.65,584C917.92,573.42,939.19,566.18,939.19,566.18Z"/><path class="cls-5" d="M927.7,591.1s14.24-13.22,16.46-21.4c0,0-52.09-62.42-63.39-76.41-.52-.64-.39-1.35.3-2.12,8.53-9.62,103.32-29.17,115.7-48.45a59.8,59.8,0,0,0,8-18.45c2.81-11.76.59-19.88.59-19.88l-94.67-2.74S831.89,450.72,823,484.19,927.7,591.1,927.7,591.1Z"/><path class="cls-3" d="M881.07,491.17c8.53-9.62,103.32-29.17,115.7-48.45a59.8,59.8,0,0,0,8-18.45v-12L964.54,406s-11.41,35.11-45.2,48.27C887.69,466.57,881.7,488.45,881.07,491.17Z"/><path class="cls-10" d="M936.61,237.47c19.15,4.95,50.89-12.8,50.89-12.8s-12.32-8.28-16.89-26.48q-.35-1.38-.63-2.82l-9.83-2.09-14.63,13.11a125.22,125.22,0,0,0,2.16,14.79c.32,1.63.68,3.39,1.1,5.25A45,45,0,0,0,936.61,237.47Z"/><path class="cls-11" d="M1007.78,316.85c-2.74,36.89.86,93-2.25,102.72-2.68,8.38-33.28,3.4-45.5.6-4.52-1-10-2.52-15.65-4.27-15.77-4.88-33-11.86-34.8-17a2.78,2.78,0,0,1-.17-.59,4.67,4.67,0,0,1,0-2.17c.61-2.64,3-5.5,3.26-12,.31-7.3.27-15.89.54-25.13,0-1,0-2.17.14-3.21v-.38c0-.2,0-.39,0-.59.27-10.3.81-21.14,1.43-31.88.4-6.75.85-13.43,1.38-19.83,1.38-16.53,3.23-31.22,5.69-40.52,4-15.14,12.85-25,20.9-32.26l5.82-5a33.65,33.65,0,0,0,21.12-2.82c7.52-3.57,10.12-6.12,11.43-5.16C998.53,230.7,1011,271.74,1007.78,316.85Z"/><path class="cls-9" d="M944.38,415.9c-15.77-4.88-33-11.86-34.8-17a2.78,2.78,0,0,1-.17-.59c0-.72,0-1.45,0-2.17.61-2.64,3-5.5,3.26-12,.31-7.3.27-15.89.54-25.13,0-1,0-2.17.14-3.21v-.38c0-.2,0-.39,0-.59l63.77-81.25S1020,362.78,944.38,415.9Z"/><path class="cls-8" d="M945.52,206.39a125.22,125.22,0,0,0,2.16,14.79c14.29-4.61,20.76-17.52,22.93-23q-.35-1.38-.63-2.82l-9.83-2.09Z"/><path class="cls-10" d="M943.6,214.64s31.15-5.2,27.61-24.55-1.9-33.05-21.93-30.55-22.55,10.59-22.94,17.33S935.4,215.49,943.6,214.64Z"/><polygon class="cls-3" points="897.48 374.64 819.72 376.3 797.61 308.26 794.87 309.15 818.24 381.08 897.58 379.38 897.48 374.64"/><path class="cls-10" d="M896,383.17s-25.5,6.72-35.06,6-17.51-5.25-18.72-7.63-3.73-6.58,2.78-5.8,15.4,2.16,15.67.91-5.3-1.14-5.3-1.14-1.69-2.45.44-2.54,8.32-1.77,10.62-.62,4.42,5.4,6.11,5.23,21.33-8.86,21.33-8.86Z"/><path class="cls-11" d="M986.29,248.06s-3,102.79-25.58,114.47c-11.14,5.76-61.43,21.6-76.53,24.31,0,0-4.06-2.61-4.52-15,0,0,51.68-25.75,58.14-37.35,9.61-17.27-14.33-64.61-1.7-81.23S972.08,227.49,986.29,248.06Z"/><path class="cls-5" d="M970.61,198.19s.35-6.64-3.74-10.44c0,0,1.43-6.66-1.21-7.75s-3.18,4.49-4.39,3.62-6.58-5.05-8.88-11.19-23.39,1.29-25.85,2.4-10.36-3-11.89-6.24a46.33,46.33,0,0,0,6.36-6.15c2-2.63,15.8-20.4,35.11-15.36s21.94,14.27,20.84,22.16S978.52,195.54,970.61,198.19Z"/><path class="cls-3" d="M1064.83,656.37c-12.17-12.43-33.6-21-58.35-22V593.29h38.25c.94,0,1.79-.83,2.33-2.1a8.47,8.47,0,0,0,.59-3.21v-1.85c0-2.92-1.31-5.31-2.92-5.31h-38.25V483a4.93,4.93,0,0,0-4.92-4.92h0a4.93,4.93,0,0,0-4.91,4.92v97.86H958.4c-1.61,0-2.93,2.39-2.93,5.31V588a8.29,8.29,0,0,0,.64,3.3c.54,1.22,1.37,2,2.29,2h38.25v41.09c-24.76,1-46.19,9.56-58.35,22-.88.9-1.72,1.82-2.5,2.76h131.53C1066.55,658.19,1065.71,657.27,1064.83,656.37Z"/><path class="cls-5" d="M1006.48,634.56c-17.27,1.6-32.12,9.94-40.71,21.81-.66.9-1.27,1.82-1.85,2.76H951.75c.58-.94,1.19-1.86,1.85-2.76,9.59-13.24,27-22.09,46.79-22.09C1002.45,634.28,1004.48,634.38,1006.48,634.56Z"/><rect class="cls-6" x="928.84" y="445.14" width="142.05" height="36.49" rx="5.9"/><g id="man"><path class="cls-10" d="M344,257.35c-2.18,5.87-6,12.68-9.94,14.38a15.41,15.41,0,0,0-6.38,4.63L324,274.25l-4.34-2.52s.1-.48.31-1.27.54-1.87,1-3.08a4.19,4.19,0,0,0,.51-3.86,9,9,0,0,1,.74-7.5c1.4-2,2.74-7,3.58-6.87,2,.35-1,7.21-.13,8.48a1.5,1.5,0,0,0,1.95.67l0,0c5.7-2.51,12.61-16,15.67-14.19C344.49,244.77,344.93,254.84,344,257.35Z"/><rect class="cls-12" x="320.62" y="248.62" width="34.05" height="10.97" rx="1.12" transform="translate(-64.4 384.23) rotate(-54.9)"/><path class="cls-13" d="M330.82,270.12l4.19,2.94a.86.86,0,0,0,1.19-.21l18.59-26.46a.86.86,0,0,0-.2-1.19l-4.19-2.94a.85.85,0,0,0-1.19.21l-18.59,26.46A.86.86,0,0,0,330.82,270.12Z"/><path class="cls-7" d="M221.87,228.18s36.33,63.36,49.5,75l48.33-36a17.68,17.68,0,0,1,10.08,9.19s-29.34,59.79-58.24,62.32S202.1,267,202.1,267Z"/><path class="cls-3" d="M139.66,659.13h-21c-2.64-1.43-5-4.72-5.74-9.61-1-6.77-8.6-10.45-10.24-16s6.76-13.31,6.76-13.31l1.4-1.81,1.47-1.88,13.93,3.28s.34,3.32.55,7.55c.15,3,.23,6.57.06,9.66-.41,7.37,2.06,15.32,8.62,16.75C140.32,654.83,140.11,657.71,139.66,659.13Z"/><path class="cls-3" d="M261.47,659.13h-48c-2.3-2.81-1.45-13.21-1.11-16.6.08-.69.13-1.09.13-1.09s16.39-13.11,18.64-3.07c.07.32.15.62.24.93,2.84,9.39,15.56,13.65,22.91,14.84C259.06,654.92,260.82,657.4,261.47,659.13Z"/><path class="cls-5" d="M252.33,391.2s-2.49,31.05-5.42,68.38c-4,50.7-8.75,113-9.23,124.79-.81,20.49-4.1,53.26-4.1,53.26s-7.78,7.79-23.35,4.51c0,0-13.88-46.79-17.84-96.29l-.18-2.45c-3.69-50.39-9.42-156.51-9.42-156.51Z"/><path class="cls-3" d="M252.33,391.2s-2.49,31.05-5.42,68.38l-54.52,86.27-.18-2.45c-3.69-50.39-9.42-156.51-9.42-156.51Z"/><path class="cls-5" d="M241,394.88S196.1,507.35,166.6,560.2s-38.72,67.6-38.72,67.6S111,621,109.45,616.43c0,0,11.28-102,31-126.9,11.16-14.06,24.28-56.24,24.89-71s4-43.94,4-43.94Z"/><path class="cls-10" d="M229.79,230.94c-17.53,5.53-47.86-9.4-47.86-9.4s16.16-12.13,15.32-37.36l13.55,10.93,9.21,7.42a110.42,110.42,0,0,1-1,12c-.26,2-.59,4.26-1,6.72A41.8,41.8,0,0,1,229.79,230.94Z"/><path class="cls-8" d="M220,202.53a110.42,110.42,0,0,1-1,12c-10.2-1.75-21.77-18.24-21.77-18.24a32.5,32.5,0,0,1,13.61-1.22Z"/><path class="cls-10" d="M225.37,202.11s-29,4.81-31.68-13.27-8.28-29.63,10.09-33.47,23,2.53,25.39,8.34S232.83,200.4,225.37,202.11Z"/><path class="cls-7" d="M254.26,393.78a2.84,2.84,0,0,1-1.84.71c-6.58-.09-25.78,3.56-42,1.89-13.7-1.31-25.82-5.37-38.83-11.2-1.73-.78-5.71-2.9-5.62-4.83.06-2.12.27-5.19.53-9.05.92-13.43,2.53-36.54,1-63.2q-.42-7.46-.45-14.74c-.13-36.13,7-67.91,21.43-78.67,1.23-.88,8.78,2.81,15.72,6.23A28.62,28.62,0,0,0,223,223.21l6.06,5.35c7.37,6.85,15.45,16.16,19,30.29,3,12,4.74,33.71,5.7,56.18.44,10.19.8,20.46.89,30.21v.35c.08,1,.08,2,.08,3C255.05,373.59,254.7,393.43,254.26,393.78Z"/><path class="cls-7" d="M166.48,371.3c.92-13.43,2.53-36.54,1-63.2q-.42-7.46-.45-14.74c6-14.55,10.9-25.1,10.9-25.1H193S204.09,344,166.48,371.3Z"/><path class="cls-14" d="M161.85,407.83l-64.47-9.19A15.46,15.46,0,0,0,80,411.72l-4,27.94a15.45,15.45,0,0,0,13.08,17.43l64.47,9.19A15.45,15.45,0,0,0,171,453.2l4-27.94A15.46,15.46,0,0,0,161.85,407.83Z"/><path class="cls-5" d="M165.49,416.16h0a15.49,15.49,0,0,0-10.68-9.33h0c-.48-.12-1-.21-1.49-.29l-12.83-1.82.85-6a5.1,5.1,0,0,0-4.33-5.77l-3.35-.48-13.48-1.92-2.43-.35a5.12,5.12,0,0,0-5.77,4.33l-.86,6L89,397.36a15.51,15.51,0,0,0-17.5,13.13l-4,28.27a15.51,15.51,0,0,0,13.13,17.49l64.36,9.17a14.53,14.53,0,0,0,3.35.11h0a15,15,0,0,0,5-1.27,15.49,15.49,0,0,0,9.1-12l4-28.26A15.31,15.31,0,0,0,165.49,416.16ZM115.13,395a1.92,1.92,0,0,1,2.16-1.62l2.86.4,10.61,1.52,5.78.82a1.91,1.91,0,0,1,1.62,2.16l-.86,6-23-3.29Z"/><path class="cls-10" d="M134.49,381.27c0-.34,0-.69.06-1.06.14-1.8,3.52-6.31,3.52-6.31l-8.49-4.4-3.36,5.55c-5.07,4-5.17,4.11-4.24,11.84.8,6.71-3.58,6.79-3.48,11.58s6.27,2.43,6.27,2.43c9.56-4.49,10.36-6.75,10.06-11.3.91,1.29,1.92,2,2.78,1.48s-.75-2.46-1.41-7A8.13,8.13,0,0,0,134.49,381.27Z"/><path class="cls-7" d="M129.46,377.36a49.63,49.63,0,0,0,11.35.63s16.16-49.92,18.24-54.48,48-58.54,48-58.54L187.92,217.1s-49.67,83-54.71,94.62C124.87,331,122,374.18,122,374.18A20.77,20.77,0,0,0,129.46,377.36Z"/><path class="cls-5" d="M193.67,187.1s3-.49,2.49-4.59-.47-9.44,2.86-8.44,3.49,3.66,4.86,2.1,1.39-8.11,11.29-8.56,13.93,3,18.53,1,4.85-9,4.85-9a7.91,7.91,0,0,1-3.29,3.28s7.68-10.51-1.21-17.71-18-2.49-23.11-2.18c-11.34.69-18.66,1.37-22.37,8.82S186.39,179.93,193.67,187.1Z"/></g><g class="cls-15"><path class="cls-8" d="M603.77,383.56s-29.3-5.9-34.2-5.43-21.85,8.08-22,9.48.65,2.5,3.61,2.63,12.69-1.39,12.11-.19-28.54,7.45-28.7,13.11,15.5,15.77,28.53,16.14,38.19-15.42,40.38-15.67C622,401.52,603.77,383.56,603.77,383.56Z"/><path class="cls-11" d="M763.81,318.44c-11.44,14.25-21,25.3-26,29.32a113.08,113.08,0,0,1-14.86,9.73C681.17,381.07,600.82,405,600.82,405l-.16-.11a35.26,35.26,0,0,1-10-12.06c-3.06-6.19-2.43-10-1.52-12a5.2,5.2,0,0,1,1.21-1.78s96.28-61.53,104-67.94c4.37-3.64,20.18-40.45,33.07-71.67q2.7,3.92,5.23,8A272.35,272.35,0,0,1,763.81,318.44Z"/><path class="cls-16" d="M764.47,427.4c-.61,1.72-1.24,3.44-1.91,5.13a159.45,159.45,0,0,1-11.25,23.05h0q-3.87,6.59-8.37,12.8a170.81,170.81,0,0,1-23,25.83l.15-1.93c.06-1,.13-2,.2-3q.24-3.25.46-6.39c.06-.81.12-1.61.17-2.41.37-5.17.72-10.07,1-14.66.1-1.33.19-2.62.28-3.9,0-.37,0-.75.08-1.13.06-.74.11-1.48.16-2.22s.09-1.31.14-2a1.36,1.36,0,0,1,0-.2c0-.66.09-1.31.13-2,.08-1.09.16-2.15.23-3.19,0-.65.09-1.29.14-1.92.06-1,.13-1.93.2-2.87,0-.22,0-.45,0-.67l.09-1.32c0-.22,0-.43,0-.65v-.08c.06-.83.12-1.64.17-2.43a.57.57,0,0,0,0-.13c0-.57.08-1.14.12-1.69,0-.18,0-.37,0-.54s.05-.63.06-.94l.06-.74c.12-1.72.23-3.3.33-4.71,0-.2,0-.4,0-.59s0-.4,0-.59c0-.37.05-.73.07-1.08.18-2.49.3-4.3.38-5.37,0-.11,0-.21,0-.31a.28.28,0,0,0,0-.09c0-.09,0-.18,0-.26l0-.45Z"/><path class="cls-3" d="M764.47,427.4c-.61,1.72-1.24,3.44-1.91,5.13a159.45,159.45,0,0,1-11.25,23.05h0q-3.87,6.59-8.37,12.8a170.81,170.81,0,0,1-23,25.83l.15-1.93c.06-1,.13-2,.2-3q.24-3.25.46-6.39c.06-.81.12-1.61.17-2.41.37-5.17.72-10.07,1-14.66.1-1.33.19-2.62.28-3.9,0-.37,0-.75.08-1.13.06-.74.11-1.48.16-2.22s.09-1.31.14-2a1.36,1.36,0,0,1,0-.2c0-.66.09-1.31.13-2,.08-1.09.16-2.15.23-3.19,0-.65.09-1.29.14-1.92.06-1,.13-1.93.2-2.87,0-.22,0-.45,0-.67l.09-1.32c0-.22,0-.43,0-.65v-.08c.06-.83.12-1.64.17-2.43a.57.57,0,0,0,0-.13c0-.57.08-1.14.12-1.69,0-.18,0-.37,0-.54s.05-.63.06-.94l.06-.74c.12-1.72.23-3.3.33-4.71,0-.2,0-.4,0-.59s0-.4,0-.59c0-.37.05-.73.07-1.08.18-2.49.3-4.3.38-5.37,0-.11,0-.21,0-.31a.28.28,0,0,0,0-.09c0-.09,0-.18,0-.26l0-.45Z"/><path class="cls-9" d="M770.83,349a153.36,153.36,0,0,1-6.36,78.43c-.61,1.72-1.24,3.44-1.91,5.13a159.45,159.45,0,0,1-11.25,23.05h0q-3.87,6.59-8.37,12.8c-8.59-1.24-15.57-2.26-19.88-2.37a5.5,5.5,0,0,1-1.08-.14,5.71,5.71,0,0,1-2.55-1.39c-.85-.74,0-40.4,2.57-90.35.08-1.92.15-4,.4-6l0-.7q.26-5,.52-10c.11-1.93.22-3.88.34-5.83.81-13.32,1.81-27,2.9-40.54.1-1.31.2-2.61.31-3.91,1.71-20.91,3.73-41.47,6.11-59.86a272.35,272.35,0,0,1,31.21,71.09C766.63,328.37,769,338.57,770.83,349Z"/><path class="cls-7" d="M411.31,422.77c-.48-14-1.19-30.64-2.13-48.63-.07-1.92-.16-4-.4-6l0-.7c-.08-1.6-.15-3.2-.24-4.81,0-.91-.09-1.82-.14-2.73-.14-2.74-.3-5.51-.47-8.28-.81-13.32-1.82-27-2.89-40.54-.12-1.31-.22-2.61-.32-3.91-1.59-19.37-3.43-38.44-5.59-55.77h0c0-.1,0-.2,0-.3-.27-2.17-.56-4.33-.84-6.45-.56-4.27-1.15-8.42-1.76-12.42q-1.24,2.05-2.46,4.13-7.17,12.25-13.36,25.67a410.08,410.08,0,0,0-21.58,58.6l-.12.39a129.17,129.17,0,0,0-4.09,20h0c-.11.93-.22,1.87-.31,2.81h0c-2.87,29.81,5.62,57.71,21.75,82.63.55.86,1.12,1.72,1.69,2.57q1.71,2.55,3.53,5c.85,1.18,1.73,2.35,2.62,3.52.18.24.37.49.57.73a202.58,202.58,0,0,0,20.68,22.84c1.22,1.17,2.47,2.34,3.73,3.49l.94.86a6.23,6.23,0,0,0,1.7-1.11C412.3,464,412.16,447.61,411.31,422.77Z"/><path class="cls-6" d="M411.31,422.77c-22.46-23.54-41.18-52.43-56.46-81.66h0a129.17,129.17,0,0,1,4.09-20l.12-.39a410.08,410.08,0,0,1,21.58-58.6c13.79,19.7,23.45,37.84,24.05,45.14.1,1.3.2,2.6.32,3.91,1.07,13.59,2.08,27.22,2.89,40.54.17,2.77.33,5.54.47,8.28.05.91.1,1.82.14,2.73.09,1.61.16,3.21.24,4.81l0,.7c.24,1.92.33,4,.4,6C410.12,392.13,410.83,408.79,411.31,422.77Z"/><path class="cls-10" d="M513.31,385.32s29.89,0,34.59,1.45,19.82,12.26,19.73,13.67-1.13,2.32-4.07,1.86-12.16-3.88-11.82-2.59,26.49,13,25.52,18.55-18.32,12.38-31.15,10.15-34.38-22.68-36.48-23.36C491.87,399.31,513.31,385.32,513.31,385.32Z"/><path class="cls-7" d="M518.72,395.52a34.88,34.88,0,0,1-8.64,9.77,23.86,23.86,0,0,1-2.36,1.67s-57.52-21.53-99.21-44.29c-13.78-7.52-25.83-15.18-33.5-22.23-3.47-3.19-9.09-10.3-15.95-19.77a410.08,410.08,0,0,1,21.58-58.6q6.21-13.4,13.36-25.67c1.66,5,3.38,10,5.1,15h0c9.13,26.65,18.49,52.19,21.83,55.37,7.23,6.93,99.05,74.94,99.05,74.94a6.37,6.37,0,0,1,1.51,3.63C521.79,387.62,521.38,391,518.72,395.52Z"/><rect class="cls-11" x="475.01" y="184.18" width="156.81" height="142.24"/><rect class="cls-3" x="475.01" y="175.65" width="156.81" height="8.53"/><path class="cls-17" d="M480.27,178.21a1.71,1.71,0,1,0,1.71,1.71A1.71,1.71,0,0,0,480.27,178.21Z"/><path class="cls-17" d="M487,178.21a1.71,1.71,0,1,0,1.7,1.71A1.71,1.71,0,0,0,487,178.21Z"/><path class="cls-17" d="M493.69,178.21a1.71,1.71,0,1,0,1.7,1.71A1.71,1.71,0,0,0,493.69,178.21Z"/><path class="cls-2" d="M522.11,202.71H582a2.85,2.85,0,0,0,2.85-2.84h0A2.85,2.85,0,0,0,582,197h-59.9a2.85,2.85,0,0,0-2.85,2.84h0A2.85,2.85,0,0,0,522.11,202.71Z"/><path class="cls-2" d="M508.45,212.48h87.22a2.85,2.85,0,0,0,0-5.69H508.45a2.85,2.85,0,0,0,0,5.69Z"/><path class="cls-2" d="M501.08,238.17H606.19a2.09,2.09,0,1,0,0-4.17H501.08a2.09,2.09,0,0,0,0,4.17Z"/><rect class="cls-2" x="499" y="243.62" width="109.28" height="4.17" rx="2.09"/><path class="cls-2" d="M606.19,253.24H501.08a2.09,2.09,0,0,0,0,4.17H606.19a2.09,2.09,0,1,0,0-4.17Z"/><path class="cls-2" d="M511.63,288.22H501.08a2.09,2.09,0,0,0,0,4.17h10.55a2.09,2.09,0,1,0,0-4.17Z"/><path class="cls-2" d="M529.27,288.22H518.71a2.09,2.09,0,0,0,0,4.17h10.56a2.09,2.09,0,0,0,0-4.17Z"/><path class="cls-2" d="M588.56,288.22H578a2.09,2.09,0,1,0,0,4.17h10.55a2.09,2.09,0,1,0,0-4.17Z"/><path class="cls-2" d="M606.19,288.22H595.64a2.09,2.09,0,1,0,0,4.17h10.55a2.09,2.09,0,1,0,0-4.17Z"/><path class="cls-18" d="M514.56,294.93A11.12,11.12,0,1,0,525.67,306,11.13,11.13,0,0,0,514.56,294.93Zm0,21.67A10.56,10.56,0,1,1,525.11,306,10.58,10.58,0,0,1,514.56,316.6Z"/><path class="cls-18" d="M514.56,297.08a9,9,0,1,0,9,9A9,9,0,0,0,514.56,297.08Zm0,17.36A8.4,8.4,0,1,1,523,306,8.41,8.41,0,0,1,514.56,314.44Z"/><path class="cls-18" d="M511.51,309.71c-1.19-.1-1.81-.66-1.83-1.67a2.63,2.63,0,0,1,.84-2,3.05,3.05,0,0,0,1.52,2.36.93.93,0,0,0,1-.37,6,6,0,0,0,.8-1.32.71.71,0,0,0,.45.2c.41,0,.83-.31,1.19-1a4,4,0,0,0,.27-.55.16.16,0,0,0,.09.07.33.33,0,0,0,.4,0,3.69,3.69,0,0,0,.69-1,.44.44,0,0,0,.19.21c.09.06.28.11.51-.11a.25.25,0,0,0,.07-.32c-.06-.12-.26-.2-.55-.24h0a3.31,3.31,0,0,0,.41-1.73.28.28,0,0,0-.28-.17c-.2,0-.35.23-.43.63a4,4,0,0,0-.06,1.22h0c-.21,0-.45,0-.7,0a.88.88,0,0,0-.11-.43c-.1-.15-.22-.16-.28-.14s-.22.22-.24.39a1.25,1.25,0,0,0,0,.21,12.79,12.79,0,0,0-2.28.39,7.66,7.66,0,0,0-2.42,1.08c0-.35,0-.78.26-.94s.82.05,1,.15l.18-.3s-.82-.47-1.35-.14c-.33.2-.47.64-.42,1.3,0,.07,0,.13,0,.19a3,3,0,0,0-1.12,2.43c0,1.18.79,1.89,2.15,2a8.92,8.92,0,0,0,3.2-.5c2.58-.84,5-2.63,5.47-4.25C519.45,307.34,514.42,310,511.51,309.71Zm5.77-7.21a2.43,2.43,0,0,1-.08.36A2,2,0,0,1,517.28,302.5Zm-1.17,1.71h.56a3.53,3.53,0,0,1-.62,1s0,0-.11-.2A4.45,4.45,0,0,0,516.11,304.21Zm-1.87.2a11.72,11.72,0,0,1,1.24-.16,3.38,3.38,0,0,0,.1.71,4.46,4.46,0,0,1-.36.81c-.29.51-.61.79-.87.78a.41.41,0,0,1-.31-.21A2.68,2.68,0,0,0,514.24,304.41Zm-.35.1a1.73,1.73,0,0,1,0,1.31A2.67,2.67,0,0,1,513.89,304.51Zm-2,.63a8.73,8.73,0,0,1,1.65-.58,3.19,3.19,0,0,0,0,1.34,1.78,1.78,0,0,0,.14.46,6.1,6.1,0,0,1-.84,1.44.59.59,0,0,1-.67.25,2.85,2.85,0,0,1-1.31-2.29A5.85,5.85,0,0,1,511.86,305.14Z"/><path class="cls-18" d="M520.15,305.31a1.6,1.6,0,0,0,.05-.21A1.6,1.6,0,0,1,520.15,305.31Z"/><path class="cls-18" d="M591.8,295.22a11.39,11.39,0,1,0,11.38,11.39A11.4,11.4,0,0,0,591.8,295.22Zm0,22.2a10.81,10.81,0,1,1,10.81-10.81A10.83,10.83,0,0,1,591.8,317.42Z"/><path class="cls-18" d="M591.8,297.43a9.18,9.18,0,1,0,9.17,9.18A9.19,9.19,0,0,0,591.8,297.43Zm0,17.78a8.6,8.6,0,1,1,8.6-8.6A8.61,8.61,0,0,1,591.8,315.21Z"/><path class="cls-18" d="M597.52,305.85a.83.83,0,0,0,.06-.21A1.66,1.66,0,0,1,597.52,305.85Z"/><path class="cls-18" d="M588.68,310.36c-1.22-.1-1.86-.67-1.88-1.71a2.69,2.69,0,0,1,.86-2,3.1,3.1,0,0,0,1.56,2.41,1,1,0,0,0,1.07-.38,6.9,6.9,0,0,0,.82-1.35.67.67,0,0,0,.45.2c.43,0,.85-.32,1.22-1,.1-.18.19-.37.28-.57a.24.24,0,0,0,.09.08.37.37,0,0,0,.41-.06,3.83,3.83,0,0,0,.71-1,.59.59,0,0,0,.19.22A.43.43,0,0,0,595,305a.27.27,0,0,0,.08-.33c-.07-.12-.27-.2-.57-.25h0a3.3,3.3,0,0,0,.42-1.77.28.28,0,0,0-.28-.18c-.21,0-.36.23-.45.65a3.85,3.85,0,0,0,0,1.24v0c-.21,0-.46,0-.71,0a1,1,0,0,0-.11-.43c-.11-.17-.23-.17-.29-.15s-.22.23-.25.4,0,.13,0,.22a12.63,12.63,0,0,0-2.33.4,7.82,7.82,0,0,0-2.48,1.1c0-.36,0-.8.26-1s.84.05,1,.15l.18-.31s-.84-.48-1.38-.14c-.34.21-.49.66-.43,1.33,0,.07,0,.14,0,.2a3.11,3.11,0,0,0-1.15,2.48c0,1.21.82,1.94,2.21,2.06a8.9,8.9,0,0,0,3.27-.51c2.65-.86,5.11-2.69,5.6-4.36C596.81,307.94,591.66,310.61,588.68,310.36Zm5.91-7.38c0,.1-.05.23-.09.37A1.43,1.43,0,0,1,594.59,303Zm-1.2,1.75H594a3.36,3.36,0,0,1-.64,1s-.05,0-.1-.2A4.66,4.66,0,0,0,593.39,304.73Zm-1.92.2a12.24,12.24,0,0,1,1.27-.16,3.57,3.57,0,0,0,.1.73,4.32,4.32,0,0,1-.37.83c-.29.52-.62.81-.89.8a.39.39,0,0,1-.31-.22A2.76,2.76,0,0,0,591.47,304.93Zm-.36.11a1.72,1.72,0,0,1,0,1.34A2.78,2.78,0,0,1,591.11,305Zm-2.08.64a10.26,10.26,0,0,1,1.69-.59,3.56,3.56,0,0,0,0,1.38,2.48,2.48,0,0,0,.15.46,5.91,5.91,0,0,1-.86,1.48.62.62,0,0,1-.69.26,3,3,0,0,1-1.35-2.35A6,6,0,0,1,589,305.68Z"/><path class="cls-6" d="M645.61,437.54,632,456l-1.35,1.81-.65.88-1.68,2.27-.91,1.23-1.69,2.27-1.77,2.39L622.27,469l0,0h0l-1.55,2.1,0,0-.23.31,0,0h0l-.29.39h0L618.44,474v.18l-1.57,2.13h0l-2,2.74h0l-1.53,2.06h0l-1.68,2.27h0l-2.81,3.79h0l-.28.38-.95,1.28h0l-2.21,3-2.93,3.77v.18l-1.52,2-.16.21h0l-2.11,2.85h0l-2,2.65,0,0h0l-4.88,6.58h0L584.53,520l-12.16,16.4-1.51,2-.89,1.2,1.39.2h0c1.61.22,3.22.41,4.83.58.45.06.91.11,1.36.15l.85.08,2,.19.86.08.4,0,1.36.1.26,0c1,.08,2,.14,3,.19l1.36.07c.35,0,.71,0,1.06.06h.2c.59,0,1.17.06,1.76.07l1.35,0,1.54,0,1.36,0h7.28c3.51-.1,7-.28,10.45-.58h0q6-.48,11.82-1.36,6.33-.93,12.5-2.3l.21,0s0,0,0,.05l3.86-1,1.62-.4q7.62-1.93,15-4.49l2.44-.86.61-.23q2.28-.82,4.52-1.73c.41-.15.81-.32,1.22-.48h0l.24-.1h0l1.43-.59,1.06-.45,1.24-.53.8-.35h0l1.39-.62h0q6.81-3.06,13.28-6.65l1.36-.76h0L711,486Z"/><path class="cls-7" d="M609.7,503.57v1.89l1.38-1.86,0,0h-1.4Zm-2.6,2.5a10.29,10.29,0,0,0-1.41.69l-3,4.09L600.33,514v4.12l2.75-3.71,6.61-8.92A7.83,7.83,0,0,0,607.1,506.07ZM595.9,520l-.35.46-1.32,1.79-6,8.06v4.11l4.23-5.69,3.38-4.56,1.77-2.39,1.31-1.78h-3Zm50.5-68.14L632.19,471l-.13.17-.86,1.16-1.11,1.49-.57.76h0l-2.64,3.56-1.09,1.3v.18l-.72,1-1,1.29-3.92,5.29h0l-.09.11-.19.26h0l-1.25,1.68v.18l-3.73,4.85-1.44,1.95-.24.32-4,5.4-1.2,1.61,0,0-2.34,3.16-3,4.09L600.33,514l-1.68,2.27L595.9,520l-.35.46-1.32,1.79-6,8.06-1.68,2.26-2.83,3.83-3.29,4.43.86.08.4,0,1.36.1.26,0,3.45-4.66h0l1.46-2,4.23-5.69,3.38-4.56,1.77-2.39,1.31-1.78h0l1.38-1.87,2.75-3.71,6.61-8.92h0l1.38-1.86,0,0h0l2.15-2.72v-.18l1.68-2.26,1.34-1.81,2.39-3.22,1.68-2.27,1.89-2.56.72-1,.28-.38h0l.88-1.18,1.68-2.27,1.77-2.39,1.78-2.4.18-.23h0l1.68-2.27,1.29-1.74.6-.8h0l1.55-2.09.13-.18.34-.45,6.47-8.74a8.94,8.94,0,0,1,12.51-1.86l33.09,24.52a9.84,9.84,0,0,1,2.05,13.77l-20,26.94-1.17,1.59,1.06-.45,1.24-.53.8-.35h0l1.39-.62h0l25.93-35ZM595.9,520l-.35.46-1.32,1.79-6,8.06v4.11l4.23-5.69,3.38-4.56,1.77-2.39,1.31-1.78h-3Zm11.2-13.9a10.29,10.29,0,0,0-1.41.69l-3,4.09L600.33,514v4.12l2.75-3.71,6.61-8.92A7.83,7.83,0,0,0,607.1,506.07Zm2.6-2.5v1.89l1.38-1.86,0,0h-1.4Z"/><path class="cls-4" d="M637.2,537.23s0,0,0-.05l-.21,0q-6.16,1.37-12.5,2.3-5.85.87-11.82,1.36h0c-3.45.3-6.94.48-10.45.58h-1.11c0-.51-.05-1,0-1.53a19.67,19.67,0,0,1,.36-3.58A20.08,20.08,0,0,1,605,528.2a.21.21,0,0,1,0-.06,19.83,19.83,0,0,1,3-3.21,20.92,20.92,0,0,1,1.68-1.3,19.89,19.89,0,0,1,5.13-2.57c.55-.18,1.11-.34,1.68-.47a20,20,0,0,1,4-.55c.56,0,1.12,0,1.68,0a19.82,19.82,0,0,1,3.73.52c.56.14,1.12.3,1.67.48a20.14,20.14,0,0,1,1.9.74c.56.25,1.12.54,1.67.85s1.19.72,1.77,1.13l.31.23c.45.33.88.67,1.29,1h0s0,0,.08.06c.31.28.62.56.91.86a21.41,21.41,0,0,1,1.68,1.89v0c.23.29.44.58.65.89v0a19.77,19.77,0,0,1,1.67,2.88v0c.22.47.42,1,.6,1.43h0a19.7,19.7,0,0,1,.9,3.17Z"/><path class="cls-19" d="M620.12,471.94h0l-1.68,2.11v.15l-1.58,2.13-2,2.74h0l-1.53,2.06h0l-1.68,2.27h0l-2.81,3.79h0l-.28.38-.95,1.28h0l-2.21,3-2.93,3.79v.16l-1.52,2-.16.21h0l-2.11,2.85-2,2.65,0,0h0l-4.88,6.58h0L584.53,520l-12.16,16.4-1.51,2-.89,1.2,1.39.2h0c1.61.22,3.22.41,4.83.58.45.06.91.11,1.36.15l.85.08,2,.19.86.08.4,0,1.36.1.26,0c1,.08,2,.14,3,.19l1.36.07c.35,0,.71,0,1.06.06h.2q.52-2.46,1.2-5c.68-2.54,1.47-5.1,2.35-7.67q1-3,2.15-5.93c.3-.78.61-1.56.92-2.34l.19-.46h0c.93-2.3,1.91-4.58,2.91-6.82V513c.56-1.23,1.12-2.3,1.69-3.51.93-2,1.88-4,2.84-5.89v0c1.3-2.61,2.6-5.14,3.88-7.55.17-.32.33-.52.51-.8v-.15c.56-1.07,1.12-2.12,1.67-3.13q1.25-2.28,2.41-4.37l.21-.38c.49-.88,1-1.58,1.43-2.41v-.15c1.13-2,2.17-3.84,3.1-5.48l1.53-2.73.51-.92c.74-1.35,1.31-2.45,1.68-3.25.12-.27.22-.5.29-.7Z"/><path class="cls-20" d="M640.18,523.57v9.26a2.53,2.53,0,0,1,0,.28h0a3.56,3.56,0,0,1-2.27,3,2.21,2.21,0,0,1-.5.15l-.16,0-.31,0H552.2q-2.85-.62-5.7-1.29l-1.35-.33c-1.27-.3-2.53-.62-3.8-.94l-1.67-.43c-1-.25-1.92-.5-2.88-.77l-3.11-.85-1.36-.39c-2.57-.73-5.15-1.5-7.72-2.31h0l-.3-.09L522,528.2l-1.36-.44c-7.25-2.36-14.47-5-21.59-7.86h2l38.6,0h97.08a3.91,3.91,0,0,1,.48,0,3,3,0,0,1,.65.19,3.59,3.59,0,0,1,1.67,1.33A3.55,3.55,0,0,1,640.18,523.57Z"/><path class="cls-9" d="M567.7,536.36H552.2q-2.85-.62-5.7-1.29l-1.35-.33c-1.27-.3-2.53-.62-3.8-.94l-1.67-.43c-1-.25-1.92-.5-2.88-.77l-3.11-.85-1.36-.39c-2.57-.73-5.15-1.5-7.72-2.31h0l-.3-.09L522,528.2l-1.36-.44c-7.25-2.36-14.47-5-21.59-7.86h2l38.6,0H558a33.49,33.49,0,0,0,2.83,7.86,27,27,0,0,0,5.8,7.64l.48.42.1.09Z"/><rect class="cls-21" x="620.54" y="519.99" width="1.68" height="16.41"/><rect class="cls-21" x="614.87" y="519.98" width="1.68" height="16.41"/><rect class="cls-21" x="608.06" y="519.98" width="1.68" height="16.41"/><rect class="cls-21" x="597.62" y="519.97" width="1.68" height="16.41"/><rect class="cls-21" x="586.59" y="519.96" width="1.68" height="16.41"/><rect class="cls-21" x="569.67" y="519.95" width="1.68" height="16.41"/><rect class="cls-21" x="553.83" y="519.94" width="1.68" height="16.41"/><path class="cls-3" d="M541.36,519.93v13.85l-1.67-.43V519.93Z"/><rect class="cls-21" x="625.95" y="519.99" width="1.68" height="16.41"/><rect class="cls-21" x="629.52" y="519.99" width="1.68" height="16.41"/><rect class="cls-21" x="632.97" y="519.99" width="1.68" height="16.41"/><path class="cls-21" d="M637.24,520.05v16.3a4.23,4.23,0,0,1-.63,0h-1.05l0-16.4h1A4.23,4.23,0,0,1,637.24,520.05Z"/><path class="cls-21" d="M639.57,521.58v13.25a3.53,3.53,0,0,1-1.67,1.33V520.24A3.49,3.49,0,0,1,639.57,521.58Z"/><path class="cls-20" d="M652.25,507.17v9.27a3.59,3.59,0,0,1-2.29,3.32,2.94,2.94,0,0,1-.66.19,4.23,4.23,0,0,1-.63,0l-147.58-.1a3.58,3.58,0,0,1-3.56-3.39c0-.06,0-.12,0-.18v-9.45a3.59,3.59,0,0,1,3.15-3.36,3,3,0,0,1,.42,0l147.59.1a3.36,3.36,0,0,1,.63.06,3,3,0,0,1,.65.18,3.55,3.55,0,0,1,1.67,1.34A3.49,3.49,0,0,1,652.25,507.17Z"/><path class="cls-9" d="M579.77,520l-79.06-.06a3.38,3.38,0,0,1-3.18-3.39c0-.06,0-.12,0-.18v-9.45a3.44,3.44,0,0,1,2.81-3.36,2.42,2.42,0,0,1,.38,0l69.36,0v0C571.19,508.4,573.77,515.06,579.77,520Z"/><rect class="cls-21" x="632.62" y="503.59" width="1.68" height="16.41"/><rect class="cls-21" x="626.94" y="503.58" width="1.68" height="16.41"/><rect class="cls-21" x="620.13" y="503.58" width="1.68" height="16.41"/><rect class="cls-21" x="609.69" y="503.57" width="1.68" height="16.41"/><rect class="cls-21" x="598.66" y="503.56" width="1.68" height="16.41"/><rect class="cls-21" x="581.74" y="503.55" width="1.68" height="16.41"/><rect class="cls-21" x="565.9" y="503.54" width="1.68" height="16.41"/><rect class="cls-21" x="551.75" y="503.53" width="1.68" height="16.41"/><rect class="cls-21" x="638.02" y="503.59" width="1.68" height="16.41"/><rect class="cls-21" x="641.59" y="503.59" width="1.68" height="16.41"/><rect class="cls-21" x="645.04" y="503.6" width="1.68" height="16.41"/><path class="cls-21" d="M649.32,503.66l0,16.29a4.23,4.23,0,0,1-.63,0h-1V503.6h1.05A3.36,3.36,0,0,1,649.32,503.66Z"/><path class="cls-21" d="M651.64,505.18v13.25a3.53,3.53,0,0,1-1.67,1.33V503.84A3.55,3.55,0,0,1,651.64,505.18Z"/><path class="cls-11" d="M632.89,490.78V500a3.49,3.49,0,0,1-.61,2,3.58,3.58,0,0,1-1.68,1.34,3.69,3.69,0,0,1-.65.18l-.21,0-.16,0h-.26l-147.58-.1a3.59,3.59,0,0,1-3.57-3.39v-9.63a3.59,3.59,0,0,1,3.57-3.39l147.58.1h.19a3.12,3.12,0,0,1,.44.05,3.26,3.26,0,0,1,.65.18l.31.14.19.1h0l.18.12,0,0,.16.11c.12.1.24.2.35.31l.1.11,0,0,.06.06v0l.11.13.14.19A3.53,3.53,0,0,1,632.89,490.78Z"/><path class="cls-9" d="M560.41,503.56l-79.06-.05a3.39,3.39,0,0,1-3.19-3.39v-9.63a3.39,3.39,0,0,1,3.19-3.39l69.35,0,.09.38a29.3,29.3,0,0,0,9.58,16Z"/><rect class="cls-21" x="613.25" y="487.19" width="1.68" height="16.41"/><rect class="cls-21" x="607.57" y="487.19" width="1.68" height="16.41"/><rect class="cls-21" x="600.76" y="487.18" width="1.68" height="16.41"/><rect class="cls-21" x="590.33" y="487.18" width="1.68" height="16.41"/><rect class="cls-21" x="579.29" y="487.17" width="1.68" height="16.41"/><rect class="cls-3" x="562.37" y="487.16" width="1.68" height="16.41"/><rect class="cls-3" x="546.53" y="487.15" width="1.68" height="16.41"/><rect class="cls-3" x="532.39" y="487.14" width="1.68" height="16.41" transform="translate(0.56 -0.6) rotate(0.06)"/><rect class="cls-21" x="618.66" y="487.2" width="1.68" height="16.41"/><rect class="cls-21" x="622.23" y="487.2" width="1.68" height="16.41"/><rect class="cls-21" x="625.67" y="487.2" width="1.68" height="16.41"/><path class="cls-21" d="M630,487.26v16.29a3.36,3.36,0,0,1-.63.06h-1V487.2h1.05A3.21,3.21,0,0,1,630,487.26Z"/><path class="cls-21" d="M632.28,488.78V502a3.58,3.58,0,0,1-1.68,1.34V487.44A3.64,3.64,0,0,1,632.28,488.78Z"/><path class="cls-11" d="M643.75,474.76V484a3.49,3.49,0,0,1-.61,2,3.58,3.58,0,0,1-1.68,1.34,3.46,3.46,0,0,1-.65.18,3.21,3.21,0,0,1-.63.06l-147.58-.1a3.52,3.52,0,0,1-1.59-.38,3.56,3.56,0,0,1-2-2.87.61.61,0,0,1,0-.14,1.09,1.09,0,0,1,0-.18v-9.45a3.58,3.58,0,0,1,3.15-3.36,3,3,0,0,1,.42,0l147.58.1a3.21,3.21,0,0,1,.63.06,3.57,3.57,0,0,1,.66.18,3.66,3.66,0,0,1,1.67,1.34A3.53,3.53,0,0,1,643.75,474.76Z"/><path class="cls-3" d="M571.27,487.54l-79.06-.05a2.94,2.94,0,0,1-1.43-.38,3.59,3.59,0,0,1-1.74-2.87.61.61,0,0,1,0-.14,1.09,1.09,0,0,1,0-.18v-9.45a3.44,3.44,0,0,1,2.81-3.36,2.34,2.34,0,0,1,.38,0l69.35.05v0a29.5,29.5,0,0,0,9.24,16Z"/><rect class="cls-21" x="624.11" y="471.17" width="1.68" height="16.41"/><rect class="cls-21" x="618.43" y="471.17" width="1.68" height="16.41"/><rect class="cls-21" x="611.63" y="471.16" width="1.68" height="16.41"/><rect class="cls-21" x="601.19" y="471.16" width="1.68" height="16.41"/><rect class="cls-3" x="590.15" y="471.15" width="1.68" height="16.41"/><rect class="cls-3" x="573.23" y="471.14" width="1.68" height="16.41"/><rect class="cls-3" x="557.39" y="471.13" width="1.68" height="16.41"/><rect class="cls-3" x="543.25" y="471.12" width="1.68" height="16.41"/><rect class="cls-21" x="629.52" y="471.18" width="1.68" height="16.41"/><rect class="cls-3" x="633.09" y="471.18" width="1.68" height="16.41"/><rect class="cls-3" x="636.53" y="471.18" width="1.68" height="16.41"/><path class="cls-3" d="M640.81,471.24v16.29a3.21,3.21,0,0,1-.63.06h-1V471.18h1A3.21,3.21,0,0,1,640.81,471.24Z"/><path class="cls-3" d="M643.14,472.76V486a3.58,3.58,0,0,1-1.68,1.34l0-15.93A3.66,3.66,0,0,1,643.14,472.76Z"/><path class="cls-11" d="M632.91,458.37v9.26a3.61,3.61,0,0,1-.62,2,3.51,3.51,0,0,1-2.33,1.51l-.21,0h-.42l-147.58-.1a3.58,3.58,0,0,1-3.56-3.39,1.09,1.09,0,0,1,0-.18v-9.45a3.59,3.59,0,0,1,3.57-3.39l147.58.1a3.21,3.21,0,0,1,.63.06,2.94,2.94,0,0,1,.66.19,3.56,3.56,0,0,1,2.28,3.33Z"/><path class="cls-9" d="M560.43,471.15l-79.06,0a3.38,3.38,0,0,1-3.18-3.39,1.09,1.09,0,0,1,0-.18v-9.45a3.39,3.39,0,0,1,3.19-3.39l69.35.05c1.11,4.82,3.68,11.49,9.67,16.39Z"/><rect class="cls-3" x="613.27" y="454.78" width="1.68" height="16.41" transform="translate(0.52 -0.69) rotate(0.06)"/><rect class="cls-3" x="607.6" y="454.78" width="1.68" height="16.41"/><rect class="cls-3" x="600.79" y="454.78" width="1.68" height="16.41"/><rect class="cls-3" x="590.35" y="454.77" width="1.68" height="16.41"/><rect class="cls-3" x="579.31" y="454.76" width="1.68" height="16.41"/><rect class="cls-3" x="562.4" y="454.75" width="1.68" height="16.41"/><rect class="cls-3" x="546.55" y="454.74" width="1.68" height="16.41"/><rect class="cls-9" x="532.41" y="454.73" width="1.68" height="16.41"/><rect class="cls-3" x="618.68" y="454.79" width="1.68" height="16.41"/><rect class="cls-3" x="622.25" y="454.79" width="1.68" height="16.41"/><rect class="cls-3" x="625.7" y="454.79" width="1.68" height="16.41"/><path class="cls-3" d="M630,454.85v16.29a3.21,3.21,0,0,1-.63.06h-1.05l0-16.41h1A3.21,3.21,0,0,1,630,454.85Z"/><path class="cls-3" d="M632.3,456.37v13.26a3.53,3.53,0,0,1-1.67,1.33V455A3.53,3.53,0,0,1,632.3,456.37Z"/><path class="cls-11" d="M652.86,533q-5,1.59-10.18,2.9l-1.62.4c-1.27.31-2.56.61-3.85.9l-.21,0q-6.16,1.37-12.5,2.3-5.85.87-11.82,1.36h0c-3.45.3-6.94.48-10.45.58h-7.28l-1.36,0-1.54,0-1.35,0c-.59,0-1.17,0-1.76-.07h-.2c-.35,0-.71,0-1.06-.06l-1.36-.07c-1-.05-2-.11-3-.19l-.26,0-1.36-.1-.4,0-.86-.08-2-.19-.85-.08c-.45,0-.91-.09-1.36-.15-1.61-.17-3.22-.36-4.83-.58h0l-1.39-.2-.47-.07-.38,0-1-.14-.27,0h-.14c-1.2-.18-2.41-.38-3.62-.59l-1.26-.22-1.27-.23-1.42-.27-1.35-.25c-2.21-.44-4.42-.89-6.64-1.37h0q-2.85-.62-5.7-1.29l-1.35-.33-.66-.16a52.42,52.42,0,0,1,26.94-50.4c.67-.37,1.35-.72,2-1.06s1.31-.77,2-1.14a52.4,52.4,0,0,1,77.42,51Z"/><path class="cls-3" d="M663,495.9a52.13,52.13,0,0,0-19.21-19.83l-.61-.35c-.55-.32-1.11-.63-1.68-.92-.21-.12-.43-.23-.65-.34-.56-.28-1.11-.55-1.68-.81l-.91-.41c-.56-.25-1.11-.48-1.68-.71s-1.17-.46-1.77-.67l-.13-.05-1.55-.52-.35-.11h-.16a2.06,2.06,0,0,0-.39-.17l-1.05-.31-.52-.14-.66-.17c-.56-.14-1.12-.28-1.68-.4l-.91-.19c-.56-.11-1.12-.22-1.68-.31s-1.18-.19-1.77-.27l-1.65-.19h0l-1.89-.16-1.68-.08c-1.24,0-2.48,0-3.72,0l-1.68.09c-1.34.1-2.67.25-4,.45-.56.08-1.12.18-1.68.28a49,49,0,0,0-5.13,1.22c-.34.09-.68.2-1,.31h0l-.08,0-.16.05a53.18,53.18,0,0,0-9.36,4l0,0c-.55.31-1.1.62-1.64.94l-.29.18a52.08,52.08,0,0,0-12.67,10.77c-.11.12-.21.25-.32.38a52.18,52.18,0,0,0-9.14,16,0,0,0,0,0,0,0l-.14.39a50.86,50.86,0,0,0-1.68,5.94v.15a50.48,50.48,0,0,0-1.22,9.9h0a51.93,51.93,0,0,0,2,15.49c.08.3.17.61.27.92q.45,1.47,1,2.94l.27,0,1,.14.38,0,.47.07,1.39.2h0c1.61.22,3.22.41,4.83.58.45.06.91.11,1.36.15l.85.08,2,.19.86.08.4,0,1.36.1.26,0c1,.08,2,.14,3,.19l1.36.07c.35,0,.71,0,1.06.06h.2c.59,0,1.17.06,1.76.07l1.35,0,1.54,0,1.36,0h7.28c3.51-.1,7-.28,10.45-.58h0q6-.48,11.82-1.36,6.33-.93,12.5-2.3l.21,0s0,0,0,.05l3.86-1,1.62-.4q7.62-1.93,15-4.49l2.44-.86.61-.23q2.28-.82,4.52-1.73c.41-.15.81-.32,1.22-.48h0l.24-.1h0l1.43-.59,1.06-.45c0-.38.08-.76.11-1.14A52.1,52.1,0,0,0,663,495.9Z"/><path class="cls-11" d="M659,498.1a52.12,52.12,0,0,0-15.21-17.2l-.62-.44c-.54-.39-1.1-.76-1.67-1.13l-.65-.41c-.56-.34-1.12-.68-1.68-1l-.91-.51c-.56-.3-1.12-.6-1.68-.88s-1.18-.57-1.77-.84-1.12-.5-1.68-.73l-.6-.25-1.29-.49-1.11-.39-.57-.19c-1.23-.41-2.47-.77-3.72-1.09l-1.68-.39c-1.22-.26-2.45-.48-3.68-.66l-.32,0c-.56-.08-1.12-.14-1.68-.2l-.66-.07h-.17l-.12,0h-.33c-.71-.08-1.53-.13-2.21-.16l-1.68,0c-1.33,0-2.67,0-4,.13l-.63.05h-.22l-.09,0h-.2a47.33,47.33,0,0,0-5.26.78q-.84.16-1.68.36a51.8,51.8,0,0,0-9.36,3.15q-.84.36-1.68.78l-.29.14q-1.05.51-2.07,1.08a52.13,52.13,0,0,0-12.61,9.68c-.09.1-.19.19-.27.29l-.09.09h0a52,52,0,0,0-10.25,16s0,0,0,0A52.34,52.34,0,0,0,560.78,520a51.58,51.58,0,0,0,1.51,16.4c.18.71.37,1.42.59,2.12l1.26.22c1.21.21,2.42.41,3.62.59h.14l.27,0,1,.14.38,0,.47.07,1.39.2h0c1.61.22,3.22.41,4.83.58.45.06.91.11,1.36.15l.85.08,2,.19.86.08.4,0,1.36.1.26,0c1,.08,2,.14,3,.19l1.36.07c.35,0,.71,0,1.06.06h.2c.59,0,1.17.06,1.76.07l1.35,0,1.54,0,1.36,0h7.28c3.51-.1,7-.28,10.45-.58h0q6-.48,11.82-1.36,6.33-.93,12.5-2.3l.21,0s0,0,0,.05l3.86-1,1.62-.4q7.62-1.93,15-4.49l2.44-.86.61-.23q2.28-.82,4.52-1.73A52.12,52.12,0,0,0,659,498.1Z"/><path class="cls-9" d="M655.18,500.89a47.57,47.57,0,0,0-12.33-14.51c-.46-.36-.92-.71-1.39-1.05-.22-.16-.44-.32-.66-.46-.55-.39-1.11-.77-1.67-1.13l-.92-.57c-.55-.33-1.11-.66-1.68-1s-1.17-.64-1.77-.93-1.11-.55-1.68-.8-1.25-.56-1.89-.81-1.11-.44-1.67-.64l-.18-.06c-.81-.29-1.63-.55-2.46-.8l-1.09-.31q-.82-.23-1.68-.42c-1.32-.31-2.65-.56-4-.75-.56-.08-1.11-.15-1.67-.21l-.51-.05c-.35,0-.71-.07-1.06-.09h0c-1.18-.1-2.36-.14-3.55-.14q-.85,0-1.68,0a47.43,47.43,0,0,0-8.76,1.12l-1.68.42a47,47,0,0,0-9.36,3.56c-.5.25-1,.51-1.49.78l-.19.11a47.06,47.06,0,0,0-7.27,5l-.46.38c-.49.41-1,.84-1.45,1.28s-1.13,1.06-1.67,1.62a47.22,47.22,0,0,0-9.12,13.09,0,0,0,0,0,0,0l-.06.12a47.89,47.89,0,0,0-2.53,6.72v.1a.63.63,0,0,0-.07.12,44.2,44.2,0,0,0-1.62,7.77h0l-.12,1.19c-.11,1.35-.17,2.7-.17,4a47.07,47.07,0,0,0,1.52,11.87c0,.17.09.33.13.5.27,1,.58,2,.92,3l1,.14.38,0,.47.07,1.39.2c-.17-.47-.34-.93-.5-1.4-.24-.67-.45-1.36-.65-2s-.38-1.2-.55-1.89v-.18a44.85,44.85,0,0,1,.59-22.86c.34-1.18.72-2.33,1.15-3.46h0a43.17,43.17,0,0,1,1.94-4.4s0,0,0,0a44.2,44.2,0,0,1,5.94-8.89c.54-.63,1.1-1.24,1.68-1.84a43.63,43.63,0,0,1,6.06-5.27h0l.53-.37h0c.83-.59,1.66-1.15,2.54-1.68q.76-.47,1.56-.9l.12-.07a44.29,44.29,0,0,1,9.36-3.82c.55-.16,1.11-.3,1.67-.44a44.48,44.48,0,0,1,8.77-1.2c.55,0,1.1,0,1.66,0h0l1.52,0h0c.52,0,1,0,1.56.08.68,0,1.36.11,2,.18s1.11.14,1.67.23c1.34.21,2.68.47,4,.8l1,.25.72.2c.59.17,1.19.35,1.77.55s1.31.45,2,.7,1.13.45,1.68.68,1.27.57,1.89.87,1.13.57,1.68.87,1.19.66,1.77,1,1.12.69,1.68,1.06c.31.2.61.41.91.62s.4.27.59.42h0a44.91,44.91,0,0,1,17.91,43.8l2.44-.86.61-.23A47.44,47.44,0,0,0,655.18,500.89Z"/><path class="cls-9" d="M612,540.27a11.65,11.65,0,0,1-2.33-3.79L601.07,540c0,.51,0,1,0,1.53h1.11c3.51-.1,7-.28,10.45-.58C612.44,540.69,612.22,540.49,612,540.27Zm0,0a11.65,11.65,0,0,1-2.33-3.79L601.07,540c0,.51,0,1,0,1.53h1.11c3.51-.1,7-.28,10.45-.58C612.44,540.69,612.22,540.49,612,540.27Zm0,0a11.65,11.65,0,0,1-2.33-3.79L601.07,540c0,.51,0,1,0,1.53h1.11c3.51-.1,7-.28,10.45-.58C612.44,540.69,612.22,540.49,612,540.27Zm0,0a11.65,11.65,0,0,1-2.33-3.79L601.07,540c0,.51,0,1,0,1.53h1.11c3.51-.1,7-.28,10.45-.58C612.44,540.69,612.22,540.49,612,540.27Zm0,0a11.65,11.65,0,0,1-2.33-3.79L601.07,540c0,.51,0,1,0,1.53h1.11c3.51-.1,7-.28,10.45-.58C612.44,540.69,612.22,540.49,612,540.27Zm0,0a11.65,11.65,0,0,1-2.33-3.79L601.07,540c0,.51,0,1,0,1.53h1.11c3.51-.1,7-.28,10.45-.58C612.44,540.69,612.22,540.49,612,540.27ZM637.24,531a16.41,16.41,0,0,0-.79-2.47,17.24,17.24,0,0,0-.89-1.88,14.74,14.74,0,0,0-.91-1.47l-.08-.1h0a12.24,12.24,0,0,0-1.6-1.81l0,0a14,14,0,0,0-3.42-2.3,14.56,14.56,0,0,0-1.58-.65l-.32-.1-.5-.16h0l-.19,0a24.29,24.29,0,0,0-5.13-.87l-.21,0-1.47-.07c-1.92-.08-4-.09-6.16,0-.94,0-1.81,0-2.6,0-.6,0-1.16-.05-1.67-.09h-.1a10.84,10.84,0,0,1-3.06-.67,5.43,5.43,0,0,1-2-1.39,7.21,7.21,0,0,1-1.3-2.15,2,2,0,0,1-.1-.26,8,8,0,0,1-.49-2.26,5,5,0,0,1,.07-1.28,5.1,5.1,0,0,1,.3-1.08,5.82,5.82,0,0,1,1.46-2.07,7.09,7.09,0,0,1,1.27-.94,10.29,10.29,0,0,1,1.41-.69,7.83,7.83,0,0,1,2.59-.6h0a6.3,6.3,0,0,1,1.68.15,6.7,6.7,0,0,1,1.44.51c1.77.87,3.21,2.67,4.33,5.42l3-1.21,1.68-.68,5.13-2.08.88-.36c-.27-.67-.56-1.32-.88-1.93v-.17c-.3-.57-.62-1-1-1.51l0,0c-.1-.15-.19-.3-.29-.44a16.74,16.74,0,0,0-1.34-1.72c-.14-.16-.28-.31-.43-.46h0a16.11,16.11,0,0,0-1.68-1.53,14.86,14.86,0,0,0-1.89-1.27c-.24-.14-.48-.27-.73-.39s-.63-.29-1-.42a16,16,0,0,0-2.38-.74c-.44-.1-.89-.17-1.34-.23s-.7-.09-1.06-.11l-.38,0-.24,0a19.55,19.55,0,0,0-4,.29c-.55.09-1.11.22-1.68.36l-.14,0-.36-.89-1.7-4.18-1-2.38-2,.8-1.68.68-2.26.92,2.26,5.59.16.39.55,1.36-.71.39a21,21,0,0,0-2.11,1.32h0a19.82,19.82,0,0,0-2.6,2.15c-.17.17-.33.33-.48.5,0,0,0,0,0,0a16.33,16.33,0,0,0-2.92,4.24,14.21,14.21,0,0,0-.84,2.34h0a13.41,13.41,0,0,0-.41,3,14.37,14.37,0,0,0,1.12,5.74c.15.35.29.69.45,1h0a16.14,16.14,0,0,0,1.29,2.25c.13.19.26.37.4.55a11.54,11.54,0,0,0,1.23,1.37l.15.13a12.32,12.32,0,0,0,1.61,1.27,13.86,13.86,0,0,0,1.68,1,13.43,13.43,0,0,0,1.7.69,21,21,0,0,0,4.08.94c.73.1,1.49.18,2.28.22l.7,0c.54,0,1.1,0,1.67.05,1.62,0,3.33,0,5.13-.08H615c.53,0,1,0,1.53-.05a24.33,24.33,0,0,1,2.64.08,13,13,0,0,1,1.36.2,9.76,9.76,0,0,1,1.68.48h0a5.62,5.62,0,0,1,2.13,1.46,7.8,7.8,0,0,1,1.44,2.37,1.27,1.27,0,0,0,.15.21v.18a6.41,6.41,0,0,1,.36,2.14,5.41,5.41,0,0,1-.09,1,5.36,5.36,0,0,1-.48,1.43,6.49,6.49,0,0,1-1.24,1.69q6.33-.93,12.5-2.3l.21,0q.1-.43.18-.87a12.77,12.77,0,0,0,.2-2A13.18,13.18,0,0,0,637.24,531ZM612,540.27a11.65,11.65,0,0,1-2.33-3.79L601.07,540c0,.51,0,1,0,1.53h1.11c3.51-.1,7-.28,10.45-.58C612.44,540.69,612.22,540.49,612,540.27Zm0,0a11.65,11.65,0,0,1-2.33-3.79L601.07,540c0,.51,0,1,0,1.53h1.11c3.51-.1,7-.28,10.45-.58C612.44,540.69,612.22,540.49,612,540.27Zm0,0a11.65,11.65,0,0,1-2.33-3.79L601.07,540c0,.51,0,1,0,1.53h1.11c3.51-.1,7-.28,10.45-.58C612.44,540.69,612.22,540.49,612,540.27Zm0,0a11.65,11.65,0,0,1-2.33-3.79L601.07,540c0,.51,0,1,0,1.53h1.11c3.51-.1,7-.28,10.45-.58C612.44,540.69,612.22,540.49,612,540.27Zm0,0a11.65,11.65,0,0,1-2.33-3.79L601.07,540c0,.51,0,1,0,1.53h1.11c3.51-.1,7-.28,10.45-.58C612.44,540.69,612.22,540.49,612,540.27Zm0,0a11.65,11.65,0,0,1-2.33-3.79L601.07,540c0,.51,0,1,0,1.53h1.11c3.51-.1,7-.28,10.45-.58C612.44,540.69,612.22,540.49,612,540.27Zm0,0a11.65,11.65,0,0,1-2.33-3.79L601.07,540l-2.08.84c.1.25.19.49.3.72h2.93c3.51-.1,7-.28,10.45-.58C612.44,540.69,612.22,540.49,612,540.27Z"/></g></svg>