<svg xmlns="http://www.w3.org/2000/svg" viewBox="0 0 849.08 435.3"><defs><style>.cls-1{fill:#dae3ea;}.cls-2{fill:#ff725e;}.cls-3{fill:#eff3f7;}.cls-4{fill:#263238;}.cls-5{fill:#fafafa;}.cls-6{fill:#08101f;}.cls-7{fill:#ffd5be;}.cls-8{fill:#ffb194;}.cls-9{fill:#455a64;}.cls-10{fill:#2a85f5;}.cls-11{fill:#fff;}.cls-12{fill:#2e4050;}.cls-13{fill:#31b1e7;}.cls-14{opacity:0.3;}.cls-15{fill:#ffbe9d;}.cls-16{fill:#eb996e;}.cls-17{fill:#c58984;}.cls-18{fill:#9c6664;}</style></defs><g id="Layer_2" data-name="Layer 2"><g id="Character_1" data-name="Character 1"><path class="cls-1" d="M849,66.56c.61-4.47-5.7-8.15-10.44-8.54-2.26-.18-4.61.17-6.75-.58-4.65-1.62-6.5-7.61-11-9.52-3.39-1.43-7.29-.16-10.57,1.49s-6.53,3.73-10.19,4c-3.2.2-6.66-1-9.45.58-2.08,1.16-3.17,3.56-5.09,5s-4.32,1.68-6.65,1.8-4.73.15-6.85,1.12-3.88,3.21-3.44,5.5Z"/><path class="cls-1" d="M284.76,25.61c.4-2.86-3.65-5.22-6.69-5.46-1.44-.12-2.95.1-4.32-.38-3-1-4.16-4.87-7.06-6.1-2.17-.91-4.67-.1-6.77,1s-4.19,2.39-6.53,2.54c-2,.13-4.27-.63-6.06.37-1.33.75-2,2.28-3.25,3.19a7.84,7.84,0,0,1-4.26,1.15,12,12,0,0,0-4.39.72,3.47,3.47,0,0,0-2.2,3.52Z"/><path class="cls-1" d="M700.58,381.85c.49-3.55-4.52-6.47-8.28-6.77-1.8-.14-3.66.13-5.36-.46-3.68-1.29-5.15-6-8.75-7.56-2.68-1.13-5.78-.12-8.38,1.19s-5.18,3-8.09,3.14c-2.53.17-5.28-.77-7.49.46-1.65.93-2.52,2.83-4,3.95a9.6,9.6,0,0,1-5.27,1.43,14.84,14.84,0,0,0-5.44.89c-1.68.77-3.07,2.54-2.72,4.36Z"/><path class="cls-1" d="M162.5,156.36c.39-2.86-3.65-5.22-6.69-5.46-1.45-.12-2.95.1-4.33-.38-3-1-4.16-4.87-7.06-6.1-2.17-.91-4.67-.1-6.77,1s-4.18,2.39-6.53,2.54c-2,.13-4.26-.63-6.05.37-1.33.75-2,2.28-3.26,3.19a7.81,7.81,0,0,1-4.26,1.15,12,12,0,0,0-4.39.72,3.47,3.47,0,0,0-2.2,3.52Z"/><path class="cls-1" d="M250.22,424.74c.39-2.86-3.65-5.22-6.69-5.46-1.45-.12-2.95.1-4.33-.38-3-1-4.16-4.88-7.06-6.1-2.17-.92-4.67-.1-6.77,1s-4.18,2.39-6.53,2.54c-2,.13-4.26-.63-6.05.37-1.33.74-2,2.28-3.26,3.18a7.74,7.74,0,0,1-4.26,1.16,12,12,0,0,0-4.39.72,3.46,3.46,0,0,0-2.2,3.52Z"/><path class="cls-1" d="M676.35,76.1c.4-2.87-3.64-5.22-6.68-5.47-1.45-.12-3,.11-4.33-.37-3-1-4.16-4.88-7.06-6.1-2.17-.92-4.67-.11-6.77,1s-4.18,2.39-6.53,2.54c-2.05.13-4.26-.62-6.05.38-1.34.74-2,2.27-3.26,3.18a7.73,7.73,0,0,1-4.26,1.15,12.23,12.23,0,0,0-4.39.72,3.48,3.48,0,0,0-2.2,3.53Z"/><path class="cls-1" d="M82.27,293.19c.63-4.57-5.82-8.33-10.66-8.72-2.31-.19-4.71.17-6.9-.6-4.75-1.65-6.64-7.78-11.27-9.73C50,272.68,46,274,42.64,275.67s-6.67,3.81-10.42,4.05c-3.26.21-6.8-1-9.65.59-2.12,1.19-3.24,3.64-5.19,5.08s-4.42,1.72-6.8,1.85-4.84.15-7,1.14-4,3.28-3.51,5.62Z"/><path class="cls-1" d="M809.63,208.63c.63-4.57-5.82-8.33-10.67-8.72-2.31-.19-4.71.17-6.9-.6-4.74-1.65-6.63-7.78-11.26-9.73-3.46-1.46-7.45-.16-10.8,1.53s-6.67,3.81-10.42,4c-3.26.21-6.8-1-9.65.59-2.12,1.19-3.24,3.64-5.2,5.08s-4.41,1.72-6.79,1.85-4.84.15-7,1.14-4,3.28-3.51,5.62Z"/><path class="cls-2" d="M615.62,208.48c-.21-2.16-.45-4.28-.76-6.4s-.63-4.48-1-6.7c.37,2.22.71,4.45,1,6.7S615.41,206.32,615.62,208.48Z"/><path class="cls-3" d="M598.26,235c-1.87-4.19-2.29-8.83-3.53-13.22-.67-2.37-1.79-4.88-4-5.93-1.48-.68-3.23-.59-4.8-1.07-5.66-1.68-7.2-9.48-12.55-11.91a18.6,18.6,0,0,0-5.38-1.1c-7.17-.84-14.58-3.29-19.08-8.86-1.48-1.79-2.6-3.92-4.42-5.38s-4.68-2.09-6.47-.6c1.51,3,3,6,4.48,8.94,1.36,2.7,2.75,5.48,5,7.45s5.68,3,8.43,1.8c.91-.42,1.82-1.11,2.84-1a3.06,3.06,0,0,1,1.85,1.17c3.9,4.27,2.63,11.36-1.18,15.73s-9.4,6.61-14.82,8.73c-1.93.75-4,1.53-6,1.17-3.75-.69-5.75-4.73-6.84-8.35-2.45-8-3.63-16.72-8.65-23.48-1.6-2.12-3.59-4.06-4.56-6.55-1-2.69-.79-5.83-2.42-8.19s-5.29-3.92-5.53-6.91c-.15-2.09,1.6-4,3.53-4.85s4.12-1.19,6.11-2c.79-.33,1.67-.9,1.7-1.73,0-1.26-1.76-1.77-2.21-2.94s.88-2.54,1.45-3.82c1.24-2.94-1.84-5.9-4.84-7.09s-6.56-2.07-8-4.94a17,17,0,0,1-1-4.28c-.69-3.61-3.38-7.11-7.07-7.71s-7.83,2.66-7.23,6.31c.36,2,1.87,3.56,2.69,5.41s.61,4.61-1.33,5.21c-3.17.95-6.23-4.79-8.89-2.82,1.09,3.68,2.15,7.36,3.24,11.07-4.18,2.1-9.17-1.7-10.95-6s-1.84-9.18-4-13.31-7.83-7.24-11.46-4.31c-.18,5.33,6.92,7.48,10.07,11.79,2.27,3.11,1.93,8.16-1.42,10.14s-8.62-1.47-7.35-5.09c.45-1.25,1.51-2.3,1.63-3.65.12-1.67-1.3-3-2.6-4.09-2-1.71-4-3.38-6.07-5.06a12.89,12.89,0,0,0-4.33-2.69c-4.17-1.2-8.34,2.15-10.55,5.83s-3.45,8-6.5,11.13c-4.39,4.48-12.7,4.75-16.81.06s-2-13.49,4.05-15.2c2.3-.62,5.2-.57,6.41-2.57,2.11-3.56-3.93-8.11-1.85-11.69,1.61-2.76,5.84-1.5,8.92-2.43s4.78-4,6.59-6.61,4.6-5.23,7.75-4.54c-.25-1.83-.49-3.8.33-5.45s3.11-2.75,4.62-1.67c-1.54,2.51.31,6,3,7.27s5.83,1,8.8.62,6.68-1.43,6.92-4.36c.09-1-.27-2,.09-2.87,1.3-3.5,7.83,1.31,10.34-1.5,1.45-1.47-.15-4.07-2.17-4.55s-4.09.24-6.14.3-4.57-1-4.66-3,2.18-3.44,2.42-5.41c.39-3.35-5.35-4.22-7.38-1.5s-1.3,6.46-.69,9.78.93,7.24-1.55,9.58c-1.05,1.58-3.81.74-4.71-.93s-.73-3.71-.88-5.6-1-4.06-2.87-4.57c-1.3-.36-2.69.27-4,.45-5.26.62-8.92-6.1-7.26-11.07s6.41-8.2,11-10.74c3.38-1.85,7.59-3.59,10.94-1.7,1.57.86,2.66,2.36,4.21,3.26,2.66,1.55,5.95,1,9,1a21.15,21.15,0,0,1,13.15,5.06c1.36,1.23,2.63,3.26,1.57,4.73s-4.44,1.88-3.87,3.7a6.54,6.54,0,0,0,8.22-5.23A5.44,5.44,0,0,1,502,95c3.84-3.86,11.22-3.29,14.36,1.16.85,1.17,1.45,2.57,2.66,3.38s3.33.39,3.48-1a2.87,2.87,0,0,0-.24-1.32c-.73-2-1.48-4-2.21-6,2.81-1.5,6.14.84,8,3.35,7.08,9.36,12.13,3.74,22.11,5.26,6.74,1,9.7,5.3,13.51,10.47,11.67,15.91,27.1,28.95,37.71,45.58,1.12,1.74,2.15,3.5,3.11,5.3-.18-.45-.33-.9-.51-1.35a183.34,183.34,0,0,0-15.42-31q-1.95-3.13-4-6.19c-.85-1.25-1.73-2.54-2.6-3.77-1.12-1.61-2.3-3.17-3.48-4.72-.94-1.26-1.88-2.48-2.84-3.68-.67-.84-1.36-1.67-2.06-2.51a35.85,35.85,0,0,0-2.36-2.81l-2.54-2.91c-.24-.29-.51-.59-.81-.89-.88-1-1.82-2-2.75-3a1,1,0,0,0-.28-.3c-.24-.27-.51-.54-.78-.81-.76-.84-1.58-1.65-2.36-2.45-1.3-1.32-2.63-2.63-4-3.89-1.12-1.11-2.27-2.15-3.45-3.2s-2.06-1.86-3.11-2.75-2.06-1.77-3.12-2.64c-1.27-1.07-2.57-2.12-3.9-3.17h0q-5.49-4.35-11.31-8.22c-1-.66-1.9-1.29-2.87-1.92s-2-1.25-2.93-1.85-2-1.23-3-1.79-2-1.2-3-1.77c-.82-.48-1.6-.93-2.42-1.35-.42-.26-.82-.47-1.24-.68-1.72-1-3.48-1.89-5.23-2.75-.88-.45-1.75-.9-2.66-1.32-1.12-.57-2.27-1.11-3.42-1.62a2.66,2.66,0,0,0-.51-.24c-1-.47-2.06-1-3.12-1.4-1.48-.63-3-1.26-4.44-1.86-1.69-.68-3.39-1.37-5.11-2-1.91-.72-3.81-1.41-5.75-2s-3.9-1.29-5.86-1.89-3.93-1.13-5.93-1.67c-3.93-1-7.92-2-11.94-2.78-.06,0-.15,0-.21-.06-1.55-.3-3.09-.6-4.63-.84a1.32,1.32,0,0,0-.3-.06c-.67-.12-1.36-.24-2.06-.33-2.87-.48-5.77-.87-8.71-1.2-.33-.06-.69-.09-1.06-.12-.84-.12-1.69-.18-2.56-.27-1.94-.18-3.88-.33-5.84-.44s-4.08-.24-6.14-.3-4.29-.12-6.44-.12q-8.52,0-16.87.74c-1.33.09-2.63.21-3.93.36s-2.72.3-4.08.48-2.73.36-4.06.57-2.69.42-4.05.66c-1.15.18-2.33.39-3.47.63q-4.28.8-8.44,1.79-2,.45-3.9,1c-1.3.33-2.6.69-3.87,1-2.15.59-4.24,1.25-6.32,1.91h0l-5.08,1.7a.23.23,0,0,0-.12.06c-1.73.6-3.39,1.23-5.08,1.89l-.27.09c-1.55.6-3.09,1.22-4.6,1.85-1.9.78-3.78,1.62-5.62,2.46-1.58.71-3.12,1.43-4.63,2.18s-3.27,1.61-4.87,2.45l-.18.09c-1.54.81-3.08,1.65-4.6,2.51s-3.11,1.77-4.65,2.73h0c-1.45.86-2.88,1.73-4.3,2.63-.54.33-1.05.69-1.6,1-1.51,1-3,2-4.44,3-1.82,1.23-3.57,2.52-5.33,3.8-1.54,1.14-3.05,2.31-4.53,3.47a189.36,189.36,0,0,0-23.77,22.29c-2.57,2.81-5,5.68-7.34,8.61-2,2.51-3.93,5.06-5.78,7.69-1.66,2.29-3.27,4.62-4.81,7,1.54-2.37,3.15-4.7,4.81-7,.48-.06,1-.12,1.45-.15,2.72-.21,5.59-.12,8-1.29,2.27-1.1,3.88-3.11,5.93-4.54,5.26-3.71,13.88-4.4,15.3-10.62.48-2.1-.09-4.37.7-6.37,1.48-3.74,6.53-4.28,10.58-4.22,1.72,0,3.75.24,4.53,1.73a4.19,4.19,0,0,1-.18,3.47,32.6,32.6,0,0,1-13.88,16.87c-5.26,3.17-12.12,5.63-13.57,11.55.72,2,4.41,1.85,4.71,3.95.22,1.67-2,2.54-2.75,4-1.15,2.19,1.49,4.85,4,4.73s4.6-1.91,6.45-3.59c5.5-5.05,11.27-10.5,13.27-17.68.85-3,1.15-6.43,3.57-8.4,2.87-2.33,8-.72,9,2.84,2.39-1.31,6.11-2.3,7.35.15a12.55,12.55,0,0,1,.51,2.81c.79,3.83,6.08,5.57,6.62,9.42.64,4.46-5.14,6.76-9.64,7.45-4.09.63-8.17,1.26-12.25,1.92a11.26,11.26,0,0,0-5.08,1.61c-1.45,1.08-2.36,3.11-1.51,4.7a12.24,12.24,0,0,0,2.11,2.15c3.39,3.35.61,10.26-4.17,10.41-1.63.06-3.23-.54-4.87-.6-4.83-.21-8.67,4-11,8.23s-4,9-7.89,11.9c-6.23,4.64-17,3.56-20,10.68-1.21,2.87-.58,6.1-.09,9.18s.69,6.46-1.12,9-6.44,3.05-7.77.24a6.78,6.78,0,0,1-.18-4q1.08-6.65,2.11-13.28c.52-3.3,1-7-1-9.67-2.75-3.76-8.92-3.41-12.49-.39s-5,7.75-6,12.27c-.72,3.35-1.57,8.07-3.45,11.9h0c-.63,3.71-1.14,7.48-1.54,11.28s-.66,7.75-.81,11.69a17.42,17.42,0,0,0,1.54-1.43c1.9-2,5.74-10.17,9.19-6.13a3,3,0,0,1,.06,3.74c-1.06,1.34-3.17,1.64-4,3.11-1,1.73.39,3.88,2,5s3.62,1.89,4.77,3.53c2.21,3.14.09,7.9,2.24,11.1,1.84,2.75,5.77,2.93,9.13,3.29l1.15.18c.94-6.58,4-11.94,13.12-14,12.52-2.81,29,7.45,36,16.78,7.87,10.44,11.59,25.21,23.62,30.45,8.62,3.74,20.86,2.39,25.07,10.74,3.75,7.47-2.78,15.88-3.78,24.16-.64,5.48,1.18,10.92,1.6,16.39s-1.24,11.91-6.29,14.21c-2.81,1.26-6.35,1.11-8.62,3.2-4,3.77-.72,11.55-4.74,15.32-1.43,1.31-3.39,1.79-5.11,2.66-9,4.51-8.8,17.67-4.6,26.8.15.33.3.63.45.95a189.16,189.16,0,0,0,43,18.76A193.09,193.09,0,0,0,515.17,394.1h0A191.81,191.81,0,0,0,532.11,384a188.29,188.29,0,0,0,23.73-18.66,183.26,183.26,0,0,0,14.51-15c3.21-3.65,6.23-7.45,9.14-11.33,1.48-2,2.93-4,4.29-6.08a186.31,186.31,0,0,0,31.05-80.4c.58-4.24,1-8.55,1.33-12.89a11,11,0,0,1-7.68,3.38C603.89,243,600.11,239.19,598.26,235Z"/><path class="cls-1" d="M379.9,87.69c-3.79,2.23-5.8,6.46-8.72,9.73S363,103,359.57,100.3A7.86,7.86,0,0,1,357,94.74,14.11,14.11,0,0,1,359,86.08c1.64-2.66,4.15-4.74,5.55-7.53s1.11-6.88-1.75-8.19c-1.54-.71-3.49-.43-4.86-1.43-2.46-1.8-.7-6,2.17-7.11s6-.24,9.09,0c11.07.7,19.22-6.47,27.54-12.43,6.48-4.64,20.27-10.11,27.76-5.37,3,1.88,4.16,6.74,1.35,8.87-1.26,1-3,1.17-4.18,2.23-1.4,1.27-1.6,3.35-2.41,5.06-2.1,4.43-8.14,6-10.09,10.54-1.17,2.71-.64,6.08-2.45,8.43-1.43,1.85-3.91,2.51-6.21,3.05l-14.44,3.4A21.67,21.67,0,0,0,379.9,87.69Z"/><path class="cls-1" d="M509,320.33c-4.79,7.14-5.66,16.07-7,24.54s-3.61,17.47-10.19,23.05-18.67,5.24-22.29-2.54c-2-4.23-1-9.21-2-13.75-1.39-5.9-6.14-10.45-8.4-16.09-1.92-4.81-1.92-10.12-2.08-15.29-.86-28.24-7.82-57.72-27.26-78.42-2.39-2.55-5.1-5-8.49-5.92a10.93,10.93,0,0,0-11.15,3.81c-1.56,2-2.37,4.65-4.28,6.38-4.16,3.75-11.41,1.06-14.18-3.78s-2.39-10.77-1.93-16.32q.87-10.31,1.73-20.63c.3-3.59.71-7.45,3.09-10.18,3.4-3.88,9.48-4.07,13.63-7.14,5.45-4,6.17-11.73,9.6-17.54s14.18-8.27,15.77-1.72c11.36-24.06,36.48,11.68,51.41,9,4.33-.78,8.57-2.84,12.94-2.23,7.71,1.06,11.69,9.46,14.31,16.71q6.53,18.06,13.06,36.1c1.66,4.59,3.8,9.68,8.39,11.44,3.52,1.35,7.6.32,11.15,1.6,9.37,3.37,6.32,18-1.22,24.41s-18.13,10.53-21.71,19.73c-2.7,6.94-.55,15.06-3.45,21.91C516.36,312.36,512,315.9,509,320.33Z"/><path class="cls-1" d="M544.58,328.17c-3.08.43-6.71-1.07-9.05.95-1.37,1.18-1.67,3.12-2.21,4.84a10.35,10.35,0,0,1-4.36,5.89,6.61,6.61,0,0,1-7.13-.13c-2-1.5-2.62-4.71-1-6.6.74-.85,1.82-1.36,2.65-2.14,4.09-3.83,1.29-10.91,4.4-15.45,1.83-2.68,4.72-5.4,6.73-8.11,1.55-2.09,2.12-3.75,5-4.3C552.06,300.69,557.69,326.36,544.58,328.17Z"/><path class="cls-1" d="M259.43,276.88c-.6-5.41,1.21-10.83,1.3-16.3.06-3.77-.21-7.75-.27-11.54a52.92,52.92,0,0,1-9.71-1.35,2.91,2.91,0,0,1-1.78-.9,3.41,3.41,0,0,1-.39-2c-.25-4.25-4.39-7.06-8.11-9.18a32.41,32.41,0,0,0-5.89-2.88c0,.45,0,.87,0,1.32a186.54,186.54,0,0,0,12.16,60,181.76,181.76,0,0,0,11.67,24.77c1.88,3.44,3.93,6.82,6.08,10.14,2.66,4.09,5.44,8.1,8.44,12,2.78,3.71,5.74,7.33,8.86,10.8a188.53,188.53,0,0,0,13.51,13.76q6.3,5.82,13.15,11.06c-10.43-27.69-20.25-56-38.09-79.53C265.69,290.82,260.31,284.54,259.43,276.88Z"/><path class="cls-1" d="M260.82,241.71l-1.15-.18c-3.35-.36-7.28-.54-9.13-3.29-2.14-3.2,0-8-2.24-11.1-1.15-1.64-3.14-2.36-4.77-3.53s-3-3.29-2-5c.82-1.47,2.93-1.77,4-3.11a3,3,0,0,0-.06-3.74c-3.45-4-7.29,4.18-9.19,6.13a16.12,16.12,0,0,1-1.54,1.43v0c0,.36-.06.69-.06,1,0,1.12,0,2.27-.06,3.41s-.06,2.27-.06,3.41c0,.93,0,1.84,0,2.77s0,1.85.05,2.76a32.41,32.41,0,0,1,5.89,2.88c3.72,2.12,7.86,4.93,8.11,9.18a3.49,3.49,0,0,0,.39,2,2.91,2.91,0,0,0,1.78.9,52.92,52.92,0,0,0,9.71,1.35"/><path class="cls-1" d="M260.52,249.06c.06,3.8.33,7.78.28,11.55-.1,5.47-1.91,10.88-1.31,16.3.88,7.65,6.26,13.94,10.95,20.1,17.84,23.57,27.67,51.83,38.1,79.53h0c1.93,1.52,3.9,3,5.9,4.37q2.36,1.68,4.76,3.29c1.61,1.07,3.23,2.12,4.88,3.14,1.15.71,2.3,1.4,3.48,2.09-.15-.33-.3-.63-.46-1-4.2-9.12-4.44-22.28,4.6-26.8,1.72-.86,3.69-1.34,5.11-2.66,4-3.77.73-11.54,4.75-15.31,2.27-2.1,5.8-1.95,8.61-3.2,5.05-2.31,6.69-8.71,6.29-14.21s-2.23-10.92-1.6-16.39c1-8.29,7.53-16.69,3.78-24.17-4.2-8.34-16.45-7-25.07-10.74-12-5.23-15.75-20-23.61-30.45-7-9.33-23.49-19.59-36-16.78-9.07,2-12.19,7.39-13.13,14"/><path class="cls-1" d="M246.49,172.16c3.57-3,9.74-3.37,12.49.39,2,2.7,1.51,6.37,1,9.67q-1,6.63-2.11,13.28a6.78,6.78,0,0,0,.18,4c1.33,2.81,6,2.28,7.77-.24s1.6-5.95,1.12-9-1.12-6.31.09-9.18c3-7.12,13.76-6,20-10.68,3.87-2.87,5.59-7.69,7.89-11.9s6.14-8.44,11-8.23c1.64.06,3.24.66,4.87.6,4.78-.15,7.56-7.06,4.17-10.41a12.24,12.24,0,0,1-2.11-2.15c-.85-1.59.06-3.62,1.51-4.7a11.26,11.26,0,0,1,5.08-1.61c4.08-.66,8.16-1.29,12.25-1.92,4.5-.69,10.28-3,9.64-7.45-.54-3.85-5.83-5.59-6.62-9.42a12.55,12.55,0,0,0-.51-2.81c-1.24-2.45-5-1.46-7.35-.15-1-3.56-6.11-5.17-9-2.84-2.42,2-2.72,5.44-3.57,8.4-2,7.18-7.77,12.63-13.27,17.68-1.85,1.68-3.94,3.47-6.45,3.59s-5.14-2.54-4-4.73c.79-1.49,3-2.36,2.75-4-.3-2.1-4-1.95-4.71-3.95,1.45-5.92,8.31-8.38,13.57-11.55A32.6,32.6,0,0,0,316,95.92a4.19,4.19,0,0,0,.18-3.47c-.78-1.49-2.81-1.73-4.53-1.73-4.05-.06-9.1.48-10.58,4.22-.79,2-.22,4.27-.7,6.37-1.42,6.22-10,6.91-15.3,10.62-2.05,1.43-3.66,3.44-5.93,4.54-2.45,1.17-5.32,1.08-8,1.29-.48,0-1,.09-1.45.15-1.66,2.29-3.27,4.62-4.81,7s-3,4.78-4.47,7.22a185.09,185.09,0,0,0-16.57,36.55q-2.22,6.71-3.93,13.63t-2.88,14c1.88-3.83,2.73-8.55,3.45-11.9C241.47,179.91,243,175.19,246.49,172.16Z"/><path class="cls-1" d="M616.49,224.62q0-4.08-.25-8.1t-.63-8c-.21-2.15-.45-4.28-.75-6.4s-.63-4.48-1-6.7a180.64,180.64,0,0,0-4.47-19.62c-.71-2.47-1.27-4.93-2.08-7.35s-1.85-4.83-2.75-7.22v0h0c-1-1.79-2-3.56-3.12-5.29-10.61-16.63-26-29.67-37.7-45.59-3.81-5.17-6.78-9.45-13.52-10.47-10-1.52-15,4.1-22.1-5.26-1.91-2.51-5.23-4.85-8.05-3.35.73,2,1.49,4,2.21,6a2.87,2.87,0,0,1,.24,1.32c-.15,1.4-2.26,1.79-3.47,1s-1.82-2.22-2.66-3.38c-3.15-4.46-10.53-5-14.37-1.17a5.44,5.44,0,0,0-3.17-4.43,6.57,6.57,0,0,1-8.23,5.24c-.57-1.83,2.72-2.16,3.87-3.71s-.21-3.5-1.57-4.73a21.11,21.11,0,0,0-13.15-5c-3.06-.06-6.35.5-9-1.05-1.54-.9-2.63-2.39-4.2-3.26-3.36-1.88-7.56-.15-10.95,1.7-4.63,2.55-9.4,5.75-11,10.74s2,11.7,7.26,11.07c1.33-.18,2.72-.81,4-.45,1.88.51,2.72,2.66,2.87,4.58s-.06,3.91.88,5.59,3.66,2.51,4.72.93c2.48-2.34,2.17-6.25,1.54-9.57s-1.3-7.06.7-9.78,7.77-1.86,7.37,1.49c-.24,2-2.51,3.41-2.42,5.41s2.6,3.12,4.66,3,4.14-.81,6.14-.3,3.63,3.08,2.18,4.54c-2.51,2.81-9.05-2-10.35,1.5-.36.9,0,1.91-.09,2.87-.24,2.93-4,4-6.92,4.37s-6.11.63-8.8-.63-4.53-4.76-3-7.27c-1.51-1.08-3.81,0-4.63,1.68s-.57,3.61-.33,5.44c-3.15-.69-6,1.94-7.74,4.55s-3.54,5.68-6.59,6.61-7.32-.33-8.92,2.42c-2.09,3.59,4,8.13,1.84,11.69-1.21,2-4.11,1.95-6.41,2.58-6.08,1.7-8.19,10.49-4.05,15.19s12.43,4.43,16.81-.06c3.05-3.08,4.29-7.42,6.5-11.13s6.38-7,10.55-5.83a12.85,12.85,0,0,1,4.33,2.69c2,1.68,4.05,3.35,6.08,5.06,1.3,1.07,2.72,2.42,2.6,4.1-.12,1.34-1.18,2.39-1.64,3.64-1.27,3.62,4,7.06,7.35,5.09s3.69-7,1.42-10.14c-3.14-4.31-10.25-6.46-10.07-11.78,3.63-2.94,9.35.15,11.46,4.3s2.18,9,4,13.31,6.78,8.11,10.95,6c-1.09-3.7-2.15-7.38-3.24-11.06,2.66-2,5.72,3.77,8.89,2.81,1.94-.6,2.18-3.35,1.33-5.21s-2.32-3.41-2.69-5.41c-.6-3.65,3.51-6.91,7.23-6.31s6.38,4.1,7.08,7.72a17,17,0,0,0,1,4.27c1.39,2.88,5,3.74,8,4.94s6.07,4.16,4.83,7.09c-.57,1.28-1.93,2.51-1.45,3.83.46,1.16,2.21,1.67,2.21,2.93,0,.84-.91,1.4-1.69,1.73-2,.81-4.18,1.08-6.11,2s-3.69,2.75-3.54,4.84c.24,3,3.84,4.43,5.53,6.91s1.39,5.51,2.42,8.2c1,2.48,3,4.42,4.57,6.55,5,6.76,6.2,15.46,8.65,23.48,1.08,3.62,3.08,7.65,6.83,8.34,2.06.36,4.11-.42,6-1.17,5.41-2.12,11-4.39,14.81-8.73s5.08-11.45,1.18-15.73a3.07,3.07,0,0,0-1.84-1.17c-1-.12-1.94.57-2.84,1-2.76,1.26-6.14.21-8.44-1.8s-3.66-4.75-5-7.44c-1.48-3-3-6-4.48-8.95,1.79-1.49,4.63-.86,6.48.6s2.93,3.59,4.41,5.39c4.51,5.56,11.91,8,19.08,8.85a18.29,18.29,0,0,1,5.38,1.11c5.35,2.42,6.9,10.23,12.55,11.9,1.57.48,3.33.39,4.81,1.08,2.24,1,3.35,3.56,4,5.92,1.24,4.4,1.66,9,3.54,13.22s5.62,8,10.22,8.05a11.08,11.08,0,0,0,7.68-3.38v0c.24-4.13.39-8.26.39-12.45C616.55,226.36,616.55,225.49,616.49,224.62Z"/><path class="cls-4" d="M217.51,243.27a35.11,35.11,0,0,1-.44-6,34.38,34.38,0,0,1,.09-6,35.38,35.38,0,0,1,.44,6A34.5,34.5,0,0,1,217.51,243.27Z"/><path class="cls-4" d="M220.36,267.07a33.17,33.17,0,0,1-1.15-5.89,33.92,33.92,0,0,1-.63-6,35.45,35.45,0,0,1,1.14,5.89A35.64,35.64,0,0,1,220.36,267.07Z"/><path class="cls-4" d="M226,290.36a33.86,33.86,0,0,1-1.85-5.71,35.24,35.24,0,0,1-1.35-5.85,35.08,35.08,0,0,1,1.85,5.71A36.25,36.25,0,0,1,226,290.36Z"/><path class="cls-4" d="M234.47,312.79a34.79,34.79,0,0,1-2.52-5.44,35.46,35.46,0,0,1-2-5.65,33.63,33.63,0,0,1,2.52,5.45A34.8,34.8,0,0,1,234.47,312.79Z"/><path class="cls-4" d="M245.51,334.05a69.12,69.12,0,0,1-5.83-10.46,35.79,35.79,0,0,1,3.14,5.1A34.34,34.34,0,0,1,245.51,334.05Z"/><path class="cls-4" d="M259,353.87a33.68,33.68,0,0,1-3.73-4.7,34.59,34.59,0,0,1-3.31-5,34.43,34.43,0,0,1,3.73,4.7A35.4,35.4,0,0,1,259,353.87Z"/><path class="cls-4" d="M274.7,372a69.77,69.77,0,0,1-8.12-8.83A69.77,69.77,0,0,1,274.7,372Z"/><path class="cls-4" d="M292.39,388.15a34.47,34.47,0,0,1-4.71-3.72,35.51,35.51,0,0,1-4.37-4.11A34.73,34.73,0,0,1,288,384,35.52,35.52,0,0,1,292.39,388.15Z"/><path class="cls-4" d="M311.82,402.18a34.48,34.48,0,0,1-5.11-3.15,35.1,35.1,0,0,1-4.81-3.59,71.37,71.37,0,0,1,9.92,6.74Z"/><path class="cls-4" d="M332.72,413.9a34.64,34.64,0,0,1-5.43-2.55,36,36,0,0,1-5.19-3,34.33,34.33,0,0,1,5.43,2.55A34,34,0,0,1,332.72,413.9Z"/><path class="cls-4" d="M354.84,423.15a35.16,35.16,0,0,1-5.69-1.91,34.07,34.07,0,0,1-5.5-2.4,68.53,68.53,0,0,1,11.19,4.31Z"/><path class="cls-4" d="M377.85,429.81a69.94,69.94,0,0,1-11.6-3,34.4,34.4,0,0,1,5.87,1.25A35.11,35.11,0,0,1,377.85,429.81Z"/><path class="cls-4" d="M401.48,433.82a33.51,33.51,0,0,1-6-.57,35.32,35.32,0,0,1-5.9-1.1,69.91,69.91,0,0,1,11.87,1.67Z"/><path class="cls-4" d="M425.42,435.15a33.89,33.89,0,0,1-6,.1,33.41,33.41,0,0,1-6-.43,70.64,70.64,0,0,1,12,.33Z"/><path class="cls-4" d="M449.35,433.82a35.14,35.14,0,0,1-6,.76,33.52,33.52,0,0,1-6,.24,69.17,69.17,0,0,1,12-1Z"/><path class="cls-4" d="M473,429.81a34.9,34.9,0,0,1-5.83,1.43,35.45,35.45,0,0,1-5.93.91,35,35,0,0,1,5.83-1.42A34.63,34.63,0,0,1,473,429.81Z"/><path class="cls-4" d="M496,423.14a33.65,33.65,0,0,1-5.63,2.08,34.38,34.38,0,0,1-5.78,1.58,36.29,36.29,0,0,1,5.63-2.07A35.69,35.69,0,0,1,496,423.14Z"/><path class="cls-4" d="M518.12,413.89a34.29,34.29,0,0,1-5.35,2.71,33.05,33.05,0,0,1-5.57,2.23,35.91,35.91,0,0,1,5.36-2.71A34.94,34.94,0,0,1,518.12,413.89Z"/><path class="cls-4" d="M539,402.17a34.07,34.07,0,0,1-5,3.3,33.62,33.62,0,0,1-5.27,2.86A70.38,70.38,0,0,1,539,402.17Z"/><path class="cls-4" d="M558.46,388.14a35.43,35.43,0,0,1-4.6,3.85,34.34,34.34,0,0,1-4.91,3.44,34.8,34.8,0,0,1,4.59-3.85A35.45,35.45,0,0,1,558.46,388.14Z"/><path class="cls-4" d="M576.14,372a33.68,33.68,0,0,1-4.12,4.35,34.85,34.85,0,0,1-4.49,4,69.68,69.68,0,0,1,8.61-8.34Z"/><path class="cls-4" d="M591.84,353.86a34.67,34.67,0,0,1-3.59,4.81,34.25,34.25,0,0,1-4,4.47,35.91,35.91,0,0,1,3.6-4.8A35.12,35.12,0,0,1,591.84,353.86Z"/><path class="cls-4" d="M605.32,334.05a35.07,35.07,0,0,1-3,5.19,33.73,33.73,0,0,1-3.45,4.91,35.15,35.15,0,0,1,3-5.19A33.73,33.73,0,0,1,605.32,334.05Z"/><path class="cls-4" d="M616.37,312.78a35,35,0,0,1-2.37,5.51,34.62,34.62,0,0,1-2.84,5.29,34,34,0,0,1,2.37-5.52A35.42,35.42,0,0,1,616.37,312.78Z"/><path class="cls-4" d="M624.8,290.34a68.24,68.24,0,0,1-3.88,11.35,35.17,35.17,0,0,1,1.69-5.76A34.45,34.45,0,0,1,624.8,290.34Z"/><path class="cls-4" d="M630.48,267.07a35.89,35.89,0,0,1-1,5.91,34.34,34.34,0,0,1-1.5,5.81,34.53,34.53,0,0,1,1-5.92A32.86,32.86,0,0,1,630.48,267.07Z"/><path class="cls-4" d="M633.32,243.27a35.38,35.38,0,0,1-.27,6,33.79,33.79,0,0,1-.8,6,34.8,34.8,0,0,1,.28-6A33.65,33.65,0,0,1,633.32,243.27Z"/><path class="cls-4" d="M633.32,219.3a35.17,35.17,0,0,1,.44,6,34.44,34.44,0,0,1-.09,6,35.43,35.43,0,0,1-.44-6A34.56,34.56,0,0,1,633.32,219.3Z"/><path class="cls-4" d="M630.47,195.5a33.17,33.17,0,0,1,1.15,5.89,33.91,33.91,0,0,1,.63,6,35.73,35.73,0,0,1-1.14-5.89A35.62,35.62,0,0,1,630.47,195.5Z"/><path class="cls-4" d="M624.8,172.22a35.23,35.23,0,0,1,1.84,5.7,35.48,35.48,0,0,1,1.35,5.85,34.26,34.26,0,0,1-1.85-5.71A34.12,34.12,0,0,1,624.8,172.22Z"/><path class="cls-4" d="M616.36,149.78a34.65,34.65,0,0,1,2.52,5.45,35.56,35.56,0,0,1,2,5.64,33.76,33.76,0,0,1-2.52-5.44A34.71,34.71,0,0,1,616.36,149.78Z"/><path class="cls-4" d="M605.32,128.52a34.89,34.89,0,0,1,3.14,5.11,35,35,0,0,1,2.7,5.36,34.73,34.73,0,0,1-3.15-5.11A33.39,33.39,0,0,1,605.32,128.52Z"/><path class="cls-4" d="M591.83,108.71a33,33,0,0,1,3.73,4.7,34,34,0,0,1,3.31,5,35,35,0,0,1-3.73-4.71A35.66,35.66,0,0,1,591.83,108.71Z"/><path class="cls-4" d="M576.13,90.6a33.47,33.47,0,0,1,4.25,4.23,35.2,35.2,0,0,1,3.87,4.59A34.32,34.32,0,0,1,580,95.19,35.62,35.62,0,0,1,576.13,90.6Z"/><path class="cls-4" d="M558.44,74.43a33.88,33.88,0,0,1,4.71,3.71,34.26,34.26,0,0,1,4.37,4.12,35.72,35.72,0,0,1-4.71-3.72A35.52,35.52,0,0,1,558.44,74.43Z"/><path class="cls-4" d="M539,60.39a34.08,34.08,0,0,1,5.11,3.16,33.87,33.87,0,0,1,4.81,3.58,34.12,34.12,0,0,1-5.1-3.15A35.43,35.43,0,0,1,539,60.39Z"/><path class="cls-4" d="M518.11,48.68a35.09,35.09,0,0,1,5.43,2.54,35.35,35.35,0,0,1,5.19,3,34.15,34.15,0,0,1-5.43-2.54A35,35,0,0,1,518.11,48.68Z"/><path class="cls-4" d="M496,39.43a34,34,0,0,1,5.69,1.91,34.61,34.61,0,0,1,5.5,2.39,34,34,0,0,1-5.69-1.91A35.62,35.62,0,0,1,496,39.43Z"/><path class="cls-4" d="M473,32.76A34.82,34.82,0,0,1,478.84,34a35.82,35.82,0,0,1,5.74,1.75,34.91,34.91,0,0,1-5.87-1.24A34.52,34.52,0,0,1,473,32.76Z"/><path class="cls-4" d="M449.35,28.75a35.35,35.35,0,0,1,6,.58,34.5,34.5,0,0,1,5.9,1.09,34.6,34.6,0,0,1-6-.57A34.92,34.92,0,0,1,449.35,28.75Z"/><path class="cls-4" d="M425.42,27.42a34.32,34.32,0,0,1,6-.09,35.22,35.22,0,0,1,6,.42,33.81,33.81,0,0,1-6,.1A34.82,34.82,0,0,1,425.42,27.42Z"/><path class="cls-4" d="M401.48,28.75a35.14,35.14,0,0,1,5.95-.76,35.92,35.92,0,0,1,6-.24,33.61,33.61,0,0,1-6,.76A33.41,33.41,0,0,1,401.48,28.75Z"/><path class="cls-4" d="M377.84,32.76a35.52,35.52,0,0,1,5.83-1.42,34.92,34.92,0,0,1,5.93-.92,34.08,34.08,0,0,1-5.83,1.43A35.16,35.16,0,0,1,377.84,32.76Z"/><path class="cls-4" d="M354.82,39.43a35.89,35.89,0,0,1,5.63-2.08,34.38,34.38,0,0,1,5.78-1.58,34.54,34.54,0,0,1-5.63,2.08A33.85,33.85,0,0,1,354.82,39.43Z"/><path class="cls-4" d="M332.71,48.69A33.29,33.29,0,0,1,338.06,46a34.77,34.77,0,0,1,5.57-2.24,33.79,33.79,0,0,1-5.36,2.71A36.86,36.86,0,0,1,332.71,48.69Z"/><path class="cls-4" d="M311.8,60.4a34.07,34.07,0,0,1,5-3.3,34,34,0,0,1,5.27-2.85,35.47,35.47,0,0,1-5,3.3A33,33,0,0,1,311.8,60.4Z"/><path class="cls-4" d="M292.37,74.44a35,35,0,0,1,4.6-3.86,36.44,36.44,0,0,1,4.91-3.44A33.53,33.53,0,0,1,297.29,71,35.45,35.45,0,0,1,292.37,74.44Z"/><path class="cls-4" d="M274.69,90.61a34.1,34.1,0,0,1,4.12-4.36,33.39,33.39,0,0,1,4.49-4,34.88,34.88,0,0,1-4.13,4.36A34.76,34.76,0,0,1,274.69,90.61Z"/><path class="cls-4" d="M259,108.71a34.28,34.28,0,0,1,3.59-4.8,34.79,34.79,0,0,1,4-4.48,35.29,35.29,0,0,1-3.59,4.81A35,35,0,0,1,259,108.71Z"/><path class="cls-4" d="M245.51,128.53a34.44,34.44,0,0,1,3-5.2,34.66,34.66,0,0,1,3.44-4.91,34.57,34.57,0,0,1-3,5.19A34.92,34.92,0,0,1,245.51,128.53Z"/><path class="cls-4" d="M234.46,149.8a34.86,34.86,0,0,1,2.37-5.52,34.19,34.19,0,0,1,2.84-5.28,34.56,34.56,0,0,1-2.37,5.51A35.87,35.87,0,0,1,234.46,149.8Z"/><path class="cls-4" d="M226,172.23a34.59,34.59,0,0,1,1.69-5.76,34.71,34.71,0,0,1,2.19-5.58,34.92,34.92,0,0,1-1.69,5.75A34.45,34.45,0,0,1,226,172.23Z"/><path class="cls-4" d="M220.35,195.51a35.92,35.92,0,0,1,1-5.92,35,35,0,0,1,1.5-5.81,34.23,34.23,0,0,1-1,5.92A33.45,33.45,0,0,1,220.35,195.51Z"/><path class="cls-4" d="M217.51,219.31a34.94,34.94,0,0,1,.28-6,33.65,33.65,0,0,1,.79-5.95,34.91,34.91,0,0,1-.28,6A34,34,0,0,1,217.51,219.31Z"/><path class="cls-4" d="M448.29,231.85s0-.42,0-1.24.05-2.05.23-3.64a74.25,74.25,0,0,1,2.54-13.77,75.28,75.28,0,0,1,3.41-9.54A72.88,72.88,0,0,1,460.17,193,77.45,77.45,0,0,1,480.3,171.8,76.56,76.56,0,0,1,513,158.46a77.57,77.57,0,0,1,30.05,1.27A81.57,81.57,0,0,1,553.25,163,76.89,76.89,0,0,1,594,201.12c.89,1.79,1.63,3.65,2.4,5.51s1.39,3.79,1.94,5.74a77.21,77.21,0,0,1,3.16,24.35,82.8,82.8,0,0,1-1.4,12.33,74.73,74.73,0,0,1-3.3,11.78c-.67,1.92-1.5,3.76-2.3,5.61s-1.75,3.62-2.75,5.35a75.61,75.61,0,0,1-6.58,9.87,77,77,0,0,1-36.56,25.61,82.43,82.43,0,0,1-10.35,2.59,77.87,77.87,0,0,1-30.08-.65,74.35,74.35,0,0,1-17.46-6.15,75.75,75.75,0,0,1-14.36-9.25,77.69,77.69,0,0,1-18.73-22.45,73.39,73.39,0,0,1-5-11,74.51,74.51,0,0,1-4.45-23.64c-.08-1.6,0-2.82,0-3.64s0-1.24,0-1.24,0,.42,0,1.24,0,2,.05,3.64a78,78,0,0,0,1.75,13.86,76.29,76.29,0,0,0,2.83,9.7,74.58,74.58,0,0,0,5,10.92,77.25,77.25,0,0,0,18.71,22.31,76.89,76.89,0,0,0,61.58,15.88,81.13,81.13,0,0,0,10.29-2.59,76.45,76.45,0,0,0,36.3-25.46,74.48,74.48,0,0,0,6.54-9.82c1-1.71,1.85-3.51,2.73-5.31s1.62-3.66,2.28-5.57a74.49,74.49,0,0,0,3.28-11.7A81.75,81.75,0,0,0,601,236.71a77,77,0,0,0-3.14-24.19c-.54-1.94-1.24-3.82-1.92-5.7s-1.5-3.7-2.39-5.47a75.05,75.05,0,0,0-5.89-10.21,76.57,76.57,0,0,0-34.6-27.72A79.56,79.56,0,0,0,543,160.19a77.5,77.5,0,0,0-29.88-1.31,76.35,76.35,0,0,0-32.58,13.22,77.38,77.38,0,0,0-20.1,21.07,74,74,0,0,0-5.66,10.59A75.6,75.6,0,0,0,448.67,227c-.19,1.59-.2,2.81-.28,3.63S448.29,231.85,448.29,231.85Z"/><circle class="cls-5" cx="525.84" cy="235.6" r="63.16" transform="translate(-12.58 440.83) rotate(-45)"/><path class="cls-4" d="M462.71,233.59s0-1.39.22-4A62.11,62.11,0,0,1,465,218.19a63.25,63.25,0,0,1,7.48-16.66A64,64,0,0,1,489.1,184a63.23,63.23,0,0,1,43.39-11.42A62.86,62.86,0,0,1,541,174a69.32,69.32,0,0,1,8.4,2.68,63.61,63.61,0,0,1,28.77,23,61.9,61.9,0,0,1,4.91,8.49,59.1,59.1,0,0,1,3.58,9.29,63.35,63.35,0,0,1-1.27,40,58.43,58.43,0,0,1-4.17,9,62.24,62.24,0,0,1-5.44,8.16,63.52,63.52,0,0,1-30.18,21.14A66.12,66.12,0,0,1,537,298a62.41,62.41,0,0,1-8.53.91,63.36,63.36,0,0,1-16.31-1.44,63.16,63.16,0,0,1-26.26-12.73,64.09,64.09,0,0,1-15.47-18.54A63,63,0,0,1,464,249.1a61.73,61.73,0,0,1-1.36-11.48c0-2.64,0-4,0-4s0,.35,0,1,0,1.68,0,3a63.1,63.1,0,0,0,23.34,46.84,62.87,62.87,0,0,0,26.13,12.6,62.88,62.88,0,0,0,16.19,1.4,61.55,61.55,0,0,0,8.47-.91,66.73,66.73,0,0,0,8.49-2.13,63,63,0,0,0,40.72-77.77,58.88,58.88,0,0,0-3.56-9.21A61.42,61.42,0,0,0,577.7,200a63.08,63.08,0,0,0-28.53-22.86,67.09,67.09,0,0,0-8.33-2.67,64.09,64.09,0,0,0-24.65-1.08,62.7,62.7,0,0,0-26.87,10.9A63.12,63.12,0,0,0,463,229.58c-.16,1.31-.17,2.32-.23,3S462.71,233.59,462.71,233.59Z"/><path class="cls-6" d="M505.2,133.93a7.4,7.4,0,0,0-4.67-6,6.92,6.92,0,0,0-7.32,1.76,6.53,6.53,0,0,0-.86,7.42,7.53,7.53,0,0,0,5.43,3.46,12.4,12.4,0,0,0,6.51-1"/><path class="cls-6" d="M519.52,145.78c2.17,4.9,3.57,10.26,3.12,15.6s-2.89,10.67-7.23,13.8a4.1,4.1,0,0,1-2.85,1c-1-.16-1.89-1.34-1.39-2.23a13.18,13.18,0,0,1-3.65,3.9,2.44,2.44,0,0,1-1.64.59,1.83,1.83,0,0,1-1.36-1.91,5.26,5.26,0,0,1,.9-2.38c-1-.09-2,.61-2.9,1.07s-2.3.55-2.82-.35.07-1.81.6-2.58c2.4-3.52,4.84-7.24,5.36-11.48.37-3-.27-6.13.45-9.08a10.38,10.38,0,0,1,7.48-7.45c2.07-.49,4.54-.19,5.86,1.49"/><path class="cls-4" d="M541.32,170.26c2.14-2.74,6.09-3.53,7.82-6.54,3.05-5.29,2.83-10.29,2.82-16.4,0-4.18.59-10.1-1.87-13.49-1.73-2.38-3-3.84-4.5-6.35-1.69-2.76-3.43-6-1.62-8.71"/><path class="cls-6" d="M540.49,170.3a6,6,0,0,1,7.16-.94L544,118.11c2.33-.24,7.66,3,9.15,4.86a21.48,21.48,0,0,1,3.14,6.23c3.36,9,.48,19.62-3.81,27.55h0c2.48,6.89,2.37,13.28-1.84,17.19l-.06.07-.61.56a5.81,5.81,0,0,0-1.78,5v.07a5.45,5.45,0,0,1,.08,1.61,1.51,1.51,0,0,1-.9,1.23c-.83.29-1.66-.48-2-1.28a10,10,0,0,0-1-2.41A30.37,30.37,0,0,0,543,181.6c-.56.91-1.83,1.59-2.68,1a2.49,2.49,0,0,1-.7-1.13,15.87,15.87,0,0,1-1.21-5.75A7.66,7.66,0,0,1,540.49,170.3Z"/><path class="cls-7" d="M513.82,139.25l.23,44.41A13.21,13.21,0,0,0,528,196.78h0a12.8,12.8,0,0,0,12.08-13.2c0-3.34.17-7.29.19-7.63,0,0,11.19-2.15,12-13.34.37-5.41.53-14.51.28-24.65a20.9,20.9,0,0,0-19.75-20.32l-1.08-.06C520,117.61,513.46,127.56,513.82,139.25Z"/><path class="cls-8" d="M540.3,176a26,26,0,0,1-14.37-4.95s3,8.25,14.23,7.86Z"/><path class="cls-6" d="M496.83,154.43c.42-2.13.7-4.28,1-6.44.51-3.74,8.89-17,8.89-17,2.7-5.24,5.86-10.35,10.26-14.22s10.2-6.39,16-5.75,11.28,4.94,12.4,10.75l-.93-1.49c.15,2-2.07,3.53-4.08,3.62s-4-.68-6-.81c-3.92-.24-7.7,2.09-10.06,5.3s-3.47,7.2-4.09,11.15-.79,8-1.5,11.93c-.77,4.22-3.21,5.61-6.49,8.31a63.18,63.18,0,0,0-8.58,8.65,5.51,5.51,0,0,1-4.46,1.75c-1.26-.32-1.55-2.21-1.69-3.53s.83-2.84,1-4.81a4.1,4.1,0,0,1-2-3.33A13.62,13.62,0,0,1,496.83,154.43Z"/><path class="cls-7" d="M515.18,150.11c-.18-.09-7.57-2.7-7.75,5s7.56,6.27,7.58,6S515.18,150.11,515.18,150.11Z"/><path class="cls-8" d="M512.74,158.17s-.14.09-.37.18a1.31,1.31,0,0,1-1,0c-.8-.31-1.45-1.62-1.46-3a4.5,4.5,0,0,1,.42-1.91,1.57,1.57,0,0,1,1-1,.69.69,0,0,1,.78.39c.1.21.05.37.09.38s.16-.12.11-.44a.82.82,0,0,0-.29-.49,1,1,0,0,0-.73-.21,1.87,1.87,0,0,0-1.43,1.15,4.47,4.47,0,0,0-.51,2.13c0,1.55.77,3,1.87,3.36a1.43,1.43,0,0,0,1.23-.18C512.72,158.35,512.76,158.18,512.74,158.17Z"/><path class="cls-9" d="M504.67,134.66a16.07,16.07,0,0,0,4.61-.39,19.36,19.36,0,0,0,4.63-1.92,52.82,52.82,0,0,0,5.17-3.42,53.83,53.83,0,0,1,5.19-3.5,20.1,20.1,0,0,1,4.71-2,11.86,11.86,0,0,1,3.43-.44,6.16,6.16,0,0,1,.93.08c.22,0,.33,0,.32.07a16.89,16.89,0,0,0-4.58.65,21,21,0,0,0-4.57,2.09c-1.64,1-3.34,2.2-5.12,3.51a47,47,0,0,1-5.24,3.42,18.78,18.78,0,0,1-4.78,1.86,11.19,11.19,0,0,1-3.45.26,7.78,7.78,0,0,1-.94-.14C504.77,134.71,504.67,134.68,504.67,134.66Z"/><path class="cls-9" d="M502.69,137.7c0-.09,1.12.29,2.94.55a18.8,18.8,0,0,0,10.8-1.66,17.8,17.8,0,0,0,2.75-1.66c1.47-1.09,2.23-2,2.3-1.89s-.14.25-.48.65a12.09,12.09,0,0,1-1.6,1.54,16.1,16.1,0,0,1-2.76,1.79,18.91,18.91,0,0,1-3.79,1.4,17.44,17.44,0,0,1-7.28.19,12.22,12.22,0,0,1-2.14-.58A2.55,2.55,0,0,1,502.69,137.7Z"/><path class="cls-10" d="M505.48,133.25a29.61,29.61,0,0,1-2.2,3.83,30,30,0,0,1-2.3,3.77,13.73,13.73,0,0,1,1.86-4A14.08,14.08,0,0,1,505.48,133.25Z"/><path class="cls-9" d="M557.93,135.12A6.16,6.16,0,0,1,551.7,133a29.49,29.49,0,0,0,3,1.5A32.22,32.22,0,0,0,557.93,135.12Z"/><path class="cls-9" d="M557.76,138.69a3.54,3.54,0,0,1-2.57.72,3.59,3.59,0,0,1-2.54-.82c.06-.14,1.15.28,2.55.3S557.7,138.55,557.76,138.69Z"/><path class="cls-7" d="M573.43,238.21l-19,15.36.81,5.29L559.28,271s5,.64,11.46-7.34S585,240.33,585,240.33Z"/><path class="cls-6" d="M609.59,202.65a1.91,1.91,0,0,0-1.59-1l-11.28-.48a3.53,3.53,0,0,0-2.63,1.1l-29.21,31,1.58,1.3,12.24,1.81,31.16-33.27Z"/><path class="cls-11" d="M601,205.81a.8.8,0,0,0,1.2-.95.79.79,0,0,0-1.2.95Z"/><path class="cls-12" d="M609.86,203.15a15.8,15.8,0,0,1-2.21,0l-6-.15-4.14-.13a2.29,2.29,0,0,0-1.88.69L594,205.38l-7.46,7.94c-5.31,5.63-10.15,10.7-13.67,14.34l-4.2,4.29a12.62,12.62,0,0,1-1.6,1.51,13.38,13.38,0,0,1,1.41-1.69l4-4.44c3.44-3.72,8.22-8.84,13.53-14.47l7.5-7.91,1.7-1.77a2.86,2.86,0,0,1,2.31-.84l4.15.22,6,.36A12.84,12.84,0,0,1,609.86,203.15Z"/><path class="cls-7" d="M595.38,213.5s-1-.35-2,2.24-4.14,10-4.14,10l-4.65-3.66-6.58-.32s-1.64,1-.74,1.93,4.84,2.35,4.84,2.35l2.22,4.86-7.86-5.71s-3,.23-2.48,2.14,5.34,8.43,5.34,8.43l-4.26-1.1-4.56-4s-1.59-.21-1.24,1.23,4.8,7.25,4.8,7.25l5.9,4.31s3.58.36,4.11-.62a12.33,12.33,0,0,0,.87-2.43s2-.17,2.48-1A5.61,5.61,0,0,0,588,237s2.85,1,3.51-.53a18.94,18.94,0,0,0,.87-6.17c-.07-1.32,3.6-12.76,3.54-13.13S597.36,213.06,595.38,213.5Z"/><path class="cls-8" d="M584.32,242.82a3.64,3.64,0,0,1-1.78.22,11.7,11.7,0,0,1-7.81-3.41c-.77-.81-1.11-1.41-1-1.46s1.88,2,4.89,3.29S584.32,242.61,584.32,242.82Z"/><path class="cls-8" d="M583.21,240.22c-.13.13-1.17-.67-2.21-1.9s-1.68-2.38-1.53-2.48,1,.85,2,2S583.34,240.09,583.21,240.22Z"/><path class="cls-8" d="M587.61,235.26c-.12.13-1.15-.66-2.11-1.93s-1.43-2.48-1.27-2.56.89.93,1.81,2.15S587.75,235.12,587.61,235.26Z"/><path class="cls-8" d="M592,231.41c-.18,0-.62-1.29-1.4-2.8s-1.61-2.63-1.47-2.76,1.24.85,2.07,2.46S592.18,231.38,592,231.41Z"/><path class="cls-13" d="M563.41,279.34c-4.34-6.45-8.22-20.48-8.22-20.48S553.5,246,551.4,241.22s-1.53-6.75-1.53-6.75,1.77-12.75.59-19.16-4.16-21.22-9.42-27.56l-27.67-8.62s-15,7.11-16.35,8.7-11,9.57-11.2,21.22c-.14,7.28,5.3,33.74,5.3,33.74l6,49.67s20,9.32,39.19,5.34,30.21-13.72,30.21-13.72Z"/><path class="cls-4" d="M555.4,258.87a3.25,3.25,0,0,0,0-.69c-.05-.45-.13-1.12-.26-2-.26-1.7-.65-4.17-1.31-7.18a84.76,84.76,0,0,0-3.07-10.43,13.46,13.46,0,0,1-.78-6.17c.16-2.19.61-4.44.8-6.8a62.68,62.68,0,0,0-2.83-23.83,59.42,59.42,0,0,0-2.67-6.84c-.36-.8-.69-1.39-.89-1.8a3.17,3.17,0,0,0-.36-.6,4.6,4.6,0,0,0,.25.65c.17.42.47,1,.79,1.83a72.11,72.11,0,0,1,2.48,6.87,64.94,64.94,0,0,1,2.65,23.68c-.19,2.31-.64,4.57-.79,6.8a13.86,13.86,0,0,0,.84,6.38,89.76,89.76,0,0,1,3.17,10.34c.72,3,1.17,5.44,1.49,7.14.15.79.28,1.44.37,1.94A3,3,0,0,0,555.4,258.87Z"/><path class="cls-6" d="M546.81,209.65a64,64,0,0,1,.74,21.07,53.27,53.27,0,0,0-13,3.59q-.27-10.8-.55-21.61a1.25,1.25,0,0,1,1.29-1.64L547,209.69"/><g class="cls-14"><path d="M552.22,245.51q-28.1,8.27-55.29,19.27L496,281.32c.84,2.41,3.52,3.79,6.06,3.87a17.36,17.36,0,0,0,7.34-1.9,124.41,124.41,0,0,0,37-24.82C550,255,553.58,250.31,552.22,245.51Z"/></g><path class="cls-13" d="M504.3,188.88a7.11,7.11,0,0,0-9.48.21c-4.91,4.6-12.07,12.36-12.48,18.83-.64,9.9-3.07,36.06-3.07,36.06l36.48-.12s1.11-34.84-1.83-42.94C512.26,196.35,507.83,191.89,504.3,188.88Z"/><path class="cls-7" d="M483.63,244.38s.21,20.16,3.55,29c3.45,9.19,8.12,8.52,12.1,8.35s62.52-39.88,62.52-39.88l-8.3-11.48-45.27,19.45-.37-5.62Z"/><path class="cls-7" d="M553.15,230.82l9.63-15.35,9.88-3.51,12.52,0a2.54,2.54,0,0,1-1.16,3l4.35-.25a2.48,2.48,0,0,1-1.24,3.4l3.16.19a4.47,4.47,0,0,1-4.54,3.1,68.63,68.63,0,0,0-9.22.42l-5.68,4,9-1.4,6.69.49s1.06,1.58-.38,2.15-7.17.82-7.17.82l-8.4,3.24s-1.22,5.77-2.19,7.13-7,3.68-7,3.68Z"/><path class="cls-8" d="M588.37,214.68a15.87,15.87,0,0,1-3.37.26c-2.09.08-5,.13-8.16.15h-3.06l.13,0c-2.27.93-4.24,1.71-5.65,2.24a9.89,9.89,0,0,1-2.3.73,10.31,10.31,0,0,1,2.14-1.11c1.37-.64,3.31-1.49,5.56-2.46l.05,0h.07l3.06,0c3.18,0,6.07,0,8.15.05A17.8,17.8,0,0,1,588.37,214.68Z"/><path class="cls-8" d="M589.53,218.23a14.08,14.08,0,0,1-3.07.14c-1.89,0-4.51-.05-7.4-.14l-2.87-.11.16,0c-3.88,2-6.76,3.45-6.83,3.31a54,54,0,0,1,6.52-3.88l.08-.05h.09l2.87.08c2.89.09,5.51.21,7.4.33A13.71,13.71,0,0,1,589.53,218.23Z"/><path class="cls-8" d="M561.41,241.93a8.12,8.12,0,0,1,1-.45c.63-.28,1.57-.69,2.75-1.28.59-.3,1.24-.63,1.92-1.06a6.22,6.22,0,0,0,1-.73,3,3,0,0,0,.65-1.11,45.89,45.89,0,0,0,1.69-6.23l0-.11.11-.05,8.38-3.28H579c1.48-.08,3-.18,4.67-.37a13.17,13.17,0,0,0,2.38-.44.79.79,0,0,0,.59-.68,2,2,0,0,0-.32-1l.22.13-6.69-.47h.07l-9,1.42-1.37.21,1.13-.8,5.68-4,.07-.05h.08c2.3-.24,4.72-.44,7.19-.47.69,0,1.37,0,2.05,0a4.47,4.47,0,0,0,1.83-.25,4.36,4.36,0,0,0,2.41-2.6l.3.43-3.16-.2-1.16-.07,1-.55a2.52,2.52,0,0,0,1.21-1.27,2.18,2.18,0,0,0-.11-1.68l.31.17-4.35.24-1.19.07,1-.66a2.56,2.56,0,0,0,1-1.16,2.25,2.25,0,0,0,0-1.47l.29.2H572.75l-9.89,3.46.12-.1c-3,4.71-5.43,8.51-7.15,11.19l-2,3-.52.78a1.31,1.31,0,0,1-.2.25,1.08,1.08,0,0,1,.14-.29l.47-.81,1.86-3.07,7-11.31,0-.06.08,0,9.85-3.55h.1l12.52-.08h.22l.07.2a2.84,2.84,0,0,1,0,1.93,3.21,3.21,0,0,1-1.25,1.47l-.19-.59,4.36-.25h.22l.08.18a2.86,2.86,0,0,1,.15,2.22,3.13,3.13,0,0,1-1.52,1.62l-.14-.62,3.16.19.44,0-.14.4a4.71,4.71,0,0,1-4.92,3.33c-.66,0-1.33,0-2,0-2.44,0-4.86.23-7.12.47l.16-.06-5.69,4-.24-.59,9-1.39h.07l6.69.51h.16l.07.12a2.39,2.39,0,0,1,.41,1.42,1.39,1.39,0,0,1-1,1.17,12.66,12.66,0,0,1-2.53.46c-1.64.18-3.21.27-4.71.34l.08,0-8.41,3.2.13-.16a42.57,42.57,0,0,1-1.79,6.27,3.52,3.52,0,0,1-.75,1.21,6.51,6.51,0,0,1-1.07.75,20.9,20.9,0,0,1-2,1c-1.2.56-2.15.94-2.8,1.18l-.74.27A.68.68,0,0,1,561.41,241.93Z"/><path class="cls-4" d="M478.64,244a2.45,2.45,0,0,1,.61-.06l1.77-.06,6.61-.1,22.62-.14-.32.3c.18-3.16.23-6.54.17-10-.11-5.74-.43-11.22-.6-16.2-.09-2.5-.08-4.87-.22-7.07a41.28,41.28,0,0,0-.74-6.08,22.92,22.92,0,0,0-3.27-8.17c-1.17-1.74-2.06-2.52-2-2.57a4.15,4.15,0,0,1,.64.56,14.22,14.22,0,0,1,1.58,1.86,22.08,22.08,0,0,1,3.52,8.22,40.3,40.3,0,0,1,.84,6.14c.16,2.23.17,4.6.28,7.08.2,5,.54,10.45.65,16.22.07,3.49,0,6.89-.19,10.07l0,.31h-.31l-22.62-.09-6.61-.09-1.77,0A2.45,2.45,0,0,1,478.64,244Z"/><path class="cls-4" d="M330.66,77.29s.92-1.21,2.79-3.4a81.57,81.57,0,0,1,9-8.83,78.49,78.49,0,0,1,16.74-10.8,71.49,71.49,0,0,1,25.41-6.89A65.72,65.72,0,0,1,400,48a60.11,60.11,0,0,1,15.89,5A57.76,57.76,0,0,1,442,78.14c6.11,11.48,8.54,25.53,6.77,39.54A81.64,81.64,0,0,1,397,183c-13.24,4.93-27.47,5.77-40.05,2.45a57.83,57.83,0,0,1-30.47-19.67A59.93,59.93,0,0,1,318,151.43a65.74,65.74,0,0,1-4.13-14.8,71.65,71.65,0,0,1,.9-26.31,78.37,78.37,0,0,1,6.69-18.77A82.65,82.65,0,0,1,328,80.78c1.7-2.32,2.67-3.49,2.67-3.49l-.65.91c-.43.6-1.12,1.45-1.94,2.64a84.92,84.92,0,0,0-6.44,10.81,78.15,78.15,0,0,0-6.58,18.73,71.14,71.14,0,0,0-.82,26.19,65.27,65.27,0,0,0,4.13,14.71,59.78,59.78,0,0,0,8.44,14.22A57.42,57.42,0,0,0,357.05,185c12.48,3.28,26.61,2.43,39.76-2.47a81.26,81.26,0,0,0,51.41-64.89c1.76-13.92-.65-27.86-6.69-39.26a57.47,57.47,0,0,0-25.87-25,59.61,59.61,0,0,0-15.78-5,66,66,0,0,0-15.26-.66,71.12,71.12,0,0,0-25.31,6.79,78.25,78.25,0,0,0-16.74,10.69A84.19,84.19,0,0,0,333.52,74c-1,1.07-1.64,1.93-2.13,2.49Z"/><ellipse class="cls-11" cx="378.78" cy="112.67" rx="60.61" ry="53.34" transform="translate(55.24 339.58) rotate(-51.61)"/><path class="cls-4" d="M337,79.54s.76-1,2.3-2.82a67.64,67.64,0,0,1,7.45-7.32,64.53,64.53,0,0,1,13.87-9,59.16,59.16,0,0,1,21.05-5.72,55.07,55.07,0,0,1,12.73.52,49.9,49.9,0,0,1,13.17,4.12,47.93,47.93,0,0,1,21.65,20.86A55.62,55.62,0,0,1,434.81,113a67.67,67.67,0,0,1-42.89,54.12,55.46,55.46,0,0,1-33.2,2,48,48,0,0,1-25.25-16.3,49.53,49.53,0,0,1-7-11.89A54.56,54.56,0,0,1,323,128.7a59.34,59.34,0,0,1,.75-21.81,64.86,64.86,0,0,1,5.55-15.54,67.87,67.87,0,0,1,5.42-8.92c1.42-1.92,2.22-2.89,2.22-2.89s-.17.26-.54.76-.92,1.21-1.59,2.19a69.68,69.68,0,0,0-5.33,9A64.82,64.82,0,0,0,324.07,107a59.19,59.19,0,0,0-.68,21.68,54,54,0,0,0,3.43,12.17,49.47,49.47,0,0,0,7,11.77,47.53,47.53,0,0,0,25,16.12,55.11,55.11,0,0,0,32.9-2,67.23,67.23,0,0,0,42.56-53.71,55,55,0,0,0-5.54-32.49,47.57,47.57,0,0,0-21.4-20.69,49.63,49.63,0,0,0-13.06-4.11,54.26,54.26,0,0,0-12.63-.55,59.11,59.11,0,0,0-21,5.61,64.83,64.83,0,0,0-13.86,8.85,71,71,0,0,0-7.5,7.23c-.8.88-1.36,1.6-1.77,2.06S337,79.54,337,79.54Z"/><path class="cls-12" d="M343.21,10.44a5.84,5.84,0,0,0-10.47.91,10,10,0,0,1-1,2.57c-1.49,2-5.19,1.43-6.39,3.64s1.67,5.16,1,7.74c-.57,2.05-3.22,3-3.82,5-.8,2.72,2.47,5.4,1.69,8.12-.68,2.34-4,3.21-4.5,5.59-.57,2.63,2.66,4.76,2.61,7.45-.07,3.45-5.32,5.34-4.84,8.75.27,1.88,2.28,3.14,2.61,5,.63,3.52-4.82,6-4.17,9.49.31,1.65,1.87,2.71,3.22,3.71s2.75,2.44,2.48,4.1-2.2,2.65-3.24,4.07c-1.61,2.18,1,7.83,3.42,8.92l10.3-7.69s-2.95-2.46-.64-4.72.82-3.28.73-5c0,0,2.3,1.94,1.46,4a5,5,0,0,0,.53,4.8l15.71-7.05L351.54,65Z"/><path class="cls-4" d="M320.29,79.83a3.83,3.83,0,0,1-1,0,6.35,6.35,0,0,1-5.88-7.13,8.83,8.83,0,0,1,1.06-3c.51-1,1.15-2,1.63-3.07a6.28,6.28,0,0,0,.6-3.58c-.22-1.26-1.18-2.27-1.94-3.45a3.55,3.55,0,0,1-.68-2.08,2.59,2.59,0,0,1,1.16-1.93,16.5,16.5,0,0,1,2-1.08,3.86,3.86,0,0,0,1.64-1.39A2.72,2.72,0,0,0,319,51,7,7,0,0,0,318,49c-.45-.64-1-1.27-1.42-2a5.46,5.46,0,0,1-.93-2.35,3.43,3.43,0,0,1,.78-2.45,9.73,9.73,0,0,1,1.94-1.69,13,13,0,0,0,1.93-1.57,3.17,3.17,0,0,0,.93-2.1,5,5,0,0,0-.66-2.24c-.36-.71-.8-1.4-1.15-2.13a4.4,4.4,0,0,1-.53-2.39,3.38,3.38,0,0,1,.36-1.18,5.34,5.34,0,0,1,.74-1c1.09-1.12,2.48-1.87,3.07-3.17a3.61,3.61,0,0,0,.25-2,10.87,10.87,0,0,0-.51-2,8.88,8.88,0,0,1-.76-4,3,3,0,0,1,.84-1.8,3.78,3.78,0,0,1,1.65-.95c1.2-.36,2.37-.41,3.44-.66a3.93,3.93,0,0,0,2.55-1.57c.55-.81.85-1.73,1.38-2.46a5.8,5.8,0,0,1,6.7-1.93,3.66,3.66,0,0,1,.67.34l.21.14s-.29-.18-.91-.41a5.69,5.69,0,0,0-2.78-.25,5.47,5.47,0,0,0-3.71,2.23c-.51.71-.79,1.62-1.36,2.48A4.13,4.13,0,0,1,328,13.56c-1.09.27-2.27.33-3.41.68a3.58,3.58,0,0,0-1.52.88,2.84,2.84,0,0,0-.75,1.63,8.85,8.85,0,0,0,.77,3.86,11,11,0,0,1,.54,2.08,4,4,0,0,1-.27,2.23c-.67,1.45-2.11,2.2-3.14,3.28a4.76,4.76,0,0,0-.67.88,2.87,2.87,0,0,0-.32,1,4.08,4.08,0,0,0,.5,2.18c.34.71.78,1.39,1.15,2.12a5.33,5.33,0,0,1,.71,2.43,3.61,3.61,0,0,1-1,2.36,13.88,13.88,0,0,1-2,1.61,10.07,10.07,0,0,0-1.86,1.62,3,3,0,0,0-.69,2.17,5.07,5.07,0,0,0,.86,2.18c.43.68.94,1.29,1.41,2a7.38,7.38,0,0,1,1.07,2.18,3.09,3.09,0,0,1-.19,2.4,4.15,4.15,0,0,1-1.78,1.53,17.72,17.72,0,0,0-1.94,1,2.2,2.2,0,0,0-1,1.66,3.18,3.18,0,0,0,.62,1.88c.72,1.14,1.73,2.19,2,3.57a6.61,6.61,0,0,1-.65,3.76c-.5,1.12-1.15,2.1-1.66,3.07a8.8,8.8,0,0,0-1.06,2.93,6.21,6.21,0,0,0,.26,2.74,6.06,6.06,0,0,0,2.72,3.41,6.61,6.61,0,0,0,2.67.87C320,79.85,320.29,79.81,320.29,79.83Z"/><path class="cls-9" d="M320.77,91.1a.75.75,0,0,1-.21-.15,1.11,1.11,0,0,1-.32-.68,1.9,1.9,0,0,1,.28-1.2,2.31,2.31,0,0,1,1.34-1c.61-.22,1.31-.3,2.05-.48a3,3,0,0,0,2-1.27,1.48,1.48,0,0,0,.08-1.24,5.72,5.72,0,0,0-.75-1.23,3.18,3.18,0,0,1-.65-1.47,2.77,2.77,0,0,1,.41-1.65c.27-.5.61-1,.91-1.47a3,3,0,0,0,.53-1.61,2.42,2.42,0,0,0-.75-1.55c-.42-.47-.92-.87-1.38-1.38a2.29,2.29,0,0,1-.69-2,1.79,1.79,0,0,1,.51-1,3.66,3.66,0,0,1,.9-.63c.65-.32,1.33-.55,2-.84a3.92,3.92,0,0,0,1.7-1.2,2.43,2.43,0,0,0,.3-2,14.13,14.13,0,0,0-.79-2.13,8.74,8.74,0,0,1-.72-2.29,4.66,4.66,0,0,1,.4-2.44c.64-1.52,1.75-2.82,2.08-4.4a3.66,3.66,0,0,0-.31-2.34,23.37,23.37,0,0,0-1.26-2.2,5.38,5.38,0,0,1-.89-2.47,3.8,3.8,0,0,1,.88-2.44c.51-.69,1.11-1.27,1.62-1.9a4,4,0,0,0,1-2.06,3.63,3.63,0,0,0-.55-2.18c-.37-.68-.83-1.32-1.21-2a4.34,4.34,0,0,1-.67-2.28,4.56,4.56,0,0,1,.79-2.18c.39-.64.82-1.23,1.13-1.86a2.91,2.91,0,0,0,.29-2c-.29-1.32-1.32-2.38-1.57-3.77a2.64,2.64,0,0,1,.43-2,9.19,9.19,0,0,1,1.28-1.41,6.49,6.49,0,0,0,1.14-1.34,3.29,3.29,0,0,0,.43-1.58c0-1.1-.21-2.17-.14-3.2a6,6,0,0,1,.87-2.75,5.67,5.67,0,0,1,3.68-2.64,5.92,5.92,0,0,1,2.89.08,3.85,3.85,0,0,1,.93.38s-.32-.14-1-.3a6,6,0,0,0-2.84,0A5.6,5.6,0,0,0,333.42,14a5.74,5.74,0,0,0-.82,2.65c-.05,1,.2,2.05.17,3.2a3.71,3.71,0,0,1-.45,1.72,6.85,6.85,0,0,1-1.18,1.4,9.41,9.41,0,0,0-1.23,1.37,2.28,2.28,0,0,0-.37,1.74c.21,1.25,1.25,2.3,1.59,3.75a3.28,3.28,0,0,1-.32,2.19c-.32.67-.76,1.27-1.14,1.9a4.16,4.16,0,0,0-.73,2,4,4,0,0,0,.63,2.08c.37.67.83,1.31,1.22,2a4.06,4.06,0,0,1,.6,2.4,4.46,4.46,0,0,1-1.11,2.27c-.53.64-1.13,1.22-1.61,1.88a3.41,3.41,0,0,0-.8,2.2,4.94,4.94,0,0,0,.83,2.28A21.31,21.31,0,0,1,330,53.33a4.07,4.07,0,0,1,.34,2.57c-.38,1.72-1.5,3-2.11,4.48a4.28,4.28,0,0,0-.38,2.24,8.2,8.2,0,0,0,.69,2.19,13.14,13.14,0,0,1,.8,2.2,2.79,2.79,0,0,1-.36,2.3,4.24,4.24,0,0,1-1.85,1.31c-.67.3-1.35.52-2,.83a2,2,0,0,0-1.24,1.37,1.91,1.91,0,0,0,.61,1.68c.42.49.93.9,1.36,1.39a2.72,2.72,0,0,1,.82,1.76,3.39,3.39,0,0,1-.58,1.76c-.31.51-.65,1-.92,1.46a2.52,2.52,0,0,0-.39,1.48,3,3,0,0,0,.59,1.36,6,6,0,0,1,.76,1.29,1.7,1.7,0,0,1-.1,1.43A3.22,3.22,0,0,1,324,87.77c-.76.17-1.45.24-2,.44a2.27,2.27,0,0,0-1.3.92,1.84,1.84,0,0,0-.29,1.13A1.2,1.2,0,0,0,320.77,91.1Z"/><path class="cls-10" d="M339.19,158.54C343.86,163.57,359,169,359,169l-6.81-11.37-8.45-38.18-5.58-35.9c-.46.57-14,9.19-16,14.74s1.43,31.19,2,35.11A49,49,0,0,0,339.19,158.54Z"/><path class="cls-10" d="M346.36,71.2l-1.06,6.67-10,8a114.46,114.46,0,0,0-.11,30.38s14.63,39.65,15,41.38C350.83,160.86,359,169,359,169s11.13,3.9,28.18-.59c15.94-4.2,28.19-17.42,29.94-19s6.91-8.81,6.91-8.81l-19.32-39.48L404,74.29l-20.37-5.23-6.92-5.35Z"/><path class="cls-10" d="M403.65,74.32S414.93,78.24,417.88,85s13,35.32,13.23,41.21c0,.78-4.08,12.89-7.38,14.88-4.38,2.64-11-3.36-11-3.36l-4.6-7.47.25-7.82-5.21-20.81Z"/><path class="cls-15" d="M346.8,74.47S370.1,103,370.1,103l3.16-26.4,4.41-13-30.33,7.5Z"/><path class="cls-4" d="M370,103.91s-.09-.08-.23-.25l-.59-.77c-.52-.67-1.28-1.65-2.28-2.87a94.29,94.29,0,0,0-8.8-9.36l.34-.14c-.09,3.86-.19,8.2-.3,12.77,0,.4,0,.8,0,1.18l0,.9-.4-.81c-3.57-7.35-6.79-14-9.13-18.77l-2.71-5.67-.71-1.55a5,5,0,0,1-.23-.55,2.27,2.27,0,0,1,.3.51L346,80l2.83,5.61c2.38,4.81,5.63,11.39,9.26,18.71l-.42.1c0-.38,0-.78,0-1.18.12-4.57.24-8.91.34-12.77v-.45l.32.31a85.81,85.81,0,0,1,8.72,9.5c1,1.24,1.7,2.25,2.19,2.95l.55.8A1.12,1.12,0,0,1,370,103.91Z"/><path class="cls-4" d="M403.16,124.52c.09.08-6.72,7.36-15.19,16.25s-15.42,16-15.51,16,6.72-7.36,15.19-16.26S403.07,124.44,403.16,124.52Z"/><path class="cls-4" d="M390.51,161.2a20.17,20.17,0,0,1-.65-2.64c-.38-1.63-1-3.88-1.75-6.31s-1.64-4.59-2.3-6.13a22.08,22.08,0,0,1-1-2.52A13.11,13.11,0,0,1,386.1,146a51.43,51.43,0,0,1,4.06,12.51A14.51,14.51,0,0,1,390.51,161.2Z"/><path class="cls-4" d="M333.41,114.87a49.37,49.37,0,0,1-5.67-3.57,51.14,51.14,0,0,1-5.42-3.93,52.21,52.21,0,0,1,5.67,3.57A52.46,52.46,0,0,1,333.41,114.87Z"/><path class="cls-4" d="M423.73,142.64a1.16,1.16,0,0,1-.3,0h-.86a7.34,7.34,0,0,1-1.39-.11,10.91,10.91,0,0,1-1.84-.41,12.13,12.13,0,0,1-4.35-2.52,15.12,15.12,0,0,1-3.73-5.26h0v0c-.79-3.2-1.67-6.76-2.59-10.51-1.73-7.13-3.29-13.59-4.43-18.33-.54-2.31-1-4.19-1.29-5.56-.14-.62-.25-1.13-.33-1.52a3.36,3.36,0,0,1-.09-.54,2,2,0,0,1,.17.52c.11.39.25.88.41,1.5.36,1.36.84,3.23,1.43,5.53,1.18,4.73,2.78,11.18,4.55,18.3.91,3.75,1.78,7.31,2.56,10.52v0a14.85,14.85,0,0,0,3.59,5.15,12.3,12.3,0,0,0,4.19,2.54A17.31,17.31,0,0,0,423.73,142.64Z"/><path class="cls-4" d="M341.33,143.16a16.53,16.53,0,0,1-1.66.37,11.45,11.45,0,0,0-3.69,1.65,11.8,11.8,0,0,0-2.89,2.83,14.22,14.22,0,0,1-.95,1.42,4,4,0,0,1,.69-1.59,10,10,0,0,1,2.9-3,10.18,10.18,0,0,1,3.87-1.6A4.1,4.1,0,0,1,341.33,143.16Z"/><path class="cls-4" d="M341.48,142.2a12.5,12.5,0,0,1-4,1.5,12.29,12.29,0,0,1-4.2.52c0-.12,1.85-.38,4.1-.94S341.43,142.08,341.48,142.2Z"/><path class="cls-4" d="M385.69,141.94a1.54,1.54,0,0,1-.23-.35l-.59-1c-.5-.9-1.21-2.23-2.05-3.87-1.68-3.29-3.88-7.91-6.05-13.12s-3.89-10-5-13.55c-.57-1.75-1-3.18-1.3-4.18-.12-.46-.23-.84-.31-1.15s-.1-.4-.08-.41a1.85,1.85,0,0,1,.16.39l.4,1.12,1.42,4.13c1.22,3.49,3,8.28,5.14,13.48s4.32,9.83,5.93,13.15l1.92,3.93.52,1.07C385.65,141.8,385.71,141.93,385.69,141.94Z"/><g class="cls-14"><path d="M372.68,156.25c12.24-6.67,23.15-17.41,29.07-30Z"/></g><g class="cls-14"><path d="M332.14,149.43c2.39-5.15,7.11-6.56,11.69-6.5a1.09,1.09,0,0,0-.79-1.24,3,3,0,0,0-1.61,0,17.91,17.91,0,0,0-6.32,2.17,6.31,6.31,0,0,0-2.9,5.39"/></g><g class="cls-14"><path d="M345,78.16a116.15,116.15,0,0,0,14.36,32.19A18.58,18.58,0,0,0,362.23,98a14.33,14.33,0,0,0,7,4.9,67.67,67.67,0,0,0-10.84-12.25s-.36,14.32-.35,14c-4.42-8.87-8.7-17.6-13-26.45"/></g><path class="cls-4" d="M359.41,166a2,2,0,0,1-.21-.44c-.13-.36-.3-.79-.5-1.32-.42-1.15-1.07-2.79-1.88-4.82-1.63-4.05-4.09-9.56-6.95-15.58s-5.39-11.52-7-15.59c-.82-2-1.45-3.69-1.84-4.85-.17-.53-.32-1-.44-1.33a1.5,1.5,0,0,1-.12-.48s.09.14.22.44l.53,1.3c.45,1.14,1.13,2.77,2,4.78,1.71,4,4.29,9.47,7.14,15.51s5.28,11.57,6.82,15.67c.77,2,1.37,3.72,1.73,4.89l.41,1.34A1.61,1.61,0,0,1,359.41,166Z"/><path class="cls-11" d="M342.47,126.92c0,.09-1.09-.23-2.85-.52A25.92,25.92,0,0,0,326,127.84c-1.66.65-2.64,1.18-2.68,1.11s.21-.2.64-.46a13.7,13.7,0,0,1,1.9-1A22.67,22.67,0,0,1,339.68,126a15.21,15.21,0,0,1,2.07.57A2.61,2.61,0,0,1,342.47,126.92Z"/><path class="cls-11" d="M351.36,147.25a27.58,27.58,0,0,0-15.76,7.69,8.44,8.44,0,0,1,1.75-2,22.28,22.28,0,0,1,5.27-3.61,22,22,0,0,1,6.09-1.93A8.78,8.78,0,0,1,351.36,147.25Z"/><path class="cls-11" d="M375.34,121.41c.07.13-6.23,3.49-14.06,7.51s-14.23,7.17-14.3,7,6.23-3.49,14.06-7.51S375.28,121.28,375.34,121.41Z"/><path class="cls-11" d="M404.19,106.1c0,.14-6.77,2.12-15.21,4.41s-15.32,4-15.36,3.9,6.77-2.11,15.22-4.4S404.16,106,404.19,106.1Z"/><path class="cls-11" d="M431.32,125.35s-.22.24-.67.58a14,14,0,0,1-2,1.26,19,19,0,0,1-3.3,1.37,23.07,23.07,0,0,1-4.29.87,23.38,23.38,0,0,1-4.37-.05,20,20,0,0,1-3.5-.73,14.37,14.37,0,0,1-2.24-.86,3.49,3.49,0,0,1-.77-.44c0-.09,1.18.44,3.11.94a22.77,22.77,0,0,0,3.45.61,24.28,24.28,0,0,0,4.27,0,23.89,23.89,0,0,0,4.2-.81,21.85,21.85,0,0,0,3.28-1.24C430.25,126,431.27,125.28,431.32,125.35Z"/><path class="cls-11" d="M416,140.51a5,5,0,0,1-.83.83c-.55.51-1.38,1.21-2.44,2a59.37,59.37,0,0,1-18.54,9.73c-1.28.4-2.33.69-3.07.85a5.24,5.24,0,0,1-1.15.21,4.62,4.62,0,0,1,1.1-.41c.71-.22,1.74-.56,3-1a71.59,71.59,0,0,0,9.57-4.15,72.71,72.71,0,0,0,8.86-5.52c1.08-.79,1.94-1.44,2.53-1.9A6.32,6.32,0,0,1,416,140.51Z"/><path class="cls-11" d="M388.51,158.28a4.87,4.87,0,0,1-1.05.6c-.69.36-1.7.84-3,1.39a69.36,69.36,0,0,1-20.94,5.32c-1.38.12-2.5.18-3.27.19a4.75,4.75,0,0,1-1.21,0,6.49,6.49,0,0,1,1.2-.17c.76-.07,1.88-.19,3.25-.36a85.11,85.11,0,0,0,10.58-2,86.11,86.11,0,0,0,10.25-3.31c1.28-.5,2.31-.93,3-1.23A5.47,5.47,0,0,1,388.51,158.28Z"/><path class="cls-11" d="M350,97.89a32.09,32.09,0,0,1-3.1,1.91c-1.94,1.14-4.61,2.72-7.53,4.51s-5.54,3.47-7.43,4.69a27.81,27.81,0,0,1-3.1,1.9,3.63,3.63,0,0,1,.74-.64c.5-.38,1.24-.92,2.16-1.57,1.84-1.29,4.43-3,7.35-4.82s5.64-3.33,7.63-4.39c1-.53,1.8-1,2.37-1.22A3.12,3.12,0,0,1,350,97.89Z"/><path class="cls-11" d="M351.88,83.61a5.14,5.14,0,0,1-.55,2.2,5.23,5.23,0,0,1-1,2,5,5,0,0,1,.54-2.19C351.28,84.46,351.74,83.56,351.88,83.61Z"/><path class="cls-11" d="M399.32,82.18c0,.14-6,2.1-13.53,4.38s-13.64,4-13.68,3.87,6-2.09,13.53-4.37S399.28,82.05,399.32,82.18Z"/><g class="cls-14"><path d="M342.27,127.1l17.54,39.54A58.26,58.26,0,0,0,342.27,127.1Z"/></g><path class="cls-15" d="M367.12,17.51l-23.37-4.23c-7.42-.27-11.69,9.12-11.64,16.54,0,8.24.42,18.29,1.81,24.35,2.8,12.17,12.34,13.09,12.34,13.09s.54,7.21.54,7.21l24.3.39.19-53.22A4.34,4.34,0,0,0,367.12,17.51Z"/><path class="cls-16" d="M346.23,67.26a31.36,31.36,0,0,0,16.19-5.53s-3.58,8.75-16,8.44Z"/><path class="cls-12" d="M340.74,13.06C340,14.59,343,17.4,344.6,18s3.67.25,4.54,1.71c1,1.65-1,4.31,2.32,6.11,1.05.56,2.6-.62,3.48.18,1.09,1-.33,2.73-.29,4.21.09,2.87,5.33,3.1,5.68,5.95.21,1.8-1.79,3.51-1.09,5.17s3.57,1.56,4.28,3.26c.92,2.19-2.78,4.08-2.32,6.41s4.31,2.3,5.08,4.52c.66,1.89-1.47,4-.74,5.83.82,2.14,4.44,1.83,5.4,3.9,1.17,2.51-2.8,5.4-1.45,7.81.45.81,1.48,1.09,2.09,1.79,2,2.26,1.78,7.18-.24,9.14l1.44,0a13.19,13.19,0,0,0,10.89-6.09h0l1.2,2.8c3.86-1.22,6.87-3.75,10-6.35a6.19,6.19,0,0,1,5.61-1.23l.85.23c2.59.2,6-1.08,8.13-2.52-2.85-.58-4.38-3.68-5.09-6.5s-1.14-6-3.27-7.93c-2.31-2.14-6.3-2.62-7.36-5.58-.84-2.33.71-5,0-7.33s-3.55-3.55-4.63-5.8c-1.47-3.06.65-7.12-1.22-9.95-2-3.08-7.46-2.63-9-6-.85-1.85-.16-4.37-1.63-5.79-1.17-1.14-3.17-1-4.4-2-1.81-1.57-.93-4.79-2.5-6.59-2.13-2.44-6.49-.29-9.22-2-1.72-1.09-2.29-3.44-4-4.56-2.3-1.53-5.32-.15-7.94.76-2,.7-4.14,1.11-6.1,2a7.85,7.85,0,0,0-4.5,4.3c-.7,2,.17,4.65,2.2,5.34"/><path class="cls-4" d="M405.64,60.92l.21.18c.13.12.32.3.56.56a6.65,6.65,0,0,1,.82,1,3.73,3.73,0,0,1,.67,1.64,2.72,2.72,0,0,1-.64,2.1,1.8,1.8,0,0,1-1.14.63,1.82,1.82,0,0,1-1.34-.4,4.24,4.24,0,0,1-1.16-2.79,29.44,29.44,0,0,1,0-3.38c.06-1.19.17-2.43.33-3.71.09-.64.19-1.3.3-2a7.81,7.81,0,0,0,.12-2,2.14,2.14,0,0,0-.91-1.69,3.32,3.32,0,0,0-2-.37,18.5,18.5,0,0,1-2.26.11,2.82,2.82,0,0,1-2.15-1,4.2,4.2,0,0,1-.74-2.32,11.8,11.8,0,0,1,.19-2.45,9,9,0,0,0,.07-2.42,2.9,2.9,0,0,0-1.16-2,14.56,14.56,0,0,0-2.27-1.13,4.29,4.29,0,0,1-2-1.78,10.25,10.25,0,0,1-.85-5.3,16.57,16.57,0,0,0-.14-2.65,5.34,5.34,0,0,0-.93-2.37c-1-1.36-2.74-2-4.27-2.66a11.48,11.48,0,0,1-2.25-1.24,4.23,4.23,0,0,1-1.52-2,13.18,13.18,0,0,1-.35-2.43,3,3,0,0,0-.87-2,4.25,4.25,0,0,0-2-.83,10.64,10.64,0,0,1-2.21-.54,3,3,0,0,1-1.64-1.54,6.38,6.38,0,0,1-.44-2.12,8.92,8.92,0,0,0-.7-3.86,5.27,5.27,0,0,0-2.78-2.2,10,10,0,0,0-3.26-.63c-1,0-2.06,0-3-.08a13.83,13.83,0,0,1-2.61-.31,7.15,7.15,0,0,1-2.06-.82,4.88,4.88,0,0,1-2.08-2.2,3,3,0,0,1-.27-1,6.59,6.59,0,0,0,.34,1A4.83,4.83,0,0,0,359.3,4a7.34,7.34,0,0,0,2,.78,14.29,14.29,0,0,0,2.58.27c.93,0,1.94,0,3,0a10.72,10.72,0,0,1,3.34.62A5.54,5.54,0,0,1,373.18,8a9.06,9.06,0,0,1,.76,4,6.27,6.27,0,0,0,.42,2,2.74,2.74,0,0,0,1.48,1.38,11.08,11.08,0,0,0,2.15.51,4.55,4.55,0,0,1,2.2.9,3.27,3.27,0,0,1,1,2.23,14,14,0,0,0,.35,2.36,3.91,3.91,0,0,0,1.4,1.87,10.9,10.9,0,0,0,2.18,1.19c.77.35,1.57.67,2.35,1.09a6.32,6.32,0,0,1,2.07,1.69,5.65,5.65,0,0,1,1,2.52,16.41,16.41,0,0,1,.14,2.71,10.06,10.06,0,0,0,.8,5.12,4,4,0,0,0,1.84,1.64,13.73,13.73,0,0,1,2.33,1.17,3.3,3.3,0,0,1,1.29,2.25,9.12,9.12,0,0,1-.08,2.51,12.22,12.22,0,0,0-.19,2.39,3.72,3.72,0,0,0,.67,2.13,2.5,2.5,0,0,0,1.9.91,18.71,18.71,0,0,0,2.23-.11,3.62,3.62,0,0,1,2.2.43,2.47,2.47,0,0,1,1,1.91,7.92,7.92,0,0,1-.14,2.08q-.17,1-.3,1.95c-.17,1.27-.29,2.5-.36,3.68a31.58,31.58,0,0,0,0,3.35,4.06,4.06,0,0,0,1.06,2.65,1.6,1.6,0,0,0,1.19.37,1.66,1.66,0,0,0,1-.55,2.61,2.61,0,0,0,.63-2,3.91,3.91,0,0,0-.62-1.6,8,8,0,0,0-.78-1l-.54-.58Z"/><path class="cls-9" d="M378.69,78.75a1.79,1.79,0,0,1,.34-.15,10.29,10.29,0,0,0,1-.44,3.78,3.78,0,0,0,1.31-1,2.14,2.14,0,0,0,.25-2.15,1.73,1.73,0,0,0-1.05-.75c-.46-.15-1-.21-1.49-.39a1.82,1.82,0,0,1-.74-.44,1.33,1.33,0,0,1-.35-.83,3.36,3.36,0,0,1,.62-1.73,4,4,0,0,0,.6-1.75,3.49,3.49,0,0,0-3.89-3.81l-.15,0v-.15a5,5,0,0,1,1-3.08,17.79,17.79,0,0,0,1.78-2.84,4.43,4.43,0,0,0,.39-1.64,2.32,2.32,0,0,0-.52-1.56c-.75-.89-2.05-1.09-3.21-1.62a2.86,2.86,0,0,1-1.48-1.33,2.79,2.79,0,0,1,0-2c.41-1.26,1.24-2.4,1.2-3.69a3,3,0,0,0-.74-1.73A6.48,6.48,0,0,0,372,44.35a29.48,29.48,0,0,1-3.64-2.11A3.75,3.75,0,0,1,366.91,40a5.68,5.68,0,0,1,.25-2.6c.23-.82.52-1.61.68-2.41a4.31,4.31,0,0,0,.09-1.18,2.4,2.4,0,0,0-.37-1.08,3.34,3.34,0,0,0-1.87-1.28,13.74,13.74,0,0,1-2.24-.89A2.85,2.85,0,0,1,362,28.62a5.84,5.84,0,0,1,.14-2.33c.15-.75.34-1.46.43-2.17a4.07,4.07,0,0,0-.18-2.06,3.3,3.3,0,0,0-1.31-1.48,7,7,0,0,0-1.83-.76c-1.27-.34-2.58-.45-3.78-.88a5.22,5.22,0,0,1-1.62-.93,4.88,4.88,0,0,1-1.07-1.42c-.54-1-.82-2.08-1.26-3a5.46,5.46,0,0,0-1.74-2.21,5.33,5.33,0,0,0-4.32-.94A5.71,5.71,0,0,0,343,11.78a7.48,7.48,0,0,0-.69.75,3.55,3.55,0,0,1,.64-.8,5.48,5.48,0,0,1,2.56-1.41,5.4,5.4,0,0,1,4.47.91,5.62,5.62,0,0,1,1.83,2.27c.45.93.75,2,1.27,3a4.28,4.28,0,0,0,2.57,2.2c1.15.42,2.44.52,3.76.85a7.25,7.25,0,0,1,1.92.8,3.61,3.61,0,0,1,1.44,1.62,4.3,4.3,0,0,1,.2,2.22c-.09.74-.28,1.46-.43,2.19a5.65,5.65,0,0,0-.12,2.2,2.49,2.49,0,0,0,1.24,1.71,14.25,14.25,0,0,0,2.19.86,3.71,3.71,0,0,1,2.05,1.42,2.87,2.87,0,0,1,.43,1.24,4.56,4.56,0,0,1-.1,1.28c-.16.84-.46,1.63-.68,2.44a5.19,5.19,0,0,0-.24,2.43,3.34,3.34,0,0,0,1.29,2,28.86,28.86,0,0,0,3.6,2.08,6.93,6.93,0,0,1,1.62,1.34,3.23,3.23,0,0,1,.82,1.94c0,1.47-.84,2.63-1.21,3.82a2.36,2.36,0,0,0,0,1.77,2.53,2.53,0,0,0,1.3,1.17c.56.26,1.16.43,1.74.67a3.92,3.92,0,0,1,1.59,1,2.66,2.66,0,0,1,.59,1.78,5,5,0,0,1-.42,1.76,19.09,19.09,0,0,1-1.82,2.88,4.7,4.7,0,0,0-1,2.89l-.16-.14A3.86,3.86,0,0,1,379,67a4,4,0,0,1-.28,3.9,3.38,3.38,0,0,0-.61,1.6,1.26,1.26,0,0,0,.95,1.1c.49.18,1,.24,1.47.4a1.74,1.74,0,0,1,1.3,2.12,2.54,2.54,0,0,1-.44,1A3.9,3.9,0,0,1,380,78.24,8.68,8.68,0,0,1,378.69,78.75Z"/><path class="cls-9" d="M398.51,72.3a4.56,4.56,0,0,0,.51-1,4,4,0,0,0-.2-3,3.45,3.45,0,0,0-1.54-1.56,10.07,10.07,0,0,1-1.11-.7,1.91,1.91,0,0,1-.76-1.22c-.15-1.05.58-2,.56-3a1.75,1.75,0,0,0-.73-1.35,7.66,7.66,0,0,0-1.56-.82,7,7,0,0,1-1.67-.91A2.74,2.74,0,0,1,391,57c-.22-1.38.22-2.76.24-4.17a3.31,3.31,0,0,0-.5-2A3.91,3.91,0,0,0,389,49.6a20.9,20.9,0,0,1-2.17-.91,2.75,2.75,0,0,1-1.48-1.95,9.72,9.72,0,0,1,.12-2.48A2.88,2.88,0,0,0,385,42a5,5,0,0,0-2.13-1.2,4.3,4.3,0,0,1-2.22-1.49,4,4,0,0,1-.46-2.69,15.69,15.69,0,0,1,.66-2.64,6.78,6.78,0,0,0,.35-2.63,3,3,0,0,0-1.34-2.15,7.37,7.37,0,0,0-2.55-.89c-.89-.18-1.8-.32-2.69-.58a5.27,5.27,0,0,1-2.42-1.34A6.1,6.1,0,0,1,370.85,24,49.56,49.56,0,0,1,369.8,19a9.48,9.48,0,0,0-.79-2.32A4.48,4.48,0,0,0,367.4,15c-1.4-.74-3-.54-4.55-.47a11,11,0,0,1-2.29-.07,4.74,4.74,0,0,1-2.06-.87,14.42,14.42,0,0,1-2.61-3.28,8.08,8.08,0,0,0-1.25-1.46,7.29,7.29,0,0,0-1.53-1,8.88,8.88,0,0,0-6.35-.37,12.78,12.78,0,0,0-4.27,2.42,21.14,21.14,0,0,0-2.23,2.2l-.53.63a1.69,1.69,0,0,1-.19.21,1.58,1.58,0,0,1,.16-.24l.5-.64a18.12,18.12,0,0,1,2.2-2.27,12.6,12.6,0,0,1,4.3-2.5,9.06,9.06,0,0,1,6.52.33,7.12,7.12,0,0,1,1.6,1,8.92,8.92,0,0,1,1.3,1.5,14.24,14.24,0,0,0,2.56,3.2,4.25,4.25,0,0,0,1.93.8,10.33,10.33,0,0,0,2.23.06,22.52,22.52,0,0,1,2.34-.07,5.44,5.44,0,0,1,2.38.57,4.83,4.83,0,0,1,1.75,1.81,9.68,9.68,0,0,1,.83,2.41c.36,1.67.51,3.4,1,5.05a5.84,5.84,0,0,0,1.3,2.2,4.87,4.87,0,0,0,2.26,1.24c.86.26,1.76.4,2.67.58a7.81,7.81,0,0,1,2.67.93,3.38,3.38,0,0,1,1.5,2.42,7.15,7.15,0,0,1-.36,2.77,15.63,15.63,0,0,0-.66,2.59,3.6,3.6,0,0,0,.41,2.45,4,4,0,0,0,2,1.35,5.27,5.27,0,0,1,2.27,1.31,2.49,2.49,0,0,1,.52,1.23,4.64,4.64,0,0,1,0,1.29,9.38,9.38,0,0,0-.13,2.4A2.44,2.44,0,0,0,387,48.41a22.22,22.22,0,0,0,2.13.89A4.16,4.16,0,0,1,391,50.64a3.56,3.56,0,0,1,.55,2.18c0,1.46-.47,2.83-.27,4.11a2.49,2.49,0,0,0,.9,1.58,6.67,6.67,0,0,0,1.61.89,7.44,7.44,0,0,1,1.6.85,2,2,0,0,1,.81,1.54c0,1.17-.73,2.08-.59,3a1.69,1.69,0,0,0,.68,1.11,11.53,11.53,0,0,0,1.08.69A3.58,3.58,0,0,1,399,68.26a4,4,0,0,1,.14,3.1A2.63,2.63,0,0,1,398.51,72.3Z"/><path class="cls-15" d="M405.3,89.51l-5.63-8.86-.39-8.72,2.21-6s1.76-.42,2.05,1.68a11.43,11.43,0,0,1-.65,4.64l1.2,4.23s.4.46.77-1.3-.27-14.81-.28-15.71.06-3,1.39-2.83,1.75,2,1.76,2.86,1,9.65,1,9.65.31.78.63.67S409.05,60.47,409,59s-.39-4.71,1.33-4.72,1.72,1.63,1.81,3.43,1.22,11.83,1.22,11.83.27.63.51-.21.55-11.77.75-12.28,1.19-1.18,2,.05.6,4.12.49,9.21c-.1,4.59-.24,6.49.28,6.85s2.46-2.46,2.46-2.46,2.35-6,4.34-5.83.65,1.76.31,3.16c-.29,1.19-3.76,8.28-3.84,8.35s-3.49,12.69-3.49,12.69L426,106c1.32,2.52,1.16,4.73.74,7.54-.45,3.08-2.63,4.66-7.14,6.06-3.34,1-6.9.08-8.52-1.67a9.91,9.91,0,0,1-2.47-5.3c-1-5.56-3.3-23.14-3.3-23.14Z"/><path class="cls-16" d="M410.91,83.15c-.07,0,0-.67-.18-1.7a6.86,6.86,0,0,0-1.83-3.55,4.79,4.79,0,0,0-2.84-1.44,2.93,2.93,0,0,0-1.93.44l-.08,0,0-.08c-.12-.23-.16-.36-.14-.37s.11.08.27.3l-.11,0a2.73,2.73,0,0,1,2-.67,4.84,4.84,0,0,1,3.12,1.49A6.47,6.47,0,0,1,411,81.4,3.49,3.49,0,0,1,410.91,83.15Z"/><path class="cls-16" d="M415.67,76.45a19.32,19.32,0,0,1-1.44,1.73A19,19,0,0,1,412.92,80a5.18,5.18,0,0,1,2.75-3.54Z"/><ellipse class="cls-5" cx="346.98" cy="314.9" rx="55.36" ry="59.92" transform="translate(-86.09 135.98) rotate(-19.78)"/><path class="cls-4" d="M294.88,333.63s-.46-1.18-1.19-3.49a63.36,63.36,0,0,1-2.22-10.32c-.19-1.13-.24-2.34-.38-3.61s-.16-2.61-.14-4a60.41,60.41,0,0,1,7.64-30,54.82,54.82,0,0,1,7.59-10.4,51.83,51.83,0,0,1,40.24-16.56A56.59,56.59,0,0,1,378,266.88a64.17,64.17,0,0,1,23.48,65.28,56.59,56.59,0,0,1-17,29,52,52,0,0,1-27.61,12.84,53.06,53.06,0,0,1-14,0,55.13,55.13,0,0,1-12.48-3.19,60.48,60.48,0,0,1-25-18.24c-.9-1.07-1.67-2.17-2.44-3.18s-1.43-2-2-3a64,64,0,0,1-4.86-9.37c-.9-2.24-1.3-3.44-1.3-3.44s.13.29.36.86.55,1.44,1,2.54a65.91,65.91,0,0,0,4.93,9.31c.58,1,1.32,1.94,2,3s1.54,2.09,2.44,3.15a59.71,59.71,0,0,0,6.24,6.55,58.87,58.87,0,0,0,18.67,11.5,55.21,55.21,0,0,0,12.4,3.14,52.68,52.68,0,0,0,13.85-.06,51.52,51.52,0,0,0,27.35-12.77A56.08,56.08,0,0,0,401,332a63.68,63.68,0,0,0-23.29-64.75,56.1,56.1,0,0,0-31.28-11.53,51.58,51.58,0,0,0-29.21,7.58,52.47,52.47,0,0,0-10.72,8.77,54.53,54.53,0,0,0-7.56,10.31,60.42,60.42,0,0,0-7.71,29.78c0,1.4.07,2.73.12,4s.17,2.48.35,3.61a66,66,0,0,0,2.12,10.31c.32,1.17.64,2,.82,2.62S294.88,333.63,294.88,333.63Z"/><path class="cls-4" d="M285.74,336.91s-.54-1.4-1.4-4.14a75.65,75.65,0,0,1-2.63-12.26c-.22-1.35-.28-2.79-.44-4.3s-.2-3.1-.18-4.76a71.38,71.38,0,0,1,.72-10.77,69.88,69.88,0,0,1,8.37-24.82,65.88,65.88,0,0,1,9-12.36A62.68,62.68,0,0,1,312,253a61.76,61.76,0,0,1,35-9.13,67.25,67.25,0,0,1,37.49,13.78,76.18,76.18,0,0,1,27.88,77.52,67.24,67.24,0,0,1-20.13,34.51,61.81,61.81,0,0,1-32.8,15.25,63.06,63.06,0,0,1-16.58,0A65.29,65.29,0,0,1,328,381.16a71.73,71.73,0,0,1-29.67-21.66c-1.07-1.26-2-2.57-2.89-3.77s-1.71-2.42-2.4-3.6A75.34,75.34,0,0,1,287.3,341c-1.08-2.66-1.56-4.09-1.56-4.09s.16.35.43,1,.64,1.71,1.23,3A77.67,77.67,0,0,0,293.25,352c.7,1.18,1.57,2.32,2.41,3.57s1.83,2.5,2.9,3.76a71.81,71.81,0,0,0,7.42,7.78,69.77,69.77,0,0,0,22.19,13.69,65.76,65.76,0,0,0,14.74,3.73,62.26,62.26,0,0,0,16.47-.07,61.29,61.29,0,0,0,32.53-15.18,66.76,66.76,0,0,0,20-34.26,75.74,75.74,0,0,0-27.69-77A66.83,66.83,0,0,0,347,244.33a61.26,61.26,0,0,0-34.74,9,62.14,62.14,0,0,0-12.74,10.43,65.66,65.66,0,0,0-9,12.26,69.85,69.85,0,0,0-8.4,24.69,71,71,0,0,0-.76,10.72c0,1.66.09,3.24.15,4.75s.21,2.94.42,4.28a79.4,79.4,0,0,0,2.53,12.26c.38,1.38.77,2.41,1,3.11S285.74,336.91,285.74,336.91Z"/><path class="cls-17" d="M363.91,237.73c.19-.1,8-3,8.34,5.14s-7.92,6.82-7.95,6.59S363.91,237.73,363.91,237.73Z"/><path class="cls-18" d="M366.67,246.26s.14.09.39.19a1.39,1.39,0,0,0,1.06,0c.85-.35,1.52-1.75,1.5-3.22a4.77,4.77,0,0,0-.48-2,1.66,1.66,0,0,0-1.12-1.05.72.72,0,0,0-.82.42c-.1.24,0,.4-.09.41s-.18-.13-.13-.47a.94.94,0,0,1,.3-.52,1.08,1.08,0,0,1,.78-.24,2,2,0,0,1,1.54,1.2,4.86,4.86,0,0,1,.59,2.26c0,1.64-.76,3.22-1.93,3.61a1.55,1.55,0,0,1-1.31-.16C366.69,246.46,366.64,246.28,366.67,246.26Z"/><path class="cls-17" d="M323.53,256.69c-.5-5.75-.55-17.67-.48-28.46a22.26,22.26,0,0,1,20.63-22l1.15-.09c12.44-.18,19.56,10.28,19.4,22.73l1.21,41-13.94,3.23a8.92,8.92,0,0,1-1.36.2l-13.29.9-.25-4.6S324.55,268.59,323.53,256.69Z"/><path class="cls-6" d="M366.25,216.29a5.8,5.8,0,0,0-3.48-7.38c.76-1.15-.29-2.72-1.56-3.27s-2.72-.57-4-1.18a21,21,0,0,1-2.4-1.71,7.91,7.91,0,0,0-7.93-.51c-.58-1.87-2.71-2.9-4.66-2.85a13.74,13.74,0,0,0-5.55,1.77,13.6,13.6,0,0,0-6-2,7.33,7.33,0,0,0-5.76,2.19,5,5,0,0,0-.67,5.89,5.21,5.21,0,0,0-2.65,9.61,4.52,4.52,0,0,0,.46,5.1c1.18,1.38,1.9,0,1.9,0l2.94-4.35a18.79,18.79,0,0,0,3.43-.08,13,13,0,0,0,5.42-1.41,19.3,19.3,0,0,0,2.84-2.26,29.44,29.44,0,0,1,3-2.3,12.82,12.82,0,0,1,10.84.41c3.38,1.66,6.19,6.47,6.8,10.56a117.21,117.21,0,0,1,1.46,16.51c0,1.64.25,3.7,1.81,4.22a2,2,0,0,0,2.69-1.83,36.58,36.58,0,0,0,.06-4.14l1.23-.17c.91-5.57.18-10.62-.58-16.21a22.75,22.75,0,0,0-.7-3.22A4.17,4.17,0,0,0,366.25,216.29Z"/><path class="cls-6" d="M355.68,210.2a13.66,13.66,0,0,0-8-3.28,12.56,12.56,0,0,0-7.18,1.39,8.47,8.47,0,0,0-4.27,5.76l-8.67,2.34a10.34,10.34,0,0,0,13.33-3.12,9.56,9.56,0,0,0,9,.05,10.44,10.44,0,0,0,9.18,4.69A10,10,0,0,0,355.68,210.2Z"/><path class="cls-11" d="M330.81,217.42a1.66,1.66,0,0,1-.75-.11,4.31,4.31,0,0,1-1.77-1.13,4.17,4.17,0,0,1-1.14-3,4.45,4.45,0,0,1,2-3.51l.08.46a4.42,4.42,0,0,1-2.69-1.92,4.15,4.15,0,0,1,.32-5,4.07,4.07,0,0,1,3.89-1.5,2.63,2.63,0,0,1,1.47.79,2.23,2.23,0,0,1,.55,1.13,1.26,1.26,0,0,1-.19,1,2.76,2.76,0,0,0,0-1,2.2,2.2,0,0,0-1.88-1.6,3.75,3.75,0,0,0-3.46,1.44,3.67,3.67,0,0,0-.25,4.44,4,4,0,0,0,2.36,1.7l.58.14-.5.32a4,4,0,0,0-1.78,3.11,3.84,3.84,0,0,0,.94,2.75A5.28,5.28,0,0,0,330.81,217.42Z"/><path class="cls-11" d="M365.83,220.65a7.45,7.45,0,0,1-6.68,1c0-.15,1.55.06,3.39-.23S365.76,220.51,365.83,220.65Z"/><path class="cls-11" d="M366.65,223.11A6.7,6.7,0,0,1,360,225a31.08,31.08,0,0,0,3.45-.51A32,32,0,0,0,366.65,223.11Z"/><path class="cls-18" d="M336.59,269.56a27.73,27.73,0,0,0,15.2-5.56s-3,9-14.91,8.77Z"/><path class="cls-13" d="M375.27,278.56l-6.91-2.11-.88-5.61a1.8,1.8,0,0,0-2.05-1.68l-31.08,4.36a1.8,1.8,0,0,0-1.52,2.1V280l-24.25,10.19s-2.74,10.79-2,20.12c.57,7.2,3.13,48.36,3.13,48.36s17.1,16.81,37.16,17.28a58.86,58.86,0,0,0,40.9-15.7c0-.48,4.59-49.67,4.59-49.67l2.52-23.45Z"/><path class="cls-13" d="M309.71,358.67l-1.13-68.48s-12.25,9.34-14.86,41.89C293.72,332.08,301,350.89,309.71,358.67Z"/><path class="cls-13" d="M391.28,285.61s11.26,3.44,14.55,12.55,27.32,46,29.16,49.32c5.57,10,.31,24.07-8.08,26.5s-44.28-15.24-45-17.33a21.52,21.52,0,0,1-.5-5.87l2.21-14.34,6.16,1.41Z"/><g class="cls-14"><path d="M377.77,354.33c-.49-.91-.42-3.51-1-4.39-.88-1.45-2.69-.86-4.08-1.83l-6.49-4.49a5.1,5.1,0,0,0-2.29-1.08A3.66,3.66,0,0,0,360.9,344a16.43,16.43,0,0,0-1.79,3c-.53,1-1.13.6-2.24.72a14.57,14.57,0,0,1-3.66.26,4,4,0,0,0-3.45,1.65c-.87,1-1.49,2.24-2.42,3.19-2.26,2.32-5.84,2.62-9.08,2.54s-6.67-.38-9.52,1.15c-3.58,1.91-5.2,6.08-6.54,9.91l.54,1.89c3.85,1.66,9.21,1,13.21-.2s8.07-2.79,12.24-2.45c4.42.35,8.92,2.82,13.06,1.23,2.4-.92,4.14-3.05,6.47-4.13,3.07-1.43,6.65-.84,10-.48s7.15.34,9.65-1.95C383.69,359.19,379.62,357.75,377.77,354.33Z"/></g><path class="cls-4" d="M392,362.61l-.3-.1-.85-.34-3.22-1.34-11.52-4.94-.15-.07,0-.16c.9-6.32,2-14,3.17-22.21,0-.22.06-.43.09-.62l0-.28.27.06c10.6,2.24,20,5,26.76,7,3.37,1,6.08,1.93,8,2.57l2.14.76a7.82,7.82,0,0,1,.74.29,4.23,4.23,0,0,1-.77-.19l-2.17-.67c-1.89-.58-4.61-1.42-8-2.41-6.77-2-16.18-4.63-26.76-6.86l.31-.22-.09.62c-1.21,8.24-2.33,15.88-3.26,22.2l-.13-.23,11.45,5.11,3.17,1.45.83.4C391.93,362.54,392,362.6,392,362.61Z"/><path class="cls-4" d="M396.85,337.62a9,9,0,0,1-1.55-1.79,44.2,44.2,0,0,1-3.14-4.78,43.15,43.15,0,0,1-2.5-5.13,9.39,9.39,0,0,1-.75-2.25,13.37,13.37,0,0,1,1.08,2.1c.63,1.31,1.53,3.1,2.62,5s2.18,3.61,3,4.82A12.84,12.84,0,0,1,396.85,337.62Z"/><path class="cls-4" d="M391.25,287.76a29.74,29.74,0,0,1-.8,3.14,60.34,60.34,0,0,0-1.46,7.65,61.48,61.48,0,0,0-.41,7.77,30.13,30.13,0,0,1,0,3.24,3.2,3.2,0,0,1-.17-.86c-.09-.55-.16-1.36-.22-2.37a44.7,44.7,0,0,1,.25-7.85,45.4,45.4,0,0,1,1.62-7.68c.3-1,.57-1.73.79-2.25A2.79,2.79,0,0,1,391.25,287.76Z"/><path class="cls-4" d="M316.34,360.71c-.14,0-1.64-9.72-3.35-21.75s-3-21.81-2.83-21.83,1.64,9.72,3.35,21.76S316.48,360.69,316.34,360.71Z"/><path class="cls-17" d="M346.48,324.93l13.92.75,18.37,11.55L376.7,350.7a98.56,98.56,0,0,1-9.7-3.65c-1.68-.93-1.55-4-1.55-4l-2.28,1.25s-1.25,3.13-2.22,5.84-3.82,1-3.82,1l-.36-2.83c-1.45,1.51-3.66.2-3.66.2l-1-10.45,3.9-5-4.56.46a28,28,0,0,0-5.36,4.36c-2.7,2.8-6.66-.22-6.66-.22l7.87-9-1.3.58s-5.1,3.56-7.24,3.67-2.59-2.49-2.59-2.49Z"/><polygon class="cls-4" points="343.74 336.91 362.94 361.61 325.07 357.8 304.09 331.5 343.74 336.91"/><path class="cls-4" d="M325.05,358H325l-21.34-26.76,40.14,5.48h.08l19.53,25.14Zm-20.49-26.24,20.61,25.85,37.32,3.76-18.85-24.28Z"/><path class="cls-17" d="M316.85,365.36a15.76,15.76,0,0,0,7.27,3.25l16.67-5,12.77-5.23a1,1,0,0,0,.65-1l2.07-1.9s.08-1.33-2-1.87-7.6,1.71-7.91,1.88-4.76,1-4.76,1a65.63,65.63,0,0,1,8.89-3.76s1.2-4.89-3.71-3.76a49,49,0,0,0-10.35,4.08L333,354.85l-1.67-.64,1.06-2s5.12-5.62,5.19-5.87,1.37-2,.08-2.74-4.46-.38-5.92,1.26-6.67,7.22-6.67,7.22a6.84,6.84,0,0,0-2.26-.11c-1.71.1-4.08-1.8-4.3-2.4s-.4-3.71-2.13-5.48-4.65-2.54-5.28-1.26c-.1.21-.44.57.11,2.09a9.42,9.42,0,0,0,1.06,2.2l.4,7.05,1.85,4-1.38.08S311.38,361.26,316.85,365.36Z"/><path class="cls-18" d="M366.91,337a13.88,13.88,0,0,0-2.74-.34,7,7,0,0,0-2.86.67,7.21,7.21,0,0,0-2.75,2.28,8.32,8.32,0,0,0-1.35,3.33,16.77,16.77,0,0,0-.25,3,23.32,23.32,0,0,1,0,2.82,11.84,11.84,0,0,1-.37-2.81,14,14,0,0,1,.15-3.08,8.23,8.23,0,0,1,1.4-3.55,7.47,7.47,0,0,1,3-2.42,7.07,7.07,0,0,1,3.06-.6,6.5,6.5,0,0,1,2.06.37A2,2,0,0,1,366.91,337Z"/><path class="cls-18" d="M361.25,332.33c0,.15-1.27,0-2.76.27s-2.63.76-2.71.63a4.37,4.37,0,0,1,2.62-1.15A4.29,4.29,0,0,1,361.25,332.33Z"/><path class="cls-18" d="M341.14,335.72a14.65,14.65,0,0,1,1.56-2.15c1-1.3,2.47-3.09,4.13-5.1l.07-.09h.1l1.47-.14c2.95-.27,5.63-.38,7.57-.4a16.44,16.44,0,0,1,3.14.11,21.65,21.65,0,0,1-3.13.26c-1.93.11-4.59.28-7.53.55l-1.46.14.17-.09c-1.68,2-3.17,3.75-4.27,5A15.16,15.16,0,0,1,341.14,335.72Z"/><path class="cls-4" d="M369.29,276.87a8.17,8.17,0,0,1-1.25.83,39,39,0,0,1-3.62,1.9,46.15,46.15,0,0,1-12.95,3.74,44.8,44.8,0,0,1-7.43.39A29.06,29.06,0,0,1,338,283a12.11,12.11,0,0,1-3.79-1.58,7.27,7.27,0,0,1-.88-.68c-.19-.18-.28-.27-.27-.29s.43.32,1.26.8a13.05,13.05,0,0,0,3.77,1.39,31.75,31.75,0,0,0,6,.57,46.34,46.34,0,0,0,7.35-.43,50.09,50.09,0,0,0,12.87-3.56c1.57-.68,2.82-1.3,3.67-1.74A8,8,0,0,1,369.29,276.87Z"/><path class="cls-11" d="M389.41,293.31s-.16-.07-.46-.24a12.31,12.31,0,0,0-1.36-.67,12.9,12.9,0,0,0-5.69-1,23.67,23.67,0,0,0-8.83,2.44,27.38,27.38,0,0,0-9.78,7.12,17,17,0,0,0-3.32,6.18,13.4,13.4,0,0,0-.08,7.51A11.25,11.25,0,0,0,364.7,321a8.54,8.54,0,0,0,8.19.53,8.47,8.47,0,0,0,3.39-2.78,7.33,7.33,0,0,0,1-2,7.68,7.68,0,0,0,.28-2.25,9.14,9.14,0,0,0-1.3-4.4,11.27,11.27,0,0,0-3.25-3.42,18.18,18.18,0,0,0-19-.43,75,75,0,0,0-8.45,5.78,31.56,31.56,0,0,1-8.74,4.89,16.34,16.34,0,0,1-9.64.1,15.88,15.88,0,0,1-7.74-5.06,16.58,16.58,0,0,1-3.65-8,12,12,0,0,1,0-4.26,6.49,6.49,0,0,1,1.94-3.67,4.43,4.43,0,0,1,3.85-1,5.53,5.53,0,0,1,3.29,2,6.15,6.15,0,0,1,1.19,3.51,7.59,7.59,0,0,1-.7,3.48,11.21,11.21,0,0,1-4.45,4.73,15.53,15.53,0,0,1-5.44,2.05,17.67,17.67,0,0,1-5.05.14,16.9,16.9,0,0,1-4.13-1,15.78,15.78,0,0,1-5-3,9.28,9.28,0,0,1-1.09-1.07c-.23-.25-.34-.39-.34-.39s.47.53,1.5,1.38a16.07,16.07,0,0,0,5,2.88,16.75,16.75,0,0,0,4.09.93,17.21,17.21,0,0,0,5-.18,15.34,15.34,0,0,0,5.32-2,11,11,0,0,0,4.29-4.6,6.61,6.61,0,0,0-.48-6.6,5.12,5.12,0,0,0-3.05-1.85,4,4,0,0,0-3.49.93,6.12,6.12,0,0,0-1.78,3.44,11.52,11.52,0,0,0,0,4.1,16.12,16.12,0,0,0,3.56,7.79,15.43,15.43,0,0,0,7.51,4.88,15.83,15.83,0,0,0,9.34-.1,31.47,31.47,0,0,0,8.6-4.82,74.92,74.92,0,0,1,8.5-5.83,18.69,18.69,0,0,1,19.51.47,11.81,11.81,0,0,1,3.39,3.58A9.66,9.66,0,0,1,378,314.5a8.46,8.46,0,0,1-.31,2.4,8.07,8.07,0,0,1-1,2.15,9,9,0,0,1-3.59,2.94,9.42,9.42,0,0,1-4.45.81,9.3,9.3,0,0,1-4.18-1.39,11.71,11.71,0,0,1-5-6.59,13.9,13.9,0,0,1,.12-7.76,17.24,17.24,0,0,1,3.41-6.29,27.73,27.73,0,0,1,9.95-7.16,23.94,23.94,0,0,1,8.94-2.38,12.77,12.77,0,0,1,5.74,1.08A9,9,0,0,1,389,293Z"/><path class="cls-11" d="M412.38,312.62a4,4,0,0,1-.57.86,20.84,20.84,0,0,1-1.84,2.14,27.62,27.62,0,0,1-3.13,2.77,28.89,28.89,0,0,1-9.12,4.63,27,27,0,0,1-4.09.89,20,20,0,0,1-2.8.22,3.87,3.87,0,0,1-1-.05c0-.1,1.47-.13,3.79-.54a30.27,30.27,0,0,0,4-1,33.85,33.85,0,0,0,4.67-1.91,34.49,34.49,0,0,0,4.3-2.64,31.52,31.52,0,0,0,3.16-2.65C411.41,313.72,412.3,312.56,412.38,312.62Z"/><path class="cls-11" d="M426.14,337.88a20.75,20.75,0,0,1-2.19-.44,16.67,16.67,0,0,0-10.4,1.46,20.16,20.16,0,0,1-2,1,6.45,6.45,0,0,1,1.82-1.36A14.73,14.73,0,0,1,424,337.08,6.18,6.18,0,0,1,426.14,337.88Z"/><path class="cls-11" d="M399.32,365.62a2.43,2.43,0,0,1-.25-.53,15.16,15.16,0,0,1-.54-1.6,16.58,16.58,0,0,1-.58-6.17,12.64,12.64,0,0,1,1.15-4.16,10.52,10.52,0,0,1,1.3-2.05,11.21,11.21,0,0,1,1.87-1.76,9.84,9.84,0,0,1,5.12-1.94,7.9,7.9,0,0,1,2.92.33,4.94,4.94,0,0,1,2.57,1.68,2.46,2.46,0,0,1,.45,1.56,2.58,2.58,0,0,1-.63,1.47,5,5,0,0,1-2.56,1.52,9.51,9.51,0,0,1-5.47-.43,9.82,9.82,0,0,1-4.05-2.87,9.06,9.06,0,0,1-1.86-3.89,9.73,9.73,0,0,1,.7-6.13,6.49,6.49,0,0,1,1.26-1.89,17.84,17.84,0,0,0-1.08,2,9.85,9.85,0,0,0-.52,6,8.65,8.65,0,0,0,1.84,3.7,9.53,9.53,0,0,0,3.88,2.69,9,9,0,0,0,5.17.38,4.48,4.48,0,0,0,2.29-1.35,1.9,1.9,0,0,0,.15-2.41,4.51,4.51,0,0,0-2.29-1.48,7.51,7.51,0,0,0-2.73-.31,9.53,9.53,0,0,0-4.88,1.82,11,11,0,0,0-1.8,1.67,10.21,10.21,0,0,0-1.26,1.94,12.81,12.81,0,0,0-1.18,4,17,17,0,0,0,.42,6.08C399.07,364.85,399.36,365.6,399.32,365.62Z"/><path class="cls-11" d="M311.46,331.53a16.46,16.46,0,0,1-2.38-.83,47.82,47.82,0,0,0-5.8-1.67,46.47,46.47,0,0,0-6-.85,17.43,17.43,0,0,1-2.5-.22,9.68,9.68,0,0,1,2.52-.15,32.82,32.82,0,0,1,6.07.71,32.48,32.48,0,0,1,5.82,1.84A9.62,9.62,0,0,1,311.46,331.53Z"/><path class="cls-11" d="M381.43,358.25a2.09,2.09,0,0,1-.45.35l-1.35.92c-.58.4-1.31.89-2.18,1.38s-1.85,1.13-3,1.68-2.35,1.24-3.73,1.82-2.84,1.2-4.41,1.8a72.49,72.49,0,0,1-10.53,2.9,75.2,75.2,0,0,1-10.85,1.16c-1.68,0-3.28.05-4.77,0s-2.88-.16-4.14-.27-2.4-.29-3.4-.41-1.85-.29-2.54-.43l-1.6-.32a2.29,2.29,0,0,1-.56-.15,2.21,2.21,0,0,1,.57.05l1.62.22c.7.11,1.55.24,2.55.34s2.13.27,3.39.33,2.64.2,4.13.21,3.06,0,4.73,0a79,79,0,0,0,10.78-1.19,75,75,0,0,0,10.46-2.84c1.56-.58,3-1.12,4.4-1.75s2.6-1.18,3.73-1.74,2.12-1.14,3-1.61,1.62-.92,2.22-1.3l1.4-.84A3,3,0,0,1,381.43,358.25Z"/><g class="cls-14"><path d="M419.68,342.66c-1.9-2.35-5.1-3.1-8.07-3.63-5.11-.92-10.32-2.07-15.49-2.55,6.91,3.12,15.48,3.69,22,7.93.5.32,1.12.68,1.64.4C420.51,344.42,420.2,343.3,419.68,342.66Z"/></g><g class="cls-14"><path d="M364.15,279.55c.6-.26-9.09,6.46-14.56,6.86a22.6,22.6,0,0,1-15.4-4.7S347,287.06,364.15,279.55Z"/></g></g></g></svg>