<svg xmlns="http://www.w3.org/2000/svg" viewBox="0 0 639.77 418.49"><defs><style>.cls-1{isolation:isolate;}.cls-2,.cls-3{fill:#ddecff;}.cls-10,.cls-22,.cls-3{mix-blend-mode:multiply;}.cls-4{fill:#2a85f5;}.cls-5{fill:#223a7a;}.cls-6{fill:#fff;}.cls-7{fill:#ff9d8c;}.cls-8{fill:#08101f;}.cls-9{fill:#8593b6;}.cls-11{fill:#8e9bbb;}.cls-12{fill:#dee1eb;}.cls-13{fill:#818fb3;}.cls-14{fill:#6baeff;}.cls-15{fill:#2e4050;}.cls-16{fill:#43588e;}.cls-17{fill:#51667b;}.cls-18{fill:#f6f7fa;}.cls-19{fill:#d9dee8;}.cls-20{fill:#596b9b;}.cls-21{fill:#7a89af;}.cls-22{fill:#bdc4d7;}.cls-23{fill:#6f7fa9;}.cls-24{fill:#9ca6c3;}.cls-25{fill:#31b1e7;}.cls-26{fill:#d2e6ff;}.cls-27{fill:#f52;}.cls-28{fill:#67acff;}.cls-29{opacity:0.2;}.cls-30{fill:#263238;}.cls-31{fill:#455a64;}.cls-32{fill:#dae3ea;}.cls-33{fill:#f7f7f7;}.cls-34{fill:#e4ecf2;}</style></defs><g class="cls-1"><g id="Layer_2" data-name="Layer 2"><g id="OBJECTS"><path class="cls-2" d="M160.76,373.79s-54.62-38.89-70.34-105.1,8.27-146.48,53.79-187,127.45-13.24,163.86,20.69l36.42,33.93s34.76,19,80.27,17.38,86.07,60.41,96.83,109.24-14.9,113.38-14.9,113.38Z"/><path class="cls-3" d="M135.94,383.73S97.87,363,87.94,315s33.1-91.87,37.24-115.87-5-53.79,33.1-77,105.93-14.9,131.59-20.69S345.32,56,396.63,65.11s101,36.41,103.44,96-16.55,61.24,2.49,93.51,26.48,54.62,17.38,87.73-28.14,42.2-28.14,42.2Z"/><path class="cls-3" d="M215.42,373c-2.36-2.49-37.1-72,1.58-135.73S352.78,181,391.45,205.79s57.63,57.11,61.58,91-22.11,86.9-22.11,86.9Z"/><rect class="cls-4" x="453.43" y="219.07" width="54.62" height="32.28" rx="5"/><polygon class="cls-4" points="480.74 263.97 487.81 247.21 473.67 247.21 480.74 263.97"/><polygon class="cls-5" points="480.57 229.67 493.35 229.67 493.35 231.54 499.61 227.93 493.35 224.32 493.35 226.19 480.57 226.19 480.57 229.67"/><polygon class="cls-6" points="499.61 237.01 486.84 237.01 486.84 235.14 480.57 238.75 486.84 242.36 486.84 240.5 499.61 240.5 499.61 237.01"/><path class="cls-5" d="M472.73,240.3l-.6.22a19.1,19.1,0,0,1-2.88-4.52,16.1,16.1,0,0,1-1-5.24l.44-.18-2.7-6.47a5.33,5.33,0,0,0-1.31,1.49c-1.53,2.58-1.38,6.55.16,10.42s3.18,7.33,6.18,9.5a5.93,5.93,0,0,0,4.47,1.32Z"/><path class="cls-5" d="M474.67,239.54l-.84.3,2.77,6.62a4.93,4.93,0,0,0,.83-.36,1.61,1.61,0,0,0,.73-2l-1.44-3.64A1.61,1.61,0,0,0,474.67,239.54Z"/><path class="cls-5" d="M468.08,223a6.13,6.13,0,0,0-1.08.51l2.76,6.6.93-.39a1.61,1.61,0,0,0,.88-2.06l-1.45-3.73A1.62,1.62,0,0,0,468.08,223Z"/><path class="cls-4" d="M202.52,361.79V287.31s-.83-20.07,9.73-25.86,55-2.69,55-2.69v103Z"/><path class="cls-7" d="M281.18,189s-2.69,22.55-3.73,24.41l-1,1.86-5.17,3.52s9.93,14.07,22.13,16.34,11.18-5,11.18-5l-1.87-3.93,2.49-21.52S283,194.62,281.18,189Z"/><path class="cls-6" d="M264.83,220.69l8.07-3.52s5.17,8.49,17.17,13.45,12.21,2.07,12.83,0a7.84,7.84,0,0,0-.21-4.34l.89-7.25,4.8,1.6L325,355.38l-42.83,2.07Z"/><path class="cls-8" d="M304.35,219.17s2.9,6.69,5.59,22.42,5.17,42.2,5.79,60.41,1,59.79,1,59.79h54c.62,0,4.35-20.48,4.35-20.48s-23.59-20.2-24.83-23.52c-.83-2.2-.41-43.1-3.93-61.93s-8.07-22.62-17.59-27.31C318.93,223.71,304.35,219.17,304.35,219.17Z"/><path class="cls-9" d="M332.49,338.09a.5.5,0,0,1-.5-.5c0-1.48-.27-22.5-.52-42.82s-.52-41.35-.52-42.84a.51.51,0,0,1,.5-.5.5.5,0,0,1,.5.5c0,1.48.27,22.5.52,42.82s.52,41.35.52,42.84A.51.51,0,0,1,332.49,338.09Z"/><path class="cls-5" d="M224.9,333l-.41,28.75h62.89s2.69-24.41,1.66-26.68S224.9,333,224.9,333Z"/><g class="cls-10"><path class="cls-11" d="M294.9,212.83a33,33,0,0,0,8.8,4.73l1.48-12.8s-16.63-7.62-22.27-13.28C284.09,197.92,287,206.45,294.9,212.83Z"/></g><path class="cls-7" d="M324.63,147a44.77,44.77,0,0,1,5.17,16.55c.83,9.1,0,32.48-7.45,42.41s-23,7-30,1c-6.46-5.51-12.83-11.59-14.48-23.59s3.51-34.76,18.2-39.52S324.63,147,324.63,147Z"/><path class="cls-7" d="M343.29,348.79s-.73,0-1.84,0h-.85l-3.68-.1-.88,0c-1.3,0-2.41.13-3.45.07h0c-.22,0-.54,0-.8,0a1.94,1.94,0,0,1-.33,0,4.86,4.86,0,0,1-1.37-.54,93,93,0,0,0-21.46-2.86c-9.24,0-17.53.67-18.88-.46s-2.18-12.76,5.71-13.52l9.7,3.68s22.15-2.63,30.27,3.36S343.29,348.79,343.29,348.79Z"/><path class="cls-5" d="M332.56,348.69c-.22,0-.54,0-.8,0a9.39,9.39,0,0,0-.85-1.14c-2.5-2.55-8.54-4.2-10.73-4.73a.38.38,0,0,1-.28-.45.38.38,0,0,1,.46-.28c3.19.77,10,2.74,11.88,6C332.3,348.18,332.46,348.49,332.56,348.69Z"/><path class="cls-5" d="M336.92,348.65l-.88,0c-2.73-5-7.19-6.41-12.71-8.19l-.33-.1a.39.39,0,0,1-.24-.48.39.39,0,0,1,.48-.24l.32.11C329.39,341.59,334.09,343.1,336.92,348.65Z"/><path class="cls-5" d="M341.45,348.76h-.85a21.8,21.8,0,0,0-14.38-10.67.37.37,0,0,1-.31-.43.38.38,0,0,1,.43-.3C333.81,338.75,339.84,344.85,341.45,348.76Z"/><path class="cls-4" d="M282.83,173.21a19.36,19.36,0,0,0,7.76-8.28,23.46,23.46,0,0,0,2.79-11.58s5.8-.93,14.49,1.65,19,6.11,27.72,1.14,8.69-12.93,4.45-16.24c-4.75-3.71-14.17-1.45-14.17-1.45s3.62-3.52,1.65-5.59-9.1.62-9.1.62-8.69-6.93-25.14-6.1S269,139.69,268,152.52s3.72,25.65,3.72,25.65Z"/><path class="cls-12" d="M277,190.9s.83,3.21,5.59,6.93a55.22,55.22,0,0,0,11.65,6.45l.55-2.42s-7.14-3.1-10.45-6.51-3.72-5.28-3.72-5.28Z"/><path class="cls-5" d="M295.66,200.08a6,6,0,0,1,6.23,4.81c.27,2-1.57,4.15-5.87,2.22C290.67,204.72,291.83,200.26,295.66,200.08Z"/><path class="cls-12" d="M280,167.21s1.65-11.89,9.62-20c15.21-15.41,28.14-14.48,28.14-14.48s-.11-2.17-5-3.83c-4.56-1.55-6.62-.72-6.62-.72s-12.52,1-23.07,12.72-11.69,26.59-11.69,26.59Z"/><path class="cls-6" d="M278.9,165.76c-10-1.69-15.52,6.1-15.93,14s5.3,13.83,12.93,13.24C293.07,191.62,291.11,167.83,278.9,165.76Z"/><path class="cls-13" d="M273.94,185.33a6.78,6.78,0,0,1-6.12-3.65,7.57,7.57,0,0,1,.29-7.82.38.38,0,0,1,.52-.1.37.37,0,0,1,.1.52,6.81,6.81,0,0,0-.25,7,6,6,0,0,0,5.65,3.25,6.54,6.54,0,0,0,5.43-2.93,8.27,8.27,0,0,0,.82-7.35,5.59,5.59,0,0,0-5.58-3.67.37.37,0,0,1-.42-.32.39.39,0,0,1,.32-.42,6.28,6.28,0,0,1,6.39,4.15,9.08,9.08,0,0,1-.9,8,7.28,7.28,0,0,1-6,3.26Z"/><path class="cls-8" d="M266.69,217.79s-30.2,7.45-40.75,19.45-15.52,71.18-15.73,82.14,7.45,15.52,12,18.62,24.62,8.69,40.76,9.52,31.45,0,31.45,0a21.54,21.54,0,0,1,2.43-8.69c2.3-4.8,5.22-5.79,5.22-5.79l-13.86-5s-2.43-43.49-6.21-64.55C277.66,239.31,266.69,217.79,266.69,217.79Z"/><path class="cls-9" d="M316.76,321.12a.51.51,0,0,1-.2,0,.49.49,0,0,1-.25-.66c2.83-6.39,5.76-18.92,7.41-27.72l.14-.71c.5-2.58,1.12-5.8-.12-8-.64-1.14-2.07-3.59-3.44-6s-2.77-4.77-3.15-5.46c-.73-1.35,1.57-5,4.89-9.91.89-1.34,1.67-2.49,2.12-3.27,1.19-2.05.4-3.93-.51-6.1l-.32-.75c-.82-2-1.76-4.06-2.67-6l-1.11-2.41c-.49-1.07-1-2.16-1.47-3.26a188.07,188.07,0,0,0-9.82-19.77.49.49,0,0,1,.18-.68.48.48,0,0,1,.68.17A190,190,0,0,1,319,240.41l1.47,3.25,1.11,2.41c.91,2,1.85,4,2.69,6.08l.31.73c.93,2.22,1.89,4.51.46,7-.47.81-1.25,2-2.16,3.33-1.73,2.58-5.34,7.95-4.84,8.88.37.67,1.71,3,3.13,5.43s2.82,4.83,3.45,6c1.42,2.54.76,6,.23,8.7l-.14.71c-.6,3.2-3.79,19.6-7.48,27.93A.5.5,0,0,1,316.76,321.12Z"/><path class="cls-9" d="M287.28,322.88a.47.47,0,0,1-.35-.15c-2.36-2.37-13.69-22-14.54-25.69-.46-2,.7-7.15,1.82-12.1.87-3.85,1.77-7.82,1.52-8.89-.39-1.61-3.29-4-6.09-6.27-3.39-2.76-6.89-5.63-7.57-8.2-.77-2.93-.11-21.27.33-33.4.15-4.37.28-7.81.28-9a.5.5,0,0,1,.5-.5h0a.5.5,0,0,1,.5.5c0,1.25-.13,4.7-.28,9.07-.41,11.34-1.09,30.33-.36,33.11.6,2.27,4.12,5.15,7.23,7.69s6,4.87,6.43,6.81c.31,1.3-.54,5-1.51,9.34-1.05,4.62-2.23,9.86-1.82,11.66.83,3.62,12,22.88,14.27,25.21a.5.5,0,0,1-.36.85Z"/><path class="cls-9" d="M246.63,314.29h-.07a.5.5,0,0,1-.43-.57c.37-2.6,6.11-54.4,6.37-58.36a.49.49,0,0,1,.53-.47.5.5,0,0,1,.47.53c-.27,4-6,55.84-6.38,58.45A.5.5,0,0,1,246.63,314.29Z"/><path class="cls-9" d="M287.8,328.36a.63.63,0,0,1-.19,0c-1.27-.52-6.89-2.41-14-4.81-14.36-4.85-34-11.48-37.77-13.42a.5.5,0,0,1,.46-.89c3.67,1.91,24.11,8.8,37.62,13.36,7.13,2.4,12.77,4.3,14.07,4.83a.5.5,0,0,1,.27.65A.49.49,0,0,1,287.8,328.36Z"/><path class="cls-9" d="M280.89,349c-12.63,0-37.13-2.28-55.74-8.86a.51.51,0,0,1-.31-.64.5.5,0,0,1,.64-.3c23.51,8.31,56.4,9.73,62.52,8.36a.5.5,0,0,1,.6.38.49.49,0,0,1-.38.59A39.61,39.61,0,0,1,280.89,349Z"/><path class="cls-14" d="M121.57,224c3.92,3.45,8.89,5.66,12.33,9.65,1.36,1.57,2.58,3.24,3.83,4.89.92,1.2,3.36,3.18,3.76,4.69.17.66.14-.23,0-.9l0-.08c-.34-3-.59-6.11-.7-9.18s.09-6.13-.1-9.18c-.28-4.31-1.62-8.48-5.14-11.18-1.72-1.32-3.94-2.13-5.52-3.59s-.9-3,0-4.53a15.82,15.82,0,0,0,2.15-4.55,8.07,8.07,0,0,0-1.31-5.47c-2-3.44-6.6-7.28-10.9-6.76-3.59.43-4,4.57-3.94,7.45s.32,5.6.35,8.41-.46,5.71-.5,8.58C115.73,217.17,118,220.89,121.57,224Z"/><path class="cls-14" d="M158,268.82a45.5,45.5,0,0,1,3.89-7.41c2.11-3.25,4.45-6.41,5.87-10.05s1.24-7.69,1.38-11.61c.11-2.87,1-5.74.73-8.62-.11-1.39-.91-3.62-2.69-3.39-1.4.17-2.22,1.9-2.76,3a52.68,52.68,0,0,0-2.27,6c-.27.79-.53,1.59-.87,2.35-.2.44-.84,1.53-1.43,1.38-1-.25-.1-4.4,0-5.14.76-3.69,1.91-7.12,2.06-10.92.23-5.51-.19-12.07-5.58-15.08-1.41-.79-3.19-1.25-4.53-.08s-1.69,3.18-1.89,4.84c-.6,5.08.6,9.9,2.23,14.69,1.34,3.95,2.94,8,3.06,12.25.11,4.07-2,7.67-3,11.52A36.31,36.31,0,0,0,151,263.89c0,2.49.08,4.94.26,7.42.17,2.28.37,4.56.65,6.82.05.46.11.94.17,1.42-.88-2.11-1.18-4.52-1.91-6.64-1.29-3.76-2.78-7.45-4-11.23a92.17,92.17,0,0,0-3.33-9.27c-1.27-2.82-2.79-5.8-5.15-7.87a7.56,7.56,0,0,0-5.06-2,13.85,13.85,0,0,0-3.48.74,3.9,3.9,0,0,1-3.74-.66c-3.87-3-5-8.28-7.9-12-2.13-2.81-7.19-7.58-10.91-4.53-2,1.62-2.52,4.76-2.41,7.16a17.44,17.44,0,0,0,3,8.29c1.67,2.68,3.82,5.08,5.36,7.83a8.31,8.31,0,0,1,.9,5,12.19,12.19,0,0,0,.3,5.07c1.77,5,7.3,4.32,11.6,4.45a32.21,32.21,0,0,1,9.09,1.5,10.11,10.11,0,0,1,6.63,6.52c.85,2.36,1.31,5.05,2.92,7.05a7.41,7.41,0,0,0,2.85,2.13c1.68.74,6.79,1.06,6.83.6A22.86,22.86,0,0,1,155,277C155.87,274.22,156.89,271.51,158,268.82Z"/><path class="cls-15" d="M181.75,267.88c-.44-2.87-.36-6-1.72-8.65a.38.38,0,0,0-.52-.14c-1,.54-1,2.11-1.1,3.07-.13,1.6,0,3.2-.23,4.79a36,36,0,0,1-2,8.31,9,9,0,0,1-6.23,5.6,15.66,15.66,0,0,0-5.44,2.41,11.48,11.48,0,0,0-3.2,4.4c-2,4.51-3,9.54-3.89,14.36-.63,3.24-1.14,6.5-1.93,9.71a94.59,94.59,0,0,0-2.08,9.67c-.08.17-.16.33-.23.5-.21.49.56.75.82.35,3.11-4.79,6.9-9.08,12.06-11.71,2.33-1.19,5.43-1.44,7.38-3.31,1.48-1.42,1.68-3.59,1.46-5.52-.29-2.55-1.51-4.64-2.78-6.8-.69-1.19-1.52-2.47-1.24-3.91a5,5,0,0,1,2.53-3.07c2.14-1.33,4.65-1.93,6.41-3.85a10.49,10.49,0,0,0,2.72-6.41A44.23,44.23,0,0,0,181.75,267.88Z"/><path class="cls-14" d="M139.38,284.39a41.22,41.22,0,0,0-9.77-9.05c-2-1.32-6.67-3.92-7.62,0-.55,2.28,1.68,4.53,3.15,6,2.21,2.14,4.76,4,6.62,6.47-2.3.74-4.71.88-6.72,2.48-2.37,1.89-3.44,5.53-1.08,7.85a14.91,14.91,0,0,0,4.09,2.51c1.86.9,3.75,1.71,5.65,2.5,4.11,1.72,8.27,3.46,11.77,6.27s6.93,7.71,7.21,12.38c0,.45-.14,0,.12-.16.15.13.64-.1.64-.37a49.29,49.29,0,0,0-4.16-19.88A82.71,82.71,0,0,0,139.38,284.39Z"/><path class="cls-16" d="M129.91,219.84c1.52,3.14,3.1,6.2,4.78,9.27a75.29,75.29,0,0,1,4.44,9c1.49,3.87,3.05,7.69,4.62,11.52a112.27,112.27,0,0,1,4.27,12.2,144.67,144.67,0,0,1,4.83,24.81,100,100,0,0,1,.51,12.83c-.09,3.34-.47,6.65-.78,10a58.73,58.73,0,0,0-.28,10.44c.25,2.9.71,6.35,3,8.42a.52.52,0,0,0,.81-.62c-2.68-5.49-2.53-11.48-2-17.43.29-3.29.68-6.56.79-9.86a98,98,0,0,0-.42-12.59,149.06,149.06,0,0,0-4.54-24.32,111.49,111.49,0,0,0-4-12c-1.56-3.94-3.36-7.78-4.87-11.74-2.73-7.17-6.89-13.52-10.58-20.2-.19-.35-.69,0-.53.31Z"/><path class="cls-16" d="M153,278.44c.43-5.22.89-10.24,2.65-15.22.82-2.32,1.82-4.58,2.61-6.91.65-1.93,1.63-4.57,1.13-6.62a.23.23,0,0,0-.45,0c-.34,1.17-.3,2.45-.55,3.65a31.25,31.25,0,0,1-.91,3.45c-.77,2.41-1.78,4.73-2.66,7.1a35.24,35.24,0,0,0-2.18,14.55.18.18,0,0,0,.36,0Z"/><path class="cls-16" d="M122.73,248.45c2.08,5,8.3,5.29,12.84,6.41a12,12,0,0,1,7.35,5.77,43.78,43.78,0,0,1,4.19,10.1s.07,0,.06,0c-1.27-6-3.08-13.22-9.27-16-5-2.24-11.48-1.12-14.65-6.47-.16-.26-.64-.08-.52.22Z"/><path class="cls-16" d="M149.7,277.65c.25.33.47.68.73,1a2.85,2.85,0,0,0,.41.44,1,1,0,0,0,.58.3.13.13,0,0,0,.11-.19,2.1,2.1,0,0,0-.44-.4l-.44-.39c-.29-.28-.55-.57-.84-.85-.05-.06-.16,0-.11.08Z"/><path class="cls-16" d="M136.75,293.53a50.47,50.47,0,0,1,9.49,10.2,63.33,63.33,0,0,1,3.45,5.69,62.62,62.62,0,0,1,2.8,6.59c.06.17.37.17.35-.05-.5-4.71-3.48-8.74-5.87-12.66a30.41,30.41,0,0,0-4.44-5.37,39.08,39.08,0,0,0-5.46-4.82c-.24-.17-.56.23-.32.42Z"/><path class="cls-16" d="M165.2,288c-1.72,1-1.77,3.69-1.81,5.43-.06,3.33.76,6.46-.7,9.64-1.32,2.87-3.43,5.27-5.1,7.94-1.55,2.49-3.08,5.68-3.05,8.68,0,.18.27.28.35.1a35.57,35.57,0,0,0,1.3-4.34,18,18,0,0,1,2.12-4.48c1.6-2.48,3.56-4.73,4.86-7.39s1.16-5.59,1.07-8.63c-.06-1.94-.25-5.06,1.31-6.5.25-.23-.06-.61-.35-.45Z"/><path class="cls-6" d="M153.69,320c-6.93-.09-20.13-.17-20.13-.17l3.26,24.26a11,11,0,0,0,10.91,9.54h11.93a11,11,0,0,0,10.91-9.54l3.26-24.26S160.63,319.9,153.69,320Z"/><path class="cls-14" d="M17.4,279.45c3.93,3.45,8.9,5.66,12.34,9.65,1.35,1.57,2.57,3.24,3.83,4.89.91,1.2,3.35,3.19,3.75,4.69.18.67.14-.23,0-.9,0,0,0,0,0-.08-.34-3.05-.59-6.11-.69-9.18s.08-6.13-.11-9.18c-.27-4.31-1.62-8.48-5.14-11.18-1.72-1.32-3.93-2.12-5.51-3.59s-.9-3,0-4.53a15.31,15.31,0,0,0,2.15-4.55A8,8,0,0,0,26.62,250c-2.05-3.44-6.59-7.27-10.9-6.76-3.58.43-4,4.57-3.94,7.45s.33,5.6.35,8.41-.46,5.71-.5,8.58C11.56,272.58,13.82,276.3,17.4,279.45Z"/><path class="cls-15" d="M53.85,324.23a47.12,47.12,0,0,1,3.89-7.41c2.11-3.25,4.46-6.41,5.88-10.05s1.23-7.69,1.38-11.61c.1-2.87,1-5.74.73-8.62-.12-1.39-.91-3.62-2.7-3.39-1.39.17-2.22,1.9-2.76,3a52.68,52.68,0,0,0-2.27,6c-.27.79-.53,1.59-.87,2.35-.2.45-.83,1.53-1.43,1.38-1-.25-.09-4.4.06-5.14.76-3.69,1.9-7.12,2.06-10.92.23-5.51-.2-12.07-5.59-15.08-1.41-.78-3.19-1.25-4.53-.08s-1.69,3.18-1.89,4.84c-.6,5.08.6,9.9,2.23,14.69,1.34,3.95,3,8,3.07,12.25.11,4.07-2,7.68-3,11.52a36.18,36.18,0,0,0-1.26,11.35c0,2.49.08,4.95.26,7.42.16,2.28.36,4.56.64,6.82.06.46.11.94.17,1.42-.88-2.11-1.18-4.52-1.91-6.64-1.28-3.76-2.78-7.45-4-11.23a94.77,94.77,0,0,0-3.34-9.27C37.4,305,35.87,302,33.51,300a7.52,7.52,0,0,0-5.06-2,14.3,14.3,0,0,0-3.48.74,3.93,3.93,0,0,1-3.74-.65c-3.86-3-5-8.29-7.89-12.05-2.14-2.8-7.19-7.58-10.91-4.53-2,1.63-2.52,4.76-2.42,7.16a17.35,17.35,0,0,0,3,8.29c1.66,2.68,3.82,5.08,5.35,7.83a8.34,8.34,0,0,1,.91,5,11.89,11.89,0,0,0,.3,5.07c1.77,5,7.29,4.31,11.59,4.44a32.16,32.16,0,0,1,9.09,1.5,10.11,10.11,0,0,1,6.63,6.52c.85,2.36,1.31,5.05,2.92,7.05a7.42,7.42,0,0,0,2.86,2.13c1.67.74,6.78,1.07,6.82.6a23.69,23.69,0,0,1,1.33-4.7C51.7,329.63,52.73,326.92,53.85,324.23Z"/><path class="cls-14" d="M77.58,323.29c-.44-2.86-.36-6-1.71-8.65a.39.39,0,0,0-.53-.14c-1,.54-1,2.11-1.09,3.07-.13,1.6,0,3.2-.23,4.79a35.86,35.86,0,0,1-2,8.31,9,9,0,0,1-6.22,5.61,15.5,15.5,0,0,0-5.45,2.4,11.45,11.45,0,0,0-3.19,4.4c-2,4.51-3,9.55-3.9,14.36-.63,3.24-1.14,6.5-1.93,9.71a97.34,97.34,0,0,0-2.08,9.67c-.07.17-.16.33-.23.5-.2.49.56.76.83.35,3.11-4.78,6.89-9.08,12-11.71,2.34-1.19,5.43-1.44,7.38-3.31,1.48-1.42,1.68-3.59,1.46-5.52-.29-2.54-1.51-4.64-2.77-6.8-.7-1.19-1.52-2.46-1.24-3.91a5,5,0,0,1,2.52-3.06c2.15-1.34,4.66-1.94,6.42-3.86a10.51,10.51,0,0,0,2.71-6.41A43.64,43.64,0,0,0,77.58,323.29Z"/><path class="cls-14" d="M35.22,339.8a41.08,41.08,0,0,0-9.78-9.05c-2-1.32-6.67-3.92-7.62,0-.55,2.28,1.68,4.53,3.15,6,2.21,2.15,4.76,4,6.63,6.48-2.31.73-4.72.88-6.73,2.47-2.37,1.89-3.43,5.53-1.08,7.85A15,15,0,0,0,23.88,356c1.86.9,3.75,1.71,5.65,2.51,4.11,1.71,8.27,3.45,11.77,6.26s6.93,7.71,7.21,12.38c0,.45-.14,0,.13-.16.14.13.63-.1.63-.36a49.29,49.29,0,0,0-4.15-19.89A83.17,83.17,0,0,0,35.22,339.8Z"/><path class="cls-16" d="M25.75,275.25c1.51,3.14,3.09,6.21,4.77,9.27a73.81,73.81,0,0,1,4.44,9c1.49,3.87,3,7.69,4.62,11.52a115.28,115.28,0,0,1,4.28,12.2,144.59,144.59,0,0,1,4.83,24.82,99.73,99.73,0,0,1,.5,12.82c-.09,3.34-.47,6.65-.78,10a58.72,58.72,0,0,0-.27,10.44c.24,2.9.7,6.35,3,8.43a.52.52,0,0,0,.81-.63c-2.67-5.49-2.52-11.48-2-17.43.28-3.29.67-6.56.78-9.86a98,98,0,0,0-.42-12.59,147.69,147.69,0,0,0-4.54-24.31,110.93,110.93,0,0,0-4-12c-1.56-3.94-3.36-7.77-4.87-11.74C34.12,288,30,281.62,26.27,274.94c-.19-.35-.69,0-.52.31Z"/><path class="cls-16" d="M48.81,333.85c.43-5.22.9-10.24,2.66-15.22.82-2.32,1.81-4.58,2.6-6.91.66-1.93,1.64-4.57,1.13-6.62a.24.24,0,0,0-.45,0c-.34,1.17-.3,2.45-.54,3.65a31.29,31.29,0,0,1-.92,3.45c-.77,2.41-1.78,4.73-2.65,7.1a35.08,35.08,0,0,0-2.19,14.55.18.18,0,0,0,.36,0Z"/><path class="cls-16" d="M18.57,303.86c2.07,5,8.3,5.29,12.83,6.41A12.06,12.06,0,0,1,38.75,316a44.26,44.26,0,0,1,4.2,10.1s.06,0,.06,0c-1.27-6-3.09-13.22-9.27-16-5-2.24-11.49-1.11-14.66-6.47-.15-.26-.64-.08-.51.22Z"/><path class="cls-16" d="M45.54,333.06c.24.33.47.68.72,1a2.92,2.92,0,0,0,.42.44.94.94,0,0,0,.57.3.13.13,0,0,0,.11-.19,2,2,0,0,0-.43-.4l-.45-.39-.83-.85c-.06-.06-.16,0-.11.08Z"/><path class="cls-16" d="M32.58,348.94a50.26,50.26,0,0,1,9.49,10.21,61.88,61.88,0,0,1,3.46,5.68,64.74,64.74,0,0,1,2.79,6.59c.07.17.38.17.35-.05-.49-4.7-3.47-8.74-5.86-12.66a30.41,30.41,0,0,0-4.44-5.37,39.82,39.82,0,0,0-5.47-4.82c-.24-.17-.55.23-.32.42Z"/><path class="cls-16" d="M61,343.4c-1.72,1-1.78,3.69-1.81,5.43-.07,3.33.76,6.46-.71,9.64-1.32,2.87-3.43,5.27-5.09,7.94-1.56,2.49-3.09,5.68-3.06,8.69,0,.17.27.27.35.09a33.89,33.89,0,0,0,1.3-4.34,18.4,18.4,0,0,1,2.12-4.48c1.6-2.48,3.56-4.73,4.86-7.39,1.37-2.81,1.17-5.59,1.08-8.63-.06-1.94-.26-5.06,1.31-6.5.24-.22-.07-.61-.35-.45Z"/><path class="cls-17" d="M49.53,375.41c-6.93-.1-20.14-.18-20.14-.18l3.27,24.27A11,11,0,0,0,43.56,409H55.5a11,11,0,0,0,10.9-9.53l3.27-24.27S56.46,375.31,49.53,375.41Z"/><polygon class="cls-18" points="503.49 276.14 463.94 354.48 348.63 355.31 384.21 275.04 503.49 276.14"/><path class="cls-19" d="M272.1,354.82l0-6.27h74.64l34.35-75.31H500.49l3,2.9H386.87l-35.69,78.62S272.1,354.62,272.1,354.82Z"/><path class="cls-19" d="M443.61,319.37c-1.3,3.91-8.37,6.93-15.79,6.74s-12.38-3.5-11.08-7.41,8.38-6.92,15.8-6.74S444.91,315.46,443.61,319.37Z"/><path class="cls-6" d="M351.18,355.26a.52.52,0,0,1-.21,0,.51.51,0,0,1-.25-.67l35.82-78.91h117a.5.5,0,0,1,0,1H387.19L351.63,355A.49.49,0,0,1,351.18,355.26Z"/><rect class="cls-20" x="129.73" y="360.76" width="137.17" height="30.41"/><rect class="cls-21" x="266.12" y="360.76" width="246.8" height="30.41"/><polygon class="cls-22" points="266.9 360.76 266.12 360.76 129.73 360.76 129.73 366.35 266.12 366.35 266.9 366.35 512.92 366.35 512.92 360.76 266.9 360.76"/><rect class="cls-23" x="123.11" y="354.76" width="149.79" height="7.45"/><rect class="cls-24" x="272.12" y="354.76" width="246.8" height="7.45"/><rect class="cls-6" x="178.42" y="160.16" width="59.28" height="35.03" rx="5.43"/><polygon class="cls-6" points="251.5 177.68 233.31 170 233.31 185.35 251.5 177.68"/><circle class="cls-5" cx="196.57" cy="177.68" r="3.35"/><circle class="cls-5" cx="208.06" cy="177.68" r="3.35"/><circle class="cls-5" cx="219.54" cy="177.68" r="3.35"/><path class="cls-25" d="M494,67.17H382.25a13,13,0,0,0-13,13v53a13,13,0,0,0,13,13h10c.28,4.81-.41,12-4.42,21.11a56.16,56.16,0,0,0,24.23-21.11h82a13,13,0,0,0,13-13v-53A13,13,0,0,0,494,67.17Z"/><path class="cls-6" d="M446.35,92.44H390.9a2.76,2.76,0,0,1-2.76-2.76h0a2.76,2.76,0,0,1,2.76-2.75h55.45a2.76,2.76,0,0,1,2.76,2.75h0A2.76,2.76,0,0,1,446.35,92.44Z"/><path class="cls-26" d="M486.11,108.51H389.83a1.69,1.69,0,0,1-1.69-1.69h0a1.69,1.69,0,0,1,1.69-1.69h96.28a1.69,1.69,0,0,1,1.69,1.69h0A1.69,1.69,0,0,1,486.11,108.51Z"/><path class="cls-26" d="M486.11,117.89H389.83a1.69,1.69,0,0,1-1.69-1.69h0a1.69,1.69,0,0,1,1.69-1.69h96.28a1.69,1.69,0,0,1,1.69,1.69h0A1.69,1.69,0,0,1,486.11,117.89Z"/><path class="cls-26" d="M465.11,127.89H389.83a1.69,1.69,0,0,1-1.69-1.69h0a1.69,1.69,0,0,1,1.69-1.69h75.28a1.69,1.69,0,0,1,1.69,1.69h0A1.69,1.69,0,0,1,465.11,127.89Z"/><path class="cls-6" d="M485.35,92.44H458.9a2.76,2.76,0,0,1-2.76-2.76h0a2.76,2.76,0,0,1,2.76-2.75h26.45a2.75,2.75,0,0,1,2.76,2.75h0A2.75,2.75,0,0,1,485.35,92.44Z"/><rect class="cls-6" x="415.16" y="183.21" width="34.03" height="24.52" rx="2"/><path class="cls-23" d="M432.38,199.13a.78.78,0,0,1-.48-.17l-16.34-13.5a.75.75,0,0,1,.95-1.16l15.86,13.1L447.82,184a.75.75,0,0,1,1.06.08.74.74,0,0,1-.08,1.05L432.87,199A.74.74,0,0,1,432.38,199.13Z"/><path class="cls-23" d="M416,207.17a.73.73,0,0,1-.51-.21.75.75,0,0,1,0-1.06l11.43-12a.75.75,0,1,1,1.09,1l-11.43,12A.75.75,0,0,1,416,207.17Z"/><path class="cls-23" d="M448.31,206.73a.79.79,0,0,1-.53-.22l-11.39-11.42a.75.75,0,0,1,0-1.06.75.75,0,0,1,1.06,0l11.38,11.42a.75.75,0,0,1,0,1.06A.79.79,0,0,1,448.31,206.73Z"/><circle class="cls-27" cx="450.75" cy="182.45" r="10.03"/><rect class="cls-5" x="516.88" y="173.24" width="66.62" height="17.17" rx="4"/><path class="cls-6" d="M525.12,186.33a.79.79,0,0,1-.64-.28.93.93,0,0,1-.21-.7l.26-2.23a.1.1,0,0,0,0-.11.13.13,0,0,0-.14,0l-1.83,1.32a.9.9,0,0,1-.71.19.91.91,0,0,1-.59-.44.86.86,0,0,1-.1-.79,1,1,0,0,1,.52-.48l2.06-.93c.06,0,.08,0,.08-.08s0-.07-.08-.08l-2.06-.93a.83.83,0,0,1-.5-.54.9.9,0,0,1,.08-.73.91.91,0,0,1,.59-.44,1,1,0,0,1,.71.16l1.83,1.35a.13.13,0,0,0,.14,0s0-.06,0-.12l-.26-2.22a.91.91,0,0,1,.23-.7.85.85,0,0,1,.67-.28.84.84,0,0,1,.85,1l-.26,2.22c0,.06,0,.1,0,.12a.13.13,0,0,0,.14,0l1.83-1.32a.93.93,0,0,1,.72-.19,1,1,0,0,1,.67,1.23.91.91,0,0,1-.52.48l-2,.93c-.06,0-.08,0-.08.08s0,.07.08.08l2,.93a.87.87,0,0,1,.52.54.8.8,0,0,1-.09.73.83.83,0,0,1-.58.44,1,1,0,0,1-.72-.16L525.93,183a.13.13,0,0,0-.14,0s0,.06,0,.11l.26,2.23a.83.83,0,0,1-.21.7A.9.9,0,0,1,525.12,186.33Z"/><path class="cls-6" d="M537.24,186.33a.78.78,0,0,1-.63-.28.93.93,0,0,1-.21-.7l.25-2.23c0-.05,0-.09,0-.11s-.08,0-.14,0l-1.83,1.32a.83.83,0,0,1-1.29-.25.86.86,0,0,1-.1-.79,1,1,0,0,1,.52-.48l2.05-.93c.06,0,.09,0,.09-.08s0-.07-.09-.08l-2.05-.93a.88.88,0,0,1-.51-.54,1,1,0,0,1,.09-.73.89.89,0,0,1,.59-.44.94.94,0,0,1,.7.16l1.83,1.35c.06,0,.1,0,.14,0s0-.06,0-.12l-.25-2.22a.9.9,0,0,1,.22-.7.87.87,0,0,1,.68-.28.83.83,0,0,1,.65.28.85.85,0,0,1,.19.7l-.25,2.22q0,.09,0,.12s.08,0,.14,0l1.83-1.32a.91.91,0,0,1,.72-.19.81.81,0,0,1,.57.44.86.86,0,0,1,.1.79,1,1,0,0,1-.52.48l-2,.93c-.06,0-.09,0-.09.08s0,.07.09.08l2,.93a.89.89,0,0,1,.52.54.84.84,0,0,1-.1.73.81.81,0,0,1-.57.44,1,1,0,0,1-.72-.16L538.06,183c-.06,0-.11,0-.14,0s0,.06,0,.11l.25,2.23a.8.8,0,0,1-.21.7A.9.9,0,0,1,537.24,186.33Z"/><path class="cls-6" d="M549.37,186.33a.79.79,0,0,1-.64-.28.93.93,0,0,1-.21-.7l.26-2.23a.1.1,0,0,0,0-.11.13.13,0,0,0-.14,0l-1.83,1.32a.9.9,0,0,1-.71.19.91.91,0,0,1-.59-.44.86.86,0,0,1-.1-.79,1,1,0,0,1,.52-.48l2.06-.93c.06,0,.08,0,.08-.08s0-.07-.08-.08l-2.06-.93a.83.83,0,0,1-.5-.54.9.9,0,0,1,.08-.73.91.91,0,0,1,.59-.44,1,1,0,0,1,.71.16l1.83,1.35a.13.13,0,0,0,.14,0s0-.06,0-.12l-.26-2.22a.91.91,0,0,1,.23-.7.85.85,0,0,1,.67-.28.82.82,0,0,1,.65.28.85.85,0,0,1,.2.7l-.26,2.22q0,.09,0,.12a.13.13,0,0,0,.14,0L552,179.3a.93.93,0,0,1,.72-.19,1,1,0,0,1,.67,1.23.91.91,0,0,1-.52.48l-2,.93c-.06,0-.08,0-.08.08s0,.07.08.08l2,.93a.87.87,0,0,1,.52.54.8.8,0,0,1-.09.73.85.85,0,0,1-.58.44,1,1,0,0,1-.72-.16L550.18,183a.13.13,0,0,0-.14,0s0,.06,0,.11l.26,2.23a.86.86,0,0,1-.21.7A.9.9,0,0,1,549.37,186.33Z"/><path class="cls-6" d="M561.49,186.33a.78.78,0,0,1-.63-.28.93.93,0,0,1-.21-.7l.25-2.23c0-.05,0-.09,0-.11s-.08,0-.14,0l-1.83,1.32a.83.83,0,0,1-1.29-.25.86.86,0,0,1-.1-.79,1,1,0,0,1,.52-.48l2.05-.93c.06,0,.09,0,.09-.08s0-.07-.09-.08l-2.05-.93a.88.88,0,0,1-.51-.54,1,1,0,0,1,.09-.73.89.89,0,0,1,.59-.44.94.94,0,0,1,.7.16l1.83,1.35c.06,0,.1,0,.14,0s0-.06,0-.12l-.25-2.22a.9.9,0,0,1,.22-.7.87.87,0,0,1,.68-.28.8.8,0,0,1,.64.28.82.82,0,0,1,.2.7l-.25,2.22q0,.09,0,.12s.08,0,.14,0l1.83-1.32a.89.89,0,0,1,.71-.19.81.81,0,0,1,.58.44.86.86,0,0,1,.1.79,1,1,0,0,1-.52.48l-2.06.93c-.05,0-.08,0-.08.08s0,.07.08.08l2.06.93a.89.89,0,0,1,.52.54.84.84,0,0,1-.1.73.81.81,0,0,1-.58.44,1,1,0,0,1-.71-.16L562.31,183c-.06,0-.11,0-.14,0s0,.06,0,.11l.25,2.23a.8.8,0,0,1-.21.7A.9.9,0,0,1,561.49,186.33Z"/><path class="cls-28" d="M573.62,186.33a.79.79,0,0,1-.64-.28.93.93,0,0,1-.21-.7l.25-2.23a.09.09,0,0,0,0-.11.13.13,0,0,0-.14,0L571,184.36a.9.9,0,0,1-.71.19.91.91,0,0,1-.59-.44.86.86,0,0,1-.1-.79,1,1,0,0,1,.52-.48l2.06-.93s.08,0,.08-.08,0-.07-.08-.08l-2.06-.93a.83.83,0,0,1-.5-.54.9.9,0,0,1,.08-.73.91.91,0,0,1,.59-.44,1,1,0,0,1,.71.16l1.83,1.35a.13.13,0,0,0,.14,0s0-.06,0-.12l-.25-2.22a.91.91,0,0,1,.23-.7.85.85,0,0,1,.67-.28.83.83,0,0,1,.65.28.85.85,0,0,1,.2.7l-.26,2.22q0,.09,0,.12a.13.13,0,0,0,.14,0l1.83-1.32a.93.93,0,0,1,.72-.19,1,1,0,0,1,.67,1.23.91.91,0,0,1-.52.48l-2,.93c-.06,0-.09,0-.09.08s0,.07.09.08l2,.93a.87.87,0,0,1,.52.54.8.8,0,0,1-.09.73.85.85,0,0,1-.58.44,1,1,0,0,1-.72-.16L574.43,183a.13.13,0,0,0-.14,0s0,.06,0,.11l.26,2.23a.86.86,0,0,1-.21.7A.9.9,0,0,1,573.62,186.33Z"/><path class="cls-17" d="M638.26,299.88c3.27,11.05.79,25.25-3.17,36.08A54.74,54.74,0,0,1,614,362.63c-1.09.71-2.48,1.4-3.62.79a3.71,3.71,0,0,1-1.47-2.72,56.32,56.32,0,0,1,29.35-60.82"/><g class="cls-29"><path class="cls-17" d="M638.26,299.88c3.27,11.05.79,25.25-3.17,36.08A54.74,54.74,0,0,1,614,362.63c-1.09.71-2.48,1.4-3.62.79a3.71,3.71,0,0,1-1.47-2.72,56.32,56.32,0,0,1,29.35-60.82"/></g><path class="cls-25" d="M589.14,247.43c6.89-.19,11.43,7.46,12.12,14.31s-.84,14,1.17,20.56c2.56,8.37,10.38,14.37,12.75,22.8,2.79,9.93-2.66,20.23-2.92,30.55-.12,5,1,10.09.06,15a18.47,18.47,0,0,1-36.23.36c-1.61-7.73,1.79-15.93-.25-23.56-1.51-5.63-5.88-10.42-6.24-16.24-.43-6.93,4.94-12.92,5.93-19.79s-2.47-13.58-3-20.51c-.93-12.42,4.21-22.17,16.6-23.5"/><path class="cls-30" d="M604.23,388.88a3.16,3.16,0,0,0,.2-.69c.12-.53.27-1.19.45-2,.38-1.74,1-4.24,1.7-7.33a237.75,237.75,0,0,1,16.64-46.69c1.37-2.87,2.51-5.18,3.32-6.76l.91-1.83a3.37,3.37,0,0,0,.28-.66s-.16.19-.4.59-.6,1.06-1,1.78c-.88,1.55-2.08,3.83-3.51,6.68a210.39,210.39,0,0,0-9.73,22.89,208.28,208.28,0,0,0-6.93,23.89c-.7,3.11-1.21,5.64-1.5,7.39-.14.82-.25,1.49-.34,2A2.37,2.37,0,0,0,604.23,388.88Z"/><path class="cls-30" d="M589.43,281.3a7.52,7.52,0,0,0,.09,1.11c.1.77.22,1.82.39,3.14.37,2.79.88,6.72,1.52,11.55,1.3,9.74,3.07,23.21,4.94,38.1s3.48,28.38,4.64,38.14c.58,4.84,1,8.78,1.38,11.57.17,1.32.3,2.37.4,3.14a5.7,5.7,0,0,0,.19,1.09,7.55,7.55,0,0,0-.06-1.1c-.07-.78-.16-1.83-.28-3.16-.28-2.8-.68-6.74-1.17-11.59-1-9.78-2.58-23.28-4.45-38.17s-3.72-28.35-5.13-38.09c-.73-4.81-1.31-8.73-1.73-11.52-.21-1.31-.39-2.35-.51-3.12A7.07,7.07,0,0,0,589.43,281.3Z"/><rect class="cls-15" x="575.99" y="375.37" width="52.26" height="6.1"/><polygon class="cls-8" points="580.83 381.47 586.97 418.49 619.38 418.49 623.63 381.47 580.83 381.47"/><path class="cls-31" d="M623.79,381.22c0,.15-9.65.38-21.55.53s-21.57.15-21.57,0,9.65-.38,21.56-.53S623.79,381.08,623.79,381.22Z"/><path class="cls-31" d="M622,399.75l-.29,0-.87.05a23.6,23.6,0,0,1-3.33-.13,10.2,10.2,0,0,1-4.94-1.86,6.93,6.93,0,0,1-2.16-2.54,5,5,0,0,1-.3-3.72,3.37,3.37,0,0,1,3.25-2.36,3,3,0,0,1,2,1,4.78,4.78,0,0,1,1,2.1c.63,3.16-1.59,6.68-5,7.78s-7.58-.8-9.28-4.25a7.06,7.06,0,0,1-.75-2.8,4.53,4.53,0,0,1,.76-2.88,3.62,3.62,0,0,1,2.6-1.56,3.1,3.1,0,0,1,2.74,1.36,4.85,4.85,0,0,1,.9,2.92,6.67,6.67,0,0,1-.75,2.9,9.05,9.05,0,0,1-4.17,3.95,16.84,16.84,0,0,1-5.33,1.51,11.67,11.67,0,0,1-5.3-.46,7.63,7.63,0,0,1-4-3.13,5.47,5.47,0,0,1-.51-4.71,4.29,4.29,0,0,1,3.28-2.94,4.21,4.21,0,0,1,3.82,1.43,3.58,3.58,0,0,1,.34,3.67,5.7,5.7,0,0,1-2.19,2.51,12.85,12.85,0,0,1-2.6,1.26c-.83.31-1.6.56-2.29.76a28.17,28.17,0,0,1-3.26.75l-.86.12a.8.8,0,0,1-.29,0l.29-.07.84-.17c.75-.16,1.84-.41,3.22-.84.69-.21,1.44-.48,2.26-.8a12.74,12.74,0,0,0,2.53-1.27,5.42,5.42,0,0,0,2-2.39,3.29,3.29,0,0,0-.32-3.32,3.84,3.84,0,0,0-3.48-1.26,3.89,3.89,0,0,0-2.94,2.68,5.08,5.08,0,0,0,.5,4.34,7.22,7.22,0,0,0,3.75,2.91,11.22,11.22,0,0,0,5.08.41,16.34,16.34,0,0,0,5.16-1.46,8.62,8.62,0,0,0,3.94-3.73,5.06,5.06,0,0,0-.11-5.28,2.56,2.56,0,0,0-2.28-1.15,3.12,3.12,0,0,0-2.22,1.34,4.1,4.1,0,0,0-.67,2.56,6.49,6.49,0,0,0,.7,2.59c1.58,3.24,5.49,5.1,8.67,4s5.26-4.33,4.69-7.23a4.28,4.28,0,0,0-.9-1.91,2.58,2.58,0,0,0-1.73-.9,3,3,0,0,0-2.89,2.08,4.73,4.73,0,0,0,.26,3.46,6.65,6.65,0,0,0,2,2.45,10.27,10.27,0,0,0,4.79,1.89,26.52,26.52,0,0,0,3.31.22h.87A.94.94,0,0,1,622,399.75Z"/><rect class="cls-32" x="21.69" y="119.76" width="59.84" height="40.34" transform="translate(-47.46 28.44) rotate(-21.38)"/><path class="cls-33" d="M72.47,110.62a3.39,3.39,0,0,1-.32.7l-1,2-3.84,7.19c-3.31,6.1-7.85,14.45-12.88,23.69l-.1.19-.22-.06-.51-.16L27.5,136l-7.88-2.53-2.14-.72a5.91,5.91,0,0,1-.73-.28,3.61,3.61,0,0,1,.76.18l2.17.61,7.93,2.37,26.13,8,.51.16-.32.13L67,120.3c1.66-3,3-5.38,4-7.11l1.11-1.92A4.73,4.73,0,0,1,72.47,110.62Z"/><path class="cls-33" d="M31.45,170c-.14-.05,2-6.84,4.86-15.17s5.23-15,5.37-15-2,6.83-4.86,15.16S31.59,170.05,31.45,170Z"/><path class="cls-33" d="M60,132.12c.08-.13,6.22,3.37,13.72,7.8s13.51,8.13,13.44,8.26-6.22-3.36-13.72-7.79S59.94,132.25,60,132.12Z"/><rect class="cls-34" x="302.53" y="-4.17" width="40.34" height="59.84" transform="translate(232.81 336.75) rotate(-78.44)"/><path class="cls-33" d="M356.15,12.5a4.67,4.67,0,0,1-.66.42L353.57,14l-7.14,4L322.74,30.84l-.19.11-.14-.18-.35-.41-17.44-21-5.24-6.42c-.58-.73-1.05-1.31-1.4-1.76a4.61,4.61,0,0,1-.47-.64,4,4,0,0,1,.55.57l1.48,1.7,5.37,6.3L322.48,30l.34.42-.33-.07,23.76-12.73,7.22-3.8,2-1A5.41,5.41,0,0,1,356.15,12.5Z"/><path class="cls-33" d="M289.43,40c-.09-.12,5.43-4.63,12.32-10.08s12.57-9.78,12.66-9.66S309,24.92,302.09,30.37,289.53,40.15,289.43,40Z"/><path class="cls-33" d="M334,23.78c.14-.07,3.39,6.2,7.28,14S348.2,52,348.06,52s-3.39-6.2-7.27-14S333.87,23.85,334,23.78Z"/></g></g></g></svg>