<svg xmlns="http://www.w3.org/2000/svg" viewBox="0 0 697.9 410.97"><defs><style>.cls-1{fill:#dae3ea;}.cls-2{fill:#f4f4f4;}.cls-3{fill:#efefef;}.cls-4{fill:#f7f7f7;}.cls-5{fill:#ffbe9d;}.cls-6{fill:#2a85f5;}.cls-7{opacity:0.4;}.cls-8{opacity:0.2;}.cls-9{fill:#263238;}.cls-10{fill:#455a64;}.cls-11{fill:#fafafa;}.cls-12{fill:#e8505b;}.cls-13{opacity:0.3;}.cls-14{fill:#eb996e;}.cls-15{fill:#08101f;}.cls-16{fill:#31b1e7;}.cls-17{fill:#2e4050;}.cls-18{opacity:0.5;}.cls-19{fill:#ebebeb;}.cls-20{fill:#51667b;}</style></defs><g id="Layer_2" data-name="Layer 2"><g id="Plant"><rect class="cls-1" x="17.94" y="184.51" width="49.17" height="72.94" transform="translate(-180.18 188.66) rotate(-70.85)"/><path class="cls-2" d="M85,209.72a6.5,6.5,0,0,1-.86.39l-2.5,1-9.26,3.62L41.73,226.49l-.25.1-.15-.23-.35-.55L23.29,197.58,18,189c-.58-1-1-1.76-1.41-2.35a6,6,0,0,1-.45-.85,5.73,5.73,0,0,1,.56.78c.39.57.89,1.33,1.52,2.28,1.33,2.07,3.19,5,5.48,8.48,4.6,7.25,10.89,17.17,17.85,28.12l.35.56-.4-.14,30.77-11.56,9.33-3.42,2.54-.9A5,5,0,0,1,85,209.72Z"/><path class="cls-2" d="M0,232.24c-.09-.16,7.3-4.73,16.51-10.2s16.76-9.79,16.85-9.63-7.3,4.72-16.51,10.2S.09,232.39,0,232.24Z"/><path class="cls-2" d="M56.47,219.78c.17-.06,3.1,8,6.53,18.08s6.08,18.24,5.91,18.3-3.1-8-6.54-18.08S56.29,219.84,56.47,219.78Z"/><rect class="cls-1" x="57.44" y="69.34" width="72.94" height="49.17" transform="matrix(0.95, -0.31, 0.31, 0.95, -24.23, 33.24)"/><path class="cls-2" d="M121.11,59.36a5.12,5.12,0,0,1-.44.83c-.35.58-.82,1.35-1.39,2.31-1.27,2.06-3,4.93-5.22,8.46L96.6,98.8l-.15.23-.25-.1-.61-.23L64.48,86.79l-9.4-3.68-2.54-1a4.48,4.48,0,0,1-.87-.41,6.22,6.22,0,0,1,.91.28l2.59.92,9.48,3.48L95.82,98.08l.61.24-.39.13,17.63-27.74,5.39-8.34,1.49-2.25A4.62,4.62,0,0,1,121.11,59.36Z"/><path class="cls-2" d="M66.71,128.48c-.17-.07,3-8.16,7.06-18.07s7.5-17.9,7.67-17.83-3,8.16-7.06,18.08S66.88,128.55,66.71,128.48Z"/><path class="cls-2" d="M104.33,84.57c.11-.15,7.31,4.56,16.1,10.52s15.83,10.92,15.73,11.07-7.31-4.55-16.1-10.52S104.23,84.72,104.33,84.57Z"/><rect class="cls-1" x="474.8" y="175.48" width="154.53" height="104.16" transform="translate(-30.26 95.42) rotate(-9.62)"/><path class="cls-3" d="M619.54,163.31a10.69,10.69,0,0,1-1.18,1.61l-3.62,4.43-13.49,16.16c-11.59,13.67-27.45,32.38-45,53.1l-.37.44-.5-.28-1.22-.67-61.62-34.38-18.59-10.56-5-2.93a9.87,9.87,0,0,1-1.7-1.11A11.85,11.85,0,0,1,469,190l5.15,2.7L493,202.85l61.82,34,1.22.67-.87.16,45.34-52.83L614.33,169c1.59-1.77,2.85-3.19,3.81-4.27A12.18,12.18,0,0,1,619.54,163.31Z"/><path class="cls-3" d="M484.59,291.82c-.33-.2,8.74-16.22,20.26-35.78S526,220.78,526.32,221s-8.74,16.21-20.26,35.78S484.92,292,484.59,291.82Z"/><path class="cls-3" d="M576.75,211.11c.26-.28,14,11.77,30.57,26.93s29.89,27.67,29.62,28S623,254.23,606.37,239.07,576.48,211.4,576.75,211.11Z"/><rect class="cls-1" x="467.78" y="-0.38" width="74.99" height="111.26" transform="translate(268.96 505.26) rotate(-68.53)"/><path class="cls-4" d="M570.77,41.68a6.52,6.52,0,0,1-1.33.55l-3.87,1.4-14.33,4.94-47.51,16-.39.13-.2-.36-.5-.86L477.42,19.38,469.87,6l-2-3.67A7.84,7.84,0,0,1,467.23,1,7.57,7.57,0,0,1,468,2.18c.55.91,1.27,2.1,2.18,3.58L478,19C484.6,30.36,493.59,45.86,503.51,63l.5.87-.6-.23L551,47.9l14.43-4.64L569.38,42A9.11,9.11,0,0,1,570.77,41.68Z"/><path class="cls-4" d="M439.79,70.76c-.14-.24,11.41-6.75,25.79-14.53s26.14-13.88,26.27-13.64-11.41,6.75-25.79,14.53S439.92,71,439.79,70.76Z"/><path class="cls-4" d="M526.61,55.25c.27-.08,4.23,12.45,8.84,28s8.15,28.18,7.88,28.26-4.23-12.44-8.84-28S526.34,55.33,526.61,55.25Z"/><path class="cls-5" d="M108.15,137.55l14.32-5.07-6.15-8.21a31.85,31.85,0,0,1-.44-5.49,8.46,8.46,0,0,1,.48-2.78,12.71,12.71,0,0,1,1.49-3.18,1.09,1.09,0,0,0-1-1.82c-.95.25-2.88,2.53-3.73,5.91s-3.17-1.6-4-3.39-3.85-7.23-4.62-7.4c-1.12-.25-1.59.91-.67,2.68s3.29,7.29,2.31,7.71-5.29-8.8-5.29-8.8-.6-2.12-1.74-1.67c-2.06.8,3.27,10.25,3.8,11.13.37.62-.67,1.11-1,.43s-4.11-9.29-6.21-8.49c-1.61.61,4.31,7.81,4.1,10s-3.93-5.91-5.45-5.27c-.56.24-1,.5,1.86,4.86a71.71,71.71,0,0,0,4.51,5.89h0l7.47,12.94"/><path class="cls-6" d="M236.86,155s-7.06-16.48-11.93-24.49c-4.59-7.54-10.67-8.76-13.91-9a22.19,22.19,0,0,0-4.12-.85l-26.49-.22a25.11,25.11,0,0,0-15.82,5.8c-1.22,1-10.37,11.61-22.52,26.74l-21.25-23-12.67,7.5s13.76,47.51,31,44.25c10.23-1.94,18.23-9.06,18.23-9.06l13.45-10.84.31,1.8c.27,2.19,1,5.73,1.47,7.87,1.62,6.79,2.53,15.73-1,21.65,0,0-4.79,3.67-1,7.7h49.85s7.06-4.79.61-10.11l-4-10.12,2.61-12.33,1-4.94,4.39,7.51s8.68,10.93,17.71,9.59c10.85-1.62,17.14-21.39,7.35-47.53l-11.8,3.59Z"/><g class="cls-7"><polygon points="108.15 137.55 109.4 141.51 123.48 132.92 120.82 130.05 108.15 137.55"/></g><g class="cls-8"><path d="M171.67,193.22a15.72,15.72,0,0,0,10.5-6.46,16.39,16.39,0,0,0,3-12.24,5.44,5.44,0,0,0-2.08-3.9c-1.57-1-3.72-.48-5.36-1.35-1.33-.71-2-2.17-3-3.37s-2.22-3.06-3.6-2.46c0,0,1.67,8.8,2.4,12.72s1,9.55-.41,13.66A17,17,0,0,1,171.67,193.22Z"/></g><path class="cls-9" d="M140.07,161.13a12.61,12.61,0,0,1,.74-4.13,24.68,24.68,0,0,1,1.26-4,12,12,0,0,1-.74,4.13A24.68,24.68,0,0,1,140.07,161.13Z"/><path class="cls-9" d="M143.23,158.94A16.74,16.74,0,0,1,142,153a8.58,8.58,0,0,1,.86,2.91A9,9,0,0,1,143.23,158.94Z"/><polygon class="cls-10" points="238.28 100.73 220.19 130.05 234.43 134.01 250.23 109.65 238.28 100.73"/><path class="cls-5" d="M237.16,125.71l.61,4.29,2.53,3.25.25,2.66,9.08-2.76-3.67-13a27,27,0,0,0,.36-5.3l-2.5,3.31-.69-5.4L238,108.69a1.24,1.24,0,0,0-1.74.27h0a1.25,1.25,0,0,0,.13,1.61l4.11,3.62.27,4.47-3-2.76a2.16,2.16,0,0,0-1.05-.54l-4.13-.83a1.08,1.08,0,0,0-1.28,1h0a1.08,1.08,0,0,0,.75,1.14l3.76,1.15,3.8,3.84-3.72-1.42-5.05.71a1,1,0,0,0-.84,1h0a1,1,0,0,0,1,1l3.21-.18,1.89.59-4.34,1.15a.88.88,0,0,0-.66.89h0a.89.89,0,0,0,.95.83Z"/><g class="cls-7"><polygon points="238.35 136.58 237.96 141.38 251.73 137.59 250.15 132.99 238.35 136.58"/></g><path class="cls-9" d="M220.19,130.05s-1.22-1.65-1.12-1.93,17.22-28.47,17.22-28.47l2,1.08Z"/><path class="cls-9" d="M242.82,108.1a.63.63,0,1,1,.31,1.06.66.66,0,0,1-.35-1"/><path class="cls-11" d="M231.48,144.28a2.38,2.38,0,0,1-.52.71,4.68,4.68,0,0,1-2.23,1.16,10,10,0,0,1-4,0,13.73,13.73,0,0,0-5.13-.23,14,14,0,0,0-5.41,3c-1.79,1.37-3.68,3.07-6.22,3.87a10.12,10.12,0,0,1-4,.31,17.42,17.42,0,0,1-4-1.11c-2.62-1-5.14-2.48-7.89-3.48a14.05,14.05,0,0,0-8.35-.58c-2.71.56-5.25,1.5-7.78,2a19.64,19.64,0,0,1-13.37-1.85,20,20,0,0,1-7-6,14.61,14.61,0,0,1-1.67-2.93c.07,0,.55,1.08,1.84,2.81a20.49,20.49,0,0,0,7,5.76,19.42,19.42,0,0,0,13.09,1.7c2.49-.54,5-1.49,7.78-2.07a14.49,14.49,0,0,1,8.64.59c2.82,1,5.34,2.48,7.91,3.5a17.33,17.33,0,0,0,3.88,1.09,9.8,9.8,0,0,0,3.79-.28c2.41-.74,4.29-2.38,6.09-3.75a14.27,14.27,0,0,1,5.61-3,13.76,13.76,0,0,1,5.26.3,9.9,9.9,0,0,0,3.88.1,4.74,4.74,0,0,0,2.2-1C231.3,144.53,231.46,144.27,231.48,144.28Z"/><path class="cls-9" d="M237.15,163.33a18,18,0,0,1-.41-4.43,18.39,18.39,0,0,1,.13-4.46,18.78,18.78,0,0,1,.41,4.44A18.29,18.29,0,0,1,237.15,163.33Z"/><path class="cls-5" d="M206,347.2c.43,1.74,10.63,58.93,10.63,58.93L232.22,405l-2.86-58.4Z"/><path class="cls-12" d="M232.69,405.86l-.05-1.64-16.65.35.1,5.42,1,0c4.58.15,23.3.46,26.33-.46C246.84,408.55,232.69,405.86,232.69,405.86Z"/><g class="cls-13"><path d="M222.1,409.75a5.36,5.36,0,0,0-2.19-3.24,5.92,5.92,0,0,0-3.9-1.05l.09,4.31Z"/></g><g class="cls-13"><path d="M239.61,407.4s5,1.24,4.37,2-19.53,1.12-27.89.59l0-.35,22.08-.22S238.65,407.46,239.61,407.4Z"/></g><path class="cls-9" d="M215.85,409.64l.28,0,.82,0,3,.07c2.55,0,6.06.05,9.95,0s7.4-.2,10-.33l3-.17.81-.06.29,0h-.29l-.82,0-3,.11c-2.54.09-6.06.2-9.94.27s-7.4.08-9.95.08h-3.84Z"/><path class="cls-9" d="M238.19,409.66a5.63,5.63,0,0,1,.53-1.35,6,6,0,0,1,1-1.09,2.12,2.12,0,0,0-1.18,1A2,2,0,0,0,238.19,409.66Z"/><path class="cls-9" d="M233.25,407.44s.27-.24.51-.6.38-.67.33-.7-.27.24-.51.6S233.2,407.41,233.25,407.44Z"/><path class="cls-9" d="M231.89,406.8s.3-.13.58-.37.47-.47.44-.51-.3.13-.58.37S231.85,406.76,231.89,406.8Z"/><path class="cls-9" d="M231,405.36a2.18,2.18,0,0,0,.87.09,2,2,0,0,0,.86-.1,2.18,2.18,0,0,0-.87-.09A2.26,2.26,0,0,0,231,405.36Z"/><path class="cls-9" d="M230.69,404.34a1.78,1.78,0,0,0,1,.25,1.73,1.73,0,0,0,1-.15,6.57,6.57,0,0,0-1,0A5.72,5.72,0,0,0,230.69,404.34Z"/><path class="cls-9" d="M233.78,406.08a3.39,3.39,0,0,0,1.06,0,6.41,6.41,0,0,0,1.13-.26,2.67,2.67,0,0,0,.65-.26.5.5,0,0,0,.25-.31.36.36,0,0,0-.17-.39,2,2,0,0,0-2.4.57,1.77,1.77,0,0,0-.33.67c0,.17,0,.27,0,.27a2.45,2.45,0,0,1,.46-.85,1.92,1.92,0,0,1,.9-.57,1.74,1.74,0,0,1,1.27.06c.17.11.11.3-.08.4a2.83,2.83,0,0,1-.59.25,7.45,7.45,0,0,1-1.09.29C234.18,406,233.78,406.05,233.78,406.08Z"/><path class="cls-9" d="M234.06,406.13a1,1,0,0,0,.1-.69,1.57,1.57,0,0,0-.3-.72,1.08,1.08,0,0,0-.9-.49.39.39,0,0,0-.32.46,1,1,0,0,0,.19.44,3.11,3.11,0,0,0,.52.59,1.51,1.51,0,0,0,.62.39s-.22-.17-.52-.48A3.36,3.36,0,0,1,233,405c-.15-.2-.26-.58,0-.63a1,1,0,0,1,.71.41,1.51,1.51,0,0,1,.31.64A4.56,4.56,0,0,1,234.06,406.13Z"/><path class="cls-9" d="M216.09,405.42a11.83,11.83,0,0,1,1.23,0,5.66,5.66,0,0,1,2.69,1,5,5,0,0,1,1.72,2.16c.27.66.3,1.1.34,1.1a.75.75,0,0,0,0-.31,3.71,3.71,0,0,0-.2-.83,4.79,4.79,0,0,0-1.73-2.27,5.33,5.33,0,0,0-2.8-1,4.69,4.69,0,0,0-.91,0C216.2,405.37,216.09,405.4,216.09,405.42Z"/><path class="cls-9" d="M224.15,408.21a9.61,9.61,0,0,0,2.42.18,10,10,0,0,0,2.42-.22c0-.06-1.08,0-2.42,0S224.15,408.16,224.15,408.21Z"/><path class="cls-9" d="M220.9,408.27s.09.21.21.44.18.43.24.43.08-.25-.06-.51S220.94,408.23,220.9,408.27Z"/><path class="cls-9" d="M219.64,406.87s.08.2.25.36.35.26.39.22-.07-.2-.25-.36S219.68,406.84,219.64,406.87Z"/><path class="cls-9" d="M217.88,406.26c0,.05.23,0,.48.12s.42.19.46.16-.1-.25-.4-.34S217.86,406.21,217.88,406.26Z"/><path class="cls-9" d="M216.62,406s.08.12.22.17.27,0,.29,0-.08-.13-.22-.18S216.64,405.93,216.62,406Z"/><path class="cls-5" d="M166.2,342.43c-.08,1.78-6.57,57.48-6.57,57.48l15.29,3.39L189,346.56Z"/><path class="cls-12" d="M175.61,404.78l.35-1.6-16.26-3.63-1.19,5.29,1,.28c4.41,1.24,22.52,6,25.68,5.83C188.72,410.76,175.61,404.78,175.61,404.78Z"/><g class="cls-13"><path d="M164.4,406a5.29,5.29,0,0,0-1.36-3.67,5.89,5.89,0,0,0-3.53-1.95l-.94,4.21Z"/></g><g class="cls-13"><path d="M182,407.93s4.53,2.38,3.77,3-19.23-3.57-27.23-6.07l.1-.33,21.5,5S181,407.75,182,407.93Z"/></g><path class="cls-9" d="M158.36,404.44a1.1,1.1,0,0,0,.27.09l.79.23,2.91.78c2.47.64,5.88,1.49,9.67,2.35s7.24,1.57,9.74,2.05l3,.55.81.13.29,0a1.49,1.49,0,0,0-.28-.07l-.8-.17-3-.61c-2.49-.52-5.93-1.25-9.72-2.1s-7.2-1.69-9.68-2.3l-2.92-.72-.8-.19A1,1,0,0,0,158.36,404.44Z"/><path class="cls-9" d="M180.05,409.78a6,6,0,0,1,.84-1.19,6.61,6.61,0,0,1,1.24-.82,2.16,2.16,0,0,0-1.38.69A2,2,0,0,0,180.05,409.78Z"/><path class="cls-9" d="M175.78,406.44s.33-.17.64-.46.53-.56.49-.59-.32.16-.64.46S175.74,406.41,175.78,406.44Z"/><path class="cls-9" d="M174.61,405.5c0,.05.32-.05.65-.22s.58-.35.55-.39-.32.05-.65.22S174.59,405.46,174.61,405.5Z"/><path class="cls-9" d="M174.1,403.9a4.09,4.09,0,0,0,1.69.4A2.15,2.15,0,0,0,175,404,2.09,2.09,0,0,0,174.1,403.9Z"/><path class="cls-9" d="M174,402.83a1.72,1.72,0,0,0,.88.47,1.83,1.83,0,0,0,1,.1,100.82,100.82,0,0,1-1.88-.57Z"/><path class="cls-9" d="M176.62,405.26a3.3,3.3,0,0,0,1,.22,6.15,6.15,0,0,0,1.16,0,3.49,3.49,0,0,0,.68-.1.56.56,0,0,0,.33-.24.4.4,0,0,0-.07-.43,2,2,0,0,0-2.48,0,1.76,1.76,0,0,0-.48.57c-.08.15-.09.25-.08.25a2.54,2.54,0,0,1,.65-.71,1.9,1.9,0,0,1,1-.34,1.73,1.73,0,0,1,1.22.36c.14.15,0,.31-.17.37a2.67,2.67,0,0,1-.63.1,7.31,7.31,0,0,1-1.13,0C177,405.31,176.63,405.23,176.62,405.26Z"/><path class="cls-9" d="M176.88,405.36s.22-.19.27-.64A1.6,1.6,0,0,0,177,404a1.09,1.09,0,0,0-.76-.69.4.4,0,0,0-.42.38,1.19,1.19,0,0,0,.09.47,3,3,0,0,0,.36.69,1.79,1.79,0,0,0,.5.53,6.28,6.28,0,0,0-.38-.59,3.94,3.94,0,0,1-.31-.68c-.1-.24-.11-.63.16-.61s.48.33.59.56a1.63,1.63,0,0,1,.16.7A3,3,0,0,1,176.88,405.36Z"/><path class="cls-9" d="M159.6,400.4s.47.06,1.19.31a5.58,5.58,0,0,1,2.38,1.58,5.08,5.08,0,0,1,1.16,2.51,10.46,10.46,0,0,1,.06,1.15s.05-.11.07-.3a3.92,3.92,0,0,0,0-.86,4.79,4.79,0,0,0-1.15-2.61,5.39,5.39,0,0,0-2.49-1.6,4.7,4.7,0,0,0-.9-.18A.94.94,0,0,0,159.6,400.4Z"/><path class="cls-9" d="M166.76,405a9.46,9.46,0,0,0,2.31.75,10.06,10.06,0,0,0,2.41.36c0-.05-1.07-.23-2.37-.54S166.78,405,166.76,405Z"/><path class="cls-9" d="M163.59,404.31c-.05,0,0,.23.1.48s.07.46.13.47.13-.22.06-.5S163.63,404.28,163.59,404.31Z"/><path class="cls-9" d="M162.7,402.66s0,.21.16.4.28.33.32.31,0-.21-.15-.4S162.75,402.63,162.7,402.66Z"/><path class="cls-9" d="M161.13,401.64c0,.05.22.1.44.23s.37.29.41.27,0-.27-.31-.43S161.13,401.59,161.13,401.64Z"/><path class="cls-9" d="M160,401.07s.05.14.17.22.25.11.28.06-.05-.14-.17-.22S160,401,160,401.07Z"/><path class="cls-9" d="M223.6,94.41c-.41-1.19-1.42-2.08-1.91-3.24-.73-1.74-.19-3.71,0-5.58s-.2-4.15-1.91-4.92a17.72,17.72,0,0,1-2.2-.73c-1.34-.84-1.27-2.74-1.39-4.31a8.61,8.61,0,0,0-.79-3l.29-.09a4.44,4.44,0,0,1,5.11,2.53,2.6,2.6,0,0,1-.18,2.51,1.65,1.65,0,0,1-1.94.63,1.38,1.38,0,0,1-.71-1.52,1,1,0,0,1,1.1-.62,1.1,1.1,0,0,1,.77.43c.11.18.13.31.15.3s.05-.13,0-.35a1.17,1.17,0,0,0-.85-.61,1.49,1.49,0,0,0-.77.06,1.13,1.13,0,0,0-.67.68,1.7,1.7,0,0,0,.83,2,2.07,2.07,0,0,0,2.52-.7,3.11,3.11,0,0,0,.3-3,4.94,4.94,0,0,0-5.26-3,3.29,3.29,0,0,0,.31-2.66,3.74,3.74,0,0,0-2.31-2.32,5,5,0,0,0-2.93-.16,7.43,7.43,0,0,0-2.31,1c-.65.42-1.15.88-1.64,1.19a2.87,2.87,0,0,1-1.34.52,2.22,2.22,0,0,1-1.22-.25s.32.48,1.23.48a2.92,2.92,0,0,0,1.51-.47c.53-.3,1.06-.75,1.68-1.12a5.49,5.49,0,0,1,4.82-.71,3.22,3.22,0,0,1,1.95,2,2.59,2.59,0,0,1-.69,2.67A5.83,5.83,0,0,0,213,69.87c-2-1.13-5-.58-6,1.48l-16.41-5.64A8,8,0,0,0,183,64.2l-.34-.06a5.4,5.4,0,0,0-2.77.46A9,9,0,0,0,177.14,67a6.15,6.15,0,0,1-1.57,1.3,1.79,1.79,0,0,1-.32.13,14.44,14.44,0,0,1-2.19.08c-1.38-.32-2.81-1.11-4.51-1.28a7.1,7.1,0,0,0-2.85.2,5.47,5.47,0,0,0-2.53,1.6,4.38,4.38,0,0,0-1.1,2.92,7.86,7.86,0,0,0,.36,2.27,7.78,7.78,0,0,0-.48,3.1c.07,1.39.47,2.84.49,4.21a4,4,0,0,1-1.35.69c-.86.27-1.79.4-2.67.74a6.22,6.22,0,0,0-3.54,3.75,4.37,4.37,0,0,0,.44,4.13,6.34,6.34,0,0,0,1.16,5.3,31.7,31.7,0,0,1,2.57,2.75c1.08,1.67.92,3.82,1.19,5.79s1.42,4.2,3.41,4.33c1.6.11,3-1.24,4.64-1.1,2.24.18,3.16,2.87,4.46,4.71a8,8,0,0,0,7.45,3.24c2-.28,4.06-1.35,6.05-.85,2.51.64,4,3.58,6.59,4,1.9.27,3.67-1,5.09-2.3s2.85-2.8,4.75-3.14c2.28-.41,4.48,1,6.78,1.28a7.64,7.64,0,0,0,7.55-3.79c1.27-2.29,1.26-5.1,2.44-7.43a43.66,43.66,0,0,1,3.05-4.27C223.48,97.9,224.18,96.06,223.6,94.41ZM157.8,87a1.34,1.34,0,0,0-.56,0s.17,0,.45.11l-.31.23a6,6,0,0,0-1.94,3,4.27,4.27,0,0,1-.1-3.41,5.72,5.72,0,0,1,3.28-3.4c.8-.3,1.71-.43,2.64-.71a4.29,4.29,0,0,0,1.14-.51,3.77,3.77,0,0,1-.47,1.55C161.07,85.38,159.25,86,157.8,87ZM169,68.63a8.64,8.64,0,0,0-6.18,4.74,6.48,6.48,0,0,1-.16-1.37,3.82,3.82,0,0,1,1-2.54,5.52,5.52,0,0,1,4.88-1.65,11.68,11.68,0,0,1,2.69.69A14.34,14.34,0,0,0,169,68.63Zm8.23-.69c-.2.09-.41.15-.61.22a10.92,10.92,0,0,0,.83-.84,9.12,9.12,0,0,1,2.62-2.42,5.25,5.25,0,0,1,2.43-.53,7.18,7.18,0,0,0-1.24.62C179.86,65.89,178.75,67.24,177.23,67.94Z"/><path class="cls-5" d="M212.8,102.29c.78-4.92.54-13,.12-19.61a10.46,10.46,0,0,0-11.54-9.75l-17.19,1.82a3.47,3.47,0,0,0-3.11,3.53l1.77,42.23h-4v7.64a15.84,15.84,0,0,0,31.68,0v-6.61s-4.12-1.35-6.62-1.21l-.61,0c0-3.87.31-6.9.31-6.9S211.23,112.2,212.8,102.29Z"/><path class="cls-14" d="M203.63,113.46a25.17,25.17,0,0,1-13.26-3.54s3.22,6.81,13.13,5.88Z"/><path class="cls-9" d="M216.61,73.84c-.68-2.64-2.68-5.08-5.36-5.58-1.75-.32-3.54.19-5.31.08-1.47-.09-2-1.26-3.39-1.72-2.32-.76-4.11-3.34-9.12-2.8-1.33.15-3.05,1.69-4.28,3.46-1.92-.83-4.45.06-5.83.67-2.87,1.25-4.66,4.48-5.23,7.76s-.1,6.65.36,10c.21,1.5.42,3,.64,4.52a8.06,8.06,0,0,0,.79,2.88l-2.28,21.2a8.82,8.82,0,0,0,11.22-6.16c.88-4.17-1.44-8.41-1.07-12.66.22-2.53,1.65-4.88,1.64-7.42a10,10,0,0,0-.36-2.47h0c4-3.27,5.06-5.9,4.89-9a7.72,7.72,0,0,0,4.2,1.39c2.12,0,4.32-.8,6.31,0,1.43.54,2.44,1.79,3.53,2.86s2.5,2.07,4,1.86a10.49,10.49,0,0,0,2.08-.73,2.5,2.5,0,0,1,2.14,0A16.67,16.67,0,0,0,216.61,73.84Z"/><path class="cls-10" d="M157.37,95.55a17.53,17.53,0,0,0,3.29,1.88,11.63,11.63,0,0,0,4.3.91,9.15,9.15,0,0,0,5.48-1.65,8.36,8.36,0,0,0,3.54-5.8,6.12,6.12,0,0,0-.75-3.72,4,4,0,0,0-3.25-2,2.93,2.93,0,0,0-1.88.62,3.72,3.72,0,0,0-1.16,1.73,4.31,4.31,0,0,0,.76,4.13A7.21,7.21,0,0,0,171.62,94a11.09,11.09,0,0,0,4.8.07,10.46,10.46,0,0,0,4.37-2,8.24,8.24,0,0,0,2.71-3.73,8.34,8.34,0,0,0,.36-4.44,6.56,6.56,0,0,0-.74-2,4.6,4.6,0,0,0-1.35-1.58,3.21,3.21,0,0,0-1.83-.69,1.69,1.69,0,0,0-1.53.86,2.42,2.42,0,0,0-.19,1.79,3.41,3.41,0,0,0,1,1.55,8.63,8.63,0,0,0,11.64-.45A9.15,9.15,0,0,0,193,79.57a10.06,10.06,0,0,0,.31-3.74,4.32,4.32,0,0,1,.16,1,8.38,8.38,0,0,1-.27,2.83A9.21,9.21,0,0,1,191,83.56a8.62,8.62,0,0,1-5.32,2.61,8.78,8.78,0,0,1-6.85-2,3.88,3.88,0,0,1-1.1-1.75,2.9,2.9,0,0,1,.23-2.15,2.18,2.18,0,0,1,1.94-1.11,3.75,3.75,0,0,1,2.13.78,5.07,5.07,0,0,1,1.49,1.73,7.3,7.3,0,0,1,.81,2.19,8.78,8.78,0,0,1-.37,4.72,8.87,8.87,0,0,1-2.87,4,11,11,0,0,1-4.6,2.08,11.73,11.73,0,0,1-5-.09A7.75,7.75,0,0,1,167.28,92a4.8,4.8,0,0,1-1-2.23,5.21,5.21,0,0,1,.19-2.39,4.25,4.25,0,0,1,1.33-2,3.46,3.46,0,0,1,2.22-.72,4.45,4.45,0,0,1,3.64,2.28,6.49,6.49,0,0,1,.78,4A8.7,8.7,0,0,1,170.66,97a9.31,9.31,0,0,1-5.7,1.64,11.53,11.53,0,0,1-4.38-1,11.75,11.75,0,0,1-2.46-1.43c-.26-.19-.44-.36-.57-.46A1.21,1.21,0,0,1,157.37,95.55Z"/><path class="cls-10" d="M217.19,78.32a1.88,1.88,0,0,1-.48.33,5.39,5.39,0,0,1-1.58.58,6.63,6.63,0,0,1-2.65,0,7.25,7.25,0,0,1-3.13-1.62,9.38,9.38,0,0,1-2.46-3.49,3.14,3.14,0,0,1-.08-2.47,2.07,2.07,0,0,1,.93-1,1.59,1.59,0,0,1,1.44,0,2.22,2.22,0,0,1,1,2.55,3.64,3.64,0,0,1-2,2.08,7.54,7.54,0,0,1-5.79.08,13.68,13.68,0,0,1-2.67-1.28,9.83,9.83,0,0,1-2.27-1.81,2.28,2.28,0,0,1-.23-2.84,1.48,1.48,0,0,1,1.44-.51,2.13,2.13,0,0,1,1.22.77,1.86,1.86,0,0,1,.39,1.36,2.36,2.36,0,0,1-.56,1.23,3.21,3.21,0,0,1-2.2,1.1,5.69,5.69,0,0,1-2.24-.29,16.49,16.49,0,0,1-1.91-.74,6.87,6.87,0,0,1-2.79-2.14,3.91,3.91,0,0,1-.72-2.56,2.9,2.9,0,0,1,.58-1.57,1.51,1.51,0,0,1,.44-.39,3.06,3.06,0,0,0-.81,2,3.73,3.73,0,0,0,.75,2.36,6.56,6.56,0,0,0,2.71,2,8.75,8.75,0,0,0,3.95.94,2.77,2.77,0,0,0,1.88-1,1.54,1.54,0,0,0,.14-2c-.45-.59-1.41-.85-1.86-.24a1.43,1.43,0,0,0-.27,1.08,2.16,2.16,0,0,0,.5,1.1,9.83,9.83,0,0,0,2.14,1.68,13.2,13.2,0,0,0,2.57,1.23,7.05,7.05,0,0,0,5.38,0A3.08,3.08,0,0,0,209.71,73a1.69,1.69,0,0,0-.77-2,1.25,1.25,0,0,0-1.7.74,2.74,2.74,0,0,0,.07,2.1,9.08,9.08,0,0,0,2.3,3.36,7.09,7.09,0,0,0,2.94,1.62,6.49,6.49,0,0,0,2.55.13A8.38,8.38,0,0,0,217.19,78.32Z"/><path class="cls-10" d="M188.31,101.58a1.55,1.55,0,0,1-.42.34,4,4,0,0,1-1.46.58,4.67,4.67,0,0,1-2.47-.16,4,4,0,0,1-2.48-2.15,1.68,1.68,0,0,1,.38-2,1.76,1.76,0,0,1,2.15,0,4.44,4.44,0,0,1,1.54,4.27,5.24,5.24,0,0,1-2.89,4.09,6.25,6.25,0,0,1-7.44-2.31,3.43,3.43,0,0,1-.49-2.73,2.61,2.61,0,0,1,.71-1.22,1.85,1.85,0,0,1,1.33-.52,2.65,2.65,0,0,1,2.14,1.44,5.25,5.25,0,0,1,.58,2.34,7.79,7.79,0,0,1-.21,2.23,7,7,0,0,1-2,3.47,5.08,5.08,0,0,1-3,1.35,5,5,0,0,1-2.45-.39,4.29,4.29,0,0,1-1.3-.88,1.65,1.65,0,0,1-.34-.42,6.6,6.6,0,0,0,1.72,1.1,5,5,0,0,0,2.34.29A4.75,4.75,0,0,0,177,109a6.64,6.64,0,0,0,1.8-3.29,7.35,7.35,0,0,0,.18-2.11,4.87,4.87,0,0,0-.55-2.11,2.11,2.11,0,0,0-1.72-1.17,1.62,1.62,0,0,0-1.5,1.36,2.86,2.86,0,0,0,.43,2.3,5.59,5.59,0,0,0,1.87,1.74,5.43,5.43,0,0,0,4.88.38,4.77,4.77,0,0,0,2.63-3.69,4,4,0,0,0-1.3-3.82,1.34,1.34,0,0,0-1.64,0,1.3,1.3,0,0,0-.28,1.5,3.69,3.69,0,0,0,2.22,2,4.71,4.71,0,0,0,2.34.24A6.15,6.15,0,0,0,188.31,101.58Z"/><path class="cls-15" d="M147,344.67s6.69,13,24.13,6.68c0,0,17.08,9.28,33.42-1.11,0,0,21.15,2.83,32.66-2.74l-14.8-127.64-1.88-19.6H173.86s-13.86,6.31-16.09,37.12-7.05,73.13-7.05,73.13Z"/><path class="cls-10" d="M203.55,350.63s0-.13-.05-.39-.06-.65-.1-1.13c-.08-1-.19-2.49-.34-4.36-.29-3.78-.65-9.26-1.05-16-.81-13.55-1.67-32.28-2.12-53s-.4-39.47-.18-53.05c.11-6.78.23-12.27.36-16.06.06-1.88.11-3.34.14-4.37,0-.48,0-.86.06-1.14a1.88,1.88,0,0,1,0-.38,1.59,1.59,0,0,1,0,.38v1.14c0,1,0,2.5,0,4.37-.05,3.82-.11,9.31-.19,16.07-.13,13.57-.12,32.32.33,53s1.26,39.43,2,53c.37,6.76.67,12.23.89,16.05.1,1.87.18,3.34.24,4.36,0,.48,0,.86.05,1.14A2.29,2.29,0,0,1,203.55,350.63Z"/><path class="cls-10" d="M207.65,314.12s.1-.14.36-.21a1.74,1.74,0,0,1,1.14.14,2,2,0,0,1,1.07,1.35,1.94,1.94,0,0,1-3.08,1.75,1.93,1.93,0,0,1-.61-1.61,1.69,1.69,0,0,1,.46-1.05c.19-.19.35-.23.36-.21a2.46,2.46,0,0,0-.45,1.28,1.66,1.66,0,0,0,.55,1.23,1.5,1.5,0,0,0,2.3-1.31,1.63,1.63,0,0,0-.78-1.1A2.25,2.25,0,0,0,207.65,314.12Z"/><path class="cls-10" d="M206.61,276.19s.1-.13.36-.21a1.75,1.75,0,0,1,1.14.15,1.92,1.92,0,0,1,1.07,1.35,1.94,1.94,0,0,1-3.07,1.75,2,2,0,0,1-.62-1.61,1.72,1.72,0,0,1,.46-1.05c.2-.2.35-.23.36-.21a2.4,2.4,0,0,0-.45,1.27,1.65,1.65,0,0,0,.55,1.23,1.49,1.49,0,0,0,2.3-1.31,1.62,1.62,0,0,0-.77-1.1A2.49,2.49,0,0,0,206.61,276.19Z"/><path class="cls-10" d="M206,242.67s.1-.13.37-.2a1.65,1.65,0,0,1,1.13.14,1.93,1.93,0,0,1,1.08,1.35,1.94,1.94,0,0,1-3.08,1.75,1.91,1.91,0,0,1-.61-1.61,1.66,1.66,0,0,1,.45-1c.2-.2.35-.23.37-.21a2.4,2.4,0,0,0-.46,1.27,1.63,1.63,0,0,0,.55,1.23,1.49,1.49,0,0,0,2.3-1.3,1.66,1.66,0,0,0-.77-1.11A2.49,2.49,0,0,0,206,242.67Z"/><path class="cls-10" d="M204.81,206.81s.1-.14.36-.21a1.74,1.74,0,0,1,1.14.14,2,2,0,0,1,1.07,1.35,1.94,1.94,0,0,1-3.08,1.76,2,2,0,0,1-.61-1.62,1.72,1.72,0,0,1,.46-1c.19-.19.35-.23.36-.21a2.46,2.46,0,0,0-.45,1.28,1.66,1.66,0,0,0,.55,1.23,1.5,1.5,0,0,0,2.3-1.31,1.6,1.6,0,0,0-.78-1.1A2.25,2.25,0,0,0,204.81,206.81Z"/><polygon class="cls-16" points="265.68 167.99 501.56 166.28 508.13 326.64 263.89 324.38 265.68 167.99"/><path class="cls-6" d="M265.68,168,377.32,77.66a12.82,12.82,0,0,1,16.19.06l108,88.56"/><g class="cls-13"><path class="cls-6" d="M265.68,168,377.32,77.66a12.82,12.82,0,0,1,16.19.06l108,88.56"/></g><path class="cls-17" d="M263.89,324.38c-.29-.28,18.59-20.9,42.18-46.05s42.94-45.32,43.24-45-18.59,20.89-42.18,46S264.19,324.65,263.89,324.38Z"/><path class="cls-17" d="M508.13,326.64c-.3.27-18.69-19.93-41.07-45.11s-40.28-45.82-40-46.09,18.69,19.93,41.07,45.12S508.43,326.37,508.13,326.64Z"/><g class="cls-18"><polyline points="501.56 166.28 383.11 260.9 265.68 167.99"/></g><polygon class="cls-11" points="277.56 176.75 277.19 103.09 483.73 100.64 486.06 178.16 383.1 259.66 277.56 176.75"/><path class="cls-17" d="M277.56,176.75s.67.5,1.94,1.49l5.6,4.36,21.32,16.67,76.81,60.22H383L485.9,178l-.1.21c-.44-14.79-.91-30.3-1.39-46.08-.32-10.63-.63-21.13-.94-31.43l.26.25L277.2,103.25l.16-.17c.08,23.18.15,41.59.19,54.21,0,6.31,0,11.17,0,14.46v3.73c0,.84,0,1.27,0,1.27s0-.42,0-1.25,0-2.08,0-3.71c0-3.29-.07-8.14-.12-14.44-.08-12.64-.2-31.06-.35-54.26v-.17h.16l206.54-2.54H484v.26c.31,10.29.62,20.79.94,31.42.48,15.79.94,31.3,1.39,46.09v.13l-.1.08-103,81.47-.13.1-.13-.1L306.21,199.4,285,182.66l-5.55-4.39C278.19,177.27,277.56,176.75,277.56,176.75Z"/><path class="cls-9" d="M451.09,137.73c0,.15-31.59.46-70.54.69s-70.55.32-70.55.17,31.58-.45,70.55-.69S451.09,137.59,451.09,137.73Z"/><path class="cls-9" d="M451.09,158.54c0,.15-31.59.46-70.54.69s-70.55.31-70.55.17,31.58-.45,70.55-.69S451.09,158.4,451.09,158.54Z"/><path class="cls-9" d="M451.09,182.53c0,.14-31.59.45-70.54.69s-70.55.31-70.55.16,31.58-.45,70.55-.68S451.09,182.38,451.09,182.53Z"/><path class="cls-9" d="M451.09,206.51c0,.14-30.13.44-67.3.67s-67.3.29-67.31.15,30.13-.45,67.31-.67S451.09,206.37,451.09,206.51Z"/><path class="cls-9" d="M424.67,227.56a4.35,4.35,0,0,1-.82.06l-2.38.06-8.72.15-28.79.41c-11.25.19-21.43.25-28.8.26l-8.72,0-2.38,0a5.2,5.2,0,0,1-.82,0,4.35,4.35,0,0,1,.82-.06l2.38-.06,8.72-.15,28.79-.41c11.24-.19,21.43-.25,28.79-.26l8.73,0,2.37,0A4.77,4.77,0,0,1,424.67,227.56Z"/><path class="cls-9" d="M398.08,247.8c0,.14-6.73.26-15,.26s-15-.12-15-.26,6.74-.26,15-.26S398.08,247.65,398.08,247.8Z"/><circle class="cls-15" cx="467.6" cy="206.51" r="24.95"/><circle class="cls-17" cx="461.11" cy="206.51" r="24.95"/><path class="cls-19" d="M464.28,194.9v20.74h-3.85V198.12H456V194.9Z"/><path class="cls-6" d="M279.18,69.44H302l-3.09-3.54V57.4a8.32,8.32,0,0,0-8.32-8.31h0a8.31,8.31,0,0,0-8.31,8.31v8.08Z"/><path class="cls-6" d="M287.4,68.32a3.52,3.52,0,1,0,6.89-1.18"/><rect class="cls-6" x="289.62" y="45.63" width="2.24" height="4.76"/><path class="cls-9" d="M323.86,53.83a4.27,4.27,0,0,1-.16-.6l-.4-1.76a22.63,22.63,0,0,0-.81-2.82c-.2-.54-.34-1.15-.61-1.76L321,45A34.72,34.72,0,0,0,315,36a33.57,33.57,0,0,0-11.52-7.93,33.2,33.2,0,0,0-7.74-2.2,33.78,33.78,0,0,0-8.66-.14,34.2,34.2,0,0,0-4.5.78c-.75.16-1.48.45-2.24.68a15.27,15.27,0,0,0-2.23.81,31.69,31.69,0,0,0-8.46,5.07,33.64,33.64,0,0,0-11.3,18.06,32.91,32.91,0,0,0-.65,11.61,32.06,32.06,0,0,0,3.43,11.48l.58,1.08.07.15,0,.15c-1.85,6-3.65,12-5.41,17.73l-.47-.43,14.29-7.45.17-.09.16.12a33.7,33.7,0,0,0,15,6.54A33.41,33.41,0,0,0,312,84.77a34.45,34.45,0,0,0,7.52-8.8,37.22,37.22,0,0,0,3.65-8.87,37.83,37.83,0,0,0,1-7.16c0-1,0-1.86,0-2.63S324,55.93,324,55.4s-.08-.88-.1-1.17a1.71,1.71,0,0,1,0-.4,2.13,2.13,0,0,1,.07.39q0,.44.15,1.17c.06.53.13,1.16.22,1.91s0,1.66,0,2.65a36.25,36.25,0,0,1-.9,7.24,36.84,36.84,0,0,1-3.6,9,34.63,34.63,0,0,1-7.56,9,33.77,33.77,0,0,1-26.85,7.5A34.26,34.26,0,0,1,270.08,86l.34,0-14.27,7.47-.72.38.24-.81,5.4-17.73,0,.29-.59-1.11A32.63,32.63,0,0,1,257,62.83,33.18,33.18,0,0,1,257.69,51a34.25,34.25,0,0,1,11.55-18.41,32.54,32.54,0,0,1,8.63-5.13,15.38,15.38,0,0,1,2.27-.82c.77-.22,1.51-.51,2.28-.67a32.12,32.12,0,0,1,4.57-.78,33.92,33.92,0,0,1,8.8.18,34.47,34.47,0,0,1,7.84,2.28,33.78,33.78,0,0,1,11.62,8.12,34.4,34.4,0,0,1,6,9.1l.82,2c.27.62.4,1.24.59,1.79a19,19,0,0,1,.75,2.84c.14.76.25,1.35.34,1.79A4.38,4.38,0,0,1,323.86,53.83Z"/><path class="cls-20" d="M696.39,291.3c3.27,11.05.79,25.26-3.17,36.08a54.68,54.68,0,0,1-21.09,26.67c-1.09.71-2.48,1.4-3.62.79a3.71,3.71,0,0,1-1.47-2.72,56.32,56.32,0,0,1,29.35-60.82"/><g class="cls-8"><path class="cls-20" d="M696.39,291.3c3.27,11.05.79,25.26-3.17,36.08a54.68,54.68,0,0,1-21.09,26.67c-1.09.71-2.48,1.4-3.62.79a3.71,3.71,0,0,1-1.47-2.72,56.32,56.32,0,0,1,29.35-60.82"/></g><path class="cls-16" d="M647.27,238.85c6.89-.19,11.43,7.46,12.12,14.32s-.84,14,1.17,20.55c2.56,8.37,10.38,14.37,12.75,22.8,2.79,9.93-2.66,20.23-2.92,30.55-.12,5,1,10.09.06,15a18.47,18.47,0,0,1-36.23.36c-1.61-7.72,1.79-15.93-.25-23.56-1.51-5.63-5.88-10.42-6.24-16.24-.43-6.93,4.94-12.92,5.93-19.79s-2.47-13.58-3-20.51c-.93-12.42,4.22-22.17,16.6-23.5"/><path class="cls-9" d="M662.36,380.3a3.16,3.16,0,0,0,.2-.69c.12-.53.27-1.19.45-2,.38-1.73,1-4.24,1.71-7.33a236.86,236.86,0,0,1,16.63-46.69c1.37-2.87,2.51-5.17,3.32-6.76l.91-1.83a3.37,3.37,0,0,0,.28-.66,2.71,2.71,0,0,0-.4.59c-.27.47-.6,1.06-1,1.78-.88,1.55-2.08,3.83-3.51,6.68a210.39,210.39,0,0,0-9.73,22.89,208.28,208.28,0,0,0-6.93,23.89c-.7,3.11-1.21,5.64-1.5,7.39-.14.82-.25,1.49-.34,2A2.38,2.38,0,0,0,662.36,380.3Z"/><path class="cls-9" d="M647.56,272.73a7.52,7.52,0,0,0,.09,1.1c.1.77.22,1.82.39,3.14.37,2.79.88,6.72,1.52,11.55,1.3,9.75,3.07,23.21,4.94,38.1S658,355,659.14,364.77c.58,4.83,1.05,8.77,1.38,11.56.17,1.32.3,2.37.4,3.14a5.7,5.7,0,0,0,.19,1.09,7.55,7.55,0,0,0-.06-1.1c-.07-.78-.16-1.83-.28-3.16-.28-2.8-.68-6.74-1.17-11.59-1-9.78-2.58-23.28-4.45-38.17s-3.72-28.35-5.13-38.09c-.73-4.81-1.31-8.73-1.73-11.51-.21-1.32-.38-2.36-.51-3.13A6.71,6.71,0,0,0,647.56,272.73Z"/><rect class="cls-17" x="634.12" y="366.79" width="52.26" height="6.1"/><polygon class="cls-15" points="638.96 372.89 645.1 409.91 677.51 409.91 681.76 372.89 638.96 372.89"/><path class="cls-10" d="M681.93,372.64c0,.15-9.66.38-21.56.53s-21.57.15-21.57,0,9.65-.38,21.56-.53S681.92,372.5,681.93,372.64Z"/><path class="cls-10" d="M680.14,391.17a1.09,1.09,0,0,1-.29,0l-.87,0a22.16,22.16,0,0,1-3.33-.13,10.2,10.2,0,0,1-4.94-1.86,6.93,6.93,0,0,1-2.16-2.54,5,5,0,0,1-.3-3.72,3.37,3.37,0,0,1,3.25-2.36,3,3,0,0,1,2,1,4.78,4.78,0,0,1,1,2.1c.63,3.16-1.59,6.68-5,7.78s-7.58-.8-9.28-4.25a7.06,7.06,0,0,1-.75-2.8,4.55,4.55,0,0,1,.76-2.88,3.62,3.62,0,0,1,2.6-1.56,3.1,3.1,0,0,1,2.74,1.36,4.86,4.86,0,0,1,.9,2.93,6.67,6.67,0,0,1-.75,2.89,9.05,9.05,0,0,1-4.17,3.95,16.84,16.84,0,0,1-5.33,1.51,11.67,11.67,0,0,1-5.3-.46,7.67,7.67,0,0,1-4-3.12,5.5,5.5,0,0,1-.51-4.72,4.26,4.26,0,0,1,3.28-2.93,4.18,4.18,0,0,1,3.82,1.42,3.59,3.59,0,0,1,.34,3.68,5.67,5.67,0,0,1-2.19,2.5,12.85,12.85,0,0,1-2.6,1.26c-.83.31-1.6.56-2.29.77a29.93,29.93,0,0,1-3.26.74l-.86.12a.8.8,0,0,1-.29,0l.29-.07.84-.17c.75-.16,1.84-.41,3.22-.84.69-.21,1.44-.48,2.26-.8a12.74,12.74,0,0,0,2.53-1.27,5.42,5.42,0,0,0,2-2.39,3.29,3.29,0,0,0-.32-3.32,3.84,3.84,0,0,0-3.48-1.26,3.89,3.89,0,0,0-2.94,2.68,5.08,5.08,0,0,0,.5,4.34,7.22,7.22,0,0,0,3.75,2.91,11.37,11.37,0,0,0,5.08.42,16.62,16.62,0,0,0,5.16-1.47,8.57,8.57,0,0,0,3.94-3.73,5.06,5.06,0,0,0-.11-5.28,2.55,2.55,0,0,0-2.28-1.15,3.14,3.14,0,0,0-2.22,1.34,4.1,4.1,0,0,0-.67,2.56,6.58,6.58,0,0,0,.7,2.6c1.58,3.23,5.49,5.09,8.67,4s5.26-4.33,4.69-7.23a4.28,4.28,0,0,0-.9-1.91,2.53,2.53,0,0,0-1.73-.89,3,3,0,0,0-2.89,2.07,4.73,4.73,0,0,0,.26,3.46,6.65,6.65,0,0,0,2,2.45,10.27,10.27,0,0,0,4.79,1.89,26.52,26.52,0,0,0,3.31.22h.87Z"/></g></g></svg>