<?xml version="1.0" encoding="utf-8"?>
<!-- Generator: Adobe Illustrator 25.2.1, SVG Export Plug-In . SVG Version: 6.00 Build 0)  -->
<svg version="1.1" id="Layer_1" xmlns="http://www.w3.org/2000/svg" xmlns:xlink="http://www.w3.org/1999/xlink" x="0px" y="0px"
	 viewBox="0 0 500 462.9" style="enable-background:new 0 0 500 462.9;" xml:space="preserve">
<style type="text/css">
	.st0{fill:#EBEBEB;}
	.st1{fill:#F5F5F5;}
	.st2{fill:#F0F0F0;}
	.st3{fill:#E0E0E0;}
	.st4{fill:#FFFFFF;}
	.st5{fill:#E6E6E6;}
	.st6{fill:#FAFAFA;}
	.st7{display:none;}
	.st8{display:inline;}
	.st9{fill:#407BFF;}
	.st10{opacity:0.9;fill:#FFFFFF;enable-background:new    ;}
	.st11{fill:#6BAEE3;}
	.st12{fill:#5283F0;}
	.st13{opacity:0.1;enable-background:new    ;}
	.st14{opacity:0.4;fill:#FFFFFF;enable-background:new    ;}
	.st15{fill:#263238;}
	.st16{fill:#374250;}
	.st17{fill:#2E353A;}
	.st18{opacity:0.3;fill:#407BFF;enable-background:new    ;}
	.st19{fill:#EDBC9C;}
	.st20{fill:#D9DFE6;}
	.st21{fill:#131724;}
	.st22{fill:#FF8B7B;}
	.st23{opacity:0.2;enable-background:new    ;}
</style>
<g id="Background_Complete">
	<g>
		<rect y="382.4" class="st0" width="500" height="0.2"/>
		<rect x="416.8" y="398.5" class="st0" width="33.1" height="0.2"/>
		<rect x="322.5" y="401.2" class="st0" width="8.7" height="0.2"/>
		<rect x="396.6" y="389.2" class="st0" width="19.2" height="0.2"/>
		<rect x="52.5" y="390.9" class="st0" width="43.2" height="0.2"/>
		<rect x="104.6" y="390.9" class="st0" width="6.3" height="0.2"/>
		<rect x="131.5" y="395.1" class="st0" width="93.7" height="0.2"/>
		<path class="st0" d="M237,337.8H43.9c-3.1,0-5.7-2.6-5.7-5.7V60.7c0-3.1,2.6-5.7,5.7-5.7H237c3.1,0,5.7,2.6,5.7,5.7v271.4
			C242.7,335.2,240.2,337.8,237,337.8z M43.9,55.2c-3,0-5.5,2.4-5.5,5.5v271.4c0,3,2.4,5.5,5.5,5.5H237c3,0,5.5-2.4,5.5-5.5V60.7
			c0-3-2.4-5.5-5.5-5.5H43.9z"/>
		<path class="st0" d="M453.3,337.8H260.2c-3.1,0-5.7-2.6-5.7-5.7V60.7c0-3.1,2.6-5.7,5.7-5.7h193.1c3.1,0,5.7,2.6,5.7,5.7v271.4
			C459,335.2,456.5,337.8,453.3,337.8z M260.2,55.2c-3,0-5.5,2.4-5.5,5.5v271.4c0,3,2.4,5.5,5.5,5.5h193.1c3,0,5.5-2.4,5.5-5.5V60.7
			c0-3-2.4-5.5-5.5-5.5H260.2z"/>
	</g>
	<g>
		<g>
			<g>
				<polygon class="st0" points="135,199.6 56.5,199.6 63.5,113.2 128,113.2 				"/>
			</g>
			<rect x="93.6" y="199.6" class="st1" width="4.3" height="182.8"/>
			<path class="st2" d="M113.2,382.4H78.3l0,0c0-2,1.7-3.7,3.7-3.7h27.4C111.5,378.7,113.2,380.3,113.2,382.4L113.2,382.4z"/>
			<polygon class="st3" points="93.6,206.4 97.9,202.3 97.9,199.6 93.6,199.6 			"/>
		</g>
		<g>
			<g>
				<g>
					<rect x="165.9" y="77.9" class="st3" width="247.7" height="118.7"/>
					<rect x="169.9" y="77.9" class="st1" width="252.9" height="118.7"/>
					<rect x="183" y="98.6" class="st4" width="226.7" height="77.1"/>
				</g>
			</g>
		</g>
		<g>
			<path class="st1" d="M396,270.2h40.9c6.1,0,11,4.9,11,11v90.2c0,6.1-4.9,11-11,11H396c-6.1,0-11-4.9-11-11v-90.2
				C385,275.1,389.9,270.2,396,270.2z"/>
			<path class="st5" d="M377.2,270.2H418c6.1,0,11,4.9,11,11v90.2c0,6.1-4.9,11-11,11h-40.9c-6.1,0-11-4.9-11-11v-90.2
				C366.2,275.1,371.1,270.2,377.2,270.2z"/>
			<path class="st1" d="M413.8,270.2h19.8c0.6,0,1.1-0.5,1.1-1.1v-0.9c0-0.6-0.5-1.1-1.1-1.1h-19.8c-0.6,0-1.1,0.5-1.1,1.1v0.9
				C412.7,269.7,413.2,270.2,413.8,270.2z"/>
			<path class="st5" d="M407.2,270.2H427c0.6,0,1.1-0.5,1.1-1.1v-0.9c0-0.6-0.5-1.1-1.1-1.1h-19.8c-0.6,0-1.1,0.5-1.1,1.1v0.9
				C406.2,269.7,406.7,270.2,407.2,270.2z"/>
			<path class="st2" d="M186.5,330.1h228.1c3,0,5.5,2.4,5.5,5.5V377c0,3-2.4,5.5-5.5,5.5H186.5c-3,0-5.5-2.4-5.5-5.5v-41.4
				C181,332.5,183.4,330.1,186.5,330.1z"/>
			<path class="st0" d="M164.7,233.4H359c6.1,0,11.5,5.5,12,12.3l5.1,68.2c0.5,6.8-4,12.3-10.1,12.3H171.7c-6.1,0-11.5-5.5-12-12.3
				l-5.1-68.2C154.1,238.9,158.6,233.4,164.7,233.4z"/>
			<path class="st6" d="M179.7,233.4H374c6.1,0,11.5,5.5,12,12.3l5.1,68.2c0.5,6.8-4,12.3-10.1,12.3H186.7c-6.1,0-11.5-5.5-12-12.3
				l-5.1-68.2C169.1,238.9,173.6,233.4,179.7,233.4z"/>
			<path class="st2" d="M288.3,314l-5.1-68.2c-0.5-6.5-5.6-11.7-11.4-11.7v-1.3c6.4,0,12.1,5.8,12.6,12.9l5.1,68.2L288.3,314z"/>
			<path class="st1" d="M170.3,270.2h40.9c6.1,0,11,4.9,11,11v90.2c0,6.1-4.9,11-11,11h-40.9c-6.1,0-11-4.9-11-11v-90.2
				C159.3,275.1,164.2,270.2,170.3,270.2z"/>
			<path class="st1" d="M216.2,305.9h203.4c3.6,0,6.5,2.9,6.5,6.5v15.9c0,3.6-2.9,6.5-6.5,6.5H216.2c-3.6,0-6.5-2.9-6.5-6.5v-15.9
				C209.7,308.8,212.6,305.9,216.2,305.9z"/>
			<path class="st0" d="M311.8,335.5v-1.3c3.1,0,5.6-2.8,5.6-6.2v-15.2c0-3.4-2.5-6.2-5.6-6.2v-1.3c3.8,0,6.8,3.4,6.8,7.5V328
				C318.6,332.1,315.5,335.5,311.8,335.5z"/>
			<path class="st5" d="M151.5,270.2h40.9c6.1,0,11,4.9,11,11v90.2c0,6.1-4.9,11-11,11h-40.9c-6.1,0-11-4.9-11-11v-90.2
				C140.5,275.1,145.4,270.2,151.5,270.2z"/>
			<path class="st5" d="M349.6,229.1c27.3,2.4,31.6,36.8,33.5,49.8s-22.5-0.5-37.8,1c-15.2,1.5-20.2,7.4-37.2,4.7
				c-17-2.7-24.1-4.6-35.8-2.7c-11.7,1.9-32.2,2.6-34.4-1.1c-2-3.4-7.5-39.1-18.3-46.2c-1.7-1.2-1.1-2.8,1.4-3.5
				C241.6,224.9,325,226.9,349.6,229.1z"/>
		</g>
	</g>
</g>
<g id="Background_Simple" class="st7">
	<g class="st8">
		<path class="st9" d="M298.1,100.5c-27.6,1.5-46.3,22.6-76.2,19C104,88.9,51.7,172.9,111.6,242.1c59.2,67.4,232,115.4,288.5,54.6
			C454.2,240.2,388.4,101.6,298.1,100.5z"/>
		<path class="st10" d="M298.1,100.5c-27.6,1.5-46.3,22.6-76.2,19C104,88.9,51.7,172.9,111.6,242.1c59.2,67.4,232,115.4,288.5,54.6
			C454.2,240.2,388.4,101.6,298.1,100.5z"/>
	</g>
</g>
<g id="Shadow_1_">
	<ellipse id="_x3C_Path_x3E__230_" class="st1" cx="250" cy="416.2" rx="193.9" ry="11.3"/>
</g>
<g id="Bubble_Speech_1_">
	<g>
		<path class="st11" d="M397.1,127.6c-0.1-3.1-0.7-5.6-1.6-7.2c-0.9-1.7-3.4-6-34.6-6v-1c31.8,0,34.3,4.4,35.5,6.5
			c1,1.8,1.6,4.4,1.8,7.7H397.1z"/>
		<path class="st11" d="M395.9,144.9l-1-0.2c0.8-3.4,1.4-6.6,1.7-9.5l1,0.1C397.3,138.3,396.7,141.5,395.9,144.9z"/>
		<path class="st11" d="M393.3,121.6c-4.2-7.4-63.2-4.8-74.1-1.7c-14.8,4.3-21.5,42.5-22.6,51.7c0,0,8.7-9.1,16.3-11.4
			c3.7,1.3,43.9,8.3,51.4,10.3c8.6,2.3,17.7,0,21.8-7.5C390.3,155.6,397.6,129.3,393.3,121.6z"/>
		<path class="st4" d="M380,132.2c-0.1,0-0.2,0-0.4,0c-27.9-4-60.2-1.2-60.5-1.1c-1.4,0.1-2.6-0.9-2.7-2.3c-0.1-1.4,0.9-2.6,2.3-2.7
			c0.3,0,33.2-2.9,61.7,1.2c1.4,0.2,2.3,1.5,2.1,2.8C382.3,131.3,381.3,132.2,380,132.2z"/>
		<path class="st4" d="M376,145.6c-0.1,0-0.3,0-0.4,0c-32.1-5.6-60.7-4-61-4c-1.4,0.1-2.6-1-2.6-2.3c-0.1-1.4,1-2.6,2.3-2.6
			c0.3,0,29.5-1.7,62.2,4c1.4,0.2,2.3,1.5,2,2.9C378.2,144.8,377.2,145.6,376,145.6z"/>
		<path class="st4" d="M359.5,159.3c-0.2,0-0.5,0-0.7-0.1c-24.6-7-46.8-5.7-47-5.7c-1.4,0.1-2.6-1-2.7-2.3c-0.1-1.4,1-2.6,2.3-2.7
			c0.9-0.1,23.2-1.4,48.7,5.9c1.3,0.4,2.1,1.8,1.7,3.1C361.6,158.6,360.6,159.3,359.5,159.3z"/>
	</g>
</g>
<g id="Emoji">
	<g>
		<path class="st12" d="M111.4,112.4c3.2-7.8,44.8-11.7,56.1-10c15.2,2.3,27.1,42.1,29,53c0,0-9.8-7.9-17.7-9.2
			c-3.5,1.7-24.8,9.3-32.4,11c-8.6,1.9-17.5,2.2-22.6-4.6C118.7,145.8,108,120.6,111.4,112.4z"/>
		<path class="st13" d="M167.4,102.5c-11.2-1.7-52.9,2.2-56.1,10c-0.6,1.4-0.7,3.4-0.6,5.7c8,12.6,20.3,22.4,34.3,23
			c17.1,0.6,34.1-7.9,40.7-17.9C180.8,112.7,174.5,103.5,167.4,102.5z"/>
		<g>
			<g>
				<ellipse class="st9" cx="161.4" cy="97.4" rx="29.1" ry="29.1"/>
				<ellipse class="st14" cx="161.4" cy="97.4" rx="29.1" ry="29.1"/>
			</g>
			<path class="st9" d="M160,88.3c0.4,0.7-0.7,1.8-2.4,2.5s-3.3,0.7-3.6,0c-0.4-0.7,0.7-1.8,2.4-2.5C158,87.6,159.6,87.6,160,88.3z"
				/>
			<path class="st15" d="M152.2,81.2c1.9-0.7,3.9-1.1,5.9-1.1c1,0,2,0.1,3,0.2c1,0.2,2,0.4,3,0.7c0.5,0.2,0.8,0.8,0.6,1.3
				c-0.1,0.4-0.5,0.6-0.8,0.6l0,0c-0.8,0.1-1.7,0.3-2.5,0.4c-0.8,0.2-1.7,0.4-2.5,0.7c-0.8,0.3-1.6,0.6-2.4,1
				c-0.8,0.4-1.5,0.8-2.3,1.3c0.5-0.8,1.1-1.5,1.8-2.1s1.5-1.2,2.3-1.6c0.8-0.5,1.7-0.8,2.6-1.1c0.9-0.3,1.8-0.5,2.8-0.6l-0.3,1.9
				c-0.8-0.3-1.7-0.5-2.6-0.7c-0.9-0.2-1.8-0.4-2.8-0.5c-0.9-0.1-1.9-0.2-2.8-0.3C154.2,81.3,153.2,81.3,152.2,81.2z"/>
			<path class="st15" d="M179.6,75.4c-0.5,0.3-1,0.5-1.5,0.9c-0.5,0.3-0.9,0.6-1.2,1c-0.4,0.4-0.7,0.8-1,1.2
				c-0.3,0.4-0.6,0.9-0.8,1.3l-1.2-0.9c0.7-0.4,1.3-0.7,2-0.8c0.7-0.2,1.4-0.3,2.1-0.2c1.4,0,2.8,0.5,3.8,1.4
				c-0.7-0.1-1.3-0.2-1.9-0.3c-0.6-0.1-1.2,0-1.8,0.1s-1.2,0.2-1.7,0.4c-0.5,0.2-1.1,0.5-1.6,0.7l0,0c-0.4,0.2-0.9,0.1-1.1-0.3
				c-0.1-0.2-0.2-0.5-0.1-0.7c0.3-0.7,0.6-1.2,1-1.7s0.9-0.9,1.4-1.2c0.5-0.3,1.1-0.6,1.7-0.8C178.3,75.3,179,75.3,179.6,75.4z"/>
			<path class="st9" d="M184.1,82.7c0.1,0.8-1.2,1.5-3,1.6c-1.7,0.1-3.2-0.4-3.2-1.1c-0.1-0.8,1.2-1.5,3-1.6
				C182.6,81.5,184,82,184.1,82.7z"/>
			<g>
				<path class="st15" d="M160.7,92.2c3.2-1.6,11.6-5.4,21.7-6.2c0.6-0.1,1.2,0.4,1.2,1c0.8,8.5-14.7,13-23,7
					C160,93.5,160,92.5,160.7,92.2z"/>
				<path class="st9" d="M176.3,90.6c-0.5,0.3-1,0.6-1.5,0.9c-1.3-0.3-2.8-0.2-4.3,0.6c-2,1-3.4,2.7-3.6,4.3c2,0.3,4,0.3,6,0.1
					c1.5-0.2,3-0.6,4.4-1.2c2.3-0.9,4.2-2.3,5.3-4C181.4,89.7,178.7,89.4,176.3,90.6z"/>
			</g>
		</g>
	</g>
</g>
<g id="Heart">
	<g>
		<path class="st9" d="M238.6,34.4C225.5,21,196.1,30.5,207.3,49s36.2,32,41.1,39.1c3.3-14.4,12.6-23.6,18.6-35.7
			C273.1,40.3,257.3,22.5,238.6,34.4z"/>
		<path class="st16" d="M238.6,34.4C225.5,21,196.1,30.5,207.3,49s36.2,32,41.1,39.1c3.3-14.4,12.6-23.6,18.6-35.7
			C273.1,40.3,257.3,22.5,238.6,34.4z"/>
	</g>
</g>
<g id="Character_1_">
	<g>
		<g>
			<polygon class="st9" points="287.7,315.6 295.5,315.6 327.8,416.2 325.2,416.2 			"/>
			<polygon class="st9" points="256,315.6 263.8,315.6 276.1,416.2 273.5,416.2 			"/>
			<polygon class="st9" points="210.3,315.6 202.5,315.6 170.1,416.2 172.7,416.2 			"/>
			<polygon class="st9" points="242,315.6 234.1,315.6 221.9,416.2 224.5,416.2 			"/>
			<g>
				<path class="st9" d="M280.9,337.9c-37.9,0.4-91.7-0.8-115.5-47.4c-16.1-31.6-33.4-98.6,13.9-117.8
					c47.2-19.2,119.8,2.5,119.1,39.6s38.2,46.2,51,71.5C365.2,315.2,330.8,337.3,280.9,337.9z"/>
				<path class="st17" d="M280.9,337.9c-37.9,0.4-91.7-0.8-115.5-47.4c-16.1-31.6-33.4-98.6,13.9-117.8
					c47.2-19.2,119.8,2.5,119.1,39.6s38.2,46.2,51,71.5C365.2,315.2,330.8,337.3,280.9,337.9z"/>
			</g>
			<path class="st18" d="M320.7,302.5c-0.4,5.7-27.7,8.5-61.1,6.2c-33.3-2.3-54.4-4.1-60.5-17.2c-12.3-26.5-13.9-104,19.4-101.7
				C251.9,192.2,321.1,296.8,320.7,302.5z"/>
		</g>
		<g>
			<path class="st19" d="M270.5,187.6l0.3,1.8l0.3,1.9l0.7,3.9c0.5,2.6,1,5.2,1.6,7.7c1.1,5.1,2.5,10.2,4.2,15
				c0.4,1.2,0.8,2.4,1.3,3.6c0.5,1.2,0.9,2.4,1.4,3.5s1,2.4,1.4,3.2c0.2,0.4,0.3,0.8,0.4,1c0,0.2,0.1,0.2-0.7-0.2
				c-0.4-0.2-1.3-0.6-2.6-0.5c-0.6,0-1.3,0.2-1.8,0.4c-0.3,0.1-0.5,0.2-0.7,0.4c-0.2,0.1-0.4,0.3-0.5,0.4c-0.5,0.5-0.7,0.8-0.7,0.9
				c0,0.1,0,0.1,0.1,0.1c0.3-0.3,0.9-1.3,1.4-2.4c0.9-2.1,1.8-4.8,2.6-7.2l8.4,0.4c0.5,3.1,0.7,6,0.6,9.3c-0.2,1.7-0.3,3.3-1.1,5.5
				c-0.2,0.6-0.5,1.2-0.9,1.9s-1,1.5-2.1,2.4c-0.3,0.2-0.6,0.4-0.9,0.7c-0.3,0.2-0.7,0.4-1.2,0.6c-0.8,0.4-1.8,0.6-2.8,0.6
				c-2,0.1-3.6-0.5-4.6-1.1c-2-1.1-2.9-2.2-3.7-3c-0.8-0.9-1.4-1.7-1.9-2.4c-1.1-1.6-1.7-2.8-2.4-4.2c-1.4-2.7-2.7-5.4-3.8-8.1
				c-2.3-5.5-4.1-11.1-5.5-16.8c-0.7-2.8-1.3-5.7-1.9-8.6c-0.3-1.4-0.5-2.9-0.7-4.3c-0.1-0.7-0.2-1.5-0.3-2.2
				c-0.1-0.8-0.2-1.4-0.3-2.3L270.5,187.6z"/>
			<g>
				<path class="st20" d="M248.8,184.9c-5.1,9.5,7.7,34.6,7.7,34.6l23-12.5c0,0-1.7-6.7-7.4-19.4C265.9,173.7,255,173.4,248.8,184.9
					z"/>
			</g>
			<path class="st19" d="M278.6,223.8l0.5-11.3l12.8,4.3c0,0-1.7,10.1-7.2,10.1L278.6,223.8z"/>
			<path class="st19" d="M287.6,204.5l4.2,2.3c1.7,0.9,2.5,2.9,1.9,4.7l-1.8,5.3l-12.8-4.3l3.2-6.3
				C283.3,204.2,285.7,203.5,287.6,204.5z"/>
			<path class="st21" d="M260.9,176.6c-13.1-2.9-26.4-3.5-39-2.2c-8.4,0.8-15.2,7.4-16.3,15.8c-5.2,39.4-1.9,60.3-2.2,71.1l59.4,5.3
				c-0.5-11.3,0.4-40.7,6-78.5C269.6,182.8,266.1,177.8,260.9,176.6z"/>
			<g>
				<polygon class="st22" points="309.6,310.5 320.7,310.7 325.5,285.1 314.3,284.8 				"/>
				<path class="st15" d="M322.3,308.8l-11.6-3.7c-0.4-0.1-0.9,0.1-1.1,0.5l-4.1,9.1c-0.4,0.9,0.1,2.1,1.1,2.4
					c4.2,1.2,5.6,1.3,10.9,3c6.1,1.9,8.6,3.4,15.8,5.7c4.4,1.4,6.5-2.8,4.8-3.8c-5.5-3.2-11.6-8.2-13.4-11.6
					C324.2,309.6,323.2,309.1,322.3,308.8z"/>
				<polygon class="st23" points="325.5,285.1 323,298.3 311.9,298 314.3,284.8 				"/>
				<g>
					<path class="st9" d="M330.5,218.3c-13.6-6.8-48.2,29.8-92.1,46.2c-0.9,16.7,17.8,25.3,37.8,22.9c19.9-2.4,27.2-12.9,33.3-27.4
						c-3.4,14.9-0.2,30.4-0.2,30.4l17.3,4.9C326.7,295.2,343,224.5,330.5,218.3z"/>
					<path class="st23" d="M330.5,218.3c-13.6-6.8-48.2,29.8-92.1,46.2c-0.9,16.7,17.8,25.3,37.8,22.9c19.9-2.4,27.2-12.9,33.3-27.4
						c-3.4,14.9-0.2,30.4-0.2,30.4l17.3,4.9C326.7,295.2,343,224.5,330.5,218.3z"/>
				</g>
				<polygon class="st15" points="328.7,297.3 306.4,295.3 305.9,287.9 330.8,289.8 				"/>
				<g>
					<path class="st9" d="M321,308.7c-0.1,0-0.1-0.1-0.1-0.2s0.1-0.2,0.2-0.2c0.5-0.2,5.3-1.8,6.5-0.9c0.2,0.2,0.4,0.4,0.3,0.8l0,0
						c0,0.5-0.3,0.9-0.7,1.2C325.8,310.2,322.7,309.4,321,308.7C321,308.8,321,308.8,321,308.7z M327.1,307.8
						c-0.8-0.4-3.3,0.2-5.2,0.8c2.4,0.8,4.2,0.9,5,0.4c0.3-0.2,0.4-0.4,0.4-0.8C327.3,308,327.3,307.9,327.1,307.8
						C327.2,307.8,327.1,307.8,327.1,307.8z"/>
					<path class="st9" d="M321,308.7C320.9,308.7,320.9,308.7,321,308.7c-0.1-0.1-0.2-0.2-0.1-0.3c0-0.1,0.7-3.1,2.3-4
						c0.5-0.3,1-0.4,1.5-0.2l0,0c0.7,0.2,0.9,0.6,0.9,0.9c0,1.3-2.9,3.3-4.4,3.7C321.1,308.8,321,308.8,321,308.7z M324.8,304.8
						c-0.1,0-0.1-0.1-0.3-0.1l0,0c-0.4-0.1-0.8,0-1.1,0.2c-1,0.6-1.7,2.3-1.9,3.2c1.5-0.6,3.5-2.2,3.5-3
						C325,305,325,304.9,324.8,304.8z"/>
				</g>
			</g>
			<path class="st19" d="M252.2,177.1c-6.6-2.9-5.4-6.8-3.2-11.1l-13.8-12.5c0.5,5.5,0.4,14.7-3.4,19.5c-1.2,1.6-1.1,3.8,0.4,5.1
				c3.5,3.2,8.3,6.3,15.6,7.6c6.7,1.2,8.2-1.6,7.8-4.5C255.2,179.3,253.9,177.8,252.2,177.1z"/>
			<path class="st23" d="M240.8,158.5c-1.5-0.5-1.8,1.5-1.8,4.3c0,2.7,4.8,7.8,8.4,7.4c0.2-1.4,0.8-2.8,1.6-4.2L240.8,158.5z"/>
			<path class="st15" d="M264.9,149.4c3.8-3.7,8.6-13.8,7.6-18.8c-2.7-1.2-7.5-2.6-12.5-1.3c-5,1.3-9.6,5-9.6,5l6.1,5.2l-0.1,3.5
				l3.4,3.8l-1,3.4c-0.4,1.4,1,2.5,2.3,1.9L264.9,149.4z"/>
			<path class="st19" d="M237.9,136.3c-2.9,10.7-5.1,16.8-1.6,23.9c5.3,10.7,19.8,10.1,25.8,0.5c5.4-8.7,9.2-24.7,0.3-32.2
				C253.7,121.1,240.7,125.6,237.9,136.3z"/>
			<path class="st15" d="M233,142.7c-0.6-6.6-1-11.6-1-17.4c2.9-0.7,7.3-2.7,12-0.5s8.6,6.7,8.6,6.7l-7,4l-0.5,3.5l-4,3.1l0.4,3.5
				c0.1,1.4-1.5,2.3-2.6,1.4L233,142.7z"/>
			<path class="st15" d="M272.5,133.8c5.1-2.7,12-15.5,0.1-14.9c-7.7,0.4-17.1,1.4-25.1-3.1c0,0,2.3,4,8.3,4.5
				c13,1.2,13.4-0.9,17.2,0C279.9,121.7,272.5,133.8,272.5,133.8z"/>
			<path class="st15" d="M273.5,122.2c-8.5-4.8-17.9-1.1-25.2-3.8c-7.3-2.8-15.1,1.6-16.4,7l20.6,6.2c7.8,5.6,9.6,6.8,13.9,5.5
				C272.6,135.2,282.1,127,273.5,122.2z"/>
			<path class="st15" d="M233.7,124.2c-3.7,0.7-5.6,3.9-2.4,8c-1.2-4.4,2.4-5.9,2.4-5.9V124.2z"/>
			<path class="st19" d="M229.5,144.9c0.5,2.9,2.3,5.4,4.3,6.7c3,2.1,5.8-0.3,5.9-3.8c0.2-3.1-1.2-8-4.8-8.7
				C231.5,138.5,228.9,141.6,229.5,144.9z"/>
			<g>
				<polygon class="st22" points="347.4,400.3 356.5,394 345.1,370.5 336,376.9 				"/>
				<path class="st15" d="M356.3,390.9l-11.1,4.9c-0.4,0.2-0.6,0.6-0.5,1l2.9,9.6c0.3,1,1.5,1.5,2.4,1.1c4-1.8,5.1-2.7,10.1-4.9
					c5.9-2.6,8.7-3.1,15.6-6.2c4.2-1.8,3-6.4,1.1-6c-6.2,1.2-14.1,1.5-17.7,0.2C358.2,390.3,357.2,390.6,356.3,390.9z"/>
				<polygon class="st23" points="345.1,370.5 351,382.6 341.9,389 336,376.9 				"/>
				<path class="st9" d="M295.9,308.8c-75.2-2.3-94-1.7-92.4-47.4l38.2,3.4c0,0,66.6,4.1,74.9,26.3c12.4,33.4,35.1,84.7,35.1,84.7
					l-15,9.9C336.6,385.7,305.8,348.1,295.9,308.8z"/>
				<polygon class="st15" points="355,378.4 335.8,390 331.1,384.4 352.3,371.1 				"/>
				<g>
					<path class="st9" d="M355.3,391.8c-0.1,0-0.2,0-0.3-0.1c-0.1-0.1-0.1-0.2,0-0.3c0.3-0.5,2.8-4.9,4.3-5c0.3,0,0.6,0.1,0.8,0.3
						l0,0c0.3,0.4,0.4,0.9,0.3,1.3C359.9,389.7,357,391.1,355.3,391.8L355.3,391.8z M359.2,387c-0.9,0.2-2.4,2.3-3.4,4
						c2.3-1,3.8-2.1,4-3c0.1-0.3,0-0.6-0.2-0.9c-0.1-0.1-0.2-0.2-0.3-0.1C359.3,387,359.2,387,359.2,387z"/>
					<path class="st9" d="M355.3,391.8C355.2,391.8,355.2,391.8,355.3,391.8c-0.2,0-0.3,0-0.3-0.1c-0.1-0.1-1.5-2.8-0.9-4.5
						c0.2-0.5,0.5-0.9,1-1.2l0,0c0.6-0.3,1-0.1,1.2,0.1c0.9,0.9,0,4.4-0.8,5.7C355.4,391.8,355.3,391.8,355.3,391.8z M355.5,386.3
						c-0.1,0-0.2,0-0.3,0.1l0,0c-0.4,0.2-0.6,0.5-0.7,0.9c-0.4,1.2,0.3,2.9,0.7,3.7c0.7-1.4,1.2-4,0.6-4.6
						C355.8,386.4,355.7,386.3,355.5,386.3z M355.1,386.2L355.1,386.2L355.1,386.2z"/>
				</g>
			</g>
			<g>
				<path class="st21" d="M291,209.3l-12-0.2c-0.9,0-1.9,0.4-2.3,0.9l-14.9,20c-0.4,0.5-0.3,1,0.1,1.4s0.9,0.3,1.6,0.3l11.8,0.2
					c0.9,0,1.9-0.4,2.3-0.9l14.8-19.8C292.9,210.6,292.9,209.3,291,209.3z"/>
				<path class="st19" d="M228.4,187.8l0.2,2.4l0.2,2.5c0.2,1.7,0.3,3.4,0.5,5c0.4,3.4,0.9,6.7,1.5,10c1.1,6.6,2.6,13.1,4.8,19.1
					c0.5,1.5,1.2,2.9,1.8,4.3c0.3,0.7,0.4,0.9,0.4,1s0.2,0.4,1.1,0.4c0.8,0.1,2-0.1,3.3-0.4c1.3-0.4,2.7-0.9,4.1-1.5
					c1.4-0.6,2.9-1.4,4.3-2.1c1.4-0.8,2.9-1.6,4.3-2.5s2.9-1.8,4.2-2.7l5.8,6c-1.3,1.6-2.5,3-3.8,4.3c-1.3,1.4-2.7,2.7-4.2,4
					s-3,2.5-4.7,3.6s-3.4,2.2-5.5,3.2c-2,0.9-4.3,1.8-7,2.1c-1.4,0.2-2.9,0.2-4.4,0c-1.6-0.2-3.3-0.7-4.8-1.5
					c-1.6-0.8-3-1.9-4.1-3.1c-1.1-1.2-2-2.4-2.7-3.7c-1-1.8-1.9-3.6-2.7-5.4c-3.3-7.2-5.3-14.6-6.9-21.9c-0.7-3.7-1.4-7.4-1.8-11.1
					c-0.2-1.9-0.4-3.7-0.6-5.6c-0.1-0.9-0.2-1.9-0.2-2.8c-0.1-1-0.1-1.8-0.1-2.9L228.4,187.8z"/>
				<g>
					<path class="st20" d="M209.9,182.5c-6.1,8.9,3.9,35.2,3.9,35.2l24.2-10c0,0-1-6.8-5.3-20.1
						C228.1,173.2,217.3,171.7,209.9,182.5z"/>
				</g>
				<path class="st19" d="M257.1,224.8l8.3-7.7l6,12.1c0,0-8.3,6-12.2,2.1L257.1,224.8z"/>
				<path class="st19" d="M277.1,217.5l1.4,4.6c0.6,1.8-0.3,3.8-2,4.6l-5.1,2.5l-6-12.1l6.7-2.2
					C274.2,214.2,276.4,215.4,277.1,217.5z"/>
			</g>
		</g>
	</g>
</g>
</svg>
