<svg id="e0r075parzjn1" xmlns="http://www.w3.org/2000/svg" xmlns:xlink="http://www.w3.org/1999/xlink" viewBox="0 0 600 450" shape-rendering="geometricPrecision" text-rendering="geometricPrecision"><defs><linearGradient id="e0r075parzjn3-fill" x1="173.420000" y1="225.380000" x2="432.330000" y2="225.380000" spreadMethod="pad" gradientUnits="userSpaceOnUse"><stop id="e0r075parzjn3-fill-0" offset="0%" stop-color="rgb(189,235,255)"/><stop id="e0r075parzjn3-fill-1" offset="100%" stop-color="rgb(118,195,254)"/><stop id="e0r075parzjn3-fill-2" offset="100%" stop-color="rgb(153,216,255)"/></linearGradient><linearGradient id="e0r075parzjn4-fill" x1="171.720000" y1="253.900000" x2="432.330000" y2="253.900000" spreadMethod="pad" gradientUnits="userSpaceOnUse"><stop id="e0r075parzjn4-fill-0" offset="73%" stop-color="rgb(60,185,245)"/><stop id="e0r075parzjn4-fill-1" offset="100%" stop-color="rgb(92,203,252)"/><stop id="e0r075parzjn4-fill-2" offset="100%" stop-color="rgb(118,195,254)"/><stop id="e0r075parzjn4-fill-3" offset="100%" stop-color="rgb(153,216,255)"/></linearGradient><linearGradient id="e0r075parzjn6-fill" x1="173.420000" y1="259.660000" x2="542.530000" y2="259.660000" spreadMethod="pad" gradientUnits="userSpaceOnUse"><stop id="e0r075parzjn6-fill-0" offset="0%" stop-color="rgb(189,235,255)"/><stop id="e0r075parzjn6-fill-1" offset="100%" stop-color="rgb(118,195,254)"/><stop id="e0r075parzjn6-fill-2" offset="100%" stop-color="rgb(153,216,255)"/></linearGradient><linearGradient id="e0r075parzjn60-fill" x1="50.400000" y1="243.160000" x2="145.570000" y2="243.160000" spreadMethod="pad" gradientUnits="userSpaceOnUse"><stop id="e0r075parzjn60-fill-0" offset="0%" stop-color="rgb(189,235,255)"/><stop id="e0r075parzjn60-fill-1" offset="100%" stop-color="rgb(118,195,254)"/><stop id="e0r075parzjn60-fill-2" offset="100%" stop-color="rgb(153,216,255)"/></linearGradient><linearGradient id="e0r075parzjn61-fill" x1="49.780000" y1="253.650000" x2="145.570000" y2="253.650000" spreadMethod="pad" gradientUnits="userSpaceOnUse"><stop id="e0r075parzjn61-fill-0" offset="73%" stop-color="rgb(60,185,245)"/><stop id="e0r075parzjn61-fill-1" offset="100%" stop-color="rgb(92,203,252)"/><stop id="e0r075parzjn61-fill-2" offset="100%" stop-color="rgb(118,195,254)"/><stop id="e0r075parzjn61-fill-3" offset="100%" stop-color="rgb(153,216,255)"/></linearGradient><linearGradient id="e0r075parzjn63-fill" x1="50.400000" y1="255.760000" x2="186.070000" y2="255.760000" spreadMethod="pad" gradientUnits="userSpaceOnUse"><stop id="e0r075parzjn63-fill-0" offset="0%" stop-color="rgb(189,235,255)"/><stop id="e0r075parzjn63-fill-1" offset="100%" stop-color="rgb(118,195,254)"/><stop id="e0r075parzjn63-fill-2" offset="100%" stop-color="rgb(153,216,255)"/></linearGradient></defs><g id="e0r075parzjn2"><polygon id="e0r075parzjn3" points="432.330000,168.390000 335.810000,110.520000 173.420000,340.240000 432.330000,168.390000" fill="url(#e0r075parzjn3-fill)" stroke="none" stroke-width="1"/><polygon id="e0r075parzjn4" points="432.330000,168.390000 430.640000,210.520000 171.720000,339.400000 432.330000,168.390000" fill="url(#e0r075parzjn4-fill)" stroke="none" stroke-width="1"/><polygon id="e0r075parzjn5" points="432.330000,169.410000 259.110000,281.600000 432.170000,168.290000 432.330000,169.410000" fill="rgb(219,250,255)" stroke="none" stroke-width="1"/><polygon id="e0r075parzjn6" points="173.420000,340.240000 542.530000,236.950000 448.900000,179.080000 173.420000,340.240000" fill="url(#e0r075parzjn6-fill)" stroke="none" stroke-width="1"/><polygon id="e0r075parzjn7" points="362.670000,229.530000 522.390000,242.550000 526.590000,241.440000 364.620000,228.350000 362.670000,229.530000" fill="rgb(114,190,242)" stroke="none" stroke-width="1"/><polygon id="e0r075parzjn8" points="353.480000,219.110000 331.930000,116.010000 330.980000,117.350000 351.690000,220.340000 353.480000,219.110000" fill="rgb(114,190,242)" stroke="none" stroke-width="1"/><ellipse id="e0r075parzjn9" rx="20.330000" ry="12.470000" transform="matrix(1 0 0 1 410.88999999999999 233.87000000000000)" opacity="0.18" fill="rgb(0,0,0)" stroke="none" stroke-width="1"/><ellipse id="e0r075parzjn10" rx="20.330000" ry="12.470000" transform="matrix(1 0 0 1 344.81999999999999 190.47000000000000)" opacity="0.18" fill="rgb(0,0,0)" stroke="none" stroke-width="1"/><path id="e0r075parzjn11" d="M398.290000,194.140000C398.042808,194.888078,397.868661,195.658341,397.770000,196.440000C398.110016,197.247446,398.553748,198.007169,399.090000,198.700000C399.722015,199.505990,400.470168,200.213702,401.310000,200.800000C401.792804,201.072706,402.236776,201.409049,402.630000,201.800000C402.727392,201.791717,402.820709,201.757155,402.900000,201.700000C402.999849,201.050862,402.883918,200.386893,402.570000,199.810000C402.070000,199.190000,402.820000,198.280000,402.820000,198.280000L401.540000,194.690000Z" fill="rgb(252,209,197)" stroke="none" stroke-width="1"/><path id="e0r075parzjn12" d="M410.580000,233.880000C409.286479,234.188090,407.967801,234.378863,406.640000,234.450000C404.700000,234.520000,399.420000,235.600000,399.520000,237.630000C399.620000,239.660000,402.330000,242.630000,405.760000,243.050000C409.190000,243.470000,413.620000,242.480000,415.860000,242.550000C416.954698,242.538381,417.971906,241.983004,418.573604,241.068424C419.175302,240.153843,419.282659,238.999880,418.860000,237.990000C418.030000,235.730000,410.590000,233.880000,410.590000,233.880000" fill="rgb(8,16,31)" stroke="none" stroke-width="1"/><path id="e0r075parzjn13" d="M422.280000,228.460000C422.280000,228.460000,422.990000,229.700000,422.610000,230.460000C422.230000,231.220000,421.230000,233.090000,418.130000,231.260000C415.030000,229.430000,409.030000,226.810000,409.030000,226.810000C409.030000,226.810000,405.580000,224.870000,405.810000,222.600000C406.040000,220.330000,409.240000,220.700000,409.240000,220.700000Z" fill="rgb(8,16,31)" stroke="none" stroke-width="1"/><g id="e0r075parzjn14"><path id="e0r075parzjn15" d="M387.740000,146.810000C386.740772,146.837189,385.743942,146.698647,384.790000,146.400000C383.890000,145.960000,381.270000,145.040000,381.110000,144.950000C380.326913,144.839362,379.562963,144.620610,378.840000,144.300000C378.659261,144.388751,378.532876,144.559745,378.501064,144.758570C378.469252,144.957396,378.535975,145.159287,378.680000,145.300000C379.154927,145.732659,379.739492,146.026671,380.370000,146.150000L381.370000,146.800000C381.370000,146.800000,379.270000,147.960000,379.080000,148.050000C378.890000,148.140000,377.080000,149.580000,376.950000,149.660000C376.820000,149.740000,375.950000,150.410000,376.290000,150.990000C376.290000,150.990000,376.290000,151.120000,376.710000,151.210000C376.710000,151.210000,375.580000,151.760000,375.860000,152.350000C376.140000,152.940000,376.860000,152.690000,376.860000,152.690000C376.860000,152.690000,377.130000,153.760000,378.490000,152.930000C378.490000,152.930000,378.650000,154.250000,381.660000,152.870000C382.346445,152.676831,383.056932,152.582548,383.770000,152.590000C385.424284,152.481719,387.019456,151.932731,388.390000,151C389.690000,150,387.710000,146.780000,387.710000,146.780000" fill="rgb(252,209,197)" stroke="none" stroke-width="1"/><path id="e0r075parzjn16" d="M383.800000,152.620000C385.454284,152.511719,387.049456,151.962731,388.420000,151.030000C389.290000,150.370000,388.680000,148.680000,388.190000,147.650000C387.580000,147.330000,387.040000,147.070000,387.040000,147.070000C387.040000,147.070000,387.130000,150.280000,387.040000,150.760000C386.950000,151.240000,384.280000,151.810000,382.550000,152.090000C381.197361,152.340714,379.861488,152.674682,378.550000,153.090000C378.680000,153.380000,379.260000,154.020000,381.680000,152.910000C382.366445,152.716831,383.076932,152.622548,383.790000,152.630000" fill="rgb(226,177,166)" stroke="none" stroke-width="1"/><path id="e0r075parzjn17" d="M411.450000,140.570000C411.450000,140.570000,407.190000,141.370000,405.740000,141.870000C404.290000,142.370000,392.120000,144.950000,387.650000,146.130000C387.357543,146.217527,387.137918,146.460270,387.080000,146.760000C387.023828,147.023709,387.023828,147.296291,387.080000,147.560000C387.210000,148.100000,387.630000,153.560000,390.080000,152.650000C391.613385,152.202424,393.177601,151.868190,394.760000,151.650000C396.510000,151.400000,403.970000,150.790000,403.970000,150.790000L416.610000,143Z" fill="rgb(38,109,254)" stroke="none" stroke-width="1"/></g><path id="e0r075parzjn18" d="M402.310000,195.860000C402.310000,195.860000,403.440000,210.860000,406.210000,216.490000C408.980000,222.120000,409.640000,232.600000,410.210000,234.580000C410.780000,236.560000,412.600000,239.420000,415.520000,240.030000C418.440000,240.640000,418.970000,238.570000,418.850000,237.330000C418.730000,236.090000,417.960000,234.070000,417.970000,232.720000C418.022833,231.846799,418.153349,230.980040,418.360000,230.130000C418.566651,229.279960,421.710000,231.130000,422.280000,228.460000C422.151981,228.068233,422.055015,227.666993,421.990000,227.260000C421.990000,226.860000,422.500000,216.980000,422.610000,215.780000C422.573351,212.106489,422.154427,208.446769,421.360000,204.860000C420.490000,201.660000,420.940000,194.860000,420.940000,194.860000L411.250000,193.340000Z" fill="rgb(46,64,80)" stroke="none" stroke-width="1"/><path id="e0r075parzjn19" d="M418,195.920000C417.917374,197.405702,417.561419,198.863421,416.950000,200.220000C416.338581,201.576579,416.810000,208.150000,415.950000,212.150000C415.950000,212.150000,417.040000,220.150000,417.780000,222.680000C418.520000,225.210000,418.320000,230.120000,418.320000,230.120000C418.619605,230.223427,418.933181,230.280748,419.250000,230.290000C419.800000,230.290000,420.040000,220.570000,419.250000,218.840000C418.460000,217.110000,417.950000,209.450000,418.320000,207.110000C418.690000,204.770000,418.710000,198.110000,419.150000,196.920000C419.422612,196.275792,419.220363,195.528706,418.660000,195.110000Z" fill="rgb(8,16,31)" stroke="none" stroke-width="1"/><path id="e0r075parzjn20" d="M410.800000,140.700000C409.002789,142.172976,407.963555,144.376300,407.970000,146.700000L410.110000,146.250000C410.110000,146.250000,409.550000,142,410.800000,140.700000" fill="rgb(8,16,31)" stroke="none" stroke-width="1"/><path id="e0r075parzjn21" d="M410.900000,199.120000C417.330000,199.380000,420.900000,196.420000,420.900000,196.420000C420.900000,195.470000,420.970000,194.850000,420.970000,194.850000L411.280000,193.330000L402.340000,195.850000C402.340000,195.850000,402.560000,198.850000,403.060000,202.600000C404.640000,202.790000,406.260000,198.740000,406.260000,198.740000L410.680000,199.070000C410.680000,199.070000,404.500000,198.840000,410.940000,199.070000" fill="rgb(8,16,31)" stroke="none" stroke-width="1"/><path id="e0r075parzjn22" d="M403.550000,196.090000C403.550000,196.090000,417.450000,202.210000,424.450000,190.900000C424.649129,190.560978,424.749572,190.173061,424.740000,189.780000L424.740000,187.120000C424.736279,186.780008,424.790383,186.441858,424.900000,186.120000C425.133953,185.435664,425.199135,184.704940,425.090000,183.990000C424.630000,180.990000,423.380000,172.830000,423.090000,170.550000C422.740000,167.770000,424.370000,156.640000,426.820000,151.830000C429.270000,147.020000,423.520000,136.130000,423.520000,136.130000C422.654842,134.627079,420.878004,133.905625,419.210000,134.380000C417.541996,134.854375,421.910000,136.480000,420.370000,138.630000C418.830000,140.780000,414.280000,142.440000,414.280000,142.440000C414.280000,142.440000,405.870000,146.910000,402.930000,152.440000C402.248155,154.564073,401.857923,156.770904,401.770000,159C401.630000,162.700000,401.890000,171.550000,401.770000,172.770000C401.650000,173.990000,401.050000,182.360000,401.090000,182.770000C401.130000,183.180000,403.630000,196.090000,403.630000,196.090000" fill="rgb(38,109,254)" stroke="none" stroke-width="1"/><path id="e0r075parzjn23" d="M407.790000,197.360000C407.790000,197.360000,416.490000,173.900000,416.260000,165.260000C416.030000,156.790000,403.830000,182.130000,403.830000,182.130000L403.560000,196.130000C404.928508,196.680908,406.344359,197.105998,407.790000,197.400000" fill="rgb(8,16,31)" stroke="none" stroke-width="1"/><path id="e0r075parzjn24" d="M403.750000,169.420000C404.086211,167.486605,404.283383,165.531594,404.340000,163.570000C404.430000,160.170000,405.420000,154.510000,411.220000,155.570000C419.400000,157.080000,415.660000,169.200000,414.730000,171.310000C413.800000,173.420000,410,183,409.850000,183.490000C409.700000,183.980000,403.850000,195.780000,401.800000,198.600000C401.722789,198.719077,401.596841,198.797882,401.455989,198.815247C401.315137,198.832612,401.173821,198.786758,401.070000,198.690000C400.270000,197.960000,398.460000,196.210000,398.240000,195.110000C397.950000,193.700000,399.240000,188.580000,399.240000,188.580000C399.240000,188.580000,402.610000,175.740000,402.880000,175.140000C403.090000,174.690000,403.260000,172.570000,403.800000,169.430000" fill="rgb(75,138,249)" stroke="none" stroke-width="1"/><path id="e0r075parzjn25" d="M410.940000,141C410.567019,140.083904,409.766450,139.410528,408.800000,139.200000C407.290000,139.010000,406.430000,138.540000,406.290000,137.940000C406.196735,137.182984,406.032684,136.436382,405.800000,135.710000C405.496486,134.678001,405.288938,133.620175,405.180000,132.550000C405.180000,132.500000,404.040000,132.100000,403.990000,131.550000C403.940000,131,404.570000,129.070000,404.510000,128.920000C404.147489,128.213835,403.952450,127.433680,403.940000,126.640000C404.012340,125.478475,404.251458,124.333406,404.650000,123.240000C405.130000,122.110000,408.470000,115.240000,416.820000,118.990000C425.170000,122.740000,418.630000,130.260000,419.370000,135.200000C419.370000,135.200000,420.100000,136.200000,418.690000,137.980000C417.280000,139.760000,413.280000,140.030000,410.960000,140.980000" fill="rgb(252,209,197)" stroke="none" stroke-width="1"/><path id="e0r075parzjn26" d="M418.670000,138C420.080000,136.270000,419.350000,135.220000,419.350000,135.220000C419.258796,134.491183,419.279027,133.752730,419.410000,133.030000L416.090000,133.640000C416.090000,133.640000,411.290000,128.890000,411.590000,131.390000C411.890000,133.890000,410.700000,134.320000,410.700000,134.320000L411.700000,135.700000C411.950000,136.060000,411.790000,136.460000,411.580000,136.850000C410.140000,139.390000,406.770000,138.560000,406.760000,138.560000C407.385020,138.937814,408.091330,139.160679,408.820000,139.210000C409.786450,139.420528,410.587019,140.093904,410.960000,141.010000C413.280000,140.010000,417.280000,139.740000,418.690000,138.010000" fill="rgb(226,177,166)" stroke="none" stroke-width="1"/><path id="e0r075parzjn27" d="M404.320000,120.590000C404.320000,120.590000,403.700000,122.430000,404.640000,123.230000C405.580000,124.030000,406.430000,124.780000,406.430000,124.780000L406.430000,127.120000C406.415795,127.470402,406.502571,127.817507,406.680000,128.120000L407.840000,130.120000C408.066702,130.511838,408.184118,130.957326,408.180000,131.410000L408.180000,132.410000C408.170466,132.676919,408.357498,132.910709,408.620000,132.960000L408.930000,132.960000C409.068006,132.971027,409.204712,132.926565,409.309827,132.836465C409.414943,132.746366,409.479790,132.618069,409.490000,132.480000L409.640000,131.160000C409.640000,131.160000,410.280000,130.110000,411.640000,131.400000L412.870000,131.970000C413.221808,132.138370,413.486695,132.446799,413.600000,132.820000C413.930000,133.820000,414.600000,135.820000,415.180000,136.210000C415.920000,136.670000,418.840000,135.130000,419.240000,134.430000C419.640000,133.730000,420.710000,129.030000,421.360000,126.780000C421.916592,124.763567,421.605765,122.606308,420.502559,120.829026C419.399353,119.051744,417.604024,117.815954,415.550000,117.420000C409.340000,115.870000,405.270000,118.630000,404.380000,120.630000" fill="rgb(170,131,131)" stroke="none" stroke-width="1"/><path id="e0r075parzjn28" d="M419.180000,134.390000C419.580000,133.690000,420.650000,128.990000,421.300000,126.740000C419.605228,127.824111,417.706087,128.549052,415.720000,128.870000C412.580000,129.320000,406.420000,125.410000,406.420000,125.410000L406.420000,127.130000C406.405795,127.480402,406.492571,127.827507,406.670000,128.130000L407.830000,130.130000C408.057160,130.521649,408.174609,130.967264,408.170000,131.420000L408.170000,132.420000C408.160466,132.686919,408.347498,132.920709,408.610000,132.970000L408.920000,132.970000C409.058006,132.981027,409.194712,132.936565,409.299827,132.846465C409.404943,132.756366,409.469790,132.628069,409.480000,132.490000L409.630000,131.170000C409.630000,131.170000,410.270000,130.120000,411.630000,131.410000L413.400000,132.230000C413.400000,132.230000,414.400000,135.750000,415.160000,136.230000C415.920000,136.710000,418.820000,135.150000,419.220000,134.450000" fill="rgb(147,109,109)" stroke="none" stroke-width="1"/><path id="e0r075parzjn29" d="M419.300000,134.620000C419.300000,134.620000,421.680000,136.260000,420.430000,138.500000C419.180000,140.740000,410.350000,144.630000,409.910000,145.220000C409.910000,145.220000,409.620000,141.830000,410.800000,140.710000C410.800000,140.710000,417.530000,139.430000,418.610000,137.620000C419.238370,136.755429,419.487507,135.672222,419.300000,134.620000" fill="rgb(240,246,255)" stroke="none" stroke-width="1"/><path id="e0r075parzjn30" d="M419.300000,134.620000C419.487507,135.672222,419.238370,136.755429,418.610000,137.620000C417.800000,138.990000,413.750000,140.060000,411.820000,140.490000C412.625602,141.219449,413.260646,142.117388,413.680000,143.120000C416.400000,141.670000,419.680000,139.810000,420.430000,138.500000C421.680000,136.260000,419.300000,134.620000,419.300000,134.620000" fill="rgb(196,204,214)" stroke="none" stroke-width="1"/><path id="e0r075parzjn31" d="M414.780000,157.570000C416.910000,164.950000,411.030000,176.240000,410.150000,179.570000C409.270000,182.900000,400.430000,198.130000,400.430000,198.140000L401.060000,198.730000C401.163821,198.826758,401.305137,198.872612,401.445989,198.855247C401.586841,198.837882,401.712789,198.759077,401.790000,198.640000C403.790000,195.830000,409.660000,184.040000,409.840000,183.530000C410.020000,183.020000,413.770000,173.530000,414.710000,171.370000C415.460000,169.680000,418.020000,161.520000,414.770000,157.610000" fill="rgb(8,16,31)" stroke="none" stroke-width="1"/><path id="e0r075parzjn32" d="M420.790000,141.870000C420.790000,141.870000,416.850000,144.190000,414.930000,145.230000C413.010000,146.270000,410.930000,147.680000,410.930000,147.680000L410.210000,146.890000L409.300000,148.890000C407.697525,149.873663,406.205596,151.026974,404.850000,152.330000C403.755024,153.561099,402.851572,154.949988,402.170000,156.450000C401.488428,157.950012,405.980000,151.300000,408.950000,149.800000L409.750000,149.390000L410.230000,147.780000L410.940000,148.610000C410.940000,148.610000,419.600000,143.250000,420.810000,141.850000" fill="rgb(8,16,31)" stroke="none" stroke-width="1"/><path id="e0r075parzjn33" d="M355.180000,137.110000C355.361798,138.176438,355.428848,139.259281,355.380000,140.340000C355.260000,141.790000,352.550000,139.890000,352.660000,139.640000C352.770000,139.390000,353.950000,137.200000,353.950000,137.200000Z" fill="rgb(252,209,197)" stroke="none" stroke-width="1"/><path id="e0r075parzjn34" d="M343.360000,93.310000C343.360000,93.310000,344.860000,93.240000,346.690000,96.460000C348.520000,99.680000,351.550000,110.690000,353.170000,114.960000C353.314248,115.341431,353.418149,115.736922,353.480000,116.140000C354.010000,119.470000,356.480000,135.140000,356.600000,137.010000C355.644067,137.702340,354.601952,138.267099,353.500000,138.690000L350.840000,137.740000L348.220000,109.350000L343.970000,94.350000Z" fill="rgb(8,16,31)" stroke="none" stroke-width="1"/><path id="e0r075parzjn35" d="M334.840000,186.720000C334.840000,186.720000,334.330000,189.350000,334.610000,189.860000C334.890000,190.370000,338.070000,194.230000,338.400000,194.750000C338.730000,195.270000,340.400000,198.430000,343.400000,199.200000C346.400000,199.970000,348.470000,199.770000,348.870000,198.250000C349.270000,196.730000,347.510000,194.250000,346.690000,193.400000C345.870000,192.550000,342.430000,188.190000,341.800000,187.550000C341.374793,187.151108,340.837122,186.892746,340.260000,186.810000L336.330000,187.540000Z" fill="rgb(8,16,31)" stroke="none" stroke-width="1"/><path id="e0r075parzjn36" d="M347,178.870000C347,178.870000,350,180.120000,351.570000,180.550000C353.140000,180.980000,356.890000,183.980000,356.840000,185.490000C356.790000,187,355,188,353.110000,187.900000C351.502054,187.673091,349.972323,187.062571,348.650000,186.120000C347.687074,185.409958,346.612276,184.865799,345.470000,184.510000C343.940000,184,341.470000,183.750000,341.060000,182.870000C340.771826,182.001344,340.613452,181.094908,340.590000,180.180000Z" fill="rgb(8,16,31)" stroke="none" stroke-width="1"/><path id="e0r075parzjn37" d="M340.240000,178.320000C340.240000,178.170000,340.370000,177.900000,340.380000,177.800000C340.447332,176.467517,340.447332,175.132483,340.380000,173.800000L339.720000,174.800000C339.720000,174.800000,340.190000,178.050000,341.090000,183.130000C341.320000,184.420000,341.950000,185.750000,342.090000,186.480000C342.360000,188.660000,341.160000,189.080000,341.160000,189.080000C339.699062,190.477037,337.417895,190.541843,335.880000,189.230000C335.130000,188.600000,334.880000,187.580000,333.880000,183.910000C332.880000,180.240000,331.950000,172.590000,332.170000,170.760000C332.577657,167.705582,332.814691,164.630810,332.880000,161.550000C332.880000,158.480000,330.650000,148.650000,330.650000,148.650000L339.750000,146.750000L345.960000,143.290000L350.700000,144.060000C350.700000,144.060000,351.300000,141.910000,351.930000,148.610000C352.560000,155.310000,348.730000,167.430000,348.730000,167.430000C347.730000,173.430000,347.460000,180.230000,346.890000,181.160000C346.320000,182.090000,344.050000,184.280000,341.950000,182.580000C341.554981,182.293821,341.198685,181.957693,340.890000,181.580000Z" fill="rgb(46,64,80)" stroke="none" stroke-width="1"/><path id="e0r075parzjn38" d="M339.730000,174.720000C341.604250,169.084384,343.077920,163.323369,344.140000,157.480000C345.530000,149.140000,347.950000,147.970000,348.960000,146.480000C349.699258,146.851008,350.472915,147.149084,351.270000,147.370000L351.530000,147.370000C352.200000,147.370000,348.180000,152.720000,347.460000,154.090000C346.740000,155.460000,342.590000,167.290000,342.300000,168.920000C342.010000,170.550000,341.720000,181.920000,342.050000,182.610000C342.380000,183.300000,340.900000,182.120000,340.900000,182.120000C340.181972,179.713075,339.788496,177.221062,339.730000,174.710000" fill="rgb(8,16,31)" stroke="none" stroke-width="1"/><path id="e0r075parzjn39" d="M347.490000,143.480000L345.890000,143.220000L339.680000,146.680000L330.580000,148.580000C330.580000,148.580000,332.780000,158.410000,332.810000,161.480000C332.744712,164.560811,332.507677,167.635584,332.100000,170.690000C331.880000,172.500000,332.770000,180.200000,333.810000,183.840000C334.260000,185.430000,334.560000,186.520000,334.810000,187.300000C334.911296,188.396485,335.641552,189.333713,336.680000,189.700000C337.718448,190.066287,333.110000,177.820000,333.430000,170.870000C333.750000,163.920000,334.650000,158.320000,334.490000,156.990000C334.490000,156.990000,344.860000,153.570000,346.800000,146.380000C347.100000,145.260000,347.330000,144.300000,347.510000,143.480000" fill="rgb(8,16,31)" stroke="none" stroke-width="1"/><path id="e0r075parzjn40" d="M329.540000,94.840000C329.132003,95.207810,328.822595,95.671922,328.640000,96.190000C328.480000,96.870000,327.570000,99.280000,327.570000,99.280000C327.570000,99.280000,323.240000,105.460000,322.460000,107.350000C322.020075,108.421720,321.685173,109.533596,321.460000,110.670000L332.940000,125.860000C332.940000,125.860000,328.940000,140.750000,330.040000,146.180000C331.140000,151.610000,332.650000,153.720000,334.460000,154.310000C336.270000,154.900000,345.920000,150.630000,346.590000,145.200000C347.260000,139.770000,346.980000,139.140000,346.980000,139.140000C346.980000,139.140000,351.490000,140.430000,351.770000,139.200000C352.050000,137.970000,351.200000,129.090000,350.970000,127.820000C350.740000,126.550000,350.040000,112.550000,350.040000,112.550000C350.040000,112.550000,347.260000,99.640000,347.100000,99C346.940000,98.360000,345.240000,93.510000,343.040000,93.240000C340.840000,92.970000,338.110000,96.720000,338.110000,96.720000Z" fill="rgb(38,109,254)" stroke="none" stroke-width="1"/><path id="e0r075parzjn41" d="M330.060000,94.370000C329.782387,94.584124,329.587935,94.888176,329.510000,95.230000C329.184621,96.137115,329.314831,97.145317,329.860000,97.940000C330.680000,99.050000,337.290000,104.850000,339.960000,109.720000C342.630000,114.590000,346.010000,120.140000,346.290000,121.280000C346.290000,121.280000,347.510000,113.480000,346.410000,109.890000C345.310000,106.300000,341.810000,99.080000,341.070000,98.540000C340.330000,98,335.780000,97.540000,335.780000,97.540000Z" fill="rgb(240,246,255)" stroke="none" stroke-width="1"/><path id="e0r075parzjn42" d="M336.880000,102.210000C336.681114,102.566477,336.526631,102.945968,336.420000,103.340000C336.313369,103.734032,334.500000,102.290000,333.700000,101.900000L336.650000,104.100000C336.706360,103.649306,336.813715,103.206470,336.970000,102.780000C337.701090,103.352813,338.347492,104.026148,338.890000,104.780000C339.130000,105.390000,342.230000,113.780000,342.230000,113.780000L343.860000,116.650000L344.280000,115.960000L341.610000,108.140000C341.610000,108.140000,340.110000,105.680000,340.080000,105.620000L339.080000,102.920000Z" fill="rgb(196,204,214)" stroke="none" stroke-width="1"/><path id="e0r075parzjn43" d="M336.880000,102.210000C337.427726,101.110213,338.523293,100.388742,339.750000,100.320000C340.976707,100.251258,340.290000,102.740000,340.450000,103.730000C340.450000,103.730000,339.230000,104.300000,338.740000,103.840000C338.250000,103.380000,336.890000,102.210000,336.890000,102.210000" fill="rgb(22,10,91)" stroke="none" stroke-width="1"/><path id="e0r075parzjn44" d="M340.160000,103.210000C343.231279,107.493247,345.457700,112.322817,346.720000,117.440000L346.370000,121.440000L343.810000,116.540000C343.810000,116.540000,339.620000,105.280000,338.640000,103.220000C337.660000,101.160000,340.160000,103.220000,340.160000,103.220000" fill="rgb(22,10,91)" stroke="none" stroke-width="1"/><path id="e0r075parzjn45" d="M332.100000,129.070000C331.770000,130.450000,331.390000,132.160000,331.030000,133.990000C331.030000,133.990000,338.230000,144.090000,345.260000,148.210000C345.937141,147.335394,346.381021,146.303116,346.550000,145.210000C346.792103,143.482522,346.942315,141.743407,347,140L338.830000,133.340000Z" fill="rgb(8,16,31)" stroke="none" stroke-width="1"/><path id="e0r075parzjn46" d="M331.610000,114.230000C332.383505,115.420419,333.267408,116.535343,334.250000,117.560000C334.800000,117.840000,339.310000,126.320000,340.250000,127.920000C341.213503,129.326016,342.334063,130.617679,343.590000,131.770000L341.300000,132.010000L332.300000,119.080000Z" fill="rgb(36,18,106)" stroke="none" stroke-width="1"/><path id="e0r075parzjn47" d="M341.240000,96L345.240000,100.320000L344.240000,100.700000L345.550000,101.520000C347.514399,107.033857,348.347647,112.887002,348,118.730000C347.652353,124.572998,349.580000,111.540000,346.160000,101.350000L345.100000,100.770000L345.810000,100.530000Z" fill="rgb(8,16,31)" stroke="none" stroke-width="1"/><path id="e0r075parzjn48" d="M330,93.640000C330.075247,93.806125,330.109540,93.987878,330.100000,94.170000C330.070109,94.606155,330.070109,95.043845,330.100000,95.480000C331.504625,98.445479,334.450337,100.375829,337.730000,100.480000L338.460000,99.310000C339.497638,99.275842,340.506669,98.961383,341.380000,98.400000C341.879530,97.772453,342.005397,96.925712,341.710000,96.180000L341.830000,94.490000C341.845165,94.290602,341.930146,94.102935,342.070000,93.960000C342.271425,93.777753,342.428731,93.552053,342.530000,93.300000C342.534947,93.025967,342.473172,92.754842,342.350000,92.510000C342.279636,92.346265,342.252105,92.167314,342.270000,91.990000C342.344588,91.161285,342.276947,90.325918,342.070000,89.520000C341.991025,89.191344,341.991025,88.848656,342.070000,88.520000C342.200000,87.980000,342.380000,87.180000,342.400000,86.900000C342.400000,86.460000,341.730000,85.280000,341.700000,84.810000C341.541364,84.128228,341.330749,83.459606,341.070000,82.810000C340.809251,82.160394,337.280000,75.260000,331.170000,78.530000C325.060000,81.800000,328.220000,88.890000,328.980000,90.900000C328.980000,90.900000,329.720000,92.530000,329.850000,92.900000C329.893819,93.176636,329.953924,93.450445,330.030000,93.720000" fill="rgb(252,209,197)" stroke="none" stroke-width="1"/><path id="e0r075parzjn49" d="M341.550000,83.540000C341.610623,84.086609,341.406204,84.629250,341,85C339.862303,86.118509,338.411525,86.864822,336.840000,87.140000C335.470000,87.340000,334.720000,87.410000,334.310000,87.430000C334.024195,87.455593,333.803980,87.693079,333.800000,87.980000C333.800000,88.530000,333.720000,89.360000,333.650000,89.930000C333.621294,90.154140,333.560681,90.373022,333.470000,90.580000L333.040000,91.580000C332.942354,91.816528,332.705445,91.965098,332.450000,91.950000L332.350000,91.950000C332.066212,91.913645,331.845823,91.684940,331.820000,91.400000L331.820000,91.400000C331.751782,90.648686,331.317906,89.979170,330.660000,89.610000C330.239639,89.399402,329.734368,89.458447,329.373890,89.760293C329.013412,90.062139,328.866523,90.549180,329,91C328.153396,89.839037,327.523295,88.534796,327.140000,87.150000C326.570000,84.960000,326.700000,81.010000,329.360000,78.940000C332.020000,76.870000,335.470000,76.050000,338.420000,78.280000C340.162918,79.509326,341.300922,81.421754,341.550000,83.540000" fill="rgb(170,131,131)" stroke="none" stroke-width="1"/><g id="e0r075parzjn50"><path id="e0r075parzjn51" d="M357.600000,142.360000C358.258341,142.509005,358.941659,142.509005,359.600000,142.360000C360.761413,141.936084,362.042495,141.982734,363.170000,142.490000C363.829307,142.839062,364.555435,143.043605,365.300000,143.090000C365.981900,143.108114,366.656751,143.232961,367.300000,143.460000C367.603689,143.578263,367.830698,143.837095,367.908335,144.153616C367.985972,144.470137,367.904498,144.804635,367.690000,145.050000C367.090000,145.970000,364.860000,145.100000,364.490000,145.050000C364.120000,145,363.730000,145.670000,363.910000,146.290000C365.105874,148.084120,366.472216,149.758558,367.990000,151.290000C368.520000,151.680000,370.800000,153.290000,370.900000,153.970000C371,154.650000,370.900000,154.710000,370.900000,154.710000C370.900000,154.710000,371.560000,155.360000,371.330000,155.950000C371.100000,156.540000,370.060000,155.630000,369.870000,155.770000C369.870000,155.770000,370.040000,156.440000,369.790000,156.560000C369.107549,156.485041,368.452792,156.248505,367.880000,155.870000C367.307208,155.491495,367.710000,156.380000,366.880000,155.870000C366.050000,155.360000,362.800000,153.370000,362.430000,152.990000C361.746490,152.277769,361.018353,151.609752,360.250000,150.990000C359.576942,150.389962,358.948604,149.741571,358.370000,149.050000C357.399168,148.307437,356.310762,147.732813,355.150000,147.350000C354.380000,147.190000,357.620000,142.420000,357.620000,142.420000" fill="rgb(252,209,197)" stroke="none" stroke-width="1"/><path id="e0r075parzjn52" d="M360.180000,149.520000C359.440000,148.060000,356.950000,146.930000,356.950000,146.930000C357.401826,145.393594,357.990864,143.900920,358.710000,142.470000C358.341202,142.459262,357.973622,142.422504,357.610000,142.360000C357.246378,142.297496,354.370000,147.130000,355.140000,147.290000C356.300320,147.673851,357.388560,148.248388,358.360000,148.990000C358.938391,149.681762,359.566744,150.330169,360.240000,150.930000C361.008317,151.549793,361.736453,152.217807,362.420000,152.930000C362.800000,153.300000,366.030000,155.280000,366.870000,155.810000C367.710000,156.340000,367.870000,155.810000,367.870000,155.810000C368.443138,156.187817,369.097724,156.424290,369.780000,156.500000C370.030000,156.380000,369.860000,155.710000,369.860000,155.710000C369.184552,155.320755,368.478954,154.986348,367.750000,154.710000C366.680000,154.310000,360.910000,151.030000,360.170000,149.560000" fill="rgb(226,177,166)" stroke="none" stroke-width="1"/><path id="e0r075parzjn53" d="M332.890000,116.920000C332.033871,114.542095,330.613175,112.407620,328.750000,110.700000C326.680000,108.840000,323.960000,107.020000,322.530000,108.700000C320,111.570000,321.080000,116.980000,324.590000,122.040000C328.100000,127.100000,333.740000,134.440000,335.060000,135.670000C336.380000,136.900000,347.190000,145.670000,353.410000,148.910000C353.883637,149.119853,354.439122,148.933245,354.690000,148.480000C355.550000,146.960000,357.330000,143.780000,357.960000,142.480000C358.087158,142.215964,358.012077,141.898954,357.780000,141.720000C355.500000,140.150000,344.140000,132.300000,340.780000,129.860000C340.254468,129.469708,339.835044,128.954022,339.560000,128.360000C338.560000,126.300000,336.050000,121.220000,333.820000,118.630000C333.421430,118.155058,333.109970,117.613388,332.900000,117.030000Z" fill="rgb(75,138,249)" stroke="none" stroke-width="1"/><path id="e0r075parzjn54" d="M355.240000,147.220000C355.240000,147.220000,343.450000,139.940000,339.450000,137.030000C335.450000,134.120000,324.310000,121.910000,322,117.190000C322.651467,118.889748,323.511373,120.502071,324.560000,121.990000C328.110000,127.110000,333.710000,134.390000,335.030000,135.620000C336.350000,136.850000,347.160000,145.620000,353.380000,148.860000C353.853637,149.069853,354.409122,148.883245,354.660000,148.430000L355.250000,147.430000L355.250000,147.280000" fill="rgb(8,16,31)" stroke="none" stroke-width="1"/></g><path id="e0r075parzjn55" d="M331.480000,92.800000C331.350000,92.630000,331.480000,94.140000,330.070000,94.180000C330.040503,94.612831,330.040503,95.047169,330.070000,95.480000C331.472827,98.447044,334.419620,100.378101,337.700000,100.480000L338.430000,99.310000C338.430000,99.310000,333.760000,96.870000,332.930000,95.760000C332.353226,94.840459,331.877148,93.861482,331.510000,92.840000" fill="rgb(226,177,166)" stroke="none" stroke-width="1"/><path id="e0r075parzjn56" d="M339.750000,100.330000C340.439185,100.412787,341.112803,100.594664,341.750000,100.870000C341.849262,100.326414,341.783073,99.765547,341.560000,99.260000C341.336927,98.754453,341.970000,99.620000,341.970000,101.400000L339.780000,100.640000Z" fill="rgb(196,204,214)" stroke="none" stroke-width="1"/><path id="e0r075parzjn57" d="M328.120000,99.660000L333.510000,107.890000L334.900000,107.360000L334.980000,108.930000C334.980000,108.930000,341.430000,114.090000,346.250000,124.810000C346.250000,124.810000,339.870000,113.810000,334.790000,110.090000L334.330000,108.510000L333.250000,108.780000Z" fill="rgb(8,16,31)" stroke="none" stroke-width="1"/><path id="e0r075parzjn58" d="M327.640000,88.210000L327.470000,88.160000C327.850956,89.170712,328.365528,90.125865,329,91C328.794650,90.531160,328.914968,89.983394,329.297898,89.643771C329.680828,89.304148,330.239045,89.250119,330.680000,89.510000C331.337906,89.879170,331.771782,90.548686,331.840000,91.300000L331.840000,91.300000C331.865823,91.584940,332.086212,91.813645,332.370000,91.850000L332.470000,91.850000C332.725445,91.865098,332.962354,91.716528,333.060000,91.480000L333.490000,90.480000C333.580811,90.273069,333.641430,90.054167,333.670000,89.830000C333.740000,89.270000,333.790000,88.430000,333.820000,87.880000C333.820000,87.880000,330.230000,89.130000,327.620000,88.150000" fill="rgb(147,109,109)" stroke="none" stroke-width="1"/></g><g id="e0r075parzjn59" opacity="0.44"><polygon id="e0r075parzjn60" points="145.570000,222.220000 110.090000,200.940000 50.410000,285.380000 145.570000,222.220000" fill="url(#e0r075parzjn60-fill)" stroke="none" stroke-width="1"/><polygon id="e0r075parzjn61" points="145.570000,222.220000 144.940000,237.700000 49.780000,285.070000 145.570000,222.220000" fill="url(#e0r075parzjn61-fill)" stroke="none" stroke-width="1"/><polygon id="e0r075parzjn62" points="145.570000,222.590000 81.900000,263.830000 145.510000,222.180000 145.570000,222.590000" fill="rgb(219,250,255)" stroke="none" stroke-width="1"/><polygon id="e0r075parzjn63" points="50.410000,285.380000 186.070000,247.420000 151.660000,226.150000 50.410000,285.380000" fill="url(#e0r075parzjn63-fill)" stroke="none" stroke-width="1"/><polygon id="e0r075parzjn64" points="119.970000,244.690000 178.670000,249.470000 180.210000,249.070000 120.680000,244.250000 119.970000,244.690000" fill="rgb(114,190,242)" stroke="none" stroke-width="1"/><polygon id="e0r075parzjn65" points="116.580000,240.860000 108.670000,202.960000 108.320000,203.460000 115.930000,241.310000 116.580000,240.860000" fill="rgb(114,190,242)" stroke="none" stroke-width="1"/></g><script><![CDATA[!function(t,n){"object"==typeof exports&&"undefined"!=typeof module?module.exports=n():"function"==typeof define&&define.amd?define(n):(t=t||self).__SVGATOR_PLAYER__=n()}(this,(function(){"use strict";function t(n){return(t="function"==typeof Symbol&&"symbol"==typeof Symbol.iterator?function(t){return typeof t}:function(t){return t&&"function"==typeof Symbol&&t.constructor===Symbol&&t!==Symbol.prototype?"symbol":typeof t})(n)}function n(t,n){if(!(t instanceof n))throw new TypeError("Cannot call a class as a function")}function r(t,n){for(var r=0;r<n.length;r++){var e=n[r];e.enumerable=e.enumerable||!1,e.configurable=!0,"value"in e&&(e.writable=!0),Object.defineProperty(t,e.key,e)}}function e(t,n,e){return n&&r(t.prototype,n),e&&r(t,e),t}var i=1e-5,u=Math.abs;function o(t){return t}function a(t,n,r){var e=1-r;return 3*r*e*(t*e+n*r)+r*r*r}function l(){var t=arguments.length>0&&void 0!==arguments[0]?arguments[0]:0,n=arguments.length>1&&void 0!==arguments[1]?arguments[1]:0,r=arguments.length>2&&void 0!==arguments[2]?arguments[2]:1,e=arguments.length>3&&void 0!==arguments[3]?arguments[3]:1;return t<0||t>1||r<0||r>1?null:u(t-n)<=i&&u(r-e)<=i?o:function(o){if(o<=0)return t>0?o*n/t:0===n&&r>0?o*e/r:0;if(o>=1)return r<1?1+(o-1)*(e-1)/(r-1):1===r&&t<1?1+(o-1)*(n-1)/(t-1):1;for(var l,f=0,s=1;f<s;){var c=a(t,r,l=(f+s)/2);if(u(o-c)<i)break;c<o?f=l:s=l}return a(n,e,l)}}function f(){return 1}function s(t){return 1===t?1:0}function c(){var t=arguments.length>0&&void 0!==arguments[0]?arguments[0]:1,n=arguments.length>1&&void 0!==arguments[1]?arguments[1]:0;if(1===t){if(0===n)return s;if(1===n)return f}var r=1/t;return function(t){return t>=1?1:(t+=n*r)-t%r}}function v(t){var n=arguments.length>1&&void 0!==arguments[1]?arguments[1]:2;if(Number.isInteger(t))return t;var r=Math.pow(10,n);return Math.round(t*r)/r}var h=Math.PI/180;function y(t,n,r){return t>=.5?r:n}function d(t,n,r){return 0===t||n===r?n:t*(r-n)+n}function g(t,n,r){var e=d(t,n,r);return e<=0?0:e}function m(t,n,r){return 0===t?n:1===t?r:{x:d(t,n.x,r.x),y:d(t,n.y,r.y)}}function p(t,n,r){return 0===t?n:1===t?r:{x:g(t,n.x,r.x),y:g(t,n.y,r.y)}}function b(t,n,r){var e=function(t,n,r){return Math.round(d(t,n,r))}(t,n,r);return e<=0?0:e>=255?255:e}function w(t,n,r){return 0===t?n:1===t?r:{r:b(t,n.r,r.r),g:b(t,n.g,r.g),b:b(t,n.b,r.b),a:d(t,null==n.a?1:n.a,null==r.a?1:r.a)}}function A(t,n,r){if(0===t)return n;if(1===t)return r;var e=n.length;if(e!==r.length)return y(t,n,r);for(var i=[],u=0;u<e;u++)i.push(w(t,n[u],r[u]));return i}function x(t,n,r){var e=n.length;if(e!==r.length)return y(t,n,r);for(var i=new Array(e),u=0;u<e;u++)i[u]=d(t,n[u],r[u]);return i}function k(t,n){for(var r=[],e=0;e<t;e++)r.push(n);return r}function S(t,n){if(--n<=0)return t;var r=(t=Object.assign([],t)).length;do{for(var e=0;e<r;e++)t.push(t[e])}while(--n>0);return t}var _=6,M=/\.0+$/g;function I(t){return Number.isInteger(t)?t+"":t.toFixed(_).replace(M,"")}function E(t){var n=arguments.length>1&&void 0!==arguments[1]?arguments[1]:" ";return t&&t.length?t.map(I).join(n):""}function F(t){return I(t.x)+","+I(t.y)}function B(t){return t?null==t.a||t.a>=1?"rgb("+t.r+","+t.g+","+t.b+")":"rgba("+t.r+","+t.g+","+t.b+","+t.a+")":"transparent"}var j={f:null,i:p,u:function(t,n){return function(r){var e=n(r);t.setAttribute("rx",I(e.x)),t.setAttribute("ry",I(e.y))}}},q={f:null,i:function(t,n,r){return 0===t?n:1===t?r:{width:g(t,n.width,r.width),height:g(t,n.height,r.height)}},u:function(t,n){return function(r){var e=n(r);t.setAttribute("width",I(e.width)),t.setAttribute("height",I(e.height))}}},P=Math.sin,O=Math.cos,z=Math.acos,L=Math.asin,C=Math.tan,R=Math.atan2,T=Math.PI/180,V=180/Math.PI,D=Math.sqrt,N=function(){function t(){var r=arguments.length>0&&void 0!==arguments[0]?arguments[0]:1,e=arguments.length>1&&void 0!==arguments[1]?arguments[1]:0,i=arguments.length>2&&void 0!==arguments[2]?arguments[2]:0,u=arguments.length>3&&void 0!==arguments[3]?arguments[3]:1,o=arguments.length>4&&void 0!==arguments[4]?arguments[4]:0,a=arguments.length>5&&void 0!==arguments[5]?arguments[5]:0;n(this,t),this.m=[r,e,i,u,o,a],this.i=null,this.w=null,this.s=null}return e(t,[{key:"point",value:function(t,n){var r=this.m;return{x:r[0]*t+r[2]*n+r[4],y:r[1]*t+r[3]*n+r[5]}}},{key:"translateSelf",value:function(){var t=arguments.length>0&&void 0!==arguments[0]?arguments[0]:0,n=arguments.length>1&&void 0!==arguments[1]?arguments[1]:0;if(!t&&!n)return this;var r=this.m;return r[4]+=r[0]*t+r[2]*n,r[5]+=r[1]*t+r[3]*n,this.w=this.s=this.i=null,this}},{key:"rotateSelf",value:function(){var t=arguments.length>0&&void 0!==arguments[0]?arguments[0]:0;if(t%=360){var n=P(t*=T),r=O(t),e=this.m,i=e[0],u=e[1];e[0]=i*r+e[2]*n,e[1]=u*r+e[3]*n,e[2]=e[2]*r-i*n,e[3]=e[3]*r-u*n,this.w=this.s=this.i=null}return this}},{key:"scaleSelf",value:function(){var t=arguments.length>0&&void 0!==arguments[0]?arguments[0]:1,n=arguments.length>1&&void 0!==arguments[1]?arguments[1]:1;if(1!==t||1!==n){var r=this.m;r[0]*=t,r[1]*=t,r[2]*=n,r[3]*=n,this.w=this.s=this.i=null}return this}},{key:"skewSelf",value:function(t,n){if(n%=360,(t%=360)||n){var r=this.m,e=r[0],i=r[1],u=r[2],o=r[3];t&&(t=C(t*T),r[2]+=e*t,r[3]+=i*t),n&&(n=C(n*T),r[0]+=u*n,r[1]+=o*n),this.w=this.s=this.i=null}return this}},{key:"resetSelf",value:function(){var t=arguments.length>0&&void 0!==arguments[0]?arguments[0]:1,n=arguments.length>1&&void 0!==arguments[1]?arguments[1]:0,r=arguments.length>2&&void 0!==arguments[2]?arguments[2]:0,e=arguments.length>3&&void 0!==arguments[3]?arguments[3]:1,i=arguments.length>4&&void 0!==arguments[4]?arguments[4]:0,u=arguments.length>5&&void 0!==arguments[5]?arguments[5]:0,o=this.m;return o[0]=t,o[1]=n,o[2]=r,o[3]=e,o[4]=i,o[5]=u,this.w=this.s=this.i=null,this}},{key:"recomposeSelf",value:function(){var t=arguments.length>0&&void 0!==arguments[0]?arguments[0]:null,n=arguments.length>1&&void 0!==arguments[1]?arguments[1]:null,r=arguments.length>2&&void 0!==arguments[2]?arguments[2]:null,e=arguments.length>3&&void 0!==arguments[3]?arguments[3]:null,i=arguments.length>4&&void 0!==arguments[4]?arguments[4]:null;return this.isIdentity||this.resetSelf(),t&&(t.x||t.y)&&this.translateSelf(t.x,t.y),n&&this.rotateSelf(n),r&&(r.x&&this.skewSelf(r.x,0),r.y&&this.skewSelf(0,r.y)),!e||1===e.x&&1===e.y||this.scaleSelf(e.x,e.y),i&&(i.x||i.y)&&this.translateSelf(i.x,i.y),this}},{key:"decompose",value:function(){var t=arguments.length>0&&void 0!==arguments[0]?arguments[0]:0,n=arguments.length>1&&void 0!==arguments[1]?arguments[1]:0,r=this.m,e=r[0]*r[0]+r[1]*r[1],i=[[r[0],r[1]],[r[2],r[3]]],u=D(e);if(0===u)return{origin:{x:r[4],y:r[5]},translate:{x:t,y:n},scale:{x:0,y:0},skew:{x:0,y:0},rotate:0};i[0][0]/=u,i[0][1]/=u;var o=r[0]*r[3]-r[1]*r[2]<0;o&&(u=-u);var a=i[0][0]*i[1][0]+i[0][1]*i[1][1];i[1][0]-=i[0][0]*a,i[1][1]-=i[0][1]*a;var l=D(i[1][0]*i[1][0]+i[1][1]*i[1][1]);if(0===l)return{origin:{x:r[4],y:r[5]},translate:{x:t,y:n},scale:{x:u,y:0},skew:{x:0,y:0},rotate:0};i[1][0]/=l,i[1][1]/=l,a/=l;var f=0;return i[1][1]<0?(f=z(i[1][1])*V,i[0][1]<0&&(f=360-f)):f=L(i[0][1])*V,o&&(f=-f),a=R(a,D(i[0][0]*i[0][0]+i[0][1]*i[0][1]))*V,{origin:{x:r[4],y:r[5]},translate:{x:t,y:n},scale:{x:u,y:l},skew:{x:a,y:0},rotate:f}}},{key:"toString",value:function(){return null===this.s&&(this.s="matrix("+this.m.map($).join(" ")+")"),this.s}},{key:"determinant",get:function(){var t=this.m;return t[0]*t[3]-t[1]*t[2]}},{key:"isIdentity",get:function(){if(null===this.i){var t=this.m;this.i=1===t[0]&&0===t[1]&&0===t[2]&&1===t[3]&&0===t[4]&&0===t[5]}return this.i}}]),t}(),G=/\.0+$/;function $(t){return Number.isInteger(t)?t:t.toFixed(14).replace(G,"")}Object.freeze({M:2,L:2,Z:0,H:1,V:1,C:6,Q:4,T:2,S:4,A:7});function H(t,n,r){return t+(n-t)*r}function Q(t,n,r){var e=arguments.length>3&&void 0!==arguments[3]&&arguments[3],i={x:H(t.x,n.x,r),y:H(t.y,n.y,r)};return e&&(i.a=function(t,n){return Math.atan2(n.y-t.y,n.x-t.x)}(t,n)),i}function U(t,n,r,e){var i=1-e;return i*i*t+2*i*e*n+e*e*r}function Y(t,n,r,e){return 2*(1-e)*(n-t)+2*e*(r-n)}function Z(t,n,r,e){var i=arguments.length>4&&void 0!==arguments[4]&&arguments[4],u={x:U(t.x,n.x,r.x,e),y:U(t.y,n.y,r.y,e)};return i&&(u.a=function(t,n,r,e){return Math.atan2(Y(t.y,n.y,r.y,e),Y(t.x,n.x,r.x,e))}(t,n,r,e)),u}function J(t,n,r,e,i){var u=i*i;return i*u*(e-t+3*(n-r))+3*u*(t+r-2*n)+3*i*(n-t)+t}function K(t,n,r,e,i){var u=1-i;return 3*(u*u*(n-t)+2*u*i*(r-n)+i*i*(e-r))}function W(t,n,r,e,i){var u=arguments.length>5&&void 0!==arguments[5]&&arguments[5],o={x:J(t.x,n.x,r.x,e.x,i),y:J(t.y,n.y,r.y,e.y,i)};return u&&(o.a=function(t,n,r,e,i){return Math.atan2(K(t.y,n.y,r.y,e.y,i),K(t.x,n.x,r.x,e.x,i))}(t,n,r,e,i)),o}function X(t,n,r){var e,i=arguments.length>3&&void 0!==arguments[3]&&arguments[3];if(nt(n)){if(null!=(e=r).start&&!nt(e))return Z(n,r.start,r,t,i)}else if(nt(r)){if(n.end)return Z(n,n.end,r,t,i)}else{if(n.end)return r.start?W(n,n.end,r.start,r,t,i):Z(n,n.end,r,t,i);if(r.start)return Z(n,r.start,r,t,i)}return Q(n,r,t,i)}function tt(t,n,r){var e=X(t,n,r,!0);return e.a=function(t){return arguments.length>1&&void 0!==arguments[1]&&arguments[1]?t+Math.PI:t}(e.a)/h,e}function nt(t){return!t.type||"corner"===t.type}var rt=new N;var et={f:function(t){return t?t.join(" "):""},i:function(n,r,e){if(0===n)return r;if(1===n)return e;var i=r.length;if(i!==e.length)return y(n,r,e);for(var u,o=new Array(i),a=0;a<i;a++){if((u=t(r[a]))!==t(e[a]))return y(n,r,e);if("number"===u)o[a]=d(n,r[a],e[a]);else{if(r[a]!==e[a])return y(n,r,e);o[a]=r[a]}}return o}},it={f:null,i:x,u:function(t,n){return function(r){var e=n(r);t.setAttribute("x1",I(e[0])),t.setAttribute("y1",I(e[1])),t.setAttribute("x2",I(e[2])),t.setAttribute("y2",I(e[3]))}}},ut={f:I,i:d},ot={f:I,i:function(t,n,r){var e=d(t,n,r);return e<=0?0:e>=1?1:e}},at={f:E,i:function(t,n,r){var e,i,u,o=n.length,a=r.length;if(o!==a)if(0===o)n=k(o=a,0);else if(0===a)a=o,r=k(o,0);else{var l=(u=(e=o)*(i=a)/function(t,n){for(var r;n;)r=n,n=t%n,t=r;return t||1}(e,i))<0?-u:u;n=S(n,Math.floor(l/o)),r=S(r,Math.floor(l/a)),o=a=l}for(var f=[],s=0;s<o;s++)f.push(v(g(t,n[s],r[s]),6));return f}};function lt(t,n,r,e,i,u,o,a){return n=function(t,n,r){for(var e,i,u,o=t.length-1,a={},l=0;l<=o;l++)(e=t[l]).e&&(e.e=n(e.e)),e.v&&"g"===(i=e.v).t&&i.r&&(u=r.getElementById(i.r))&&(a[i.r]=u.querySelectorAll("stop"));return a}(t,e,a),function(e){var i,u=r(e,t,ft);return u?"c"===u.t?B(u.v):"g"===u.t?(n[u.r]&&function(t,n){for(var r=0,e=t.length;r<e;r++)t[r].setAttribute("stop-color",B(n[r]))}(n[u.r],u.v),(i=u.r)?"url(#"+i+")":"none"):"none":"none"}}function ft(t,n,r){if(0===t)return n;if(1===t)return r;if(n&&r){var e=n.t;if(e===r.t)switch(n.t){case"c":return{t:e,v:w(t,n.v,r.v)};case"g":if(n.r===r.r)return{t:e,v:A(t,n.v,r.v),r:n.r}}}return y(t,n,r)}var st={blur:p,brightness:g,contrast:g,"drop-shadow":function(t,n,r){return 0===t?n:1===t?r:{blur:p(t,n.blur,r.blur),offset:m(t,n.offset,r.offset),color:w(t,n.color,r.color)}},grayscale:g,"hue-rotate":d,invert:g,opacity:g,saturate:g,sepia:g};function ct(t,n,r){if(0===t)return n;if(1===t)return r;var e=n.length;if(e!==r.length)return y(t,n,r);for(var i,u=[],o=0;o<e;o++){if(n[o].type!==r[o].type)return n;if(!(i=st[n[o].type]))return y(t,n,r);u.push({type:n.type,value:i(t,n[o].value,r[o].value)})}return u}var vt={blur:function(t){return t?function(n){t.setAttribute("stdDeviation",F(n))}:null},brightness:function(t,n,r){return(t=yt(r,n))?function(n){n=I(n),t.map((function(t){return t.setAttribute("slope",n)}))}:null},contrast:function(t,n,r){return(t=yt(r,n))?function(n){var r=I((1-n)/2);n=I(n),t.map((function(t){t.setAttribute("slope",n),t.setAttribute("intercept",r)}))}:null},"drop-shadow":function(t,n,r){var e=r.getElementById(n+"-blur");if(!e)return null;var i=r.getElementById(n+"-offset");if(!i)return null;var u=r.getElementById(n+"-flood");return u?function(t){e.setAttribute("stdDeviation",F(t.blur)),i.setAttribute("dx",I(t.offset.x)),i.setAttribute("dy",I(t.offset.y)),u.setAttribute("flood-color",B(t.color))}:null},grayscale:function(t){return t?function(n){t.setAttribute("values",E(function(t){return[.2126+.7874*(t=1-t),.7152-.7152*t,.0722-.0722*t,0,0,.2126-.2126*t,.7152+.2848*t,.0722-.0722*t,0,0,.2126-.2126*t,.7152-.7152*t,.0722+.9278*t,0,0,0,0,0,1,0]}(n)))}:null},"hue-rotate":function(t){return t?function(n){return t.setAttribute("values",I(n))}:null},invert:function(t,n,r){return(t=yt(r,n))?function(n){n=I(n)+" "+I(1-n),t.map((function(t){return t.setAttribute("tableValues",n)}))}:null},opacity:function(t,n,r){return(t=r.getElementById(n+"-A"))?function(n){return t.setAttribute("tableValues","0 "+I(n))}:null},saturate:function(t){return t?function(n){return t.setAttribute("values",I(n))}:null},sepia:function(t){return t?function(n){return t.setAttribute("values",E(function(t){return[.393+.607*(t=1-t),.769-.769*t,.189-.189*t,0,0,.349-.349*t,.686+.314*t,.168-.168*t,0,0,.272-.272*t,.534-.534*t,.131+.869*t,0,0,0,0,0,1,0]}(n)))}:null}};var ht=["R","G","B"];function yt(t,n){var r=ht.map((function(r){return t.getElementById(n+"-"+r)||null}));return-1!==r.indexOf(null)?null:r}var dt={fill:lt,"fill-opacity":ot,stroke:lt,"stroke-opacity":ot,"stroke-width":ut,"stroke-dashoffset":{f:I,i:d},"stroke-dasharray":at,opacity:ot,transform:function(n,r,e,i){if(!(n=function(n,r){if(!n||"object"!==t(n))return null;var e=!1;for(var i in n)n.hasOwnProperty(i)&&(n[i]&&n[i].length?(n[i].forEach((function(t){t.e&&(t.e=r(t.e))})),e=!0):delete n[i]);return e?n:null}(n,i)))return null;var u=function(t,i,u){var o=arguments.length>3&&void 0!==arguments[3]?arguments[3]:null;return n[t]?e(i,n[t],u):r&&r[t]?r[t]:o};return r&&r.a&&n.o?function(t){var r=e(t,n.o,tt);return rt.recomposeSelf(r,u("r",t,d,0)+r.a,u("k",t,m),u("s",t,m),u("t",t,m)).toString()}:function(t){return rt.recomposeSelf(u("o",t,X,null),u("r",t,d,0),u("k",t,m),u("s",t,m),u("t",t,m)).toString()}},"#filter":function(t,n,r,e,i,u,o,a){if(!n.items||!t||!t.length)return null;var l=function(t,n){var r=(t=t.map((function(t){return t&&vt[t[0]]?(n.getElementById(t[1]),vt[t[0]](n.getElementById(t[1]),t[1],n)):null}))).length;return function(n){for(var e=0;e<r;e++)t[e]&&t[e](n[e].value)}}(n.items,a);return l?(t=function(t,n){return t.map((function(t){return t.e=n(t.e),t}))}(t,e),function(n){l(r(n,t,ct))}):null},"#line":it,points:{f:E,i:x},d:et,r:ut,"#size":q,"#radius":j,_:function(t,n){if(Array.isArray(t))for(var r=0;r<t.length;r++)this[t[r]]=n;else this[t]=n}},gt=function(){function t(r){n(this,t),this.list=r,this.length=r.length}return e(t,[{key:"setAttribute",value:function(t,n){for(var r=this.list,e=0;e<this.length;e++)r[e].setAttribute(t,n)}},{key:"removeAttribute",value:function(t){for(var n=this.list,r=0;r<this.length;r++)n[r].removeAttribute(t)}},{key:"style",value:function(t,n){for(var r=this.list,e=0;e<this.length;e++)r[e].style[t]=n}}]),t}(),mt=/-./g,pt=function(t,n){return n.toUpperCase()};function bt(t){return"function"==typeof t?t:y}function wt(t){return t?"function"==typeof t?t:Array.isArray(t)?function(t){var n=arguments.length>1&&void 0!==arguments[1]?arguments[1]:o;if(!Array.isArray(t))return n;switch(t.length){case 1:return c(t[0])||n;case 2:return c(t[0],t[1])||n;case 4:return l(t[0],t[1],t[2],t[3])||n}return n}(t,null):function(t,n){var r=arguments.length>2&&void 0!==arguments[2]?arguments[2]:o;switch(t){case"linear":return o;case"steps":return c(n.steps||1,n.jump||0)||r;case"bezier":case"cubic-bezier":return l(n.x1||0,n.y1||0,n.x2||0,n.y2||0)||r}return r}(t.type,t.value,null):null}function At(t,n,r){var e=arguments.length>3&&void 0!==arguments[3]&&arguments[3],i=n.length-1;if(t<=n[0].t)return e?[0,0,n[0].v]:n[0].v;if(t>=n[i].t)return e?[i,1,n[i].v]:n[i].v;var u,o=n[0],a=null;for(u=1;u<=i;u++){if(!(t>n[u].t)){a=n[u];break}o=n[u]}return null==a?e?[i,1,n[i].v]:n[i].v:o.t===a.t?e?[u,1,a.v]:a.v:(t=(t-o.t)/(a.t-o.t),o.e&&(t=o.e(t)),e?[u,t,r(t,o.v,a.v)]:r(t,o.v,a.v))}function xt(t,n){var r=arguments.length>2&&void 0!==arguments[2]?arguments[2]:null;return t&&t.length?"function"!=typeof n?null:("function"!=typeof r&&(r=null),function(e){var i=At(e,t,n);return null!=i&&r&&(i=r(i)),i}):null}function kt(t,n){return t.t-n.t}function St(n,r,e,i,u){var o,a="@"===e[0],l="#"===e[0],f=dt[e],s=y;switch(a?(o=e.substr(1),e=o.replace(mt,pt)):l&&(e=e.substr(1)),t(f)){case"function":if(s=f(i,u,At,wt,e,a,r,n),l)return s;break;case"string":s=xt(i,bt(f));break;case"object":if((s=xt(i,bt(f.i),f.f))&&"function"==typeof f.u)return f.u(r,s,e,a,n)}return s?function(t,n,r){if(arguments.length>3&&void 0!==arguments[3]&&arguments[3])return t instanceof gt?function(e){return t.style(n,r(e))}:function(e){return t.style[n]=r(e)};if(Array.isArray(n)){var e=n.length;return function(i){var u=r(i);if(null==u)for(var o=0;o<e;o++)t[o].removeAttribute(n);else for(var a=0;a<e;a++)t[a].setAttribute(n,u)}}return function(e){var i=r(e);null==i?t.removeAttribute(n):t.setAttribute(n,i)}}(r,e,s,a):null}function _t(n,r,e,i){if(!i||"object"!==t(i))return null;var u=null,o=null;return Array.isArray(i)?o=function(t){if(!t||!t.length)return null;for(var n=0;n<t.length;n++)t[n].e&&(t[n].e=wt(t[n].e));return t.sort(kt)}(i):(o=i.keys,u=i.data||null),o?St(n,r,e,o,u):null}function Mt(t,n,r){if(!r)return null;var e=[];for(var i in r)if(r.hasOwnProperty(i)){var u=_t(t,n,i,r[i]);u&&e.push(u)}return e.length?e:null}function It(t,n){if(!n.duration||n.duration<0)return null;var r=function(t,n){if(!n)return null;var r=[];if(Array.isArray(n))for(var e=n.length,i=0;i<e;i++){var u=n[i];if(2===u.length){var o=null;if("string"==typeof u[0])o=t.getElementById(u[0]);else if(Array.isArray(u[0])){o=[];for(var a=0;a<u[0].length;a++)if("string"==typeof u[0][a]){var l=t.getElementById(u[0][a]);l&&o.push(l)}o=o.length?1===o.length?o[0]:new gt(o):null}if(o){var f=Mt(t,o,u[1]);f&&(r=r.concat(f))}}}else for(var s in n)if(n.hasOwnProperty(s)){var c=t.getElementById(s);if(c){var v=Mt(t,c,n[s]);v&&(r=r.concat(v))}}return r.length?r:null}(t,n.elements);return r?function(t,n){var r=arguments.length>2&&void 0!==arguments[2]?arguments[2]:1/0,e=arguments.length>3&&void 0!==arguments[3]?arguments[3]:1,i=arguments.length>4&&void 0!==arguments[4]&&arguments[4],u=arguments.length>5&&void 0!==arguments[5]?arguments[5]:1,o=t.length,a=e>0?n:0;i&&r%2==0&&(a=n-a);var l=null;return function(f,s){var c=f%n,v=1+(f-c)/n;s*=e,i&&v%2==0&&(s=-s);var h=!1;if(v>r)c=a,h=!0,-1===u&&(c=e>0?0:n);else if(s<0&&(c=n-c),c===l)return!1;l=c;for(var y=0;y<o;y++)t[y](c);return h}}(r,n.duration,n.iterations||1/0,n.direction||1,!!n.alternate,n.fill||1):null}var Et=function(){function t(r){var e=arguments.length>1&&void 0!==arguments[1]?arguments[1]:{};n(this,t),this._id=0,this._running=!1,this._animations=r,this.direction=e.direction||1,this.speed=e.speed||1,this.fps=e.fps||100,this.offset=e.offset||0}return e(t,[{key:"_start",value:function(){var t=this,n=arguments.length>0&&void 0!==arguments[0]?arguments[0]:0,r=-1/0,e=null,i={},u=function u(o){t._running=!0,null==e&&(e=o);var a=Math.round((o-e+n)*t.speed),l=t.fps?1e3/t.fps:0;if(a>r+l){t.offset=a,r=a;for(var f=t._animations,s=f.length,c=0,v=0;v<s;v++)i[v]?c++:(i[v]=f[v](a,t.direction),i[v]&&c++);if(c===s)return void t._stop()}t._id=window.requestAnimationFrame(u)};this._id=window.requestAnimationFrame(u)}},{key:"_stop",value:function(){this._id&&window.cancelAnimationFrame(this._id),this._running=!1}},{key:"play",value:function(){this._running||this._start(this.offset)}},{key:"stop",value:function(){this._stop(),this.offset=0;var t=this.direction,n=this._animations;requestAnimationFrame((function(){for(var r=0;r<n.length;r++)n[r](0,t)}))}},{key:"restart",value:function(){this._stop(),this.offset=0,this._start()}},{key:"pause",value:function(){this._stop()}},{key:"reverse",value:function(){this.direction=-this.direction}}],[{key:"build",value:function(n){if(!(n=function(t){if(!t||!t.root||!Array.isArray(t.animations))return null;var n=window.document.getElementById(t.root);if(!n)return null;var r=t.animations.map((function(t){return It(n,t)})).filter((function(t){return!!t}));return r.length?{element:n,animations:r,options:t.options||void 0}:null}(n)))return null;var r=n.element,e=n.options||{},i=new t(n.animations,n.options);return function(t,n,r){var e=arguments.length>3&&void 0!==arguments[3]?arguments[3]:null;if("click"===r){return void n.addEventListener("click",(function r(){n.removeEventListener("click",r),t.play()}))}if("hover"===r)return n.addEventListener("mouseenter",(function(){return t.play()})),void n.addEventListener("mouseleave","freeze"===e?function(){return t.pause()}:function(){return t.stop()});t.play()}(i,r,e.start,e.hover),i}}]),t}();return function(){for(var t=0,n=["ms","moz","webkit","o"],r=0;r<n.length&&!window.requestAnimationFrame;++r)window.requestAnimationFrame=window[n[r]+"RequestAnimationFrame"],window.cancelAnimationFrame=window[n[r]+"CancelAnimationFrame"]||window[n[r]+"CancelRequestAnimationFrame"];window.requestAnimationFrame||(window.requestAnimationFrame=function(n){var r=Date.now(),e=Math.max(0,16-(r-t)),i=window.setTimeout((function(){n(r+e)}),e);return t=r+e,i},window.cancelAnimationFrame=window.clearTimeout)}(),Et}));
__SVGATOR_PLAYER__.build({"root":"e0r075parzjn1","animations":[{"duration":3000,"direction":1,"iterations":0,"fill":1,"alternate":false,"elements":{"e0r075parzjn2":{"transform":{"data":{"t":{"x":-357.12501526,"y":-208.595413205}},"keys":{"o":[{"t":0,"v":{"x":357.12501526,"y":208.595413205,"type":"corner"}},{"t":1200,"v":{"x":355.90926526,"y":191.31259833,"type":"corner"}},{"t":3000,"v":{"x":357.12501526,"y":208.595413205,"type":"corner"}}]}}},"e0r075parzjn14":{"transform":{"data":{"o":{"x":413.14945714,"y":142.3593989,"type":"corner"},"t":{"x":-413.14945714,"y":-142.3593989}},"keys":{"r":[{"t":0,"v":0},{"t":900,"v":4.987699862674828},{"t":1900,"v":-3.711062672718217},{"t":3000,"v":0}]}}},"e0r075parzjn50":{"transform":{"data":{"o":{"x":324.49,"y":110.52,"type":"corner"},"t":{"x":-324.49,"y":-110.52}},"keys":{"r":[{"t":0,"v":0},{"t":1200,"v":-1.4674360382796856},{"t":2100,"v":1.5265776689591761},{"t":3000,"v":0}]}}},"e0r075parzjn59":{"transform":{"data":{"t":{"x":-117.92500305,"y":-243.16000366}},"keys":{"o":[{"t":0,"v":{"x":117.92500305,"y":243.16000366,"type":"corner"}},{"t":1400,"v":{"x":117.92500305,"y":231.92803504500006,"type":"corner"}},{"t":3000,"v":{"x":117.92500305,"y":243.16000366,"type":"corner"}}]}}}}}],"options":{"start":"load","hover":"freeze"}})]]></script></svg>