<svg id="ex8xxsotq38o1" xmlns="http://www.w3.org/2000/svg" xmlns:xlink="http://www.w3.org/1999/xlink" viewBox="0 0 750 500" shape-rendering="geometricPrecision" text-rendering="geometricPrecision"><defs><linearGradient id="ex8xxsotq38o17-fill" x1="406.090000" y1="398.900000" x2="384.750000" y2="269.320000" spreadMethod="pad" gradientUnits="userSpaceOnUse"><stop id="ex8xxsotq38o17-fill-0" offset="0%" stop-color="rgb(247,146,57)"/><stop id="ex8xxsotq38o17-fill-1" offset="100%" stop-color="rgb(247,199,89)"/></linearGradient><linearGradient id="ex8xxsotq38o23-fill" x1="324.070000" y1="160.920000" x2="424.300000" y2="160.920000" spreadMethod="pad" gradientUnits="userSpaceOnUse"><stop id="ex8xxsotq38o23-fill-0" offset="0%" stop-color="rgb(63,35,35)"/><stop id="ex8xxsotq38o23-fill-1" offset="100%" stop-color="rgb(94,52,52)"/></linearGradient></defs><g id="ex8xxsotq38o2" style="isolation:isolate"><g id="ex8xxsotq38o3"><rect id="ex8xxsotq38o4" width="750" height="500" rx="0" ry="0" fill="rgb(255,255,255)" stroke="none" stroke-width="1"/></g><g id="ex8xxsotq38o5"><path id="ex8xxsotq38o6" d="M665.600000,316.650000C665.430000,317.600000,665.270000,318.520000,665.100000,319.450000C653.180000,386.450000,618.280000,415.950000,618.280000,415.950000L94.780000,415.950000C94.780000,415.950000,62.780000,357.090000,76.840000,305.730000C77.050000,304.950000,77.270000,304.170000,77.500000,303.410000C86.770000,272.830000,112.910000,245.290000,172.650000,234.930000C185.500000,232.700000,197.330000,230.570000,208.230000,228.530000L212.760000,227.650000C250.660000,220.400000,277.090000,213.930000,297.190000,206.530000L297.190000,206.530000C298.660000,205.980000,300.110000,205.420000,301.530000,204.870000C342.370000,188.800000,356.330000,167.870000,392.930000,125.490000Q397.200000,120.550000,402.030000,115.800000C402.740000,115.090000,403.450000,114.400000,404.190000,113.740000C425.449444,93.791545,450.766649,78.670127,478.410000,69.410000C479.170000,69.150000,479.930000,68.890000,480.690000,68.650000C516.900000,57.160000,556.230000,57,589.480000,77.070000C590.740000,77.830000,591.990000,78.610000,593.250000,79.440000C619.590000,96.810000,641.770000,127.510000,655.020000,176.130000C670.860000,234.270000,671.520000,280.710000,665.600000,316.650000Z" fill="rgb(228,235,247)" stroke="none" stroke-width="1"/><path id="ex8xxsotq38o7" d="M612.860000,188.080000C605.320000,226.080000,579.410000,256.630000,535.860000,278.940000C450.290000,322.720000,416.230000,377.500000,402.760000,415.940000L400.270000,415.940000L400.340000,415.730000C413.830000,376.830000,448.100000,321.180000,534.770000,276.820000C577.650000,254.870000,603.130000,224.820000,610.530000,187.620000C618.140000,149.220000,605.240000,108.950000,589.530000,77.060000C590.790000,77.820000,592.040000,78.600000,593.300000,79.430000C608.420000,111.110000,620.300000,150.460000,612.860000,188.080000Z" fill="rgb(255,255,255)" stroke="none" stroke-width="1"/><path id="ex8xxsotq38o8" d="M665.600000,316.650000C665.430000,317.600000,665.270000,318.520000,665.100000,319.450000C634.450000,333.550000,595.360000,348.700000,545.850000,363.780000C506.640000,375.700000,479.120000,393.200000,463.720000,415.950000L460.880000,415.950000C476.410000,392.080000,504.660000,373.830000,545.170000,361.500000C595.410000,346.200000,634.830000,330.870000,665.600000,316.650000Z" fill="rgb(255,255,255)" stroke="none" stroke-width="1"/><path id="ex8xxsotq38o9" d="M483.880000,107.430000C483.880000,148.750000,471.720000,205,414.140000,238.490000C389.750000,252.690000,362.350000,258,334.900000,258C297.640000,258,260.300000,248.160000,230.290000,237.190000C222.680000,234.420000,215.290000,231.480000,208.220000,228.490000L212.750000,227.610000C272,252.080000,352.280000,271.750000,413,236.450000C469.600000,203.530000,481.530000,148.110000,481.550000,107.450000C481.510708,94.722611,480.480932,82.017582,478.470000,69.450000C479.230000,69.190000,479.990000,68.930000,480.750000,68.690000C482.803819,81.501731,483.850357,94.454726,483.880000,107.430000Z" fill="rgb(255,255,255)" stroke="none" stroke-width="1"/><path id="ex8xxsotq38o10" d="M398.220000,187.480000C386.680000,202.720000,366.220000,210.350000,337.220000,210.350000C323.801725,210.209871,310.419867,208.925212,297.220000,206.510000C298.690000,205.960000,300.140000,205.400000,301.560000,204.850000C349.230000,212.510000,381.040000,206.220000,396.330000,186.050000C410.030000,168.050000,408.540000,141.150000,402.070000,115.770000C402.780000,115.060000,403.490000,114.370000,404.230000,113.710000C411.110000,140,412.840000,168.210000,398.220000,187.480000Z" fill="rgb(255,255,255)" stroke="none" stroke-width="1"/><path id="ex8xxsotq38o11" d="M357.710000,415.940000L355.270000,415.940000C350.270000,396.100000,340.930000,374.670000,323.930000,357.270000C296.080000,328.750000,253.790000,316.830000,198.250000,321.880000C147.410000,326.480000,106.730000,321.050000,76.840000,305.710000C77.050000,304.930000,77.270000,304.150000,77.500000,303.390000C107,318.680000,147.410000,324.090000,198,319.510000C254.320000,314.410000,297.220000,326.570000,325.600000,355.630000C343.130000,373.560000,352.630000,395.600000,357.710000,415.940000Z" fill="rgb(255,255,255)" stroke="none" stroke-width="1"/><path id="ex8xxsotq38o12" d="M154,393.610000C154,393.610000,167.630000,363.090000,136.220000,339.390000C104.810000,315.690000,97.710000,298.500000,97.710000,298.500000C97.710000,298.500000,87.100000,354.160000,106.300000,380.570000L106.300000,418.800000L152.790000,418.800000Z" fill="rgb(78,143,183)" stroke="none" stroke-width="1"/><path id="ex8xxsotq38o13" d="M125.890000,416.720000C125.890000,416.720000,124.350000,395.390000,145.590000,381.100000C166.830000,366.810000,166.520000,352.420000,166.520000,352.420000C166.520000,352.420000,182.840000,393.280000,162.210000,416.720000Z" fill="rgb(112,178,221)" stroke="none" stroke-width="1"/><path id="ex8xxsotq38o14" d="M130.600000,416.720000C130.600000,416.720000,133.880000,387.980000,107.060000,372.570000C80.240000,357.160000,74.600000,337.320000,74.600000,337.320000C74.600000,337.320000,59.790000,387.390000,84.080000,416.730000Z" fill="rgb(171,218,247)" stroke="none" stroke-width="1"/><path id="ex8xxsotq38o15" d="M296.810000,359.240000C288.540000,373.030000,277.680000,386.170000,264.550000,398.740000L264.550000,413.070000L296.550000,413.070000C296.550000,413.070000,306.680000,407.620000,326.960000,392.070000C327,392.120000,333.660000,347.780000,296.810000,359.240000Z" fill="rgb(244,145,135)" stroke="none" stroke-width="1"/><path id="ex8xxsotq38o16" d="M498.290000,386.500000C498.290000,386.500000,496.800000,414.940000,489.690000,416.720000C482.580000,418.500000,453.440000,392.120000,453.440000,392.120000L450.130000,379.530000L471.720000,363.780000C471.720000,363.780000,497.420000,371.690000,498.290000,386.500000Z" fill="rgb(244,145,135)" stroke="none" stroke-width="1"/><path id="ex8xxsotq38o17" d="M498.290000,386.500000C491.460000,373.500000,449.390000,382.940000,449.390000,382.940000L479.330000,413.070000L344.790000,413.070000C349.250000,397.570000,346.590000,359.830000,346.590000,359.830000C346.590000,360.110000,346.520000,360.380000,346.470000,360.660000C344.470000,375.810000,336.470000,383.820000,336.470000,383.820000C335.900000,391.550000,326.990000,392.120000,326.990000,392.120000C326.456103,386.196434,324.917446,380.407027,322.440000,375C313.690000,356.910000,296.820000,359.210000,296.820000,359.210000C295.020000,349.730000,305.120000,347.360000,305.120000,347.360000C305.120000,347.360000,317.540000,275.060000,335.630000,260.840000C353.720000,246.620000,383.200000,239.510000,383.200000,239.510000L413.560000,237.450000C413.560000,237.450000,473.100000,249.300000,484.960000,269.730000C496.820000,290.160000,494.750000,367.510000,494.750000,367.510000C504.220000,375.240000,498.290000,386.500000,498.290000,386.500000Z" fill="url(#ex8xxsotq38o17-fill)" stroke="none" stroke-width="1"/><path id="ex8xxsotq38o18" d="M449.390000,382.950000C449.390000,382.950000,454.390000,339.100000,438.130000,300.880000C438.130000,300.880000,440.800000,358.950000,417.130000,375.250000C393.460000,391.550000,353.130000,388.250000,343.060000,416.730000L431.950000,415.940000Z" opacity="0.5" fill="rgb(246,97,58)" stroke="none" stroke-width="1"/><path id="ex8xxsotq38o19" d="M346.470000,360.660000C344.470000,375.810000,336.470000,383.820000,336.470000,383.820000C335.900000,391.550000,326.990000,392.120000,326.990000,392.120000C326.456103,386.196434,324.917446,380.407027,322.440000,375C328.650409,368.960338,333.191106,361.415478,335.620000,353.100000C341.900000,332.340000,337.900000,309.770000,337.620000,308.160000C342.730000,327.600000,345.520000,351.420000,346.470000,360.660000Z" opacity="0.5" fill="rgb(246,97,58)" stroke="none" stroke-width="1"/><path id="ex8xxsotq38o20" d="M410.870000,398.060000C410.870000,398.060000,444.350000,374.650000,472.800000,384.130000C501.250000,393.610000,498.870000,413.130000,489.690000,416.720000L418.780000,416.720000Z" fill="rgb(254,177,158)" stroke="none" stroke-width="1"/><path id="ex8xxsotq38o21" d="M419.810000,238.540000C419.810000,238.540000,412.810000,277.650000,392.100000,277.860000C373.990000,278.030000,378.190000,254.270000,379.540000,248.230000C379.730000,247.330000,379.870000,246.830000,379.870000,246.830000L372.360000,218.200000L412.250000,197.080000L413.060000,201.470000L413.060000,201.540000Z" fill="rgb(254,177,158)" stroke="none" stroke-width="1"/><path id="ex8xxsotq38o22" d="M379.540000,248.240000C379.730000,247.340000,379.870000,246.840000,379.870000,246.840000L372.360000,218.210000L412.250000,197.090000L413.060000,201.480000L413.060000,201.550000C418.290000,248.240000,380.270000,248.240000,379.540000,248.240000Z" fill="rgb(255,133,106)" stroke="none" stroke-width="1"/><path id="ex8xxsotq38o23" d="M417.540000,183.090000C421.043688,175.772655,423.249808,167.902357,424.060000,159.830000C425.250000,147.680000,421.840000,144.830000,416.800000,144.830000C416.800000,144.830000,414.130000,131.050000,407.800000,126.310000C401.470000,121.570000,375.500000,128.530000,365.580000,134.460000C355.660000,140.390000,348.390000,124.060000,343.800000,124.740000C339.210000,125.420000,338.320000,138.010000,341.870000,143.640000C341.870000,143.640000,333.570000,139.050000,332.240000,134.310000C330.910000,129.570000,321.430000,138.160000,324.830000,155.790000C328.230000,173.420000,336.090000,175.640000,336.090000,175.640000C336.090000,175.640000,337.570000,194.310000,352.830000,196.380000C368.090000,198.450000,408.390000,194.900000,408.390000,194.900000Z" fill="url(#ex8xxsotq38o23-fill)" stroke="none" stroke-width="1"/><path id="ex8xxsotq38o24" d="M346.580000,176.420000C346.580000,176.420000,353.990000,227.090000,372.650000,233.610000C391.310000,240.130000,406.920000,220.200000,409.290000,214.870000C411.660000,209.540000,412.660000,198.360000,412.660000,198.360000C412.660000,198.360000,419.020000,199.840000,419.760000,188.580000C420.500000,177.320000,410.760000,170.650000,408.350000,190.060000C408.350000,190.060000,399.210000,185.060000,401.980000,167.840000C401.980000,167.840000,391.510000,177.720000,376.890000,177.720000C362.270000,177.720000,374.890000,167.840000,374.890000,167.840000C374.890000,167.840000,364.450000,177.510000,346.580000,176.420000Z" fill="rgb(254,177,158)" stroke="none" stroke-width="1"/><rect id="ex8xxsotq38o25" width="121.680000" height="6.520000" rx="0" ry="0" transform="matrix(1 0 0 1 341.54000000000002 410.19999999999999)" fill="rgb(171,218,247)" stroke="none" stroke-width="1"/><rect id="ex8xxsotq38o26" width="37.530000" height="6.520000" rx="0" ry="0" transform="matrix(1 0 0 1 425.69000000000000 410.19999999999999)" fill="rgb(112,178,221)" stroke="none" stroke-width="1"/><path id="ex8xxsotq38o27" d="M442.680000,410.400000C442.680000,410.400000,431.920000,394.340000,415.780000,394.600000C403.560000,394.790000,403.110000,402.500000,403.110000,402.500000C403.110000,402.500000,395.110000,401.500000,394.880000,410.400000Z" fill="rgb(255,199,174)" stroke="none" stroke-width="1"/><path id="ex8xxsotq38o28" d="M291.370000,409.410000C291.370000,409.410000,291.960000,400.520000,288.010000,399.340000C284.060000,398.160000,281.100000,401.510000,281.100000,401.510000C281.100000,401.510000,278.100000,388.510000,267.100000,388.080000C256.100000,387.650000,236.100000,398.940000,248.330000,409.410000Z" fill="rgb(254,177,158)" stroke="none" stroke-width="1"/><path id="ex8xxsotq38o29" d="M319.800000,413.070000C319.800000,415.085839,318.165839,416.720000,316.150000,416.720000L249.590000,416.720000C247.574161,416.720000,245.940000,415.085839,245.940000,413.070000C245.940000,411.054161,247.574161,409.420000,249.590000,409.420000L316.150000,409.420000C317.118040,409.420000,318.046432,409.804552,318.730940,410.489060C319.415448,411.173568,319.800000,412.101960,319.800000,413.070000Z" fill="rgb(112,178,221)" stroke="none" stroke-width="1"/><path id="ex8xxsotq38o30" d="M300.060000,413.070000C300.060000,415.085839,298.425839,416.720000,296.410000,416.720000L249.590000,416.720000C247.574161,416.720000,245.940000,415.085839,245.940000,413.070000C245.940000,411.054161,247.574161,409.420000,249.590000,409.420000L296.410000,409.420000C297.378040,409.420000,298.306432,409.804552,298.990940,410.489060C299.675448,411.173568,300.060000,412.101960,300.060000,413.070000Z" fill="rgb(171,218,247)" stroke="none" stroke-width="1"/><path id="ex8xxsotq38o31" d="M282.870000,403.540000L271.070000,365C270.548855,363.304256,268.789806,362.314791,267.070000,362.750000L267.070000,362.750000C266.158493,362.991685,265.392196,363.608504,264.961346,364.447328C264.530495,365.286151,264.475496,366.268318,264.810000,367.150000L278.920000,404.590000C280.308316,405.329763,282.032272,404.871496,282.870000,403.540000Z" fill="rgb(82,85,89)" stroke="none" stroke-width="1"/><ellipse id="ex8xxsotq38o32" rx="8.690000" ry="14.270000" transform="matrix(0.98662900000000 -0.16298200000000 0.16298200000000 0.98662900000000 191.16842986000000 309.02919481999999)" fill="rgb(255,255,255)" stroke="rgb(242,48,219)" stroke-width="2.370000" stroke-miterlimit="10"/><path id="ex8xxsotq38o33" d="M271.780000,376.140000L145.410000,376.140000C139.867342,376.121796,134.893734,372.732139,132.850000,367.580000C118.060000,330.650000,107.130000,294.740000,102.700000,260.580000C102.199464,256.720220,103.385358,252.831830,105.954688,249.908308C108.524018,246.984786,112.227901,245.309324,116.120000,245.310000L244.220000,245.310000C250.911187,245.307709,256.592859,250.210545,257.570000,256.830000C262.380000,288.520000,271.790000,322.490000,284.570000,358.160000C286.021468,362.299733,285.372582,366.886483,282.829761,370.461145C280.286939,374.035808,276.166796,376.153292,271.780000,376.140000Z" fill="rgb(144,198,224)" stroke="none" stroke-width="1"/><path id="ex8xxsotq38o34" d="M266.660000,376.140000L145.410000,376.140000C139.867342,376.121796,134.893734,372.732139,132.850000,367.580000C118.060000,330.650000,107.130000,294.740000,102.700000,260.580000C102.199464,256.720220,103.385358,252.831830,105.954688,249.908308C108.524018,246.984786,112.227901,245.309324,116.120000,245.310000L239.120000,245.310000C245.810846,245.319129,251.491814,250.214025,252.490000,256.830000C257.280000,288.520000,266.690000,322.490000,279.490000,358.160000C280.948826,362.306552,280.297507,366.903719,277.744260,370.481847C275.191013,374.059975,271.055579,376.170979,266.660000,376.140000Z" fill="rgb(171,218,247)" stroke="none" stroke-width="1"/><path id="ex8xxsotq38o35" d="M260.430000,416.720000L211.890000,416.720000C204.841566,416.714174,198.571180,412.242209,196.270000,405.580000L181.740000,354.810000C189.740000,354.810000,197.670000,354.810000,205.420000,354.810000C208,354.810000,210.590000,354.810000,213.150000,354.810000L224.720000,394.300000C226.366207,398.761412,230.300873,401.980337,235,402.710000L253.160000,405.550000C256.213491,406.034111,258.658302,408.340012,259.320000,411.360000Z" fill="rgb(144,198,224)" stroke="none" stroke-width="1"/><path id="ex8xxsotq38o36" style="mix-blend-mode:multiply" d="M235,402.710000L230.900000,402.330000C225.106459,401.844640,220.079229,398.139959,217.900000,392.750000L205.430000,354.750000C208.010000,354.750000,210.600000,354.750000,213.160000,354.750000L224.730000,394.240000C226.356804,398.721948,230.290339,401.966061,235,402.710000Z" opacity="0.35" fill="rgb(144,198,224)" stroke="none" stroke-width="1"/><ellipse id="ex8xxsotq38o37" rx="8.640000" ry="13.980000" transform="matrix(0.97245100000000 -0.23310600000000 0.23310600000000 0.97245100000000 190.37878812000002 311.29555151000005)" fill="rgb(255,255,255)" stroke="none" stroke-width="1"/><rect id="ex8xxsotq38o38" width="577.190000" height="11.850000" rx="0" ry="0" transform="matrix(1 0 0 1 56.50000000000000 416.72000000000003)" fill="rgb(112,178,221)" stroke="none" stroke-width="1"/><rect id="ex8xxsotq38o39" width="128" height="11.850000" rx="0" ry="0" transform="matrix(1 0 0 1 505.69000000000000 416.72000000000003)" fill="rgb(78,143,183)" stroke="none" stroke-width="1"/><polygon id="ex8xxsotq38o40" points="573.250000,368.330000 567.720000,333.960000 550.130000,336.130000 556.650000,370.300000 573.250000,368.330000" fill="rgb(112,178,221)" stroke="none" stroke-width="1"/><path id="ex8xxsotq38o41" d="M572.740000,365.170000L578.830000,322.750000C578.925685,322.116302,579.271866,321.547583,579.790819,321.171530C580.309772,320.795477,580.958013,320.643601,581.590000,320.750000L581.590000,320.750000C582.892558,320.950201,583.787258,322.166993,583.590000,323.470000L576.840000,367.360000L579.410000,367.360000L588.460000,333.730000C588.626543,333.101098,589.036383,332.564260,589.599154,332.237852C590.161926,331.911445,590.831413,331.822274,591.460000,331.990000L591.460000,331.990000C592.096286,332.147795,592.642794,332.554007,592.977309,333.117797C593.311824,333.681586,593.406441,334.355921,593.240000,334.990000L584.780000,367.360000L576.290000,371.360000Z" fill="rgb(78,143,183)" stroke="none" stroke-width="1"/><path id="ex8xxsotq38o42" d="M590.630000,365.170000L590.630000,408.930000C590.630000,412.795993,587.495993,415.930000,583.630000,415.930000L558.340000,415.930000C554.474007,415.930000,551.340000,412.795993,551.340000,408.930000L551.340000,365.170000Z" fill="rgb(171,218,247)" stroke="none" stroke-width="1"/><rect id="ex8xxsotq38o43" width="39.310000" height="10.260000" rx="0" ry="0" transform="matrix(1 0 0 1 551.32000000000005 365.17000000000002)" fill="rgb(144,198,224)" stroke="none" stroke-width="1"/><circle id="ex8xxsotq38o44" style="mix-blend-mode:multiply" r="55.920000" transform="matrix(1 0 0 1 551.07000000000005 151.88999999999999)" opacity="0.35" fill="rgb(112,178,221)" stroke="none" stroke-width="1"/><circle id="ex8xxsotq38o45" r="52.620000" transform="matrix(1 0 0 1 550.13999999999999 147.81999999999999)" fill="rgb(112,178,221)" stroke="none" stroke-width="1"/><circle id="ex8xxsotq38o46" r="38.710000" transform="matrix(1 0 0 1 550.13999999999999 147.81999999999999)" fill="rgb(171,218,247)" stroke="none" stroke-width="1"/><path id="ex8xxsotq38o47" display="none" d="M571.930000,146.060000L552.860000,146.060000L552.860000,146.060000C552.860000,144.027592,551.367863,146.060000,549.335455,146.060000C547.303047,146.060000,545.655455,147.707592,545.655455,149.740000L545.500000,152.820000L571.930000,152.820000C573.796722,152.820000,575.310000,151.306722,575.310000,149.440000C575.310000,147.573278,573.796722,146.060000,571.930000,146.060000Z" fill="rgb(112,178,221)" stroke="none" stroke-width="1"/><path id="ex8xxsotq38o48" d="M372.360000,242.720000C372.360000,242.720000,370.820000,261.240000,372.960000,274.060000C374.670000,284.300000,379.780000,287.710000,379.780000,287.710000L391.720000,277.470000C391.720000,277.470000,378.720000,273.470000,378.380000,264.360000C378.172754,259.025943,378.639780,253.687060,379.770000,248.470000L378.290000,240.870000Z" fill="rgb(222,232,234)" stroke="none" stroke-width="1"/><path id="ex8xxsotq38o49" d="M391.720000,277.470000L407.070000,289.410000C407.070000,289.410000,419.010000,280.880000,424.130000,260.410000C427.470000,247.070000,422.420000,238.230000,422.420000,238.230000L419,238.230000C419,238.230000,415.050000,260.230000,409.350000,266.230000C403.650000,272.230000,391.720000,277.470000,391.720000,277.470000Z" fill="rgb(222,232,234)" stroke="none" stroke-width="1"/><polygon id="ex8xxsotq38o50" points="391.720000,277.470000 383.190000,284.290000 391.720000,294.530000 393.430000,294.530000 400.250000,284.290000 391.720000,277.470000" fill="rgb(45,65,82)" stroke="none" stroke-width="1"/><polygon id="ex8xxsotq38o51" points="396.840000,391.770000 407.070000,379.830000 393.430000,294.530000 391.720000,294.530000 383.190000,379.830000 396.840000,391.770000" fill="rgb(91,110,129)" stroke="none" stroke-width="1"/></g></g><polyline id="ex8xxsotq38o52" display="none" points="74.085455,57.677431 50.525455,57.677431 50.525455,28.527431" transform="matrix(1 0 0 1 498.80999982999981 91.75928700000003)" fill="none" stroke="rgb(112,178,221)" stroke-width="7" stroke-linecap="round" stroke-linejoin="round"/><g id="ex8xxsotq38o53"><line id="ex8xxsotq38o54" x1="22.830000" y1="50" x2="47.305455" y2="50" transform="matrix(1 0 0 1 525.58999999500054 99.43671800999996)" fill="none" stroke="rgb(112,178,221)" stroke-width="7" stroke-linecap="round" stroke-miterlimit="10"/><line id="ex8xxsotq38o55" x1="22.830000" y1="50" x2="22.830000" y2="20.850000" transform="matrix(1 0 0 1 525.58999999500054 99.43671800999996)" fill="none" stroke="rgb(112,178,221)" stroke-width="7" stroke-linecap="round" stroke-miterlimit="10"/></g><script><![CDATA[!function(t,n){"object"==typeof exports&&"undefined"!=typeof module?module.exports=n():"function"==typeof define&&define.amd?define(n):(t=t||self).__SVGATOR_PLAYER__=n()}(this,(function(){"use strict";function t(n){return(t="function"==typeof Symbol&&"symbol"==typeof Symbol.iterator?function(t){return typeof t}:function(t){return t&&"function"==typeof Symbol&&t.constructor===Symbol&&t!==Symbol.prototype?"symbol":typeof t})(n)}function n(t,n){if(!(t instanceof n))throw new TypeError("Cannot call a class as a function")}function r(t,n){for(var r=0;r<n.length;r++){var e=n[r];e.enumerable=e.enumerable||!1,e.configurable=!0,"value"in e&&(e.writable=!0),Object.defineProperty(t,e.key,e)}}function e(t,n,e){return n&&r(t.prototype,n),e&&r(t,e),t}var i=1e-5,u=Math.abs;function o(t){return t}function a(t,n,r){var e=1-r;return 3*r*e*(t*e+n*r)+r*r*r}function l(){var t=arguments.length>0&&void 0!==arguments[0]?arguments[0]:0,n=arguments.length>1&&void 0!==arguments[1]?arguments[1]:0,r=arguments.length>2&&void 0!==arguments[2]?arguments[2]:1,e=arguments.length>3&&void 0!==arguments[3]?arguments[3]:1;return t<0||t>1||r<0||r>1?null:u(t-n)<=i&&u(r-e)<=i?o:function(o){if(o<=0)return t>0?o*n/t:0===n&&r>0?o*e/r:0;if(o>=1)return r<1?1+(o-1)*(e-1)/(r-1):1===r&&t<1?1+(o-1)*(n-1)/(t-1):1;for(var l,f=0,s=1;f<s;){var c=a(t,r,l=(f+s)/2);if(u(o-c)<i)break;c<o?f=l:s=l}return a(n,e,l)}}function f(){return 1}function s(t){return 1===t?1:0}function c(){var t=arguments.length>0&&void 0!==arguments[0]?arguments[0]:1,n=arguments.length>1&&void 0!==arguments[1]?arguments[1]:0;if(1===t){if(0===n)return s;if(1===n)return f}var r=1/t;return function(t){return t>=1?1:(t+=n*r)-t%r}}function v(t){var n=arguments.length>1&&void 0!==arguments[1]?arguments[1]:2;if(Number.isInteger(t))return t;var r=Math.pow(10,n);return Math.round(t*r)/r}var h=Math.PI/180;function y(t,n,r){return t>=.5?r:n}function d(t,n,r){return 0===t||n===r?n:t*(r-n)+n}function g(t,n,r){var e=d(t,n,r);return e<=0?0:e}function m(t,n,r){return 0===t?n:1===t?r:{x:d(t,n.x,r.x),y:d(t,n.y,r.y)}}function p(t,n,r){return 0===t?n:1===t?r:{x:g(t,n.x,r.x),y:g(t,n.y,r.y)}}function b(t,n,r){var e=function(t,n,r){return Math.round(d(t,n,r))}(t,n,r);return e<=0?0:e>=255?255:e}function w(t,n,r){return 0===t?n:1===t?r:{r:b(t,n.r,r.r),g:b(t,n.g,r.g),b:b(t,n.b,r.b),a:d(t,null==n.a?1:n.a,null==r.a?1:r.a)}}function A(t,n,r){if(0===t)return n;if(1===t)return r;var e=n.length;if(e!==r.length)return y(t,n,r);for(var i=[],u=0;u<e;u++)i.push(w(t,n[u],r[u]));return i}function x(t,n,r){var e=n.length;if(e!==r.length)return y(t,n,r);for(var i=new Array(e),u=0;u<e;u++)i[u]=d(t,n[u],r[u]);return i}function k(t,n){for(var r=[],e=0;e<t;e++)r.push(n);return r}function S(t,n){if(--n<=0)return t;var r=(t=Object.assign([],t)).length;do{for(var e=0;e<r;e++)t.push(t[e])}while(--n>0);return t}var _=6,M=/\.0+$/g;function I(t){return Number.isInteger(t)?t+"":t.toFixed(_).replace(M,"")}function E(t){var n=arguments.length>1&&void 0!==arguments[1]?arguments[1]:" ";return t&&t.length?t.map(I).join(n):""}function F(t){return I(t.x)+","+I(t.y)}function B(t){return t?null==t.a||t.a>=1?"rgb("+t.r+","+t.g+","+t.b+")":"rgba("+t.r+","+t.g+","+t.b+","+t.a+")":"transparent"}var j={f:null,i:p,u:function(t,n){return function(r){var e=n(r);t.setAttribute("rx",I(e.x)),t.setAttribute("ry",I(e.y))}}},q={f:null,i:function(t,n,r){return 0===t?n:1===t?r:{width:g(t,n.width,r.width),height:g(t,n.height,r.height)}},u:function(t,n){return function(r){var e=n(r);t.setAttribute("width",I(e.width)),t.setAttribute("height",I(e.height))}}},P=Math.sin,O=Math.cos,z=Math.acos,L=Math.asin,C=Math.tan,R=Math.atan2,T=Math.PI/180,V=180/Math.PI,D=Math.sqrt,N=function(){function t(){var r=arguments.length>0&&void 0!==arguments[0]?arguments[0]:1,e=arguments.length>1&&void 0!==arguments[1]?arguments[1]:0,i=arguments.length>2&&void 0!==arguments[2]?arguments[2]:0,u=arguments.length>3&&void 0!==arguments[3]?arguments[3]:1,o=arguments.length>4&&void 0!==arguments[4]?arguments[4]:0,a=arguments.length>5&&void 0!==arguments[5]?arguments[5]:0;n(this,t),this.m=[r,e,i,u,o,a],this.i=null,this.w=null,this.s=null}return e(t,[{key:"point",value:function(t,n){var r=this.m;return{x:r[0]*t+r[2]*n+r[4],y:r[1]*t+r[3]*n+r[5]}}},{key:"translateSelf",value:function(){var t=arguments.length>0&&void 0!==arguments[0]?arguments[0]:0,n=arguments.length>1&&void 0!==arguments[1]?arguments[1]:0;if(!t&&!n)return this;var r=this.m;return r[4]+=r[0]*t+r[2]*n,r[5]+=r[1]*t+r[3]*n,this.w=this.s=this.i=null,this}},{key:"rotateSelf",value:function(){var t=arguments.length>0&&void 0!==arguments[0]?arguments[0]:0;if(t%=360){var n=P(t*=T),r=O(t),e=this.m,i=e[0],u=e[1];e[0]=i*r+e[2]*n,e[1]=u*r+e[3]*n,e[2]=e[2]*r-i*n,e[3]=e[3]*r-u*n,this.w=this.s=this.i=null}return this}},{key:"scaleSelf",value:function(){var t=arguments.length>0&&void 0!==arguments[0]?arguments[0]:1,n=arguments.length>1&&void 0!==arguments[1]?arguments[1]:1;if(1!==t||1!==n){var r=this.m;r[0]*=t,r[1]*=t,r[2]*=n,r[3]*=n,this.w=this.s=this.i=null}return this}},{key:"skewSelf",value:function(t,n){if(n%=360,(t%=360)||n){var r=this.m,e=r[0],i=r[1],u=r[2],o=r[3];t&&(t=C(t*T),r[2]+=e*t,r[3]+=i*t),n&&(n=C(n*T),r[0]+=u*n,r[1]+=o*n),this.w=this.s=this.i=null}return this}},{key:"resetSelf",value:function(){var t=arguments.length>0&&void 0!==arguments[0]?arguments[0]:1,n=arguments.length>1&&void 0!==arguments[1]?arguments[1]:0,r=arguments.length>2&&void 0!==arguments[2]?arguments[2]:0,e=arguments.length>3&&void 0!==arguments[3]?arguments[3]:1,i=arguments.length>4&&void 0!==arguments[4]?arguments[4]:0,u=arguments.length>5&&void 0!==arguments[5]?arguments[5]:0,o=this.m;return o[0]=t,o[1]=n,o[2]=r,o[3]=e,o[4]=i,o[5]=u,this.w=this.s=this.i=null,this}},{key:"recomposeSelf",value:function(){var t=arguments.length>0&&void 0!==arguments[0]?arguments[0]:null,n=arguments.length>1&&void 0!==arguments[1]?arguments[1]:null,r=arguments.length>2&&void 0!==arguments[2]?arguments[2]:null,e=arguments.length>3&&void 0!==arguments[3]?arguments[3]:null,i=arguments.length>4&&void 0!==arguments[4]?arguments[4]:null;return this.isIdentity||this.resetSelf(),t&&(t.x||t.y)&&this.translateSelf(t.x,t.y),n&&this.rotateSelf(n),r&&(r.x&&this.skewSelf(r.x,0),r.y&&this.skewSelf(0,r.y)),!e||1===e.x&&1===e.y||this.scaleSelf(e.x,e.y),i&&(i.x||i.y)&&this.translateSelf(i.x,i.y),this}},{key:"decompose",value:function(){var t=arguments.length>0&&void 0!==arguments[0]?arguments[0]:0,n=arguments.length>1&&void 0!==arguments[1]?arguments[1]:0,r=this.m,e=r[0]*r[0]+r[1]*r[1],i=[[r[0],r[1]],[r[2],r[3]]],u=D(e);if(0===u)return{origin:{x:r[4],y:r[5]},translate:{x:t,y:n},scale:{x:0,y:0},skew:{x:0,y:0},rotate:0};i[0][0]/=u,i[0][1]/=u;var o=r[0]*r[3]-r[1]*r[2]<0;o&&(u=-u);var a=i[0][0]*i[1][0]+i[0][1]*i[1][1];i[1][0]-=i[0][0]*a,i[1][1]-=i[0][1]*a;var l=D(i[1][0]*i[1][0]+i[1][1]*i[1][1]);if(0===l)return{origin:{x:r[4],y:r[5]},translate:{x:t,y:n},scale:{x:u,y:0},skew:{x:0,y:0},rotate:0};i[1][0]/=l,i[1][1]/=l,a/=l;var f=0;return i[1][1]<0?(f=z(i[1][1])*V,i[0][1]<0&&(f=360-f)):f=L(i[0][1])*V,o&&(f=-f),a=R(a,D(i[0][0]*i[0][0]+i[0][1]*i[0][1]))*V,{origin:{x:r[4],y:r[5]},translate:{x:t,y:n},scale:{x:u,y:l},skew:{x:a,y:0},rotate:f}}},{key:"toString",value:function(){return null===this.s&&(this.s="matrix("+this.m.map($).join(" ")+")"),this.s}},{key:"determinant",get:function(){var t=this.m;return t[0]*t[3]-t[1]*t[2]}},{key:"isIdentity",get:function(){if(null===this.i){var t=this.m;this.i=1===t[0]&&0===t[1]&&0===t[2]&&1===t[3]&&0===t[4]&&0===t[5]}return this.i}}]),t}(),G=/\.0+$/;function $(t){return Number.isInteger(t)?t:t.toFixed(14).replace(G,"")}Object.freeze({M:2,L:2,Z:0,H:1,V:1,C:6,Q:4,T:2,S:4,A:7});function H(t,n,r){return t+(n-t)*r}function Q(t,n,r){var e=arguments.length>3&&void 0!==arguments[3]&&arguments[3],i={x:H(t.x,n.x,r),y:H(t.y,n.y,r)};return e&&(i.a=function(t,n){return Math.atan2(n.y-t.y,n.x-t.x)}(t,n)),i}function U(t,n,r,e){var i=1-e;return i*i*t+2*i*e*n+e*e*r}function Y(t,n,r,e){return 2*(1-e)*(n-t)+2*e*(r-n)}function Z(t,n,r,e){var i=arguments.length>4&&void 0!==arguments[4]&&arguments[4],u={x:U(t.x,n.x,r.x,e),y:U(t.y,n.y,r.y,e)};return i&&(u.a=function(t,n,r,e){return Math.atan2(Y(t.y,n.y,r.y,e),Y(t.x,n.x,r.x,e))}(t,n,r,e)),u}function J(t,n,r,e,i){var u=i*i;return i*u*(e-t+3*(n-r))+3*u*(t+r-2*n)+3*i*(n-t)+t}function K(t,n,r,e,i){var u=1-i;return 3*(u*u*(n-t)+2*u*i*(r-n)+i*i*(e-r))}function W(t,n,r,e,i){var u=arguments.length>5&&void 0!==arguments[5]&&arguments[5],o={x:J(t.x,n.x,r.x,e.x,i),y:J(t.y,n.y,r.y,e.y,i)};return u&&(o.a=function(t,n,r,e,i){return Math.atan2(K(t.y,n.y,r.y,e.y,i),K(t.x,n.x,r.x,e.x,i))}(t,n,r,e,i)),o}function X(t,n,r){var e,i=arguments.length>3&&void 0!==arguments[3]&&arguments[3];if(nt(n)){if(null!=(e=r).start&&!nt(e))return Z(n,r.start,r,t,i)}else if(nt(r)){if(n.end)return Z(n,n.end,r,t,i)}else{if(n.end)return r.start?W(n,n.end,r.start,r,t,i):Z(n,n.end,r,t,i);if(r.start)return Z(n,r.start,r,t,i)}return Q(n,r,t,i)}function tt(t,n,r){var e=X(t,n,r,!0);return e.a=function(t){return arguments.length>1&&void 0!==arguments[1]&&arguments[1]?t+Math.PI:t}(e.a)/h,e}function nt(t){return!t.type||"corner"===t.type}var rt=new N;var et={f:function(t){return t?t.join(" "):""},i:function(n,r,e){if(0===n)return r;if(1===n)return e;var i=r.length;if(i!==e.length)return y(n,r,e);for(var u,o=new Array(i),a=0;a<i;a++){if((u=t(r[a]))!==t(e[a]))return y(n,r,e);if("number"===u)o[a]=d(n,r[a],e[a]);else{if(r[a]!==e[a])return y(n,r,e);o[a]=r[a]}}return o}},it={f:null,i:x,u:function(t,n){return function(r){var e=n(r);t.setAttribute("x1",I(e[0])),t.setAttribute("y1",I(e[1])),t.setAttribute("x2",I(e[2])),t.setAttribute("y2",I(e[3]))}}},ut={f:I,i:d},ot={f:I,i:function(t,n,r){var e=d(t,n,r);return e<=0?0:e>=1?1:e}},at={f:E,i:function(t,n,r){var e,i,u,o=n.length,a=r.length;if(o!==a)if(0===o)n=k(o=a,0);else if(0===a)a=o,r=k(o,0);else{var l=(u=(e=o)*(i=a)/function(t,n){for(var r;n;)r=n,n=t%n,t=r;return t||1}(e,i))<0?-u:u;n=S(n,Math.floor(l/o)),r=S(r,Math.floor(l/a)),o=a=l}for(var f=[],s=0;s<o;s++)f.push(v(g(t,n[s],r[s]),6));return f}};function lt(t,n,r,e,i,u,o,a){return n=function(t,n,r){for(var e,i,u,o=t.length-1,a={},l=0;l<=o;l++)(e=t[l]).e&&(e.e=n(e.e)),e.v&&"g"===(i=e.v).t&&i.r&&(u=r.getElementById(i.r))&&(a[i.r]=u.querySelectorAll("stop"));return a}(t,e,a),function(e){var i,u=r(e,t,ft);return u?"c"===u.t?B(u.v):"g"===u.t?(n[u.r]&&function(t,n){for(var r=0,e=t.length;r<e;r++)t[r].setAttribute("stop-color",B(n[r]))}(n[u.r],u.v),(i=u.r)?"url(#"+i+")":"none"):"none":"none"}}function ft(t,n,r){if(0===t)return n;if(1===t)return r;if(n&&r){var e=n.t;if(e===r.t)switch(n.t){case"c":return{t:e,v:w(t,n.v,r.v)};case"g":if(n.r===r.r)return{t:e,v:A(t,n.v,r.v),r:n.r}}}return y(t,n,r)}var st={blur:p,brightness:g,contrast:g,"drop-shadow":function(t,n,r){return 0===t?n:1===t?r:{blur:p(t,n.blur,r.blur),offset:m(t,n.offset,r.offset),color:w(t,n.color,r.color)}},grayscale:g,"hue-rotate":d,invert:g,opacity:g,saturate:g,sepia:g};function ct(t,n,r){if(0===t)return n;if(1===t)return r;var e=n.length;if(e!==r.length)return y(t,n,r);for(var i,u=[],o=0;o<e;o++){if(n[o].type!==r[o].type)return n;if(!(i=st[n[o].type]))return y(t,n,r);u.push({type:n.type,value:i(t,n[o].value,r[o].value)})}return u}var vt={blur:function(t){return t?function(n){t.setAttribute("stdDeviation",F(n))}:null},brightness:function(t,n,r){return(t=yt(r,n))?function(n){n=I(n),t.map((function(t){return t.setAttribute("slope",n)}))}:null},contrast:function(t,n,r){return(t=yt(r,n))?function(n){var r=I((1-n)/2);n=I(n),t.map((function(t){t.setAttribute("slope",n),t.setAttribute("intercept",r)}))}:null},"drop-shadow":function(t,n,r){var e=r.getElementById(n+"-blur");if(!e)return null;var i=r.getElementById(n+"-offset");if(!i)return null;var u=r.getElementById(n+"-flood");return u?function(t){e.setAttribute("stdDeviation",F(t.blur)),i.setAttribute("dx",I(t.offset.x)),i.setAttribute("dy",I(t.offset.y)),u.setAttribute("flood-color",B(t.color))}:null},grayscale:function(t){return t?function(n){t.setAttribute("values",E(function(t){return[.2126+.7874*(t=1-t),.7152-.7152*t,.0722-.0722*t,0,0,.2126-.2126*t,.7152+.2848*t,.0722-.0722*t,0,0,.2126-.2126*t,.7152-.7152*t,.0722+.9278*t,0,0,0,0,0,1,0]}(n)))}:null},"hue-rotate":function(t){return t?function(n){return t.setAttribute("values",I(n))}:null},invert:function(t,n,r){return(t=yt(r,n))?function(n){n=I(n)+" "+I(1-n),t.map((function(t){return t.setAttribute("tableValues",n)}))}:null},opacity:function(t,n,r){return(t=r.getElementById(n+"-A"))?function(n){return t.setAttribute("tableValues","0 "+I(n))}:null},saturate:function(t){return t?function(n){return t.setAttribute("values",I(n))}:null},sepia:function(t){return t?function(n){return t.setAttribute("values",E(function(t){return[.393+.607*(t=1-t),.769-.769*t,.189-.189*t,0,0,.349-.349*t,.686+.314*t,.168-.168*t,0,0,.272-.272*t,.534-.534*t,.131+.869*t,0,0,0,0,0,1,0]}(n)))}:null}};var ht=["R","G","B"];function yt(t,n){var r=ht.map((function(r){return t.getElementById(n+"-"+r)||null}));return-1!==r.indexOf(null)?null:r}var dt={fill:lt,"fill-opacity":ot,stroke:lt,"stroke-opacity":ot,"stroke-width":ut,"stroke-dashoffset":{f:I,i:d},"stroke-dasharray":at,opacity:ot,transform:function(n,r,e,i){if(!(n=function(n,r){if(!n||"object"!==t(n))return null;var e=!1;for(var i in n)n.hasOwnProperty(i)&&(n[i]&&n[i].length?(n[i].forEach((function(t){t.e&&(t.e=r(t.e))})),e=!0):delete n[i]);return e?n:null}(n,i)))return null;var u=function(t,i,u){var o=arguments.length>3&&void 0!==arguments[3]?arguments[3]:null;return n[t]?e(i,n[t],u):r&&r[t]?r[t]:o};return r&&r.a&&n.o?function(t){var r=e(t,n.o,tt);return rt.recomposeSelf(r,u("r",t,d,0)+r.a,u("k",t,m),u("s",t,m),u("t",t,m)).toString()}:function(t){return rt.recomposeSelf(u("o",t,X,null),u("r",t,d,0),u("k",t,m),u("s",t,m),u("t",t,m)).toString()}},"#filter":function(t,n,r,e,i,u,o,a){if(!n.items||!t||!t.length)return null;var l=function(t,n){var r=(t=t.map((function(t){return t&&vt[t[0]]?(n.getElementById(t[1]),vt[t[0]](n.getElementById(t[1]),t[1],n)):null}))).length;return function(n){for(var e=0;e<r;e++)t[e]&&t[e](n[e].value)}}(n.items,a);return l?(t=function(t,n){return t.map((function(t){return t.e=n(t.e),t}))}(t,e),function(n){l(r(n,t,ct))}):null},"#line":it,points:{f:E,i:x},d:et,r:ut,"#size":q,"#radius":j,_:function(t,n){if(Array.isArray(t))for(var r=0;r<t.length;r++)this[t[r]]=n;else this[t]=n}},gt=function(){function t(r){n(this,t),this.list=r,this.length=r.length}return e(t,[{key:"setAttribute",value:function(t,n){for(var r=this.list,e=0;e<this.length;e++)r[e].setAttribute(t,n)}},{key:"removeAttribute",value:function(t){for(var n=this.list,r=0;r<this.length;r++)n[r].removeAttribute(t)}},{key:"style",value:function(t,n){for(var r=this.list,e=0;e<this.length;e++)r[e].style[t]=n}}]),t}(),mt=/-./g,pt=function(t,n){return n.toUpperCase()};function bt(t){return"function"==typeof t?t:y}function wt(t){return t?"function"==typeof t?t:Array.isArray(t)?function(t){var n=arguments.length>1&&void 0!==arguments[1]?arguments[1]:o;if(!Array.isArray(t))return n;switch(t.length){case 1:return c(t[0])||n;case 2:return c(t[0],t[1])||n;case 4:return l(t[0],t[1],t[2],t[3])||n}return n}(t,null):function(t,n){var r=arguments.length>2&&void 0!==arguments[2]?arguments[2]:o;switch(t){case"linear":return o;case"steps":return c(n.steps||1,n.jump||0)||r;case"bezier":case"cubic-bezier":return l(n.x1||0,n.y1||0,n.x2||0,n.y2||0)||r}return r}(t.type,t.value,null):null}function At(t,n,r){var e=arguments.length>3&&void 0!==arguments[3]&&arguments[3],i=n.length-1;if(t<=n[0].t)return e?[0,0,n[0].v]:n[0].v;if(t>=n[i].t)return e?[i,1,n[i].v]:n[i].v;var u,o=n[0],a=null;for(u=1;u<=i;u++){if(!(t>n[u].t)){a=n[u];break}o=n[u]}return null==a?e?[i,1,n[i].v]:n[i].v:o.t===a.t?e?[u,1,a.v]:a.v:(t=(t-o.t)/(a.t-o.t),o.e&&(t=o.e(t)),e?[u,t,r(t,o.v,a.v)]:r(t,o.v,a.v))}function xt(t,n){var r=arguments.length>2&&void 0!==arguments[2]?arguments[2]:null;return t&&t.length?"function"!=typeof n?null:("function"!=typeof r&&(r=null),function(e){var i=At(e,t,n);return null!=i&&r&&(i=r(i)),i}):null}function kt(t,n){return t.t-n.t}function St(n,r,e,i,u){var o,a="@"===e[0],l="#"===e[0],f=dt[e],s=y;switch(a?(o=e.substr(1),e=o.replace(mt,pt)):l&&(e=e.substr(1)),t(f)){case"function":if(s=f(i,u,At,wt,e,a,r,n),l)return s;break;case"string":s=xt(i,bt(f));break;case"object":if((s=xt(i,bt(f.i),f.f))&&"function"==typeof f.u)return f.u(r,s,e,a,n)}return s?function(t,n,r){if(arguments.length>3&&void 0!==arguments[3]&&arguments[3])return t instanceof gt?function(e){return t.style(n,r(e))}:function(e){return t.style[n]=r(e)};if(Array.isArray(n)){var e=n.length;return function(i){var u=r(i);if(null==u)for(var o=0;o<e;o++)t[o].removeAttribute(n);else for(var a=0;a<e;a++)t[a].setAttribute(n,u)}}return function(e){var i=r(e);null==i?t.removeAttribute(n):t.setAttribute(n,i)}}(r,e,s,a):null}function _t(n,r,e,i){if(!i||"object"!==t(i))return null;var u=null,o=null;return Array.isArray(i)?o=function(t){if(!t||!t.length)return null;for(var n=0;n<t.length;n++)t[n].e&&(t[n].e=wt(t[n].e));return t.sort(kt)}(i):(o=i.keys,u=i.data||null),o?St(n,r,e,o,u):null}function Mt(t,n,r){if(!r)return null;var e=[];for(var i in r)if(r.hasOwnProperty(i)){var u=_t(t,n,i,r[i]);u&&e.push(u)}return e.length?e:null}function It(t,n){if(!n.duration||n.duration<0)return null;var r=function(t,n){if(!n)return null;var r=[];if(Array.isArray(n))for(var e=n.length,i=0;i<e;i++){var u=n[i];if(2===u.length){var o=null;if("string"==typeof u[0])o=t.getElementById(u[0]);else if(Array.isArray(u[0])){o=[];for(var a=0;a<u[0].length;a++)if("string"==typeof u[0][a]){var l=t.getElementById(u[0][a]);l&&o.push(l)}o=o.length?1===o.length?o[0]:new gt(o):null}if(o){var f=Mt(t,o,u[1]);f&&(r=r.concat(f))}}}else for(var s in n)if(n.hasOwnProperty(s)){var c=t.getElementById(s);if(c){var v=Mt(t,c,n[s]);v&&(r=r.concat(v))}}return r.length?r:null}(t,n.elements);return r?function(t,n){var r=arguments.length>2&&void 0!==arguments[2]?arguments[2]:1/0,e=arguments.length>3&&void 0!==arguments[3]?arguments[3]:1,i=arguments.length>4&&void 0!==arguments[4]&&arguments[4],u=arguments.length>5&&void 0!==arguments[5]?arguments[5]:1,o=t.length,a=e>0?n:0;i&&r%2==0&&(a=n-a);var l=null;return function(f,s){var c=f%n,v=1+(f-c)/n;s*=e,i&&v%2==0&&(s=-s);var h=!1;if(v>r)c=a,h=!0,-1===u&&(c=e>0?0:n);else if(s<0&&(c=n-c),c===l)return!1;l=c;for(var y=0;y<o;y++)t[y](c);return h}}(r,n.duration,n.iterations||1/0,n.direction||1,!!n.alternate,n.fill||1):null}var Et=function(){function t(r){var e=arguments.length>1&&void 0!==arguments[1]?arguments[1]:{};n(this,t),this._id=0,this._running=!1,this._animations=r,this.direction=e.direction||1,this.speed=e.speed||1,this.fps=e.fps||100,this.offset=e.offset||0}return e(t,[{key:"_start",value:function(){var t=this,n=arguments.length>0&&void 0!==arguments[0]?arguments[0]:0,r=-1/0,e=null,i={},u=function u(o){t._running=!0,null==e&&(e=o);var a=Math.round((o-e+n)*t.speed),l=t.fps?1e3/t.fps:0;if(a>r+l){t.offset=a,r=a;for(var f=t._animations,s=f.length,c=0,v=0;v<s;v++)i[v]?c++:(i[v]=f[v](a,t.direction),i[v]&&c++);if(c===s)return void t._stop()}t._id=window.requestAnimationFrame(u)};this._id=window.requestAnimationFrame(u)}},{key:"_stop",value:function(){this._id&&window.cancelAnimationFrame(this._id),this._running=!1}},{key:"play",value:function(){this._running||this._start(this.offset)}},{key:"stop",value:function(){this._stop(),this.offset=0;var t=this.direction,n=this._animations;requestAnimationFrame((function(){for(var r=0;r<n.length;r++)n[r](0,t)}))}},{key:"restart",value:function(){this._stop(),this.offset=0,this._start()}},{key:"pause",value:function(){this._stop()}},{key:"reverse",value:function(){this.direction=-this.direction}}],[{key:"build",value:function(n){if(!(n=function(t){if(!t||!t.root||!Array.isArray(t.animations))return null;var n=window.document.getElementById(t.root);if(!n)return null;var r=t.animations.map((function(t){return It(n,t)})).filter((function(t){return!!t}));return r.length?{element:n,animations:r,options:t.options||void 0}:null}(n)))return null;var r=n.element,e=n.options||{},i=new t(n.animations,n.options);return function(t,n,r){var e=arguments.length>3&&void 0!==arguments[3]?arguments[3]:null;if("click"===r){return void n.addEventListener("click",(function r(){n.removeEventListener("click",r),t.play()}))}if("hover"===r)return n.addEventListener("mouseenter",(function(){return t.play()})),void n.addEventListener("mouseleave","freeze"===e?function(){return t.pause()}:function(){return t.stop()});t.play()}(i,r,e.start,e.hover),i}}]),t}();return function(){for(var t=0,n=["ms","moz","webkit","o"],r=0;r<n.length&&!window.requestAnimationFrame;++r)window.requestAnimationFrame=window[n[r]+"RequestAnimationFrame"],window.cancelAnimationFrame=window[n[r]+"CancelAnimationFrame"]||window[n[r]+"CancelRequestAnimationFrame"];window.requestAnimationFrame||(window.requestAnimationFrame=function(n){var r=Date.now(),e=Math.max(0,16-(r-t)),i=window.setTimeout((function(){n(r+e)}),e);return t=r+e,i},window.cancelAnimationFrame=window.clearTimeout)}(),Et}));
__SVGATOR_PLAYER__.build({"root":"ex8xxsotq38o1","animations":[{"duration":3000,"direction":1,"iterations":0,"fill":1,"alternate":false,"elements":{"ex8xxsotq38o12":{"transform":{"data":{"o":{"x":130.72668023,"y":402.49843840999995,"type":"corner"},"t":{"x":-130.72668023,"y":-402.49843840999995}},"keys":{"r":[{"t":0,"v":0},{"t":800,"v":1.7302733154045442},{"t":1700,"v":-1.1421613060139442},{"t":3000,"v":0}]}}},"ex8xxsotq38o13":{"transform":{"data":{"o":{"x":131.348582,"y":418.8,"type":"corner"},"t":{"x":-131.348582,"y":-418.8}},"keys":{"r":[{"t":0,"v":0},{"t":900,"v":-0.8835688136267591},{"t":1900,"v":3.5323611021773935},{"t":3000,"v":0}]}}},"ex8xxsotq38o14":{"transform":{"data":{"o":{"x":114.880831,"y":416.80619173,"type":"corner"},"t":{"x":-114.880831,"y":-416.80619173}},"keys":{"r":[{"t":0,"v":0},{"t":900,"v":-1.7656633226634724},{"t":1800,"v":0.40896599694617464},{"t":3000,"v":0}]}}},"ex8xxsotq38o31":{"transform":{"data":{"o":{"x":280.25523567,"y":402.49843840999995,"type":"corner"},"t":{"x":-280.25523567,"y":-402.49843840999995}},"keys":{"r":[{"t":0,"v":0},{"t":800,"v":-4.9682356137387265},{"t":1900,"v":6.522896886188921},{"t":3000,"v":0}]}}},"ex8xxsotq38o52":{"points":[{"t":0,"v":[74.0854551700005,57.677431010372736,50.5254551700006,57.67743101037273,50.525455170000555,28.52743100499996]},{"t":1100,"v":[74.0854551700005,57.677431010372736,50.5254551700006,57.67743101037273,82.78000017000022,57.67743101037275]}]},"ex8xxsotq38o55":{"transform":{"data":{"o":{"x":548.42,"y":149.43671801,"type":"corner"},"t":{"x":-22.83000000499942,"y":-50.00000000000003}},"keys":{"r":[{"t":0,"v":0},{"t":3000,"v":360.41021369965654}]}}}}}],"options":{"start":"load","hover":"freeze"}})]]></script></svg>