<svg id="Layer_1" data-name="Layer 1" xmlns="http://www.w3.org/2000/svg" xmlns:xlink="http://www.w3.org/1999/xlink" viewBox="0 0 60 60"><defs><style>.cls-1{fill:none;}.cls-2{fill:#f3f6f9;}.cls-3{fill:#2a85f5;}.cls-4{clip-path:url(#clip-path);}</style><clipPath id="clip-path"><rect class="cls-1" x="13.42" y="12.89" width="35.08" height="35.08"/></clipPath></defs><circle class="cls-2" cx="30" cy="30" r="29.24"/><path class="cls-3" d="M18.78,25.65c2.92-4.37,3.36-7.14,3.36-8.4a4.36,4.36,0,0,0-8.72,0c0,1.19.44,3.87,3.36,8.38a1.21,1.21,0,0,0,2,0Zm-1-.5a.21.21,0,0,1-.15-.08c-1-1.48-3.19-5.21-3.19-7.82a3.33,3.33,0,1,1,6.66,0c0,2.77-2.22,6.39-3.18,7.82a.16.16,0,0,1-.14.08Zm0,0"/><g class="cls-4"><path class="cls-3" d="M17.78,15.18a.51.51,0,0,0,0,1,1.13,1.13,0,1,1-1.13,1.13.52.52,0,0,0-1,0,2.16,2.16,0,1,0,2.16-2.15Zm0,0"/><path class="cls-3" d="M44.15,34.68A4.36,4.36,0,0,0,39.79,39c0,1.19.43,3.87,3.36,8.39a1.21,1.21,0,0,0,2,0c.36-.54.71-1.1,1-1.67a.52.52,0,0,0-.89-.52c-.31.55-.65,1.1-1,1.62a.18.18,0,0,1-.29,0c-1-1.49-3.2-5.22-3.2-7.83a3.34,3.34,0,0,1,6.67,0,10.13,10.13,0,0,1-1,3.84.51.51,0,0,0,.94.4,11,11,0,0,0,1-4.24,4.36,4.36,0,0,0-4.35-4.36Zm0,0"/></g><path class="cls-3" d="M42,39.13A2.16,2.16,0,1,0,44.15,37,2.16,2.16,0,0,0,42,39.13Zm3.28,0A1.13,1.13,0,1,1,44.15,38a1.12,1.12,0,0,1,1.12,1.13Zm0,0"/><path class="cls-3" d="M17.19,43a.52.52,0,0,0-.7.23.53.53,0,0,0,.23.69.54.54,0,0,0,.69-.23.51.51,0,0,0-.22-.69Zm0,0"/><path class="cls-3" d="M40,44a.52.52,0,1,1-.52-.52A.51.51,0,0,1,40,44Zm0,0"/><path class="cls-3" d="M19,43.49a.52.52,0,0,0-.56.47.53.53,0,0,0,.47.56.57.57,0,0,0,.56-.47.52.52,0,0,0-.47-.56Zm0,0"/><path class="cls-3" d="M15,41.81a.51.51,0,1,0,.73,0,.52.52,0,0,0-.73,0Zm0,0"/><g class="cls-4"><path class="cls-3" d="M14.15,36.9a.53.53,0,0,0,.67-.28.51.51,0,1,0-.67.28Zm0,0"/><path class="cls-3" d="M13.93,38.94a.52.52,0,1,0-.51-.52.51.51,0,0,0,.51.52Zm0,0"/></g><path class="cls-3" d="M15.09,34.36a.52.52,0,0,0,0,.73.51.51,0,0,0,.72,0,.51.51,0,1,0-.74-.71Zm0,0"/><path class="cls-3" d="M14.1,40a.51.51,0,0,0-.3.66.53.53,0,0,0,.66.3.51.51,0,0,0,.3-.66.52.52,0,0,0-.66-.3Zm0,0"/><path class="cls-3" d="M19.08,32.51a.52.52,0,0,0,0,1h0a.51.51,0,0,0,.48-.54.52.52,0,0,0-.54-.49Zm0,0"/><path class="cls-3" d="M16.91,33.06a.51.51,0,0,0-.25.68.53.53,0,0,0,.68.25.51.51,0,1,0-.43-.93Zm0,0"/><path class="cls-3" d="M21.48,44a.51.51,0,1,1-.51-.52.51.51,0,0,1,.51.52Zm0,0"/><path class="cls-3" d="M33.82,44a.52.52,0,1,1-.51-.52.51.51,0,0,1,.51.52Zm0,0"/><path class="cls-3" d="M29.71,44a.52.52,0,1,1-.52-.52.51.51,0,0,1,.52.52Zm0,0"/><path class="cls-3" d="M37.93,44a.52.52,0,1,1-.51-.52.51.51,0,0,1,.51.52Zm0,0"/><path class="cls-3" d="M35.87,44a.51.51,0,0,1-.51.51.52.52,0,1,1,.51-.51Zm0,0"/><path class="cls-3" d="M31.76,44a.51.51,0,1,1-.51-.52.51.51,0,0,1,.51.52Zm0,0"/><path class="cls-3" d="M27.65,44a.52.52,0,1,1-.51-.52.51.51,0,0,1,.51.52Zm0,0"/><path class="cls-3" d="M25.6,44a.52.52,0,1,1-.52-.52.51.51,0,0,1,.52.52Zm0,0"/><path class="cls-3" d="M21.16,32.5a.52.52,0,1,0,.52.52.51.51,0,0,0-.52-.52Zm0,0"/><path class="cls-3" d="M23.54,44a.52.52,0,1,1-.51-.52.51.51,0,0,1,.51.52Zm0,0"/><path class="cls-3" d="M37.08,33.53a5.86,5.86,0,0,0,0-11.71H22.64a.52.52,0,0,0,0,1H37.08a4.83,4.83,0,0,1,0,9.65H35.21a.52.52,0,0,0,0,1Zm0,0"/><path class="cls-3" d="M32.68,36.14H24a.47.47,0,0,1-.48-.48V29.88A.47.47,0,0,1,24,29.4h8.67a.48.48,0,0,1,.48.48v5.78a.48.48,0,0,1-.48.48Zm-8.19-1H32.2V30.36H24.49Zm0,0"/><path class="cls-3" d="M28.34,33.73a.45.45,0,0,1-.29-.1l-4.34-3.37a.48.48,0,0,1,.59-.76l4,3.14,4.05-3.14a.48.48,0,0,1,.36-.12.49.49,0,0,1,.33.19.45.45,0,0,1,.1.37.47.47,0,0,1-.21.32l-4.33,3.37a.47.47,0,0,1-.3.1Zm0,0"/><path class="cls-3" d="M24,36.14a.46.46,0,0,1-.39-.2.47.47,0,0,1,.11-.67l3.85-2.77a.48.48,0,0,1,.68.11.49.49,0,0,1-.11.67l-3.86,2.77a.47.47,0,0,1-.28.09Zm0,0"/><path class="cls-3" d="M32.68,36.14a.47.47,0,0,1-.28-.09l-3.85-2.77a.48.48,0,0,1,.2-.87.46.46,0,0,1,.36.09L33,35.27a.47.47,0,0,1,.11.67.46.46,0,0,1-.39.2Zm0,0"/></svg>