<svg id="Layer_1" data-name="Layer 1" xmlns="http://www.w3.org/2000/svg" viewBox="0 0 60 60"><defs><style>.cls-1{fill:#f3f6f9;}.cls-2{fill:#2a85f5;}</style></defs><circle class="cls-1" cx="30" cy="30" r="29.24"/><path class="cls-2" d="M37.68,19.58H22.32a6.27,6.27,0,0,0-6.27,6.27v6a6.27,6.27,0,0,0,5.45,6.21V43.6a.83.83,0,0,0,.51.76.81.81,0,0,0,.31.06.86.86,0,0,0,.58-.24L29,38.11h8.71A6.27,6.27,0,0,0,44,31.84v-6a6.27,6.27,0,0,0-6.27-6.27Zm4.63,12.26a4.63,4.63,0,0,1-4.63,4.63h-9a.83.83,0,0,0-.58.24l-4.91,4.92V37.29a.82.82,0,0,0-.82-.82,4.63,4.63,0,0,1-4.63-4.63v-6a4.63,4.63,0,0,1,4.63-4.63H37.68a4.63,4.63,0,0,1,4.63,4.63Zm0,0"/><path class="cls-2" d="M26,26.54c.32,0,.51-.34.51-.75s-.15-.73-.51-.73H22.23c-.38,0-.75.18-.75.52V32.5c0,.35.43.53.85.53s.85-.18.85-.53V29.69h1.65c.36,0,.51-.35.51-.64s-.18-.66-.51-.66H23.18V26.54Zm0,0"/><path class="cls-2" d="M30.54,25.56c-.12-.38-.61-.56-1.11-.56s-1,.18-1.11.56l-2,6.65a.6.6,0,0,0,0,.12c0,.4.62.7,1.09.7.27,0,.49-.09.55-.32l.37-1.36h2.3L31,32.71c.07.23.29.32.56.32.47,0,1.09-.3,1.09-.7a.6.6,0,0,0,0-.12ZM28.63,30l.8-2.92L30.22,30Zm0,0"/><path class="cls-2" d="M36.36,25.06a2.35,2.35,0,0,0-2.67,2.57v2.89a2.27,2.27,0,0,0,2.15,2.54v.63a.52.52,0,1,0,1,0v-.63A2.28,2.28,0,0,0,39,30.52V27.63a2.37,2.37,0,0,0-2.68-2.57Zm1,5.46a1,1,0,0,1-.46,1V31a.52.52,0,0,0-1,0v.48a1,1,0,0,1-.45-1V27.63c0-.74.36-1.09,1-1.09s1,.35,1,1.09Zm0,0"/></svg>