<svg id="Layer_1" data-name="Layer 1" xmlns="http://www.w3.org/2000/svg" viewBox="0 0 60 60"><defs><style>.cls-1{fill:#f3f6f9;}.cls-2{fill:#2a85f5;}</style></defs><circle class="cls-1" cx="30" cy="30" r="29.24"/><path class="cls-2" d="M44,33.55H16a.58.58,0,0,0-.59.59v8.32a.59.59,0,0,0,.59.6H44a.59.59,0,0,0,.59-.6V34.14A.58.58,0,0,0,44,33.55Zm-.59,8.32H16.62V34.74H43.38Z"/><path class="cls-2" d="M17.89,39.49a.6.6,0,0,0,.52.3.67.67,0,0,0,.3-.08l.65-.38v.76a.59.59,0,0,0,.59.59.6.6,0,0,0,.6-.59v-.76l.65.38a.64.64,0,0,0,.3.08.6.6,0,0,0,.51-.3.58.58,0,0,0-.22-.81l-.65-.38.65-.37a.59.59,0,0,0,.22-.82.59.59,0,0,0-.81-.21l-.65.37v-.75a.6.6,0,0,0-.6-.6.59.59,0,0,0-.59.6v.75l-.65-.37a.6.6,0,0,0-.82.21.61.61,0,0,0,.22.82l.65.37-.65.38A.6.6,0,0,0,17.89,39.49Z"/><path class="cls-2" d="M23.36,39.49a.59.59,0,0,0,.81.22l.65-.38v.76a.6.6,0,0,0,.6.59.59.59,0,0,0,.59-.59v-.76l.66.38a.59.59,0,0,0,.81-.22.59.59,0,0,0-.22-.81l-.65-.38.65-.37a.6.6,0,0,0,.22-.82.59.59,0,0,0-.81-.21l-.66.37v-.75a.59.59,0,0,0-.59-.6.6.6,0,0,0-.6.6v.75l-.65-.37a.59.59,0,0,0-.81.21.6.6,0,0,0,.22.82l.65.37-.65.38A.59.59,0,0,0,23.36,39.49Z"/><path class="cls-2" d="M28.83,39.49a.6.6,0,0,0,.51.3.64.64,0,0,0,.3-.08l.65-.38v.76a.6.6,0,0,0,1.19,0v-.76l.65.38a.67.67,0,0,0,.3.08.59.59,0,0,0,.3-1.11l-.66-.38.66-.37a.61.61,0,0,0,.22-.82.6.6,0,0,0-.82-.21l-.65.37v-.75a.6.6,0,1,0-1.19,0v.75l-.65-.37a.59.59,0,0,0-.81.21.6.6,0,0,0,.21.82l.66.37-.66.38A.59.59,0,0,0,28.83,39.49Z"/><path class="cls-2" d="M34.29,39.49a.6.6,0,0,0,.52.3.67.67,0,0,0,.3-.08l.65-.38v.76a.59.59,0,0,0,.59.59.6.6,0,0,0,.6-.59v-.76l.65.38a.64.64,0,0,0,.3.08.6.6,0,0,0,.51-.3.58.58,0,0,0-.22-.81l-.65-.38.65-.37a.59.59,0,0,0,.22-.82.59.59,0,0,0-.81-.21l-.65.37v-.75a.6.6,0,0,0-.6-.6.59.59,0,0,0-.59.6v.75l-.65-.37a.6.6,0,0,0-.82.21.61.61,0,0,0,.22.82l.65.37-.65.38A.6.6,0,0,0,34.29,39.49Z"/><path class="cls-2" d="M39.93,40.68h1.63a.6.6,0,1,0,0-1.19H39.93a.6.6,0,1,0,0,1.19Z"/><path class="cls-2" d="M25.5,32.69h9a1.43,1.43,0,0,0,1.44-1.44V24.33a1.44,1.44,0,0,0-1.44-1.44h0V21.4a4.46,4.46,0,0,0-8.92,0v1.49h0a1.44,1.44,0,0,0-1.44,1.44v6.92A1.43,1.43,0,0,0,25.5,32.69ZM26.73,21.4a3.27,3.27,0,0,1,6.54,0v1.49H32.08V21.4a2.08,2.08,0,0,0-4.16,0v1.49H26.73Zm2.38,1.49V21.4a.89.89,0,1,1,1.78,0v1.49Zm-3.87,1.44a.26.26,0,0,1,.26-.25h9a.26.26,0,0,1,.26.25v6.92a.26.26,0,0,1-.26.26h-9a.26.26,0,0,1-.26-.26Z"/><path class="cls-2" d="M32.42,28.39h0a.59.59,0,0,0,.59-.6.58.58,0,0,0-.59-.59h0a.59.59,0,0,0-.6.59A.6.6,0,0,0,32.42,28.39Z"/><path class="cls-2" d="M27.57,28.39H30.3a.59.59,0,0,0,.59-.6.58.58,0,0,0-.59-.59H27.57a.58.58,0,0,0-.59.59A.59.59,0,0,0,27.57,28.39Z"/></svg>