<svg id="Layer_1" data-name="Layer 1" xmlns="http://www.w3.org/2000/svg" viewBox="0 0 60 60"><defs><style>.cls-1{fill:#f3f6f9;}.cls-2{fill:#2a85f5;}</style></defs><circle class="cls-1" cx="30" cy="30" r="29.24"/><path class="cls-2" d="M44.69,38.54a3.5,3.5,0,0,0,.7-2.09V30a1.49,1.49,0,0,0-1.49-1.49,1.51,1.51,0,0,0-.56.11,1.48,1.48,0,0,0-1.43-1.1,1.46,1.46,0,0,0-1,.39,1.46,1.46,0,0,0-1-.39,1.39,1.39,0,0,0-.5.09V25.37l.59-.29,1.16.67,1.94-1.94-.67-1.17.15-.34,1.3-.36V19.2l-1.3-.36-.15-.34.67-1.17-1.94-1.94L40,16.06l-.34-.14-.36-1.31H36.57l-.36,1.31-.34.14-1.17-.67-1.94,1.94.67,1.17c0,.11-.1.23-.14.34L32,19.2v.87H29a1.49,1.49,0,0,0-1.49,1.49v1c-.17,0-.33,0-.5,0s-.33,0-.49,0V20.07A1.49,1.49,0,0,0,25,18.58H23.52a4.47,4.47,0,1,0,0,1H25a.49.49,0,0,1,.49.49v2.75a4.46,4.46,0,0,0-2.22,1.72H17.09A2.49,2.49,0,0,0,14.61,27V37a2.49,2.49,0,0,0,2.48,2.48h4v1h-.5a2,2,0,0,0-2,2,1,1,0,0,0,1,1H30.5a1,1,0,0,0,1-1,2,2,0,0,0-2-2H29v-1h4a2.44,2.44,0,0,0,1.62-.62l.36.73v.88H34v5H44.89v-5h-1V39.6ZM16.93,21.81a2.48,2.48,0,0,1,4.3,0,3.49,3.49,0,0,1-4.3,0Zm1.16-3.23a1,1,0,1,1,1,1,1,1,0,0,1-1-1Zm3.83,2.49a3.44,3.44,0,0,0-1.37-1.17,2,2,0,0,0,.52-1.32,2,2,0,0,0-4,0,2,2,0,0,0,.52,1.32,3.44,3.44,0,0,0-1.37,1.17,3.41,3.41,0,0,1-.63-2,3.47,3.47,0,0,1,6.94,0,3.41,3.41,0,0,1-.63,2Zm9.78,9.38.51.76a2.18,2.18,0,0,1,.27.58v4.66H17.59V27.52h5a4.47,4.47,0,0,0,8.88,0h1v1a1.27,1.27,0,0,0-1,1.23,1.25,1.25,0,0,0,.21.7ZM26,26.53a1,1,0,1,1,1,1,1,1,0,0,1-1-1Zm1,2a2.48,2.48,0,0,1,2.15,1.24,3.44,3.44,0,0,1-4.29,0A2.46,2.46,0,0,1,27,28.51Zm5.46-2h-1a4.7,4.7,0,0,0-.23-1H33A1.49,1.49,0,0,1,34.47,27v2a3.19,3.19,0,0,0-1-.43V27.52a1,1,0,0,0-1-1Zm2.51-1,.88-.5c.2.11.4.21.58.29v7.12a1.47,1.47,0,0,1-.15.65l-.42-2.08A3.06,3.06,0,0,0,35.46,30h0V27A2.48,2.48,0,0,0,35,25.58Zm1.77-3.42a2,2,0,0,1-.8-1.59,2,2,0,1,1,3.17,1.59,1.5,1.5,0,0,0-1.19-.6,1.48,1.48,0,0,0-1.18.6ZM33,20l1.09-.3.08-.26a3.61,3.61,0,0,1,.28-.68l.13-.24-.56-1,.87-.86,1,.56.24-.13a3.66,3.66,0,0,1,.68-.29l.26-.08.3-1.08h1.23l.29,1.08.26.08a3.66,3.66,0,0,1,.68.29l.25.13,1-.56.87.86-.57,1,.13.24a3.66,3.66,0,0,1,.29.68l.08.26,1.09.3v1.22l-1.09.3-.08.26a3.66,3.66,0,0,1-.29.68l-.13.24.57,1-.87.87L40,24l-.25.13-.36.19V23.14a3,3,0,1,0-3,0v1.13l-.36-.19L35.85,24l-1,.56L34,23.64l.56-1-.13-.24a3.61,3.61,0,0,1-.28-.68l-.08-.26L33,21.18Zm-4.47,1.6a.49.49,0,0,1,.5-.49h3v.87l1.3.36c0,.11.09.22.14.34l-.67,1.17.81.81a2.33,2.33,0,0,0-.59-.08H30.73a4.46,4.46,0,0,0-2.22-1.72Zm-1.49,2A3.47,3.47,0,0,1,29.87,29a3.51,3.51,0,0,0-1.38-1.16,2,2,0,1,0-2.94,0A3.42,3.42,0,0,0,24.18,29a3.41,3.41,0,0,1-.63-2A3.48,3.48,0,0,1,27,23.55ZM30.5,42.41H19.58a1,1,0,0,1,1-1H29.5a1,1,0,0,1,1,1Zm-2.49-2h-6v-1h6Zm5-2H17.09A1.49,1.49,0,0,1,15.61,37V27a1.49,1.49,0,0,1,1.48-1.49h5.73a4.17,4.17,0,0,0-.24,1h-5a1,1,0,0,0-1,1v8.93a1,1,0,0,0,1,1H32.48a1,1,0,0,0,1-1l.67,1.37a1.48,1.48,0,0,1-1.16.59Zm10.92,6H35v-3H43.9Zm-7.94-4v-1.1L34.2,35.71a2.57,2.57,0,0,1-.31-.92L33.55,32A3.25,3.25,0,0,0,33,30.66l-.51-.76a.3.3,0,0,1-.05-.15.27.27,0,0,1,.27-.27,2.21,2.21,0,0,1,2.16,1.78l.64,3.19h1.21l.42-.85a2.52,2.52,0,0,0,.27-1.11V23.05a.5.5,0,1,1,1,0V31h1V29a.5.5,0,1,1,1,0v2h1V29a.5.5,0,1,1,1,0v2h1V30a.5.5,0,1,1,1,0v6.45a2.47,2.47,0,0,1-.49,1.49l-1,1.33v1.15Zm0,0"/><path class="cls-2" d="M29.5,32.48h-1v2h-1v-1h-1v1h-1v-2h-1v2h-1v-4h-1v4h-1v-5h-1v5h-1v-6h-1v7H30.5v-1h-1Zm0,0"/></svg>