<svg xmlns="http://www.w3.org/2000/svg" xmlns:xlink="http://www.w3.org/1999/xlink" viewBox="0 0 58.48 58.48"><defs><style>.cls-1{fill:none;}.cls-2{fill:#f3f6f9;}.cls-3{clip-path:url(#clip-path);}.cls-4{fill:#2a85f5;}</style><clipPath id="clip-path"><rect class="cls-1" x="13.3" y="20.26" width="31.88" height="19.92"/></clipPath></defs><g id="Layer_2" data-name="Layer 2"><g id="Layer_1-2" data-name="Layer 1"><circle class="cls-2" cx="29.24" cy="29.24" r="29.24"/><g class="cls-3"><path class="cls-4" d="M44.93,20.6a1,1,0,0,0-.75-.34H18.44a1,1,0,0,0-1,.88l-.16,1.34v-.22h-4v2h3.78l-.48,4H13.3v2h3.06l-.48,4H13.3v2h2.34l-.34,2.87a1,1,0,0,0,.25.78,1,1,0,0,0,.74.34H42a1,1,0,0,0,1-.88l2.15-17.93a1,1,0,0,0-.24-.78Zm-3.29,1.66-11.43,9.6-9.53-9.6Zm-.49,15.93H17.41l1.76-14.63L29.44,33.91a1,1,0,0,0,.71.3,1,1,0,0,0,.64-.23L42.87,23.82Z"/></g></g></g></svg>