<svg xmlns="http://www.w3.org/2000/svg" viewBox="0 0 58.48 58.48"><defs><style>.cls-1{fill:#f3f6f9;}.cls-2{fill:#2a85f5;}</style></defs><g id="Layer_2" data-name="Layer 2"><g id="Layer_1-2" data-name="Layer 1"><circle class="cls-1" cx="29.24" cy="29.24" r="29.24"/><path class="cls-2" d="M39.94,18.54a15.09,15.09,0,1,0,4.45,10.7A15,15,0,0,0,39.94,18.54ZM29.24,42.62A13.38,13.38,0,1,1,42.62,29.24,13.39,13.39,0,0,1,29.24,42.62Z"/><path class="cls-2" d="M29.24,17.7A11.54,11.54,0,1,0,40.78,29.24,11.56,11.56,0,0,0,29.24,17.7Zm0,21.31A9.77,9.77,0,1,1,39,29.24,9.78,9.78,0,0,1,29.24,39Z"/><path class="cls-2" d="M31.9,26.57a.89.89,0,0,0,1.78,0,3.28,3.28,0,0,0-1.4-2.6,4.9,4.9,0,0,0-2.15-.88v-1a.89.89,0,0,0-1.78,0v1A4.9,4.9,0,0,0,26.2,24a3.11,3.11,0,0,0,0,5.19,4.8,4.8,0,0,0,2.15.89v3.51c-1-.25-1.77-.91-1.77-1.67a.89.89,0,0,0-1.78,0,3.28,3.28,0,0,0,1.4,2.6,4.92,4.92,0,0,0,2.15.89v1a.89.89,0,1,0,1.78,0v-1a4.92,4.92,0,0,0,2.15-.89,3.11,3.11,0,0,0,0-5.19,4.92,4.92,0,0,0-2.15-.89V24.9c1,.25,1.77.91,1.77,1.67Zm-5.32,0c0-.76.75-1.42,1.77-1.67v3.34C27.33,28,26.58,27.32,26.58,26.57Zm5.32,5.32c0,.76-.75,1.42-1.77,1.67V30.22C31.15,30.47,31.9,31.14,31.9,31.89Z"/></g></g></svg>