<svg xmlns="http://www.w3.org/2000/svg" viewBox="0 0 58.48 58.48"><defs><style>.cls-1{fill:#f3f6f9;}.cls-2{fill:#2a85f5;}</style></defs><g id="Layer_2" data-name="Layer 2"><g id="Layer_1-2" data-name="Layer 1"><circle class="cls-1" cx="29.24" cy="29.24" r="29.24"/><path class="cls-2" d="M42.55,15.51H18.36a3,3,0,0,0-3,3v3a.61.61,0,0,0,1.21,0v-3a1.83,1.83,0,0,1,1.83-1.83h.85v19.9a.61.61,0,1,0,1.21,0V16.72H42V40.55H18.36a3,3,0,0,0-1.83.61v-14a.61.61,0,1,0-1.21,0V43.59a3,3,0,0,0,3,3H42.55a.6.6,0,0,0,.61-.6V16.11A.6.6,0,0,0,42.55,15.51ZM18.36,45.42a1.83,1.83,0,1,1,0-3.65H42V43H36.66a.61.61,0,0,0,0,1.21H42v1.22Z"/><path class="cls-2" d="M15.93,25.17a.56.56,0,0,0,.42-.18.58.58,0,0,0,.18-.43.6.6,0,0,0-.18-.43.59.59,0,0,0-.42-.17.61.61,0,0,0-.43.17.6.6,0,0,0-.18.43.61.61,0,0,0,.61.61Z"/><path class="cls-2" d="M20.25,39.29a.63.63,0,0,0,.17-.43.61.61,0,0,0-.17-.43.6.6,0,0,0-.43-.18.61.61,0,0,0-.61.61.6.6,0,0,0,.18.43.62.62,0,0,0,.43.18A.64.64,0,0,0,20.25,39.29Z"/><path class="cls-2" d="M23.76,25.58a1.36,1.36,0,0,1-1.25.84h-.32a.61.61,0,0,0-.61.61v3.22a.61.61,0,0,0,.61.6h.33a1.34,1.34,0,0,1,1.24.85v0a1.36,1.36,0,0,1-.28,1.48l-.23.23a.6.6,0,0,0,0,.86l2.27,2.27a.6.6,0,0,0,.43.18.57.57,0,0,0,.43-.18l.23-.23a1.37,1.37,0,0,1,1.48-.28l0,0A1.33,1.33,0,0,1,29,37.3v.33a.61.61,0,0,0,.61.61h3.21a.61.61,0,0,0,.61-.61v-.32a1.34,1.34,0,0,1,.85-1.24h0a1.33,1.33,0,0,1,1.48.28l.23.22a.6.6,0,0,0,.86,0l2.27-2.27a.6.6,0,0,0,0-.86l-.22-.22a1.35,1.35,0,0,1-.28-1.48v0a1.35,1.35,0,0,1,1.24-.85h.32a.61.61,0,0,0,.61-.6V27a.61.61,0,0,0-.61-.61h-.31a1.36,1.36,0,0,1-1.25-.84v0a1.38,1.38,0,0,1,.28-1.49l.22-.21a.6.6,0,0,0,0-.86l-2.27-2.28a.64.64,0,0,0-.43-.18.62.62,0,0,0-.43.18l-.22.22a1.35,1.35,0,0,1-1.49.28h0A1.34,1.34,0,0,1,33.4,20v-.3a.61.61,0,0,0-.61-.61H29.58a.61.61,0,0,0-.61.61V20a1.35,1.35,0,0,1-.84,1.24h0a1.33,1.33,0,0,1-1.48-.28l-.23-.22a.6.6,0,0,0-.43-.18.64.64,0,0,0-.43.18L23.26,23a.62.62,0,0,0-.18.43.64.64,0,0,0,.18.43l.23.22a1.37,1.37,0,0,1,.28,1.48ZM26,35.29l-1.44-1.44a2.64,2.64,0,0,0,.48-1l0,0,2.39-2.39a.6.6,0,0,0,.15-.61,3.78,3.78,0,0,1,4.05-4.92L29.86,26.7a.63.63,0,0,0-.16.58l.49,1.94a.61.61,0,0,0,.44.45l1.94.48a.62.62,0,0,0,.58-.16l1.77-1.77a3.77,3.77,0,0,1-4.9,4,.61.61,0,0,0-.66.19L27,34.78h0A2.49,2.49,0,0,0,26,35.29ZM24.88,26v0a2.59,2.59,0,0,0-.35-2.59L26,22a2.59,2.59,0,0,0,2.59.35h0a2.58,2.58,0,0,0,1.58-2.08h2a2.56,2.56,0,0,0,1.59,2.07h0A2.55,2.55,0,0,0,36.39,22l1.44,1.44A2.59,2.59,0,0,0,37.49,26h0v0a2.55,2.55,0,0,0,2.07,1.58v2a2.54,2.54,0,0,0-2.07,1.57v0a2.57,2.57,0,0,0,.34,2.59L36.4,35.29a2.56,2.56,0,0,0-2.6-.35h0A2.58,2.58,0,0,0,32.2,37h-2a2.55,2.55,0,0,0-1.58-2.08L30,33.52a5,5,0,0,0,5.8-6.71.63.63,0,0,0-.45-.37.6.6,0,0,0-.55.17l-2.28,2.28-1.25-.31L31,27.32,33.25,25a.62.62,0,0,0,.16-.55.61.61,0,0,0-.36-.45,5,5,0,0,0-6.72,5.81L24.9,31.28v-.05a2.57,2.57,0,0,0-2.08-1.58v-2A2.55,2.55,0,0,0,24.88,26Z"/><path class="cls-2" d="M34.38,43a.58.58,0,0,0-.6.6A.61.61,0,0,0,34,44a.6.6,0,0,0,.43.18.61.61,0,0,0,.61-.61.6.6,0,0,0-.18-.43A.61.61,0,0,0,34.38,43Z"/></g></g></svg>