<svg id="Layer_1" data-name="Layer 1" xmlns="http://www.w3.org/2000/svg" viewBox="0 0 60 60"><defs><style>.cls-1{fill:#f3f6f9;}.cls-2{fill:#2a85f5;}</style></defs><circle class="cls-1" cx="30" cy="30" r="29.24"/><path class="cls-2" d="M29.62,45.66a1.31,1.31,0,0,0,1-.47C31.74,43.86,41.47,32,41.47,25.92a11.85,11.85,0,1,0-23.69,0c0,6.11,9.72,17.94,10.83,19.27A1.31,1.31,0,0,0,29.62,45.66Zm0-29a9.22,9.22,0,0,1,9.22,9.22c0,3.92-5.94,12.21-9.22,16.34-3.27-4.13-9.21-12.42-9.21-16.34A9.22,9.22,0,0,1,29.62,16.7Z"/><path class="cls-2" d="M34.34,30.51a1.32,1.32,0,0,0-1.89-1.84,3.91,3.91,0,0,1-2.83,1.19,3.95,3.95,0,1,1,3.95-3.94,1.32,1.32,0,0,0,2.64,0,6.59,6.59,0,1,0-1.87,4.59Z"/></svg>