<svg id="Layer_1" data-name="Layer 1" xmlns="http://www.w3.org/2000/svg" xmlns:xlink="http://www.w3.org/1999/xlink" viewBox="0 0 60 60"><defs><style>.cls-1{fill:none;}.cls-2{fill:#f3f6f9;}.cls-3{fill:#2a85f5;}.cls-4{clip-path:url(#clip-path);}</style><clipPath id="clip-path"><rect class="cls-1" x="14.36" y="13.5" width="31.28" height="33"/></clipPath></defs><circle class="cls-2" cx="30" cy="30" r="29.24"/><path class="cls-3" d="M30,28.68a2.77,2.77,0,1,0-2.77-2.77A2.77,2.77,0,0,0,30,28.68Zm0-4.58a1.81,1.81,0,1,1-1.8,1.81A1.81,1.81,0,0,1,30,24.1Zm0,0"/><path class="cls-3" d="M30,29.32h0A4.17,4.17,0,0,0,27.7,30a.48.48,0,0,0-.14.67.48.48,0,0,0,.67.14A3.18,3.18,0,0,1,30,30.29h0a3.2,3.2,0,0,1,3.2,3.2v1a.86.86,0,0,1-.85.86H27.63a.86.86,0,0,1-.85-.86v-1A3.22,3.22,0,0,1,27,32.3a.48.48,0,1,0-.89-.36,4.11,4.11,0,0,0-.3,1.55v1a1.82,1.82,0,0,0,1.82,1.82h4.74a1.82,1.82,0,0,0,1.82-1.82v-1A4.17,4.17,0,0,0,30,29.32Zm0,0"/><path class="cls-3" d="M30,18.33a2.44,2.44,0,0,0,2.41-2.2A.5.5,0,0,0,32,15.6a.48.48,0,0,0-.52.44A1.45,1.45,0,1,1,30,14.47a1.49,1.49,0,0,1,.55.1.47.47,0,0,0,.63-.26.48.48,0,0,0-.27-.63A2.34,2.34,0,0,0,30,13.5a2.42,2.42,0,1,0,0,4.83Zm0,0"/><path class="cls-3" d="M29.48,19.78V21.4a.49.49,0,0,0,1,0V19.78a.49.49,0,0,0-1,0Zm0,0"/><path class="cls-3" d="M36.09,26.46a.45.45,0,0,0,.16,0l3.41-1.16a.49.49,0,0,0,.31-.61.5.5,0,0,0-.62-.31l-3.41,1.16a.49.49,0,0,0,.15.95Zm0,0"/><path class="cls-3" d="M39.68,35.4l-3.41-1.16a.49.49,0,0,0-.62.3.49.49,0,0,0,.31.62l3.41,1.16A.5.5,0,0,0,40,36a.49.49,0,0,0-.31-.61Zm0,0"/><g class="cls-4"><path class="cls-3" d="M24.06,25.51l-3.41-1.16a.49.49,0,0,0-.31.92l3.41,1.16.16,0a.49.49,0,0,0,.15-.95Zm0,0"/><path class="cls-3" d="M17.82,35A2.31,2.31,0,0,0,16,34.89,2.41,2.41,0,0,0,14.53,38a.48.48,0,0,0,.91-.33,1.45,1.45,0,1,1,1.4,1,.47.47,0,0,0-.47.49.48.48,0,0,0,.48.47,2.41,2.41,0,0,0,1-4.6Zm0,0"/></g><path class="cls-3" d="M23.73,34.24,20.32,35.4a.48.48,0,0,0,.15.94l.16,0L24,35.16a.49.49,0,0,0,.31-.62.49.49,0,0,0-.62-.3Zm0,0"/><path class="cls-3" d="M30,41.67a2.42,2.42,0,1,0,2.42,2.41A2.42,2.42,0,0,0,30,41.67Zm0,3.86a1.45,1.45,0,1,1,1.45-1.45A1.45,1.45,0,0,1,30,45.53Zm0,0"/><path class="cls-3" d="M43.2,34.74a2.42,2.42,0,1,0,2.41,2.42,2.42,2.42,0,0,0-2.41-2.42Zm0,3.87a1.45,1.45,0,1,1,1.45-1.45,1.45,1.45,0,0,1-1.45,1.45Zm0,0"/><path class="cls-3" d="M30.45,40.22V38.6a.49.49,0,0,0-1,0v1.62a.49.49,0,0,0,1,0Zm0,0"/><path class="cls-3" d="M43.18,21.1a2.42,2.42,0,1,0,2.42,2.41,2.42,2.42,0,0,0-2.42-2.41Zm0,3.86a1.45,1.45,0,1,1,1.45-1.45A1.45,1.45,0,0,1,43.18,25Zm0,0"/><path class="cls-3" d="M16.82,21.1a2.42,2.42,0,1,0,2.42,2.41,2.41,2.41,0,0,0-2.42-2.41Zm0,3.86a1.45,1.45,0,1,1,1.45-1.45A1.45,1.45,0,0,1,16.82,25Zm0,0"/></svg>