<svg xmlns="http://www.w3.org/2000/svg" viewBox="0 0 58.48 58.48"><defs><style>.cls-1{fill:#f3f6f9;}.cls-2{fill:#2a85f5;}</style></defs><g id="Layer_2" data-name="Layer 2"><g id="Layer_1-2" data-name="Layer 1"><circle class="cls-1" cx="29.24" cy="29.24" r="29.24"/><path class="cls-2" d="M42.28,22H41.4l-.17-.42h0l.63-.62a.78.78,0,0,0,0-1.08l-1.18-1.19a.76.76,0,0,0-.54-.22.79.79,0,0,0-.54.22l-.62.63h0l-.41-.17h0v-.9a.76.76,0,0,0-.76-.76H36.13a.76.76,0,0,0-.76.76v.9h0l-.4.17h0l-.62-.63a.77.77,0,0,0-.54-.22.74.74,0,0,0-.53.21A10.44,10.44,0,0,0,25.5,38.05v1.7a1.08,1.08,0,0,0-.7,1v1a1.07,1.07,0,0,0,1.07,1.07h.67v1.61a1,1,0,0,0,1,1h4.14a1,1,0,0,0,1-1V42.82h.67a1.07,1.07,0,0,0,1.07-1.07v-1a1.08,1.08,0,0,0-.7-1v-1.7A10.35,10.35,0,0,0,39,32.91a.46.46,0,0,0-.22-.61.47.47,0,0,0-.61.23A9.44,9.44,0,0,1,33.72,37V34.56h.1a.77.77,0,0,0,.77-.77V32.6a.77.77,0,0,0-.77-.77H32.66a.78.78,0,0,0-.77.77v1.19a.78.78,0,0,0,.77.77h.14v5.13h-.66V36.17a1.35,1.35,0,0,0-.35-.85l-3.46-3.48.15-.15a.78.78,0,0,0,0-1.08l-.83-.83a.76.76,0,0,0-.54-.22.79.79,0,0,0-.54.22l-.84.84a.78.78,0,0,0,0,1.08l.83.84a.77.77,0,0,0,.54.22.76.76,0,0,0,.54-.22l.05,0L31.14,36a.5.5,0,0,1,.08.2v3.52h-.95V35.84a.46.46,0,1,0-.91,0v3.85H28V36.41h.12a.77.77,0,0,0,.77-.77V34.45a.77.77,0,0,0-.77-.77H26.93a.78.78,0,0,0-.77.77v1.19a.78.78,0,0,0,.77.77h.12v3.28h-.63V37.75a.46.46,0,0,0-.29-.43A9.52,9.52,0,0,1,32.54,19.4l-.46.48a.75.75,0,0,0,0,1.07l.62.63h0l-.17.42h-.88a.77.77,0,0,0-.77.76v1.68a.77.77,0,0,0,.77.76h.88l.17.41h0l-.62.63a.76.76,0,0,0,0,1.08l1.17,1.18a.75.75,0,0,0,1.08,0L35,27.9h0l.4.16h0V29a.76.76,0,0,0,.76.76h1.66a.76.76,0,0,0,.76-.76v-.89h0l.41-.16h0l.08.08c0,.16,0,.32,0,.48A9,9,0,0,1,39,29.73a.46.46,0,0,0,.91.12A10.38,10.38,0,0,0,40,28.74l.15,0a.73.73,0,0,0,.54-.23l1.18-1.18a.78.78,0,0,0,0-1.08l-.63-.63h0l.17-.41h.88a.76.76,0,0,0,.76-.76V22.77A.76.76,0,0,0,42.28,22ZM32.81,32.75h.86v.89h-.86Zm-6.32-1.59.62-.62.61.61-.62.63Zm.59,3.44h.86v.89h-.86Zm4.69,9.83a.08.08,0,0,1-.09.08H27.54a.07.07,0,0,1-.08-.08v-.36h4.31v.36Zm0-1.27H27.46v-.34h4.31Zm-6.05-2.4a.16.16,0,0,1,.15-.16h7.48a.16.16,0,0,1,.16.16v1a.16.16,0,0,1-.16.15H25.87a.15.15,0,0,1-.15-.15ZM42.12,24.3h-.74a.91.91,0,0,0-.84.58l-.16.39a.92.92,0,0,0,.18,1l.53.54-1,1-.53-.53A.89.89,0,0,0,39,27a.9.9,0,0,0-.37.07l-.38.16a.92.92,0,0,0-.58.84v.76H36.29v-.76a.93.93,0,0,0-.59-.84l-.38-.16A.89.89,0,0,0,35,27a.9.9,0,0,0-.64.25l-.53.53-1-1,.54-.54a.92.92,0,0,0,.17-1l-.16-.39a.9.9,0,0,0-.83-.58H31.8V22.93h.75a.91.91,0,0,0,.83-.59l.16-.39a.91.91,0,0,0-.18-1l-.53-.53,1-1,.53.53a.89.89,0,0,0,1,.18L35.7,20a.92.92,0,0,0,.59-.83v-.76h1.35v.76a.91.91,0,0,0,.58.83l.38.16a.89.89,0,0,0,1-.18l.53-.53,1,1-.53.53a.93.93,0,0,0-.18,1l.16.39a.92.92,0,0,0,.84.59h.74Z"/><path class="cls-2" d="M39.39,22.32a.46.46,0,0,0-.29.58,2.45,2.45,0,0,1,.11.71,2.27,2.27,0,1,1-1.51-2.14.46.46,0,0,0,.59-.28.45.45,0,0,0-.28-.58,3.13,3.13,0,0,0-1-.18,3.19,3.19,0,1,0,3.17,3.18,3.31,3.31,0,0,0-.16-1A.46.46,0,0,0,39.39,22.32Z"/><path class="cls-2" d="M37,22a1.61,1.61,0,1,0,1.6,1.61A1.61,1.61,0,0,0,37,22Zm0,2.31a.69.69,0,0,1-.68-.7.68.68,0,0,1,.68-.69.69.69,0,0,1,.69.69A.7.7,0,0,1,37,24.31Z"/><path class="cls-2" d="M29.81,32.51a.46.46,0,0,0,.46-.46V29.21h.13a.77.77,0,0,0,.76-.77V27.25a.77.77,0,0,0-.76-.77H29.23a.77.77,0,0,0-.76.77v1.19a.77.77,0,0,0,.76.77h.13v2.84A.46.46,0,0,0,29.81,32.51Zm-.43-5.11h.86v.89h-.86Z"/><path class="cls-2" d="M29.81,16.34a.46.46,0,0,0,.46-.46V14.6a.46.46,0,1,0-.91,0v1.28A.46.46,0,0,0,29.81,16.34Z"/><path class="cls-2" d="M25.69,16.59a.45.45,0,0,0,.44.32.3.3,0,0,0,.13,0,.45.45,0,0,0,.31-.57l-.36-1.22a.47.47,0,0,0-.58-.31.45.45,0,0,0-.3.57Z"/><path class="cls-2" d="M22.39,18.32a.43.43,0,0,0,.38.21.46.46,0,0,0,.25-.08.45.45,0,0,0,.13-.63l-.7-1.07a.45.45,0,0,0-.63-.13.46.46,0,0,0-.13.64Z"/><path class="cls-2" d="M18.74,20.12l1,.82a.47.47,0,0,0,.64-.06.46.46,0,0,0-.05-.64l-1-.82a.46.46,0,0,0-.65,0A.47.47,0,0,0,18.74,20.12Z"/><path class="cls-2" d="M16.74,23.71l1.17.5a.37.37,0,0,0,.18,0,.46.46,0,0,0,.18-.88l-1.17-.5a.46.46,0,0,0-.36.84Z"/><path class="cls-2" d="M17.11,27.87h.05a.46.46,0,0,0,.05-.91L16,26.81a.48.48,0,0,0-.51.41.46.46,0,0,0,.41.51Z"/><path class="cls-2" d="M17.76,31.07a.46.46,0,0,0-.53-.37L16,30.93a.45.45,0,0,0-.37.53.46.46,0,0,0,.45.38h.08l1.25-.22A.46.46,0,0,0,17.76,31.07Z"/><path class="cls-2" d="M18.32,34.28l-1.14.58a.47.47,0,0,0-.2.62.45.45,0,0,0,.41.25.54.54,0,0,0,.21,0l1.13-.58a.44.44,0,0,0,.2-.61A.46.46,0,0,0,18.32,34.28Z"/><path class="cls-2" d="M20.38,37.4l-.92.88a.47.47,0,0,0,0,.65.49.49,0,0,0,.34.14.43.43,0,0,0,.31-.13l.93-.88a.45.45,0,0,0,0-.64A.46.46,0,0,0,20.38,37.4Z"/><path class="cls-2" d="M25,25.45a.76.76,0,0,0-.76.76v1.2a.76.76,0,0,0,.76.76h1.17a.76.76,0,0,0,.76-.76v-1.2a.76.76,0,0,0-.76-.76Zm1,1.81h-.86v-.89H26Z"/><path class="cls-2" d="M28.28,24.66A.76.76,0,0,0,29,23.9V22.7a.76.76,0,0,0-.76-.76H27.11a.76.76,0,0,0-.76.76v1.2a.76.76,0,0,0,.76.76Zm-1-1.81h.86v.89h-.86Z"/></g></g></svg>