<svg id="Layer_1" data-name="Layer 1" xmlns="http://www.w3.org/2000/svg" viewBox="0 0 60 60"><defs><style>.cls-1{fill:#f3f6f9;}.cls-2{fill:#2a85f5;}</style></defs><circle class="cls-1" cx="30" cy="30" r="29.24"/><path class="cls-2" d="M21.27,38.21H18.19V29h3.08Zm-2.05-1h1V30h-1Zm0,0"/><path class="cls-2" d="M21.79,38.21H20.25V29h1.54a3.6,3.6,0,0,1,3.59,3.6v2a3.59,3.59,0,0,1-3.59,3.59Zm-.52-1h.52a2.57,2.57,0,0,0,2.56-2.57v-2A2.57,2.57,0,0,0,21.79,30h-.52Zm0,0"/><path class="cls-2" d="M36.67,38.21H33.59V29h3.08Zm-2.05-1h1V30h-1Zm0,0"/><path class="cls-2" d="M34.62,38.21H33.08a3.59,3.59,0,0,1-3.59-3.59v-2A3.6,3.6,0,0,1,33.08,29h1.54ZM33.08,30a2.57,2.57,0,0,0-2.57,2.57v2a2.57,2.57,0,0,0,2.57,2.57h.51V30Zm0,0"/><path class="cls-2" d="M37.7,32.57a.51.51,0,0,1-.51-.52V26.92a.51.51,0,0,1,1,0v5.13a.51.51,0,0,1-.51.52Zm0,0"/><path class="cls-2" d="M17.17,27.43a.51.51,0,0,1-.52-.51v-1c0-5.13,4-8.72,9.76-8.72h2.05a10.67,10.67,0,0,1,1.6.12.52.52,0,0,1,.43.6.51.51,0,0,1-.21.34.53.53,0,0,1-.39.09,9.75,9.75,0,0,0-1.43-.13H26.41c-5.14,0-8.73,3.17-8.73,7.7v1a.51.51,0,0,1-.51.51Zm0,0"/><path class="cls-2" d="M17.17,32.57a.52.52,0,0,1-.52-.52V28.92a.52.52,0,1,1,1,0v3.13a.51.51,0,0,1-.51.52Zm0,0"/><path class="cls-2" d="M19.22,35.13H16.65a1.54,1.54,0,1,1,0-3.08h2.57Zm-2.57-2.05a.52.52,0,0,0,0,1h1.54v-1Zm0,0"/><path class="cls-2" d="M38.21,35.13H35.65V32.05h2.56a1.54,1.54,0,0,1,0,3.08Zm-1.54-1h1.54a.52.52,0,1,0,0-1H36.67Zm0,0"/><path class="cls-2" d="M29.39,44.08a15.83,15.83,0,0,1-2.57-.22.58.58,0,0,1-.34-.21.53.53,0,0,1-.09-.39.51.51,0,0,1,.21-.34.53.53,0,0,1,.39-.09c2.81.47,4.86.18,6.09-.86,1-.87,1.54-2.27,1.54-4.28a.52.52,0,0,1,1,0c0,2.3-.64,4-1.89,5.07a6.52,6.52,0,0,1-4.37,1.32Zm0,0"/><path class="cls-2" d="M28,43.35a1.54,1.54,0,1,1-1.54-1.54A1.54,1.54,0,0,1,28,43.35Zm0,0"/><path class="cls-2" d="M33.59,28.15V25.33a2.58,2.58,0,0,1-2.05-2.52V17.68a2.57,2.57,0,0,1,2.57-2.57h8.21a2.57,2.57,0,0,1,2.57,2.57v5.13a2.57,2.57,0,0,1-2.57,2.57H36.4Zm.52-12a1.54,1.54,0,0,0-1.54,1.54v5.13a1.54,1.54,0,0,0,1.54,1.54h.51v1.34L36,24.35h6.34a1.54,1.54,0,0,0,1.54-1.54V17.68a1.54,1.54,0,0,0-1.54-1.54Zm0,0"/><path class="cls-2" d="M41.29,19.22H35.13a.52.52,0,0,1,0-1h6.16a.52.52,0,1,1,0,1Zm0,0"/><path class="cls-2" d="M41.29,22.3H35.13a.52.52,0,0,1,0-1h6.16a.52.52,0,1,1,0,1Zm0,0"/></svg>