<svg id="Layer_1" data-name="Layer 1" xmlns="http://www.w3.org/2000/svg" xmlns:xlink="http://www.w3.org/1999/xlink" viewBox="0 0 60 60"><defs><style>.cls-1{fill:none;}.cls-2{fill:#f3f6f9;}.cls-3{fill:#2a85f5;}.cls-4{clip-path:url(#clip-path);}</style><clipPath id="clip-path"><rect class="cls-1" x="10.24" y="18.75" width="39.53" height="26.5"/></clipPath></defs><circle class="cls-2" cx="30" cy="30" r="29.24"/><path class="cls-3" d="M31.8,45.17V40.25A6.29,6.29,0,0,1,26.41,34v-1.8a6.28,6.28,0,0,1,6.29-6.28H39a.9.9,0,1,1,0,1.79H32.7a4.49,4.49,0,0,0-4.5,4.49V34a4.49,4.49,0,0,0,4.5,4.49h.89v2.33l2.35-2.33h7.54A4.49,4.49,0,0,0,48,34v-1.8a4.49,4.49,0,0,0-4.49-4.49h-.84a.9.9,0,1,1,0-1.79h.84a6.28,6.28,0,0,1,6.28,6.28V34a6.29,6.29,0,0,1-6.28,6.29H36.67Zm0,0"/><path class="cls-3" d="M43.48,32.22H32.7a.9.9,0,1,1,0-1.79H43.48a.9.9,0,0,1,0,1.79Zm0,0"/><g class="cls-4"><path class="cls-3" d="M43.48,35.82H32.7a.9.9,0,0,1,0-1.8H43.48a.9.9,0,0,1,0,1.8Zm0,0"/><path class="cls-3" d="M19.22,38l-4.86-4.86H12.93a2.68,2.68,0,0,1-2.69-2.69v-9a2.69,2.69,0,0,1,2.69-2.69h18a2.69,2.69,0,0,1,2.69,2.69v1.8a.9.9,0,1,1-1.79,0v-1.8a.9.9,0,0,0-.9-.89h-18a.89.89,0,0,0-.9.89v9a.9.9,0,0,0,.9.9H15.1l2.32,2.32V31.33h6.29a.9.9,0,1,1,0,1.79H19.22Zm0,0"/></g><path class="cls-3" d="M26.41,25H16.52a.9.9,0,0,1,0-1.8h9.89a.9.9,0,0,1,0,1.8Zm0,0"/><path class="cls-3" d="M23.71,28.63H16.52a.9.9,0,0,1,0-1.8h7.19a.9.9,0,1,1,0,1.8Zm0,0"/></svg>