<svg id="Layer_1" data-name="Layer 1" xmlns="http://www.w3.org/2000/svg" xmlns:xlink="http://www.w3.org/1999/xlink" viewBox="0 0 60 60"><defs><style>.cls-1{fill:none;}.cls-2{fill:#f3f6f9;}.cls-3{clip-path:url(#clip-path);}.cls-4{fill:#2a85f5;}</style><clipPath id="clip-path"><rect class="cls-1" x="16.93" y="14.07" width="26.13" height="31.86"/></clipPath></defs><circle class="cls-2" cx="30" cy="30" r="29.24"/><g class="cls-3"><path class="cls-4" d="M32.86,45.93H19.45a2.51,2.51,0,0,1-2.52-2.51V16.58a2.51,2.51,0,0,1,2.52-2.51H32.86a2.51,2.51,0,0,1,2.52,2.51v5a.84.84,0,1,1-1.68,0v-5a.83.83,0,0,0-.84-.83H19.45a.84.84,0,0,0-.84.83V43.42a.84.84,0,0,0,.84.83H32.86a.83.83,0,0,0,.84-.83v-5a.84.84,0,1,1,1.68,0v5a2.51,2.51,0,0,1-2.52,2.51Zm0,0"/></g><path class="cls-4" d="M34.54,20.78H17.77a.84.84,0,0,1,0-1.68H34.54a.84.84,0,0,1,0,1.68Zm0,0"/><path class="cls-4" d="M27.83,18.26H24.48a.84.84,0,0,1,0-1.68h3.35a.84.84,0,1,1,0,1.68Zm0,0"/><path class="cls-4" d="M34.54,40.9H17.77a.84.84,0,1,1,0-1.68H34.54a.84.84,0,0,1,0,1.68Zm0,0"/><path class="cls-4" d="M27,42.58a.84.84,0,1,1-.84-.84.85.85,0,0,1,.84.84Zm0,0"/><path class="cls-4" d="M42.09,35.87H27a.84.84,0,0,1-.84-.84V25a.84.84,0,0,1,.84-.84H42.09a.85.85,0,0,1,.84.84V35a.85.85,0,0,1-.84.84ZM27.83,34.19H41.25V25.81H27.83Zm0,0"/><path class="cls-4" d="M34.54,31.68A.88.88,0,0,1,34,31.5l-7.55-5.87a.84.84,0,0,1,1-1.32l7,5.46,7-5.46a.81.81,0,0,1,.63-.21.83.83,0,0,1,.58.32.89.89,0,0,1,.17.65.85.85,0,0,1-.36.56L35.05,31.5a.83.83,0,0,1-.51.18Zm0,0"/><path class="cls-4" d="M27,35.87a.83.83,0,0,1-.68-.35.84.84,0,0,1,.19-1.17l6.71-4.83a.85.85,0,0,1,.62-.15.84.84,0,0,1,.55.35.83.83,0,0,1-.19,1.16l-6.71,4.83a.87.87,0,0,1-.49.16Zm0,0"/><path class="cls-4" d="M42.09,35.87a.84.84,0,0,1-.49-.16l-6.71-4.83a.83.83,0,0,1-.19-1.16.84.84,0,0,1,.55-.35.89.89,0,0,1,.63.15l6.7,4.83a.84.84,0,0,1,.2,1.17.86.86,0,0,1-.69.35Zm0,0"/></svg>