<svg id="Layer_1" data-name="Layer 1" xmlns="http://www.w3.org/2000/svg" xmlns:xlink="http://www.w3.org/1999/xlink" viewBox="0 0 60 60"><defs><style>.cls-1{fill:none;}.cls-2{fill:#f3f6f9;}.cls-3{clip-path:url(#clip-path);}.cls-4{fill:#2a85f5;}</style><clipPath id="clip-path"><rect class="cls-1" x="9.5" y="11.52" width="41.01" height="38.96"/></clipPath></defs><circle class="cls-2" cx="30" cy="30" r="29.24"/><g class="cls-3"><path class="cls-4" d="M20.68,44.49a.67.67,0,0,1-.62-.39A10.93,10.93,0,0,1,30,28.61a10.84,10.84,0,0,1,3.53.58.66.66,0,0,1,.4.35.69.69,0,0,1-.84.95,9.57,9.57,0,0,0-11.79,13,.69.69,0,0,1-.34.9.71.71,0,0,1-.28.06Zm0,0"/><path class="cls-4" d="M30,50.48a10.84,10.84,0,0,1-7.74-3.21.71.71,0,0,1-.21-.49.69.69,0,0,1,1.17-.48,9.57,9.57,0,0,0,16.35-6.76.68.68,0,0,1,.68-.68.69.69,0,0,1,.69.68A10.94,10.94,0,0,1,30,50.48Zm0,0"/></g><path class="cls-4" d="M30,50.48a.68.68,0,0,1-.68-.68V29.29a.68.68,0,0,1,1.36,0V49.8a.68.68,0,0,1-.68.68Zm0,0"/><path class="cls-4" d="M30,50.48c-3.45,0-6.15-4.79-6.15-10.94S26.58,28.61,30,28.61s6.15,4.78,6.15,10.93S33.45,50.48,30,50.48ZM30,30c-2.59,0-4.78,4.39-4.78,9.57s2.19,9.57,4.78,9.57,4.78-4.38,4.78-9.57S32.59,30,30,30Zm0,0"/><path class="cls-4" d="M37.52,40.23H19.75a.69.69,0,1,1,0-1.37H37.52a.69.69,0,0,1,0,1.37Zm0,0"/><path class="cls-4" d="M27.27,26.13V22.46a2,2,0,0,1-2.05-2.05V13.57a2,2,0,0,1,2.05-2.05H38.2a2.05,2.05,0,0,1,2,2.05v6.84a2.05,2.05,0,0,1-2,2.05H31Zm0-13.24a.68.68,0,0,0-.69.68v6.84a.69.69,0,0,0,.69.68h1.31v1.79l1.82-1.79h7.8a.69.69,0,0,0,.69-.68V13.57a.68.68,0,0,0-.69-.68Zm0,0"/><path class="cls-4" d="M36.15,16.31H29.32a.69.69,0,0,1-.69-.69.68.68,0,0,1,.69-.68h6.83a.67.67,0,0,1,.68.68.68.68,0,0,1-.68.69Zm0,0"/><path class="cls-4" d="M36.15,19H29.32a.69.69,0,1,1,0-1.37h6.83a.69.69,0,0,1,0,1.37Zm0,0"/><path class="cls-4" d="M19.75,23.14H13.6a.69.69,0,1,1,0-1.37h6.15a.69.69,0,0,1,0,1.37Zm0,0"/><path class="cls-4" d="M19.75,25.87H13.6a.68.68,0,1,1,0-1.36h6.15a.68.68,0,0,1,0,1.36Zm0,0"/><path class="cls-4" d="M19.75,33l-3.7-3.7H14.28A4.78,4.78,0,0,1,9.5,24.51V23.14a4.78,4.78,0,0,1,4.78-4.78h4.78a4.78,4.78,0,0,1,4.79,4.78v1.37a4.78,4.78,0,0,1-4.1,4.73ZM14.28,19.72a3.42,3.42,0,0,0-3.42,3.42v1.37a3.42,3.42,0,0,0,3.42,3.41h2.33l1.77,1.77V27.92h.68a3.42,3.42,0,0,0,3.42-3.41V23.14a3.42,3.42,0,0,0-3.42-3.42Zm0,0"/><path class="cls-4" d="M38.89,38.58V34.76a3.42,3.42,0,0,1-3.42-3.42v-4.1a3.42,3.42,0,0,1,3.42-3.42h8.2a3.42,3.42,0,0,1,3.41,3.42v4.1a3.42,3.42,0,0,1-3.41,3.42H42.56Zm0-13.39a2.05,2.05,0,0,0-2.06,2v4.1a2.05,2.05,0,0,0,2.06,2.05h1.36v1.8L42,33.39h5.11a2.05,2.05,0,0,0,2-2.05v-4.1a2.05,2.05,0,0,0-2-2Zm0,0"/><path class="cls-4" d="M45.72,28.61H40.25a.69.69,0,0,1,0-1.37h5.47a.69.69,0,0,1,0,1.37Zm0,0"/><path class="cls-4" d="M45.72,31.34H40.25a.67.67,0,0,1-.68-.68.68.68,0,0,1,.68-.69h5.47a.68.68,0,0,1,.68.69.67.67,0,0,1-.68.68Zm0,0"/></svg>