<svg id="Layer_1" data-name="Layer 1" xmlns="http://www.w3.org/2000/svg" viewBox="0 0 60 60"><defs><style>.cls-1{fill:#f3f6f9;}.cls-2{fill:#2a85f5;}</style></defs><circle class="cls-1" cx="30" cy="30" r="29.24"/><path class="cls-2" d="M42.37,19.88H26.72a.56.56,0,0,0-.57.57.57.57,0,0,0,.57.58H42.37a1.73,1.73,0,0,1,1.73,1.72V38.86a1.74,1.74,0,0,1-1.73,1.73H18.67a1.73,1.73,0,0,1-1.73-1.73V22.75A1.72,1.72,0,0,1,18.67,21h3.45a.57.57,0,0,0,.57-.58.56.56,0,0,0-.57-.57H18.67a2.88,2.88,0,0,0-2.88,2.87V38.86a2.88,2.88,0,0,0,2.88,2.88h23.7a2.88,2.88,0,0,0,2.88-2.88V22.75A2.88,2.88,0,0,0,42.37,19.88Z"/><path class="cls-2" d="M24.42,22.87a5.52,5.52,0,1,0,5.52,5.52A5.52,5.52,0,0,0,24.42,22.87ZM21.92,32a2.71,2.71,0,0,1,5,0,4.4,4.4,0,0,1-5,0Zm1.45-3.87V27.9a1,1,0,0,1,2.1,0v.21a1,1,0,0,1-2.1,0Zm4.43,3.05a3.88,3.88,0,0,0-1.71-1.62,2.17,2.17,0,0,0,.53-1.43V27.9a2.2,2.2,0,0,0-4.4,0v.21a2.17,2.17,0,0,0,.53,1.43A3.88,3.88,0,0,0,21,31.16a4.37,4.37,0,1,1,6.76,0Z"/><path class="cls-2" d="M33.28,31.38h8.28a.57.57,0,0,0,.58-.57v-4.6a.58.58,0,0,0-.58-.58H33.28a.58.58,0,0,0-.58.58v4.6A.57.57,0,0,0,33.28,31.38Zm.57-4.6H41v3.45H33.85Z"/><path class="cls-2" d="M33.28,33.68h8.28a.57.57,0,0,0,.58-.57.58.58,0,0,0-.58-.58H33.28a.58.58,0,0,0-.58.58A.57.57,0,0,0,33.28,33.68Z"/><path class="cls-2" d="M32.87,35.82a.58.58,0,0,0,.82,0,.61.61,0,0,0,0-.82.58.58,0,1,0-.82.82Z"/><path class="cls-2" d="M35.17,35a.61.61,0,0,0,0,.82.58.58,0,1,0,0-.82Z"/><path class="cls-2" d="M41.56,34.83H37.88a.58.58,0,0,0,0,1.16h3.68a.58.58,0,0,0,0-1.16Z"/><path class="cls-2" d="M28.54,35.65a.58.58,0,0,0-.57-.58h-7.1a.58.58,0,0,0,0,1.15H28A.58.58,0,0,0,28.54,35.65Z"/><path class="cls-2" d="M21.79,37.37a.58.58,0,0,0,0,1.15h5.26a.58.58,0,0,0,0-1.15Z"/><path class="cls-2" d="M24.42,21a.58.58,0,0,0,.41-.17.62.62,0,0,0,.16-.41.58.58,0,0,0-.16-.4.58.58,0,0,0-1,.4.63.63,0,0,0,.17.41A.58.58,0,0,0,24.42,21Z"/></svg>