<svg id="Layer_1" data-name="Layer 1" xmlns="http://www.w3.org/2000/svg" viewBox="0 0 60 60"><defs><style>.cls-1{fill:#f3f6f9;}.cls-2{fill:#2a85f5;}</style></defs><circle class="cls-1" cx="30" cy="30" r="29.24"/><path class="cls-2" d="M43.13,15.85H16.87a1.6,1.6,0,0,0-1.6,1.6V36a1.6,1.6,0,0,0,1.6,1.6h2.54a.44.44,0,1,0,0-.87H16.87a.72.72,0,0,1-.73-.73V17.45a.72.72,0,0,1,.73-.73H43.13a.72.72,0,0,1,.73.73V36a.72.72,0,0,1-.73.73H21.43a.44.44,0,0,0,0,.87h4.63a6.46,6.46,0,0,1-1.81,3.78H22.79a.78.78,0,0,0-.78.78v1.17a.78.78,0,0,0,.78.78H33.53a.44.44,0,0,0,0-.87H22.88v-1H37.12v1H35.54a.44.44,0,0,0,0,.87h1.67a.78.78,0,0,0,.78-.78V42.2a.78.78,0,0,0-.78-.78H35.75A6.37,6.37,0,0,1,34,37.64h9.18a1.6,1.6,0,0,0,1.6-1.6V17.45a1.6,1.6,0,0,0-1.6-1.6ZM34.6,41.42H25.4a7.16,7.16,0,0,0,1.52-3.78h6.16a7.16,7.16,0,0,0,1.52,3.78Zm0,0"/><path class="cls-2" d="M39.57,34h2.87a.43.43,0,0,0,.43-.43V18.14a.44.44,0,0,0-.43-.43H17.56a.44.44,0,0,0-.43.43V33.6a.43.43,0,0,0,.43.43h20a.43.43,0,1,0,0-.86H18V18.58H42V33.17H39.57a.43.43,0,0,0,0,.86Zm0,0"/><path class="cls-2" d="M22.53,20.53a.43.43,0,0,0-.43-.43H19.42a.43.43,0,0,0-.43.43v2.32a.43.43,0,0,0,.43.43H22.1a.43.43,0,0,0,.43-.43Zm-.86,1.89H19.85V21h1.82Zm0,0"/><path class="cls-2" d="M24.42,23.28h7.21a.43.43,0,1,0,0-.86H24.42a.43.43,0,0,0,0,.86Zm0,0"/><path class="cls-2" d="M33.72,20.1H27.79a.43.43,0,0,0,0,.86h5.93a.43.43,0,0,0,0-.86Zm0,0"/><path class="cls-2" d="M24.42,21h1.34a.43.43,0,1,0,0-.86H24.42a.43.43,0,0,0,0,.86Zm0,0"/><path class="cls-2" d="M22.53,24.71a.43.43,0,0,0-.43-.43H19.42a.43.43,0,0,0-.43.43V27a.43.43,0,0,0,.43.43H22.1a.44.44,0,0,0,.43-.43Zm-.86,1.89H19.85V25.14h1.82Zm0,0"/><path class="cls-2" d="M24.42,27.47h7.21a.44.44,0,0,0,0-.87H24.42a.44.44,0,0,0,0,.87Zm0,0"/><path class="cls-2" d="M33.72,24.28H27.79a.43.43,0,0,0,0,.86h5.93a.43.43,0,1,0,0-.86Zm0,0"/><path class="cls-2" d="M24.42,25.14h1.34a.43.43,0,0,0,0-.86H24.42a.43.43,0,0,0,0,.86Zm0,0"/><path class="cls-2" d="M22.1,28.46H19.42a.44.44,0,0,0-.43.44v2.32a.43.43,0,0,0,.43.43H22.1a.43.43,0,0,0,.43-.43V28.9a.44.44,0,0,0-.43-.44Zm-.43,2.33H19.85V29.33h1.82Zm0,0"/><path class="cls-2" d="M24.42,31.65h7.21a.43.43,0,1,0,0-.86H24.42a.43.43,0,0,0,0,.86Zm0,0"/><path class="cls-2" d="M34.15,28.9a.44.44,0,0,0-.43-.44H27.79a.44.44,0,0,0,0,.87h5.93a.43.43,0,0,0,.43-.43Zm0,0"/><path class="cls-2" d="M24.42,29.33h1.34a.44.44,0,0,0,0-.87H24.42a.44.44,0,0,0,0,.87Zm0,0"/><path class="cls-2" d="M41,27.7a.43.43,0,0,0-.31-.39l-5-1.5a.43.43,0,0,0-.43.11.42.42,0,0,0-.1.43l1.5,5a.43.43,0,0,0,.39.31h0a.45.45,0,0,0,.4-.27l.93-2.33,2.33-.93A.42.42,0,0,0,41,27.7Zm-3.09.62a.41.41,0,0,0-.24.24l-.54,1.35-.92-3,3.05.91Zm0,0"/></svg>