<svg xmlns="http://www.w3.org/2000/svg" viewBox="0 0 58.48 58.48"><defs><style>.cls-1{fill:#f3f6f9;}.cls-2{fill:#2a85f5;}</style></defs><g id="Layer_2" data-name="Layer 2"><g id="Layer_1-2" data-name="Layer 1"><circle class="cls-1" cx="29.24" cy="29.24" r="29.24"/><path class="cls-2" d="M19.64,24.69h1.19v1.18a.89.89,0,1,0,1.78,0V24.69h1.18a.89.89,0,0,0,0-1.78H22.61V21.72a.89.89,0,0,0-1.78,0v1.19H19.64a.89.89,0,0,0,0,1.78Z"/><path class="cls-2" d="M33.45,24.69H37a.89.89,0,0,0,0-1.78H33.45a.89.89,0,0,0,0,1.78Z"/><path class="cls-2" d="M37.3,37.89H33.15a.89.89,0,0,0,0,1.78H37.3a.89.89,0,0,0,0-1.78Z"/><path class="cls-2" d="M37.3,34.93H33.15a.89.89,0,0,0,0,1.78H37.3a.89.89,0,0,0,0-1.78Z"/><path class="cls-2" d="M23.83,35.19a.91.91,0,0,0-1.26,0l-.85.86-.85-.86a.91.91,0,0,0-1.26,0,.89.89,0,0,0,0,1.26l.85.85-.85.85a.89.89,0,0,0,.63,1.52.93.93,0,0,0,.63-.26l.85-.85.85.85a.89.89,0,0,0,.63.26.89.89,0,0,0,.63-1.52L23,37.3l.86-.85a.91.91,0,0,0,0-1.26Z"/><path class="cls-2" d="M42.86,32.22V18.82a2.66,2.66,0,0,0-2.66-2.66H16.74a2.66,2.66,0,0,0-2.66,2.66V42.28a2.66,2.66,0,0,0,2.66,2.66h13.4A9.17,9.17,0,0,0,44.4,37.3a9,9,0,0,0-1.54-5.08Zm-1.77-13.4V30.24a9.17,9.17,0,0,0-11.73,0V17.93H40.2a.89.89,0,0,1,.89.89Zm-24.35-.89H27.58V29.66H15.85V18.82a.89.89,0,0,1,.89-.89Zm-.89,24.35V31.44H27.58v.78a9.17,9.17,0,0,0,.58,11H16.74a.89.89,0,0,1-.89-.89Zm19.37,2.43a7.41,7.41,0,1,1,7.41-7.41,7.42,7.42,0,0,1-7.41,7.41Z"/></g></g></svg>