<svg id="Layer_1" data-name="Layer 1" xmlns="http://www.w3.org/2000/svg" xmlns:xlink="http://www.w3.org/1999/xlink" viewBox="0 0 60 60"><defs><style>.cls-1{fill:none;}.cls-2{fill:#f3f6f9;}.cls-3{clip-path:url(#clip-path);}.cls-4{fill:#2a85f5;}</style><clipPath id="clip-path"><rect class="cls-1" x="14.91" y="14.91" width="30.19" height="30.19"/></clipPath></defs><circle class="cls-2" cx="30" cy="30" r="29.24"/><g class="cls-3"><path class="cls-4" d="M32.77,18.54a.59.59,0,0,0-.71.43.58.58,0,0,0,.44.71,10.61,10.61,0,1,1-5,0,.59.59,0,1,0-.27-1.14,11.86,11.86,0,0,0-6.45,4.11A11.68,11.68,0,0,0,18.21,30a11.79,11.79,0,0,0,23.58,0,11.68,11.68,0,0,0-2.57-7.35,11.86,11.86,0,0,0-6.45-4.11Zm0,0"/><path class="cls-4" d="M44.74,28.58l-.69-1.29.11-1.59A3,3,0,0,0,43.07,23l-1.14-.94-.45-1.35a3,3,0,0,0-2.06-2.18L38,18.14l-1.08-1.25a3,3,0,0,0-2.59-1.05L32.86,16l-1.44-.73a3,3,0,0,0-2.84,0L27.29,16l-1.59-.11A3,3,0,0,0,23,16.93l-.94,1.14-1.35.45a3,3,0,0,0-2.18,2.06L18.14,22l-1.25,1.08a3,3,0,0,0-1.05,2.59L16,27.14l-.73,1.44a3,3,0,0,0,0,2.84L16,32.71l-.11,1.59A3,3,0,0,0,16.93,37l1.14.94.45,1.35a3,3,0,0,0,2.06,2.18l1.42.43,1.08,1.25a3,3,0,0,0,2.59,1L27.14,44l1.44.73a3.06,3.06,0,0,0,2.84,0l1.29-.69,1.59.11A3,3,0,0,0,37,43.07l.94-1.14,1.35-.45a3,3,0,0,0,2.18-2.06L41.86,38l1.25-1.08a3,3,0,0,0,1-2.59L44,32.86l.73-1.44a3,3,0,0,0,0-2.84Zm-1,2.29h0l-.81,1.6a.63.63,0,0,0-.06.33L43,34.44A1.84,1.84,0,0,1,42.34,36L41,37.22a.64.64,0,0,0-.18.28l-.47,1.58A1.87,1.87,0,0,1,39,40.34h-.05l-1.55.51a.64.64,0,0,0-.27.19l-1,1.28a1.85,1.85,0,0,1-1.63.66h0l-1.77-.13a.6.6,0,0,0-.32.07l-1.44.77a1.83,1.83,0,0,1-1.73,0h0l-1.6-.81a.66.66,0,0,0-.27-.06h-.06L25.56,43A1.84,1.84,0,0,1,24,42.34L22.78,41a.64.64,0,0,0-.28-.18l-1.58-.47A1.87,1.87,0,0,1,19.66,39a.43.43,0,0,0,0-.05l-.51-1.55a.64.64,0,0,0-.19-.27l-1.28-1A1.85,1.85,0,0,1,17,34.42v0l.13-1.77a.6.6,0,0,0-.07-.32l-.77-1.44a1.83,1.83,0,0,1,0-1.73h0l.81-1.6a.63.63,0,0,0,.06-.33L17,25.56A1.84,1.84,0,0,1,17.66,24L19,22.78a.64.64,0,0,0,.18-.28l.47-1.58A1.87,1.87,0,0,1,21,19.66h.05l1.55-.51a.64.64,0,0,0,.27-.19l1-1.28A1.85,1.85,0,0,1,25.58,17h0l1.77.13a.6.6,0,0,0,.32-.07l1.44-.77a1.83,1.83,0,0,1,1.73,0h0l1.6.81a.63.63,0,0,0,.33.06L34.44,17a1.84,1.84,0,0,1,1.59.65L37.22,19a.64.64,0,0,0,.28.18l1.58.47A1.87,1.87,0,0,1,40.34,21a.43.43,0,0,0,0,.05l.51,1.55a.64.64,0,0,0,.19.27l1.28,1A1.85,1.85,0,0,1,43,25.58v0l-.13,1.77a.6.6,0,0,0,.07.32l.77,1.44a1.83,1.83,0,0,1,0,1.73Zm0,0"/></g><path class="cls-4" d="M27.44,26.79a.59.59,0,0,0-.53-.34H23.79a.59.59,0,0,0-.59.59V36a.59.59,0,0,0,.59.59h3.12a.58.58,0,0,0,.54-.36,11.7,11.7,0,0,1,1.4.33,8.44,8.44,0,0,0,2.25.41h3.4a2.35,2.35,0,0,0,2.28-1.5,2,2,0,0,0,.11-1.32,2.14,2.14,0,0,0,.49-.65,2.28,2.28,0,0,0,.16-1.59,2.23,2.23,0,0,0,.58-2.08A1.77,1.77,0,0,0,39,28.27a1.8,1.8,0,0,0-.55-1.3,1.83,1.83,0,0,0-1.28-.51h-4.8a1.59,1.59,0,0,1-.27-1.57A3.08,3.08,0,0,0,32,22.07a2.39,2.39,0,0,0-2.14-1.24,1.11,1.11,0,0,0-1,.93,3.52,3.52,0,0,0-.05.5,4.12,4.12,0,0,1-.45,1.87A4.79,4.79,0,0,0,28,25.66c-.11.68-.17,1-.54,1.13Zm-3.06.84h1.94v7.74H24.38Zm4.77-1.77a4,4,0,0,1,.32-1.19,5.21,5.21,0,0,0,.59-2.35c0-.14,0-.26,0-.33h0a1.37,1.37,0,0,1,.89.63,1.87,1.87,0,0,1,0,1.82,2.74,2.74,0,0,0,0,2,.59.59,0,0,0,.08,1.17h6.06a.7.7,0,0,1,.47.18.62.62,0,0,1-.45,1.05l-1.52,0a.59.59,0,0,0,0,1.18h0l1.26,0a1,1,0,0,1,0,.6.8.8,0,0,1-.78.58.58.58,0,0,0-.58.59.59.59,0,0,0,.58.59l.27,0a1.27,1.27,0,0,1-.12.55.79.79,0,0,1-.73.49A.59.59,0,0,0,35,34a.6.6,0,0,0,.59.59h.18a1,1,0,0,1-.09.41,1.2,1.2,0,0,1-1.18.74H31.1a7.44,7.44,0,0,1-1.94-.37A11.41,11.41,0,0,0,27.5,35V28c1.33-.24,1.51-1.31,1.65-2.12Zm0,0"/><path class="cls-4" d="M30,19.39a.59.59,0,0,0,.59-.59.58.58,0,0,0-.59-.59h0a.58.58,0,0,0-.59.59.59.59,0,0,0,.59.59Zm0,0"/></svg>