<svg xmlns="http://www.w3.org/2000/svg" xmlns:xlink="http://www.w3.org/1999/xlink" viewBox="0 0 58.48 58.48"><defs><style>.cls-1{fill:none;}.cls-2{fill:#f3f6f9;}.cls-3{clip-path:url(#clip-path);}.cls-4{fill:#2a85f5;}</style><clipPath id="clip-path"><rect class="cls-1" x="11.79" y="14.6" width="34.59" height="28.83"/></clipPath></defs><g id="Layer_2" data-name="Layer 2"><g id="Layer_1-2" data-name="Layer 1"><circle class="cls-2" cx="29.24" cy="29.24" r="29.24"/><g class="cls-3"><path class="cls-4" d="M45.87,27.35H41.15a.51.51,0,0,0,0,1h4.72a.51.51,0,0,0,0-1Z"/><path class="cls-4" d="M45.09,14.8a.51.51,0,0,0-.72,0L41,18.13a.51.51,0,1,0,.72.72l3.34-3.34a.51.51,0,0,0,0-.71Z"/></g><path class="cls-4" d="M45.09,40.2l-3.34-3.33a.51.51,0,0,0-.72,0,.5.5,0,0,0,0,.71l3.34,3.34a.52.52,0,0,0,.72,0,.53.53,0,0,0,0-.72Z"/><path class="cls-4" d="M37.06,15.7a2.18,2.18,0,0,0-2.18,2A17.08,17.08,0,0,1,23.08,22h-.24c-4.17,0-6.78.41-8.46,1.27a4.63,4.63,0,0,0-2.59,4.6,4.64,4.64,0,0,0,2.59,4.6,8,8,0,0,0,1.34.53c1.5,1.48,2.32,3.92,2.51,7.47a3.1,3.1,0,0,0,3.09,2.93h1.79a1.74,1.74,0,1,0,0-3.48.49.49,0,0,1-.48-.45c0-.72-.13-1.71-.29-2.74a5.07,5.07,0,0,0,1.41-.38,3,3,0,0,0,1.94-2.44A17.7,17.7,0,0,1,32,36a14.1,14.1,0,0,1,2.91,2.1,2.19,2.19,0,0,0,4.36-.21v-20a2.19,2.19,0,0,0-2.18-2.18Zm-14,25.22a.73.73,0,0,1,.73.73.73.73,0,0,1-.73.72H21.32a2.08,2.08,0,0,1-2.08-2,13.84,13.84,0,0,0-1.91-7.06,27.58,27.58,0,0,0,3.14.32h0a17.41,17.41,0,0,1,1.13,5.85,1.5,1.5,0,0,0,1.49,1.4Zm.23-5.5a4.25,4.25,0,0,1-1.18.3v0a13.8,13.8,0,0,0-.49-1.78.85.85,0,0,0-.06-.19H22.7c.66,0,1.32,0,2,.07a2.07,2.07,0,0,1-1.34,1.63Zm11.53,1.27a15.56,15.56,0,0,0-2.37-1.61,19.37,19.37,0,0,0-9.16-2.37V27.07a.5.5,0,0,0-.5-.51.51.51,0,0,0-.51.51V32.7l-1.39,0a15.43,15.43,0,0,1-6.1-1.11,3.64,3.64,0,0,1-2-3.7,3.64,3.64,0,0,1,2-3.7c1.45-.74,3.84-1.11,7.49-1.15v2a.53.53,0,0,0,.51.51.52.52,0,0,0,.5-.51V23a19.31,19.31,0,0,0,9.16-2.38A16.4,16.4,0,0,0,34.87,19Zm3.36,1.15a1.18,1.18,0,0,1-2.35,0h0v-20h0a1.18,1.18,0,0,1,2.35,0Z"/></g></g></svg>