<svg id="Layer_1" data-name="Layer 1" xmlns="http://www.w3.org/2000/svg" viewBox="0 0 60 60"><defs><style>.cls-1{fill:#f3f6f9;}.cls-2{fill:#2a85f5;}</style></defs><circle class="cls-1" cx="30" cy="30" r="29.24"/><path class="cls-2" d="M44.39,30a14.52,14.52,0,0,0-.47-3.66L45.74,25,42.2,18.87l-2.07.91a14.27,14.27,0,0,0-6.35-3.66l-.25-2.25H26.47l-.25,2.25a14.27,14.27,0,0,0-6.35,3.66l-2.07-.91L14.26,25l1.82,1.34a14.49,14.49,0,0,0,0,7.32L14.26,35l3.54,6.13,2.07-.91a14.27,14.27,0,0,0,6.35,3.66l.25,2.25h7.06l.25-2.25a14.27,14.27,0,0,0,6.35-3.66l2.07.91L45.74,35l-1.82-1.34A14.52,14.52,0,0,0,44.39,30ZM32.71,42.2l-.66.15-.21,1.89H28.16L28,42.35l-.66-.15a12.41,12.41,0,0,1-6.5-3.75l-.46-.5-1.74.77-1.84-3.2,1.53-1.12-.2-.65a12.41,12.41,0,0,1,0-7.5l.2-.65-1.53-1.12,1.84-3.2,1.74.77.46-.5a12.41,12.41,0,0,1,6.5-3.75l.66-.15.21-1.89h3.68l.21,1.89.66.15a12.41,12.41,0,0,1,6.5,3.75l.46.5,1.74-.77,1.84,3.2L41.72,25.6l.2.65a12.41,12.41,0,0,1,0,7.5l-.2.65,1.53,1.12-1.84,3.2L39.67,38l-.46.5a12.41,12.41,0,0,1-6.5,3.75Zm0,0"/><path class="cls-2" d="M26.25,27.84,24.9,26.51,21.44,30,25,33.5l1.32-1.35L24.11,30Zm0,0"/><path class="cls-2" d="M33.75,27.84,35.89,30l-2.18,2.13L35,33.5,38.56,30,35.1,26.51Zm0,0"/><path class="cls-2" d="M27.74,36.19l2.69-12.78,1.85.39L29.59,36.58Zm0,0"/></svg>