<svg id="Layer_1" data-name="Layer 1" xmlns="http://www.w3.org/2000/svg" viewBox="0 0 60 60"><defs><style>.cls-1{fill:#f3f6f9;}.cls-2{fill:#2a85f5;}</style></defs><circle class="cls-1" cx="30" cy="30" r="29.24"/><path class="cls-2" d="M41.85,32.28a1.88,1.88,0,0,0-.62.11,1.71,1.71,0,0,0-1.75-1.71,1.82,1.82,0,0,0-.72.15,1.7,1.7,0,0,0-1.65-1.16,1.87,1.87,0,0,0-.61.11V18.55A1.55,1.55,0,0,0,35,17H22.05a1.55,1.55,0,0,0-1.55,1.54v4.11H18.17l-.26-1.41a.57.57,0,0,0-.63-.45h-2.1a.57.57,0,0,0,0,1.14h1.7l1.62,8.56a.56.56,0,0,0,.56.46h.61a2.16,2.16,0,0,0,.83,1.15v8.46a1.55,1.55,0,0,0,1.55,1.54l10.45,0,.06.06a3.38,3.38,0,0,1,.82,2.66A1.16,1.16,0,0,0,34.53,46h1a.57.57,0,0,0,0-1.14h-1l0,0a4.43,4.43,0,0,0-1.1-3.41,5.48,5.48,0,0,0-.91-.76c-.59-.44-.95-.73-.95-1.11V35.47c0-.16,0-.28.09-.31a.66.66,0,0,1,.52.05A1.29,1.29,0,0,1,33,36.43v1.78a.56.56,0,0,0,.56.57.57.57,0,0,0,.57-.57V28.56a.62.62,0,1,1,1.23,0v6.49a.57.57,0,0,0,1.14,0V31.49a.6.6,0,0,1,.61-.69.63.63,0,0,1,.43.16.69.69,0,0,1,.19.53v4.15a.57.57,0,0,0,1.14,0V32.5a.6.6,0,0,1,.61-.69.63.63,0,0,1,.43.16.69.69,0,0,1,.19.53v3.74a.57.57,0,0,0,.57.56.56.56,0,0,0,.56-.56V34.1a.62.62,0,1,1,1.24,0v5.66a3.75,3.75,0,0,1-.45,1.5A3.34,3.34,0,0,0,41.58,43v1.81l0,0h-1a.57.57,0,0,0,0,1.14h1a1.16,1.16,0,0,0,1.16-1.16V43A2.25,2.25,0,0,1,43,41.78a4.77,4.77,0,0,0,.58-1.93V34.1a1.72,1.72,0,0,0-1.75-1.82ZM25.25,18.14h6.51v.6a.6.6,0,0,1-.6.59H25.84a.59.59,0,0,1-.59-.59ZM19.67,29.82h-.15l-1.13-6h12l-1.14,6h-.15a2.06,2.06,0,0,0-4,0H23.64a2.06,2.06,0,0,0-4,0Zm8.41.57a.93.93,0,1,1-.93-.93.93.93,0,0,1,.93.93Zm-7.35,0a.93.93,0,0,1,1.86,0,.93.93,0,0,1-1.86,0ZM22.05,41a.41.41,0,0,1-.41-.41V39.27h8.77v.29A1.92,1.92,0,0,0,31.09,41ZM35.36,26.85a1.78,1.78,0,0,0-.61-.11A1.73,1.73,0,0,0,33,28.56v5.8a3.42,3.42,0,0,0-.43-.21,1.68,1.68,0,0,0-1.57.07,1.44,1.44,0,0,0-.59,1.24h0v2.67H21.64V32.45h0a2.06,2.06,0,0,0,2-1.5h1.53a2.06,2.06,0,0,0,4,0h.62a.56.56,0,0,0,.56-.46l1.35-7.16a.56.56,0,0,0-.56-.67H21.64V18.55a.41.41,0,0,1,.41-.41h2.06v.6a1.74,1.74,0,0,0,1.73,1.73h5.32a1.74,1.74,0,0,0,1.73-1.73v-.6H35a.41.41,0,0,1,.41.41v8.3Zm0,0"/><path class="cls-2" d="M24.4,28.26a.57.57,0,0,0,.57-.57V25.61a.57.57,0,1,0-1.13,0v2.08a.57.57,0,0,0,.56.57Zm0,0"/><path class="cls-2" d="M22.22,26.5v-.89a.57.57,0,1,0-1.13,0v.89a.57.57,0,1,0,1.13,0Zm0,0"/><path class="cls-2" d="M27.15,27.07a.58.58,0,0,0,.57-.57v-.89a.58.58,0,0,0-.57-.57.57.57,0,0,0-.56.57v.89a.57.57,0,0,0,.56.57Zm0,0"/><path class="cls-2" d="M38,44.86A.57.57,0,0,0,38,46h0a.57.57,0,0,0,0-1.14Zm0,0"/></svg>