<svg xmlns="http://www.w3.org/2000/svg" xmlns:xlink="http://www.w3.org/1999/xlink" viewBox="0 0 58.48 58.48"><defs><style>.cls-1{fill:none;}.cls-2{fill:#f3f6f9;}.cls-3{fill:#2a85f5;}.cls-4{clip-path:url(#clip-path);}</style><clipPath id="clip-path"><rect class="cls-1" x="16.83" y="14.85" width="29.45" height="32.43"/></clipPath></defs><g id="Layer_2" data-name="Layer 2"><g id="Layer_1-2" data-name="Layer 1"><circle class="cls-2" cx="29.24" cy="29.24" r="29.24"/><path class="cls-3" d="M20.11,26.64H27A.64.64,0,0,0,27.6,26V24.51a4.35,4.35,0,0,0-.7-2.37,2.5,2.5,0,0,0-1.5-1.07,1.94,1.94,0,0,0,.17-.8v-1a2,2,0,0,0-4,0v1a2,2,0,0,0,.17.8,2.48,2.48,0,0,0-1.54,1.07,4.42,4.42,0,0,0-.69,2.37V26a.64.64,0,0,0,.64.64Zm2.7-7.41a.74.74,0,0,1,1.48,0v1a.74.74,0,0,1-.71.73h-.06a.74.74,0,0,1-.71-.73Zm-2.06,5.28a3.07,3.07,0,0,1,.49-1.67,1.2,1.2,0,0,1,1-.56h2.55a1.19,1.19,0,0,1,1,.56,3,3,0,0,1,.5,1.67v.84H20.75Z"/><path class="cls-3" d="M29.73,20.07h4.16a.64.64,0,0,0,.64-.64.64.64,0,0,0-.64-.64H29.73a.64.64,0,1,0,0,1.28Z"/><path class="cls-3" d="M29.73,22.25h6.62a.64.64,0,0,0,.64-.64.64.64,0,0,0-.64-.64H29.73a.64.64,0,0,0,0,1.28Z"/><path class="cls-3" d="M20,34.6H26.6a.64.64,0,1,0,0-1.28H20a.64.64,0,0,0-.64.64.64.64,0,0,0,.64.64Z"/><path class="cls-3" d="M20,36.75h9.08a.65.65,0,0,0,0-1.29H20a.65.65,0,0,0,0,1.29Z"/><path class="cls-3" d="M20,38.78h9.08a.64.64,0,1,0,0-1.28H20a.64.64,0,0,0,0,1.28Z"/><path class="cls-3" d="M29.73,24.42h2.84a.64.64,0,0,0,.64-.64.64.64,0,0,0-.64-.64H29.73a.64.64,0,0,0,0,1.28Z"/><path class="cls-3" d="M29.73,26.6h6.79a.64.64,0,1,0,0-1.28H29.73a.64.64,0,1,0,0,1.28Z"/><path class="cls-3" d="M20,32.6h9.75a.64.64,0,0,0,.64-.64V28.15a.64.64,0,0,0-.64-.64H20a.64.64,0,0,0-.64.64V32a.64.64,0,0,0,.64.64Zm.64-3.81h8.47v2.53H20.62Z"/><path class="cls-3" d="M31.48,39.6H20a.64.64,0,0,0-.64.64v3.81a.64.64,0,0,0,.64.64h11.5a.64.64,0,0,0,.65-.64V40.24a.65.65,0,0,0-.65-.64Zm-.64,3.81H20.62V40.88H30.84Z"/><g class="cls-4"><path class="cls-3" d="M35.47,23.21a.76.76,0,0,0-.89.09.4.4,0,0,0,.12.67h0a.78.78,0,0,0,.39.1.69.69,0,0,0,.51-.19.41.41,0,0,0-.12-.68Z"/><path class="cls-3" d="M45.25,29.54a9.31,9.31,0,0,1-5.58-1.61l-.08-.05V15.43a.64.64,0,0,0-.64-.64H17.53a.64.64,0,0,0-.64.64V46.58a.64.64,0,0,0,.64.64H39a.64.64,0,0,0,.64-.64v-2h0l.18-.1L40,44.3A11.7,11.7,0,0,0,44,40.78l.08-.1a11.78,11.78,0,0,0,1.83-3.88,12.06,12.06,0,0,0,.36-2.93V30.56a1,1,0,0,0-1-1ZM18.17,45.94V16.07H38.31V27.92h0a9.31,9.31,0,0,1-5.58,1.61,1,1,0,0,0-1,1v3.31A11.87,11.87,0,0,0,33.43,40a11.68,11.68,0,0,0,4.69,4.37l.19.09v1.44ZM45,33.87a10.43,10.43,0,0,1-.33,2.61A10.19,10.19,0,0,1,43,39.93l-.07.11a10.47,10.47,0,0,1-3.51,3.13l-.21.11-.18.09a.17.17,0,0,1-.14,0l-.2-.11A10.48,10.48,0,0,1,33,33.87V30.81A10.66,10.66,0,0,0,39,29a10.74,10.74,0,0,0,6,1.79Z"/></g><path class="cls-3" d="M35.55,32.21a.86.86,0,0,0-.84.85V34.9A6.83,6.83,0,0,0,38.45,41l.1.05a1.12,1.12,0,0,0,1,0l.1-.05a6.5,6.5,0,0,0,1.24-.82.63.63,0,0,0,.09-.9.65.65,0,0,0-.9-.09,5.16,5.16,0,0,1-1,.66h0a5.53,5.53,0,0,1-3-5V33.48a6.23,6.23,0,0,0,3-.92,6.14,6.14,0,0,0,3,.92V34.9a3.24,3.24,0,0,1,0,.36l0,.09a.64.64,0,0,0,1.28.16v-.08a3.6,3.6,0,0,0,0-.53V33.06a.86.86,0,0,0-.84-.85,4.91,4.91,0,0,1-2.93-.83.92.92,0,0,0-1.11,0,4.91,4.91,0,0,1-2.93.83Z"/><path class="cls-3" d="M42.37,37.3v0a.65.65,0,0,0-.9.12.64.64,0,0,0,.12.9v0a.73.73,0,0,0,.39.13.64.64,0,0,0,.39-1.15Z"/></g></g></svg>