<svg xmlns="http://www.w3.org/2000/svg" viewBox="0 0 58.48 58.48"><defs><style>.cls-1{fill:#f3f6f9;}.cls-2{fill:#2a85f5;}</style></defs><g id="Layer_2" data-name="Layer 2"><g id="Layer_1-2" data-name="Layer 1"><circle class="cls-1" cx="29.24" cy="29.24" r="29.24"/><path class="cls-2" d="M34.32,35.56c-.1.59-.42,1.49-1.43,1.49H27.43v1h5.46c2,0,2.48-1.94,2.48-3a.5.5,0,0,0-.5-.5H22.47a.53.53,0,0,0-.35.15l-5.95,6,.7.7,5.81-5.81Z"/><path class="cls-2" d="M40.47,31.25,36,35.71l.7.7,4.07-4.07a2.11,2.11,0,0,1-.31,2.87L34.66,41H24.46a.5.5,0,0,0-.35.14l-3.47,3.47.7.71L24.66,42H34.87a.47.47,0,0,0,.35-.15l6-6a3.17,3.17,0,0,0,0-4.66A.48.48,0,0,0,40.47,31.25Z"/><path class="cls-2" d="M24.46,31.1a2,2,0,0,0,3.6,1.15,2.46,2.46,0,0,0,1.85.84,2.5,2.5,0,0,0,1.85-.84,2,2,0,1,0,.39-2.7,2.48,2.48,0,0,0-4.48,0,2,2,0,0,0-3.21,1.55Zm8.92-1a1,1,0,1,1-1,1A1,1,0,0,1,33.38,30.11Zm-3.47-1a1.49,1.49,0,1,1-1.49,1.49A1.49,1.49,0,0,1,29.91,29.12Zm-3.47,1a1,1,0,1,1-1,1A1,1,0,0,1,26.44,30.11Z"/><path class="cls-2" d="M33.88,21.19h6.73L39,22.82l.7.7L42.16,21a.5.5,0,0,0,0-.7l-2.48-2.48-.7.7,1.63,1.63H33.84a1,1,0,0,0-1,1v3h1Z"/><path class="cls-2" d="M29.42,15.44v7.73h1V15.44L32,17.07l.7-.7-2.48-2.48a.5.5,0,0,0-.7,0l-2.48,2.48.7.7Z"/><rect class="cls-2" x="32.89" y="25.15" width="0.99" height="2.97"/><rect class="cls-2" x="25.94" y="25.15" width="0.99" height="2.97"/><rect class="cls-2" x="29.42" y="24.16" width="0.99" height="2.97"/><path class="cls-2" d="M20.14,23.52l.7-.7-1.63-1.63h6.73v3h1v-3a1,1,0,0,0-1-.95H19.21l1.63-1.63-.7-.7-2.48,2.48a.5.5,0,0,0,0,.7Z"/></g></g></svg>