<svg id="Layer_1" data-name="Layer 1" xmlns="http://www.w3.org/2000/svg" viewBox="0 0 60 60"><defs><style>.cls-1{fill:#f3f6f9;}.cls-2{fill:#2a85f5;}</style></defs><circle class="cls-1" cx="30" cy="30" r="29.24"/><path class="cls-2" d="M30,20a9.36,9.36,0,0,0-6.62,16l.7.7a1.93,1.93,0,0,1,.59,1.43V39.9a2.49,2.49,0,0,0,2.48,2.49h.1v.16a2.75,2.75,0,0,0,5.5,0v-.16h.1a2.49,2.49,0,0,0,2.48-2.49V38.09a1.93,1.93,0,0,1,.59-1.43l.7-.7A9.35,9.35,0,0,0,30,20Zm4.37,18.27v1H25.63v-1Zm-2.58,4.29a1.79,1.79,0,0,1-3.58,0v-.16h3.58Zm1.06-1.12h-5.7a1.52,1.52,0,0,1-1.48-1.18h8.66a1.52,1.52,0,0,1-1.48,1.18Zm3.09-6.14-.69.7a2.8,2.8,0,0,0-.77,1.31h-9A2.8,2.8,0,0,0,24.75,36l-.69-.7a8.4,8.4,0,1,1,11.88,0ZM30,14.71a.48.48,0,0,1,.48.48v3.28a.48.48,0,0,1-1,0V15.19a.48.48,0,0,1,.48-.48Zm-7.95,7.2-2.33-2.32a.48.48,0,0,1,.68-.68l2.32,2.32a.48.48,0,0,1-.34.82.47.47,0,0,1-.33-.14Zm-2.44,7.28a.48.48,0,0,1-.48.48H15.84a.48.48,0,0,1,0-1h3.29a.48.48,0,0,1,.48.48Zm20.67-9.6L38,21.91a.47.47,0,0,1-.33.14.48.48,0,0,1-.34-.82l2.32-2.32a.48.48,0,0,1,.68.68Zm4.35,9.6a.48.48,0,0,1-.47.48H40.87a.48.48,0,0,1,0-1h3.29a.48.48,0,0,1,.47.48Zm-10-1.79.87-1.12a.47.47,0,0,0,0-.63L33.88,24.1a.47.47,0,0,0-.63,0l-1.12.86-.38-.16-.18-1.4a.48.48,0,0,0-.47-.42H28.9a.48.48,0,0,0-.47.42l-.18,1.4-.38.16-1.12-.86a.47.47,0,0,0-.63,0l-1.56,1.55a.47.47,0,0,0,0,.63l.87,1.12c-.06.12-.11.25-.16.38l-1.4.18a.48.48,0,0,0-.42.47v2.2a.49.49,0,0,0,.42.48l1.4.18c.05.13.1.25.16.38l-.87,1.12a.47.47,0,0,0,0,.63L26.12,35a.47.47,0,0,0,.63,0l1.12-.86.38.16.18,1.4a.47.47,0,0,0,.47.41h2.2a.47.47,0,0,0,.47-.41l.18-1.4.38-.16,1.12.86a.47.47,0,0,0,.63,0l1.56-1.55a.47.47,0,0,0,0-.63l-.87-1.12c.06-.13.11-.25.16-.38l1.4-.18a.48.48,0,0,0,.42-.48v-2.2a.48.48,0,0,0-.42-.47l-1.4-.18c-.05-.13-.1-.26-.16-.38Zm1,2.81-1.28.17a.46.46,0,0,0-.39.34,4.45,4.45,0,0,1-.33.78.49.49,0,0,0,0,.52l.79,1-1,1-1-.79a.47.47,0,0,0-.52,0,4.41,4.41,0,0,1-.78.32.49.49,0,0,0-.34.4l-.16,1.28H29.32l-.16-1.28a.49.49,0,0,0-.34-.4,4.41,4.41,0,0,1-.78-.32.47.47,0,0,0-.52,0l-1,.79-1-1,.79-1a.49.49,0,0,0,0-.52,4.45,4.45,0,0,1-.33-.78.46.46,0,0,0-.39-.34l-1.28-.17V28.85l1.28-.16a.47.47,0,0,0,.39-.34,4.45,4.45,0,0,1,.33-.78.49.49,0,0,0,0-.52l-.79-1,1-1,1,.79a.47.47,0,0,0,.52,0,4.41,4.41,0,0,1,.78-.32.5.5,0,0,0,.34-.4l.16-1.28h1.36l.16,1.28a.5.5,0,0,0,.34.4,4.41,4.41,0,0,1,.78.32.47.47,0,0,0,.52,0l1-.79,1,1-.79,1a.49.49,0,0,0,0,.52,4.45,4.45,0,0,1,.33.78.47.47,0,0,0,.39.34l1.28.16ZM30,25.89a3.65,3.65,0,1,0,3.64,3.64A3.65,3.65,0,0,0,30,25.89Zm0,6.33a2.69,2.69,0,1,1,2.68-2.69A2.7,2.7,0,0,1,30,32.22Zm0,0"/></svg>