<svg id="Layer_1" data-name="Layer 1" xmlns="http://www.w3.org/2000/svg" xmlns:xlink="http://www.w3.org/1999/xlink" viewBox="0 0 60 60"><defs><style>.cls-1{fill:none;}.cls-2{fill:#f3f6f9;}.cls-3{clip-path:url(#clip-path);}.cls-4{fill:#2a85f5;}</style><clipPath id="clip-path"><path class="cls-1" d="M29.69,20.27a1,1,0,0,0-1,1v9.44H19.23a1,1,0,0,0-1,1v9.93a1,1,0,0,0,1,1h9.93a1,1,0,0,0,1-1V32.23h9.44a1,1,0,0,0,1-1V21.29a1,1,0,0,0-1-1Z"/></clipPath></defs><circle class="cls-2" cx="30" cy="30" r="29.24"/><g class="cls-3"><rect class="cls-4" x="13.58" y="15.63" width="31.7" height="31.7" transform="translate(-13.64 30.03) rotate(-45)"/></g></svg>