<svg id="errnng82mf5g1" xmlns="http://www.w3.org/2000/svg" xmlns:xlink="http://www.w3.org/1999/xlink" viewBox="0 0 750 500" shape-rendering="geometricPrecision" text-rendering="geometricPrecision"><defs><clipPath id="errnng82mf5g2"><path id="errnng82mf5g3" d="M454.610000,133.390000L454.610000,407.460000C454.610602,408.669015,454.489999,409.875045,454.250000,411.060000C454.141686,411.614296,454.001452,412.161874,453.830000,412.700000L453.500000,413.700000C452.918642,415.280851,452.106509,416.766953,451.090000,418.110000C450.571039,418.778313,450.006350,419.409828,449.400000,420C448.794653,420.609832,448.142677,421.171534,447.450000,421.680000C447.110000,421.930000,446.700000,422.220000,446.230000,422.520000L446.040000,422.640000C445.650000,422.880000,445.250000,423.110000,444.830000,423.320000L444.540000,423.450000C443.842514,423.793035,443.120531,424.083834,442.380000,424.320000L442.130000,424.400000C441.540000,424.580000,440.990000,424.720000,440.450000,424.840000C439.260581,425.071515,438.051741,425.188716,436.840000,425.190000L324.420000,425.190000C323.152605,425.192642,321.888623,425.058532,320.650000,424.790000C320.230000,424.700000,319.810000,424.600000,319.410000,424.480000C318.481080,424.220593,317.574767,423.886160,316.700000,423.480000C316.280000,423.270000,315.860000,423.050000,315.500000,422.830000L314.990000,422.530000L314.880000,422.460000C314.570000,422.270000,314.220000,422.030000,313.790000,421.710000C312.651287,420.831881,311.617776,419.825215,310.710000,418.710000C310.330000,418.250000,310,417.810000,309.710000,417.370000C309.230566,416.654748,308.802812,415.906179,308.430000,415.130000C307.960546,414.167452,307.582229,413.163070,307.300000,412.130000L307.230000,411.860000C306.859364,410.409057,306.671244,408.917533,306.670000,407.420000L306.670000,133.390000C306.681022,123.580469,314.630469,115.631022,324.440000,115.620000L436.850000,115.620000C446.655625,115.636529,454.598990,123.584367,454.610000,133.390000Z" fill="rgb(237,239,241)" stroke="none" stroke-width="1"/></clipPath></defs><g id="errnng82mf5g4" style="isolation:isolate"><g id="errnng82mf5g5"/><g id="errnng82mf5g6"><path id="errnng82mf5g7" d="M253.280000,455.420000C253.280000,455.420000,89,454.220000,98.440000,351.050000C109.130000,234,210.400000,270,181,130.600000C160,30.780000,297.230000,4,362.360000,69.370000C405.480000,112.680000,421.360000,186.260000,529.860000,121.690000C586.130000,88.210000,678.300000,118.270000,644.810000,199.690000C617.510000,266.080000,588.330000,257.440000,629.110000,351.040000C651.950000,403.450000,612.110000,455.750000,521.690000,464.040000C431.270000,472.330000,253.280000,455.420000,253.280000,455.420000Z" fill="rgb(244,244,244)" stroke="none" stroke-width="1"/><rect id="errnng82mf5g8" width="153.680000" height="106.910000" rx="8.140000" ry="0" transform="matrix(1 0 0 1 172.94000000000000 314.81999999999999)" fill="rgb(120,193,244)" stroke="none" stroke-width="1"/><path id="errnng82mf5g9" d="M320.790000,324.440000C320.784487,322.179539,318.950468,320.349993,316.690000,320.350000L176.790000,320.350000C177.989173,318.716774,179.893811,317.751460,181.920000,317.750000L317,317.750000C320.526816,317.755506,323.384494,320.613184,323.390000,324.140000L323.390000,413.300000C323.390849,415.327166,322.429767,417.234486,320.800000,418.440000Z" opacity="0.4" fill="rgb(164,214,251)" stroke="none" stroke-width="1"/><path id="errnng82mf5g10" style="mix-blend-mode:multiply" d="M247.320000,318.110000C247.607769,318.101861,247.887444,318.205842,248.100000,318.400000C243.020000,332.620000,240.430000,352.260000,240.430000,352.260000C240.981853,352.798167,241.577210,353.289838,242.210000,353.730000L240.830000,361.070000L240.910000,361.150000L240.820000,361.090000C239.093521,362.878558,237.922892,365.129500,237.450000,367.570000L256.690000,371.340000C257.099916,371.413022,257.508416,371.204687,257.690000,370.830000C257.880503,370.446321,257.780991,369.981930,257.450000,369.710000C256.616586,369.077838,255.584059,368.765597,254.540000,368.830000C254.101531,368.826427,253.676387,368.678856,253.330000,368.410000L250.040000,365.860000L250.040000,365.860000L248.100000,363.860000C246.541119,362.243753,245.951767,359.924366,246.550000,357.760000L247.070000,355.880000C248.880951,356.262625,250.742639,356.343715,252.580000,356.120000C254.266323,355.942046,255.921112,355.538439,257.500000,354.920000L258.340000,348.990000C259.660000,352.990000,260.640000,355.910000,260.840000,356.500000C261.110000,357.270000,262.400000,357.550000,264.180000,357.380000L266.880000,364.210000L267,364.210000L266.890000,364.210000C266.384716,366.644576,266.596614,369.173458,267.500000,371.490000L285.780000,364.410000C286.169857,364.236661,286.406798,363.835065,286.370000,363.410000C286.323313,362.985370,285.993348,362.647156,285.570000,362.590000C284.528449,362.506830,283.490933,362.793652,282.640000,363.400000C282.267699,363.634830,281.828327,363.740279,281.390000,363.700000L277.250000,363.290000L277.250000,363.290000L274.540000,362.630000C272.357206,362.094167,270.617385,360.449314,269.960000,358.300000L269.290000,356.070000C270.915812,355.445938,272.463003,354.633747,273.900000,353.650000C275.830000,352.310000,278.500000,350.320000,279.090000,346.730000L257.270000,315.640000L255.730000,313.190000L247.830000,313.190000Z" opacity="0.5" fill="rgb(227,92,151)" stroke="none" stroke-width="1"/><rect id="errnng82mf5g11" width="44.970000" height="3.390000" rx="0" ry="0" transform="matrix(1 0 0 1 185.72000000000000 375.50999999999999)" opacity="0.4" fill="rgb(164,214,251)" stroke="none" stroke-width="1"/><rect id="errnng82mf5g12" width="87.470000" height="3.390000" rx="0" ry="0" transform="matrix(1 0 0 1 185.72000000000000 383.38000000000000)" opacity="0.4" fill="rgb(164,214,251)" stroke="none" stroke-width="1"/><rect id="errnng82mf5g13" width="97.050000" height="3.390000" rx="0" ry="0" transform="matrix(1 0 0 1 185.72000000000000 391.25999999999999)" opacity="0.4" fill="rgb(164,214,251)" stroke="none" stroke-width="1"/><rect id="errnng82mf5g14" width="75.020000" height="3.390000" rx="0" ry="0" transform="matrix(1 0 0 1 185.72000000000000 399.13999999999999)" opacity="0.4" fill="rgb(164,214,251)" stroke="none" stroke-width="1"/><rect id="errnng82mf5g15" width="97.050000" height="3.390000" rx="0" ry="0" transform="matrix(1 0 0 1 185.72000000000000 407.00999999999999)" opacity="0.4" fill="rgb(164,214,251)" stroke="none" stroke-width="1"/><path id="errnng82mf5g16" d="M289.370000,327.840000C289.374047,329.264610,288.518998,330.551196,287.203989,331.099177C285.888981,331.647158,284.373329,331.348476,283.364541,330.342554C282.355754,329.336632,282.052760,327.821836,282.596998,326.505274C283.141236,325.188712,284.425384,324.330006,285.850000,324.330000C287.787880,324.335459,289.359028,325.902144,289.370000,327.840000Z" fill="rgb(255,255,255)" stroke="none" stroke-width="1"/><path id="errnng82mf5g17" d="M303.420000,327.840000C303.424044,329.265519,302.567909,330.552736,301.251671,331.100128C299.935433,331.647520,298.418997,331.347000,297.410998,330.339002C296.403000,329.331003,296.102480,327.814567,296.649872,326.498329C297.197264,325.182091,298.484481,324.325956,299.910000,324.330000C301.846240,324.335493,303.414507,325.903760,303.420000,327.840000Z" fill="rgb(255,255,255)" stroke="none" stroke-width="1"/><path id="errnng82mf5g18" d="M317.480000,327.840000C317.484044,329.265519,316.627909,330.552736,315.311671,331.100128C313.995433,331.647520,312.478997,331.347000,311.470998,330.339002C310.463000,329.331003,310.162480,327.814567,310.709872,326.498329C311.257264,325.182091,312.544481,324.325956,313.970000,324.330000C315.906240,324.335493,317.474507,325.903760,317.480000,327.840000Z" fill="rgb(255,255,255)" stroke="none" stroke-width="1"/><g id="errnng82mf5g19"><path id="errnng82mf5g20" d="M272.290000,224.330000L252.290000,224.330000C246.619956,224.317219,241.696223,228.231031,240.429477,233.757777C239.162732,239.284522,241.890394,244.952056,247,247.410000L243.450000,256.280000L255.210000,248.620000L272.270000,248.620000C276.692087,248.746903,280.833673,246.460235,283.082164,242.650347C285.330655,238.840459,285.330655,234.109541,283.082164,230.299653C280.833673,226.489765,276.692087,224.203097,272.270000,224.330000Z" fill="rgb(164,214,251)" stroke="none" stroke-width="1"/><circle id="errnng82mf5g21" r="2.260000" transform="matrix(1 0 0 1 271.35000000000002 236.94000000000000)" fill="rgb(46,64,80)" stroke="none" stroke-width="1"/><path id="errnng82mf5g22" d="M260,236.940000C259.995951,237.859028,260.546445,238.689817,261.394357,239.044323C262.242269,239.398829,263.220273,239.207093,263.871563,238.558672C264.522854,237.910250,264.718905,236.933103,264.368146,236.083634C264.017387,235.234165,263.189037,234.680009,262.270000,234.680000C261.020209,234.679988,260.005506,235.690221,260,236.940000Z" fill="rgb(46,64,80)" stroke="none" stroke-width="1"/><path id="errnng82mf5g23" d="M251,236.940000C251,237.854085,251.550631,238.678163,252.395135,239.027968C253.239640,239.377773,254.211706,239.184417,254.858061,238.538061C255.504417,237.891706,255.697773,236.919640,255.347968,236.075135C254.998163,235.230631,254.174085,234.680000,253.260000,234.680000C252.011836,234.680000,251,235.691836,251,236.940000Z" fill="rgb(46,64,80)" stroke="none" stroke-width="1"/></g><path id="errnng82mf5g24" d="M234.260000,254.940000C234.260000,254.940000,236.260000,255.010000,236.170000,256.740000C236.375917,258.091675,236.061428,259.471140,235.290000,260.600000L233.210000,263.300000C233.210000,263.300000,230.910000,282.830000,225.500000,285.170000C224.981292,285.384456,224.398708,285.384456,223.880000,285.170000C222.880000,284.740000,220.880000,283.480000,220.390000,280L219,273.340000L219.450000,266.120000L225.100000,265.660000L225.660000,266.320000L226.440000,273.610000L230.440000,263.230000C230.557767,262.938481,230.592383,262.620014,230.540000,262.310000C230.320000,261.060000,229.860000,257.680000,231.050000,257.140000L231.570000,256.690000Z" fill="rgb(243,164,163)" stroke="none" stroke-width="1"/><path id="errnng82mf5g25" d="M230.540000,257.860000C230.540000,257.860000,231.540000,253.600000,234.130000,253.860000L238.210000,254.860000C238.210000,254.860000,238.640000,255.860000,237.210000,255.770000L233.770000,255.390000C233.770000,255.390000,233.430000,255.220000,233.410000,256Z" fill="rgb(243,164,163)" stroke="none" stroke-width="1"/><path id="errnng82mf5g26" d="M246.090000,341.290000L242.460000,354.460000C241.861767,356.624366,242.451119,358.943753,244.010000,360.560000L245.950000,362.560000L246.440000,365.010000L243.890000,364.510000L236.720000,357.790000L240.060000,340.090000Z" fill="rgb(243,164,163)" stroke="none" stroke-width="1"/><path id="errnng82mf5g27" d="M236.720000,357.820000C234.991284,359.608330,233.817349,361.858951,233.340000,364.300000L252.580000,368.080000C252.988573,368.128921,253.385403,367.922570,253.580000,367.560000C253.762887,367.176651,253.659571,366.717930,253.330000,366.450000C252.496586,365.817838,251.464059,365.505597,250.420000,365.570000C249.981531,365.566427,249.556387,365.418856,249.210000,365.150000L245.910000,362.590000L244.970000,363.590000Z" fill="rgb(38,109,254)" stroke="none" stroke-width="1"/><path id="errnng82mf5g28" d="M220.800000,288.420000C222.157755,291.711222,223.104888,295.157174,223.620000,298.680000L202.800000,298.230000L200.220000,287.230000Z" fill="rgb(8,16,31)" stroke="none" stroke-width="1"/><path id="errnng82mf5g29" d="M260.190000,303.500000L256.710000,328.200000L254.890000,341.150000L253.410000,351.620000C251.831664,352.240184,250.176636,352.643849,248.490000,352.820000C244.065269,353.479646,239.582627,352.071448,236.330000,349C233.077373,345.928552,240.650000,316.160000,249.090000,304.660000C249.090000,304.660000,228.940000,303.570000,220.090000,300.120000L214.150000,288.520000L218.150000,289.240000C226.460000,290.770000,245.720000,294.420000,255.080000,297.030000C258.065704,297.759330,260.172280,300.426560,260.190000,303.500000Z" fill="rgb(8,16,31)" stroke="none" stroke-width="1"/><path id="errnng82mf5g30" d="M251.210000,259.350000L250.590000,258.740000L250.590000,258.740000C250.472846,258.602934,250.300262,258.525822,250.120000,258.530000L233.270000,258.530000C232.838017,258.545118,232.473396,258.855874,232.390000,259.280000L228.760000,280.600000C228.680000,281.310000,229.550000,281.790000,229.550000,281.790000L229.800000,281.350000L246.230000,281.350000C246.658184,281.330363,247.017489,281.020618,247.100000,280.600000L250.700000,259.460000L251.060000,259.710000Z" fill="rgb(46,64,80)" stroke="none" stroke-width="1"/><path id="errnng82mf5g31" d="M229.610000,282L229.480000,281.930000C229.480000,281.930000,228.480000,281.380000,228.600000,280.580000L232.240000,259.250000C232.335257,258.765498,232.746978,258.407301,233.240000,258.380000L250.090000,258.380000C250.266746,258.376264,250.439518,258.432679,250.580000,258.540000L250.580000,258.540000L250.580000,258.540000L250.580000,258.540000L251.280000,259.250000L251.020000,259.870000L250.710000,259.650000L247.140000,280.550000C247.048793,281.038449,246.636081,281.401636,246.140000,281.430000L229.890000,281.430000ZM233.270000,258.690000C232.916124,258.697954,232.615984,258.952239,232.550000,259.300000L228.910000,280.620000C228.927169,281.018003,229.150854,281.378173,229.500000,281.570000L229.710000,281.190000L246.230000,281.190000C246.581724,281.172780,246.875552,280.916198,246.940000,280.570000L250.590000,259.190000L250.990000,259.470000L250.990000,259.390000L250.540000,258.940000L250.540000,258.940000L250.450000,258.840000C250.356635,258.741306,250.225820,258.686800,250.090000,258.690000Z" fill="rgb(46,64,80)" stroke="none" stroke-width="1"/><path id="errnng82mf5g32" d="M247.690000,281.200000C247.606758,281.618610,247.246542,281.925000,246.820000,281.940000L230,281.940000C229.811222,281.947470,229.629637,281.867047,229.508305,281.722231C229.386973,281.577416,229.339589,281.384553,229.380000,281.200000L233,259.870000C233.083242,259.451390,233.443458,259.145000,233.870000,259.130000L250.720000,259.130000C250.908778,259.122530,251.090363,259.202953,251.211695,259.347769C251.333027,259.492584,251.380411,259.685447,251.340000,259.870000Z" fill="rgb(46,64,80)" stroke="none" stroke-width="1"/><path id="errnng82mf5g33" d="M246.820000,282.100000L230,282.100000C229.769681,282.104281,229.549544,282.005219,229.400000,281.830000C229.249032,281.645705,229.186851,281.404295,229.230000,281.170000L232.870000,259.850000C232.964472,259.363415,233.375353,259.001841,233.870000,258.970000L250.720000,258.970000C250.953223,258.965528,251.176501,259.064355,251.330000,259.240000C251.482709,259.423328,251.541804,259.667093,251.490000,259.900000L247.860000,281.220000C247.761923,281.720531,247.329860,282.086122,246.820000,282.100000ZM233.820000,259.280000C233.465900,259.296301,233.168679,259.552241,233.100000,259.900000L229.470000,281.220000C229.441056,281.363242,229.473721,281.512051,229.560000,281.630000C229.654668,281.733945,229.789424,281.792218,229.930000,281.790000L246.780000,281.790000C247.134100,281.773699,247.431321,281.517759,247.500000,281.170000L251.140000,259.850000C251.166115,259.705342,251.129785,259.556389,251.040000,259.440000C250.945332,259.336055,250.810576,259.277782,250.670000,259.280000Z" fill="rgb(46,64,80)" stroke="none" stroke-width="1"/><path id="errnng82mf5g34" d="M261.890000,341.940000L265.890000,355.010000C266.542591,357.160612,268.278583,358.809235,270.460000,359.350000L273.170000,360.010000L274.890000,361.820000L272.470000,362.760000L262.820000,360.910000L256.190000,344.160000Z" fill="rgb(243,164,163)" stroke="none" stroke-width="1"/><path id="errnng82mf5g35" d="M262.800000,360.930000C262.294716,363.364576,262.506614,365.893458,263.410000,368.210000L281.690000,361.120000C282.086840,360.967645,282.329870,360.565610,282.280340,360.143424C282.230810,359.721238,281.901327,359.386369,281.480000,359.330000C280.437454,359.236104,279.396277,359.523937,278.550000,360.140000C278.176496,360.371338,277.737209,360.473252,277.300000,360.430000L273.150000,360.030000L272.880000,361.390000Z" fill="rgb(38,109,254)" stroke="none" stroke-width="1"/><path id="errnng82mf5g36" style="mix-blend-mode:multiply" d="M254.890000,341.150000L253.410000,351.620000C251.831664,352.240184,250.176636,352.643849,248.490000,352.820000C249.658410,349.539175,250.257042,346.082669,250.260000,342.600000L244.650000,316.940000Z" opacity="0.5" fill="rgb(59,28,85)" stroke="none" stroke-width="1"/><path id="errnng82mf5g37" d="M274.190000,345.410000C273.210989,347.433161,271.691690,349.146265,269.800000,350.360000C264.690000,353.910000,257.440000,355.160000,256.750000,353.200000C256.400000,352.200000,253.750000,344.290000,251.010000,335.920000C248.170000,327.340000,245.170000,318.260000,244.290000,315.590000C244.134725,315.130529,243.694541,314.828922,243.210000,314.850000L223.310000,314.850000C216.730000,314.850000,211.810000,315.250000,207.910000,314.150000C204.010000,313.050000,200.670000,309.400000,198.730000,305.810000C196.776769,302.230292,196.365173,298.009629,197.590000,294.120000C198.322097,291.781862,199.197076,289.490884,200.210000,287.260000L200.210000,287.260000L206.610000,293.920000C207.906048,295.258581,209.651288,296.070652,211.510000,296.200000C214.510000,296.400000,218.120000,296.790000,221.710000,297.200000C230.030000,298.200000,238.220000,299.590000,238.220000,299.590000C249.220000,301.050000,252.590000,306.920000,252.980000,307.650000L253.100000,307.880000Z" fill="rgb(8,16,31)" stroke="none" stroke-width="1"/><path id="errnng82mf5g38" style="mix-blend-mode:multiply" d="M251.210000,336.430000L251.010000,335.920000C248.170000,327.340000,245.170000,318.260000,244.290000,315.590000C244.134725,315.130529,243.694541,314.828922,243.210000,314.850000L223.310000,314.850000C216.890000,314.850000,211.810000,315.250000,207.910000,314.150000C204.010000,313.050000,200.670000,309.400000,198.730000,305.810000C196.776769,302.230292,196.365173,298.009629,197.590000,294.120000C198.322097,291.781862,199.197076,289.490884,200.210000,287.260000C199.551008,289.443976,199.247137,291.719634,199.310000,294C199.450000,306.250000,211.310000,310.230000,222.310000,310.830000C228.010000,311.140000,236.310000,313.950000,244.310000,313.130000L247.160000,310.580000L245.510000,315.090000Z" opacity="0.5" fill="rgb(122,58,132)" stroke="none" stroke-width="1"/><path id="errnng82mf5g39" d="M216.240000,228.870000C216.240000,228.870000,220.760000,240.690000,221.910000,247.650000C223.060000,254.610000,223.440000,267,215.410000,266.820000C215.410000,266.820000,199.930000,270.390000,202.090000,251.130000L210.180000,227.870000Z" fill="rgb(46,64,80)" stroke="none" stroke-width="1"/><path id="errnng82mf5g40" d="M216.800000,233.070000C216.730080,233.124832,216.656584,233.174943,216.580000,233.220000L209.220000,239.130000L205.600000,246C206.040000,255.850000,203.410000,264.910000,196.130000,265.610000C195.334138,265.687348,194.531931,265.670565,193.740000,265.560000C189.250000,264.960000,186.900000,261.330000,186.680000,257.080000C186.400000,251.740000,190.080000,250.450000,192.680000,246.510000C193.739022,244.621282,194.552279,242.604943,195.100000,240.510000C196.016968,237.652301,196.738632,234.735579,197.260000,231.780000C198.100000,226.940000,199.780000,224.830000,201.100000,223.920000C201.634548,223.510062,202.277974,223.266604,202.950000,223.220000C203.663476,222.631667,204.454154,222.143803,205.300000,221.770000C210.860000,219.340000,215.220000,224.350000,215.220000,224.350000C220.300000,229.840000,217.630000,232.460000,216.800000,233.070000Z" fill="rgb(46,64,80)" stroke="none" stroke-width="1"/><path id="errnng82mf5g41" d="M205.550000,223C205.538730,223.437123,205.407253,223.862693,205.170000,224.230000C204.734691,224.911353,203.978481,225.319706,203.170000,225.310000L203.170000,225.310000C202.308508,225.262508,201.541597,224.748678,201.170000,223.970000C201.037870,223.708222,200.959657,223.422574,200.940000,223.130000C200.934777,223.053422,200.934777,222.976578,200.940000,222.900000C200.963650,221.875483,201.640454,220.981136,202.620000,220.680000C202.860423,220.610535,203.109763,220.576841,203.360000,220.580000C204.662711,220.618138,205.692462,221.696925,205.670000,223Z" fill="rgb(46,64,80)" stroke="none" stroke-width="1"/><path id="errnng82mf5g42" d="M203.590000,221.720000C202.992719,222.650342,201.932157,223.176781,200.830000,223.090000C199.838273,222.932558,198.832486,222.882268,197.830000,222.940000C194.550000,223.450000,197.060000,226.090000,195.830000,228.110000C194.830000,229.750000,193.900000,228.340000,194.630000,230.960000C195.360000,233.580000,196.350000,234.040000,194.070000,235.860000C191.790000,237.680000,193.600000,240.790000,190.830000,241.860000C189.732364,242.299231,188.481821,242.095383,187.580497,241.330305C186.679173,240.565227,186.274898,239.364406,186.530000,238.210000C186.940000,235.480000,189.070000,235.380000,190.300000,233.320000C191.530000,231.260000,189.120000,230.920000,188.760000,229.210000C188.190000,226.540000,192.240000,225.750000,189.940000,222.770000C189.481656,222.159227,189.160978,221.456464,189,220.710000C188.150000,216.610000,193,215.430000,193,215.430000C197.200000,214.810000,198.840000,216.280000,199.420000,217.970000C200.590000,217.890000,201.100000,219.250000,201.100000,219.250000L202.520000,220.660000Z" fill="rgb(46,64,80)" stroke="none" stroke-width="1"/><path id="errnng82mf5g43" d="M274.190000,345.410000C273.210989,347.433161,271.691690,349.146265,269.800000,350.360000C258.040000,344.940000,259.180000,326.680000,254.270000,315.540000C249.060000,303.710000,239,301.710000,239,301.710000C233.160000,300.250000,225.910000,298.350000,221.680000,297.230000C230,298.230000,238.190000,299.620000,238.190000,299.620000C249.190000,301.080000,252.560000,306.950000,252.950000,307.680000L253.070000,307.910000Z" fill="rgb(8,16,31)" stroke="none" stroke-width="1"/><path id="errnng82mf5g44" d="M216.800000,233.070000C217.240000,230.750000,213.630000,223.380000,208.220000,224.580000C206.910000,224.880000,205.920000,224.170000,205.170000,224.190000C203.930000,224.190000,203.350000,224.630000,203.090000,225.270000C202.390000,226.990000,204.040000,230.360000,201.300000,232.270000C196.940000,235.270000,198.150000,242.950000,198.750000,245.500000C199.280000,247.760000,205.330000,258.240000,196.130000,265.630000C195.334138,265.707348,194.531931,265.690565,193.740000,265.580000C189.250000,264.980000,186.900000,261.350000,186.680000,257.100000C186.400000,251.760000,190.080000,250.470000,192.680000,246.530000C193.739022,244.641282,194.552279,242.624943,195.100000,240.530000C196.016968,237.672301,196.738632,234.755579,197.260000,231.800000C198.100000,226.960000,199.780000,224.850000,201.100000,223.940000C200.967870,223.678222,200.889657,223.392574,200.870000,223.100000C199.878273,222.942558,198.872486,222.892268,197.870000,222.950000C194.590000,223.460000,197.100000,226.100000,195.870000,228.120000C194.870000,229.760000,193.940000,228.350000,194.670000,230.970000C195.400000,233.590000,196.390000,234.050000,194.110000,235.870000C191.830000,237.690000,193.640000,240.800000,190.870000,241.870000C189.772364,242.309231,188.521821,242.105383,187.620497,241.340305C186.719173,240.575227,186.314898,239.374406,186.570000,238.220000C186.980000,235.490000,189.110000,235.390000,190.340000,233.330000C191.570000,231.270000,189.160000,230.930000,188.800000,229.220000C188.230000,226.550000,192.280000,225.760000,189.980000,222.780000C189.521656,222.169227,189.200978,221.466464,189.040000,220.720000C188.190000,216.620000,193.040000,215.440000,193.040000,215.440000C197.240000,214.820000,198.880000,216.290000,199.460000,217.980000C200.630000,217.900000,201.140000,219.260000,201.140000,219.260000L202.560000,220.670000C202.800423,220.600535,203.049763,220.566841,203.300000,220.570000C204.139889,220.597774,204.901650,221.070066,205.300000,221.810000C210.860000,219.380000,215.220000,224.390000,215.220000,224.390000C220.300000,229.840000,217.630000,232.460000,216.800000,233.070000Z" fill="rgb(46,64,80)" stroke="none" stroke-width="1"/><path id="errnng82mf5g45" d="M215.430000,233.460000C215.430000,233.460000,219.340000,239.320000,215.280000,244.580000C212.530000,248.150000,217.690000,248.340000,218.740000,252.400000L209.570000,252.850000L210.320000,238.850000Z" fill="rgb(46,64,80)" stroke="none" stroke-width="1"/><path id="errnng82mf5g46" d="M216.190000,251C217.751444,251.373333,219.285122,251.854487,220.780000,252.440000C223.978000,253.716689,226.188451,256.680703,226.500000,260.110000L227.390000,269.960000C224.932635,270.730367,222.290042,270.670627,219.870000,269.790000L209.870000,259.010000Z" fill="rgb(38,109,254)" stroke="none" stroke-width="1"/><path id="errnng82mf5g47" d="M199.480000,251.070000C198.304866,251.461908,197.177730,251.985222,196.120000,252.630000C192.142049,255.046693,190.793448,260.180220,193.070000,264.240000C194.450000,266.720000,196.340000,270.010000,197.070000,270.980000C197.070000,270.980000,201.370000,279.610000,199.790000,285.510000C199.790000,285.510000,198.790000,287.510000,200.310000,288.270000C200.310000,288.270000,206.430000,292.880000,219.500000,290.560000C219.500000,290.560000,222.110000,290.040000,221.860000,288.560000C221.860000,288.560000,218.780000,277.210000,219.430000,273.750000C220.080000,270.290000,226.810000,269.620000,222.750000,253.840000Z" fill="rgb(42,133,245)" stroke="none" stroke-width="1"/><path id="errnng82mf5g48" d="M194.540000,267.790000L199.540000,283.560000C199.540000,283.560000,200.180000,285.830000,203.540000,286.100000C206.900000,286.370000,221.130000,283.100000,226.540000,280.850000L226.810000,280.750000C227.810000,280.440000,233.560000,278.520000,235.080000,276.450000C235.080000,276.450000,237.740000,273.510000,237.010000,271.400000C236.844222,270.952273,236.471332,270.612943,236.010000,270.490000C235.560067,270.367411,235.078622,270.471910,234.720000,270.770000C233.390000,271.890000,230.920000,273.770000,229.720000,273.850000L230.310000,270.500000C229.698381,270.990771,229.191674,271.599499,228.820000,272.290000C228.448326,272.980501,227.290000,274.680000,226.090000,277.030000C225.839384,277.521420,225.365904,277.860685,224.820000,277.940000C222.350000,278.300000,215.330000,279.260000,212.380000,278.940000C212.380000,278.940000,206.380000,278.890000,205.770000,278.860000L203.150000,265.250000Z" fill="rgb(243,164,163)" stroke="none" stroke-width="1"/><path id="errnng82mf5g49" d="M192.130000,261.620000C192.130000,261.620000,193.330000,273.620000,195.540000,275.620000C195.540000,275.620000,201.050000,279.730000,208.270000,273.110000L204.660000,263.290000Z" fill="rgb(42,133,245)" stroke="none" stroke-width="1"/><path id="errnng82mf5g50" d="M216.190000,251C215.110000,255.860000,209.910000,255.640000,209.910000,255.640000C209.285837,255.652965,208.661447,255.629592,208.040000,255.570000C204.677623,255.351783,201.566070,253.716036,199.480000,251.070000L199.650000,251.070000C202.820844,250.458760,205.048749,247.593699,204.860000,244.370000L204.560000,239.200000L211.560000,242.680000L212.400000,248.780000C212.730000,250.380000,216.190000,251,216.190000,251Z" fill="rgb(243,164,163)" stroke="none" stroke-width="1"/><path id="errnng82mf5g51" d="M211.470000,244.780000C211.470000,244.780000,209.800000,247.270000,207.260000,246.180000C205.160000,245.280000,205.360000,253.800000,208.260000,255.500000L208.030000,255.570000C204.667623,255.351783,201.556070,253.716036,199.470000,251.070000L199.640000,251.070000C202.810844,250.458760,205.038749,247.593699,204.850000,244.370000L204.550000,239.200000Z" fill="rgb(214,148,148)" stroke="none" stroke-width="1"/><path id="errnng82mf5g52" d="M216.580000,233.220000C216.580000,233.220000,216.790000,242.980000,211.400000,244.970000C208.741975,245.875128,205.837589,244.562906,204.760000,241.970000L204.440000,239.170000C203.938298,239.176127,203.461394,238.952258,203.145588,238.562374C202.829782,238.172490,202.709825,237.659494,202.820000,237.170000C202.796733,236.769909,202.944821,236.378821,203.227250,236.094483C203.509679,235.810146,203.899762,235.659428,204.300000,235.680000L204.410000,234.020000C204.410000,234.020000,206.550000,232.110000,206.880000,230.090000C206.880000,230.110000,212.150000,234,216.580000,233.220000Z" fill="rgb(243,164,163)" stroke="none" stroke-width="1"/><g id="errnng82mf5g53"><path id="errnng82mf5g54" d="M158.380000,360C156.810000,356.720000,155.210000,353.280000,155.300000,349.640000C155.380000,346.270000,155.250000,342.530000,156.130000,339.270000C156.968532,336.006575,157.195693,332.616118,156.800000,329.270000C155.660000,318.760000,151.220000,319.410000,149.570000,320.020000C147.920000,320.630000,147.030000,322.220000,146.650000,324.920000C146.350000,327.100000,146.780000,337.460000,143.650000,335.600000C139.990000,333.440000,141.260000,322.800000,141.030000,319.180000C140.690000,313.770000,139.110000,307.870000,135.440000,303.750000C133.630000,301.750000,130.830000,300.070000,128.270000,301.010000C126.761927,301.673346,125.573707,302.901054,124.960000,304.430000C122.900000,308.880000,123.960000,313.850000,125.350000,318.330000C125.920000,320.200000,131.210000,329.140000,126.210000,327.800000C125.010000,327.480000,115.710000,318.470000,113.850000,326.590000C113.190000,329.460000,116.120000,332.770000,120.850000,337.030000C123.850000,339.700000,135.070000,347.030000,134.130000,350.160000C133.190000,353.290000,127.130000,347.480000,127.300000,353.540000C127.380000,356.930000,131.520000,359.800000,134.370000,361.380000C135.720000,362.130000,137.220000,362.600000,138.520000,363.440000C140.070000,364.440000,141.860000,366.630000,140.410000,368.440000C139.770000,369.230000,138.680000,369.540000,138.070000,370.350000C137.496025,371.227192,137.449937,372.348670,137.950000,373.270000C138.430130,374.169807,139.115262,374.944006,139.950000,375.530000C145.170000,379.530000,152.100000,380.830000,158.650000,380.240000C165.200000,379.650000,171.470000,377.310000,177.500000,374.680000" fill="rgb(255,188,71)" stroke="none" stroke-width="1"/><path id="errnng82mf5g55" d="M130.810000,306.890000C130.810000,306.890000,133.880000,342.550000,152.810000,366.570000" fill="none" stroke="rgb(46,64,80)" stroke-width="1" stroke-miterlimit="10"/><path id="errnng82mf5g56" d="M140.780000,371.570000C145.548380,372.741277,150.566452,372.355810,155.100000,370.470000" fill="none" stroke="rgb(46,64,80)" stroke-width="1" stroke-miterlimit="10"/><path id="errnng82mf5g57" d="M131.530000,355.110000C131.530000,355.110000,135.770000,359.620000,149.990000,362.770000" fill="none" stroke="rgb(46,64,80)" stroke-width="1" stroke-miterlimit="10"/><path id="errnng82mf5g58" d="M118.710000,328.910000C118.710000,328.910000,129.580000,339.410000,139.190000,341.760000" fill="none" stroke="rgb(46,64,80)" stroke-width="1" stroke-miterlimit="10"/><path id="errnng82mf5g59" d="M150.910000,324.540000C150.910000,330.100000,149.820000,345.490000,143.840000,352.340000" fill="none" stroke="rgb(46,64,80)" stroke-width="1" stroke-miterlimit="10"/></g><path id="errnng82mf5g60" d="M201.240000,367C200.060000,360.340000,181.470000,318.830000,159.950000,329.950000C147.170000,336.550000,149.460000,360.860000,169.430000,379.230000C165.510000,375.440000,160.990000,371.140000,155.640000,370.080000C152.750000,369.500000,149.220000,370.830000,147.050000,372.830000C145.130000,374.610000,144.560000,377.420000,144.470000,380.040000C144.248591,389.755745,149.013968,398.909192,157.100000,404.300000C152.690000,401.830000,148.860000,398.740000,143.820000,398.300000C142.180000,398.170000,139.410000,399.100000,138.650000,400.560000C137.890000,402.020000,137.880000,408.100000,147.600000,412.560000C107.970000,405.050000,105.660000,421.940000,119.910000,421.940000L236.740000,421.940000" fill="rgb(91,110,128)" stroke="none" stroke-width="1"/><path id="errnng82mf5g61" d="M223,389.650000C222.310000,385.740000,215.120000,361.190000,202.500000,367.710000C195,371.580000,196.350000,385.840000,208.060000,396.620000C205.760000,394.390000,203.060000,391.870000,199.970000,391.250000C198.147629,391.024859,196.318601,391.613806,194.970000,392.860000C193.929622,394.016347,193.387064,395.536229,193.460000,397.090000C193.327354,402.789954,196.123974,408.160521,200.870000,411.320000C198.280000,409.870000,196.030000,408.060000,193.080000,407.800000C191.925548,407.741846,190.812098,408.235476,190.080000,409.130000C189.600000,410.060000,189.630000,413.550000,195.340000,416.130000C172.090000,411.730000,170.740000,421.630000,179.090000,421.630000L234.300000,421.630000" fill="rgb(42,133,245)" stroke="none" stroke-width="1"/><path id="errnng82mf5g62" d="M459.489997,133.372189L459.489997,407.227802C459.490064,408.768106,459.336091,410.304555,459.030375,411.814212C458.880402,412.545920,458.693652,413.269605,458.470836,413.982514C458.350935,414.342233,458.221042,414.701951,458.101141,415.051677C456.954476,418.154501,455.151530,420.973211,452.815494,423.315208C452.042378,424.083234,451.217811,424.797665,450.347527,425.453534C449.768004,425.883198,449.158506,426.292877,448.539016,426.682572L448.539016,426.682572Q447.609782,427.252126,446.620597,427.731751L446.620597,427.731751C445.619773,428.214356,444.584432,428.621829,443.523148,428.950796L443.523148,428.950796C442.813732,429.170624,442.084333,429.360476,441.354934,429.510358C439.838438,429.815051,438.295527,429.969013,436.748727,429.969999L324.401261,429.969999C322.775296,429.970573,321.153979,429.796374,319.565244,429.450405L318.795878,429.270546L317.936586,429.040726C316.771635,428.694101,315.635735,428.256428,314.539384,427.731751C313.989836,427.461962,313.460273,427.182181,312.950692,426.882416C312.710890,426.742525,312.471087,426.602635,312.241277,426.452752C311.741688,426.142995,311.242100,425.803260,310.792470,425.453534C309.336058,424.361521,308.014543,423.100329,306.855712,421.696475C306.396091,421.136914,305.946461,420.547375,305.546790,419.947844C304.929716,419.032370,304.378769,418.074016,303.898148,417.080089C303.247262,415.747181,302.734993,414.350942,302.369407,412.913351L302.369407,412.913351C301.890719,411.059506,301.648989,409.152449,301.650000,407.237794L301.650000,133.372189C301.661025,120.807170,311.846743,110.625509,324.411253,110.620000L436.738736,110.620000C449.301626,110.625514,459.484483,120.808786,459.489997,133.372189Z" transform="matrix(1 0 0 1 -4.54999683999995 1.44999999999999)" fill="rgb(46,64,80)" stroke="none" stroke-width="1"/><path id="errnng82mf5g63" d="M454.610000,133.390000L454.610000,407.460000C454.610602,408.669015,454.489999,409.875045,454.250000,411.060000C454.141686,411.614296,454.001452,412.161874,453.830000,412.700000L453.500000,413.700000C452.918642,415.280851,452.106509,416.766953,451.090000,418.110000C450.571039,418.778313,450.006350,419.409828,449.400000,420C448.794653,420.609832,448.142677,421.171534,447.450000,421.680000C447.110000,421.930000,446.700000,422.220000,446.230000,422.520000L446.040000,422.640000C445.650000,422.880000,445.250000,423.110000,444.830000,423.320000L444.540000,423.450000C443.842514,423.793035,443.120531,424.083834,442.380000,424.320000L442.130000,424.400000C441.540000,424.580000,440.990000,424.720000,440.450000,424.840000C439.260581,425.071515,438.051741,425.188716,436.840000,425.190000L324.420000,425.190000C323.152605,425.192642,321.888623,425.058532,320.650000,424.790000C320.230000,424.700000,319.810000,424.600000,319.410000,424.480000C318.481080,424.220593,317.574767,423.886160,316.700000,423.480000C316.280000,423.270000,315.860000,423.050000,315.500000,422.830000L314.990000,422.530000L314.880000,422.460000C314.570000,422.270000,314.220000,422.030000,313.790000,421.710000C312.651287,420.831881,311.617776,419.825215,310.710000,418.710000C310.330000,418.250000,310,417.810000,309.710000,417.370000C309.230566,416.654748,308.802812,415.906179,308.430000,415.130000C307.960546,414.167452,307.582229,413.163070,307.300000,412.130000L307.230000,411.860000C306.859364,410.409057,306.671244,408.917533,306.670000,407.420000L306.670000,133.390000C306.681022,123.580469,314.630469,115.631022,324.440000,115.620000L436.850000,115.620000C446.655625,115.636529,454.598990,123.584367,454.610000,133.390000Z" transform="matrix(1 0 0 1 -4.55499952999992 0.00999999999999)" fill="rgb(237,239,241)" stroke="none" stroke-width="1"/><g id="errnng82mf5g64" transform="matrix(1 0 0 1 -8.71923708000008 0.08829153000005)" clip-path="url(#errnng82mf5g2)"><path id="errnng82mf5g65" d="M420.170000,241.630000L380.480000,266.860000L340.780000,241.630000C339.876302,242.456885,339.361131,243.625089,339.360000,244.850000L339.360000,294.440000C339.363362,295.669403,339.882085,296.841064,340.790000,297.670000L380.480000,272.460000L421.260000,298.830000L421.600000,298.830000L421.600000,244.830000C421.589499,243.610793,421.071279,242.451140,420.170000,241.630000Z" fill="rgb(254,199,82)" stroke="none" stroke-width="1"/><path id="errnng82mf5g66" d="M343.750000,298.830000L421.260000,298.830000L393.580000,269.640000L367.380000,269.640000L340.790000,297.640000C341.594117,298.391328,342.649595,298.815658,343.750000,298.830000Z" fill="rgb(234,162,33)" stroke="none" stroke-width="1"/><path id="errnng82mf5g67" d="M343.750000,240.460000C342.637529,240.453922,341.564620,240.872356,340.750000,241.630000L377.420000,280.110000C378.202902,280.947890,379.298267,281.423523,380.445000,281.423523C381.591733,281.423523,382.687098,280.947890,383.470000,280.110000L420.140000,241.630000C419.325928,240.871484,418.252659,240.452909,417.140000,240.460000Z" fill="rgb(247,197,116)" stroke="none" stroke-width="1"/><g id="errnng82mf5g68" transform="matrix(1.25000000000000 0 0 1.25000000000000 -103.71665191624999 -60.10871887125001)"><circle id="errnng82mf5g69" r="15.110000" transform="matrix(0.92521000000000 -0.37945600000000 0.37945600000000 0.92521000000000 414.86661036000004 240.43488043999997)" fill="rgb(46,64,80)" stroke="none" stroke-width="1"/><path id="errnng82mf5g70" d="M411.450000,234.410000C411.438735,233.948641,411.660508,233.512613,412.040000,233.250000L414.980000,230.430000C415.179634,230.219992,415.460543,230.106898,415.750000,230.120000C416.075001,230.118529,416.393844,230.208637,416.670000,230.380000C416.926839,230.533031,417.082982,230.811042,417.080000,231.110000L417.080000,249.820000C417.076003,250.127931,416.897736,250.406958,416.620000,250.540000C416.316160,250.716254,415.971260,250.809377,415.620000,250.810000C415.248442,250.820249,414.881379,250.726752,414.560000,250.540000C414.291629,250.399666,414.122456,250.122838,414.120000,249.820000L414.120000,234.100000L413.120000,235.350000C412.961322,235.525572,412.736634,235.627045,412.500000,235.630000C412.213152,235.625327,411.945718,235.484181,411.780000,235.250000C411.576894,235.016148,411.460379,234.719566,411.450000,234.410000Z" fill="rgb(255,255,255)" stroke="none" stroke-width="1"/></g></g><path id="errnng82mf5g71" style="mix-blend-mode:multiply" d="M459.130000,331.480000C459.250000,330.480000,459.410000,329.250000,459.620000,327.880000L459.620000,349.480000C458.795222,347.241130,458.097446,344.957499,457.530000,342.640000C457.180000,340.390000,458.120000,335.620000,459.130000,331.480000Z" opacity="0.2" fill="rgb(2,2,2)" stroke="none" stroke-width="1"/><path id="errnng82mf5g72" d="M459.620000,202.790000L459.620000,202.790000L459.620000,170.430000L459.620000,170.430000C462.143941,170.430000,464.190000,172.476059,464.190000,175L464.190000,198.220000C464.184500,200.741660,462.141660,202.784500,459.620000,202.790000Z" transform="matrix(1 0 0 1 -4.67999999999972 0)" fill="rgb(46,64,80)" stroke="none" stroke-width="1"/><path id="errnng82mf5g73" d="M299.370000,170.430000L301.580000,170.430000C302.205911,170.430000,302.806186,170.678642,303.248772,171.121228C303.691358,171.563814,303.940000,172.164089,303.940000,172.790000L303.940000,184.250000C303.940000,184.875911,303.691358,185.476186,303.248772,185.918772C302.806186,186.361358,302.205911,186.610000,301.580000,186.610000L299.370000,186.610000L299.370000,170.430000Z" transform="matrix(-1 0 -0 -1 596.46999999999980 357.04000000000002)" fill="rgb(46,64,80)" stroke="none" stroke-width="1"/><path id="errnng82mf5g74" d="M299.370000,189.950000L301.580000,189.950000C302.205911,189.950000,302.806186,190.198642,303.248772,190.641228C303.691358,191.083814,303.940000,191.684089,303.940000,192.310000L303.940000,203.770000C303.940000,204.395911,303.691358,204.996186,303.248772,205.438772C302.806186,205.881358,302.205911,206.130000,301.580000,206.130000L299.370000,206.130000L299.370000,189.950000Z" transform="matrix(-1 0 -0 -1 596.46999999999980 396.06999999999999)" fill="rgb(46,64,80)" stroke="none" stroke-width="1"/><polygon id="errnng82mf5g75" style="mix-blend-mode:screen" points="418.940000,115.630000 306.660000,287.540000 306.660000,203.010000 363.730000,115.630000 418.940000,115.630000" opacity="0.3" fill="rgb(255,255,255)" stroke="none" stroke-width="1"/><path id="errnng82mf5g76" style="mix-blend-mode:screen" d="M453.350000,126.830000L306.660000,351.430000L306.660000,312.270000L435.090000,115.620000L436.850000,115.620000C444.124673,115.631613,450.659317,120.071211,453.350000,126.830000Z" opacity="0.3" fill="rgb(255,255,255)" stroke="none" stroke-width="1"/><polygon id="errnng82mf5g77" style="mix-blend-mode:screen" points="454.610000,226.790000 325.030000,425.220000 350.610000,425.220000 454.610000,265.960000 454.610000,226.790000" opacity="0.3" fill="rgb(255,255,255)" stroke="none" stroke-width="1"/><path id="errnng82mf5g78" d="M397.380000,122.480000L364,122.480000C361.298363,122.480001,358.707523,121.406096,356.798115,119.494812C354.888707,117.583529,353.817346,114.991636,353.820000,112.290000L407.610000,112.290000C407.610021,114.999501,406.530946,117.597447,404.611290,119.509597C402.691634,121.421747,400.089480,122.490636,397.380000,122.480000Z" fill="rgb(46,64,80)" stroke="none" stroke-width="1"/><g id="errnng82mf5g79"><g id="errnng82mf5g80"><path id="errnng82mf5g81" d="M462.130000,132.110000C466.202935,132.110000,469.874822,134.563477,471.433467,138.326378C472.992112,142.089279,472.130565,146.420565,469.250565,149.300565C466.370565,152.180565,462.039279,153.042112,458.276378,151.483467C454.513477,149.924822,452.060000,146.252935,452.060000,142.180000C452.060000,136.618493,456.568493,132.110000,462.130000,132.110000Z" fill="rgb(254,199,82)" stroke="none" stroke-width="1"/><path id="errnng82mf5g82" d="M490.410000,118.460000L490.410000,102.100000C490.409870,89.146808,481.609413,77.849593,469.050000,74.680000C471.005563,71.318465,470.260406,67.037561,467.284021,64.534508C464.307637,62.031455,459.962363,62.031455,456.985979,64.534508C454.009594,67.037561,453.264437,71.318465,455.220000,74.680000C442.660587,77.849593,433.860130,89.146808,433.860000,102.100000L433.860000,118.460000C433.860000,120.160038,433.184663,121.790446,431.982554,122.992554C430.780446,124.194663,429.150038,124.870000,427.450000,124.870000L496.820000,124.870000C493.279855,124.870000,490.410000,122.000145,490.410000,118.460000ZM462.130000,73.820000C460.830768,73.819994,459.659657,73.036816,459.163402,71.836093C458.667147,70.635370,458.943618,69.253911,459.863747,68.336649C460.783875,67.419387,462.166190,67.147227,463.365359,67.647226C464.564527,68.147226,465.344047,69.320774,465.340000,70.620000C465.334489,72.388928,463.898936,73.820009,462.130000,73.820000Z" fill="rgb(254,199,82)" stroke="none" stroke-width="1"/><path id="errnng82mf5g83" d="M495.130000,124.620000L429.130000,124.620000C426.214713,124.620000,423.520876,126.175287,422.063233,128.700000C420.605589,131.224713,420.605589,134.335287,422.063233,136.860000C423.520876,139.384713,426.214713,140.940000,429.130000,140.940000L495.130000,140.940000C498.045287,140.940000,500.739124,139.384713,502.196767,136.860000C503.654411,134.335287,503.654411,131.224713,502.196767,128.700000C500.739124,126.175287,498.045287,124.620000,495.130000,124.620000Z" fill="rgb(234,162,33)" stroke="none" stroke-width="1"/></g><g id="errnng82mf5g84"><g id="errnng82mf5g85"><path id="errnng82mf5g86" d="M494,96.250000C494.080000,96.880000,494,96.250000,494,96.050000C493.920000,95.590000,493.830000,95.120000,493.730000,94.660000C493.378492,93.103830,492.920753,91.573579,492.360000,90.080000C490.830619,85.789484,488.174328,81.989849,484.670000,79.080000C482.120805,77.099415,479.134054,75.758635,475.960000,75.170000C474.270000,74.830000,474.960000,72.240000,476.670000,72.580000C487.100000,74.660000,493.780000,83.580000,496.190000,93.450000C496.419976,94.389847,496.600227,95.341168,496.730000,96.300000C496.940000,98.010000,494.250000,98,494.040000,96.300000Z" fill="rgb(46,64,80)" stroke="none" stroke-width="1"/><path id="errnng82mf5g87" d="M430.920000,96.250000C430.840000,96.880000,430.920000,96.250000,430.920000,96.050000C431,95.590000,431.090000,95.120000,431.190000,94.660000C431.541508,93.103830,431.999247,91.573579,432.560000,90.080000C434.089381,85.789484,436.745672,81.989849,440.250000,79.080000C442.805879,77.075727,445.807381,75.717334,449,75.120000C450.690000,74.780000,450,72.190000,448.280000,72.530000C437.860000,74.610000,431.170000,83.530000,428.770000,93.400000C428.535233,94.338801,428.354932,95.290388,428.230000,96.250000C428.020000,97.960000,430.710000,97.950000,430.920000,96.250000Z" fill="rgb(46,64,80)" stroke="none" stroke-width="1"/></g><g id="errnng82mf5g88"><path id="errnng82mf5g89" d="M421.640000,80C422.380000,74.720000,425.890000,69.830000,431.290000,68.790000C432.980000,68.460000,432.290000,65.870000,430.570000,66.200000C424.360000,67.400000,419.900000,73.200000,419.050000,79.280000C418.810000,80.970000,421.400000,81.700000,421.640000,80Z" fill="rgb(46,64,80)" stroke="none" stroke-width="1"/><path id="errnng82mf5g90" d="M503.270000,80C502.530000,74.720000,499.010000,69.830000,493.620000,68.790000C491.920000,68.460000,492.620000,65.870000,494.330000,66.200000C500.550000,67.400000,505,73.200000,505.860000,79.280000C506.090000,80.970000,503.500000,81.700000,503.270000,80Z" fill="rgb(46,64,80)" stroke="none" stroke-width="1"/></g><g id="errnng82mf5g91"><path id="errnng82mf5g92" d="M426.340000,88C426.250000,88.690000,426.340000,87.860000,426.410000,87.670000Q426.540000,86.920000,426.740000,86.170000C427.159412,84.513987,427.756196,82.908035,428.520000,81.380000C430.603273,76.930825,434.653692,73.717147,439.460000,72.700000C441.160000,72.350000,440.460000,69.770000,438.750000,70.110000C430.290000,71.820000,424.700000,79.720000,423.660000,88C423.440000,89.710000,426.130000,89.690000,426.340000,88Z" fill="rgb(46,64,80)" stroke="none" stroke-width="1"/><path id="errnng82mf5g93" d="M498.560000,88C498.650000,88.690000,498.560000,87.860000,498.500000,87.670000C498.410000,87.170000,498.290000,86.670000,498.170000,86.170000C497.751655,84.512254,497.151343,82.905832,496.380000,81.380000C494.301782,76.926832,490.249048,73.711317,485.440000,72.700000C483.750000,72.350000,484.440000,69.770000,486.160000,70.110000C494.620000,71.820000,500.160000,79.720000,501.250000,88C501.460000,89.710000,498.780000,89.690000,498.560000,88Z" fill="rgb(46,64,80)" stroke="none" stroke-width="1"/></g></g></g><path id="errnng82mf5g94" d="M485.300000,424.550000C485.508268,426.686483,485.481440,428.839370,485.220000,430.970000C487.380000,429.970000,507.010000,420.350000,514.410000,400.690000C514.410000,400.690000,505.410000,416.460000,492.410000,423.870000C492.410000,423.870000,488.180000,411.500000,496.550000,405.680000C504.920000,399.860000,516.150000,396.460000,519,387C519,387,527.480000,426.620000,494.910000,427C494.910000,427,489.330000,431.330000,484.980000,432.810000L484.980000,432C484.910000,432.260000,484.840000,432.520000,484.760000,432.760000L483.370000,431.980000C483.370000,431.980000,487.010000,415.600000,478.420000,402.390000C478.420000,402.390000,483.660000,414.130000,482.420000,424.630000C482.420000,424.630000,474.420000,421.810000,473.790000,414.630000C473.230000,407.920000,476.790000,399.580000,472.550000,393.950000C472.630000,394,498.750000,405.810000,485.300000,424.550000Z" fill="rgb(42,133,245)" stroke="none" stroke-width="1"/><path id="errnng82mf5g95" d="M496.300000,412C493.100000,416.650000,485.840000,416.130000,480.870000,418.290000C475.550000,420.600000,475.480000,427.450000,475.480000,427.450000C483.790000,425.660000,491.370000,418.630000,491.370000,418.630000C485.040000,426.630000,475.070000,429.180000,471.470000,429.840000C473.630000,425.060000,474.470000,417.920000,474.470000,417.920000C499.730000,391.740000,461.670000,367.290000,461.670000,367.290000C466.950000,377.030000,460.840000,388.630000,458.900000,399.850000C456.960000,411.070000,470.080000,417.430000,470.080000,417.430000C474.360000,401.330000,468.860000,381.820000,468.860000,381.820000C478.400000,402.530000,471.260000,425.050000,470.030000,428.610000C468.547221,426.769066,466.870934,425.092779,465.030000,423.610000C460.700000,398.200000,430.760000,409.610000,430.760000,409.610000C438.540000,410.690000,442.400000,420.040000,448.180000,424.870000C454.370000,430.040000,462.920000,425.870000,462.920000,425.870000C455.520000,416.660000,442.080000,411.610000,442.080000,411.610000C459.320000,415.160000,469.480000,430.910000,469.480000,430.910000L469.720000,430.840000L469.600000,431.090000C471.888020,430.874816,474.135669,430.346551,476.280000,429.520000C494,435,496.300000,412,496.300000,412Z" fill="rgb(255,188,71)" stroke="none" stroke-width="1"/><g id="errnng82mf5g96" transform="matrix(1 0 0 1 -13.38657448000004 -24.69500854999995)"><path id="errnng82mf5g97" d="M575.270000,424.480000L587.690000,440.790000C588.779687,442.213835,589.111438,444.077605,588.580000,445.790000C588.211686,446.942956,587.686783,448.039870,587.020000,449.050000L587.810000,452.050000L590.330000,450.130000C590.330000,450.130000,601.270000,443.790000,594.580000,438.910000C592.580000,437.480000,591.490000,436.610000,590.860000,436.050000L581.560000,423.800000Z" fill="rgb(243,164,163)" stroke="none" stroke-width="1"/><path id="errnng82mf5g98" d="M589.660000,432L583.250000,437.670000L544.250000,390.110000C543.360269,389.021053,543.099075,387.548524,543.560000,386.220000L562.460000,331.660000L583.570000,342L568.180000,367L556.870000,385.380000L572.800000,408Z" fill="rgb(46,64,80)" stroke="none" stroke-width="1"/><path id="errnng82mf5g99" d="M594.580000,438.870000L588.580000,449.660000L586.990000,449.060000L585.360000,452.400000C584.981554,452.518450,584.579870,452.542482,584.190000,452.470000C582.956059,452.150762,581.648970,452.278283,580.500000,452.830000C580.045366,453.085541,579.819614,453.615032,579.950000,454.120000C580.082451,454.623588,580.539296,454.973424,581.060000,454.970000L587.510000,454.970000L593.640000,450.310000L601.740000,444.160000C599.914123,441.742372,597.427345,439.905074,594.580000,438.870000Z" fill="rgb(8,16,31)" stroke="none" stroke-width="1"/><polygon id="errnng82mf5g100" points="572.800000,408.030000 555.420000,387.110000 549.980000,387.690000 555.220000,385.170000 557.170000,373.910000 562.790000,337.220000 568.180000,367.010000 556.870000,385.390000 572.800000,408.030000" fill="rgb(46,64,80)" stroke="none" stroke-width="1"/><path id="errnng82mf5g101" d="M594.100000,286.390000C593.354964,288.277044,591.869740,289.776723,589.990000,290.540000L565.540000,300.450000L555,304.710000L552.770000,305.610000C550.690460,306.459901,548.304700,305.992182,546.700000,304.420000C542.870000,300.660000,546.440000,296.820000,548.760000,293.560000C551.760000,289.330000,554.860000,285.180000,557.930000,281.010000L562.490000,285.010000L559.260000,291.580000L577.510000,275.270000C579.300000,274.030000,586.210000,274.270000,588.320000,274.800000C590.422715,275.363436,592.168775,276.827637,593.090000,278.800000L593.890000,280.510000C594.769681,282.356732,594.845699,284.485218,594.100000,286.390000Z" fill="rgb(8,16,31)" stroke="none" stroke-width="1"/><path id="errnng82mf5g102" style="mix-blend-mode:multiply" d="M568.810000,284.810000L565.540000,300.450000L555,304.710000L561.200000,299.180000C562.490715,293.827336,565.107751,288.885575,568.810000,284.810000Z" fill="rgb(223,242,248)" stroke="none" stroke-width="1"/><path id="errnng82mf5g103" d="M576.350000,265.420000L573.420000,265.300000L566.100000,265.250000C565.782065,266.872797,565.667850,268.528922,565.760000,270.180000C565.852150,271.831078,560.300000,277.830000,558,281L562.560000,285L568.910000,271.900000C571.750000,271.770000,575.460000,269.570000,575.540000,268.590000C575.620000,267.610000,577.440000,265.890000,577.440000,265.890000C577.300000,264.890000,576.350000,265.420000,576.350000,265.420000Z" fill="rgb(243,164,163)" stroke="none" stroke-width="1"/><path id="errnng82mf5g104" d="M565.760000,263.420000L567.250000,261.790000C567.190164,261.573604,567.024424,261.402468,566.810056,261.335730C566.595687,261.268993,566.362095,261.315809,566.190000,261.460000C565.603889,261.931110,565.424938,262.746796,565.760000,263.420000Z" fill="rgb(245,211,175)" stroke="none" stroke-width="1"/><path id="errnng82mf5g105" d="M567.510000,261.540000L569.700000,259.160000L568.130000,259.920000C568.130000,259.920000,566.880000,260.520000,567.510000,261.540000Z" fill="rgb(245,211,175)" stroke="none" stroke-width="1"/><path id="errnng82mf5g106" d="M571.620000,257L570.310000,258.430000C570.310000,258.430000,570.180000,257.520000,570.670000,257.180000C570.939266,256.970656,571.292816,256.903668,571.620000,257Z" fill="rgb(245,211,175)" stroke="none" stroke-width="1"/><path id="errnng82mf5g107" d="M572.400000,269.700000C571.943674,270.192798,571.174862,270.224087,570.680000,269.770000L565.760000,265.250000C565.264271,264.796504,565.228506,264.027553,565.680000,263.530000L574.730000,253.680000C575.188763,253.192512,575.953140,253.161404,576.450000,253.610000L581.380000,258.130000C581.867488,258.588763,581.898596,259.353140,581.450000,259.850000Z" fill="rgb(8,16,31)" stroke="none" stroke-width="1"/><rect id="errnng82mf5g108" width="11.550000" height="7.090000" rx="0" ry="0" transform="matrix(0.67687600000000 -0.73609700000000 0.73609700000000 0.67687600000000 567.32556077000004 263.23785380999999)" fill="rgb(255,255,255)" stroke="none" stroke-width="1"/><path id="errnng82mf5g109" d="M579.300000,257.370000C579.230258,257.437309,579.119742,257.437309,579.050000,257.370000L577.400000,255.850000C577.333888,255.783659,577.333888,255.676341,577.400000,255.610000C577.469742,255.542691,577.580258,255.542691,577.650000,255.610000L579.300000,257.120000C579.367309,257.189742,579.367309,257.300258,579.300000,257.370000Z" fill="rgb(255,255,255)" stroke="none" stroke-width="1"/><path id="errnng82mf5g110" d="M565.310000,423.270000L565.310000,443.770000C565.316148,445.561547,564.455557,447.245474,563,448.290000C562.006185,448.985593,560.923087,449.543960,559.780000,449.950000L558.610000,452.780000L561.790000,452.780000C561.790000,452.780000,574.330000,454.350000,571.960000,446.410000C571.260000,444.090000,570.890000,442.710000,570.730000,441.890000L570.730000,426.500000Z" fill="rgb(243,164,163)" stroke="none" stroke-width="1"/><path id="errnng82mf5g111" d="M572,446.410000C573.649059,448.960620,574.527496,451.932724,574.530000,454.970000L550.530000,454.970000C550.008703,454.971211,549.552996,454.618661,549.423234,454.113772C549.293473,453.608882,549.522720,453.080292,549.980000,452.830000C551.128496,452.276589,552.436197,452.149008,553.670000,452.470000C554.200074,452.568914,554.747954,452.491649,555.230000,452.250000L559.780000,449.950000L560.680000,451.390000Z" fill="rgb(8,16,31)" stroke="none" stroke-width="1"/><path id="errnng82mf5g112" d="M577,254.530000C575.940000,256.120000,574.650000,257.130000,574.110000,256.770000C573.570000,256.410000,574,254.830000,575.060000,253.230000C576.120000,251.630000,577.410000,250.630000,577.950000,250.990000C578.490000,251.350000,578,252.930000,577,254.530000Z" fill="rgb(255,255,255)" stroke="none" stroke-width="1"/><path id="errnng82mf5g113" d="M586.360000,333.230000C586.360000,333.230000,587.360000,343.660000,583.040000,348.660000C582.358255,349.440313,581.920195,350.403350,581.780000,351.430000C580.050000,364.160000,577.360000,372.060000,572.650000,387.860000C574.510000,394.300000,572.890000,421.630000,572.890000,439.620000L563.770000,439.620000L559.770000,393.360000C559.640160,391.826906,559.610097,390.286994,559.680000,388.750000L562.450000,331.640000L578,326.460000Z" fill="rgb(46,64,80)" stroke="none" stroke-width="1"/><path id="errnng82mf5g114" d="M591,274L577.790000,275.630000C577.875831,275.060155,577.929250,274.485899,577.950000,273.910000C578.030000,272.420000,578.070000,269.800000,577.870000,265.540000C577.870000,264.740000,577.740000,262.960000,577.740000,262.960000L581.170000,260.960000L587.170000,256.110000L592.370000,258.010000L589.180000,267.520000C589.180000,267.520000,588.330000,270.480000,591,274Z" fill="rgb(243,164,163)" stroke="none" stroke-width="1"/><path id="errnng82mf5g115" d="M571.150000,265.270000L571.960000,263.090000C572.659401,261.951655,573.277603,260.765375,573.810000,259.540000L573.700000,258.740000L574.420000,257.250000C573.620000,256.880000,572.630000,256.030000,574.070000,255.250000C574.974324,254.641294,575.749216,253.859606,576.350000,252.950000C576.500347,252.529854,576.617376,252.098521,576.700000,251.660000C577.006579,250.561413,577.689774,249.605648,578.630000,248.960000L578.810000,248.840000C579.259670,248.552500,579.747873,248.330284,580.260000,248.180000L580.330000,248.180000C580.596214,248.093217,580.871226,248.036202,581.150000,248.010000L584.570000,250.210000L591.790000,255.010000L590.790000,256.950000L589.260000,260.060000L588,262.690000L584.310000,260.590000L584.110000,260.480000L584.030000,260.770000L583.290000,263.640000L582.050000,264.330000L577.530000,266.860000L577.110000,266.710000L576.660000,266.540000L572.820000,266.540000C571.360000,266.590000,571.140000,265.850000,571.120000,265.460000C571.122511,265.395709,571.132581,265.331937,571.150000,265.270000Z" fill="rgb(243,164,163)" stroke="none" stroke-width="1"/><path id="errnng82mf5g116" d="M584,251.860000C584.139529,251.459675,584.099432,251.018602,583.890000,250.650000C583.675902,250.280893,583.310094,250.024827,582.890000,249.950000C580.540000,249.480000,577.330000,248.080000,578.890000,243.950000C578.890000,243.950000,580.760000,239.850000,584.230000,242.500000C584.230000,242.500000,585.540000,244.130000,588.230000,243.140000C590.577467,242.174829,593.280492,242.899731,594.830000,244.910000C595.496769,245.715764,595.851680,246.734359,595.830000,247.780000C595.795176,248.042182,595.795176,248.307818,595.830000,248.570000C595.909571,249.288748,596.435126,249.878494,597.140000,250.040000C598.510000,250.350000,601.030000,252.730000,599.310000,256.600000C598.980430,257.337139,598.484036,257.987586,597.860000,258.500000L597.690000,258.640000C596.939360,259.261648,596.108594,259.779615,595.220000,260.180000C594.429574,260.605116,593.929085,261.422708,593.910000,262.320000C593.589774,264.671608,591.787105,266.547031,589.450000,266.960000L588.620000,265.640000C587.769407,264.257753,588.053884,262.461728,589.290000,261.410000C590.076897,260.816895,590.314540,259.739013,589.850000,258.870000C589.623309,258.394365,589.211115,258.032791,588.710000,257.870000C588.197724,257.666755,587.614799,257.767126,587.200000,258.130000C586.768941,258.500189,586.291612,258.812806,585.780000,259.060000L582.500000,260.660000L583.690000,256.940000C583.988800,256.007069,584.060791,255.016327,583.900000,254.050000C583.749326,253.323151,583.783712,252.570093,584,251.860000Z" fill="rgb(46,64,80)" stroke="none" stroke-width="1"/><polygon id="errnng82mf5g117" points="591.520000,274.910000 590.950000,270.980000 577.280000,272.750000 574.210000,278.180000 591.520000,274.910000" fill="rgb(46,64,80)" stroke="none" stroke-width="1"/><polygon id="errnng82mf5g118" points="577.280000,272.750000 573.870000,275.710000 573.950000,277.040000 575.270000,278.040000 577.280000,272.750000" fill="rgb(255,255,255)" stroke="none" stroke-width="1"/><path id="errnng82mf5g119" d="M597.780000,301.220000C597.290000,302.650000,596.780000,304.120000,596.170000,305.610000C593.730000,311.900000,590.700000,318.610000,589.270000,323.930000C588.548278,325.901435,588.495565,328.055625,589.120000,330.060000C589.369671,330.876499,589.179951,331.764041,588.618284,332.407109C588.056617,333.050177,587.202664,333.357566,586.360000,333.220000C584.516311,332.960929,582.718516,332.442464,581.020000,331.680000C579.603815,331.001649,578.050133,330.659428,576.480000,330.680000C573.177356,330.601514,569.883146,331.047043,566.720000,332C565.480000,332.410000,562.360000,335.190000,561.100000,334.410000C559.420000,333.410000,562.250000,327.990000,562.780000,326.690000C564.620000,322.190000,566.020000,316.780000,567.930000,312.410000C568.780000,310.480000,569.480000,308.780000,569.930000,307.520000C571.056973,303.954717,571.171221,300.146429,570.260000,296.520000C569.941420,295.083247,569.830292,293.608267,569.930000,292.140000C570.340000,287.260000,571.080000,281.950000,574.320000,278.060000C575.250497,276.984729,576.403850,276.124833,577.700000,275.540000C580.083703,274.534587,582.611765,273.913541,585.190000,273.700000C588.840000,273.280000,591.190000,273.210000,593.970000,275.780000C595.920920,277.809426,597.228972,280.369868,597.730000,283.140000C599.780820,288.989315,599.798437,295.359431,597.780000,301.220000Z" fill="rgb(8,16,31)" stroke="none" stroke-width="1"/><path id="errnng82mf5g120" d="M578.830000,255.080000C577.770000,256.680000,576.480000,257.680000,575.940000,257.330000C575.400000,256.980000,575.830000,255.380000,576.890000,253.790000C577.950000,252.200000,579.240000,251.180000,579.780000,251.540000C580.320000,251.900000,579.890000,253.480000,578.830000,255.080000Z" fill="rgb(255,255,255)" stroke="none" stroke-width="1"/><path id="errnng82mf5g121" d="M576.410000,274.860000L575,276.650000C574.445738,277.331804,573.937927,278.050089,573.480000,278.800000C572.940000,279.680000,572.280000,280.680000,571.660000,281.800000C571.040000,282.920000,570.450000,284.180000,569.830000,285.520000C569.210000,286.860000,568.650000,288.320000,568.130000,289.850000C567.870000,290.620000,567.620000,291.400000,567.360000,292.190000L567,293.400000C566.890000,293.810000,566.790000,294.220000,566.680000,294.630000C566.470000,295.460000,566.250000,296.300000,566.040000,297.140000C565.830000,297.980000,565.690000,298.850000,565.510000,299.710000C565.140000,301.420000,564.920000,303.160000,564.700000,304.890000L564.610000,305.540000L564.610000,305.700000L564.610000,305.800000C564.610000,305.800000,564.610000,305.740000,564.610000,305.900000L564.610000,305.900000L564.610000,306.200000C564.610000,306.640000,564.530000,306.980000,564.520000,307.490000C564.520000,308.490000,564.520000,309.320000,564.520000,310.160000C564.600000,313.510000,564.820000,316.400000,564.710000,318.660000C564.682491,319.635210,564.588944,320.607436,564.430000,321.570000C564.314899,322.220072,564.144274,322.859079,563.920000,323.480000L563.680000,324.100000L563.460000,324.510000L563.290000,324.860000L564.530000,330.610000L570.670000,328.730000C570.670000,328.730000,570.770000,328.460000,570.940000,327.960000C571.020000,327.700000,571.130000,327.390000,571.240000,327.030000C571.350000,326.670000,571.430000,326.240000,571.540000,325.760000C571.752820,324.661273,571.883183,323.548169,571.930000,322.430000C571.967183,321.094823,571.917076,319.758643,571.780000,318.430000C571.520000,315.610000,570.880000,312.640000,570.410000,309.660000C570.300000,308.920000,570.200000,308.170000,570.130000,307.510000C570.130000,307.200000,570.130000,306.730000,570.050000,306.330000L570.050000,306.020000L570.050000,306.020000C570.050000,306.170000,570.050000,306.020000,570.050000,306.080000L570.050000,305.250000C570.050000,303.650000,570.050000,302.020000,570.150000,300.400000C570.210000,299.590000,570.220000,298.760000,570.310000,297.960000C570.400000,297.160000,570.510000,296.340000,570.600000,295.540000C570.600000,295.140000,570.700000,294.740000,570.740000,294.340000L570.950000,293.170000C571.090000,292.410000,571.230000,291.640000,571.370000,290.900000C571.370000,290.900000,571.370000,290.900000,571.370000,290.840000C571.670000,289.340000,572.090000,287.940000,572.420000,286.570000C572.750000,285.200000,573.280000,283.980000,573.670000,282.800000C574.060000,281.620000,574.580000,280.680000,574.960000,279.800000C575.347516,278.912354,575.791768,278.050572,576.290000,277.220000C576.674305,276.562730,577.008583,275.877460,577.290000,275.170000Z" fill="rgb(255,188,71)" stroke="none" stroke-width="1"/><path id="errnng82mf5g122" style="mix-blend-mode:multiply" d="M589.580000,312.570000C590.100000,306.100000,586.990000,305.320000,586.730000,302.480000C586.470000,299.640000,582.850000,296.780000,582.850000,296.780000C578.970000,292.380000,579.750000,284.360000,579.750000,284.360000L596.170000,305.610000C593.730000,311.900000,590.700000,318.610000,589.270000,323.930000Z" fill="rgb(223,242,248)" stroke="none" stroke-width="1"/><path id="errnng82mf5g123" d="M609.630000,313.910000L596.630000,280.480000C595.290471,277.029507,591.654816,275.051034,588.030000,275.800000C584.912985,275.638060,581.958977,277.201495,580.340000,279.870000C577.820000,284.300000,581.890000,290.870000,581.890000,290.870000L583.750000,293.270000C585.600000,295.670000,587.130000,293.470000,589.580000,301C590.741572,304.946116,593.091666,308.438085,596.310000,311L597.760000,314.880000C590.480000,322.120000,588,324.670000,585.110000,327.500000L588.190000,332.760000C595.250967,328.488847,602.019310,323.751675,608.450000,318.580000C609.801618,317.435901,610.275911,315.558828,609.630000,313.910000Z" fill="rgb(8,16,31)" stroke="none" stroke-width="1"/><path id="errnng82mf5g124" d="M585.080000,327.520000C582.860000,329.700000,580.390000,332.030000,575.300000,336.780000C574.995904,337.063280,574.595598,337.220543,574.180000,337.220000L572.110000,337.220000L570.110000,337.010000C569.620114,336.938928,569.121768,337.060825,568.720000,337.350000L568.410000,337.580000C568.372921,340.327613,569.099958,343.031498,570.510000,345.390000L573.410000,344.390000C573.791508,344.249755,574.117639,343.990253,574.340000,343.650000L576.490000,340.320000C576.647420,340.087655,576.847655,339.887420,577.080000,339.730000C580.250000,337.650000,584.080000,335.350000,588.080000,332.810000Z" fill="rgb(243,164,163)" stroke="none" stroke-width="1"/><polygon id="errnng82mf5g125" points="583.700000,327.630000 586.130000,335.190000 590.840000,331.930000 586.550000,325.640000 583.700000,327.630000" fill="rgb(46,64,80)" stroke="none" stroke-width="1"/><polygon id="errnng82mf5g126" points="558.520000,278.670000 564.090000,283.450000 562.450000,287.120000 555.310000,282.560000 558.520000,278.670000" fill="rgb(46,64,80)" stroke="none" stroke-width="1"/><path id="errnng82mf5g127" d="M578,272.650000L579.230000,272.500000L580.540000,268.830000C583.540000,266.890000,582.230000,262.100000,582.230000,262.100000L577.880000,265.560000C578,268.800000,578,271.090000,578,272.650000Z" fill="rgb(214,148,148)" stroke="none" stroke-width="1"/><path id="errnng82mf5g128" d="M573.700000,258.740000C573.685137,259.298881,574.095527,259.778389,574.650000,259.850000C576.174704,260.164426,577.512490,261.070668,578.370000,262.370000C578.593075,262.707489,578.965687,262.916152,579.370000,262.930000C579.747515,262.947663,580.113540,262.797593,580.370000,262.520000C580.704763,262.145468,580.965984,261.711231,581.140000,261.240000L583.140000,257.750000L585.140000,254.360000L586.420000,258.430000C585.900000,259.800000,582.180000,259.900000,582.310000,261.860000L582.310000,261.860000C582.375393,262.683230,582.301010,263.511590,582.090000,264.310000C582.036983,264.490197,581.973543,264.667162,581.900000,264.840000C580.811766,266.712595,578.773711,267.826013,576.610000,267.730000C575.677789,267.752495,574.745840,267.675391,573.830000,267.500000C573.652967,267.761533,573.416515,267.977424,573.140000,268.130000C571.430000,269.130000,569.860000,267.530000,569.860000,267.530000C566.350000,263.730000,573.700000,258.740000,573.700000,258.740000Z" fill="rgb(46,64,80)" stroke="none" stroke-width="1"/><path id="errnng82mf5g129" d="M586.180000,259.430000C586.116952,259.427407,586.055353,259.410296,586,259.380000L575.830000,253.830000C575.743653,253.783686,575.679915,253.704176,575.653495,253.609821C575.627076,253.515466,575.640258,253.414419,575.690000,253.330000C575.790520,253.155321,576.009926,253.089499,576.190000,253.180000L586.360000,258.730000C586.515085,258.808367,586.594744,258.984092,586.551471,259.152378C586.508197,259.320664,586.353651,259.436165,586.180000,259.430000Z" fill="rgb(255,255,255)" stroke="none" stroke-width="1"/></g><g id="errnng82mf5g130" transform="matrix(1 0 0 1 -13.38657448000004 -24.69500854999995)"><path id="errnng82mf5g131" d="M528.340000,218.110000L556.160000,218.110000C562.004473,218.101816,567.077075,222.138329,568.381644,227.835348C569.686214,233.532368,566.875638,239.374061,561.610000,241.910000L565.260000,251.060000L553.150000,243.160000L528.340000,243.160000C521.771936,242.704678,516.676545,237.243828,516.676545,230.660000C516.676545,224.076172,521.771936,218.615322,528.340000,218.160000Z" fill="rgb(164,214,251)" stroke="none" stroke-width="1"/><path id="errnng82mf5g132" d="M555.350000,230.790000C555.344482,232.208057,554.191422,233.353666,552.773359,233.349991C551.355296,233.346316,550.208189,232.194746,550.210022,230.776680C550.211854,229.358613,551.361932,228.210011,552.780000,228.210000C553.463343,228.209995,554.118552,228.482134,554.600809,228.966268C555.083066,229.450401,555.352659,230.106663,555.350000,230.790000Z" fill="rgb(91,110,128)" stroke="none" stroke-width="1"/><path id="errnng82mf5g133" d="M545.060000,230.790000C545.054482,232.208057,543.901422,233.353666,542.483359,233.349991C541.065296,233.346316,539.918189,232.194746,539.920022,230.776680C539.921854,229.358613,541.071932,228.210011,542.490000,228.210000C543.173343,228.209995,543.828552,228.482134,544.310809,228.966268C544.793066,229.450401,545.062659,230.106663,545.060000,230.790000Z" fill="rgb(91,110,128)" stroke="none" stroke-width="1"/><path id="errnng82mf5g134" d="M534.780000,230.790000C534.780000,232.214895,533.624895,233.370000,532.200000,233.370000C530.775105,233.370000,529.620000,232.214895,529.620000,230.790000C529.620000,229.365105,530.775105,228.210000,532.200000,228.210000C532.884259,228.210000,533.540492,228.481821,534.024335,228.965665C534.508179,229.449508,534.780000,230.105741,534.780000,230.790000Z" fill="rgb(91,110,128)" stroke="none" stroke-width="1"/></g></g></g><script><![CDATA[!function(t,n){"object"==typeof exports&&"undefined"!=typeof module?module.exports=n():"function"==typeof define&&define.amd?define(n):(t=t||self).__SVGATOR_PLAYER__=n()}(this,(function(){"use strict";function t(n){return(t="function"==typeof Symbol&&"symbol"==typeof Symbol.iterator?function(t){return typeof t}:function(t){return t&&"function"==typeof Symbol&&t.constructor===Symbol&&t!==Symbol.prototype?"symbol":typeof t})(n)}function n(t,n){if(!(t instanceof n))throw new TypeError("Cannot call a class as a function")}function r(t,n){for(var r=0;r<n.length;r++){var e=n[r];e.enumerable=e.enumerable||!1,e.configurable=!0,"value"in e&&(e.writable=!0),Object.defineProperty(t,e.key,e)}}function e(t,n,e){return n&&r(t.prototype,n),e&&r(t,e),t}var i=Math.abs;function u(t){return t}function o(t,n,r){var e=1-r;return 3*r*e*(t*e+n*r)+r*r*r}function a(){var t=arguments.length>0&&void 0!==arguments[0]?arguments[0]:0,n=arguments.length>1&&void 0!==arguments[1]?arguments[1]:0,r=arguments.length>2&&void 0!==arguments[2]?arguments[2]:1,e=arguments.length>3&&void 0!==arguments[3]?arguments[3]:1;return t<0||t>1||r<0||r>1?null:i(t-n)<=1e-5&&i(r-e)<=1e-5?u:function(u){if(u<=0)return t>0?u*n/t:0===n&&r>0?u*e/r:0;if(u>=1)return r<1?1+(u-1)*(e-1)/(r-1):1===r&&t<1?1+(u-1)*(n-1)/(t-1):1;for(var a,l=0,f=1;l<f;){var s=o(t,r,a=(l+f)/2);if(i(u-s)<1e-5)break;s<u?l=a:f=a}return o(n,e,a)}}function l(){return 1}function f(t){return 1===t?1:0}function s(){var t=arguments.length>0&&void 0!==arguments[0]?arguments[0]:1,n=arguments.length>1&&void 0!==arguments[1]?arguments[1]:0;if(1===t){if(0===n)return f;if(1===n)return l}var r=1/t;return function(t){return t>=1?1:(t+=n*r)-t%r}}function c(t){var n=arguments.length>1&&void 0!==arguments[1]?arguments[1]:2;if(Number.isInteger(t))return t;var r=Math.pow(10,n);return Math.round(t*r)/r}var v=Math.PI/180;function h(t,n,r){return t>=.5?r:n}function y(t,n,r){return 0===t||n===r?n:t*(r-n)+n}function d(t,n,r){var e=y(t,n,r);return e<=0?0:e}function g(t,n,r){return 0===t?n:1===t?r:{x:y(t,n.x,r.x),y:y(t,n.y,r.y)}}function m(t,n,r){return 0===t?n:1===t?r:{x:d(t,n.x,r.x),y:d(t,n.y,r.y)}}function p(t,n,r){var e=function(t,n,r){return Math.round(y(t,n,r))}(t,n,r);return e<=0?0:e>=255?255:e}function b(t,n,r){return 0===t?n:1===t?r:{r:p(t,n.r,r.r),g:p(t,n.g,r.g),b:p(t,n.b,r.b),a:y(t,null==n.a?1:n.a,null==r.a?1:r.a)}}function w(t,n,r){if(0===t)return n;if(1===t)return r;var e=n.length;if(e!==r.length)return h(t,n,r);for(var i=[],u=0;u<e;u++)i.push(b(t,n[u],r[u]));return i}function A(t,n,r){var e=n.length;if(e!==r.length)return h(t,n,r);for(var i=new Array(e),u=0;u<e;u++)i[u]=y(t,n[u],r[u]);return i}function x(t,n){for(var r=[],e=0;e<t;e++)r.push(n);return r}function k(t,n){if(--n<=0)return t;var r=(t=Object.assign([],t)).length;do{for(var e=0;e<r;e++)t.push(t[e])}while(--n>0);return t}var S=/\.0+$/g;function _(t){return Number.isInteger(t)?t+"":t.toFixed(6).replace(S,"")}function M(t){var n=arguments.length>1&&void 0!==arguments[1]?arguments[1]:" ";return t&&t.length?t.map(_).join(n):""}function I(t){return _(t.x)+","+_(t.y)}function E(t){return t?null==t.a||t.a>=1?"rgb("+t.r+","+t.g+","+t.b+")":"rgba("+t.r+","+t.g+","+t.b+","+t.a+")":"transparent"}var F={f:null,i:m,u:function(t,n){return function(r){var e=n(r);t.setAttribute("rx",_(e.x)),t.setAttribute("ry",_(e.y))}}},B={f:null,i:function(t,n,r){return 0===t?n:1===t?r:{width:d(t,n.width,r.width),height:d(t,n.height,r.height)}},u:function(t,n){return function(r){var e=n(r);t.setAttribute("width",_(e.width)),t.setAttribute("height",_(e.height))}}},j=Math.sin,q=Math.cos,P=Math.acos,O=Math.asin,z=Math.tan,L=Math.atan2,C=Math.PI/180,R=180/Math.PI,T=Math.sqrt,V=function(){function t(){var r=arguments.length>0&&void 0!==arguments[0]?arguments[0]:1,e=arguments.length>1&&void 0!==arguments[1]?arguments[1]:0,i=arguments.length>2&&void 0!==arguments[2]?arguments[2]:0,u=arguments.length>3&&void 0!==arguments[3]?arguments[3]:1,o=arguments.length>4&&void 0!==arguments[4]?arguments[4]:0,a=arguments.length>5&&void 0!==arguments[5]?arguments[5]:0;n(this,t),this.m=[r,e,i,u,o,a],this.i=null,this.w=null,this.s=null}return e(t,[{key:"point",value:function(t,n){var r=this.m;return{x:r[0]*t+r[2]*n+r[4],y:r[1]*t+r[3]*n+r[5]}}},{key:"translateSelf",value:function(){var t=arguments.length>0&&void 0!==arguments[0]?arguments[0]:0,n=arguments.length>1&&void 0!==arguments[1]?arguments[1]:0;if(!t&&!n)return this;var r=this.m;return r[4]+=r[0]*t+r[2]*n,r[5]+=r[1]*t+r[3]*n,this.w=this.s=this.i=null,this}},{key:"rotateSelf",value:function(){var t=arguments.length>0&&void 0!==arguments[0]?arguments[0]:0;if(t%=360){var n=j(t*=C),r=q(t),e=this.m,i=e[0],u=e[1];e[0]=i*r+e[2]*n,e[1]=u*r+e[3]*n,e[2]=e[2]*r-i*n,e[3]=e[3]*r-u*n,this.w=this.s=this.i=null}return this}},{key:"scaleSelf",value:function(){var t=arguments.length>0&&void 0!==arguments[0]?arguments[0]:1,n=arguments.length>1&&void 0!==arguments[1]?arguments[1]:1;if(1!==t||1!==n){var r=this.m;r[0]*=t,r[1]*=t,r[2]*=n,r[3]*=n,this.w=this.s=this.i=null}return this}},{key:"skewSelf",value:function(t,n){if(n%=360,(t%=360)||n){var r=this.m,e=r[0],i=r[1],u=r[2],o=r[3];t&&(t=z(t*C),r[2]+=e*t,r[3]+=i*t),n&&(n=z(n*C),r[0]+=u*n,r[1]+=o*n),this.w=this.s=this.i=null}return this}},{key:"resetSelf",value:function(){var t=arguments.length>0&&void 0!==arguments[0]?arguments[0]:1,n=arguments.length>1&&void 0!==arguments[1]?arguments[1]:0,r=arguments.length>2&&void 0!==arguments[2]?arguments[2]:0,e=arguments.length>3&&void 0!==arguments[3]?arguments[3]:1,i=arguments.length>4&&void 0!==arguments[4]?arguments[4]:0,u=arguments.length>5&&void 0!==arguments[5]?arguments[5]:0,o=this.m;return o[0]=t,o[1]=n,o[2]=r,o[3]=e,o[4]=i,o[5]=u,this.w=this.s=this.i=null,this}},{key:"recomposeSelf",value:function(){var t=arguments.length>0&&void 0!==arguments[0]?arguments[0]:null,n=arguments.length>1&&void 0!==arguments[1]?arguments[1]:null,r=arguments.length>2&&void 0!==arguments[2]?arguments[2]:null,e=arguments.length>3&&void 0!==arguments[3]?arguments[3]:null,i=arguments.length>4&&void 0!==arguments[4]?arguments[4]:null;return this.isIdentity||this.resetSelf(),t&&(t.x||t.y)&&this.translateSelf(t.x,t.y),n&&this.rotateSelf(n),r&&(r.x&&this.skewSelf(r.x,0),r.y&&this.skewSelf(0,r.y)),!e||1===e.x&&1===e.y||this.scaleSelf(e.x,e.y),i&&(i.x||i.y)&&this.translateSelf(i.x,i.y),this}},{key:"decompose",value:function(){var t=arguments.length>0&&void 0!==arguments[0]?arguments[0]:0,n=arguments.length>1&&void 0!==arguments[1]?arguments[1]:0,r=this.m,e=r[0]*r[0]+r[1]*r[1],i=[[r[0],r[1]],[r[2],r[3]]],u=T(e);if(0===u)return{origin:{x:r[4],y:r[5]},translate:{x:t,y:n},scale:{x:0,y:0},skew:{x:0,y:0},rotate:0};i[0][0]/=u,i[0][1]/=u;var o=r[0]*r[3]-r[1]*r[2]<0;o&&(u=-u);var a=i[0][0]*i[1][0]+i[0][1]*i[1][1];i[1][0]-=i[0][0]*a,i[1][1]-=i[0][1]*a;var l=T(i[1][0]*i[1][0]+i[1][1]*i[1][1]);if(0===l)return{origin:{x:r[4],y:r[5]},translate:{x:t,y:n},scale:{x:u,y:0},skew:{x:0,y:0},rotate:0};i[1][0]/=l,i[1][1]/=l,a/=l;var f=0;return i[1][1]<0?(f=P(i[1][1])*R,i[0][1]<0&&(f=360-f)):f=O(i[0][1])*R,o&&(f=-f),a=L(a,T(i[0][0]*i[0][0]+i[0][1]*i[0][1]))*R,{origin:{x:r[4],y:r[5]},translate:{x:t,y:n},scale:{x:u,y:l},skew:{x:a,y:0},rotate:f}}},{key:"toString",value:function(){return null===this.s&&(this.s="matrix("+this.m.map(N).join(" ")+")"),this.s}},{key:"determinant",get:function(){var t=this.m;return t[0]*t[3]-t[1]*t[2]}},{key:"isIdentity",get:function(){if(null===this.i){var t=this.m;this.i=1===t[0]&&0===t[1]&&0===t[2]&&1===t[3]&&0===t[4]&&0===t[5]}return this.i}}]),t}(),D=/\.0+$/;function N(t){return Number.isInteger(t)?t:t.toFixed(14).replace(D,"")}Object.freeze({M:2,L:2,Z:0,H:1,V:1,C:6,Q:4,T:2,S:4,A:7});function G(t,n,r){return t+(n-t)*r}function $(t,n,r){var e=arguments.length>3&&void 0!==arguments[3]&&arguments[3],i={x:G(t.x,n.x,r),y:G(t.y,n.y,r)};return e&&(i.a=H(t,n)),i}function H(t,n){return Math.atan2(n.y-t.y,n.x-t.x)}function Q(t,n,r,e){var i=1-e;return i*i*t+2*i*e*n+e*e*r}function U(t,n,r,e){return 2*(1-e)*(n-t)+2*e*(r-n)}function Y(t,n,r,e){var i=arguments.length>4&&void 0!==arguments[4]&&arguments[4],u={x:Q(t.x,n.x,r.x,e),y:Q(t.y,n.y,r.y,e)};return i&&(u.a=Z(t,n,r,e)),u}function Z(t,n,r,e){return Math.atan2(U(t.y,n.y,r.y,e),U(t.x,n.x,r.x,e))}function J(t,n,r,e,i){var u=i*i;return i*u*(e-t+3*(n-r))+3*u*(t+r-2*n)+3*i*(n-t)+t}function K(t,n,r,e,i){var u=1-i;return 3*(u*u*(n-t)+2*u*i*(r-n)+i*i*(e-r))}function W(t,n,r,e,i){var u=arguments.length>5&&void 0!==arguments[5]&&arguments[5],o={x:J(t.x,n.x,r.x,e.x,i),y:J(t.y,n.y,r.y,e.y,i)};return u&&(o.a=X(t,n,r,e,i)),o}function X(t,n,r,e,i){return Math.atan2(K(t.y,n.y,r.y,e.y,i),K(t.x,n.x,r.x,e.x,i))}function tt(t,n,r){var e=arguments.length>3&&void 0!==arguments[3]&&arguments[3];if(rt(n)){if(et(r))return Y(n,r.start,r,t,e)}else if(rt(r)){if(n.end)return Y(n,n.end,r,t,e)}else{if(n.end)return r.start?W(n,n.end,r.start,r,t,e):Y(n,n.end,r,t,e);if(r.start)return Y(n,r.start,r,t,e)}return $(n,r,t,e)}function nt(t,n,r){var e=tt(t,n,r,!0);return e.a=function(t){var n=arguments.length>1&&void 0!==arguments[1]&&arguments[1];return n?t+Math.PI:t}(e.a)/v,e}function rt(t){return!t.type||"corner"===t.type}function et(t){return null!=t.start&&!rt(t)}var it=new V;var ut={f:function(t){return t?t.join(" "):""},i:function(n,r,e){if(0===n)return r;if(1===n)return e;var i=r.length;if(i!==e.length)return h(n,r,e);for(var u,o=new Array(i),a=0;a<i;a++){if((u=t(r[a]))!==t(e[a]))return h(n,r,e);if("number"===u)o[a]=y(n,r[a],e[a]);else{if(r[a]!==e[a])return h(n,r,e);o[a]=r[a]}}return o}},ot={f:null,i:A,u:function(t,n){return function(r){var e=n(r);t.setAttribute("x1",_(e[0])),t.setAttribute("y1",_(e[1])),t.setAttribute("x2",_(e[2])),t.setAttribute("y2",_(e[3]))}}},at={f:_,i:y},lt={f:_,i:function(t,n,r){var e=y(t,n,r);return e<=0?0:e>=1?1:e}},ft={f:M,i:function(t,n,r){var e,i,u,o=n.length,a=r.length;if(o!==a)if(0===o)n=x(o=a,0);else if(0===a)a=o,r=x(o,0);else{var l=(u=(e=o)*(i=a)/function(t,n){for(var r;n;)r=n,n=t%n,t=r;return t||1}(e,i))<0?-u:u;n=k(n,Math.floor(l/o)),r=k(r,Math.floor(l/a)),o=a=l}for(var f=[],s=0;s<o;s++)f.push(c(d(t,n[s],r[s]),6));return f}};function st(t,n,r,e,i,u,o,a){return n=function(t,n,r){for(var e,i,u,o=t.length-1,a={},l=0;l<=o;l++)(e=t[l]).e&&(e.e=n(e.e)),e.v&&"g"===(i=e.v).t&&i.r&&(u=r.getElementById(i.r))&&(a[i.r]=u.querySelectorAll("stop"));return a}(t,e,a),function(e){var i,u=r(e,t,ct);return u?"c"===u.t?E(u.v):"g"===u.t?(n[u.r]&&function(t,n){for(var r=0,e=t.length;r<e;r++)t[r].setAttribute("stop-color",E(n[r]))}(n[u.r],u.v),(i=u.r)?"url(#"+i+")":"none"):"none":"none"}}function ct(t,n,r){if(0===t)return n;if(1===t)return r;if(n&&r){var e=n.t;if(e===r.t)switch(n.t){case"c":return{t:e,v:b(t,n.v,r.v)};case"g":if(n.r===r.r)return{t:e,v:w(t,n.v,r.v),r:n.r}}}return h(t,n,r)}var vt={blur:m,brightness:d,contrast:d,"drop-shadow":function(t,n,r){return 0===t?n:1===t?r:{blur:m(t,n.blur,r.blur),offset:g(t,n.offset,r.offset),color:b(t,n.color,r.color)}},grayscale:d,"hue-rotate":y,invert:d,opacity:d,saturate:d,sepia:d};function ht(t,n,r){if(0===t)return n;if(1===t)return r;var e=n.length;if(e!==r.length)return h(t,n,r);for(var i,u=[],o=0;o<e;o++){if(n[o].type!==r[o].type)return n;if(!(i=vt[n[o].type]))return h(t,n,r);u.push({type:n.type,value:i(t,n[o].value,r[o].value)})}return u}var yt={blur:function(t){return t?function(n){t.setAttribute("stdDeviation",I(n))}:null},brightness:function(t,n,r){return(t=gt(r,n))?function(n){n=_(n),t.map((function(t){return t.setAttribute("slope",n)}))}:null},contrast:function(t,n,r){return(t=gt(r,n))?function(n){var r=_((1-n)/2);n=_(n),t.map((function(t){t.setAttribute("slope",n),t.setAttribute("intercept",r)}))}:null},"drop-shadow":function(t,n,r){var e=r.getElementById(n+"-blur");if(!e)return null;var i=r.getElementById(n+"-offset");if(!i)return null;var u=r.getElementById(n+"-flood");return u?function(t){e.setAttribute("stdDeviation",I(t.blur)),i.setAttribute("dx",_(t.offset.x)),i.setAttribute("dy",_(t.offset.y)),u.setAttribute("flood-color",E(t.color))}:null},grayscale:function(t){return t?function(n){t.setAttribute("values",M(function(t){return[.2126+.7874*(t=1-t),.7152-.7152*t,.0722-.0722*t,0,0,.2126-.2126*t,.7152+.2848*t,.0722-.0722*t,0,0,.2126-.2126*t,.7152-.7152*t,.0722+.9278*t,0,0,0,0,0,1,0]}(n)))}:null},"hue-rotate":function(t){return t?function(n){return t.setAttribute("values",_(n))}:null},invert:function(t,n,r){return(t=gt(r,n))?function(n){n=_(n)+" "+_(1-n),t.map((function(t){return t.setAttribute("tableValues",n)}))}:null},opacity:function(t,n,r){return(t=r.getElementById(n+"-A"))?function(n){return t.setAttribute("tableValues","0 "+_(n))}:null},saturate:function(t){return t?function(n){return t.setAttribute("values",_(n))}:null},sepia:function(t){return t?function(n){return t.setAttribute("values",M(function(t){return[.393+.607*(t=1-t),.769-.769*t,.189-.189*t,0,0,.349-.349*t,.686+.314*t,.168-.168*t,0,0,.272-.272*t,.534-.534*t,.131+.869*t,0,0,0,0,0,1,0]}(n)))}:null}};var dt=["R","G","B"];function gt(t,n){var r=dt.map((function(r){return t.getElementById(n+"-"+r)||null}));return-1!==r.indexOf(null)?null:r}var mt={fill:st,"fill-opacity":lt,stroke:st,"stroke-opacity":lt,"stroke-width":at,"stroke-dashoffset":{f:_,i:y},"stroke-dasharray":ft,opacity:lt,transform:function(n,r,e,i){if(!(n=function(n,r){if(!n||"object"!==t(n))return null;var e=!1;for(var i in n)n.hasOwnProperty(i)&&(n[i]&&n[i].length?(n[i].forEach((function(t){t.e&&(t.e=r(t.e))})),e=!0):delete n[i]);return e?n:null}(n,i)))return null;var u=function(t,i,u){var o=arguments.length>3&&void 0!==arguments[3]?arguments[3]:null;return n[t]?e(i,n[t],u):r&&r[t]?r[t]:o};return r&&r.a&&n.o?function(t){var r=e(t,n.o,nt);return it.recomposeSelf(r,u("r",t,y,0)+r.a,u("k",t,g),u("s",t,g),u("t",t,g)).toString()}:function(t){return it.recomposeSelf(u("o",t,tt,null),u("r",t,y,0),u("k",t,g),u("s",t,g),u("t",t,g)).toString()}},"#filter":function(t,n,r,e,i,u,o,a){if(!n.items||!t||!t.length)return null;var l=function(t,n){var r=(t=t.map((function(t){return t&&yt[t[0]]?(n.getElementById(t[1]),yt[t[0]](n.getElementById(t[1]),t[1],n)):null}))).length;return function(n){for(var e=0;e<r;e++)t[e]&&t[e](n[e].value)}}(n.items,a);return l?(t=function(t,n){return t.map((function(t){return t.e=n(t.e),t}))}(t,e),function(n){l(r(n,t,ht))}):null},"#line":ot,points:{f:M,i:A},d:ut,r:at,"#size":B,"#radius":F,_:function(t,n){if(Array.isArray(t))for(var r=0;r<t.length;r++)this[t[r]]=n;else this[t]=n}},pt=function(){function t(r){n(this,t),this.list=r,this.length=r.length}return e(t,[{key:"setAttribute",value:function(t,n){for(var r=this.list,e=0;e<this.length;e++)r[e].setAttribute(t,n)}},{key:"removeAttribute",value:function(t){for(var n=this.list,r=0;r<this.length;r++)n[r].removeAttribute(t)}},{key:"style",value:function(t,n){for(var r=this.list,e=0;e<this.length;e++)r[e].style[t]=n}}]),t}(),bt=/-./g,wt=function(t,n){return n.toUpperCase()};function At(t){return"function"==typeof t?t:h}function xt(t){return t?"function"==typeof t?t:Array.isArray(t)?function(t){var n=arguments.length>1&&void 0!==arguments[1]?arguments[1]:u;if(!Array.isArray(t))return n;switch(t.length){case 1:return s(t[0])||n;case 2:return s(t[0],t[1])||n;case 4:return a(t[0],t[1],t[2],t[3])||n}return n}(t,null):function(t,n){var r=arguments.length>2&&void 0!==arguments[2]?arguments[2]:u;switch(t){case"linear":return u;case"steps":return s(n.steps||1,n.jump||0)||r;case"bezier":case"cubic-bezier":return a(n.x1||0,n.y1||0,n.x2||0,n.y2||0)||r}return r}(t.type,t.value,null):null}function kt(t,n,r){var e=arguments.length>3&&void 0!==arguments[3]&&arguments[3],i=n.length-1;if(t<=n[0].t)return e?[0,0,n[0].v]:n[0].v;if(t>=n[i].t)return e?[i,1,n[i].v]:n[i].v;var u,o=n[0],a=null;for(u=1;u<=i;u++){if(!(t>n[u].t)){a=n[u];break}o=n[u]}return null==a?e?[i,1,n[i].v]:n[i].v:o.t===a.t?e?[u,1,a.v]:a.v:(t=(t-o.t)/(a.t-o.t),o.e&&(t=o.e(t)),e?[u,t,r(t,o.v,a.v)]:r(t,o.v,a.v))}function St(t,n){var r=arguments.length>2&&void 0!==arguments[2]?arguments[2]:null;return t&&t.length?"function"!=typeof n?null:("function"!=typeof r&&(r=null),function(e){var i=kt(e,t,n);return null!=i&&r&&(i=r(i)),i}):null}function _t(t,n){return t.t-n.t}function Mt(n,r,e,i,u){var o,a="@"===e[0],l="#"===e[0],f=mt[e],s=h;switch(a?(o=e.substr(1),e=o.replace(bt,wt)):l&&(e=e.substr(1)),t(f)){case"function":if(s=f(i,u,kt,xt,e,a,r,n),l)return s;break;case"string":s=St(i,At(f));break;case"object":if((s=St(i,At(f.i),f.f))&&"function"==typeof f.u)return f.u(r,s,e,a,n)}return s?function(t,n,r){var e=arguments.length>3&&void 0!==arguments[3]&&arguments[3];if(e)return t instanceof pt?function(e){return t.style(n,r(e))}:function(e){return t.style[n]=r(e)};if(Array.isArray(n)){var i=n.length;return function(e){var u=r(e);if(null==u)for(var o=0;o<i;o++)t[o].removeAttribute(n);else for(var a=0;a<i;a++)t[a].setAttribute(n,u)}}return function(e){var i=r(e);null==i?t.removeAttribute(n):t.setAttribute(n,i)}}(r,e,s,a):null}function It(n,r,e,i){if(!i||"object"!==t(i))return null;var u=null,o=null;return Array.isArray(i)?o=function(t){if(!t||!t.length)return null;for(var n=0;n<t.length;n++)t[n].e&&(t[n].e=xt(t[n].e));return t.sort(_t)}(i):(o=i.keys,u=i.data||null),o?Mt(n,r,e,o,u):null}function Et(t,n,r){if(!r)return null;var e=[];for(var i in r)if(r.hasOwnProperty(i)){var u=It(t,n,i,r[i]);u&&e.push(u)}return e.length?e:null}function Ft(t,n){if(!n.duration||n.duration<0)return null;var r=function(t,n){if(!n)return null;var r=[];if(Array.isArray(n))for(var e=n.length,i=0;i<e;i++){var u=n[i];if(2===u.length){var o=null;if("string"==typeof u[0])o=t.getElementById(u[0]);else if(Array.isArray(u[0])){o=[];for(var a=0;a<u[0].length;a++)if("string"==typeof u[0][a]){var l=t.getElementById(u[0][a]);l&&o.push(l)}o=o.length?1===o.length?o[0]:new pt(o):null}if(o){var f=Et(t,o,u[1]);f&&(r=r.concat(f))}}}else for(var s in n)if(n.hasOwnProperty(s)){var c=t.getElementById(s);if(c){var v=Et(t,c,n[s]);v&&(r=r.concat(v))}}return r.length?r:null}(t,n.elements);return r?function(t,n){var r=arguments.length>2&&void 0!==arguments[2]?arguments[2]:1/0,e=arguments.length>3&&void 0!==arguments[3]?arguments[3]:1,i=arguments.length>4&&void 0!==arguments[4]&&arguments[4],u=arguments.length>5&&void 0!==arguments[5]?arguments[5]:1,o=t.length,a=e>0?n:0;i&&r%2==0&&(a=n-a);var l=null;return function(f,s){var c=f%n,v=1+(f-c)/n;s*=e,i&&v%2==0&&(s=-s);var h=!1;if(v>r)c=a,h=!0,-1===u&&(c=e>0?0:n);else if(s<0&&(c=n-c),c===l)return!1;l=c;for(var y=0;y<o;y++)t[y](c);return h}}(r,n.duration,n.iterations||1/0,n.direction||1,!!n.alternate,n.fill||1):null}var Bt=function(){function t(r){var e=arguments.length>1&&void 0!==arguments[1]?arguments[1]:{};n(this,t),this._id=0,this._running=!1,this._animations=r,this.direction=e.direction||1,this.speed=e.speed||1,this.fps=e.fps||100,this.offset=e.offset||0}return e(t,[{key:"_start",value:function(){var t=this,n=arguments.length>0&&void 0!==arguments[0]?arguments[0]:0,r=-1/0,e=null,i={},u=function u(o){t._running=!0,null==e&&(e=o);var a=Math.round((o-e+n)*t.speed),l=t.fps?1e3/t.fps:0;if(a>r+l){t.offset=a,r=a;for(var f=t._animations,s=f.length,c=0,v=0;v<s;v++)i[v]?c++:(i[v]=f[v](a,t.direction),i[v]&&c++);if(c===s)return void t._stop()}t._id=window.requestAnimationFrame(u)};this._id=window.requestAnimationFrame(u)}},{key:"_stop",value:function(){this._id&&window.cancelAnimationFrame(this._id),this._running=!1}},{key:"play",value:function(){this._running||this._start(this.offset)}},{key:"stop",value:function(){this._stop(),this.offset=0;var t=this.direction,n=this._animations;requestAnimationFrame((function(){for(var r=0;r<n.length;r++)n[r](0,t)}))}},{key:"restart",value:function(){this._stop(),this.offset=0,this._start()}},{key:"pause",value:function(){this._stop()}},{key:"reverse",value:function(){this.direction=-this.direction}}],[{key:"build",value:function(n){if(!(n=function(t){if(!t||!t.root||!Array.isArray(t.animations))return null;var n=window.document.getElementById(t.root);if(!n)return null;var r=t.animations.map((function(t){return Ft(n,t)})).filter((function(t){return!!t}));return r.length?{element:n,animations:r,options:t.options||void 0}:null}(n)))return null;var r=n.element,e=n.options||{},i=new t(n.animations,n.options);return function(t,n,r){var e=arguments.length>3&&void 0!==arguments[3]?arguments[3]:null;if("click"===r){var i=function r(){n.removeEventListener("click",r),t.play()};return void n.addEventListener("click",i)}if("hover"===r)return n.addEventListener("mouseenter",(function(){return t.play()})),void n.addEventListener("mouseleave","freeze"===e?function(){return t.pause()}:function(){return t.stop()});t.play()}(i,r,e.start,e.hover),i}}]),t}();return function(){for(var t=0,n=["ms","moz","webkit","o"],r=0;r<n.length&&!window.requestAnimationFrame;++r)window.requestAnimationFrame=window[n[r]+"RequestAnimationFrame"],window.cancelAnimationFrame=window[n[r]+"CancelAnimationFrame"]||window[n[r]+"CancelRequestAnimationFrame"];window.requestAnimationFrame||(window.requestAnimationFrame=function(n){var r=Date.now(),e=Math.max(0,16-(r-t)),i=window.setTimeout((function(){n(r+e)}),e);return t=r+e,i},window.cancelAnimationFrame=window.clearTimeout)}(),Bt}));
__SVGATOR_PLAYER__.build({"root":"errnng82mf5g1","animations":[{"duration":3000,"direction":1,"iterations":0,"fill":1,"alternate":false,"elements":{"errnng82mf5g53":{"transform":{"data":{"o":{"x":165.003436,"y":375.004063515,"type":"corner"},"t":{"x":-165.003436,"y":-375.004063515}},"keys":{"r":[{"t":0,"v":0},{"t":1100,"v":-9.731368470889537},{"t":2100,"v":7.904532274953072},{"t":3000,"v":0}]}}},"errnng82mf5g68":{"transform":{"data":{"o":{"x":414.866607665,"y":240.43487548500002,"type":"corner"},"t":{"x":-414.866607665,"y":-240.43487548500002}},"keys":{"s":[{"t":0,"v":{"x":1.25,"y":1.25}},{"t":300,"v":{"x":1,"y":1}},{"t":1200,"v":{"x":1,"y":1},"e":[0.42,0,0.58,1]},{"t":1500,"v":{"x":1.25,"y":1.25}},{"t":1800,"v":{"x":1,"y":1}},{"t":2700,"v":{"x":1,"y":1}},{"t":3000,"v":{"x":1.25,"y":1.25}}]}}},"errnng82mf5g84":{"opacity":[{"t":0,"v":1},{"t":500,"v":0},{"t":1000,"v":1},{"t":1500,"v":0},{"t":2000,"v":1},{"t":2500,"v":0},{"t":3000,"v":1}]},"errnng82mf5g94":{"transform":{"data":{"o":{"x":484.46799837,"y":430.22000141,"type":"corner"},"t":{"x":-484.46799837,"y":-430.22000141}},"keys":{"r":[{"t":0,"v":0},{"t":1200,"v":-21.33738969873649},{"t":2600,"v":2.543078055204152},{"t":3000,"v":0}]}}},"errnng82mf5g95":{"transform":{"data":{"o":{"x":472.20029435,"y":430.22000141,"type":"corner"},"t":{"x":-472.20029435,"y":-430.22000141}},"keys":{"r":[{"t":0,"v":0},{"t":600,"v":-10.613675402692728},{"t":1500,"v":6.039228736642311},{"t":2400,"v":-9.628093501670977},{"t":3000,"v":0}]}}}}}],"options":{"start":"load","hover":"freeze"}})]]></script></svg>