<svg xmlns="http://www.w3.org/2000/svg" viewBox="0 0 360 360"><defs><style>.cls-1{fill:#266dfe;}.cls-2{fill:#2e4050;}.cls-3{fill:#fff;}</style></defs><g id="Layer_2" data-name="Layer 2"><g id="Layer_1-2" data-name="Layer 1"><path class="cls-1" d="M360,180A180,180,0,1,1,180,0,180,180,0,0,1,360,180"/><path class="cls-2" d="M333.75,180A153.75,153.75,0,1,1,180,26.25,153.75,153.75,0,0,1,333.75,180"/><path class="cls-3" d="M306.74,172.17c-.34-.15-.51,0-.63.33l-1.6,4.14c-.86,2.25-1.7,4.51-2.57,6.76q-1.68,4.32-3.38,8.63c-.83,2.09-1.65,4.2-2.51,6.28a55.59,55.59,0,0,1-3.56,7.22,20.56,20.56,0,0,1-4.22,5.53,17.45,17.45,0,0,1-5.71,3.3c-1,.33-1.32.17-1.68-.78s-.33-2-.71-3c-.18-.45.24-.75.59-.94.52-.28,1.07-.49,1.59-.75a15.86,15.86,0,0,0,6.87-7.36,3.79,3.79,0,0,0,.1-3.24c-.84-2.1-1.73-4.17-2.57-6.26s-1.71-4.37-2.59-6.55-1.75-4.22-2.61-6.34S279.87,175,279,172.9c-.05-.12-.07-.24-.12-.35-.63-1.55-.63-1.55,1.11-1.55,1,0,2,.07,3,0a1.47,1.47,0,0,1,1.69,1.1c.59,1.62,1.19,3.25,1.79,4.87s1.3,3.47,1.94,5.21c.88,2.37,1.74,4.75,2.62,7.13a42,42,0,0,1,1.44,4.5c0,.18.11.39.32.42s.38-.27.47-.48c.55-1.35.81-2.79,1.32-4.16.92-2.48,1.68-5,2.53-7.55,1.14-3.37,2.32-6.73,3.44-10.1a1.13,1.13,0,0,1,1.27-.93c1.63.06,3.27,0,4.91.07Z"/><path class="cls-3" d="M115.16,135c1.54,0,2.63-.07,3.71,0a14,14,0,0,1,8,2.78,7.38,7.38,0,0,1,2.65,7.12c-.47,3.88-2.58,7-5,9.89-.85,1.06-1.86,2-2.71,3a24.23,24.23,0,0,1-3.46,3.27c-1.45,1.15-2.88,2.33-4.44,3.37-1.16.76-2.14,1.8-3.36,2.51a93.47,93.47,0,0,1-13.13,6.74,64.61,64.61,0,0,1-11.61,3.45,43.88,43.88,0,0,1-8.38.92,24,24,0,0,1-8.42-1.61,7.67,7.67,0,0,1-3.31-2.57,6.21,6.21,0,0,1-1.19-3A11,11,0,0,1,65.75,164a34.45,34.45,0,0,1,3.83-6.11A57.15,57.15,0,0,1,76,151.51a65.58,65.58,0,0,1,9-6.43,26.07,26.07,0,0,1,4.79-2.61c1.09-.39,2.06-1.11,3.14-1.57a73.13,73.13,0,0,1,9.6-3.64c2.3-.62,4.63-1.13,6.9-1.8C111.56,134.85,113.59,135.27,115.16,135Z"/><path class="cls-3" d="M155.16,166.28a4.66,4.66,0,0,1-.83,2.49c-1.05,2.25-1.67,4.66-2.71,6.91-1.43,3.09-2.47,6.35-3.83,9.49a62.62,62.62,0,0,0-3.19,8.13c-.37,1.34-1.06,2.57-1.55,3.88-.66,1.79-1.13,3.65-1.94,5.39-1.35,2.91-2.41,6-3.54,9s-2.51,5.84-3.4,8.9c-.4,1.39-1.1,2.69-1.63,4a.74.74,0,0,1-.86.5,8.63,8.63,0,0,0-1.76,0c-1.79.29-3.36-.57-5-1-3-.74-6-1.47-9-2.09-2.39-.48-4.73-1.22-7.12-1.72-2.82-.59-5.6-1.3-8.4-2-3.79-.89-7.62-1.59-11.35-2.69-1.34-.4-2.75-.38-4.1-.79a68.16,68.16,0,0,0-7.2-1.78c-4.08-.76-8.1-1.77-12.09-2.87A18,18,0,0,1,58.36,206a18.78,18.78,0,0,1-3.93-5.34,9.84,9.84,0,0,1-1-6.79,51.52,51.52,0,0,1,1.5-6.36c.41-1.16.9-2.29,1.24-3.47a41.39,41.39,0,0,1,1.6-4.58c.81-1.91,1.27-3.94,2.16-5.85.81-1.75,1.43-3.61,2.28-5.36.12-.25.21-.62.51-.57s.32.47.34.77c.18,3.05.37,6.11.52,9.17a1.21,1.21,0,0,0,1.34,1.3c2.44.14,4.88.23,7.32.4q6.9.47,13.79,1a2.76,2.76,0,0,0,1.43-.31q4.39-2.07,8.78-4.18c4.57-2.2,9.1-4.49,13.71-6.61a51.57,51.57,0,0,1,5.71-2.58,14.19,14.19,0,0,0,2.75-1.48c.31-.18.59-.46,1-.44-.41,2.53-.46,5.09-.67,7.64-.16,2-.08,4-.23,6-.13,1.63-.2,3.26-.39,4.88-.35,3-.42,6-.7,8.94-.19,2-.39,4-.51,6.07-.08,1.27-.32,2.57.65,3.72a5.53,5.53,0,0,1,1,1.41,35.24,35.24,0,0,0,3.52,5.84c1.83,2.88,3.54,5.83,5.46,8.65,1.3,1.91,2.46,3.9,3.69,5.85.14.23.25.56.59.5s.39-.43.44-.74c.16-.94.33-1.87.49-2.81.52-3.13,1.2-6.24,1.51-9.39.37-3.71,1.13-7.35,1.66-11,.33-2.31.77-4.6,1-6.93.22-2,.6-4,.93-6a1.59,1.59,0,0,1,.63-.87c2.08-1.89,4.21-3.73,6.14-5.76a52.5,52.5,0,0,0,5.74-6.63,27.14,27.14,0,0,0,2.52-3.61,18.2,18.2,0,0,0,1.38-3.09A1.36,1.36,0,0,1,155.16,166.28Zm-28.58,57.55a4.72,4.72,0,0,0-2-1c-2.89-.72-5.51-2.14-8.28-3.17s-5.69-2.2-8.5-3.39c-3.22-1.38-6.51-2.61-9.8-3.84a41.26,41.26,0,0,0-4-1.61c-.42-.11-1-.16-.9-.84s.62-.69,1-.72a11,11,0,0,0,2.34-.51,19.55,19.55,0,0,1,3.28-1,28.47,28.47,0,0,0,5.62-1.77,81,81,0,0,0,7.61-3.12c.83-.4,1.69-.75,2.51-1.17s.78-.85,0-1.38c-1.4-1-2.84-2-4.21-3-1.59-1.21-3.3-2.25-4.87-3.48-2.12-1.65-4.34-3.17-6.53-4.71-1.6-1.12-3.18-2.33-4.85-3.38-2.24-1.41-4.32-3.06-6.49-4.58-1-.71-1.51-.61-2.15.43-1.63,2.69-3.47,5.24-5.24,7.84q-2.22,3.27-4.47,6.53a25.21,25.21,0,0,0-2,2.86c-.81,1.61-2,2.92-3,4.44-1.18,1.94-2.61,3.73-3.85,5.63-.66,1-.54,1.23.64,1.45s2.08.55,3.14.73a34.4,34.4,0,0,0,3.38.88c2.68.15,5.15,1.17,7.73,1.68,1.42.29,2.87.64,4.29,1,.86.23,1.8.2,2.61.51,1.51.58,3.1.8,4.63,1.24,2.15.6,4.39.82,6.57,1.43a23.39,23.39,0,0,0,3.19.84c1.71.22,3.31.92,5,1,.63,0,1.2.49,1.87.5,1.3,0,2.46.78,3.75.84.81,0,1.39.65,2.18.65,1.84,0,3.52.75,5.27,1.17C123.64,223.17,125.13,223.39,126.58,223.83ZM63.74,181.92c0-.56,0-1.12,0-1.68,0-.28.14-.66-.26-.8s-.52.19-.74.42c-1.54,1.6-3.07,3.22-4.75,4.68-1.26,1.1-2.54,2.23-2.79,4s-.94,3.38-.93,5.16c0,2.47-.38,5,.89,7.33A17.36,17.36,0,0,0,60,206.78a36.45,36.45,0,0,0,5.23,2.8c.67.35.94,0,.9-.64-.12-1.84-.17-3.69-.42-5.52-.31-2.38-.52-4.77-.69-7.17-.14-2.14-.51-4.27-.62-6.43C64.29,187.18,63.74,184.57,63.74,181.92Z"/><path class="cls-3" d="M177.72,180.35V161.76c0-2,0-2,1.95-2.32a57.34,57.34,0,0,1,12.76-.36,15.48,15.48,0,0,1,7.24,2.3,9.94,9.94,0,0,1,3.72,4.68,10.72,10.72,0,0,1,.42,6.9,9.72,9.72,0,0,1-4.71,6.33,15.79,15.79,0,0,1-1.62.88c-.61.27-.64.76,0,1.09a9,9,0,0,1,3.74,4.4,30.29,30.29,0,0,1,1.45,4.63c.65,2.4,1,4.88,1.88,7.22.33.88.3,1.87,1,2.66.34.42-.05.76-.52.81a22.84,22.84,0,0,1-4.82,0,.67.67,0,0,1-.61-.48c-.57-1.66-1.07-3.33-1.49-5-.69-2.87-1-5.86-2.33-8.55a6.86,6.86,0,0,0-6.37-4.06c-1.61,0-3.22,0-4.83,0-.85,0-1.13.4-1.13,1.21,0,5.3,0,10.59,0,15.89,0,.78-.22,1.1-1,1.1-1.3,0-2.6.05-3.9.06-.69,0-.84-.4-.84-1,0-6.56,0-13.13,0-19.7Zm5.37-9.41c0,2.17,0,4.34,0,6.51,0,.83.32,1.09,1.09,1.08,1.52,0,3,0,4.56,0a12.65,12.65,0,0,0,4.55-.65,7.42,7.42,0,0,0,5.36-6.15,6.79,6.79,0,0,0-3.87-7.5,17.67,17.67,0,0,0-10.8-.84,1,1,0,0,0-.89,1.15C183.11,166.66,183.09,168.8,183.09,170.94Z"/><path class="cls-3" d="M274.5,185.93a17.22,17.22,0,0,1-1.59,7.78,13.2,13.2,0,0,1-6.5,6.65,20.54,20.54,0,0,1-4.35,1.2,7.76,7.76,0,0,1-2.67-.12,10.69,10.69,0,0,1-8-4.73c-.15-.21-.25-.61-.58-.48s-.33.49-.33.8c0,1-.05,1.92,0,2.88,0,.73-.27,1-1,1s-1.67,0-2.51,0-1.11-.34-1.05-1.13.15-1.85.15-2.78q0-19.54,0-39.11c0-.8.25-1.13,1.06-1.1,1.09,0,2.17,0,3.26,0,.7,0,1,.35,1,1.05-.21,4.83,0,9.66-.09,14.49,0,.61,0,1.23,0,1.85,0,.38-.21.92.23,1.09s.69-.36.91-.65a11.12,11.12,0,0,1,2.12-2.05,12.28,12.28,0,0,1,5.05-1.94,12.15,12.15,0,0,1,8.14,1.22,11.26,11.26,0,0,1,4.61,4.54A17.87,17.87,0,0,1,274.5,185.93Zm-23,.1c0,.93,0,1.86,0,2.79A8.53,8.53,0,0,0,264.66,196c2.85-1.76,3.8-4.64,4.35-7.71a16.36,16.36,0,0,0-.49-7.06,10.5,10.5,0,0,0-2-3.91,8.34,8.34,0,0,0-10-1.91,9.29,9.29,0,0,0-4.6,5.75A18.14,18.14,0,0,0,251.5,186Z"/><path class="cls-3" d="M147.58,141.65a.34.34,0,0,1-.33.37c-4.49.8-8.92,1.84-13.37,2.81-.5.1-.78.3-.44.81q3.66,5.45,7.32,10.9c1.6,2.37,3.22,4.73,4.76,7.15,1.28,2,2.7,4,4.1,5.93a12.39,12.39,0,0,0,1.1,1.8.53.53,0,0,1,.08.76c-.23.25-.46.06-.69,0-4.4-1.07-8.78-2.21-13.2-3.19-2.79-.62-5.5-1.56-8.31-2.09s-5.56-1.35-8.32-2.11a4.49,4.49,0,0,0-.83-.09l3.4-5.06,4.05-6,4-5.84c.62-.92,1.23-1.85,1.81-2.79a1.07,1.07,0,0,0-.08-1.28c-1.17-1.74-2.38-3.44-3.41-5.27a18.81,18.81,0,0,0-1.35-1.77c-.21-.29-.52-.65-.29-1s.66-.14,1-.06c2.44.55,4.71,1.67,7.14,2.22a58.06,58.06,0,0,1,6.12,1.79C143.74,140.32,145.83,140.51,147.58,141.65Z"/><path class="cls-3" d="M237,185c0,4,0,7.93,0,11.89,0,1,.1,2,.18,3,.06.82-.31,1.13-1.1,1.1a25.05,25.05,0,0,0-2.6,0c-.83,0-1.11-.37-1.14-1.1a11.25,11.25,0,0,0-.12-2.32c-.06-.22,0-.54-.27-.63a.78.78,0,0,0-.74.3,16.43,16.43,0,0,1-1.48,1.53,11.63,11.63,0,0,1-12.24,2.08,9,9,0,0,1-5.27-6,21.91,21.91,0,0,1-.88-7.06q0-7.89,0-15.8c0-.72.26-1,1-1,1.18,0,2.36,0,3.53,0,.76,0,.95.34.95,1,0,5.55,0,11.1,0,16.64a12.06,12.06,0,0,0,1,4.79c1.67,3.93,5.77,4.31,8.41,3.35a8.29,8.29,0,0,0,5.51-8.16c-.14-5.54,0-11.09-.06-16.64,0-.72.27-1,1-1,1.15,0,2.29,0,3.44,0,.77,0,1,.27,1,1,0,4.34,0,8.68,0,13Z"/><path class="cls-3" d="M155.27,165.82c-.34-.2-.25-.47-.09-.71a13.62,13.62,0,0,0,1.89-4.94,23.64,23.64,0,0,0,.27-7,12.42,12.42,0,0,0-.76-3.85,12.74,12.74,0,0,0-1-1.63c-.16-.27-.41-.46-.31-.82.76.24,1,1,1.36,1.54a11.58,11.58,0,0,1,1.38,5.16,22,22,0,0,1-.54,7.1A15.76,15.76,0,0,1,155.27,165.82Z"/><path class="cls-3" d="M155,146.46c-.65-.35-1.36-.64-1.6-1.45C154.06,145.37,154.79,145.63,155,146.46Z"/></g></g></svg>