<svg xmlns="http://www.w3.org/2000/svg" viewBox="0 0 360 360"><defs><style>.cls-1{fill:#266dfe;}.cls-2{fill:#2e4050;}.cls-3{fill:#fff;}</style></defs><g id="Layer_2" data-name="Layer 2"><g id="Layer_1-2" data-name="Layer 1"><path class="cls-1" d="M360,180A180,180,0,1,1,180,0,180,180,0,0,1,360,180"/><path class="cls-2" d="M333.75,180A153.75,153.75,0,1,1,180,26.25,153.75,153.75,0,0,1,333.75,180"/><path class="cls-3" d="M105,201.13c5.8-13.32,11.31-26.8,19.47-38.93,4.26-6.32,9.08-12.12,15.31-16.7,2.85-2.11,4.38-1.66,6.25,1.19a86.78,86.78,0,0,1,10.74,23.55,292.29,292.29,0,0,0,12.17,34.54c3.21,7.4,7.55,13.81,16.51,17.11-8.73,1.2-14.78-1.66-19.76-7.27-5.64-6.37-7.75-14.33-9.84-22.28-3.3-12.55-6.57-25.1-10-38.19-3.07,1.77-5,4.33-6.86,6.8-9.13,11.85-14.7,25.49-18.55,39.7-4.57,16.9-17.28,23-32,23.87-4.28.25-2.48-2.82-2.22-4.44,2.9-17.81,7.63-35.06,16.38-51,5.34-9.71,11.49-18.78,20.49-25.53a47.59,47.59,0,0,1,7.51-4.59,7.82,7.82,0,0,1,8.37.46c1.34,1,2.64,1.8.12,3.18-13.95,7.63-21.95,20.07-27.56,34.41-3,7.64-5.84,15.31-7.48,23.38-.21.73-.93,1.5.12,2.17Z"/><path class="cls-3" d="M253,187.19c9.47-14.69,17.81-30.05,26.17-45.37,2.91-5.33,6.08-7.7,12-5.92,0,.13.24.49.14.68-12.66,22.69-25.1,45.51-40.21,66.71-4.95,7-10.62,13.36-18.54,17.19-4.72,2.29-7.57,1.41-10.69-2.83-1.05-1.42-.92-2.32.12-3.61,9.89-12.26,15.41-26.68,20.4-41.37,3.14-9.24,6.63-18.36,12.5-26.28,5.12-6.89,12-10.64,21.47-10.7l-24.43,50.73-.88,1.71-.85,1.28a1,1,0,0,0,1.69-.51Z"/><path class="cls-3" d="M160.24,137.62c4.8.36,8.91,2,12.06,6,6.75,8.4,10.22,18.35,13.2,28.44,4.17,14.12,8.24,28.23,16.18,40.83.93,1.48.65,2.44-.35,3.68-4.35,5.39-9.78,5.83-14.78.88-10.12-10-15.4-22.69-19.39-36-4.08-13.62-9.52-26.51-19.06-37.3-1.75-2-1.2-2.68.93-3.44C152.67,139.37,156.28,138,160.24,137.62Z"/><path class="cls-3" d="M218.07,210.7c-3.9-5.92-3.58-11.31-1.28-17.49,4.37-11.72,8-23.73,11.19-35.84,3.47-13,14.44-20.83,30.15-21.65A29.45,29.45,0,0,1,264,136c-13.92,3.31-19.3,14.5-24.26,25.92s-7.85,23.47-13.34,34.6C224,201.43,221.71,206.47,218.07,210.7Z"/><path class="cls-3" d="M205.36,209.72A136.29,136.29,0,0,1,194.92,184c-2.81-9-5-18.16-8.71-26.86-3.43-8.17-7.25-16.07-17.64-19.29,14-1.59,22.86,2.84,27.88,14.87,6.14,14.71,9.46,30.35,13,45.84C210.34,202.3,207.28,205.68,205.36,209.72Z"/><path class="cls-3" d="M125.79,138.59c-22,13.61-32.38,34.66-39.69,57.78a137,137,0,0,0-5.36,23.95c-.5,3.82-2,4.42-5.31,4.36-7.67-.14-7.67,0-5.36-7.65,7.14-23.6,17.15-45.72,33.58-64.49A52.57,52.57,0,0,1,117.48,141C119.87,139.64,122.29,138.13,125.79,138.59Z"/><path class="cls-3" d="M212,207.23c1,2.31,1.61,4.16,2.47,5.91,1.17,2.4-.91,3.21-2,4.48-.53.58-1.31,1-1.86,0-.83-1.44-3.13-2.32-1.83-4.61C209.73,211.21,210.74,209.4,212,207.23Z"/><path class="cls-3" d="M196.85,221.94a17.5,17.5,0,0,0,6.9-3.34c.75-.65,1.49-1.15,2.34-.2.58.65,1.8,1.19,1.32,2.16a3.49,3.49,0,0,1-2.19,1.39A17.64,17.64,0,0,1,196.85,221.94Z"/><path class="cls-3" d="M214.58,220.91c3.52-4.48,4.85.46,7.51,1.29C219.28,222.47,216.9,222.89,214.58,220.91Z"/><path class="cls-3" d="M151,137.71c-4.25,2-7.32,3.51-10.69,0Z"/><path class="cls-3" d="M249.43,216.81h-1.6v-.58h3.89v.58h-1.6v4.68h-.69Z"/><path class="cls-3" d="M256.74,219.18c0-.73-.08-1.62-.08-2.27h0c-.18.61-.4,1.27-.66,2l-.93,2.55h-.52l-.85-2.51c-.25-.74-.46-1.42-.61-2h0c0,.65-.06,1.54-.1,2.32l-.14,2.26h-.65l.37-5.26h.86l.9,2.54c.22.65.4,1.23.53,1.77h0c.14-.53.32-1.1.56-1.77l.93-2.54h.87l.33,5.26h-.66Z"/></g></g></svg>