<svg xmlns="http://www.w3.org/2000/svg" viewBox="0 0 360 360"><defs><style>.cls-1{fill:#266dfe;}.cls-2{fill:#2e4050;}.cls-3{fill:#6699d1;}.cls-4{fill:#fff;}</style></defs><g id="Layer_2" data-name="Layer 2"><g id="Layer_1-2" data-name="Layer 1"><path class="cls-1" d="M360,180A180,180,0,1,1,180,0,180,180,0,0,1,360,180"/><path class="cls-2" d="M333.75,180A153.75,153.75,0,1,1,180,26.25,153.75,153.75,0,0,1,333.75,180"/><path class="cls-3" d="M91,135.63a.25.25,0,0,0,.17,0v86.13c0,.15,0,.29,0,.44l-.16-.05Z"/><path class="cls-4" d="M266.43,227.58l-9.94-6.06-14.84-9-7.15-4.39a2.26,2.26,0,0,0-1.13-.49,4,4,0,0,0-.64-.6l-10.26-6.17c-3.45-2.07-6.89-4.18-10.36-6.21-.93-.54-3.12-2-3.28-2.15q-5.36-3.33-10.75-6.59c-2.5-1.53-11.13-7-11.86-7.79,1.53-.92,3-1.83,4.52-2.72l19.56-11.63q12.72-7.56,25.42-15.14l25.92-15.45,4.94-2.93c.14-.09.3-.16.35-.34.4.1.42.49.54.77a18.07,18.07,0,0,1,1.53,7.49q0,40,0,80A17.3,17.3,0,0,1,266.43,227.58Z"/><path class="cls-4" d="M209.24,196c-.74,1-1.69,2.13-2.48,3.19a30.14,30.14,0,0,1-9.06,8.17,31.75,31.75,0,0,1-10.59,4.06,28.31,28.31,0,0,1-9.93,0,46.37,46.37,0,0,1-5.1-1.43c-5.33-1.55-9.36-4.91-13-8.82a18.35,18.35,0,0,1-3.4-4.85l10.44-6.23c5.42-3.21,10.86-6.4,16.27-9.63a1.31,1.31,0,0,1,1.58,0c.71.45,10,6,12.81,7.7q6,3.58,11.92,7.22C208.88,195.45,209.41,195.59,209.24,196Z"/><path class="cls-4" d="M255.29,224.59q-7.81-4.74-15.65-9.46l-7.54-4.6a2.5,2.5,0,0,0-1.19-.52,21.75,21.75,0,0,1-2.91,5,54.32,54.32,0,0,1-8.14,9.57,61.66,61.66,0,0,1-17,11.3,60.16,60.16,0,0,1-9.15,3.12,50.25,50.25,0,0,1-10.33,1.6,44.23,44.23,0,0,1-10.53-.44c-1.7-.35-3.44-.41-5.14-.75s-3.33-.83-5-1.33a55.16,55.16,0,0,1-8-3.22,46.45,46.45,0,0,1-5.29-2.85,60.3,60.3,0,0,1-8.8-6.73c-1.44-1.36-2.9-2.7-4.2-4.18a67.44,67.44,0,0,1-6.73-9l-.29-.43L95.08,232.9a19.13,19.13,0,0,0,5.22,4.63q34.77,21.41,69.55,42.79c6.88,4.22,13.88,4.15,20.74-.06,8.59-5.27,17.11-10.63,25.66-15.94l43.17-26.86a17.6,17.6,0,0,0,6.35-6.53Z"/><path class="cls-4" d="M204.67,163.16a29.42,29.42,0,0,0-5.07-6.26,29.74,29.74,0,0,0-8.85-5.65,29.14,29.14,0,0,0-7.75-2.07,30,30,0,0,0-16.14,2.94A29.68,29.68,0,0,0,152.55,168a30.93,30.93,0,0,0,.86,24.94,7.11,7.11,0,0,0,.71,1.1l51-30.33A2,2,0,0,1,204.67,163.16Z"/><path class="cls-4" d="M93.33,230.21l34.82-20.72a76.67,76.67,0,0,1-5.45-14.14,63.26,63.26,0,0,1-1.85-11.94,65.14,65.14,0,0,1,1.56-18.73,61.45,61.45,0,0,1,11.21-23.42,52.5,52.5,0,0,1,5.25-6.09A62.35,62.35,0,0,1,152,125.43a56.06,56.06,0,0,1,15.66-5.84,59.15,59.15,0,0,1,7.52-1,53.87,53.87,0,0,1,7.62-.11,57.2,57.2,0,0,1,18.72,4.14,60.13,60.13,0,0,1,15.91,9.65,61.1,61.1,0,0,1,13.13,15.6,1.9,1.9,0,0,1,.27.61l35-20.85a16.63,16.63,0,0,0-3.8-4.71,37.43,37.43,0,0,0-6-3.93q-6.66-3.94-13.33-7.89c-4.36-2.6-8.7-5.22-13.07-7.81-4.88-2.9-9.78-5.78-14.66-8.69-3.84-2.28-7.67-4.6-11.5-6.89s-7.84-4.65-11.74-7A26.8,26.8,0,0,0,184,77.14c-1.09-.25-2.22-.24-3.29-.59h-1.76c-1.36.24-2.73.42-4.07.73a22.69,22.69,0,0,0-6.62,3L151.11,90.53c-4.81,2.87-9.61,5.76-14.42,8.62Q121.8,108,106.9,116.86A88.13,88.13,0,0,0,98.53,122a18.68,18.68,0,0,0-7.34,12.73,6.28,6.28,0,0,0,0,.87v86.13c0,.15,0,.29,0,.44A16.67,16.67,0,0,0,93.33,230.21Z"/></g></g></svg>