<svg xmlns="http://www.w3.org/2000/svg" viewBox="0 0 360 360"><defs><style>.cls-1{fill:#266dfe;}.cls-2{fill:#2e4050;}.cls-3{fill:#fff;}</style></defs><g id="Layer_2" data-name="Layer 2"><g id="Layer_1-2" data-name="Layer 1"><path class="cls-1" d="M360,180A180,180,0,1,1,180,0,180,180,0,0,1,360,180"/><path class="cls-2" d="M333.75,180A153.75,153.75,0,1,1,180,26.25,153.75,153.75,0,0,1,333.75,180"/><path class="cls-3" d="M165.86,84.73l29.85.56C201.8,87,208.19,87.65,213.77,91c6.52,4,12.51,8.41,12.6,16.87.18,15.65.19,31.32-.16,47-.19,8.55-4.54,14.92-12.33,18.75a32.75,32.75,0,0,1-14.72,3.24c-15.23,0-30.47-.08-45.7,0-13.35.08-22.47,7.87-24.77,20.92-1.44,8.12-.67,16.33-.56,24.48.05,3.92-1.17,4.84-4.74,4.5a85.33,85.33,0,0,0-9.73,0c-8.28.18-14.66-3.4-19.58-9.84-3.47-4.55-5.36-9.82-7-15.27l0-.1A68.14,68.14,0,0,1,84.72,183v-3.3a82.6,82.6,0,0,1,3.72-25.14,26.13,26.13,0,0,1,1.12-2.94c5.42-11.79,14.34-17.75,27.18-17.72,19.88,0,39.76,0,59.63,0,2.45,0,4.16.12,4.19-3.38.05-3.82-2.19-3.15-4.35-3.15-12.69,0-25.38-.12-38.06.07-3.54,0-4.28-1.14-3.94-5a83.47,83.47,0,0,0-.05-14.49c-.58-6.8,2.25-11.63,7.45-15.28a31.47,31.47,0,0,1,10.71-4.85C156.81,86.71,161.34,85.74,165.86,84.73Zm-3.34,22.87a8.39,8.39,0,1,0-16.78-.19,8.39,8.39,0,0,0,16.78.19Z"/><path class="cls-3" d="M275.28,173.31v8a153,153,0,0,1-1.49,18.13c0,.14,0,.28-.07.42-3.26,14.55-13.61,26-29.46,25.57-19.88-.54-39.77-.14-59.66-.15-2.25,0-4.38-.49-4.45,3.19-.08,3.92,2.22,3.42,4.62,3.42,12.69,0,25.38,0,38.07-.09,2.7,0,3.76.7,3.66,3.53a133.92,133.92,0,0,0,.06,15.65c.73,9-3.91,14.31-11.31,18a54.66,54.66,0,0,1-10.76,3.68c-3.23.84-6.6.87-9.85,1.53a46.72,46.72,0,0,1-8.58,1l-9.76.13a35,35,0,0,1-7.44-.82c-.62-.14-1-.21-1.65-.31-8.26-1.24-16.41-2.8-23.51-7.6-5.27-3.56-9.3-8.28-9.36-14.8-.14-16.22-.76-32.45.36-48.65.5-7.36,4.34-13,10.79-16.69a29.41,29.41,0,0,1,15-3.76c15.24,0,30.48.12,45.71-.07,14.87-.18,23.71-7.84,26.07-22.48,1.27-7.84.44-15.77.47-23.66,0-2.83.82-3.85,3.4-3.79,3.8.08,7.6.13,11.4.06,9.68-.2,16.14,4.83,21.06,12.62a32.14,32.14,0,0,1,3.17,6.78A63.74,63.74,0,0,1,275.28,173.31ZM206.71,260a8.2,8.2,0,1,0-8.43-8.09A8.16,8.16,0,0,0,206.71,260Z"/></g></g></svg>