<svg xmlns="http://www.w3.org/2000/svg" viewBox="0 0 360 360"><defs><style>.cls-1{fill:#266dfe;}.cls-2{fill:#2e4050;}.cls-3{fill:#fff;}</style></defs><g id="Layer_2" data-name="Layer 2"><g id="Layer_1-2" data-name="Layer 1"><path class="cls-1" d="M360,180A180,180,0,1,1,180,0,180,180,0,0,1,360,180"/><path class="cls-2" d="M333.75,180A153.75,153.75,0,1,1,180,26.25,153.75,153.75,0,0,1,333.75,180"/><path class="cls-3" d="M253.7,161.91v-9.47a2.18,2.18,0,0,1,.56-1.91l7.17-6.33c.51.41.34.82.35,1.16.1,15.36.17,30.72.33,46.08,0,1.61-.48,2.19-2,1.95a5.19,5.19,0,0,0-.56,0c-1.45,0-3.15.39-4.28-.22-1.34-.72-.33-2.68-.87-4.21a15.92,15.92,0,0,1-9,5.27c-9.55,2-18.24-3.69-20.06-13.26a23.64,23.64,0,0,1,1.5-14.64c4.79-10.44,18.55-11.81,25.71-5.38C252.83,161.19,253.12,161.42,253.7,161.91Zm-20.43,14a18,18,0,0,0,0,2.08c.47,3.8,1.91,7,5.75,8.45,4.14,1.51,8.22,1.18,11.47-2,3-3,3.48-6.85,2.95-10.92-.69-5.32-4.11-8.76-9.08-9-6-.27-9.54,2.34-10.86,8A15.44,15.44,0,0,0,233.27,175.93Z"/><path class="cls-3" d="M285.57,194.5c-6.38-.27-13.22-2.83-16.52-10.69-4.9-11.68.6-26.89,17.38-27.26,6.11-.14,11.38,1.73,15.09,6.79,3.17,4.34,3.28,9.29,2.29,14.36-.24,1.2-1.09,1.16-2,1.16-7.91,0-15.82.08-23.73,0-1.82,0-1.95.51-1.39,2,1.55,4.17,5.25,6.63,10.43,6.79a20.6,20.6,0,0,0,11.55-3.1c.94-.58,1.4-.56,1.82.47a9.61,9.61,0,0,0,.74,1.32c1.77,3,1.75,3-1.18,4.72C296.15,193.33,291.73,194.51,285.57,194.5Zm.48-21.66v0h8c2.44,0,2.7-.33,2.21-2.75a5.56,5.56,0,0,0-.29-.9c-1.56-4.26-5.59-6.38-10.95-5.77-4.31.5-8.34,4.31-8.8,8.25-.14,1.15.47,1.21,1.33,1.21C280.37,172.82,283.21,172.84,286.05,172.84Z"/><path class="cls-3" d="M152.38,159.18v3.49c.85-.1,1.18-.78,1.65-1.2A17.05,17.05,0,0,1,167.28,157c5.53.44,9.74,4.55,10.9,10.5a22.4,22.4,0,0,1,.44,4.33c0,6.7-.05,13.4.06,20.1,0,1.58-.5,2-1.94,1.87a36.36,36.36,0,0,0-4.55,0c-1.27.08-1.59-.42-1.58-1.63q.06-9.1,0-18.21a21.3,21.3,0,0,0-.42-4.14c-.9-4.25-4.57-6.32-9.21-5.21a14.49,14.49,0,0,0-7.44,5,2.9,2.9,0,0,0-.43,2.17c0,6.76,0,13.53.06,20.3,0,1.44-.4,1.89-1.82,1.79a45.05,45.05,0,0,0-4.93,0c-1.11,0-1.56-.29-1.56-1.49q0-12.61,0-25.23a2.09,2.09,0,0,1,.66-1.7Z"/><path class="cls-3" d="M219.19,158.72c.13.17-.05.69-.05,1.16,0,10.63,0,21.26.1,31.89,0,1.64-.5,2.09-2,2a22.34,22.34,0,0,0-4.17,0c-1.68.18-2.36-.38-2.12-2.08a1.9,1.9,0,0,0-.23-1.54c-1,.71-2,1.47-3.08,2.1-4.73,2.78-9.7,3.61-14.86,1.4-4.77-2-6.93-6.07-7.24-11-.32-5.11-.12-10.25-.16-15.37a1.91,1.91,0,0,1,.57-1.54c2.42-2.32,4.82-4.65,7.28-7,.47.32.17.94.17,1.44,0,5.88,0,11.77.06,17.65a21.3,21.3,0,0,0,.42,4.14c.89,4.33,4.92,6.42,9.78,5.14a15.1,15.1,0,0,0,4.12-1.89c2.25-1.38,3.5-3.12,3.25-6-.31-3.64,0-7.33-.11-11a3.5,3.5,0,0,1,1.1-2.87C214.41,163.11,216.81,160.9,219.19,158.72Z"/><path class="cls-3" d="M276.83,208.88c0,1.87,0,3.75,0,5.62,0,.72.05,1.42-1,1.46s-1.15-.67-1.14-1.5c0-2.52,0-5.05,0-7.58,0-.6-.43-1.5.62-1.71a2,2,0,0,1,2.17.76c1.42,1.86,2.9,3.66,4.37,5.48.24.29.52.54,1.13,1.19,0-2.31,0-4.22,0-6.12,0-.59-.2-1.29.82-1.36s1.15.48,1.15,1.27c0,2.65.08,5.3,0,8,0,.54.2,1.31-.73,1.52a1.78,1.78,0,0,1-2-.72c-1.67-2.13-3.37-4.24-5.07-6.35Z"/><path class="cls-3" d="M253.36,210.44a5.68,5.68,0,1,1,5.64,5.69A5.27,5.27,0,0,1,253.36,210.44Zm9.18.19c0-2.36-1.25-3.89-3.36-4a3.56,3.56,0,0,0-3.82,3.77,3.48,3.48,0,0,0,3.53,3.83C261.16,214.31,262.5,213,262.54,210.63Z"/><path class="cls-3" d="M169,216.13a5.46,5.46,0,0,1-5.77-5.65,5.75,5.75,0,0,1,11.49.13A5.44,5.44,0,0,1,169,216.13Zm3.56-5.6c0-2.33-1.38-3.85-3.49-3.86a3.51,3.51,0,0,0-3.71,3.86,3.45,3.45,0,0,0,3.61,3.74A3.42,3.42,0,0,0,172.51,210.53Z"/><path class="cls-3" d="M299.63,216.16a8.15,8.15,0,0,1-3.85-.91c-.41-.21-1-.35-.68-1.09s.67-.87,1.34-.58a7.7,7.7,0,0,0,4.07.66c.69-.09,1.46-.23,1.5-1.13s-.65-1-1.26-1.19c-1.14-.35-2.32-.62-3.43-1.06a2.9,2.9,0,0,1-2.13-3c.1-1.57,1.14-2.28,2.5-2.71a7.8,7.8,0,0,1,5.36.42c.48.19,1,.4.71,1.1s-.62.83-1.33.58a6.33,6.33,0,0,0-3.89-.42c-.54.16-1.12.38-1.15,1.09s.51,1,1.07,1.14c1,.31,2.08.55,3.08.9,1.5.53,2.87,1.25,2.68,3.18s-1.55,2.48-3.09,2.88A10.59,10.59,0,0,1,299.63,216.16Z"/><path class="cls-3" d="M149,216.14a8.35,8.35,0,0,1-3.49-.74c-.65-.26-1.37-.48-.92-1.48s1-.48,1.54-.24a7,7,0,0,0,3.7.56c.7-.08,1.45-.24,1.52-1.12s-.6-1-1.22-1.22c-1.15-.35-2.31-.65-3.44-1.05a2.86,2.86,0,0,1-2.15-3,2.89,2.89,0,0,1,2.31-2.68,7.68,7.68,0,0,1,5.54.36c.49.21.93.47.69,1.13s-.65.79-1.33.55a6.88,6.88,0,0,0-3.53-.5c-.66.13-1.44.31-1.5,1.19s.65,1,1.25,1.19c.9.28,1.84.47,2.73.77,1.57.51,3,1.21,2.84,3.23-.1,1.57-1.35,2.66-3.4,3A10.9,10.9,0,0,1,149,216.14Z"/><path class="cls-3" d="M212.77,209.11v1.71c0,3.62-1.68,5.33-5.15,5.31s-5.08-1.82-5.09-5.4c0-1.51,0-3,0-4.55,0-.68.2-1,1-1.06s1.18.22,1.17,1.07c0,1.7-.05,3.41,0,5.11.07,2,.91,2.86,2.71,3,2,.11,3.21-.75,3.39-2.71.15-1.7.05-3.41.07-5.12,0-.63-.1-1.27.89-1.31s1.07.59,1.05,1.34S212.77,208.23,212.77,209.11Z"/><path class="cls-3" d="M227,205.13h3.78c.58,0,1.19,0,1.19.81,0,.7-.32,1-1,1-.93.06-2.12-.45-2.71.3s-.2,2.07-.23,3.13c0,1.38,0,2.77,0,4.16,0,.67,0,1.25-1,1.26s-1-.51-1-1.21c0-2-.06-4.05,0-6.07.05-1.24-.37-1.75-1.62-1.59a10.87,10.87,0,0,1-1.51,0c-.64,0-.87-.4-.89-1s.38-.85,1-.85Z"/><path class="cls-3" d="M184.66,210.39c0-1.39,0-2.77,0-4.16,0-.63.07-1.09.89-1.11s1.1.36,1.08,1.14c0,1.26,0,2.52,0,3.78,0,4.12,0,4.12,4,4.12H192c.55,0,1,.1,1,.81s-.4.84-1,.84c-2.15,0-4.29,0-6.43,0-.79,0-.94-.42-.93-1.08C184.67,213.29,184.66,211.84,184.66,210.39Z"/><path class="cls-3" d="M243.14,210.51c0,1.39,0,2.78,0,4.17,0,.76-.19,1.18-1.06,1.15s-.89-.5-.89-1.13c0-2.84,0-5.69,0-8.53,0-.68.21-1,1-1s1,.32,1,1C243.13,207.6,243.14,209.06,243.14,210.51Z"/><polygon class="cls-3" points="95.18 170.6 87.42 170.6 81.93 176.09 81.93 183.85 87.42 189.33 95.18 189.33 100.66 183.85 100.66 176.09 95.18 170.6"/><polygon class="cls-3" points="103.88 215.57 94.5 192.75 93.01 192.75 89.79 192.75 88.3 192.75 78.93 215.57 83.64 215.57 91.4 196.68 99.17 215.57 103.88 215.57"/><polygon class="cls-3" points="103.88 143.84 94.5 166.65 93.01 166.65 89.79 166.65 88.3 166.65 78.93 143.84 83.64 143.84 91.4 162.73 99.17 143.84 103.88 143.84"/><polygon class="cls-3" points="125.44 162.66 102.68 172.17 101.63 171.12 99.35 168.84 98.3 167.78 107.8 145.02 111.13 148.35 103.26 167.2 122.11 159.33 125.44 162.66"/><polygon class="cls-3" points="126.89 192.39 104.07 183.01 104.07 181.53 104.07 178.3 104.07 176.82 126.89 167.44 126.89 172.15 107.99 179.91 126.89 187.68 126.89 192.39"/><polygon class="cls-3" points="107.8 213.95 98.3 191.19 99.35 190.14 101.63 187.86 102.68 186.81 125.44 196.31 122.11 199.64 103.26 191.77 111.13 210.62 107.8 213.95"/><polygon class="cls-3" points="56.98 163.25 79.74 172.75 80.8 171.7 83.08 169.42 84.13 168.37 74.62 145.61 71.29 148.94 79.16 167.79 60.31 159.92 56.98 163.25"/><polygon class="cls-3" points="55.64 192.39 78.46 183.01 78.46 181.53 78.46 178.31 78.46 176.82 55.64 167.44 55.64 172.15 74.54 179.92 55.64 187.68 55.64 192.39"/><polygon class="cls-3" points="74.73 214.43 84.23 191.67 83.18 190.62 80.9 188.34 79.85 187.29 57.09 196.79 60.42 200.12 79.27 192.25 71.4 211.1 74.73 214.43"/></g></g></svg>