<svg xmlns="http://www.w3.org/2000/svg" viewBox="0 0 360 360"><defs><style>.cls-1{fill:#266dfe;}.cls-2{fill:#2e4050;}.cls-3{fill:#fff;}</style></defs><g id="Layer_2" data-name="Layer 2"><g id="Layer_1-2" data-name="Layer 1"><path class="cls-1" d="M360,180A180,180,0,1,1,180,0,180,180,0,0,1,360,180"/><path class="cls-2" d="M333.75,180A153.75,153.75,0,1,1,180,26.25,153.75,153.75,0,0,1,333.75,180"/><path class="cls-3" d="M226,93.17l0,.2c-.34,0-.69,0-1,0l-4.24,0v-.14Z"/><path class="cls-3" d="M180,127.58c5.62,0,11.25-.06,16.86,0,14.46.19,28.91,0,43.36.11,1.1,0,1.08,0,1,1.07-.15,1.41-.26,2.82-.39,4.23l-.75,8.23c-.18,2-.35,3.94-.53,5.91-.19,2.16-.4,4.31-.59,6.47s-.36,4.1-.54,6.15-.4,4.21-.59,6.31-.35,4.05-.53,6.07l-.6,6.47q-.25,3-.52,5.91c-.2,2.21-.41,4.42-.6,6.63-.18,2-.35,4-.53,6.07s-.4,4.32-.59,6.47-.35,4.05-.53,6.07l-.6,6.79c-.18,2.06-.35,4.11-.53,6.16-.19,2.23-.4,4.47-.59,6.71-.18,2.05-.35,4.1-.53,6.15-.2,2.35-.41,4.69-.6,7-.19,2.16-.35,4.32-.54,6.48-.08,1-.22,2.07-.27,3.11a.75.75,0,0,1-.67.81c-2.6.72-5.19,1.47-7.79,2.2l-29.31,8.26-11.09,3.16a6.47,6.47,0,0,1-3.57-.09q-5.25-1.45-10.48-3-18.18-5.22-36.41-10.27c-1.19-.33-1.16-.33-1.26-1.52-.24-2.61-.51-5.22-.75-7.83-.18-1.88-.35-3.78-.53-5.66-.25-2.67-.51-5.33-.76-8q-.27-2.87-.52-5.75c-.25-2.69-.51-5.37-.76-8.06q-.27-2.88-.52-5.75c-.2-2.21-.41-4.42-.61-6.63-.18-2-.35-4.05-.53-6.07s-.4-4.26-.59-6.39-.35-4.1-.53-6.15-.4-4.37-.59-6.55c-.18-2-.35-4-.53-6.08-.2-2.31-.41-4.63-.61-7l-.51-6.07c-.2-2.37-.41-4.74-.61-7.11-.18-2.13-.35-4.27-.53-6.4-.19-2.32-.39-4.63-.59-7-.12-1.41-.23-2.82-.34-4.24-.17-2.08-.34-4.15-.5-6.23a2.75,2.75,0,0,1,0-.4c0-.78,0-.78.76-.81,5.16-.19,10.33-.22,15.49-.16,8,.1,16,.25,24,.13l14.85-.22C175.92,127.43,178,127.57,180,127.58Zm25.11,11H180.65c-.21,0-.38.09-.37.32,0,.51-.16,1-.16,1.51,0,3.39-.13,6.78-.14,10.18q-.09,24.72,0,49.46c0,16.51-.21,33,.14,49.53.05,2.14,0,4.28,0,6.42,0,.73.06.78.79.61l4.81-1.2c4.16-1,8.31-2.1,12.43-3.28,3.31-.94,6.62-1.84,9.93-2.77l7.3-2.08c1.52-.44,3-.9,4.53-1.33.41-.12.67-.34.66-.78,0-.64.13-1.27.15-1.91.06-1.44.31-2.85.38-4.29a17.57,17.57,0,0,1,.16-1.91c.24-1.36.26-2.75.43-4.12s.18-2.87.37-4.29c.09-.64,0-1.29.17-1.91a21.62,21.62,0,0,0,.25-2.54c.08-.81.18-1.64.23-2.46a12.32,12.32,0,0,1,.16-1.83,18.47,18.47,0,0,0,.24-2.45c.09-.87.18-1.75.24-2.63.05-.69.06-1.38.16-2.07.22-1.44.29-2.91.42-4.36.08-.84.18-1.69.23-2.55a11.08,11.08,0,0,1,.15-1.82,16.94,16.94,0,0,0,.24-2.46c.1-.86.19-1.75.24-2.62a17.87,17.87,0,0,1,.17-2.07,23.21,23.21,0,0,0,.25-2.62c.06-.9.13-1.81.23-2.7.17-1.48.28-3,.41-4.45s.32-3.07.39-4.61a14.7,14.7,0,0,1,.16-2,22.84,22.84,0,0,0,.26-2.61c.06-1,.13-1.92.23-2.87.15-1.48.24-3,.41-4.44.14-1.27.23-2.55.33-3.82.16-1.88.31-3.76.48-5.64.11-1.27.23-2.54.32-3.82s.23-2.75.32-4.13.24-2.49.32-3.74.25-2.7.32-4.05c.07-1.74.36-3.45.35-5.18a2.65,2.65,0,0,1,.07-.48c.22-1.1.18-1.16-.9-1.16ZM163,218.9l-3.83-1.07c-5.42-1.53-10.82-3.13-16.3-4.46-1-.24-2-.49-3.05-.7-.56-.12-.62-.06-.65.47,0,1.05-.1,2.09-.12,3.13a90.07,90.07,0,0,0,.45,9.85c.08.76.06.77.79.95,6,1.45,12,3.2,17.94,4.87,5.07,1.42,10.13,2.86,15.24,4.11,1.52.37,1.34.49,1.34-1.09q0-39.71,0-79.41a2.67,2.67,0,0,1,0-.4c0-.38-.13-.54-.51-.52-.16,0-.32,0-.48,0-3.34-.1-6.69,0-10-.21-.41,0-.59.11-.57.54.07,1.23-.1,2.45-.1,3.68,0,7.12-.07,14.24-.08,21.36q0,18.95,0,37.9A3,3,0,0,1,163,218.9Z"/><path class="cls-3" d="M170.47,110.25a3.27,3.27,0,0,1,1,.38,31.29,31.29,0,0,0,5.55,2,7,7,0,0,0,3.33.1,3.71,3.71,0,0,0,2.7-3.07c0-.36-.19-.4-.41-.46-1.1-.33-2.2-.66-3.3-1a28.55,28.55,0,0,1-4.33-1.44,14,14,0,0,1-1.8-1,4.41,4.41,0,0,1-2-3.13,9.4,9.4,0,0,1,0-3,5.65,5.65,0,0,1,2.39-3.74A10.21,10.21,0,0,1,179.24,94,24.75,24.75,0,0,1,186.75,95c1.07.27,1.06.28,1.06,1.41V100c-.23.17-.39,0-.55,0a33.53,33.53,0,0,0-4.45-1.56,8.56,8.56,0,0,0-3.34-.28,3.48,3.48,0,0,0-2.94,3.07c0,.36.16.4.39.47l2.4.66a41.24,41.24,0,0,1,5.32,1.72,5.55,5.55,0,0,1,3.39,3,7.06,7.06,0,0,1,.08,5,6.28,6.28,0,0,1-3,3.54,11.72,11.72,0,0,1-6,1.44,38.4,38.4,0,0,1-7.52-1.14c-.21,0-.41-.07-.45-.36C170.94,113.78,170.7,112,170.47,110.25Z"/><path class="cls-3" d="M229.71,99.7c1,.15,2,.32,2.95.41a27.55,27.55,0,0,0,7.58-.46,3.37,3.37,0,0,1,2.1.24,6,6,0,0,1,3,3.16,11.26,11.26,0,0,1,.85,5.41,13.89,13.89,0,0,1-1.12,4.65,5.81,5.81,0,0,1-4.47,3.51,17.59,17.59,0,0,1-4.64.2c-1.09-.08-1.09-.07-1.07,1.06,0,1.44,0,2.89.08,4.33,0,.41-.08.57-.52.56-1.44,0-2.89,0-4.33,0-.34,0-.51-.09-.47-.44a2.09,2.09,0,0,0,0-.25V99.7Zm5.35,13.6c1.14-.23,2.26-.26,3.35-.54a6.71,6.71,0,0,0,.75-.27,2.07,2.07,0,0,0,1.31-1.6c.49-2.36,0-4.68-.23-7,0-.2-.14-.26-.33-.26-1.6,0-3.2,0-4.85.13Z"/><path class="cls-3" d="M167.7,116.8c-1.48-.2-2.89-.38-4.29-.58-.45-.06-.9-.11-1.34-.21a1.37,1.37,0,0,0-.84.2,8.54,8.54,0,0,1-5.25.57,4.42,4.42,0,0,1-3.81-4.55l0-.56a4.45,4.45,0,0,1,2.58-4.43,14.69,14.69,0,0,1,4.5-1.38c1.05-.18,2.11-.33,3.16-.5a1.13,1.13,0,0,0,.54-.16c.07-.23-.13-.33-.25-.45a4.81,4.81,0,0,0-3.2-1.47,19.21,19.21,0,0,0-4.15.24c-.74.1-1.49.16-2.31.25a32.25,32.25,0,0,1,1.2-3.71c.08-.21.26-.25.45-.28a27,27,0,0,1,7.34-.35,7.91,7.91,0,0,1,4.59,2.09,2.82,2.82,0,0,1,.84,1.67,40.32,40.32,0,0,1,.41,6.4c0,2.27-.07,4.54-.11,6.81A3.76,3.76,0,0,1,167.7,116.8Zm-5.27-8.13-4.21.7c-.14,0-.26.07-.27.23-.13,1.15-.34,2.3-.37,3.52,1.43,0,2.78.07,4.14.12.26,0,.39-.08.4-.36s.1-.8.11-1.2C162.26,110.71,162.48,109.74,162.43,108.67Z"/><path class="cls-3" d="M127.09,105.1a4.46,4.46,0,0,0-1.92-1.34,9.21,9.21,0,0,0-4.42-.4c-1.07.1-2.12.25-3.18.38-.18-.15-.11-.35-.11-.53.06-1,.13-2,.17-3,0-.29.11-.44.42-.46a52.15,52.15,0,0,1,7.6-.37,8.7,8.7,0,0,1,3,.78,6.36,6.36,0,0,1,1.69,1.21,3.68,3.68,0,0,1,1.12,2.23,39.93,39.93,0,0,1,.35,6.08q0,3.14-.05,6.26c0,.65,0,.63-.68.57-1.49-.15-3-.26-4.47-.42a6.62,6.62,0,0,0-2.54.25c-.82.22-1.65.41-2.49.61a4.81,4.81,0,0,1-4.82-2.45,6,6,0,0,1-.22-5.19,4.2,4.2,0,0,1,2.4-2.35,28.27,28.27,0,0,1,5.2-1.3C125.1,105.52,126.07,105.39,127.09,105.1Zm-5.46,8.14c1.5,0,2.88-.15,4.26-.16.35,0,.36-.25.38-.49.07-.8.13-1.6.19-2.4,0-.47.05-.93.09-1.46-1.46.18-2.83.35-4.2.5a.35.35,0,0,0-.35.36C121.88,110.78,121.76,112,121.63,113.24Z"/><path class="cls-3" d="M99.85,112.81a9,9,0,0,1,1.78-.1,26,26,0,0,0,3.52-.24,2.36,2.36,0,0,0,2.28-2.18,32.74,32.74,0,0,0,.35-7.59c-.07-1.28-.19-2.56-.29-3.84,0-.61-.06-.62-.66-.61l-3.69,0c-.54,0-.54,0-.53-.53,0-.93.06-1.87.1-2.8,0-.69-.16-.75.74-.74l8.67,0c.29,0,.59,0,.88,0s.38.09.36.38,0,.8,0,1.2c0,2.62.15,5.24.17,7.86a45.67,45.67,0,0,1-.5,7.75,5.67,5.67,0,0,1-2.63,4.19,8.85,8.85,0,0,1-3.39,1.14,52.19,52.19,0,0,1-6.25.17c-.29,0-.42-.08-.45-.4C100.15,115.32,100,114.08,99.85,112.81Z"/><path class="cls-3" d="M142.87,110c.58-1.86,1.17-3.72,1.74-5.58.43-1.4.84-2.81,1.26-4.22.06-.22.11-.4.4-.4h4.9c.1.16,0,.32-.09.49-1.73,5.48-3.69,10.88-5.83,16.21-.28.71-.28.7-1,.58-1.27-.21-2.52-.5-3.77-.79a1.47,1.47,0,0,1-1.14-1,94.66,94.66,0,0,1-3.83-10.45c-.55-1.78-1.08-3.57-1.61-5.34a.79.79,0,0,1,.65,0c1.32.26,2.62.53,3.94.77a1.08,1.08,0,0,1,.91.74c1,2.52,1.85,5.12,2.83,7.66.18.45.36.89.53,1.34Z"/><path class="cls-3" d="M254.51,106.61a15.74,15.74,0,0,0,.27,4.54c.43,1.67.5,1.74,2.19,1.9l2.71.27c.35,0,.5.14.47.55a3.06,3.06,0,0,1-3,3.1,10.34,10.34,0,0,1-3.5-.36c-1.06-.26-2.11-.57-3.17-.84a.61.61,0,0,1-.52-.65c-.27-3.1-.42-6.19-.41-9.3a2.29,2.29,0,0,0-.47-1.47c-.68-.89-1.3-1.83-2-2.74a.4.4,0,0,1,.06-.66c.68-.6,1.33-1.24,2-1.84a1,1,0,0,0,.37-.83c0-.93,0-1.87,0-2.8,0-.39.13-.52.51-.51,1.29,0,2.57,0,3.85,0,.42,0,.56.12.56.54,0,1.21.1,2.41.12,3.61,0,.41.14.54.55.54,1.29,0,2.57,0,3.85.06.6,0,.6,0,.61.62,0,.88,0,1.77.06,2.65,0,.41-.13.49-.5.48-1.34,0-2.67,0-4,0-.43,0-.53.14-.53.54C254.6,104.85,254.55,105.73,254.51,106.61Z"/><path class="cls-3" d="M205.11,111.5a2.58,2.58,0,0,1-.14,1.06c-.19,1-.42,2-.62,3.07a.84.84,0,0,1-.58.77c-4.18,1.44-8.07,1-11.5-1.92a7.14,7.14,0,0,1-2.52-5.68,14.6,14.6,0,0,1,.06-2.09,7.69,7.69,0,0,1,3.08-5.25,10,10,0,0,1,10.35-1.38c.25.1.47.26.72.36a1.06,1.06,0,0,1,.67,1c.13,1.16.27,2.33.42,3.54a3,3,0,0,1-1.16-.34,25,25,0,0,0-3.62-1.27,5.65,5.65,0,0,0-2.77.08,1.81,1.81,0,0,0-.92.61,7,7,0,0,0-.71,7.2,3.7,3.7,0,0,0,4.43,1.8C201.87,112.49,203.48,112,205.11,111.5Z"/><path class="cls-3" d="M218.29,99.42c.1,1.59.19,3.19.31,4.79,0,.36-.16.38-.43.39l-2.88.14c-.67,0-1.33.1-2,.12s-.58.08-.6.65c-.15,3.32-.14,6.63-.17,9.95a5.77,5.77,0,0,0,0,.72c.05.43-.15.54-.55.54-1.37,0-2.73,0-4.09,0-.56,0-.58,0-.58-.58,0-2.94,0-5.88,0-8.82,0-2.49.05-5,.08-7.46,0-.16,0-.32,0-.46.24-.14.44,0,.63,0q2.48.65,4.94,1.34a1.82,1.82,0,0,0,1.24,0c1.12-.43,2.26-.81,3.39-1.21A1.2,1.2,0,0,1,218.29,99.42Z"/><path class="cls-3" d="M220.7,108.17c0-2.63,0-5.25,0-7.87,0-.62,0-.59.57-.58,1.23,0,2.46,0,3.69,0,.61,0,.61,0,.62.61,0,2.81.06,5.62.06,8.43,0,2.46,0,4.92-.06,7.39,0,.57,0,.58-.57.59-1.25,0-2.51,0-3.77,0-.44,0-.54-.14-.54-.55q0-4,0-8Z"/><path class="cls-3" d="M220.74,93.31l4.24,0c.35,0,.7,0,1,0,0,1.23,0,2.45,0,3.68,0,.33-.07.47-.44.47-1.78,0-3.56,0-5.4,0,0-1.32,0-2.59,0-3.87C220.23,93.25,220.54,93.38,220.74,93.31Z"/><path class="cls-3" d="M184.9,181.16V155.38c0-.72,0-.72.76-.74,6.1-.22,12.2-.11,18.3-.13,6.32,0,12.64,0,18.95,0h.57c.35,0,.44.11.41.47-.21,2.24-.38,4.47-.59,6.71s-.45,4.3-.68,6.46c0,.16-.07.31-.08.47a.35.35,0,0,1-.42.36c-.22,0-.43,0-.64,0H198c-.16,0-.32,0-.48,0-.78,0-.79,0-.79.79q0,10,0,20.07c0,.13,0,.27,0,.4,0,.32.13.43.43.41.94-.08,1.87-.12,2.8-.22,1.78-.18,3.56-.38,5.34-.59l6-.72,5-.57,4.06-.44c.71-.07.76-.05.71.65-.12,1.6-.25,3.19-.39,4.79s-.28,3.14-.4,4.71c-.22,2.7-.42,5.39-.63,8.08-.12,1.7-.23,3.41-.36,5.12-.19,2.4-.4,4.79-.59,7.19-.12,1.49-.24,3-.37,4.47-.1,1.2-.2,2.4-.31,3.6a1.42,1.42,0,0,1-.66,1.05,4.66,4.66,0,0,1-1.4.58c-3.46,1-7,1.84-10.45,2.77q-9.28,2.51-18.63,4.76l-1.48.34c-.29.06-.48,0-.47-.34,0-.13,0-.27,0-.4,0-3.59,0-7.17,0-10.76,0-.69.06-1.39.09-2.08s0-.63.65-.79c1.91-.49,3.84-1,5.75-1.46q8.25-2.18,16.49-4.38c.7-.18.7-.19.73-.91.07-2.2.11-4.39.23-6.58.07-1.47.12-2.94.14-4.41,0-.62,0-.63-.61-.52q-7.58,1.38-15.14,2.74c-2.55.45-5.11.87-7.66,1.3-.69.12-.72.08-.72-.71Q184.9,194,184.9,181.16Z"/></g></g></svg>