<svg xmlns="http://www.w3.org/2000/svg" viewBox="0 0 360 360"><defs><style>.cls-1{fill:#266dfe;}.cls-2{fill:#2e4050;}.cls-3{fill:#fff;}</style></defs><g id="Layer_2" data-name="Layer 2"><g id="Layer_1-2" data-name="Layer 1"><path class="cls-1" d="M360,180A180,180,0,1,1,180,0,180,180,0,0,1,360,180"/><path class="cls-2" d="M333.75,180A153.75,153.75,0,1,1,180,26.25,153.75,153.75,0,0,1,333.75,180"/><path class="cls-3" d="M234.07,141.67h22.59c2.26,1.38,2.87,3.39,2.85,6-.11,13.78-.06,27.57,0,41.36,0,1.3.16,2.61.25,4.1,9.19,0,18,.06,26.72,0,2.86,0,5.09.74,6.5,3.33v17.11c-1.3,2.62-3.31,3.43-6.29,3.41q-30.4-.21-60.82,0c-3.36,0-5.21-1.19-6.67-4.09-3.29-6.49-6.8-12.87-10.34-19.23a38.74,38.74,0,0,0-3.46-4.58l-.86.44c-.05,1.1-.14,2.2-.14,3.3,0,6.15,0,12.3,0,18.45,0,4.14-1.37,5.52-5.54,5.56-5.13.06-10.26-.08-15.38,0-3.65.1-6.82-.26-7.23-4.42-3.44,1.45-6.62,2.93-9.9,4.12a68.45,68.45,0,0,1-6.83,1.78H145.78c-7.56-1.6-15.47-2.27-20.71-8.1-4,2.17-7.3,4.29-10.88,5.87-2.54,1.12-5.4,1.51-8.11,2.23H93.76a23.92,23.92,0,0,0-2.83-.81c-12.84-2.24-20.54-9.64-23.19-22.31a7.87,7.87,0,0,0-.68-1.52v-9.58c1.3-3.73,2.06-7.77,4-11.14,5.61-9.82,14.8-13.85,25.7-13.94,6.06-.05,12.14.85,18.52,1.35,0-3.94.1-8.24,0-12.54-.09-2.74.68-4.85,3.17-6.17h21.9c2.25,1.45,2.73,3.54,2.71,6.13q-.15,19.48,0,39c0,6.13,2.93,9.06,8.63,9s8.12-2.76,8.13-9c0-13,.05-26,0-39,0-2.75.7-4.86,3.18-6.2h60.23c1.92.47,3.88.81,5.75,1.44C231,143.83,232.71,143.52,234.07,141.67ZM162.81,145v4.58c0,12.77.05,25.54,0,38.32,0,6.51-3.78,10.45-10.2,11-7.95.66-12.59-3.94-12.66-12.83-.1-12.2,0-24.41,0-36.61v-4.15H118.2v21c-7.83-4.67-16-4.47-24-4a25.05,25.05,0,0,0-14.25,5.11c-8,6.12-10,14.47-9.6,24,.38,10.27,6.25,18.73,16,22,7.4,2.48,15,2.32,22.65,1.2a22.91,22.91,0,0,0,14.3-8,13.89,13.89,0,0,1,1.27-1.14c7.33,8.95,17.3,9.54,27.51,9.77s19.82-1.54,26.88-10.24c.44,3.3-.12,7,1.39,8.3s5.2.49,7.93.51c4.28,0,8.56,0,13.13,0V186.27c4.49-.8,6.85.22,9.21,4.39,3.75,6.64,7.4,13.34,10.88,20.13,1.14,2.21,2.41,3.12,5,3.11,19.84-.1,39.68-.05,59.53-.06,1.1,0,2.19-.15,3.32-.23V196.16H256.56v-51H234.89c-.15,1-.31,1.89-.52,3.14-6-3.26-12.33-3.38-18.73-3.37-16.08,0-32.16,0-48.24,0Z"/><path class="cls-3" d="M118,180.68c.41,5,.76,9.53,1.15,14.38a56,56,0,0,0-7.09-.67,4.2,4.2,0,0,0-3.08,1.68,9.86,9.86,0,0,1-10.5,5.42c-4.39-.47-7.48-3.27-8.14-8.33A32.19,32.19,0,0,1,91,182.1c.86-3.85,3.93-6.13,7.92-6.51s7.42.52,9.52,4.5c.4.76,2,1.26,3,1.27A58.58,58.58,0,0,0,118,180.68Zm-2.93,3.24c-1.76.27-3.17.85-4.4.58-1.62-.35-3.91-1-4.48-2.17-1.66-3.49-4.33-4.26-7.56-3.67-3.47.63-5,3.33-5.53,6.57A30.13,30.13,0,0,0,93,191c.2,4,2.27,6.82,5.29,7.47,3.55.75,6.34-.64,8.19-4.45,1.13-2.33,2.9-3,5.24-2.83,1.21.1,2.41.3,4,.5Z"/><path class="cls-3" d="M201.43,172.85v-14c4.94.28,9.8.29,14.58.94,2.78.37,4.06,2.81,4,5.6S218.76,170.5,216,171C211.32,171.85,206.58,172.22,201.43,172.85Zm3.12-3.41a78,78,0,0,0,9.62-1.09c1.13-.26,2.69-2.1,2.62-3.13s-1.8-2.66-3-2.82a69.33,69.33,0,0,0-9.27-.14Z"/><path class="cls-3" d="M234.39,188.45,227.25,183l7.14-3.06Z"/></g></g></svg>