<svg id="ei1sr35gyoqj1" xmlns="http://www.w3.org/2000/svg" xmlns:xlink="http://www.w3.org/1999/xlink" viewBox="0 0 750 500" shape-rendering="geometricPrecision" text-rendering="geometricPrecision"><defs><linearGradient id="ei1sr35gyoqj32-fill" x1="409.280000" y1="397.450000" x2="398.740000" y2="254.400000" spreadMethod="pad" gradientUnits="userSpaceOnUse"><stop id="ei1sr35gyoqj32-fill-0" offset="0%" stop-color="rgb(56,85,225)"/><stop id="ei1sr35gyoqj32-fill-1" offset="100%" stop-color="rgb(92,126,247)"/></linearGradient><linearGradient id="ei1sr35gyoqj38-fill" x1="285.430000" y1="172.790000" x2="399.930000" y2="172.790000" spreadMethod="pad" gradientUnits="userSpaceOnUse"><stop id="ei1sr35gyoqj38-fill-0" offset="0%" stop-color="rgb(63,35,35)"/><stop id="ei1sr35gyoqj38-fill-1" offset="100%" stop-color="rgb(94,52,52)"/></linearGradient></defs><g id="ei1sr35gyoqj2"><rect id="ei1sr35gyoqj3" width="750" height="500" rx="0" ry="0" fill="rgb(255,255,255)" stroke="none" stroke-width="1"/></g><g id="ei1sr35gyoqj4"><path id="ei1sr35gyoqj5" d="M687.240000,366.740000C687.030000,367.610000,686.850000,368.450000,686.610000,369.320000C683.060000,383.250000,676.130000,398.180000,665.420000,413.840000L611.370000,413.680000L608.530000,413.680000L316.910000,412.860000L313.510000,412.860000L257.010000,412.700000L253.350000,412.700000L73.890000,412.200000C73.890000,412.200000,27.290000,357.380000,89.690000,306.100000C118.940000,282.100000,158.250000,285.800000,188.190000,282.690000C189.480000,282.530000,190.770000,282.400000,192.030000,282.220000C223.760000,278.090000,243.320000,264,225.280000,194.890000C222.849404,185.610020,221.871136,176.009504,222.380000,166.430000C222.430000,165.110000,222.540000,163.800000,222.670000,162.480000C228.650000,98.320000,299,43,380,75.730000C381.470000,76.310000,382.950000,76.940000,384.420000,77.600000C402.320000,85.520000,420.700000,97.770000,438.970000,115.200000C454.270000,129.790000,467.590000,142.980000,479.410000,154.960000L483.410000,159.010000C540.330000,217.140000,559.970000,245.290000,590.410000,261.820000C591.230000,262.240000,592.020000,262.690000,592.860000,263.110000C602.573449,267.975235,612.786698,271.770835,623.320000,274.430000C635.149782,277.424836,646.420535,282.303877,656.700000,288.880000Q657.880000,289.670000,658.990000,290.460000C683.530000,307.760000,694.620000,334.410000,687.240000,366.740000Z" fill="rgb(228,235,247)" stroke="none" stroke-width="1"/><path id="ei1sr35gyoqj6" d="M604.620000,115.200000C557.320000,79.250000,495.910000,87.690000,508.260000,115.200000C520.610000,142.710000,574.010000,213.570000,611.820000,201.200000C649.630000,188.830000,636,139,604.620000,115.200000Z" fill="rgb(228,235,247)" stroke="none" stroke-width="1"/><path id="ei1sr35gyoqj7" d="M659,290.470000C618.790000,322.720000,582.590000,339,550.810000,339C543.041413,339.016806,535.305706,337.990984,527.810000,335.950000C480.260000,322.890000,444.300000,268.100000,420.940000,173.160000C410.590000,130.960000,395.880000,99.360000,380.050000,75.770000C381.520000,76.350000,383,76.980000,384.470000,77.640000C399.560000,101.100000,413.470000,131.980000,423.470000,172.530000C446.590000,266.530000,481.920000,320.630000,528.470000,333.420000C564.470000,343.290000,607.470000,328.340000,656.690000,288.920000Q657.860000,289.680000,659,290.470000Z" fill="rgb(255,255,255)" stroke="none" stroke-width="1"/><path id="ei1sr35gyoqj8" d="M592.830000,263.110000Q574.660000,280.760000,557.680000,280.800000C555.115935,280.794415,552.561527,280.485603,550.070000,279.880000C516.130000,271.670000,493.280000,210,479.430000,155L483.430000,159.050000C497.280000,212.210000,519.290000,269.760000,550.730000,277.370000C563.210000,280.370000,576.510000,275.180000,590.410000,261.860000C591.200000,262.240000,592,262.690000,592.830000,263.110000Z" fill="rgb(255,255,255)" stroke="none" stroke-width="1"/><path id="ei1sr35gyoqj9" d="M316.910000,412.870000L313.510000,412.870000C335.440000,385.870000,346.390000,356.950000,345.680000,327.040000C344.360000,271.720000,303.580000,224.540000,263.680000,202.320000C247.583183,193.311670,233.511555,181.088347,222.340000,166.410000C222.390000,165.090000,222.500000,163.780000,222.630000,162.460000C233.876899,177.886039,248.331621,190.692984,265,200C305.490000,222.590000,347,270.590000,348.300000,327C348.870000,350.200000,342.520000,380.540000,316.910000,412.870000Z" fill="rgb(255,255,255)" stroke="none" stroke-width="1"/><path id="ei1sr35gyoqj10" d="M257,412.710000L253.340000,412.710000C266.690000,396.940000,275.340000,379.460000,274.800000,362.320000C274.060000,339.570000,257.660000,320.460000,226.070000,305.530000C212.732852,299.160572,200.043664,291.514909,188.180000,282.700000C189.470000,282.540000,190.760000,282.410000,192.020000,282.230000C203.085300,290.248757,214.857145,297.244252,227.190000,303.130000C259.760000,318.530000,276.660000,338.410000,277.420000,362.210000C278,380,269.620000,397.330000,257,412.710000Z" fill="rgb(255,255,255)" stroke="none" stroke-width="1"/><path id="ei1sr35gyoqj11" d="M687.240000,366.740000C687.030000,367.610000,686.850000,368.450000,686.610000,369.320000C667.070000,367.690000,650.540000,371.510000,637.190000,380.770000C625.110000,389.140000,616.920000,401.150000,611.360000,413.680000L608.520000,413.680000C614.230000,400.410000,622.820000,387.540000,635.690000,378.610000C649.650000,368.920000,666.920000,364.950000,687.240000,366.740000Z" fill="rgb(255,255,255)" stroke="none" stroke-width="1"/><path id="ei1sr35gyoqj12" d="M111.490000,413.840000C111.490000,413.840000,112.560000,285.390000,90.800000,243.640000C69.040000,201.890000,23,194.760000,23,194.760000C23,194.760000,72.240000,207.600000,90.790000,257.200000C109.340000,306.800000,103.640000,413.840000,103.640000,413.840000Z" fill="rgb(171,218,247)" stroke="none" stroke-width="1"/><g id="ei1sr35gyoqj13"><path id="ei1sr35gyoqj14" d="M104.370000,389.570000C33.610000,389.140000,32.640000,310.570000,32.640000,306.250000L32.640000,306.080000C49.080000,330.630000,107.190000,328.520000,104.370000,389.570000Z" fill="rgb(171,218,247)" stroke="none" stroke-width="1"/><path id="ei1sr35gyoqj15" d="M104.370000,389.570000C33.610000,389.140000,32.640000,310.570000,32.640000,306.250000C32.780000,309.680000,35.520000,361.770000,67.260000,370.700000C100.060000,379.920000,104.370000,389.570000,104.370000,389.570000Z" fill="rgb(112,178,221)" stroke="none" stroke-width="1"/></g><g id="ei1sr35gyoqj16"><path id="ei1sr35gyoqj17" d="M171.790000,354.610000C163.600000,377.070000,175.700000,399.910000,155.030000,413.840000L119,413.840000C119,413.840000,116.840000,363.540000,171.790000,354.610000Z" fill="rgb(171,218,247)" stroke="none" stroke-width="1"/><path id="ei1sr35gyoqj18" d="M171.790000,354.610000C163.600000,377.070000,175.700000,399.910000,155.030000,413.840000L141.390000,413.840000C159,398.680000,161.200000,371.420000,171.790000,354.610000Z" fill="rgb(112,178,221)" stroke="none" stroke-width="1"/></g><g id="ei1sr35gyoqj19"><path id="ei1sr35gyoqj20" d="M156.090000,245.770000C156.090000,245.770000,150.750000,251.480000,148.240000,276.480000C145.760000,301.260000,124.240000,313.900000,107.240000,315.220000L106.900000,315.220000L106.810000,314.910000L106.180000,312.540000L101.840000,296.540000C101.840000,296.540000,96.430000,252.840000,154.180000,246C154.800000,245.910000,155.430000,245.820000,156.090000,245.770000Z" fill="rgb(171,218,247)" stroke="none" stroke-width="1"/><path id="ei1sr35gyoqj21" d="M156.090000,245.770000C156.090000,245.770000,150.750000,251.480000,148.240000,276.480000C145.760000,301.260000,124.240000,313.900000,107.240000,315.220000L106.810000,314.930000L104.410000,313.220000C105.010000,313.020000,105.610000,312.790000,106.180000,312.560000C141.320000,299.320000,141.630000,266.370000,154.180000,245.970000C154.800000,245.910000,155.430000,245.820000,156.090000,245.770000Z" fill="rgb(112,178,221)" stroke="none" stroke-width="1"/></g><g id="ei1sr35gyoqj22"><path id="ei1sr35gyoqj23" d="M101.770000,279.820000L101.540000,279.880000C97.970000,280.680000,56.540000,289.240000,47.850000,248.110000C39.400000,207.780000,24.930000,196.190000,23.160000,194.870000L23.070000,194.780000C102.340000,207.430000,101.770000,279.820000,101.770000,279.820000Z" fill="rgb(171,218,247)" stroke="none" stroke-width="1"/><path id="ei1sr35gyoqj24" d="M101.770000,279.820000L101.540000,279.880000C97.970000,280.680000,56.540000,289.240000,47.850000,248.110000C39.400000,207.780000,24.930000,196.190000,23.160000,194.870000C62.350000,215.620000,43.420000,273.450000,101.770000,279.820000Z" fill="rgb(112,178,221)" stroke="none" stroke-width="1"/></g><rect id="ei1sr35gyoqj25" width="630.840000" height="13.560000" rx="0" ry="0" transform="matrix(1 0 0 1 56.90000000000000 413.83999999999997)" fill="rgb(112,178,221)" stroke="none" stroke-width="1"/><path id="ei1sr35gyoqj26" d="M558.090000,370.060000C558.090000,370.060000,565.700000,360.780000,561.900000,351.270000C559.510000,345.270000,555.480000,345.560000,546.680000,334.860000C537.880000,324.160000,530.270000,297.510000,558.100000,301.800000C585.930000,306.090000,593.780000,302.280000,588.790000,294.900000C583.800000,287.520000,566.890000,276.580000,573.440000,262.070000C579.990000,247.560000,605.210000,252.560000,629.710000,254.700000C654.210000,256.840000,646.120000,246.140000,661.110000,253.270000C676.100000,260.400000,676.110000,301.320000,641.600000,298.700000C607.090000,296.080000,600.690000,297.920000,602.110000,310.560000C603.530000,323.200000,609.480000,344.850000,587.110000,336.640000C564.740000,328.430000,570.880000,339.080000,574.980000,347.880000C580.210000,359.120000,567.370000,370.060000,567.370000,370.060000Z" fill="rgb(255,255,255)" stroke="none" stroke-width="1"/><path id="ei1sr35gyoqj27" d="M555.480000,270.870000C548.220000,269.420000,540.480000,257.550000,534.310000,268.020000C529.310000,276.460000,544.540000,288.950000,556.190000,283.960000C565.420000,280,565,272.780000,555.480000,270.870000Z" fill="rgb(255,255,255)" stroke="none" stroke-width="1"/><path id="ei1sr35gyoqj28" d="M588.780000,408.600000L588.780000,402.890000C596.233138,402.861384,602.779795,397.934098,604.870000,390.780000L605.870000,387.450000C606.451489,385.435750,606.052100,383.265311,604.791681,381.589997C603.531263,379.914683,601.556505,378.929468,599.460000,378.930000L595,378.930000L595,373.220000L599.460000,373.220000C603.336798,373.233761,606.983291,375.062792,609.312526,378.161891C611.641760,381.260991,612.384741,385.272255,611.320000,389L610.320000,392.330000C607.534635,401.924542,598.770516,408.544422,588.780000,408.600000Z" fill="rgb(112,178,221)" stroke="none" stroke-width="1"/><path id="ei1sr35gyoqj29" d="M598.420000,370.340000L597.590000,376.080000L593.280000,405.770000C592.610327,410.399701,588.647869,413.838655,583.970000,413.850000L562.710000,413.850000C558.014126,413.858196,554.035789,410.392642,553.400000,405.740000L549.230000,376.080000L548.430000,370.310000C548.222766,368.865929,548.656560,367.403372,549.617637,366.305821C550.578715,365.208270,551.971210,364.585206,553.430000,364.600000L593.430000,364.600000C594.893112,364.586804,596.288586,365.215149,597.248546,366.319391C598.208505,367.423633,598.636609,368.892950,598.420000,370.340000Z" fill="rgb(171,218,247)" stroke="none" stroke-width="1"/><path id="ei1sr35gyoqj30" d="M598.420000,370.340000L597.590000,376.080000L549.230000,376.080000L548.430000,370.310000C548.222766,368.865929,548.656560,367.403372,549.617637,366.305821C550.578715,365.208270,551.971210,364.585206,553.430000,364.600000L593.430000,364.600000C594.893112,364.586804,596.288586,365.215149,597.248546,366.319391C598.208505,367.423633,598.636609,368.892950,598.420000,370.340000Z" fill="rgb(112,178,221)" stroke="none" stroke-width="1"/><path id="ei1sr35gyoqj31" d="M508.260000,413.840000C508.260000,413.840000,514.990000,408.740000,512.540000,385.650000C510.090000,362.560000,508.260000,346.220000,508.260000,346.220000L457.770000,351.750000L463.480000,398Z" fill="rgb(242,156,139)" stroke="none" stroke-width="1"/><path id="ei1sr35gyoqj32" d="M464.090000,363.540000L470.800000,413.840000L305.240000,413.840000C305.240000,413.840000,288.830000,291.550000,323.790000,263.320000C339.120000,250.930000,358.700000,245.320000,375.790000,242.940000L375.850000,242.940000C389.023968,241.097838,402.368699,240.809194,415.610000,242.080000C428.851301,243.350806,419.750000,242.080000,426.090000,242.620000C440.330000,243.880000,465.740000,248.010000,480.780000,261.830000C502.530000,281.830000,512.520000,362.110000,512.520000,362.110000C512.520000,362.110000,493.400000,366.390000,464.090000,363.540000Z" fill="url(#ei1sr35gyoqj32-fill)" stroke="none" stroke-width="1"/><path id="ei1sr35gyoqj33" d="M464.080000,363.530000L456.520000,362.460000L433,301.080000C433,301.080000,433.810000,370.590000,411.880000,391.260000C389.950000,411.930000,334.760000,401.940000,334.760000,401.940000L327,301.080000L310.450000,352.720000L321.390000,413.840000L470.790000,413.840000Z" fill="rgb(49,80,188)" stroke="none" stroke-width="1"/><path id="ei1sr35gyoqj34" d="M426.090000,242.620000C424.610000,256.490000,420.520000,276.700000,409.090000,285.010000C390.880000,298.200000,374.290000,292.690000,367.160000,279.130000C360.030000,265.570000,368.590000,245.960000,370.900000,244.330000L375.810000,242.930000L375.870000,242.930000C389.043968,241.087838,402.388699,240.799194,415.630000,242.070000C428.871301,243.340806,419.760000,242.050000,426.090000,242.620000Z" fill="rgb(120,170,249)" stroke="none" stroke-width="1"/><path id="ei1sr35gyoqj35" d="M305.240000,413.840000L281.240000,413.840000C273.919840,413.840406,266.986891,410.551623,262.356345,404.882161C257.725800,399.212699,255.887769,391.762631,257.350000,384.590000L267.410000,335Z" fill="rgb(242,156,139)" stroke="none" stroke-width="1"/><path id="ei1sr35gyoqj36" d="M302.220000,327.570000C302.220000,327.570000,305.980000,319.460000,302.220000,316.070000C299.891009,314.034817,296.912705,312.896679,293.820000,312.860000C290.727295,312.823321,291.500000,304.860000,277.050000,306.260000C262.600000,307.660000,261.220000,321.260000,269.310000,327.660000Z" fill="rgb(254,177,158)" stroke="none" stroke-width="1"/><path id="ei1sr35gyoqj37" d="M292.930000,318.750000L276.800000,275.860000C276.129457,274.079443,274.217835,273.097682,272.380000,273.590000L272.380000,273.590000C271.348319,273.865465,270.485953,274.573221,270.014549,275.531358C269.543146,276.489495,269.508676,277.604576,269.920000,278.590000L287,320Z" fill="rgb(82,85,89)" stroke="none" stroke-width="1"/><path id="ei1sr35gyoqj38" d="M399.790000,183.160000C399.790000,183.160000,401.220000,158.720000,395,151C388.780000,143.280000,382.080000,146.180000,382.080000,146.180000C382.080000,146.180000,382.150000,134.410000,366.990000,131.020000C351.830000,127.630000,334.700000,130.660000,321.850000,142.440000C309,154.220000,290.090000,148.100000,290.090000,156.440000C290.090000,164.780000,301.860000,167.850000,301.860000,167.850000C301.860000,167.850000,285.630000,166.720000,285.450000,173.850000C285.270000,180.980000,297.050000,193.470000,312.920000,193.120000C312.920000,193.120000,316.490000,216.490000,339.320000,215.780000L373.930000,203.780000L396.930000,191.650000Z" fill="url(#ei1sr35gyoqj38-fill)" stroke="none" stroke-width="1"/><path id="ei1sr35gyoqj39" d="M415.620000,242.080000C415.620000,242.080000,410.500000,287.700000,386.100000,284.670000C372.580000,282.990000,371.710000,271.080000,372.880000,263.320000C373.295600,260.366443,374.060974,257.472790,375.160000,254.700000L363,237.800000L397.250000,201.180000C402.660000,218.480000,408.540000,233.260000,415.620000,242.080000Z" fill="rgb(254,177,158)" stroke="none" stroke-width="1"/><path id="ei1sr35gyoqj40" d="M372.890000,263.320000C373.305600,260.366443,374.070974,257.472790,375.170000,254.700000L363,237.800000L397.250000,201.180000C410.650000,248.930000,385.300000,260.520000,372.890000,263.320000Z" fill="rgb(255,133,106)" stroke="none" stroke-width="1"/><path id="ei1sr35gyoqj41" d="M323.790000,195.470000C323.790000,195.470000,348.450000,250,374.220000,248C395.870000,246.330000,402.650000,210.770000,397.290000,201.140000C397.290000,201.140000,406.920000,202.030000,404.780000,190.790000C402.640000,179.550000,392.110000,168.310000,390.150000,190.790000C390.150000,190.790000,377.540000,194.950000,373.500000,167.790000C373.500000,167.790000,361.130000,188.010000,351.850000,190.390000C342.570000,192.770000,345.190000,183.490000,345.190000,183.490000C345.190000,183.490000,339.490000,192.610000,323.790000,195.470000Z" fill="rgb(254,177,158)" stroke="none" stroke-width="1"/><path id="ei1sr35gyoqj42" d="M390.070000,413.840000L298.500000,413.840000C295.463721,413.839189,292.736038,411.983730,291.620000,409.160000L288.620000,401.620000L263.500000,337.680000C262.602858,335.403984,262.890256,332.831482,264.267561,330.809567C265.644867,328.787651,267.933552,327.578402,270.380000,327.580000L360.900000,327.580000C363.903147,327.588062,366.606143,329.403213,367.750000,332.180000L396.890000,403.660000C397.817534,405.934950,397.553868,408.522111,396.186473,410.563178C394.819079,412.604244,392.526758,413.832326,390.070000,413.840000Z" fill="rgb(27,49,81)" stroke="none" stroke-width="1"/><path id="ei1sr35gyoqj43" d="M383.620000,413.840000L298.500000,413.840000C295.463721,413.839189,292.736038,411.983730,291.620000,409.160000L288.620000,401.620000L263.500000,337.680000C262.602858,335.403984,262.890256,332.831482,264.267561,330.809567C265.644867,328.787651,267.933552,327.578402,270.380000,327.580000L354.440000,327.580000C355.176848,327.576739,355.909461,327.691526,356.610000,327.920000C358.729953,328.560429,360.448845,330.121389,361.290000,332.170000L390.430000,403.650000C391.355917,405.924477,391.093180,408.510134,389.728680,410.551875C388.364180,412.593617,386.075678,413.825450,383.620000,413.840000Z" fill="rgb(35,64,109)" stroke="none" stroke-width="1"/><ellipse id="ei1sr35gyoqj44" rx="6.780000" ry="10.360000" transform="matrix(0.96159800000000 -0.27446300000000 0.27446300000000 0.96159800000000 325.70229458000006 368.56923855999992)" fill="rgb(78,121,183)" stroke="none" stroke-width="1"/><path id="ei1sr35gyoqj45" d="M390.070000,413.840000L298.500000,413.840000C295.463721,413.839189,292.736038,411.983730,291.620000,409.160000L288.620000,401.620000C333.830000,396.910000,350.930000,350.520000,356.620000,327.920000L356.710000,327.580000L360.910000,327.580000C363.913147,327.588062,366.616143,329.403213,367.760000,332.180000L396.900000,403.660000C397.828192,405.936587,397.563434,408.525709,396.193675,410.567313C394.823915,412.608917,392.528530,413.835644,390.070000,413.840000Z" opacity="0.49" fill="rgb(27,49,81)" stroke="none" stroke-width="1"/><path id="ei1sr35gyoqj46" d="M508.260000,413.840000C508.260000,413.840000,497.910000,374.230000,394.440000,354.250000C394.440000,354.250000,386.590000,336.050000,370.180000,334.980000L372.680000,346.400000C372.680000,346.400000,354.480000,350.150000,337.530000,348.010000C320.580000,345.870000,332.890000,363.170000,344.310000,371.740000C355.730000,380.310000,358,385.650000,375.530000,381.900000C393.060000,378.150000,397.120000,377.440000,397.120000,377.440000C397.120000,377.440000,419.410000,401,444,413.840000Z" fill="rgb(254,177,158)" stroke="none" stroke-width="1"/><circle id="ei1sr35gyoqj47" r="41.510000" transform="matrix(1 0 0 1 218.53000000000000 125.53000000000000)" fill="rgb(112,178,221)" stroke="none" stroke-width="1"/><circle id="ei1sr35gyoqj48" r="30.540000" transform="matrix(1 0 0 1 218.53000000000000 125.53000000000000)" fill="rgb(171,218,247)" stroke="none" stroke-width="1"/><path id="ei1sr35gyoqj49" d="M235.730000,124.150000L220.730000,124.150000L220.730000,103.820000C220.730000,102.215613,219.429387,100.915000,217.825000,100.915000C216.220613,100.915000,214.920000,102.215613,214.920000,103.820000L214.920000,129.480000L235.770000,129.480000C236.761072,129.540738,237.703990,129.046493,238.217895,128.196896C238.731801,127.347300,238.731801,126.282700,238.217895,125.433104C237.703990,124.583507,236.761072,124.089262,235.770000,124.150000Z" fill="rgb(112,178,221)" stroke="none" stroke-width="1"/></g><script><![CDATA[!function(t,n){"object"==typeof exports&&"undefined"!=typeof module?module.exports=n():"function"==typeof define&&define.amd?define(n):(t=t||self).__SVGATOR_PLAYER__=n()}(this,(function(){"use strict";function t(n){return(t="function"==typeof Symbol&&"symbol"==typeof Symbol.iterator?function(t){return typeof t}:function(t){return t&&"function"==typeof Symbol&&t.constructor===Symbol&&t!==Symbol.prototype?"symbol":typeof t})(n)}function n(t,n){if(!(t instanceof n))throw new TypeError("Cannot call a class as a function")}function r(t,n){for(var r=0;r<n.length;r++){var e=n[r];e.enumerable=e.enumerable||!1,e.configurable=!0,"value"in e&&(e.writable=!0),Object.defineProperty(t,e.key,e)}}function e(t,n,e){return n&&r(t.prototype,n),e&&r(t,e),t}var i=1e-5,u=Math.abs;function o(t){return t}function a(t,n,r){var e=1-r;return 3*r*e*(t*e+n*r)+r*r*r}function l(){var t=arguments.length>0&&void 0!==arguments[0]?arguments[0]:0,n=arguments.length>1&&void 0!==arguments[1]?arguments[1]:0,r=arguments.length>2&&void 0!==arguments[2]?arguments[2]:1,e=arguments.length>3&&void 0!==arguments[3]?arguments[3]:1;return t<0||t>1||r<0||r>1?null:u(t-n)<=i&&u(r-e)<=i?o:function(o){if(o<=0)return t>0?o*n/t:0===n&&r>0?o*e/r:0;if(o>=1)return r<1?1+(o-1)*(e-1)/(r-1):1===r&&t<1?1+(o-1)*(n-1)/(t-1):1;for(var l,f=0,s=1;f<s;){var c=a(t,r,l=(f+s)/2);if(u(o-c)<i)break;c<o?f=l:s=l}return a(n,e,l)}}function f(){return 1}function s(t){return 1===t?1:0}function c(){var t=arguments.length>0&&void 0!==arguments[0]?arguments[0]:1,n=arguments.length>1&&void 0!==arguments[1]?arguments[1]:0;if(1===t){if(0===n)return s;if(1===n)return f}var r=1/t;return function(t){return t>=1?1:(t+=n*r)-t%r}}function v(t){var n=arguments.length>1&&void 0!==arguments[1]?arguments[1]:2;if(Number.isInteger(t))return t;var r=Math.pow(10,n);return Math.round(t*r)/r}var h=Math.PI/180;function y(t,n,r){return t>=.5?r:n}function d(t,n,r){return 0===t||n===r?n:t*(r-n)+n}function g(t,n,r){var e=d(t,n,r);return e<=0?0:e}function m(t,n,r){return 0===t?n:1===t?r:{x:d(t,n.x,r.x),y:d(t,n.y,r.y)}}function p(t,n,r){return 0===t?n:1===t?r:{x:g(t,n.x,r.x),y:g(t,n.y,r.y)}}function b(t,n,r){var e=function(t,n,r){return Math.round(d(t,n,r))}(t,n,r);return e<=0?0:e>=255?255:e}function w(t,n,r){return 0===t?n:1===t?r:{r:b(t,n.r,r.r),g:b(t,n.g,r.g),b:b(t,n.b,r.b),a:d(t,null==n.a?1:n.a,null==r.a?1:r.a)}}function A(t,n,r){if(0===t)return n;if(1===t)return r;var e=n.length;if(e!==r.length)return y(t,n,r);for(var i=[],u=0;u<e;u++)i.push(w(t,n[u],r[u]));return i}function x(t,n,r){var e=n.length;if(e!==r.length)return y(t,n,r);for(var i=new Array(e),u=0;u<e;u++)i[u]=d(t,n[u],r[u]);return i}function k(t,n){for(var r=[],e=0;e<t;e++)r.push(n);return r}function S(t,n){if(--n<=0)return t;var r=(t=Object.assign([],t)).length;do{for(var e=0;e<r;e++)t.push(t[e])}while(--n>0);return t}var _=6,M=/\.0+$/g;function I(t){return Number.isInteger(t)?t+"":t.toFixed(_).replace(M,"")}function E(t){var n=arguments.length>1&&void 0!==arguments[1]?arguments[1]:" ";return t&&t.length?t.map(I).join(n):""}function F(t){return I(t.x)+","+I(t.y)}function B(t){return t?null==t.a||t.a>=1?"rgb("+t.r+","+t.g+","+t.b+")":"rgba("+t.r+","+t.g+","+t.b+","+t.a+")":"transparent"}var j={f:null,i:p,u:function(t,n){return function(r){var e=n(r);t.setAttribute("rx",I(e.x)),t.setAttribute("ry",I(e.y))}}},q={f:null,i:function(t,n,r){return 0===t?n:1===t?r:{width:g(t,n.width,r.width),height:g(t,n.height,r.height)}},u:function(t,n){return function(r){var e=n(r);t.setAttribute("width",I(e.width)),t.setAttribute("height",I(e.height))}}},P=Math.sin,O=Math.cos,z=Math.acos,L=Math.asin,C=Math.tan,R=Math.atan2,T=Math.PI/180,V=180/Math.PI,D=Math.sqrt,N=function(){function t(){var r=arguments.length>0&&void 0!==arguments[0]?arguments[0]:1,e=arguments.length>1&&void 0!==arguments[1]?arguments[1]:0,i=arguments.length>2&&void 0!==arguments[2]?arguments[2]:0,u=arguments.length>3&&void 0!==arguments[3]?arguments[3]:1,o=arguments.length>4&&void 0!==arguments[4]?arguments[4]:0,a=arguments.length>5&&void 0!==arguments[5]?arguments[5]:0;n(this,t),this.m=[r,e,i,u,o,a],this.i=null,this.w=null,this.s=null}return e(t,[{key:"point",value:function(t,n){var r=this.m;return{x:r[0]*t+r[2]*n+r[4],y:r[1]*t+r[3]*n+r[5]}}},{key:"translateSelf",value:function(){var t=arguments.length>0&&void 0!==arguments[0]?arguments[0]:0,n=arguments.length>1&&void 0!==arguments[1]?arguments[1]:0;if(!t&&!n)return this;var r=this.m;return r[4]+=r[0]*t+r[2]*n,r[5]+=r[1]*t+r[3]*n,this.w=this.s=this.i=null,this}},{key:"rotateSelf",value:function(){var t=arguments.length>0&&void 0!==arguments[0]?arguments[0]:0;if(t%=360){var n=P(t*=T),r=O(t),e=this.m,i=e[0],u=e[1];e[0]=i*r+e[2]*n,e[1]=u*r+e[3]*n,e[2]=e[2]*r-i*n,e[3]=e[3]*r-u*n,this.w=this.s=this.i=null}return this}},{key:"scaleSelf",value:function(){var t=arguments.length>0&&void 0!==arguments[0]?arguments[0]:1,n=arguments.length>1&&void 0!==arguments[1]?arguments[1]:1;if(1!==t||1!==n){var r=this.m;r[0]*=t,r[1]*=t,r[2]*=n,r[3]*=n,this.w=this.s=this.i=null}return this}},{key:"skewSelf",value:function(t,n){if(n%=360,(t%=360)||n){var r=this.m,e=r[0],i=r[1],u=r[2],o=r[3];t&&(t=C(t*T),r[2]+=e*t,r[3]+=i*t),n&&(n=C(n*T),r[0]+=u*n,r[1]+=o*n),this.w=this.s=this.i=null}return this}},{key:"resetSelf",value:function(){var t=arguments.length>0&&void 0!==arguments[0]?arguments[0]:1,n=arguments.length>1&&void 0!==arguments[1]?arguments[1]:0,r=arguments.length>2&&void 0!==arguments[2]?arguments[2]:0,e=arguments.length>3&&void 0!==arguments[3]?arguments[3]:1,i=arguments.length>4&&void 0!==arguments[4]?arguments[4]:0,u=arguments.length>5&&void 0!==arguments[5]?arguments[5]:0,o=this.m;return o[0]=t,o[1]=n,o[2]=r,o[3]=e,o[4]=i,o[5]=u,this.w=this.s=this.i=null,this}},{key:"recomposeSelf",value:function(){var t=arguments.length>0&&void 0!==arguments[0]?arguments[0]:null,n=arguments.length>1&&void 0!==arguments[1]?arguments[1]:null,r=arguments.length>2&&void 0!==arguments[2]?arguments[2]:null,e=arguments.length>3&&void 0!==arguments[3]?arguments[3]:null,i=arguments.length>4&&void 0!==arguments[4]?arguments[4]:null;return this.isIdentity||this.resetSelf(),t&&(t.x||t.y)&&this.translateSelf(t.x,t.y),n&&this.rotateSelf(n),r&&(r.x&&this.skewSelf(r.x,0),r.y&&this.skewSelf(0,r.y)),!e||1===e.x&&1===e.y||this.scaleSelf(e.x,e.y),i&&(i.x||i.y)&&this.translateSelf(i.x,i.y),this}},{key:"decompose",value:function(){var t=arguments.length>0&&void 0!==arguments[0]?arguments[0]:0,n=arguments.length>1&&void 0!==arguments[1]?arguments[1]:0,r=this.m,e=r[0]*r[0]+r[1]*r[1],i=[[r[0],r[1]],[r[2],r[3]]],u=D(e);if(0===u)return{origin:{x:r[4],y:r[5]},translate:{x:t,y:n},scale:{x:0,y:0},skew:{x:0,y:0},rotate:0};i[0][0]/=u,i[0][1]/=u;var o=r[0]*r[3]-r[1]*r[2]<0;o&&(u=-u);var a=i[0][0]*i[1][0]+i[0][1]*i[1][1];i[1][0]-=i[0][0]*a,i[1][1]-=i[0][1]*a;var l=D(i[1][0]*i[1][0]+i[1][1]*i[1][1]);if(0===l)return{origin:{x:r[4],y:r[5]},translate:{x:t,y:n},scale:{x:u,y:0},skew:{x:0,y:0},rotate:0};i[1][0]/=l,i[1][1]/=l,a/=l;var f=0;return i[1][1]<0?(f=z(i[1][1])*V,i[0][1]<0&&(f=360-f)):f=L(i[0][1])*V,o&&(f=-f),a=R(a,D(i[0][0]*i[0][0]+i[0][1]*i[0][1]))*V,{origin:{x:r[4],y:r[5]},translate:{x:t,y:n},scale:{x:u,y:l},skew:{x:a,y:0},rotate:f}}},{key:"toString",value:function(){return null===this.s&&(this.s="matrix("+this.m.map($).join(" ")+")"),this.s}},{key:"determinant",get:function(){var t=this.m;return t[0]*t[3]-t[1]*t[2]}},{key:"isIdentity",get:function(){if(null===this.i){var t=this.m;this.i=1===t[0]&&0===t[1]&&0===t[2]&&1===t[3]&&0===t[4]&&0===t[5]}return this.i}}]),t}(),G=/\.0+$/;function $(t){return Number.isInteger(t)?t:t.toFixed(14).replace(G,"")}Object.freeze({M:2,L:2,Z:0,H:1,V:1,C:6,Q:4,T:2,S:4,A:7});function H(t,n,r){return t+(n-t)*r}function Q(t,n,r){var e=arguments.length>3&&void 0!==arguments[3]&&arguments[3],i={x:H(t.x,n.x,r),y:H(t.y,n.y,r)};return e&&(i.a=function(t,n){return Math.atan2(n.y-t.y,n.x-t.x)}(t,n)),i}function U(t,n,r,e){var i=1-e;return i*i*t+2*i*e*n+e*e*r}function Y(t,n,r,e){return 2*(1-e)*(n-t)+2*e*(r-n)}function Z(t,n,r,e){var i=arguments.length>4&&void 0!==arguments[4]&&arguments[4],u={x:U(t.x,n.x,r.x,e),y:U(t.y,n.y,r.y,e)};return i&&(u.a=function(t,n,r,e){return Math.atan2(Y(t.y,n.y,r.y,e),Y(t.x,n.x,r.x,e))}(t,n,r,e)),u}function J(t,n,r,e,i){var u=i*i;return i*u*(e-t+3*(n-r))+3*u*(t+r-2*n)+3*i*(n-t)+t}function K(t,n,r,e,i){var u=1-i;return 3*(u*u*(n-t)+2*u*i*(r-n)+i*i*(e-r))}function W(t,n,r,e,i){var u=arguments.length>5&&void 0!==arguments[5]&&arguments[5],o={x:J(t.x,n.x,r.x,e.x,i),y:J(t.y,n.y,r.y,e.y,i)};return u&&(o.a=function(t,n,r,e,i){return Math.atan2(K(t.y,n.y,r.y,e.y,i),K(t.x,n.x,r.x,e.x,i))}(t,n,r,e,i)),o}function X(t,n,r){var e,i=arguments.length>3&&void 0!==arguments[3]&&arguments[3];if(nt(n)){if(null!=(e=r).start&&!nt(e))return Z(n,r.start,r,t,i)}else if(nt(r)){if(n.end)return Z(n,n.end,r,t,i)}else{if(n.end)return r.start?W(n,n.end,r.start,r,t,i):Z(n,n.end,r,t,i);if(r.start)return Z(n,r.start,r,t,i)}return Q(n,r,t,i)}function tt(t,n,r){var e=X(t,n,r,!0);return e.a=function(t){return arguments.length>1&&void 0!==arguments[1]&&arguments[1]?t+Math.PI:t}(e.a)/h,e}function nt(t){return!t.type||"corner"===t.type}var rt=new N;var et={f:function(t){return t?t.join(" "):""},i:function(n,r,e){if(0===n)return r;if(1===n)return e;var i=r.length;if(i!==e.length)return y(n,r,e);for(var u,o=new Array(i),a=0;a<i;a++){if((u=t(r[a]))!==t(e[a]))return y(n,r,e);if("number"===u)o[a]=d(n,r[a],e[a]);else{if(r[a]!==e[a])return y(n,r,e);o[a]=r[a]}}return o}},it={f:null,i:x,u:function(t,n){return function(r){var e=n(r);t.setAttribute("x1",I(e[0])),t.setAttribute("y1",I(e[1])),t.setAttribute("x2",I(e[2])),t.setAttribute("y2",I(e[3]))}}},ut={f:I,i:d},ot={f:I,i:function(t,n,r){var e=d(t,n,r);return e<=0?0:e>=1?1:e}},at={f:E,i:function(t,n,r){var e,i,u,o=n.length,a=r.length;if(o!==a)if(0===o)n=k(o=a,0);else if(0===a)a=o,r=k(o,0);else{var l=(u=(e=o)*(i=a)/function(t,n){for(var r;n;)r=n,n=t%n,t=r;return t||1}(e,i))<0?-u:u;n=S(n,Math.floor(l/o)),r=S(r,Math.floor(l/a)),o=a=l}for(var f=[],s=0;s<o;s++)f.push(v(g(t,n[s],r[s]),6));return f}};function lt(t,n,r,e,i,u,o,a){return n=function(t,n,r){for(var e,i,u,o=t.length-1,a={},l=0;l<=o;l++)(e=t[l]).e&&(e.e=n(e.e)),e.v&&"g"===(i=e.v).t&&i.r&&(u=r.getElementById(i.r))&&(a[i.r]=u.querySelectorAll("stop"));return a}(t,e,a),function(e){var i,u=r(e,t,ft);return u?"c"===u.t?B(u.v):"g"===u.t?(n[u.r]&&function(t,n){for(var r=0,e=t.length;r<e;r++)t[r].setAttribute("stop-color",B(n[r]))}(n[u.r],u.v),(i=u.r)?"url(#"+i+")":"none"):"none":"none"}}function ft(t,n,r){if(0===t)return n;if(1===t)return r;if(n&&r){var e=n.t;if(e===r.t)switch(n.t){case"c":return{t:e,v:w(t,n.v,r.v)};case"g":if(n.r===r.r)return{t:e,v:A(t,n.v,r.v),r:n.r}}}return y(t,n,r)}var st={blur:p,brightness:g,contrast:g,"drop-shadow":function(t,n,r){return 0===t?n:1===t?r:{blur:p(t,n.blur,r.blur),offset:m(t,n.offset,r.offset),color:w(t,n.color,r.color)}},grayscale:g,"hue-rotate":d,invert:g,opacity:g,saturate:g,sepia:g};function ct(t,n,r){if(0===t)return n;if(1===t)return r;var e=n.length;if(e!==r.length)return y(t,n,r);for(var i,u=[],o=0;o<e;o++){if(n[o].type!==r[o].type)return n;if(!(i=st[n[o].type]))return y(t,n,r);u.push({type:n.type,value:i(t,n[o].value,r[o].value)})}return u}var vt={blur:function(t){return t?function(n){t.setAttribute("stdDeviation",F(n))}:null},brightness:function(t,n,r){return(t=yt(r,n))?function(n){n=I(n),t.map((function(t){return t.setAttribute("slope",n)}))}:null},contrast:function(t,n,r){return(t=yt(r,n))?function(n){var r=I((1-n)/2);n=I(n),t.map((function(t){t.setAttribute("slope",n),t.setAttribute("intercept",r)}))}:null},"drop-shadow":function(t,n,r){var e=r.getElementById(n+"-blur");if(!e)return null;var i=r.getElementById(n+"-offset");if(!i)return null;var u=r.getElementById(n+"-flood");return u?function(t){e.setAttribute("stdDeviation",F(t.blur)),i.setAttribute("dx",I(t.offset.x)),i.setAttribute("dy",I(t.offset.y)),u.setAttribute("flood-color",B(t.color))}:null},grayscale:function(t){return t?function(n){t.setAttribute("values",E(function(t){return[.2126+.7874*(t=1-t),.7152-.7152*t,.0722-.0722*t,0,0,.2126-.2126*t,.7152+.2848*t,.0722-.0722*t,0,0,.2126-.2126*t,.7152-.7152*t,.0722+.9278*t,0,0,0,0,0,1,0]}(n)))}:null},"hue-rotate":function(t){return t?function(n){return t.setAttribute("values",I(n))}:null},invert:function(t,n,r){return(t=yt(r,n))?function(n){n=I(n)+" "+I(1-n),t.map((function(t){return t.setAttribute("tableValues",n)}))}:null},opacity:function(t,n,r){return(t=r.getElementById(n+"-A"))?function(n){return t.setAttribute("tableValues","0 "+I(n))}:null},saturate:function(t){return t?function(n){return t.setAttribute("values",I(n))}:null},sepia:function(t){return t?function(n){return t.setAttribute("values",E(function(t){return[.393+.607*(t=1-t),.769-.769*t,.189-.189*t,0,0,.349-.349*t,.686+.314*t,.168-.168*t,0,0,.272-.272*t,.534-.534*t,.131+.869*t,0,0,0,0,0,1,0]}(n)))}:null}};var ht=["R","G","B"];function yt(t,n){var r=ht.map((function(r){return t.getElementById(n+"-"+r)||null}));return-1!==r.indexOf(null)?null:r}var dt={fill:lt,"fill-opacity":ot,stroke:lt,"stroke-opacity":ot,"stroke-width":ut,"stroke-dashoffset":{f:I,i:d},"stroke-dasharray":at,opacity:ot,transform:function(n,r,e,i){if(!(n=function(n,r){if(!n||"object"!==t(n))return null;var e=!1;for(var i in n)n.hasOwnProperty(i)&&(n[i]&&n[i].length?(n[i].forEach((function(t){t.e&&(t.e=r(t.e))})),e=!0):delete n[i]);return e?n:null}(n,i)))return null;var u=function(t,i,u){var o=arguments.length>3&&void 0!==arguments[3]?arguments[3]:null;return n[t]?e(i,n[t],u):r&&r[t]?r[t]:o};return r&&r.a&&n.o?function(t){var r=e(t,n.o,tt);return rt.recomposeSelf(r,u("r",t,d,0)+r.a,u("k",t,m),u("s",t,m),u("t",t,m)).toString()}:function(t){return rt.recomposeSelf(u("o",t,X,null),u("r",t,d,0),u("k",t,m),u("s",t,m),u("t",t,m)).toString()}},"#filter":function(t,n,r,e,i,u,o,a){if(!n.items||!t||!t.length)return null;var l=function(t,n){var r=(t=t.map((function(t){return t&&vt[t[0]]?(n.getElementById(t[1]),vt[t[0]](n.getElementById(t[1]),t[1],n)):null}))).length;return function(n){for(var e=0;e<r;e++)t[e]&&t[e](n[e].value)}}(n.items,a);return l?(t=function(t,n){return t.map((function(t){return t.e=n(t.e),t}))}(t,e),function(n){l(r(n,t,ct))}):null},"#line":it,points:{f:E,i:x},d:et,r:ut,"#size":q,"#radius":j,_:function(t,n){if(Array.isArray(t))for(var r=0;r<t.length;r++)this[t[r]]=n;else this[t]=n}},gt=function(){function t(r){n(this,t),this.list=r,this.length=r.length}return e(t,[{key:"setAttribute",value:function(t,n){for(var r=this.list,e=0;e<this.length;e++)r[e].setAttribute(t,n)}},{key:"removeAttribute",value:function(t){for(var n=this.list,r=0;r<this.length;r++)n[r].removeAttribute(t)}},{key:"style",value:function(t,n){for(var r=this.list,e=0;e<this.length;e++)r[e].style[t]=n}}]),t}(),mt=/-./g,pt=function(t,n){return n.toUpperCase()};function bt(t){return"function"==typeof t?t:y}function wt(t){return t?"function"==typeof t?t:Array.isArray(t)?function(t){var n=arguments.length>1&&void 0!==arguments[1]?arguments[1]:o;if(!Array.isArray(t))return n;switch(t.length){case 1:return c(t[0])||n;case 2:return c(t[0],t[1])||n;case 4:return l(t[0],t[1],t[2],t[3])||n}return n}(t,null):function(t,n){var r=arguments.length>2&&void 0!==arguments[2]?arguments[2]:o;switch(t){case"linear":return o;case"steps":return c(n.steps||1,n.jump||0)||r;case"bezier":case"cubic-bezier":return l(n.x1||0,n.y1||0,n.x2||0,n.y2||0)||r}return r}(t.type,t.value,null):null}function At(t,n,r){var e=arguments.length>3&&void 0!==arguments[3]&&arguments[3],i=n.length-1;if(t<=n[0].t)return e?[0,0,n[0].v]:n[0].v;if(t>=n[i].t)return e?[i,1,n[i].v]:n[i].v;var u,o=n[0],a=null;for(u=1;u<=i;u++){if(!(t>n[u].t)){a=n[u];break}o=n[u]}return null==a?e?[i,1,n[i].v]:n[i].v:o.t===a.t?e?[u,1,a.v]:a.v:(t=(t-o.t)/(a.t-o.t),o.e&&(t=o.e(t)),e?[u,t,r(t,o.v,a.v)]:r(t,o.v,a.v))}function xt(t,n){var r=arguments.length>2&&void 0!==arguments[2]?arguments[2]:null;return t&&t.length?"function"!=typeof n?null:("function"!=typeof r&&(r=null),function(e){var i=At(e,t,n);return null!=i&&r&&(i=r(i)),i}):null}function kt(t,n){return t.t-n.t}function St(n,r,e,i,u){var o,a="@"===e[0],l="#"===e[0],f=dt[e],s=y;switch(a?(o=e.substr(1),e=o.replace(mt,pt)):l&&(e=e.substr(1)),t(f)){case"function":if(s=f(i,u,At,wt,e,a,r,n),l)return s;break;case"string":s=xt(i,bt(f));break;case"object":if((s=xt(i,bt(f.i),f.f))&&"function"==typeof f.u)return f.u(r,s,e,a,n)}return s?function(t,n,r){if(arguments.length>3&&void 0!==arguments[3]&&arguments[3])return t instanceof gt?function(e){return t.style(n,r(e))}:function(e){return t.style[n]=r(e)};if(Array.isArray(n)){var e=n.length;return function(i){var u=r(i);if(null==u)for(var o=0;o<e;o++)t[o].removeAttribute(n);else for(var a=0;a<e;a++)t[a].setAttribute(n,u)}}return function(e){var i=r(e);null==i?t.removeAttribute(n):t.setAttribute(n,i)}}(r,e,s,a):null}function _t(n,r,e,i){if(!i||"object"!==t(i))return null;var u=null,o=null;return Array.isArray(i)?o=function(t){if(!t||!t.length)return null;for(var n=0;n<t.length;n++)t[n].e&&(t[n].e=wt(t[n].e));return t.sort(kt)}(i):(o=i.keys,u=i.data||null),o?St(n,r,e,o,u):null}function Mt(t,n,r){if(!r)return null;var e=[];for(var i in r)if(r.hasOwnProperty(i)){var u=_t(t,n,i,r[i]);u&&e.push(u)}return e.length?e:null}function It(t,n){if(!n.duration||n.duration<0)return null;var r=function(t,n){if(!n)return null;var r=[];if(Array.isArray(n))for(var e=n.length,i=0;i<e;i++){var u=n[i];if(2===u.length){var o=null;if("string"==typeof u[0])o=t.getElementById(u[0]);else if(Array.isArray(u[0])){o=[];for(var a=0;a<u[0].length;a++)if("string"==typeof u[0][a]){var l=t.getElementById(u[0][a]);l&&o.push(l)}o=o.length?1===o.length?o[0]:new gt(o):null}if(o){var f=Mt(t,o,u[1]);f&&(r=r.concat(f))}}}else for(var s in n)if(n.hasOwnProperty(s)){var c=t.getElementById(s);if(c){var v=Mt(t,c,n[s]);v&&(r=r.concat(v))}}return r.length?r:null}(t,n.elements);return r?function(t,n){var r=arguments.length>2&&void 0!==arguments[2]?arguments[2]:1/0,e=arguments.length>3&&void 0!==arguments[3]?arguments[3]:1,i=arguments.length>4&&void 0!==arguments[4]&&arguments[4],u=arguments.length>5&&void 0!==arguments[5]?arguments[5]:1,o=t.length,a=e>0?n:0;i&&r%2==0&&(a=n-a);var l=null;return function(f,s){var c=f%n,v=1+(f-c)/n;s*=e,i&&v%2==0&&(s=-s);var h=!1;if(v>r)c=a,h=!0,-1===u&&(c=e>0?0:n);else if(s<0&&(c=n-c),c===l)return!1;l=c;for(var y=0;y<o;y++)t[y](c);return h}}(r,n.duration,n.iterations||1/0,n.direction||1,!!n.alternate,n.fill||1):null}var Et=function(){function t(r){var e=arguments.length>1&&void 0!==arguments[1]?arguments[1]:{};n(this,t),this._id=0,this._running=!1,this._animations=r,this.direction=e.direction||1,this.speed=e.speed||1,this.fps=e.fps||100,this.offset=e.offset||0}return e(t,[{key:"_start",value:function(){var t=this,n=arguments.length>0&&void 0!==arguments[0]?arguments[0]:0,r=-1/0,e=null,i={},u=function u(o){t._running=!0,null==e&&(e=o);var a=Math.round((o-e+n)*t.speed),l=t.fps?1e3/t.fps:0;if(a>r+l){t.offset=a,r=a;for(var f=t._animations,s=f.length,c=0,v=0;v<s;v++)i[v]?c++:(i[v]=f[v](a,t.direction),i[v]&&c++);if(c===s)return void t._stop()}t._id=window.requestAnimationFrame(u)};this._id=window.requestAnimationFrame(u)}},{key:"_stop",value:function(){this._id&&window.cancelAnimationFrame(this._id),this._running=!1}},{key:"play",value:function(){this._running||this._start(this.offset)}},{key:"stop",value:function(){this._stop(),this.offset=0;var t=this.direction,n=this._animations;requestAnimationFrame((function(){for(var r=0;r<n.length;r++)n[r](0,t)}))}},{key:"restart",value:function(){this._stop(),this.offset=0,this._start()}},{key:"pause",value:function(){this._stop()}},{key:"reverse",value:function(){this.direction=-this.direction}}],[{key:"build",value:function(n){if(!(n=function(t){if(!t||!t.root||!Array.isArray(t.animations))return null;var n=window.document.getElementById(t.root);if(!n)return null;var r=t.animations.map((function(t){return It(n,t)})).filter((function(t){return!!t}));return r.length?{element:n,animations:r,options:t.options||void 0}:null}(n)))return null;var r=n.element,e=n.options||{},i=new t(n.animations,n.options);return function(t,n,r){var e=arguments.length>3&&void 0!==arguments[3]?arguments[3]:null;if("click"===r){return void n.addEventListener("click",(function r(){n.removeEventListener("click",r),t.play()}))}if("hover"===r)return n.addEventListener("mouseenter",(function(){return t.play()})),void n.addEventListener("mouseleave","freeze"===e?function(){return t.pause()}:function(){return t.stop()});t.play()}(i,r,e.start,e.hover),i}}]),t}();return function(){for(var t=0,n=["ms","moz","webkit","o"],r=0;r<n.length&&!window.requestAnimationFrame;++r)window.requestAnimationFrame=window[n[r]+"RequestAnimationFrame"],window.cancelAnimationFrame=window[n[r]+"CancelAnimationFrame"]||window[n[r]+"CancelRequestAnimationFrame"];window.requestAnimationFrame||(window.requestAnimationFrame=function(n){var r=Date.now(),e=Math.max(0,16-(r-t)),i=window.setTimeout((function(){n(r+e)}),e);return t=r+e,i},window.cancelAnimationFrame=window.clearTimeout)}(),Et}));
__SVGATOR_PLAYER__.build({"root":"ei1sr35gyoqj1","animations":[{"duration":3000,"direction":1,"iterations":0,"fill":1,"alternate":false,"elements":{"ei1sr35gyoqj13":{"transform":{"data":{"o":{"x":101.70529507,"y":389.22487846,"type":"corner"},"t":{"x":-101.70529507,"y":-389.22487846}},"keys":{"r":[{"t":0,"v":0},{"t":700,"v":6.333796720326588},{"t":1800,"v":-4.821307789196123},{"t":3000,"v":0}]}}},"ei1sr35gyoqj16":{"transform":{"data":{"o":{"x":128.897647535,"y":412.71,"type":"corner"},"t":{"x":-128.897647535,"y":-412.71}},"keys":{"r":[{"t":0,"v":0},{"t":1400,"v":4.292616382065175},{"t":3000,"v":0}]}}},"ei1sr35gyoqj19":{"transform":{"data":{"o":{"x":101.70529507,"y":310.42255714,"type":"corner"},"t":{"x":-101.70529507,"y":-310.42255714}},"keys":{"r":[{"t":0,"v":0},{"t":1200,"v":6.2940634312289925},{"t":2300,"v":-0.7034371404056501},{"t":3000,"v":0}]}}},"ei1sr35gyoqj22":{"transform":{"data":{"o":{"x":92.802178,"y":273.46334021,"type":"corner"},"t":{"x":-92.802178,"y":-273.46334021}},"keys":{"r":[{"t":0,"v":0},{"t":1400,"v":4.107030765205872},{"t":3000,"v":0}]}}},"ei1sr35gyoqj26":{"d":[{"t":0,"v":["M",558.09,370.06,"C",558.09,370.06,565.7,360.78000000000003,561.9,351.27,"C",559.51,345.27,555.48,345.56,546.68,334.85999999999996,"C",537.8799999999999,324.1599999999999,530.27,297.50999999999993,558.0999999999999,301.79999999999995,"C",585.9299999999998,306.09,593.7799999999999,302.28,588.79,294.9,"C",583.8000000000001,287.52,566.89,276.58,573.4399999999999,262.07,"C",579.9899999999999,247.56,605.2099999999999,252.56,629.7099999999999,254.7,"C",654.2099999999999,256.84,646.1199999999999,246.14,661.1099999999999,253.26999999999998,"C",676.0999999999999,260.4,676.1099999999999,301.32,641.5999999999999,298.7,"C",607.0899999999999,296.08,600.6899999999999,297.92,602.1099999999999,310.56,"C",603.5299999999999,323.2,609.4799999999999,344.85,587.1099999999999,336.64,"C",564.7399999999999,328.42999999999995,570.8799999999999,339.08,574.9799999999999,347.88,"C",580.2099999999999,359.12,567.3699999999999,370.06,567.3699999999999,370.06,"Z"]},{"t":800,"v":["M",558.09,370.06,"C",558.09,370.06,574.49690565,364.12000000000006,570.69690565,354.61,"C",568.30690565,348.61,555.48,345.56,546.68,334.85999999999996,"C",537.8799999999999,324.1599999999999,570.574055,313.4441609999999,558.0999999999999,301.79999999999995,"C",555.3114159999998,277.346023,579.9699999999998,292.39,574.9799999999999,285.01,"C",569.99,277.63,566.89,276.58,573.4399999999999,262.07,"C",579.9899999999999,247.56,587.3199999999999,239.15290736,611.8199999999999,241.29290736,"C",640.3816489999999,244.68264535999998,639.446072,258.39493402999994,635.6899999999999,270.52388702999997,"C",629.7468859999999,285.15231502999995,588.8420459999999,262.32280199999997,611.8199999999999,285.01,"C",624.17518,304.885286,600.6899999999999,297.92,602.1099999999999,310.56,"C",603.5299999999999,323.2,593.06690565,344.16,570.69690565,335.95,"C",561.0285946119784,330.2449253740722,564.2558429511174,342.8667453761182,574.9799999999999,347.88,"C",580.2099999999999,359.12,567.3699999999999,370.06,567.3699999999999,370.06,"Z"]},{"t":2000,"v":["M",558.09,370.06,"C",558.09,370.06,577.22719571,362.23,573.42719571,352.71999999999997,"C",571.03719571,346.71999999999997,558.0300000000002,357.1000000000001,549.2300000000001,346.40000000000003,"C",540.4300000000001,335.7,529.8500000000001,310.64,557.6800000000001,314.93,"C",565.51419,300.16149300000006,578.4171957099999,299.92382612,573.42719571,292.54382612,"C",568.4371957100001,285.16382612,566.89,276.58,573.4399999999999,262.07,"C",579.9899999999999,247.56,581.37,247.86,605.87,250,"C",630.37,252.14,619.75052687,238.64000000000001,634.74052687,245.77,"C",649.7305268700001,252.9,630.0233260000001,261.221677,623.3200000000002,290.47,"C",616.3042390000002,297.8479050000001,591.483482,286.224198575,597.5899999999999,295.427418575,"C",599.0099999999999,308.067418575,609.4799999999999,344.85,587.1099999999999,336.64,"C",564.7399999999999,328.42999999999995,579.87,343.91999999999996,583.97,352.71999999999997,"C",589.2,363.96,567.3699999999999,370.06,567.3699999999999,370.06,"Z"]},{"t":3000,"v":["M",558.09,370.06,"C",558.09,370.06,565.7,360.78000000000003,561.9,351.27,"C",559.51,345.27,555.48,345.56,546.68,334.85999999999996,"C",537.8799999999999,324.1599999999999,530.27,297.50999999999993,558.0999999999999,301.79999999999995,"C",585.9299999999998,306.09,593.7799999999999,302.28,588.79,294.9,"C",583.8000000000001,287.52,566.89,276.58,573.4399999999999,262.07,"C",579.9899999999999,247.56,605.2099999999999,252.56,629.7099999999999,254.7,"C",654.2099999999999,256.84,646.1199999999999,246.14,661.1099999999999,253.26999999999998,"C",676.0999999999999,260.4,676.1099999999999,301.32,641.5999999999999,298.7,"C",607.0899999999999,296.08,600.6899999999999,297.92,602.1099999999999,310.56,"C",603.5299999999999,323.2,609.4799999999999,344.85,587.1099999999999,336.64,"C",564.7399999999999,328.42999999999995,570.8799999999999,339.08,574.9799999999999,347.88,"C",580.2099999999999,359.12,567.3699999999999,370.06,567.3699999999999,370.06,"Z"]}]},"ei1sr35gyoqj27":{"transform":{"data":{"t":{"x":-548.1025457000001,"y":-274.4226686}},"keys":{"o":[{"t":0,"v":{"x":548.1025457000001,"y":274.4226686,"type":"corner"}},{"t":800,"v":{"x":548.3792624400002,"y":269.8165989600001,"type":"corner"}},{"t":1900,"v":{"x":548.3792624400004,"y":277.5967677800001,"type":"corner"}},{"t":3000,"v":{"x":548.1025457000001,"y":274.4226686,"type":"corner"}}]}}},"ei1sr35gyoqj37":{"transform":{"data":{"o":{"x":288.62,"y":315.22,"type":"corner"},"t":{"x":-288.62,"y":-315.22}},"keys":{"r":[{"t":0,"v":0},{"t":1000,"v":-3.8107280787583657},{"t":2000,"v":6.8016330737798905},{"t":3000,"v":0}]}}}}}],"options":{"start":"load","hover":"freeze"}})]]></script></svg>